<svg xmlns="http://www.w3.org/2000/svg" width="200" height="200" viewBox="0 0 200 200" fill="none">
  <path d="M91.5625 12.8124C94.6875 19.6874 96.875 33.7499 96.875 56.2499V168.75H103.125V58.4374C103.125 34.0624 98.4375 18.7499 95 10.9374C91.5625 3.74992 88.125 5.31242 91.5625 12.8124Z" fill="#33691E"/>
  <path d="M110.313 63.125L108.125 60.9375C113.125 56.5625 114.375 48.125 115.938 41.5625C116.562 39.375 118.125 37.5 120 36.875C125.938 34.6875 131.563 32.1875 136.875 29.375C138.125 28.75 139.688 28.4375 140.938 28.75C148.75 30.3125 155 33.4375 162.188 32.8125C171.25 32.1875 173.75 35.3125 164.063 36.25C156.25 36.875 148.125 36.5625 139.688 35C134.063 38.125 128.125 40.625 121.875 42.8125C120.313 50.3125 115.938 57.8125 110.313 63.125Z" fill="#33691E"/>
  <path d="M156.875 33.1248C159.375 33.1248 161.563 33.1248 163.75 32.8123C154.688 35.3123 145.938 38.1248 137.188 41.2498C126.875 44.9998 118.125 51.8748 111.875 60.9373C111.25 60.3123 110.625 60.3123 109.687 60.3123C109.062 60.3123 108.438 60.6248 107.812 60.9373C113.125 55.9373 116.875 49.3748 118.75 42.1873C119.062 40.9373 119.688 40.3123 120.938 39.6873C126.875 37.4998 132.813 34.9998 138.125 32.1873C138.75 31.8748 139.688 31.5623 140.313 31.8748C145.938 32.8123 151.25 33.1248 156.875 33.1248Z" fill="#558B2F"/>
  <path d="M103.125 93.75H100C100 84.0625 102.5 74.375 107.187 65.625C108.437 63.4375 109.688 61.5625 110.938 59.6875C117.5 50.3125 126.563 43.4375 137.188 39.6875C160.625 31.25 190.625 26.5625 190.625 26.5625C181.562 28.4375 172.5 31.5625 164.062 33.75C154.688 36.25 146.25 39.6875 138.125 42.8125C128.125 46.25 119.687 52.8125 113.437 61.875C112.187 63.4375 110.938 65.3125 110 67.5C105.313 75.3125 103.125 84.375 103.125 93.75Z" fill="#33691E"/>
  <path d="M165 43.4375C158.125 56.5625 142.5 63.75 126.562 63.75C121.875 63.75 111.875 60.9375 111.875 60.9375C110.937 58.75 107.813 58.4375 105.938 59.0625C104.375 59.6875 103.125 61.25 103.125 63.4375C103.125 65.3125 104.063 67.1875 105.313 68.4375C107.188 65.9375 108.437 62.8125 110.312 64.0625C114.687 66.875 120.313 70 126.25 70C144.063 70 160.937 60.9375 169.688 46.5625C174.375 38.75 180.625 30 190 26.5625C190.625 26.5625 171.562 30.9375 165 43.4375Z" fill="#689F38"/>
  <path d="M190.625 26.5625C181.25 30.3125 173.125 36.5625 167.812 45C159.375 58.4375 143.75 66.875 126.875 66.875C120.937 66.875 116.25 64.6875 112.188 60.9375C118.438 52.1875 127.187 45 137.5 41.25C146.25 38.125 155 35.3125 164.062 32.8125C173.437 32.1875 182.187 30 190.625 26.5625Z" fill="#8BC34A"/>
  <path d="M157.5 33.75C166.25 30.9375 180.625 27.8125 190.625 26.875C182.187 30 175.938 37.1875 157.5 33.75Z" fill="#558B2F"/>
  <path d="M102.5 92.5C101.875 89.375 100.938 86.5625 100 83.125C95.3125 69.0625 87.5 56.875 76.875 46.5625C59.6875 30 38.75 21.5625 14.0625 21.5625H11.875L13.75 23.125C41.5625 45.3125 66.5625 70.9375 88.125 99.0625C88.4375 99.375 88.4375 99.6875 88.75 99.6875C89.6875 100.625 90.3125 101.875 90.9375 102.813C91.5625 103.75 91.875 104.375 92.1875 105C94.0625 106.562 97.8125 105.625 99.6875 103.438C101.562 101.25 102.813 98.125 102.813 95C102.813 94.0625 102.812 93.4375 102.5 92.5Z" fill="#689F38"/>
  <path d="M86.5625 96.875C65 69.375 40.625 44.6875 13.4375 22.8125L11.875 21.25C17.5 60.9375 47.8125 93.75 87.8125 98.75C87.8125 98.75 87.1875 97.5 86.5625 96.875Z" fill="#558B2F"/>
  <path d="M100 131.25H96.875C96.875 120.312 95.3125 111.563 90 104.375C88.125 101.563 85.3125 97.8125 85.3125 97.8125C81.5625 92.8125 84.0625 90.9375 87.8125 95.9375C87.8125 95.9375 90.3125 99.375 92.5 102.188C98.125 110 100 119.375 100 131.25ZM77.5 87.8125C73.4375 83.125 70 77.8125 65.625 73.125C64.0625 71.25 65.3125 70 67.1875 71.875C71.25 76.5625 75.9375 80.9375 80 85.625C82.1875 88.75 79.6875 90.625 77.5 87.8125ZM61.5625 68.75C53.125 59.6875 44.0625 50.625 35 42.5C33.125 40.9375 34.0625 39.6875 35.9375 41.25C45.3125 49.6875 54.375 58.4375 62.8125 67.5C64.375 69.0625 62.8125 70.3125 61.5625 68.75ZM25.625 34.0625C21.5625 30.3125 15.625 25.3125 11.875 21.25C11.875 21.25 22.5 29.375 26.5625 32.8125C29.0625 35.3125 28.125 36.25 25.625 34.0625Z" fill="#33691E"/>
  <path d="M159.688 180.625C159.688 184.687 156.25 188.125 152.188 188.125C148.125 188.125 144.688 184.687 144.688 180.625C144.688 180 144.688 179.375 145 179.062C143.125 181.25 140.312 182.812 137.188 182.812C131.562 182.812 127.188 178.125 127.188 172.5C127.188 166.875 131.562 162.188 137.188 162.188C142.812 162.188 147.187 166.875 147.187 172.5C147.187 173.437 146.875 174.375 146.562 175.312C147.812 173.75 150 172.812 152.188 172.812C156.25 173.125 159.688 176.562 159.688 180.625ZM106.25 163.75C99.6875 163.75 94.0625 169.062 94.0625 175.937C94.0625 176.25 94.0625 176.562 94.0625 176.875C93.4375 176.562 92.8125 176.562 92.1875 176.562C91.875 176.562 91.5625 176.562 91.5625 176.562C91.5625 176.25 91.5625 175.625 91.5625 175.312C91.5625 169.687 87.1875 165 81.5625 165C75.9375 165 71.5625 169.687 71.5625 175.312C71.5625 178.125 72.5 180.625 74.375 182.187C73.75 183.125 73.75 184.062 73.75 185.312C73.75 188.75 76.5625 191.562 80 191.562C83.4375 191.562 86.25 188.75 86.25 185.312C86.25 185 86.25 184.687 86.25 184.375C86.5625 184.375 86.875 184.062 87.1875 183.75C87.8125 186.25 90 187.812 92.5 187.812C95 187.812 96.875 186.25 97.8125 184.375C100 186.562 103.125 188.125 106.562 188.125C113.125 188.125 118.75 182.812 118.75 175.937C118.125 169.375 112.812 163.75 106.25 163.75ZM64.0625 174.375C60 174.375 56.5625 177.812 56.5625 181.875C56.5625 185.938 60 189.375 64.0625 189.375C68.125 189.375 71.5625 185.938 71.5625 181.875C71.5625 177.812 68.125 174.375 64.0625 174.375Z" fill="#212121"/>
  <path d="M93.125 173.125C89.375 173.125 86.5625 170 86.5625 166.562C86.5625 162.812 89.375 160 93.125 160C96.875 160 99.6875 163.125 99.6875 166.562C99.6875 170.312 96.875 173.125 93.125 173.125ZM99.6875 177.5C95.9375 177.5 92.8125 180.625 92.8125 184.375C92.8125 188.125 95.9375 191.25 99.6875 191.25C103.438 191.25 106.562 188.125 106.562 184.375C106.562 180.625 103.438 177.5 99.6875 177.5ZM121.875 155.938C118.75 155.938 115.625 157.812 114.375 160.312C113.75 160 112.812 159.687 111.875 159.687C109.062 159.687 106.875 161.875 106.875 164.687C106.875 167.5 109.062 169.687 111.875 169.687C112.812 169.687 113.75 169.375 114.375 169.062C115.938 171.875 118.75 173.437 121.875 173.437C126.875 173.437 130.625 169.375 130.625 164.687C130.625 160 126.875 155.938 121.875 155.938ZM35.625 177.5C35.625 180.312 37.8125 182.5 40.625 182.5C43.4375 182.5 45.625 180.312 45.625 177.5C45.625 174.687 43.4375 172.5 40.625 172.5C37.8125 172.5 35.625 175 35.625 177.5Z" fill="#6D4C41"/>
  <path d="M134.375 181.25C134.375 188.125 128.75 193.75 121.875 193.75C115 193.75 109.375 188.125 109.375 181.25C109.375 174.375 115 168.75 121.875 168.75C128.75 168.75 134.375 174.375 134.375 181.25ZM137.5 160.938C133.125 160.938 129.688 164.375 129.688 168.75C129.688 173.125 133.125 176.562 137.5 176.562C141.875 176.562 145.312 173.125 145.312 168.75C145.312 164.375 141.875 160.938 137.5 160.938ZM109.375 162.5C105.938 162.5 103.125 165.312 103.125 168.75C103.125 172.188 105.938 175 109.375 175C112.812 175 115.625 172.188 115.625 168.75C115.625 165.312 112.812 162.5 109.375 162.5ZM150 170.312C147.5 170.312 145.312 172.5 145.312 175C145.312 177.5 147.5 179.688 150 179.688C152.5 179.688 154.688 177.5 154.688 175C154.688 172.5 152.5 170.312 150 170.312ZM71.875 157.812C65.9375 157.812 60.9375 162.812 60.9375 168.75C60.9375 174.688 65.9375 179.688 71.875 179.688C77.8125 179.688 82.8125 174.688 82.8125 168.75C82.8125 162.812 77.8125 157.812 71.875 157.812Z" fill="#3E2723"/>
  <path d="M65.625 178.125C65.625 185 60 190.625 53.125 190.625C46.25 190.625 40.625 185 40.625 178.125C40.625 171.25 46.25 165.625 53.125 165.625C60 165.625 65.625 171.25 65.625 178.125ZM96.875 168.75C91.5625 168.75 87.5 172.812 87.5 178.125C87.5 183.438 91.5625 187.5 96.875 187.5C102.188 187.5 106.25 183.438 106.25 178.125C106.25 172.812 102.188 168.75 96.875 168.75ZM84.375 162.5C80.9375 162.5 78.125 165.312 78.125 168.75C78.125 172.188 80.9375 175 84.375 175C87.8125 175 90.625 172.188 90.625 168.75C90.625 165.312 87.8125 162.5 84.375 162.5ZM140.625 175C135.312 175 131.25 179.062 131.25 184.375C131.25 189.688 135.312 193.75 140.625 193.75C145.938 193.75 150 189.688 150 184.375C150 179.062 145.938 175 140.625 175Z" fill="#4E342E"/>
  <path d="M43.75 184.375C43.75 187.812 40.9375 190.625 37.5 190.625C34.0625 190.625 31.25 187.812 31.25 184.375C31.25 180.938 34.0625 178.125 37.5 178.125C40.9375 178.125 43.75 180.938 43.75 184.375ZM71.875 176.562C67.5 176.562 64.0625 180 64.0625 184.375C64.0625 188.75 67.5 192.188 71.875 192.188C76.25 192.188 79.6875 188.75 79.6875 184.375C79.6875 180 76.25 176.562 71.875 176.562ZM87.5 182.812C85 182.812 82.8125 185 82.8125 187.5C82.8125 190 85 192.188 87.5 192.188C90 192.188 92.1875 190 92.1875 187.5C92.1875 185 90 182.812 87.5 182.812ZM106.25 182.812C103.75 182.812 101.562 185 101.562 187.5C101.562 190 103.75 192.188 106.25 192.188C108.75 192.188 110.938 190 110.938 187.5C110.938 185 108.75 182.812 106.25 182.812ZM159.375 178.125C155.938 178.125 153.125 180.938 153.125 184.375C153.125 187.812 155.938 190.625 159.375 190.625C162.812 190.625 165.625 187.812 165.625 184.375C165.625 180.938 162.812 178.125 159.375 178.125Z" fill="#5D4037"/>
</svg>