<svg width="288" height="288" viewBox="0 0 288 288" fill="none" xmlns="http://www.w3.org/2000/svg">
<path d="M190.457 80.6396H96.3592C91.5237 80.6396 88.9691 82.9955 88.9691 87.808C88.9691 127.538 89.0411 220.328 89.0411 220.328L89.0498 231.004L97.9864 225.051C97.9864 225.051 131.824 202.587 143.139 195.036C144.375 195.866 145.607 196.686 146.846 197.513L198.72 231.025V87.278C198.72 84.7264 197.012 83.3123 196.125 82.4137C195.241 81.5152 192.972 80.6396 190.457 80.6396ZM138.24 184.896C135.36 186.615 132.48 189.377 126.72 192.568V92.1596H138.24V184.896ZM100.489 92.1596H115.2V200.22C109.44 203.558 104.89 207.031 100.889 209.687C100.872 185.184 100.492 123.84 100.489 92.1596ZM149.76 185.14V92.1596H161.28V192.847L149.76 185.14ZM187.2 209.687L172.8 200.543V92.1596H187.2V209.687Z" fill="url(#paint0_linear)"/>
<path d="M131.118 66.4727C131.155 66.5332 131.19 66.5908 131.224 66.6513C131.224 70.0209 131.25 71.7978 131.25 71.7978L131.345 77.7594H155.52V68.2209L155.319 66.6311C156.819 64.0823 158.247 61.5508 159.788 59.025C161.813 55.7015 160.86 52.8417 160.14 51.4276C159.843 50.8458 159.578 50.2353 159.33 49.6247L149.544 26.7863C149.311 26.242 149.055 25.7034 148.767 25.0871L143.398 13.4663L137.782 24.5169C137.569 24.9229 137.414 25.2282 137.27 25.5652L130.591 41.2727C129.044 44.8814 127.495 48.4929 125.974 52.1101C125.113 54.1521 125.274 56.6116 126.377 58.5009C127.921 61.185 129.508 63.8404 131.118 66.4727ZM141.181 45.8145L143.165 41.1748L148.205 52.9281L148.623 53.9361C148.709 54.1578 148.801 54.3796 148.89 54.5985C147.522 56.8477 146.163 59.4052 144.827 61.6833C144.087 62.9476 143.655 63.3594 143.597 66.2394H142.724C142.577 63.3594 141.716 62.026 140.947 60.7646C139.761 58.8263 138.589 56.7268 137.431 54.7511C138.672 51.8164 139.928 48.7434 141.181 45.8145Z" fill="url(#paint1_linear)"/>
<path d="M161.28 228.176C161.28 223.709 161.061 219.242 161.081 214.775C161.093 212.083 159.768 209.813 157.562 208.396C155.918 207.331 146.247 201.286 146.247 201.286L143.148 199.356L140.066 201.291C140.066 201.291 130.481 207.339 128.84 208.393C127.561 209.214 125.413 211.138 125.427 214.787C125.444 226.451 125.444 238.118 125.418 249.776C125.413 251.879 126.075 253.359 127.394 254.661C128.287 255.536 129.856 256.319 132.327 256.319C132.379 256.319 132.431 256.319 132.483 256.319C135.634 256.319 150.336 256.51 153.74 256.559C155.978 256.576 157.588 256.06 158.91 254.747C160.235 253.431 161.11 251.76 161.093 249.661C161.058 245.447 161.28 241.292 161.28 237.075V228.176ZM149.55 245.257C145.829 245.246 140.766 245.249 137.056 245.26C137.071 235.808 137.013 226.353 137.002 216.884C138.741 215.781 141.201 214.208 143.159 212.973C145.126 214.208 147.819 215.783 149.564 216.884C149.556 220.651 149.76 224.418 149.76 228.182V237.067C149.76 239.8 149.541 242.527 149.55 245.257Z" fill="url(#paint2_linear)"/>
<path d="M223.425 80.041C215.22 80.041 211.801 84.5396 210.764 89.2801H201.6V100.8H212.198C215.879 106.862 218.722 106.862 223.425 106.862C230.818 106.862 236.834 100.846 236.834 93.4532C236.834 86.0602 230.82 80.041 223.425 80.041ZM223.425 95.2849C222.382 95.2849 221.535 94.4381 221.535 93.3956C221.535 92.353 222.382 91.5063 223.425 91.5063C224.467 91.5063 225.314 92.353 225.314 93.3956C225.314 94.4381 224.467 95.2849 223.425 95.2849Z" fill="url(#paint3_linear)"/>
<path d="M64.5755 80.041C57.1826 80.041 51.1663 86.0285 51.1663 93.4215C51.1663 100.814 57.1826 106.874 64.5755 106.874C69.2786 106.874 73.1263 105.837 75.8018 100.797H86.4002V89.2772H76.3663C76.3663 85.3201 70.4824 80.041 64.5755 80.041ZM64.5755 95.2849C63.533 95.2849 62.6863 94.4381 62.6863 93.3956C62.6863 92.353 63.533 91.5063 64.5755 91.5063C65.6181 91.5063 66.4648 92.353 66.4648 93.3956C66.4648 94.4381 65.6181 95.2849 64.5755 95.2849Z" fill="url(#paint4_linear)"/>
<path d="M190.457 80.6396H96.3592C91.5237 80.6396 88.9691 82.9955 88.9691 87.808C88.9691 127.538 89.0411 220.328 89.0411 220.328L89.0498 231.004L97.9864 225.051C97.9864 225.051 131.824 202.587 143.139 195.036C144.375 195.866 145.607 196.686 146.846 197.513L198.72 231.025V87.278C198.72 84.7264 197.012 83.3123 196.125 82.4137C195.241 81.5152 192.972 80.6396 190.457 80.6396ZM138.24 184.896C135.36 186.615 132.48 189.377 126.72 192.568V92.1596H138.24V184.896ZM100.489 92.1596H115.2V200.22C109.44 203.558 104.89 207.031 100.889 209.687C100.872 185.184 100.492 123.84 100.489 92.1596ZM149.76 185.14V92.1596H161.28V192.847L149.76 185.14ZM187.2 209.687L172.8 200.543V92.1596H187.2V209.687Z" fill="url(#paint5_linear)"/>
<path d="M131.118 66.4727C131.155 66.5332 131.19 66.5908 131.224 66.6513C131.224 70.0209 131.25 71.7978 131.25 71.7978L131.345 77.7594H155.52V68.2209L155.319 66.6311C156.819 64.0823 158.247 61.5508 159.788 59.025C161.813 55.7015 160.86 52.8417 160.14 51.4276C159.843 50.8458 159.578 50.2353 159.33 49.6247L149.544 26.7863C149.311 26.242 149.055 25.7034 148.767 25.0871L143.398 13.4663L137.782 24.5169C137.569 24.9229 137.414 25.2282 137.27 25.5652L130.591 41.2727C129.044 44.8814 127.495 48.4929 125.974 52.1101C125.113 54.1521 125.274 56.6116 126.377 58.5009C127.921 61.185 129.508 63.8404 131.118 66.4727ZM141.181 45.8145L143.165 41.1748L148.205 52.9281L148.623 53.9361C148.709 54.1578 148.801 54.3796 148.89 54.5985C147.522 56.8477 146.163 59.4052 144.827 61.6833C144.087 62.9476 143.655 63.3594 143.597 66.2394H142.724C142.577 63.3594 141.716 62.026 140.947 60.7646C139.761 58.8263 138.589 56.7268 137.431 54.7511C138.672 51.8164 139.928 48.7434 141.181 45.8145Z" fill="url(#paint6_linear)"/>
<path d="M161.28 228.176C161.28 223.709 161.061 219.242 161.081 214.775C161.093 212.083 159.768 209.813 157.562 208.396C155.918 207.331 146.247 201.286 146.247 201.286L143.148 199.356L140.066 201.291C140.066 201.291 130.481 207.339 128.84 208.393C127.561 209.214 125.413 211.138 125.427 214.787C125.444 226.451 125.444 238.118 125.418 249.776C125.413 251.879 126.075 253.359 127.394 254.661C128.287 255.536 129.856 256.319 132.327 256.319C132.379 256.319 132.431 256.319 132.483 256.319C135.634 256.319 150.336 256.51 153.74 256.559C155.978 256.576 157.588 256.06 158.91 254.747C160.235 253.431 161.11 251.76 161.093 249.661C161.058 245.447 161.28 241.292 161.28 237.075V228.176ZM149.55 245.257C145.829 245.246 140.766 245.249 137.056 245.26C137.071 235.808 137.013 226.353 137.002 216.884C138.741 215.781 141.201 214.208 143.159 212.973C145.126 214.208 147.819 215.783 149.564 216.884C149.556 220.651 149.76 224.418 149.76 228.182V237.067C149.76 239.8 149.541 242.527 149.55 245.257Z" fill="url(#paint7_linear)"/>
<path d="M223.425 80.041C215.22 80.041 211.801 84.5396 210.764 89.2801H201.6V100.8H212.198C215.879 106.862 218.722 106.862 223.425 106.862C230.818 106.862 236.834 100.846 236.834 93.4532C236.834 86.0602 230.82 80.041 223.425 80.041ZM223.425 95.2849C222.382 95.2849 221.535 94.4381 221.535 93.3956C221.535 92.353 222.382 91.5063 223.425 91.5063C224.467 91.5063 225.314 92.353 225.314 93.3956C225.314 94.4381 224.467 95.2849 223.425 95.2849Z" fill="url(#paint8_linear)"/>
<path d="M64.5755 80.041C57.1826 80.041 51.1663 86.0285 51.1663 93.4215C51.1663 100.814 57.1826 106.874 64.5755 106.874C69.2786 106.874 73.1263 105.837 75.8018 100.797H86.4002V89.2772H76.3663C76.3663 85.3201 70.4824 80.041 64.5755 80.041ZM64.5755 95.2849C63.533 95.2849 62.6863 94.4381 62.6863 93.3956C62.6863 92.353 63.533 91.5063 64.5755 91.5063C65.6181 91.5063 66.4648 92.353 66.4648 93.3956C66.4648 94.4381 65.6181 95.2849 64.5755 95.2849Z" fill="url(#paint9_linear)"/>
<defs>
<linearGradient id="paint0_linear" x1="143.844" y1="231.024" x2="143.844" y2="80.6396" gradientUnits="userSpaceOnUse">
<stop stop-color="#C433FF"/>
<stop offset="0.2577" stop-color="#D72EF0"/>
<stop offset="0.7304" stop-color="#F425D8"/>
<stop offset="1" stop-color="#FF22CF"/>
</linearGradient>
<linearGradient id="paint1_linear" x1="143.217" y1="77.7594" x2="143.217" y2="13.4709" gradientUnits="userSpaceOnUse">
<stop stop-color="#C433FF"/>
<stop offset="0.2577" stop-color="#D72EF0"/>
<stop offset="0.7304" stop-color="#F425D8"/>
<stop offset="1" stop-color="#FF22CF"/>
</linearGradient>
<linearGradient id="paint2_linear" x1="143.351" y1="256.56" x2="143.351" y2="199.358" gradientUnits="userSpaceOnUse">
<stop stop-color="#C433FF"/>
<stop offset="0.2577" stop-color="#D72EF0"/>
<stop offset="0.7304" stop-color="#F425D8"/>
<stop offset="1" stop-color="#FF22CF"/>
</linearGradient>
<linearGradient id="paint3_linear" x1="219.218" y1="106.862" x2="219.218" y2="80.0422" gradientUnits="userSpaceOnUse">
<stop stop-color="#C433FF"/>
<stop offset="0.2577" stop-color="#D72EF0"/>
<stop offset="0.7304" stop-color="#F425D8"/>
<stop offset="1" stop-color="#FF22CF"/>
</linearGradient>
<linearGradient id="paint4_linear" x1="68.7826" y1="106.877" x2="68.7826" y2="80.0422" gradientUnits="userSpaceOnUse">
<stop stop-color="#C433FF"/>
<stop offset="0.2577" stop-color="#D72EF0"/>
<stop offset="0.7304" stop-color="#F425D8"/>
<stop offset="1" stop-color="#FF22CF"/>
</linearGradient>
<linearGradient id="paint5_linear" x1="144" y1="256.56" x2="144" y2="13.4711" gradientUnits="userSpaceOnUse">
<stop stop-color="#C433FF"/>
<stop offset="0.2577" stop-color="#D72EF0"/>
<stop offset="0.7304" stop-color="#F425D8"/>
<stop offset="1" stop-color="#FF22CF"/>
</linearGradient>
<linearGradient id="paint6_linear" x1="144" y1="256.56" x2="144" y2="13.4709" gradientUnits="userSpaceOnUse">
<stop stop-color="#C433FF"/>
<stop offset="0.2577" stop-color="#D72EF0"/>
<stop offset="0.7304" stop-color="#F425D8"/>
<stop offset="1" stop-color="#FF22CF"/>
</linearGradient>
<linearGradient id="paint7_linear" x1="144" y1="256.56" x2="144" y2="13.4709" gradientUnits="userSpaceOnUse">
<stop stop-color="#C433FF"/>
<stop offset="0.2577" stop-color="#D72EF0"/>
<stop offset="0.7304" stop-color="#F425D8"/>
<stop offset="1" stop-color="#FF22CF"/>
</linearGradient>
<linearGradient id="paint8_linear" x1="144" y1="256.561" x2="144" y2="13.4716" gradientUnits="userSpaceOnUse">
<stop stop-color="#C433FF"/>
<stop offset="0.2577" stop-color="#D72EF0"/>
<stop offset="0.7304" stop-color="#F425D8"/>
<stop offset="1" stop-color="#FF22CF"/>
</linearGradient>
<linearGradient id="paint9_linear" x1="144" y1="256.561" x2="144" y2="13.4715" gradientUnits="userSpaceOnUse">
<stop stop-color="#C433FF"/>
<stop offset="0.2577" stop-color="#D72EF0"/>
<stop offset="0.7304" stop-color="#F425D8"/>
<stop offset="1" stop-color="#FF22CF"/>
</linearGradient>
</defs>
</svg>
