<svg width="288" height="288" viewBox="0 0 288 288" fill="none" xmlns="http://www.w3.org/2000/svg">
<path fill-rule="evenodd" clip-rule="evenodd" d="M152.239 70.1526C173.021 48.7134 206.494 45.5509 228.878 64.608C254.671 86.6223 256.026 126.133 232.862 149.954L153.389 232.015C150.842 234.684 147.475 235.999 144.107 235.999C140.739 235.999 137.371 234.643 134.825 232.015L55.3514 149.954C32.2693 126.133 33.6247 86.6223 59.4175 64.608C85.4978 42.4295 119.3 52.8616 136.057 70.1937L144.148 78.5312L152.239 70.1526ZM144.312 222.897L223.498 140.836C239.269 124.531 242.514 93.5222 220.335 74.6294C197.91 55.5312 171.214 69.4955 161.685 79.3526L144.148 97.4651L126.61 79.3526C116.917 69.3312 90.4675 55.408 67.9603 74.6294C45.7407 93.5633 49.0265 124.572 64.7979 140.836L144.312 222.897ZM137 123C137 119.134 140.134 116 144 116C147.866 116 151 119.134 151 123V137H165C168.866 137 172 140.134 172 144C172 147.866 168.866 151 165 151H151V165C151 168.866 147.866 172 144 172C140.134 172 137 168.866 137 165V151H123C119.134 151 116 147.866 116 144C116 140.134 119.134 137 123 137H137V123Z" fill="url(#paint0_linear)"/>
<defs>
<linearGradient id="paint0_linear" x1="144.142" y1="235.994" x2="144.142" y2="51.9991" gradientUnits="userSpaceOnUse">
<stop offset="0.0112" stop-color="#009B5B"/>
<stop offset="1" stop-color="#9CCE62"/>
</linearGradient>
</defs>
</svg>
