<svg width="288" height="288" viewBox="0 0 288 288" fill="none" xmlns="http://www.w3.org/2000/svg">
<path d="M146.065 250.113H140.705L139.806 249.814C135.674 248.42 132.719 245.811 130.141 243.201C121.76 234.728 114.022 227.004 106.485 219.594C105.163 218.295 103.409 216.665 101.554 215.591C100.307 214.868 99.1034 214.701 98.0637 215.11C96.9981 215.527 96.1716 216.538 95.7338 217.961C95.4429 218.903 95.2644 220.066 95.0743 221.302C94.985 221.872 94.8957 222.445 94.7949 223.015C92.514 236.056 84.7696 241.468 78.6698 243.711C69.7533 246.994 61.0096 245.376 53.4007 239.014C45.7284 232.594 42.1601 224.91 42.7908 216.17C43.6663 204.151 52.6749 194.898 65.2058 193.144C67.242 192.856 69.1975 192.554 70.7527 191.946C71.8615 191.517 72.6535 190.797 72.9876 189.918C73.2957 189.112 73.2036 188.188 72.7255 187.249C71.8154 185.466 70.3437 183.539 68.224 181.362C60.3357 173.266 52.3869 165.384 44.9191 158.002C42.2724 155.39 39.6228 152.395 38.1914 148.222L37.8804 147.315V141.218L38.7156 139.838C39.0237 139.325 39.3089 138.784 39.594 138.245C40.4637 136.598 41.4516 134.732 43.0874 133.059C52.433 123.506 61.9226 114.094 71.104 104.993C72.5383 103.57 74.2893 102.309 76.1757 101.347C79.4359 99.6736 82.8228 99.4865 85.7057 100.814C88.5943 102.145 90.6564 104.849 91.5089 108.435C91.8717 109.958 92.056 111.444 92.2173 112.755C92.2893 113.339 92.3642 113.921 92.4506 114.5C93.6775 122.463 97.5943 127.221 104.777 129.479C110.341 131.233 115.758 130.029 121.357 125.824C127.996 120.842 130.804 114.511 129.945 106.476C129.271 100.152 123.405 94.2737 116.297 92.7991C115.223 92.5773 114.128 92.4305 113.037 92.2807C111.591 92.082 110.145 91.8746 108.723 91.5665C104.979 90.7601 102.162 88.6864 100.791 85.7316C99.4346 82.8112 99.6564 79.3869 101.413 76.0865C102.493 74.0618 104.025 72.066 106.096 69.978C110.477 65.5543 114.883 61.1508 119.292 56.7444C123.434 52.6087 127.569 48.4759 131.688 44.3229C133.859 42.1284 136.895 39.4471 141.117 38.1396L141.949 37.8804H147.297L148.199 38.1857C152.334 39.5882 155.284 42.1946 157.855 44.7981C166.311 53.3517 174.093 61.1162 181.647 68.5351C182.845 69.7101 184.657 71.3978 186.543 72.4548C187.747 73.1287 188.916 73.2727 189.927 72.881C190.964 72.472 191.779 71.4957 192.217 70.1306C192.528 69.1658 192.718 67.9562 192.917 66.6775C193.003 66.1015 193.095 65.5284 193.196 64.9553C195.019 54.5901 200.367 47.6609 209.093 44.3661C218.085 40.9591 226.903 42.5604 234.587 48.977C242.167 55.3015 245.741 62.9047 245.209 71.5649C244.469 83.681 235.46 93.0381 222.794 94.8468C220.74 95.1405 218.773 95.4516 217.221 96.0535C216.115 96.4769 215.326 97.194 214.995 98.0666C214.686 98.873 214.779 99.8033 215.26 100.751C216.17 102.531 217.641 104.454 219.761 106.626C227.77 114.845 235.996 122.996 243.072 129.986C245.718 132.601 248.362 135.593 249.799 139.763L250.113 140.676V146.762L249.295 148.13C248.999 148.625 248.734 149.149 248.463 149.668C247.66 151.211 246.66 153.135 245.042 154.788C236.341 163.67 227.076 172.941 216.711 183.13C214.989 184.821 212.685 186.249 209.857 187.375C204.837 189.389 199.615 187.162 197.453 182.105C196.652 180.239 196.11 178.09 195.889 175.904C195.221 169.237 193.21 164.885 189.377 161.792C183.197 156.804 176.452 156.467 168.756 160.756C161.355 164.883 157.026 173.2 157.991 181.463C158.734 187.833 164.621 193.734 171.688 195.186C172.728 195.399 173.785 195.54 174.836 195.687C176.429 195.906 178.073 196.133 179.801 196.557C183.326 197.418 185.979 199.477 187.272 202.349C188.556 205.205 188.343 208.526 186.673 211.697C185.561 213.802 183.96 215.925 181.909 217.998C177.402 222.557 172.863 227.091 168.33 231.624C164.318 235.633 160.309 239.639 156.317 243.668C154.166 245.839 151.154 248.506 146.914 249.845L146.065 250.113ZM142.738 238.593H144.152C145.368 238.061 146.572 237.136 148.13 235.564C152.136 231.523 156.156 227.5 160.182 223.479C164.701 218.963 169.223 214.445 173.71 209.9C174.539 209.062 175.228 208.25 175.769 207.478C174.977 207.334 174.133 207.219 173.261 207.098C171.959 206.916 170.654 206.735 169.37 206.47C157.458 204.022 147.859 194.066 146.549 182.796C145.048 169.96 151.721 157.058 163.149 150.693C174.914 144.144 186.794 144.901 196.612 152.827C202.864 157.873 206.378 165.044 207.351 174.749C207.386 175.089 207.435 175.426 207.498 175.757C208.085 175.406 208.437 175.109 208.633 174.919C218.946 164.782 228.162 155.563 236.811 146.733C237.231 146.307 237.741 145.319 238.239 144.363C238.354 144.135 238.475 143.91 238.593 143.683V142.753C237.879 141.238 236.652 139.847 234.973 138.185C227.86 131.161 219.591 122.967 211.513 114.673C208.575 111.66 206.444 108.821 205.001 105.987C203.022 102.11 202.752 97.8391 204.235 93.9569C205.747 89.9997 208.883 86.9325 213.065 85.314C215.746 84.2743 218.425 83.8365 221.166 83.4477C228.384 82.4196 233.309 77.4804 233.712 70.8679C234.014 65.9287 231.946 61.7873 227.203 57.8273C222.771 54.1322 218.186 53.2538 213.166 55.1517C210.156 56.2893 205.989 58.7489 204.543 66.9684C204.457 67.4666 204.376 67.9648 204.301 68.4602C204.053 70.0471 203.774 71.8413 203.187 73.6701C201.689 78.3185 198.394 81.9444 194.138 83.6148C189.918 85.265 185.1 84.8676 180.904 82.5117C177.817 80.778 175.242 78.402 173.574 76.7632C165.977 69.304 158.155 61.4993 149.659 52.9053C148.055 51.281 146.716 50.0945 145.253 49.409H143.833C142.64 49.9303 141.439 50.8548 139.87 52.4388C135.737 56.609 131.584 60.7591 127.434 64.9063C123.042 69.2925 118.647 73.6817 114.281 78.0967C113.405 78.9751 112.72 79.7757 112.196 80.5216C112.997 80.6599 113.803 80.7693 114.609 80.8788C115.957 81.0631 117.305 81.256 118.633 81.5325C130.815 84.0583 140.178 93.8186 141.396 105.264C142.686 117.328 138.148 127.633 128.269 135.049C119.727 141.462 110.413 143.343 101.318 140.48C89.9565 136.906 82.9495 128.534 81.0631 116.262C80.9565 115.571 80.8701 114.88 80.7837 114.183C80.6944 113.472 80.608 112.786 80.5015 112.147C80.0234 112.461 79.5828 112.812 79.2141 113.178C70.0644 122.25 60.6064 131.63 51.3213 141.12C50.8519 141.598 50.3047 142.632 49.7777 143.631C49.6538 143.87 49.5271 144.106 49.4004 144.342V145.253C50.1117 146.762 51.3357 148.153 53.0177 149.812C60.5229 157.23 68.5178 165.159 76.4781 173.33C79.4186 176.351 81.544 179.19 82.984 182.019C84.9597 185.881 85.2304 190.146 83.753 194.025C82.2439 197.988 79.1076 201.064 74.9258 202.688C72.2244 203.74 69.4308 204.189 66.8042 204.555C59.6733 205.557 54.7572 210.441 54.282 217.008C53.9191 221.976 55.9898 226.163 60.7908 230.178C65.1712 233.847 69.7274 234.728 74.6897 232.9C77.754 231.771 81.9962 229.317 83.4477 221.028C83.5312 220.536 83.609 220.04 83.6839 219.545C83.9172 218.036 84.1821 216.325 84.7149 214.583C86.1809 209.802 89.513 206.084 93.8532 204.382C98.1559 202.697 103.066 203.146 107.329 205.626C110.298 207.345 112.752 209.606 114.557 211.38C122.132 218.828 129.908 226.587 138.326 235.1C139.939 236.73 141.284 237.914 142.738 238.593Z" fill="url(#paint0_linear)"/>
<defs>
<linearGradient id="paint0_linear" x1="144" y1="250.114" x2="144" y2="37.8856" gradientUnits="userSpaceOnUse">
<stop stop-color="#FE5F25"/>
<stop offset="0.3798" stop-color="#FE962C"/>
<stop offset="1" stop-color="#FFED37"/>
</linearGradient>
</defs>
</svg>
