<svg width="288" height="288" viewBox="0 0 288 288" fill="none" xmlns="http://www.w3.org/2000/svg">
<path d="M196.606 227.358C192.977 227.358 189.668 225.665 187.523 222.713C185.852 220.426 184.136 218.09 182.474 215.835C182.01 215.205 180.515 212.924 179.027 210.643C178.713 210.159 178.396 209.675 178.096 209.214C174.352 210.167 170.361 211.04 166.182 211.55C156.237 212.765 147.223 213.206 138.528 212.912C128.891 212.584 119.327 211.354 110.102 209.252C109.78 209.18 109.454 209.102 109.132 209.027C105.964 215.285 105.376 216.071 105.131 216.403C103.738 218.272 102.298 220.207 100.918 222.114C98.1331 225.979 93.983 227.874 89.1503 227.188C72.4118 224.786 58.5417 219.637 46.728 211.44C41.3107 207.685 36.8092 203.221 33.3475 198.169C31.608 195.632 30.7526 192.839 30.8015 189.866C30.9571 180.685 31.8038 171.146 33.3907 160.706C35.7926 144.935 39.6316 129.087 44.8012 113.601C48.3407 102.997 51.9033 94.4779 56.0073 86.7854C60.2323 78.8654 66.9743 74.5857 72.3743 71.7374C82.5494 66.3777 93.9139 62.916 108.147 60.8596C108.85 60.756 109.521 60.7099 110.171 60.7099C116.116 60.7099 120.865 64.8312 121.801 70.764L122 71.4897C131.507 69.9028 140.53 69.3556 149.262 69.8078C155.053 70.1102 160.623 70.6776 165.997 71.5099C166.38 69.9979 166.755 68.7048 166.951 68.195C168.846 62.7662 174.243 59.699 179.844 60.9057C185.682 61.6603 191.511 62.8612 197.168 64.4683C208.117 67.5844 216.714 71.6078 224.222 77.1374C228.053 79.9569 230.054 83.5195 231.514 86.1201L231.998 86.9668C237.177 95.9611 240.46 105.321 243.645 114.92C247.153 125.501 250.079 136.601 252.346 147.913C254.756 159.958 256.236 170.956 256.861 181.546C256.997 183.772 257.066 186.013 257.138 188.179L257.198 189.904C257.29 192.683 256.545 195.292 254.978 197.66C250.592 204.287 244.57 209.796 236.566 214.502C225.21 221.186 212.723 225.348 198.4 227.223C197.911 227.286 197.312 227.358 196.606 227.358ZM189.697 205.914C190.636 207.354 191.442 208.586 191.75 209.001C193.418 211.262 195.146 213.618 196.834 215.925C209.664 214.125 220.726 210.453 230.725 204.569C237.182 200.77 241.972 196.43 245.37 191.298C245.65 190.88 245.693 190.624 245.681 190.29L245.621 188.553C245.557 186.479 245.485 184.348 245.362 182.223C244.762 172.172 243.354 161.686 241.047 150.171C238.873 139.319 236.068 128.678 232.707 118.543C229.717 109.529 226.647 100.771 222.01 92.7124L221.486 91.7908C220.314 89.7028 219.22 87.7617 217.385 86.411C211.023 81.7252 203.596 78.2721 194.011 75.5476C188.818 74.0673 183.47 72.9729 178.111 72.2961L177.736 72.2414L177.733 72.2472C177.635 72.5352 177.483 73.0737 177.313 73.7275C187.286 76.1208 196.551 79.5508 205.266 84.0638C207.179 85.0574 208.927 86.1172 210.473 87.0532L211.283 87.5428C214.01 89.1816 214.891 92.7211 213.252 95.4456C211.617 98.17 208.074 99.0571 205.35 97.4155L204.517 96.9144C203.051 96.0244 201.557 95.1172 199.97 94.2936C185.083 86.5867 168.301 82.3416 148.668 81.3105C139.323 80.8267 129.551 81.6216 119.007 83.7585C118.953 83.7729 118.898 83.7816 118.843 83.7931C116.502 84.2712 114.12 84.8126 111.695 85.4203C100.336 88.2715 90.7977 92.2228 82.5379 97.5019C79.8537 99.2184 76.294 98.4264 74.5804 95.7508C72.8668 93.0696 73.6531 89.507 76.3315 87.7934C85.654 81.8376 96.3071 77.4081 108.887 74.2488C109.498 74.0932 110.102 73.9464 110.704 73.8024C110.621 73.5028 110.511 73.0507 110.483 72.9009L110.431 72.6014C110.396 72.3537 110.336 72.2241 110.313 72.1924C110.056 72.2299 109.938 72.2414 109.809 72.2558C96.9091 74.122 86.7254 77.1979 77.7484 81.9268C73.3478 84.2452 68.9011 87.0936 66.1737 92.2027C62.3807 99.3134 59.0601 107.268 55.7337 117.241C50.7686 132.108 47.0879 147.314 44.7839 162.431C43.2719 172.356 42.4655 181.393 42.3244 190.056C42.3158 190.477 42.3763 190.955 42.8515 191.646C45.5212 195.543 49.0319 199.013 53.2972 201.968C63.6105 209.119 75.8707 213.638 90.7775 215.778C91.1923 215.801 91.2758 215.792 91.5839 215.366C92.998 213.405 94.4726 211.426 95.9011 209.511C96.1113 209.165 96.8716 207.711 97.8364 205.822C88.5945 202.72 80.375 198.653 72.936 193.524C71.7523 192.709 70.6867 191.854 69.6988 191.044C67.2393 189.028 66.8793 185.399 68.8953 182.94C70.9171 180.48 74.543 180.123 76.9996 182.136C77.7571 182.756 78.5692 183.418 79.4735 184.043C87.5548 189.616 96.7622 193.783 107.493 196.721C107.548 196.735 107.6 196.75 107.654 196.764C109.287 197.21 110.958 197.628 112.668 198.017C121.182 199.955 130.015 201.093 138.928 201.395C147.027 201.68 155.448 201.254 164.794 200.113C170.507 199.419 176.181 197.838 181.184 196.447C193.735 192.954 203.282 188.354 211.239 181.975L212.374 181.244C215.222 179.815 218.678 180.973 220.104 183.821C221.394 186.405 220.562 189.498 218.266 191.108C210.349 197.426 201.154 202.207 189.697 205.914Z" fill="url(#paint0_linear)"/>
<path d="M175.793 179.633C175.142 179.633 174.491 179.602 173.837 179.541C167.775 178.962 162.358 175.763 158.582 170.535C154.967 165.524 153.153 159.793 153.191 153.497V153.468C153.274 145.033 156.249 138.127 162.023 132.934C169.871 125.892 181.029 125.688 189.15 132.444C194.87 137.199 198.3 144.601 198.553 152.748C198.807 160.905 195.843 168.514 190.423 173.623C186.267 177.54 181.132 179.633 175.793 179.633ZM164.711 153.575C164.69 157.428 165.742 160.772 167.925 163.799C169.727 166.296 172.213 167.817 174.929 168.073C177.616 168.344 180.311 167.321 182.52 165.245C185.498 162.434 187.189 157.901 187.039 153.111C186.889 148.331 184.928 143.918 181.789 141.306C178.056 138.199 173.319 138.285 169.727 141.505C166.358 144.529 164.765 148.365 164.711 153.575ZM112.053 179.633C111.402 179.633 110.751 179.602 110.097 179.541C104.035 178.962 98.6174 175.763 94.8417 170.535C91.2331 165.53 89.4187 159.796 89.4504 153.5V153.468C89.5339 145.033 92.5089 138.127 98.2833 132.934C106.131 125.892 117.288 125.688 125.41 132.444C131.13 137.199 134.56 144.601 134.813 152.748C135.067 160.905 132.103 168.514 126.683 173.623C122.527 177.54 117.395 179.633 112.053 179.633ZM100.97 153.572C100.953 157.428 102.004 160.775 104.184 163.799C105.987 166.296 108.473 167.817 111.189 168.073C113.893 168.344 116.571 167.321 118.78 165.245C121.758 162.434 123.449 157.901 123.299 153.111C123.149 148.331 121.188 143.918 118.049 141.306C114.313 138.199 109.582 138.285 105.987 141.505C102.618 144.529 101.028 148.362 100.97 153.572Z" fill="url(#paint1_linear)"/>
<defs>
<linearGradient id="paint0_linear" x1="144" y1="227.358" x2="144" y2="60.6413" gradientUnits="userSpaceOnUse">
<stop stop-color="#C433FF"/>
<stop offset="0.2577" stop-color="#D72EF0"/>
<stop offset="0.7304" stop-color="#F425D8"/>
<stop offset="1" stop-color="#FF22CF"/>
</linearGradient>
<linearGradient id="paint1_linear" x1="144.009" y1="179.635" x2="144.009" y2="127.514" gradientUnits="userSpaceOnUse">
<stop stop-color="#C433FF"/>
<stop offset="0.2577" stop-color="#D72EF0"/>
<stop offset="0.7304" stop-color="#F425D8"/>
<stop offset="1" stop-color="#FF22CF"/>
</linearGradient>
</defs>
</svg>
