<svg width="252" height="288" viewBox="0 0 252 288" fill="none" xmlns="http://www.w3.org/2000/svg">
<path d="M198.062 58.25H178.375V36.9219C178.375 34.2148 176.16 32 173.453 32H170.172C167.465 32 165.25 34.2148 165.25 36.9219V58.25H86.5V36.9219C86.5 34.2148 84.2852 32 81.5781 32H78.2969C75.5898 32 73.375 34.2148 73.375 36.9219V58.25H53.6875C42.8184 58.25 34 67.0684 34 77.9375V222.312C34 233.182 42.8184 242 53.6875 242H198.062C208.932 242 217.75 233.182 217.75 222.312V77.9375C217.75 67.0684 208.932 58.25 198.062 58.25ZM53.6875 71.375H198.062C201.672 71.375 204.625 74.3281 204.625 77.9375V97.625H47.125V77.9375C47.125 74.3281 50.0781 71.375 53.6875 71.375ZM198.062 228.875H53.6875C50.0781 228.875 47.125 225.922 47.125 222.312V110.75H204.625V222.312C204.625 225.922 201.672 228.875 198.062 228.875ZM94.7031 163.25H78.2969C75.5898 163.25 73.375 161.035 73.375 158.328V141.922C73.375 139.215 75.5898 137 78.2969 137H94.7031C97.4102 137 99.625 139.215 99.625 141.922V158.328C99.625 161.035 97.4102 163.25 94.7031 163.25ZM134.078 163.25H117.672C114.965 163.25 112.75 161.035 112.75 158.328V141.922C112.75 139.215 114.965 137 117.672 137H134.078C136.785 137 139 139.215 139 141.922V158.328C139 161.035 136.785 163.25 134.078 163.25ZM173.453 163.25H157.047C154.34 163.25 152.125 161.035 152.125 158.328V141.922C152.125 139.215 154.34 137 157.047 137H173.453C176.16 137 178.375 139.215 178.375 141.922V158.328C178.375 161.035 176.16 163.25 173.453 163.25ZM134.078 202.625H117.672C114.965 202.625 112.75 200.41 112.75 197.703V181.297C112.75 178.59 114.965 176.375 117.672 176.375H134.078C136.785 176.375 139 178.59 139 181.297V197.703C139 200.41 136.785 202.625 134.078 202.625ZM94.7031 202.625H78.2969C75.5898 202.625 73.375 200.41 73.375 197.703V181.297C73.375 178.59 75.5898 176.375 78.2969 176.375H94.7031C97.4102 176.375 99.625 178.59 99.625 181.297V197.703C99.625 200.41 97.4102 202.625 94.7031 202.625ZM173.453 202.625H157.047C154.34 202.625 152.125 200.41 152.125 197.703V181.297C152.125 178.59 154.34 176.375 157.047 176.375H173.453C176.16 176.375 178.375 178.59 178.375 181.297V197.703C178.375 200.41 176.16 202.625 173.453 202.625Z" fill="url(#paint0_linear)"/>
<defs>
<linearGradient id="paint0_linear" x1="125.873" y1="241.999" x2="125.873" y2="31.996" gradientUnits="userSpaceOnUse">
<stop stop-color="#C433FF"/>
<stop offset="0.2577" stop-color="#D72EF0"/>
<stop offset="0.7304" stop-color="#F425D8"/>
<stop offset="1" stop-color="#FF22CF"/>
</linearGradient>
</defs>
</svg>
