<svg width="288" height="288" viewBox="0 0 288 288" fill="none" xmlns="http://www.w3.org/2000/svg">
<path d="M224.868 126.72C233.09 120.943 238.638 111.477 238.638 100.772C238.638 91.9934 235.803 83.7624 229.055 78.1809C222.423 72.6945 212.713 70.2033 204.103 70.8197V66.8021C204.103 49.2081 189.168 34.8945 171.635 34.8945C160.399 34.8945 150.193 40.7899 144.537 49.6459C138.88 40.7899 129.239 34.8945 118.001 34.8945C100.465 34.8945 86.4334 49.2081 86.4334 66.8021V70.8254C74.9534 70.1659 66.8457 72.6628 60.1786 78.1752C53.4284 83.7566 49.1492 91.9905 49.1492 100.769C49.1492 111.477 54.3066 120.946 62.2996 126.72C54.3066 132.259 49 141.394 49 151.946C49 161.992 54.7486 171.585 63.7059 177.604C69.2593 181.334 75.5934 183.246 81.8988 183.246C83.2219 183.246 85.3026 183.131 86.6056 182.961C87.7106 192.531 95.0434 200.469 103.653 203.717V221.562C103.653 226.392 106.523 230.409 109.393 231.276V242.076C109.393 247.534 114.554 253.44 119.992 253.44H167.824C173.265 253.44 178.273 247.534 178.273 242.076V231.276C184.013 230.412 186.883 226.392 186.883 221.562V203.93C195.493 200.826 202.028 192.747 203.156 182.964C204.462 183.131 205.484 183.246 206.801 183.246C213.109 183.246 219.128 181.334 224.678 177.604C233.636 171.582 238.721 161.992 238.721 151.946C238.724 141.397 233.096 132.259 224.868 126.72ZM175.403 221.76H167.824H119.992H115.133V207.36H139.17H149.232H175.403V221.76ZM97.1385 180.856L103.8 159.719L92.8536 156.249L88.3506 170.54C82.3264 172.754 75.5705 171.879 69.8534 168.034C64.0818 164.155 60.6436 158.141 60.6436 151.946C60.6436 140.925 69.2105 132.613 80.6905 132.613V121.093C69.2105 121.093 60.6292 111.975 60.6292 100.769C60.6292 95.4436 63.6772 90.4526 67.7698 87.0657C72.29 83.3333 77.8234 81.7406 86.4334 82.3569V92.1604H97.9134V66.8021C97.9134 55.5614 106.802 46.4145 118.003 46.4145C129.205 46.4145 138.093 55.5614 138.093 66.8021V192.96H111.959C111.342 192.96 110.742 193.326 110.157 193.436C103.183 193.096 97.5489 187.837 97.1385 180.856ZM166.793 241.92H120.873V233.28H166.793V241.92ZM218.336 168.034C212.656 171.85 206.052 172.737 200.06 170.58L195.545 156.249L184.599 159.719L191.257 180.856C190.838 187.955 185.029 193.303 177.895 193.47C177.237 193.329 176.557 192.96 175.86 192.96H152.443V66.8021C152.443 55.5614 161.329 46.4145 172.533 46.4145C183.738 46.4145 192.623 55.5614 192.623 66.8021V92.1604H204.103V82.3454C209.843 81.7636 217.105 83.3621 221.59 87.0715C225.683 90.4555 227.724 95.4494 227.724 100.772C227.724 111.978 218.453 121.096 206.973 121.096V132.616C218.453 132.616 227.388 140.927 227.388 151.949C227.388 158.141 224.104 164.155 218.336 168.034Z" fill="url(#paint0_linear)"/>
<defs>
<linearGradient id="paint0_linear" x1="143.86" y1="253.44" x2="143.86" y2="34.8954" gradientUnits="userSpaceOnUse">
<stop stop-color="#C433FF"/>
<stop offset="0.2577" stop-color="#D72EF0"/>
<stop offset="0.7304" stop-color="#F425D8"/>
<stop offset="1" stop-color="#FF22CF"/>
</linearGradient>
</defs>
</svg>
