<svg width="288" height="288" viewBox="0 0 288 288" fill="none" xmlns="http://www.w3.org/2000/svg">
<path d="M230.711 216H194.581C197.461 213.298 197.182 208.209 197.182 208.209C197.018 198.083 190.074 190.08 179.911 190.08H158.005C150.595 190.08 143.493 187.148 138.015 182.154L115.137 161.994C108.026 155.52 98.8099 152.64 89.1935 152.64H55.5782C47.9462 152.64 37.4399 157.291 37.4399 164.92V207.452C37.4399 213.37 42.7881 218.862 47.9404 221.788L87.7795 244.137C95.8118 248.688 105.612 253.44 115.056 253.44H230.417C230.521 253.44 230.622 253.44 230.725 253.44C235.636 253.44 240.258 251.182 243.769 247.726C247.352 244.198 249.327 239.564 249.327 234.535C249.327 224.271 240.978 216 230.711 216ZM235.69 239.515C234.322 240.86 232.537 241.92 230.509 241.92H115.145C108.377 241.92 101.241 237.914 94.5359 234.109L53.6255 211.95C52.0703 211.069 48.9599 209.232 48.9599 207.452V164.92C48.9599 163.644 54.2995 164.16 55.5782 164.16H89.1935C95.9356 164.16 102.393 165.882 107.372 170.421L130.254 191.059C137.86 197.991 147.715 201.6 158.002 201.6H179.908C183.77 201.6 186.923 204.52 187.001 208.362C186.961 210.294 186.14 212.094 184.735 213.477C183.367 214.822 181.63 215.487 179.795 215.47L133.174 215.499C128.393 215.499 123.771 214.07 119.811 211.392L104.838 201.254L98.3807 210.793L113.357 221.187C119.235 225.158 126.086 227.52 133.177 227.52H230.711C234.622 227.52 237.807 230.624 237.807 234.538C237.807 236.456 237.053 238.17 235.69 239.515Z" fill="url(#paint0_linear)"/>
<path d="M151.64 113.726C152.115 113.763 152.64 114.431 152.64 115.166V136.095C152.64 136.535 153.086 138.194 151.64 138.416C146.741 139.167 144.481 140.245 139.127 142.497C132.828 145.146 127.676 148.565 122.932 152.657C120.522 154.737 120.476 158.371 122.552 160.779C124.632 163.19 128.381 163.457 130.786 161.381C134.619 158.078 139.245 155.295 144.429 153.115C148.927 151.226 150.621 150.204 154.584 149.593C161.15 148.588 164.16 142.911 164.16 136.092V136.829C164.16 143.948 169.514 148.867 175.492 149.985C183.147 151.416 191.344 154.267 198.717 158.705C202.268 160.839 205.822 162.982 208.411 165.079C212.057 168.019 214.868 170.657 215.582 173.848C215.51 174.047 215.591 174.217 215.579 174.231C211.153 177.339 205.064 180.084 197.873 182.172C194.817 183.059 193.089 186.255 193.973 189.311C194.705 191.828 197.02 193.467 199.517 193.467C200.05 193.467 200.594 193.392 201.133 193.237C209.646 190.766 216.774 187.543 222.31 183.658C225.731 181.253 227.903 176.311 227.252 172.414C226.022 164.998 220.922 160.013 216.098 156.122C213.105 153.7 209.554 151.249 205.548 148.839C197.038 143.718 186.759 140.4 177.684 138.672C176.95 138.459 175.68 137.785 175.68 136.829V102.306C178.56 102.378 178.522 102.482 179.066 102.482C179.735 102.482 181.313 102.424 182.013 102.306C220.838 95.74 230.69 65.2062 232.928 52.3873C233.657 48.2286 232.735 43.9835 230.017 40.7463C226.955 37.0974 222.353 35.234 217.693 35.8648C198.913 38.3156 175.291 52.9691 169.11 86.0027C157.225 73.7656 135.38 56.3271 109.71 55.515L109.434 55.5035C109.028 55.4862 108.535 55.466 108.265 55.466C103.262 55.466 98.6799 58.0119 96.0015 62.2743C93.4297 66.3668 92.2489 71.3867 94.3282 75.7038C100.624 88.7502 113.86 110.797 151.64 113.726ZM180.1 90.052C184.59 61.7041 203.29 49.3748 219.314 47.2839C219.412 47.2695 219.51 47.2638 219.611 47.2638C220.533 47.2638 221.14 47.8225 221.42 48.1566C221.728 48.5252 222.22 49.3057 222.03 50.4001C219.77 63.3313 211.429 85.7982 180.852 90.962C180.558 90.962 180.354 90.7604 180.282 90.6712C180.043 90.3976 180.086 90.1384 180.1 90.052ZM105.765 68.4001C106.194 67.7176 107.078 66.986 108.265 66.986L107.559 67.0292C135.178 67.9019 161.28 94.4238 164.16 101.707V115.166C164.16 108.346 161.17 103.026 154.595 102.517C124.174 100.158 111.084 83.9118 104.714 70.7012C104.253 69.7451 105.436 68.9243 105.765 68.4001Z" fill="url(#paint1_linear)"/>
<path d="M230.711 216H194.581C197.461 213.298 197.182 208.209 197.182 208.209C197.018 198.083 190.074 190.08 179.911 190.08H158.005C150.595 190.08 143.493 187.148 138.015 182.154L115.137 161.994C108.026 155.52 98.8099 152.64 89.1935 152.64H55.5782C47.9462 152.64 37.4399 157.291 37.4399 164.92V207.452C37.4399 213.37 42.7881 218.862 47.9404 221.788L87.7795 244.137C95.8118 248.688 105.612 253.44 115.056 253.44H230.417C230.521 253.44 230.622 253.44 230.725 253.44C235.636 253.44 240.258 251.182 243.769 247.726C247.352 244.198 249.327 239.564 249.327 234.535C249.327 224.271 240.978 216 230.711 216ZM235.69 239.515C234.322 240.86 232.537 241.92 230.509 241.92H115.145C108.377 241.92 101.241 237.914 94.5359 234.109L53.6255 211.95C52.0703 211.069 48.9599 209.232 48.9599 207.452V164.92C48.9599 163.644 54.2995 164.16 55.5782 164.16H89.1935C95.9356 164.16 102.393 165.882 107.372 170.421L130.254 191.059C137.86 197.991 147.715 201.6 158.002 201.6H179.908C183.77 201.6 186.923 204.52 187.001 208.362C186.961 210.294 186.14 212.094 184.735 213.477C183.367 214.822 181.63 215.487 179.795 215.47L133.174 215.499C128.393 215.499 123.771 214.07 119.811 211.392L104.838 201.254L98.3807 210.793L113.357 221.187C119.235 225.158 126.086 227.52 133.177 227.52H230.711C234.622 227.52 237.807 230.624 237.807 234.538C237.807 236.456 237.053 238.17 235.69 239.515Z" fill="url(#paint2_linear)"/>
<path d="M151.64 113.726C152.115 113.763 152.64 114.431 152.64 115.166V136.095C152.64 136.535 153.086 138.194 151.64 138.416C146.741 139.167 144.481 140.245 139.127 142.497C132.828 145.146 127.676 148.565 122.932 152.657C120.522 154.737 120.476 158.371 122.552 160.779C124.632 163.19 128.381 163.457 130.786 161.381C134.619 158.078 139.245 155.295 144.429 153.115C148.927 151.226 150.621 150.204 154.584 149.593C161.15 148.588 164.16 142.911 164.16 136.092V136.829C164.16 143.948 169.514 148.867 175.492 149.985C183.147 151.416 191.344 154.267 198.717 158.705C202.268 160.839 205.822 162.982 208.411 165.079C212.057 168.019 214.868 170.657 215.582 173.848C215.51 174.047 215.591 174.217 215.579 174.231C211.153 177.339 205.064 180.084 197.873 182.172C194.817 183.059 193.089 186.255 193.973 189.311C194.705 191.828 197.02 193.467 199.517 193.467C200.05 193.467 200.594 193.392 201.133 193.237C209.646 190.766 216.774 187.543 222.31 183.658C225.731 181.253 227.903 176.311 227.252 172.414C226.022 164.998 220.922 160.013 216.098 156.122C213.105 153.7 209.554 151.249 205.548 148.839C197.038 143.718 186.759 140.4 177.684 138.672C176.95 138.459 175.68 137.785 175.68 136.829V102.306C178.56 102.378 178.522 102.482 179.066 102.482C179.735 102.482 181.313 102.424 182.013 102.306C220.838 95.74 230.69 65.2062 232.928 52.3873C233.657 48.2286 232.735 43.9835 230.017 40.7463C226.955 37.0974 222.353 35.234 217.693 35.8648C198.913 38.3156 175.291 52.9691 169.11 86.0027C157.225 73.7656 135.38 56.3271 109.71 55.515L109.434 55.5035C109.028 55.4862 108.535 55.466 108.265 55.466C103.262 55.466 98.6799 58.0119 96.0015 62.2743C93.4297 66.3668 92.2489 71.3867 94.3282 75.7038C100.624 88.7502 113.86 110.797 151.64 113.726ZM180.1 90.052C184.59 61.7041 203.29 49.3748 219.314 47.2839C219.412 47.2695 219.51 47.2638 219.611 47.2638C220.533 47.2638 221.14 47.8225 221.42 48.1566C221.728 48.5252 222.22 49.3057 222.03 50.4001C219.77 63.3313 211.429 85.7982 180.852 90.962C180.558 90.962 180.354 90.7604 180.282 90.6712C180.043 90.3976 180.086 90.1384 180.1 90.052ZM105.765 68.4001C106.194 67.7176 107.078 66.986 108.265 66.986L107.559 67.0292C135.178 67.9019 161.28 94.4238 164.16 101.707V115.166C164.16 108.346 161.17 103.026 154.595 102.517C124.174 100.158 111.084 83.9118 104.714 70.7012C104.253 69.7451 105.436 68.9243 105.765 68.4001Z" fill="url(#paint3_linear)"/>
<defs>
<linearGradient id="paint0_linear" x1="143.384" y1="253.44" x2="143.384" y2="152.64" gradientUnits="userSpaceOnUse">
<stop stop-color="#C433FF"/>
<stop offset="0.2577" stop-color="#D72EF0"/>
<stop offset="0.7304" stop-color="#F425D8"/>
<stop offset="1" stop-color="#FF22CF"/>
</linearGradient>
<linearGradient id="paint1_linear" x1="163.218" y1="193.467" x2="163.218" y2="35.7426" gradientUnits="userSpaceOnUse">
<stop stop-color="#C433FF"/>
<stop offset="0.2577" stop-color="#D72EF0"/>
<stop offset="0.7304" stop-color="#F425D8"/>
<stop offset="1" stop-color="#FF22CF"/>
</linearGradient>
<linearGradient id="paint2_linear" x1="143.384" y1="253.44" x2="143.384" y2="35.7422" gradientUnits="userSpaceOnUse">
<stop offset="0.0112" stop-color="#009B5B"/>
<stop offset="1" stop-color="#9CCE62"/>
</linearGradient>
<linearGradient id="paint3_linear" x1="143.383" y1="253.44" x2="143.383" y2="35.7426" gradientUnits="userSpaceOnUse">
<stop offset="0.0112" stop-color="#009B5B"/>
<stop offset="1" stop-color="#9CCE62"/>
</linearGradient>
</defs>
</svg>
