<svg width="288" height="288" viewBox="0 0 288 288" fill="none" xmlns="http://www.w3.org/2000/svg">
<path d="M141.423 215.706C142.212 215.93 143.24 216.135 144.363 216.135C145.181 216.135 146.051 216.025 146.921 215.74C155.039 213.085 162.51 209.407 169.12 204.805C184.617 194.016 195.187 178.847 201.433 158.431C206.05 143.325 207.948 126.67 207.237 107.507C207.188 106.251 207.058 105.001 206.925 103.725L206.252 96.488L200.561 96.9574C182.33 98.455 166.461 91.7475 147.491 74.5107L143.661 71.0288L139.79 74.4704C120.782 91.3731 104.896 98.0691 86.7171 96.7904L80.8938 96.3872L80.3581 106.061C79.16 128.663 81.8298 148.293 88.5171 166.072C98.1565 191.692 115.955 208.39 141.423 215.706ZM190.414 155.064C184.954 172.915 175.637 186.093 162.34 195.35C158.544 197.994 152.64 200.26 149.76 202.178V91.7504C161.28 100.814 176.884 108.639 195.549 108.676C196.14 126.218 194.59 141.399 190.414 155.064ZM91.5757 108.449C110.886 108.161 126.72 99.7654 138.24 90.4141V202.636C118.08 195.595 106.621 182.269 99.0003 162.022C93.056 146.22 90.6887 128.678 91.5757 108.449Z" fill="url(#paint0_linear)"/>
<path d="M227.408 160.303C227.742 159.065 228.064 157.829 228.369 156.576C233.888 155.511 239.051 152.193 243.282 146.816C251.879 135.887 255.384 118.638 251.432 106.689L249.909 102.073L245.102 102.801C241.338 103.374 237.341 105.088 233.496 107.565C233.481 106.416 233.461 105.266 233.43 104.109C238.775 100.558 242.32 94.5442 243.51 86.8287C245.621 73.0853 240.198 56.341 230.887 47.8795L227.287 44.605L223.459 47.6059C214.255 54.8203 208.351 72.3826 210.568 85.956C211.87 93.9106 215.856 100.022 221.901 103.682C222.048 108.604 222.054 113.428 221.904 118.065C218.943 121.731 216.53 125.769 215.029 129.862C211.948 138.26 212.829 146.312 217.414 152.856C216.682 155.928 215.893 158.978 214.983 161.945C214.453 163.676 213.846 165.369 213.252 167.065C211.196 168.5 209.295 170.072 207.642 171.777C201.511 178.11 199.016 185.699 200.416 193.42C198.452 196.182 196.283 198.91 193.945 201.574C189.487 202.089 185.155 203.192 181.374 204.926C172.976 208.771 167.829 215.366 166.614 223.588C161.098 226.575 155.223 229.132 149.069 231.145C146.14 232.096 142.88 232.093 139.64 231.174C133.188 229.32 127.106 226.932 121.461 224.098C120.39 215.637 115.2 208.848 106.632 204.926C102.85 203.192 98.5189 202.092 94.0606 201.576C91.7192 198.91 89.5534 196.182 87.5893 193.423C88.989 185.702 86.492 178.11 80.3605 171.777C78.7102 170.072 76.8094 168.503 74.7531 167.068C74.157 165.375 73.5493 163.687 73.0165 161.948C72.115 158.999 71.3259 155.943 70.5886 152.858C75.1736 146.315 76.0549 138.26 72.9733 129.862C71.4728 125.769 69.0594 121.734 66.1016 118.068C65.949 113.434 65.9547 108.61 66.0987 103.685C72.1438 100.025 76.1298 93.9106 77.4315 85.956C79.652 72.3797 73.748 54.8175 64.5406 47.6059L60.7131 44.605L57.1131 47.8795C47.805 56.341 42.379 73.0911 44.493 86.8315C45.6824 94.5442 49.2277 100.555 54.5701 104.109C54.5413 105.266 54.5182 106.418 54.5038 107.565C50.659 105.088 46.6645 103.374 42.9003 102.801L38.0907 102.073L36.5672 106.689C32.6158 118.635 36.1208 135.889 44.7176 146.819C48.9454 152.193 54.1093 155.511 59.6274 156.576C59.9355 157.829 60.2552 159.068 60.5893 160.303C53.9538 158.319 47.2174 157.789 41.8923 159.241L37.2008 160.522L37.6789 165.363C38.9144 177.886 49.1154 192.231 61.4043 198.734C65.7445 201.029 70.1019 202.181 74.2405 202.181C75.957 202.181 77.6331 201.977 79.2574 201.579C79.3554 201.715 79.4648 201.847 79.5627 201.983C74.3902 202.901 69.693 204.658 66.2341 207.227L62.3317 210.124L64.5349 214.462C70.2373 225.679 84.9541 235.336 98.7666 236.928C100.06 237.078 101.324 237.153 102.557 237.153C107.363 237.153 111.666 236.01 115.249 233.847C121.83 237.242 128.926 240.088 136.477 242.256C139.133 243.011 141.817 243.394 144.458 243.394C147.26 243.394 150.008 242.965 152.643 242.11C159.56 239.843 166.161 236.96 172.356 233.585C176.017 235.915 180.461 237.153 185.452 237.153C186.684 237.153 187.949 237.078 189.239 236.928C203.054 235.336 217.768 225.679 223.473 214.462L225.677 210.127L221.774 207.227C218.318 204.658 213.621 202.901 208.448 201.98C208.549 201.844 208.656 201.712 208.754 201.579C210.378 201.977 212.054 202.181 213.771 202.181C217.909 202.181 222.264 201.029 226.604 198.737C238.893 192.234 249.097 177.888 250.332 165.366L250.81 160.522L246.119 159.241C240.779 157.786 234.043 158.319 227.408 160.303ZM241.491 116.199C241.816 124.001 239.02 133.606 234.23 139.694C232.407 142.009 229.651 144.639 226.195 145.301C224.326 142.041 224.214 138.265 225.841 133.833C228.531 126.501 235.431 119.557 241.491 116.199ZM226.898 61.0498C231.016 67.6853 233.3 77.4255 232.119 85.0805C231.673 87.9951 230.564 91.6354 227.88 93.9135C224.651 91.9925 222.696 88.7583 221.936 84.1013C220.677 76.3915 223.272 66.9509 226.898 61.0498ZM61.099 61.0498C64.725 66.9538 67.3198 76.3944 66.0613 84.1013C65.2981 88.7583 63.3483 91.9925 60.1198 93.9135C57.4357 91.6354 56.3298 87.9922 55.8776 85.0834C54.6997 77.4255 56.9835 67.6853 61.099 61.0498ZM53.7694 139.694C48.9829 133.606 46.1806 124.004 46.509 116.199C52.5685 119.557 59.4661 126.504 62.1589 133.833C63.7832 138.265 63.6738 142.044 61.8046 145.301C58.3486 144.639 55.5925 142.009 53.7694 139.694ZM76.412 190.419C72.9906 191.217 69.3963 189.927 66.7928 188.55C59.9442 184.927 53.493 177.287 50.6245 170.023C57.525 170.634 66.6488 174.185 72.0834 179.798C75.3637 183.185 76.7979 186.684 76.412 190.419ZM100.083 225.48C92.3874 224.593 83.5947 219.818 78.2869 214.093C84.9426 212.16 94.7288 212.152 101.831 215.403C106.122 217.37 108.728 220.106 109.725 223.729C106.816 225.717 103.006 225.817 100.083 225.48ZM187.914 225.48C184.988 225.817 181.184 225.714 178.275 223.729C179.274 220.106 181.875 217.37 186.166 215.403C193.271 212.152 203.054 212.158 209.71 214.093C204.399 219.821 195.607 224.596 187.914 225.48ZM221.204 188.55C218.6 189.93 215 191.217 211.588 190.416C211.202 186.681 212.63 183.185 215.913 179.795C221.348 174.185 230.472 170.631 237.372 170.02C234.507 177.287 228.053 184.927 221.204 188.55Z" fill="url(#paint1_linear)"/>
<defs>
<linearGradient id="paint0_linear" x1="143.727" y1="216.136" x2="143.727" y2="71.0331" gradientUnits="userSpaceOnUse">
<stop stop-color="#C433FF"/>
<stop offset="0.2577" stop-color="#D72EF0"/>
<stop offset="0.7304" stop-color="#F425D8"/>
<stop offset="1" stop-color="#FF22CF"/>
</linearGradient>
<linearGradient id="paint1_linear" x1="144" y1="243.392" x2="144" y2="44.6073" gradientUnits="userSpaceOnUse">
<stop stop-color="#C433FF"/>
<stop offset="0.2577" stop-color="#D72EF0"/>
<stop offset="0.7304" stop-color="#F425D8"/>
<stop offset="1" stop-color="#FF22CF"/>
</linearGradient>
</defs>
</svg>
