<svg width="288" height="288" viewBox="0 0 288 288" fill="none" xmlns="http://www.w3.org/2000/svg">
<path d="M245.51 239.04V100.8H190.98V239.04H173.76V138.24H116.36V239.04H99.14V158.4H41.74V239.04H36V250.56H251.25V239.04H245.51ZM202.46 112.32H234.03V239.04H202.46V112.32ZM127.84 149.76H162.28V239.04H127.84V149.76ZM53.22 169.92H87.66V239.04H53.22V169.92Z" fill="url(#paint0_linear)"/>
<path d="M73.4359 134.297C84.5687 134.297 93.6264 125.208 93.6264 114.037C93.6264 113.435 93.5891 112.841 93.5374 112.251L131.223 105.008C134.84 110.5 141.039 114.137 148.076 114.137C159.209 114.137 168.266 105.048 168.266 93.8766C168.266 92.6123 168.134 91.3826 167.913 90.1816L206.627 69.3189C210.335 73.8232 215.94 76.7003 222.2 76.7003C233.332 76.7003 242.39 67.611 242.39 56.4395C242.39 45.268 233.332 36.1787 222.2 36.1787C211.067 36.1787 202.009 45.268 202.009 56.4395C202.009 57.1912 202.058 57.9342 202.138 58.6658L162.681 79.9317C159.002 76.0523 152.364 73.6216 146.618 73.6216C135.485 73.6216 124.97 82.7109 124.97 93.8824V93.9285L87.7084 101.37C84.0033 96.7509 79.0611 93.7816 72.7069 93.7816C61.5742 93.7816 52.881 102.871 52.881 114.042C52.881 125.214 62.3032 134.297 73.4359 134.297ZM222.2 47.6958C227.004 47.6958 230.91 51.6155 230.91 56.4366C230.91 61.2578 227.004 65.1774 222.2 65.1774C217.395 65.1774 213.489 61.2578 213.489 56.4366C213.489 51.6155 217.395 47.6958 222.2 47.6958ZM148.073 85.1358C152.878 85.1358 156.784 89.0555 156.784 93.8766C156.784 98.6978 152.878 102.617 148.073 102.617C143.269 102.617 139.363 98.6978 139.363 93.8766C139.363 89.0555 143.272 85.1358 148.073 85.1358ZM73.4359 105.296C78.2403 105.296 82.1464 109.216 82.1464 114.037C82.1464 118.858 78.2403 122.777 73.4359 122.777C68.6315 122.777 64.7255 118.858 64.7255 114.037C64.7255 109.216 68.6315 105.296 73.4359 105.296Z" fill="url(#paint1_linear)"/>
<path d="M245.51 239.04V100.8H190.98V239.04H173.76V138.24H116.36V239.04H99.14V158.4H41.74V239.04H36V250.56H251.25V239.04H245.51ZM202.46 112.32H234.03V239.04H202.46V112.32ZM127.84 149.76H162.28V239.04H127.84V149.76ZM53.22 169.92H87.66V239.04H53.22V169.92Z" fill="url(#paint2_linear)"/>
<path d="M73.4359 134.297C84.5687 134.297 93.6264 125.208 93.6264 114.037C93.6264 113.435 93.5891 112.841 93.5374 112.251L131.223 105.008C134.84 110.5 141.039 114.137 148.076 114.137C159.209 114.137 168.266 105.048 168.266 93.8766C168.266 92.6123 168.134 91.3826 167.913 90.1816L206.627 69.3189C210.335 73.8232 215.94 76.7003 222.2 76.7003C233.332 76.7003 242.39 67.611 242.39 56.4395C242.39 45.268 233.332 36.1787 222.2 36.1787C211.067 36.1787 202.009 45.268 202.009 56.4395C202.009 57.1912 202.058 57.9342 202.138 58.6658L162.681 79.9317C159.002 76.0523 152.364 73.6216 146.618 73.6216C135.485 73.6216 124.97 82.7109 124.97 93.8824V93.9285L87.7084 101.37C84.0033 96.7509 79.0611 93.7816 72.7069 93.7816C61.5742 93.7816 52.881 102.871 52.881 114.042C52.881 125.214 62.3032 134.297 73.4359 134.297ZM222.2 47.6958C227.004 47.6958 230.91 51.6155 230.91 56.4366C230.91 61.2578 227.004 65.1774 222.2 65.1774C217.395 65.1774 213.489 61.2578 213.489 56.4366C213.489 51.6155 217.395 47.6958 222.2 47.6958ZM148.073 85.1358C152.878 85.1358 156.784 89.0555 156.784 93.8766C156.784 98.6978 152.878 102.617 148.073 102.617C143.269 102.617 139.363 98.6978 139.363 93.8766C139.363 89.0555 143.272 85.1358 148.073 85.1358ZM73.4359 105.296C78.2403 105.296 82.1464 109.216 82.1464 114.037C82.1464 118.858 78.2403 122.777 73.4359 122.777C68.6315 122.777 64.7255 118.858 64.7255 114.037C64.7255 109.216 68.6315 105.296 73.4359 105.296Z" fill="url(#paint3_linear)"/>
<defs>
<linearGradient id="paint0_linear" x1="143.625" y1="250.56" x2="143.625" y2="100.8" gradientUnits="userSpaceOnUse">
<stop stop-color="#C433FF"/>
<stop offset="0.2577" stop-color="#D72EF0"/>
<stop offset="0.7304" stop-color="#F425D8"/>
<stop offset="1" stop-color="#FF22CF"/>
</linearGradient>
<linearGradient id="paint1_linear" x1="147.635" y1="134.297" x2="147.635" y2="36.175" gradientUnits="userSpaceOnUse">
<stop stop-color="#C433FF"/>
<stop offset="0.2577" stop-color="#D72EF0"/>
<stop offset="0.7304" stop-color="#F425D8"/>
<stop offset="1" stop-color="#FF22CF"/>
</linearGradient>
<linearGradient id="paint2_linear" x1="143.625" y1="250.56" x2="143.625" y2="36.1751" gradientUnits="userSpaceOnUse">
<stop offset="0.0112" stop-color="#009B5B"/>
<stop offset="1" stop-color="#9CCE62"/>
</linearGradient>
<linearGradient id="paint3_linear" x1="143.625" y1="250.56" x2="143.625" y2="36.175" gradientUnits="userSpaceOnUse">
<stop offset="0.0112" stop-color="#009B5B"/>
<stop offset="1" stop-color="#9CCE62"/>
</linearGradient>
</defs>
</svg>
