<svg width="288" height="288" viewBox="0 0 288 288" fill="none" xmlns="http://www.w3.org/2000/svg">
<path d="M238.364 98.6057L148.585 50.9129C145.668 49.3606 142.177 49.3433 139.245 50.8669L49.5046 97.5401C46.2099 99.2566 44.1421 102.629 44.1046 106.341C44.0672 110.057 46.0717 113.616 49.329 115.396L75.0646 129.6H74.8803V183.753L77.5299 185.455C82.4576 188.617 86.4003 191.388 92.1603 193.827V217.849C89.2803 219.796 86.4694 223.252 86.4694 227.221C86.4694 233.306 91.2157 238.26 97.3011 238.26C103.387 238.26 108.648 233.306 108.648 227.221C108.648 223.252 106.557 219.793 103.677 217.849V198.988C115.197 204.293 130.41 206.845 144.674 206.845C168.342 206.845 190.253 199.823 213.195 184.752L216 183.047V128.731L238.801 116.315C242.079 114.564 243.902 111.168 243.896 107.453C243.89 103.738 241.644 100.348 238.364 98.6057ZM86.4003 177.426V135.043L92.1603 138.188V180.758C89.2803 179.692 86.4003 178.615 86.4003 177.426ZM204.48 176.798C184.32 189.429 165.525 195.328 145.089 195.328C130.876 195.328 115.2 192.422 103.68 186.466V144.481L139.11 164.16H139.116C140.619 164.16 142.272 165.451 143.923 165.451C145.544 165.451 147.583 165.082 149.063 164.287L204.48 134.894V176.798ZM143.923 154.334L108.47 134.974L150.218 107.66C152.882 105.921 153.628 102.347 151.886 99.6857C150.143 97.0246 146.581 96.2758 143.911 98.0182L97.0016 128.71L56.264 106.462L143.868 60.9036L231.529 107.47L143.923 154.334Z" fill="url(#paint0_linear)"/>
<defs>
<linearGradient id="paint0_linear" x1="143.999" y1="238.263" x2="143.999" y2="49.7376" gradientUnits="userSpaceOnUse">
<stop stop-color="#04468B"/>
<stop offset="0.1742" stop-color="#0561A3"/>
<stop offset="0.5126" stop-color="#0791CE"/>
<stop offset="0.772" stop-color="#09AEE8"/>
<stop offset="0.9194" stop-color="#09B9F2"/>
</linearGradient>
</defs>
</svg>
