<svg width="288" height="288" viewBox="0 0 288 288" fill="none" xmlns="http://www.w3.org/2000/svg">
<path d="M127.592 147.689H68.5308C67.6605 147.689 66.826 148.035 66.2106 148.65C65.5953 149.266 65.2496 150.1 65.2496 150.97V157.533C65.2496 158.403 65.5953 159.238 66.2106 159.853C66.826 160.468 67.6605 160.814 68.5308 160.814H127.592C128.463 160.814 129.297 160.468 129.912 159.853C130.528 159.238 130.873 158.403 130.873 157.533V150.97C130.873 150.1 130.528 149.266 129.912 148.65C129.297 148.035 128.463 147.689 127.592 147.689ZM121.03 173.939H75.0932C74.2229 173.939 73.3883 174.285 72.773 174.9C72.1577 175.515 71.812 176.35 71.812 177.22V183.782C71.812 184.653 72.1577 185.487 72.773 186.103C73.3883 186.718 74.2229 187.064 75.0932 187.064H121.03C121.9 187.064 122.735 186.718 123.35 186.103C123.965 185.487 124.311 184.653 124.311 183.782V177.22C124.311 176.35 123.965 175.515 123.35 174.9C122.735 174.285 121.9 173.939 121.03 173.939ZM75.0932 134.564H121.03C121.9 134.564 122.735 134.219 123.35 133.603C123.965 132.988 124.311 132.154 124.311 131.283V124.721C124.311 123.851 123.965 123.016 123.35 122.401C122.735 121.785 121.9 121.44 121.03 121.44H75.0932C74.2229 121.44 73.3883 121.785 72.773 122.401C72.1577 123.016 71.812 123.851 71.812 124.721V131.283C71.812 132.154 72.1577 132.988 72.773 133.603C73.3883 134.219 74.2229 134.564 75.0932 134.564ZM222.747 75.5029H114.677L246.659 35.7184C247.073 35.5946 247.459 35.39 247.794 35.1165C248.129 34.843 248.406 34.506 248.611 34.1248C248.815 33.7437 248.942 33.3259 248.984 32.8955C249.027 32.4651 248.983 32.0306 248.857 31.6169L246.946 25.3375C246.822 24.9236 246.617 24.5382 246.343 24.2037C246.069 23.8691 245.732 23.5919 245.351 23.388C244.97 23.1841 244.552 23.0575 244.122 23.0155C243.692 22.9735 243.258 23.0169 242.844 23.1432L69.1706 75.5029H65.2496C58.2878 75.5029 51.6111 78.2685 46.6883 83.1913C41.7656 88.114 39 94.7907 39 101.753L39 206.751C39 213.713 41.7656 220.389 46.6883 225.312C51.6111 230.235 58.2878 233 65.2496 233H222.747C229.709 233 236.385 230.235 241.308 225.312C246.231 220.389 248.997 213.713 248.997 206.751V101.753C248.997 94.7907 246.231 88.114 241.308 83.1913C236.385 78.2685 229.709 75.5029 222.747 75.5029ZM235.872 206.751C235.872 210.232 234.489 213.57 232.028 216.031C229.566 218.493 226.228 219.876 222.747 219.876H65.2496C61.7687 219.876 58.4303 218.493 55.9689 216.031C53.5076 213.57 52.1248 210.232 52.1248 206.751V101.753C52.1248 98.2716 53.5076 94.9333 55.9689 92.4719C58.4303 90.0105 61.7687 88.6277 65.2496 88.6277H222.747C226.228 88.6277 229.566 90.0105 232.028 92.4719C234.489 94.9333 235.872 98.2716 235.872 101.753V206.751ZM183.373 114.877C175.585 114.877 167.972 117.187 161.497 121.513C155.022 125.84 149.976 131.989 146.995 139.184C144.015 146.378 143.236 154.295 144.755 161.933C146.274 169.571 150.024 176.587 155.531 182.094C161.037 187.6 168.053 191.35 175.691 192.869C183.329 194.389 191.246 193.609 198.441 190.629C205.635 187.649 211.785 182.602 216.111 176.127C220.438 169.652 222.747 162.039 222.747 154.252C222.747 143.809 218.599 133.794 211.215 126.41C203.83 119.026 193.815 114.877 183.373 114.877ZM183.373 180.501C178.181 180.501 173.106 178.962 168.789 176.077C164.472 173.193 161.108 169.093 159.121 164.297C157.134 159.5 156.615 154.223 157.627 149.131C158.64 144.039 161.14 139.361 164.811 135.69C168.482 132.019 173.16 129.519 178.252 128.506C183.344 127.494 188.621 128.013 193.418 130C198.214 131.987 202.314 135.351 205.198 139.668C208.083 143.985 209.622 149.06 209.622 154.252C209.615 161.211 206.847 167.883 201.925 172.805C197.004 177.726 190.332 180.494 183.373 180.501Z" fill="url(#paint0_linear)"/>
<defs>
<linearGradient id="paint0_linear" x1="143.999" y1="233.004" x2="143.999" y2="23.0014" gradientUnits="userSpaceOnUse">
<stop stop-color="#04468B"/>
<stop offset="0.1742" stop-color="#0561A3"/>
<stop offset="0.5126" stop-color="#0791CE"/>
<stop offset="0.772" stop-color="#09AEE8"/>
<stop offset="0.9194" stop-color="#09B9F2"/>
</linearGradient>
</defs>
</svg>
