<svg width="288" height="288" viewBox="0 0 288 288" fill="none" xmlns="http://www.w3.org/2000/svg">
<path d="M144.222 134.81C119.888 134.81 100.091 154.607 100.091 178.94C100.091 203.273 119.888 223.071 144.222 223.071C168.555 223.071 188.352 203.273 188.352 178.94C188.352 154.607 168.555 134.81 144.222 134.81ZM176.259 175.68H165.228C164.672 167.04 163.12 160.033 160.243 153.294C168.468 157.957 174.467 164.16 176.259 175.68ZM145.244 213.604C140.673 209.094 137.387 198.72 136.679 187.2H153.812C153.103 198.72 149.817 209.094 145.244 213.604ZM136.808 175.68C137.716 164.16 140.838 155.293 145.247 150.748C149.656 155.293 152.775 164.16 153.682 175.68H136.808ZM130.827 151.966C127.569 158.97 125.859 167.04 125.265 175.68H112.184C114.16 164.16 121.268 156.295 130.827 151.966ZM112.118 187.2H125.136C125.588 195.84 127.327 204.526 130.127 211.026C120.79 206.528 113.927 195.84 112.118 187.2ZM160.969 209.595C163.417 203.351 164.937 195.84 165.358 187.2H176.325C174.692 195.84 168.941 204.797 160.969 209.595Z" fill="url(#paint0_linear)"/>
<path d="M194.4 63.3599H93.6C90.4204 63.3599 87.84 65.9403 87.84 69.1199C87.84 72.2994 90.4204 74.8799 93.6 74.8799H194.4C197.579 74.8799 200.16 72.2994 200.16 69.1199C200.16 65.9403 197.579 63.3599 194.4 63.3599Z" fill="url(#paint1_linear)"/>
<path d="M194.4 80.6401H93.6C90.4204 80.6401 87.84 83.2206 87.84 86.4001C87.84 89.5797 90.4204 92.1601 93.6 92.1601H194.4C197.579 92.1601 200.16 89.5797 200.16 86.4001C200.16 83.2206 197.579 80.6401 194.4 80.6401Z" fill="url(#paint2_linear)"/>
<path d="M194.4 97.9199H93.6C90.4204 97.9199 87.84 100.5 87.84 103.68C87.84 106.859 90.4204 109.44 93.6 109.44H194.4C197.579 109.44 200.16 106.859 200.16 103.68C200.16 100.5 197.579 97.9199 194.4 97.9199Z" fill="url(#paint3_linear)"/>
<path d="M250.56 52.2922C250.56 46.898 247.069 46.0801 241.675 46.0801H222.532C222.327 46.0801 222.137 45.7057 221.936 45.7172C218.557 39.3409 211.861 34.5601 204.157 34.5601H58.0262C46.9411 34.5601 37.4399 40.8557 37.4399 51.9437V229.075C37.4399 240.163 46.9411 250.56 58.0262 250.56H204.157C215.245 250.56 221.76 240.163 221.76 229.075V164.16H241.675C247.069 164.16 250.56 158.409 250.56 153.014V133.871C250.56 132.434 250.229 131.077 249.67 129.848C250.229 128.618 250.56 127.261 250.56 125.824V106.675C250.56 105.238 250.229 103.882 249.67 102.652C250.229 101.422 250.56 100.069 250.56 98.6314V79.4881C250.56 78.0509 250.229 76.6945 249.67 75.4647C250.229 74.2321 250.56 72.8756 250.56 71.4385V52.2922ZM239.04 100.8H221.76V83.5201H239.04V100.8ZM221.76 112.32H239.04V126.72H221.76V112.32ZM239.04 72.0001H221.76V57.6001H239.04V72.0001ZM48.9599 229.075V51.9437C48.9599 47.209 53.2943 46.0801 58.0262 46.0801H60.4799V239.04H58.0262C53.2943 239.04 48.9599 233.81 48.9599 229.075ZM210.24 229.075C210.24 233.81 208.892 239.04 204.157 239.04H71.9999V46.0801H204.157C208.892 46.0801 210.24 47.209 210.24 51.9437V52.2922V71.4385V79.4852V98.6285V106.675V125.822V133.868V153.012V229.075ZM239.04 152.64H221.76V138.24H239.04V152.64Z" fill="url(#paint4_linear)"/>
<path d="M144.222 134.81C119.888 134.81 100.091 154.607 100.091 178.94C100.091 203.273 119.888 223.071 144.222 223.071C168.555 223.071 188.352 203.273 188.352 178.94C188.352 154.607 168.555 134.81 144.222 134.81ZM176.259 175.68H165.228C164.672 167.04 163.12 160.033 160.243 153.294C168.468 157.957 174.467 164.16 176.259 175.68ZM145.244 213.604C140.673 209.094 137.387 198.72 136.679 187.2H153.812C153.103 198.72 149.817 209.094 145.244 213.604ZM136.808 175.68C137.716 164.16 140.838 155.293 145.247 150.748C149.656 155.293 152.775 164.16 153.682 175.68H136.808ZM130.827 151.966C127.569 158.97 125.859 167.04 125.265 175.68H112.184C114.16 164.16 121.268 156.295 130.827 151.966ZM112.118 187.2H125.136C125.588 195.84 127.327 204.526 130.127 211.026C120.79 206.528 113.927 195.84 112.118 187.2ZM160.969 209.595C163.417 203.351 164.937 195.84 165.358 187.2H176.325C174.692 195.84 168.941 204.797 160.969 209.595Z" fill="url(#paint5_linear)"/>
<path d="M194.4 63.3599H93.6C90.4204 63.3599 87.84 65.9403 87.84 69.1199C87.84 72.2994 90.4204 74.8799 93.6 74.8799H194.4C197.579 74.8799 200.16 72.2994 200.16 69.1199C200.16 65.9403 197.579 63.3599 194.4 63.3599Z" fill="url(#paint6_linear)"/>
<path d="M194.4 80.6401H93.6C90.4204 80.6401 87.84 83.2206 87.84 86.4001C87.84 89.5797 90.4204 92.1601 93.6 92.1601H194.4C197.579 92.1601 200.16 89.5797 200.16 86.4001C200.16 83.2206 197.579 80.6401 194.4 80.6401Z" fill="url(#paint7_linear)"/>
<path d="M194.4 97.9199H93.6C90.4204 97.9199 87.84 100.5 87.84 103.68C87.84 106.859 90.4204 109.44 93.6 109.44H194.4C197.579 109.44 200.16 106.859 200.16 103.68C200.16 100.5 197.579 97.9199 194.4 97.9199Z" fill="url(#paint8_linear)"/>
<path d="M250.56 52.2922C250.56 46.898 247.069 46.0801 241.675 46.0801H222.532C222.327 46.0801 222.137 45.7057 221.936 45.7172C218.557 39.3409 211.861 34.5601 204.157 34.5601H58.0262C46.9411 34.5601 37.4399 40.8557 37.4399 51.9437V229.075C37.4399 240.163 46.9411 250.56 58.0262 250.56H204.157C215.245 250.56 221.76 240.163 221.76 229.075V164.16H241.675C247.069 164.16 250.56 158.409 250.56 153.014V133.871C250.56 132.434 250.229 131.077 249.67 129.848C250.229 128.618 250.56 127.261 250.56 125.824V106.675C250.56 105.238 250.229 103.882 249.67 102.652C250.229 101.422 250.56 100.069 250.56 98.6314V79.4881C250.56 78.0509 250.229 76.6945 249.67 75.4647C250.229 74.2321 250.56 72.8756 250.56 71.4385V52.2922ZM239.04 100.8H221.76V83.5201H239.04V100.8ZM221.76 112.32H239.04V126.72H221.76V112.32ZM239.04 72.0001H221.76V57.6001H239.04V72.0001ZM48.9599 229.075V51.9437C48.9599 47.209 53.2943 46.0801 58.0262 46.0801H60.4799V239.04H58.0262C53.2943 239.04 48.9599 233.81 48.9599 229.075ZM210.24 229.075C210.24 233.81 208.892 239.04 204.157 239.04H71.9999V46.0801H204.157C208.892 46.0801 210.24 47.209 210.24 51.9437V52.2922V71.4385V79.4852V98.6285V106.675V125.822V133.868V153.012V229.075ZM239.04 152.64H221.76V138.24H239.04V152.64Z" fill="url(#paint9_linear)"/>
<defs>
<linearGradient id="paint0_linear" x1="144.222" y1="223.072" x2="144.222" y2="134.81" gradientUnits="userSpaceOnUse">
<stop stop-color="#C433FF"/>
<stop offset="0.2577" stop-color="#D72EF0"/>
<stop offset="0.7304" stop-color="#F425D8"/>
<stop offset="1" stop-color="#FF22CF"/>
</linearGradient>
<linearGradient id="paint1_linear" x1="143.999" y1="74.8799" x2="143.999" y2="63.3599" gradientUnits="userSpaceOnUse">
<stop stop-color="#C433FF"/>
<stop offset="0.2577" stop-color="#D72EF0"/>
<stop offset="0.7304" stop-color="#F425D8"/>
<stop offset="1" stop-color="#FF22CF"/>
</linearGradient>
<linearGradient id="paint2_linear" x1="143.999" y1="92.1601" x2="143.999" y2="80.6401" gradientUnits="userSpaceOnUse">
<stop stop-color="#C433FF"/>
<stop offset="0.2577" stop-color="#D72EF0"/>
<stop offset="0.7304" stop-color="#F425D8"/>
<stop offset="1" stop-color="#FF22CF"/>
</linearGradient>
<linearGradient id="paint3_linear" x1="143.999" y1="109.44" x2="143.999" y2="97.9199" gradientUnits="userSpaceOnUse">
<stop stop-color="#C433FF"/>
<stop offset="0.2577" stop-color="#D72EF0"/>
<stop offset="0.7304" stop-color="#F425D8"/>
<stop offset="1" stop-color="#FF22CF"/>
</linearGradient>
<linearGradient id="paint4_linear" x1="144" y1="250.56" x2="144" y2="34.5601" gradientUnits="userSpaceOnUse">
<stop stop-color="#C433FF"/>
<stop offset="0.2577" stop-color="#D72EF0"/>
<stop offset="0.7304" stop-color="#F425D8"/>
<stop offset="1" stop-color="#FF22CF"/>
</linearGradient>
<linearGradient id="paint5_linear" x1="144" y1="250.56" x2="144" y2="34.5602" gradientUnits="userSpaceOnUse">
<stop stop-color="#04468B"/>
<stop offset="0.1742" stop-color="#0561A3"/>
<stop offset="0.5126" stop-color="#0791CE"/>
<stop offset="0.772" stop-color="#09AEE8"/>
<stop offset="0.9194" stop-color="#09B9F2"/>
</linearGradient>
<linearGradient id="paint6_linear" x1="144" y1="250.56" x2="144" y2="34.5599" gradientUnits="userSpaceOnUse">
<stop stop-color="#04468B"/>
<stop offset="0.1742" stop-color="#0561A3"/>
<stop offset="0.5126" stop-color="#0791CE"/>
<stop offset="0.772" stop-color="#09AEE8"/>
<stop offset="0.9194" stop-color="#09B9F2"/>
</linearGradient>
<linearGradient id="paint7_linear" x1="144" y1="250.56" x2="144" y2="34.5602" gradientUnits="userSpaceOnUse">
<stop stop-color="#04468B"/>
<stop offset="0.1742" stop-color="#0561A3"/>
<stop offset="0.5126" stop-color="#0791CE"/>
<stop offset="0.772" stop-color="#09AEE8"/>
<stop offset="0.9194" stop-color="#09B9F2"/>
</linearGradient>
<linearGradient id="paint8_linear" x1="144" y1="250.56" x2="144" y2="34.5599" gradientUnits="userSpaceOnUse">
<stop stop-color="#04468B"/>
<stop offset="0.1742" stop-color="#0561A3"/>
<stop offset="0.5126" stop-color="#0791CE"/>
<stop offset="0.772" stop-color="#09AEE8"/>
<stop offset="0.9194" stop-color="#09B9F2"/>
</linearGradient>
<linearGradient id="paint9_linear" x1="144" y1="250.56" x2="144" y2="34.5601" gradientUnits="userSpaceOnUse">
<stop stop-color="#04468B"/>
<stop offset="0.1742" stop-color="#0561A3"/>
<stop offset="0.5126" stop-color="#0791CE"/>
<stop offset="0.772" stop-color="#09AEE8"/>
<stop offset="0.9194" stop-color="#09B9F2"/>
</linearGradient>
</defs>
</svg>
