<svg width="45" height="45" viewBox="0 0 45 45" fill="none" xmlns="http://www.w3.org/2000/svg">
<path d="M29.2563 18.8027C29.2563 18.6753 29.2563 18.548 29.2563 18.4207C29.2716 18.3183 29.2833 18.215 29.3031 18.1135C29.4327 17.4528 29.7507 16.9004 30.2897 16.4854C30.8268 16.0718 31.4427 15.9111 32.117 15.9979C32.7162 16.0754 33.2165 16.3496 33.6258 16.7882C33.665 16.83 33.705 16.871 33.7406 16.9079C33.8418 16.8118 33.9331 16.7187 34.0312 16.6328C34.7424 16.0086 35.5625 15.8114 36.4649 16.1017C37.3696 16.3928 37.9072 17.0468 38.1514 17.9448C38.1937 18.0997 38.2099 18.2618 38.2383 18.4207C38.2383 18.548 38.2383 18.6753 38.2383 18.8027C38.2329 18.8281 38.2252 18.853 38.2225 18.8784C38.1613 19.4402 37.9522 19.9406 37.5774 20.368C37.3975 20.5732 37.2054 20.7682 37.0169 20.9654C36.016 22.0112 35.0146 23.057 34.0118 24.101C33.965 24.1495 33.9043 24.194 33.8418 24.2163C33.6933 24.2692 33.5782 24.2025 33.4765 24.0961C32.3352 22.9029 31.1925 21.7107 30.0499 20.5189C29.686 20.1396 29.4327 19.7011 29.3247 19.1864C29.2973 19.0591 29.2788 18.9304 29.2563 18.8027Z" stroke="url(#paint0_linear)" stroke-miterlimit="10"/>
<path d="M35.6663 15.9707C35.9241 15.9707 36.1908 16.0139 36.4643 16.102C37.369 16.3928 37.9066 17.0472 38.1509 17.9452C38.1932 18.1001 38.2094 18.2621 38.2377 18.4211C38.2377 18.5484 38.2377 18.6757 38.2377 18.803C38.2323 18.8284 38.2251 18.8534 38.2219 18.8787C38.1608 19.4406 37.9516 19.941 37.5768 20.3684C37.3969 20.5736 37.2048 20.7686 37.0159 20.9658C36.0149 22.0116 35.014 23.0573 34.0108 24.1009C33.964 24.1494 33.9033 24.1939 33.8408 24.2162C33.8057 24.2287 33.7719 24.2344 33.7395 24.2344C33.6379 24.2344 33.5528 24.1766 33.4755 24.0955C32.3337 22.9024 31.1915 21.7106 30.0489 20.5184C29.6849 20.1386 29.4317 19.7006 29.3237 19.1855C29.2972 19.0586 29.2783 18.9299 29.2562 18.8022C29.2562 18.6748 29.2562 18.5475 29.2562 18.4202C29.2715 18.3178 29.2832 18.2145 29.303 18.113C29.4326 17.4523 29.7511 16.8998 30.2896 16.4849C30.7327 16.1439 31.2293 15.9747 31.7678 15.9747C31.8821 15.9747 31.9986 15.9823 32.1164 15.9974C32.7157 16.0749 33.2159 16.3491 33.6253 16.7876C33.6644 16.8295 33.7044 16.8705 33.74 16.9074C33.8412 16.8112 33.9325 16.7182 34.0306 16.6323C34.5263 16.1982 35.0743 15.9707 35.6663 15.9707ZM35.6663 15.5255C34.9758 15.5255 34.3311 15.7806 33.7503 16.2841C33.3 15.8781 32.771 15.6337 32.1749 15.5567C32.0382 15.5389 31.901 15.53 31.7678 15.53C31.124 15.53 30.5338 15.733 30.0133 16.1337C29.4033 16.6029 29.016 17.2404 28.8612 18.028C28.8459 18.1063 28.8347 18.1856 28.8239 18.2644L28.8109 18.3543L28.8059 18.3868V18.4197V18.8017V18.8396L28.8127 18.877L28.8315 18.9914C28.8473 19.0862 28.863 19.1815 28.8828 19.2754C29.0029 19.8475 29.2855 20.3684 29.7223 20.8242C30.8649 22.016 32.0071 23.2078 33.1489 24.401C33.3257 24.5862 33.5241 24.6796 33.7395 24.6796C33.8246 24.6796 33.91 24.6645 33.9933 24.6347C34.1512 24.5786 34.2677 24.4798 34.3374 24.4067C35.3401 23.3632 36.342 22.3174 37.3429 21.2712L37.4545 21.1555C37.6074 20.9965 37.7658 20.8318 37.9169 20.6595C38.3443 20.1725 38.5976 19.5893 38.6696 18.9255L38.6786 18.8925L38.688 18.848V18.8026V18.4206V18.3814L38.6813 18.3432C38.6727 18.2964 38.6655 18.2497 38.6583 18.2025C38.6399 18.0827 38.621 17.9594 38.5854 17.829C38.2903 16.7436 37.6047 16.0001 36.6033 15.6778C36.288 15.5767 35.9722 15.5255 35.6663 15.5255Z" stroke="url(#paint1_linear)" stroke-miterlimit="10"/>
<path d="M30.1406 32.1085C30.1406 32.8088 30.1406 34.9591 30.1406 37.1851C25.1921 37.1851 11.2703 37.1851 6.7478 37.1851C6.7478 34.9591 6.7478 32.8413 6.7478 32.1085C6.7478 26.04 12.2568 21.0218 18.4442 21.0218C24.6316 21.0218 30.1406 26.04 30.1406 32.1085Z" stroke="url(#paint2_linear)" stroke-width="2" stroke-miterlimit="10"/>
<path d="M18.9258 20.7494C22.5947 20.7494 25.5689 17.806 25.5689 14.1751C25.5689 10.5443 22.5947 7.60092 18.9258 7.60092C15.2569 7.60092 12.2827 10.5443 12.2827 14.1751C12.2827 17.806 15.2569 20.7494 18.9258 20.7494Z" stroke="url(#paint3_linear)" stroke-width="2" stroke-miterlimit="10"/>
<defs>
<linearGradient id="paint0_linear" x1="22.7181" y1="37.1853" x2="22.7181" y2="7.60122" gradientUnits="userSpaceOnUse">
<stop stop-color="#C433FF"/>
<stop offset="0.2577" stop-color="#D72EF0"/>
<stop offset="0.7304" stop-color="#F425D8"/>
<stop offset="1" stop-color="#FF22CF"/>
</linearGradient>
<linearGradient id="paint1_linear" x1="22.7179" y1="37.1852" x2="22.7179" y2="7.60115" gradientUnits="userSpaceOnUse">
<stop stop-color="#C433FF"/>
<stop offset="0.2577" stop-color="#D72EF0"/>
<stop offset="0.7304" stop-color="#F425D8"/>
<stop offset="1" stop-color="#FF22CF"/>
</linearGradient>
<linearGradient id="paint2_linear" x1="22.7179" y1="37.1851" x2="22.7179" y2="7.60103" gradientUnits="userSpaceOnUse">
<stop stop-color="#C433FF"/>
<stop offset="0.2577" stop-color="#D72EF0"/>
<stop offset="0.7304" stop-color="#F425D8"/>
<stop offset="1" stop-color="#FF22CF"/>
</linearGradient>
<linearGradient id="paint3_linear" x1="22.7177" y1="37.1851" x2="22.7177" y2="7.60106" gradientUnits="userSpaceOnUse">
<stop stop-color="#C433FF"/>
<stop offset="0.2577" stop-color="#D72EF0"/>
<stop offset="0.7304" stop-color="#F425D8"/>
<stop offset="1" stop-color="#FF22CF"/>
</linearGradient>
</defs>
</svg>
