<svg width="289" height="287" viewBox="0 0 289 287" fill="none" xmlns="http://www.w3.org/2000/svg">
<path d="M230.514 189.09C236.815 183.978 241.035 176.198 241.035 167.49C241.035 152.136 228.587 139.645 213.182 139.645C197.777 139.645 185.284 152.138 185.284 167.49C185.284 175.721 188.93 183.106 194.644 188.209C192.273 189.193 189.673 190.401 187.521 191.753L149.2 168.42V146.37H192.4V125.763C192.4 108.971 182.13 94.0984 167.157 87.064C173.458 81.9525 177.675 74.172 177.675 65.4644C177.675 50.1099 165.227 37.6196 149.822 37.6196C134.417 37.6196 121.924 50.1127 121.924 65.4644C121.924 73.6927 125.212 81.0772 130.926 86.18C114.96 92.8097 103.12 108.268 103.12 125.763V146.37H137.68V169.47L104.076 192.468C102.164 191.188 100.312 190.077 98.2125 189.09C104.514 183.978 108.644 176.198 108.644 167.49C108.644 152.136 96.1533 139.645 80.7453 139.645C65.3373 139.645 52.8266 152.138 52.8266 167.49C52.8266 175.721 56.104 183.106 61.8208 188.209C45.8512 194.835 34 210.293 34 227.786V249.69H123.28V227.786C123.28 217.439 119.596 207.816 113.004 200.3L144.811 178.881L178.127 199.511C171.102 207.136 166.48 217.064 166.48 227.786V249.69H255.76V227.786C255.76 210.993 245.487 196.121 230.514 189.09ZM149.908 49.0996C158.966 49.0996 166.33 56.4411 166.33 65.4644C166.33 74.4876 158.963 81.8291 149.908 81.8291C140.854 81.8291 133.487 74.4876 133.487 65.4644C133.487 56.4411 140.854 49.0996 149.908 49.0996ZM114.64 134.89V125.763C114.64 108.962 130.117 94.2246 147.76 94.2246C165.403 94.2246 180.88 108.962 180.88 125.763V134.89H149.908H138.388H114.64ZM80.7885 151.122C89.8461 151.122 97.2102 158.464 97.2102 167.487C97.2102 176.51 89.8432 183.852 80.7885 183.852C71.7338 183.852 64.3667 176.51 64.3667 167.487C64.3667 158.464 71.7338 151.122 80.7885 151.122ZM111.76 238.21H45.52V227.786C45.52 210.985 60.9971 196.25 78.64 196.25C96.2829 196.25 111.76 210.985 111.76 227.786V238.21ZM213.268 151.122C222.326 151.122 229.69 158.464 229.69 167.487C229.69 176.51 222.323 183.852 213.268 183.852C204.214 183.852 196.847 176.51 196.847 167.487C196.847 158.464 204.214 151.122 213.268 151.122ZM244.24 238.21H178V227.786C178 210.985 193.477 196.25 211.12 196.25C228.763 196.25 244.24 210.985 244.24 227.786V238.21Z" fill="url(#paint0_linear)"/>
<defs>
<linearGradient id="paint0_linear" x1="144.88" y1="249.69" x2="144.88" y2="37.6202" gradientUnits="userSpaceOnUse">
<stop stop-color="#C433FF"/>
<stop offset="0.2577" stop-color="#D72EF0"/>
<stop offset="0.7304" stop-color="#F425D8"/>
<stop offset="1" stop-color="#FF22CF"/>
</linearGradient>
</defs>
</svg>
