<svg width="288" height="288" viewBox="0 0 288 288" fill="none" xmlns="http://www.w3.org/2000/svg">
<path d="M247.881 97.8686C247.881 89.7781 241.297 84.79 233.207 84.79H229.464C227.777 81.92 225.432 73.31 229.186 64.7H233.207C241.297 64.7 247.881 58.4405 247.881 50.35C247.881 42.2595 241.297 36 233.207 36H80.4654C58.705 36 41 51.7104 41 73.4707C41 84.546 45.6006 93.5578 52.9736 100.733C46.1717 102.007 41 109.854 41 117.02C41 125.111 47.5809 133.58 55.6714 133.58H58.9375C63.2454 139.32 61.6583 147.93 59.9764 153.67H55.6714C47.5809 153.67 41 157.941 41 166.031C41 173.2 46.1717 178.005 52.9736 179.279C45.6006 186.454 41 198.588 41 209.664C41.0029 231.421 58.705 251.25 80.4654 251.25H233.204C241.294 251.25 247.878 243.556 247.878 235.465C247.878 227.374 241.297 219.68 233.204 219.68H228.44C226.898 216.81 225.908 207.009 230.615 199.762L230.236 199.59H233.207C241.297 199.59 247.881 191.344 247.881 183.251C247.881 176.085 242.709 169.291 235.907 168.02C243.28 160.845 247.881 150.421 247.881 139.346C247.881 128.27 243.278 118.851 235.907 111.676C242.709 110.405 247.881 105.035 247.881 97.8686ZM217.336 84.79H193.231V81.92H198.374C201.542 81.92 204.114 79.3485 204.114 76.18C204.114 73.0115 201.542 70.44 198.374 70.44H109.404C106.235 70.44 103.664 73.0115 103.664 76.18C103.664 79.3485 106.235 81.92 109.404 81.92H155.921V84.79H82.4485C76.8693 84.79 72.3318 80.3271 72.3318 74.745C72.3318 69.1628 76.8693 64.7 82.4485 64.7H216.974C214.781 73.31 215.774 79.05 217.336 84.79ZM167.401 81.92H181.751V127.163L178.78 124.726C176.209 122.393 172.486 122.393 169.915 124.732L167.401 127.163V81.92ZM52.4829 76.18C52.4829 60.748 65.0362 47.48 80.4682 47.48H233.207C234.969 47.48 236.401 49.6669 236.401 51.4262C236.401 53.1856 234.969 55.0138 233.207 55.0138L83.4903 54.2618C71.5827 54.2618 60.8518 62.8374 60.8518 74.7479C60.8518 86.6555 70.5409 96.2729 82.4485 96.2729H155.921V104.883H80.4654C65.0362 104.88 52.4829 91.612 52.4829 76.18ZM52.4829 118.512C52.4829 116.753 53.915 114.925 55.6743 114.925L155.921 115.465V122.1H55.6743C53.915 122.1 52.4829 120.272 52.4829 118.512ZM71.4737 133.58H155.921V137.822C155.921 140.548 157.212 143.014 159.68 144.101C160.541 144.48 161.305 144.664 162.209 144.664C163.847 144.664 165.394 144.061 166.649 142.913L174.013 136.157L181.392 142.91C183.355 144.701 186.469 145.163 188.882 144.101C191.348 143.014 193.231 140.548 193.231 137.822V133.58H206.43C212.009 133.58 216.546 138.046 216.546 143.625C216.546 149.204 212.009 153.67 206.43 153.67H71.9501C73.3564 147.93 74.0079 139.32 71.4737 133.58ZM216.61 219.68H82.4485C76.8693 219.68 72.3318 215.217 72.3318 209.635C72.3318 204.053 76.8693 199.59 82.4485 199.59H217.933C215.04 208.2 215.361 213.94 216.61 219.68ZM233.204 181.116C234.966 181.116 236.398 182.646 236.398 184.405C236.398 186.164 234.966 188.11 233.204 188.11H82.4485C70.5409 188.11 60.8518 197.724 60.8518 209.635C60.8518 221.543 70.5409 231.16 82.4485 231.16H233.204C234.966 231.16 236.398 233.706 236.398 235.465C236.398 237.224 234.966 239.77 233.204 239.77H80.4654C65.0334 239.77 52.48 226.499 52.48 211.07C52.48 195.638 61.024 180.217 76.456 180.217L233.204 181.116ZM236.401 143.625C236.401 159.057 223.848 170.89 208.416 170.89H80.4654H55.6714C53.9121 170.89 52.48 169.245 52.48 167.48C52.48 165.721 53.9121 163.953 55.6714 163.953L206.427 163.594C218.334 163.594 228.024 155.535 228.024 143.625C228.024 131.714 218.334 122.1 206.427 122.1H193.231V116.36H208.416C223.845 116.36 236.401 128.193 236.401 143.625ZM233.204 104.88H208.413H193.231V96.27H233.204C234.966 96.27 236.398 98.8128 236.398 100.575C236.401 102.337 234.966 104.88 233.204 104.88Z" fill="url(#paint0_linear)"/>
<defs>
<linearGradient id="paint0_linear" x1="144.441" y1="251.25" x2="144.441" y2="36" gradientUnits="userSpaceOnUse">
<stop stop-color="#04468B"/>
<stop offset="0.1742" stop-color="#0561A3"/>
<stop offset="0.5126" stop-color="#0791CE"/>
<stop offset="0.772" stop-color="#09AEE8"/>
<stop offset="0.9194" stop-color="#09B9F2"/>
</linearGradient>
</defs>
</svg>
