<svg width="289" height="287" viewBox="0 0 289 287" fill="none" xmlns="http://www.w3.org/2000/svg">
<path d="M144.974 251.825C144.951 251.825 144.928 251.825 144.908 251.825C141.109 251.802 137.647 250.034 135.412 246.969L123.809 231.058L94.28 230.934C79.7907 230.934 68 219.184 68 204.745V61.3631C68 46.9241 79.7907 35.1743 94.28 35.1743H195.063C209.552 35.1743 221.343 46.9241 221.343 61.3631V204.743C221.343 219.181 209.552 230.931 195.063 230.931H166.634L154.46 247.066C152.205 250.091 148.752 251.825 144.974 251.825ZM94.28 46.6543C86.1411 46.6543 79.52 53.2524 79.52 61.3631V204.743C79.52 212.853 86.1411 219.451 94.28 219.451H123.567C127.342 219.451 130.916 221.268 133.128 224.307L144.732 240.219L145.213 240.221L157.145 224.207C159.368 221.228 162.916 219.451 166.634 219.451H195.063C203.202 219.451 209.823 212.853 209.823 204.743V61.3631C209.823 53.2524 203.202 46.6543 195.063 46.6543H94.28Z" fill="url(#paint0_linear)"/>
<path d="M149.081 194.637H140.259C136.233 194.637 132.97 191.386 132.97 187.373V178.583C132.97 174.57 136.233 171.319 140.259 171.319H149.081C153.107 171.319 156.37 174.57 156.37 178.583V187.373C156.373 191.386 153.107 194.637 149.081 194.637Z" fill="url(#paint1_linear)"/>
<path d="M156.062 70.1511H133.281C128.5 70.1511 124.776 74.2811 125.283 79.0194L132.201 143.35C132.639 147.423 136.086 150.511 140.199 150.511H149.147C153.257 150.511 156.707 147.423 157.145 143.35L164.063 79.0194C164.567 74.2839 160.843 70.1511 156.062 70.1511Z" fill="url(#paint2_linear)"/>
<path d="M144.974 251.825C144.951 251.825 144.928 251.825 144.908 251.825C141.109 251.802 137.647 250.034 135.412 246.969L123.809 231.058L94.28 230.934C79.7907 230.934 68 219.184 68 204.745V61.3631C68 46.9241 79.7907 35.1743 94.28 35.1743H195.063C209.552 35.1743 221.343 46.9241 221.343 61.3631V204.743C221.343 219.181 209.552 230.931 195.063 230.931H166.634L154.46 247.066C152.205 250.091 148.752 251.825 144.974 251.825ZM94.28 46.6543C86.1411 46.6543 79.52 53.2524 79.52 61.3631V204.743C79.52 212.853 86.1411 219.451 94.28 219.451H123.567C127.342 219.451 130.916 221.268 133.128 224.307L144.732 240.219L145.213 240.221L157.145 224.207C159.368 221.228 162.916 219.451 166.634 219.451H195.063C203.202 219.451 209.823 212.853 209.823 204.743V61.3631C209.823 53.2524 203.202 46.6543 195.063 46.6543H94.28Z" fill="url(#paint3_linear)"/>
<path d="M149.081 194.637H140.259C136.233 194.637 132.97 191.386 132.97 187.373V178.583C132.97 174.57 136.233 171.319 140.259 171.319H149.081C153.107 171.319 156.37 174.57 156.37 178.583V187.373C156.373 191.386 153.107 194.637 149.081 194.637Z" fill="url(#paint4_linear)"/>
<path d="M156.062 70.1511H133.281C128.5 70.1511 124.776 74.2811 125.283 79.0194L132.201 143.35C132.639 147.423 136.086 150.511 140.199 150.511H149.147C153.257 150.511 156.707 147.423 157.145 143.35L164.063 79.0194C164.567 74.2839 160.843 70.1511 156.062 70.1511Z" fill="url(#paint5_linear)"/>
<defs>
<linearGradient id="paint0_linear" x1="144.671" y1="251.824" x2="144.671" y2="35.1752" gradientUnits="userSpaceOnUse">
<stop stop-color="#1E0094"/>
<stop offset="0.0406" stop-color="#270099"/>
<stop offset="0.3495" stop-color="#6900BB"/>
<stop offset="0.6093" stop-color="#9900D4"/>
<stop offset="0.807" stop-color="#B600E3"/>
<stop offset="0.9194" stop-color="#C100E9"/>
</linearGradient>
<linearGradient id="paint1_linear" x1="144.672" y1="194.639" x2="144.672" y2="171.32" gradientUnits="userSpaceOnUse">
<stop stop-color="#FE5F25"/>
<stop offset="0.3798" stop-color="#FE962C"/>
<stop offset="1" stop-color="#FFED37"/>
</linearGradient>
<linearGradient id="paint2_linear" x1="144.671" y1="150.513" x2="144.671" y2="70.1526" gradientUnits="userSpaceOnUse">
<stop stop-color="#FE5F25"/>
<stop offset="0.3798" stop-color="#FE962C"/>
<stop offset="1" stop-color="#FFED37"/>
</linearGradient>
<linearGradient id="paint3_linear" x1="144.671" y1="251.824" x2="144.671" y2="35.1755" gradientUnits="userSpaceOnUse">
<stop stop-color="#FE5F25"/>
<stop offset="0.3798" stop-color="#FE962C"/>
<stop offset="1" stop-color="#FFED37"/>
</linearGradient>
<linearGradient id="paint4_linear" x1="144.672" y1="251.824" x2="144.672" y2="35.1755" gradientUnits="userSpaceOnUse">
<stop stop-color="#FE5F25"/>
<stop offset="0.3798" stop-color="#FE962C"/>
<stop offset="1" stop-color="#FFED37"/>
</linearGradient>
<linearGradient id="paint5_linear" x1="144.671" y1="251.824" x2="144.671" y2="35.1756" gradientUnits="userSpaceOnUse">
<stop stop-color="#FE5F25"/>
<stop offset="0.3798" stop-color="#FE962C"/>
<stop offset="1" stop-color="#FFED37"/>
</linearGradient>
</defs>
</svg>
