<svg width="288" height="288" viewBox="0 0 288 288" fill="none" xmlns="http://www.w3.org/2000/svg">
<path d="M212.076 188.451C212.211 183.856 211.249 179.508 210.42 175.783C208.704 168.094 207.997 163.893 212.064 159.823C214.306 157.582 214.306 153.948 212.064 151.707C209.823 149.465 206.189 149.465 203.948 151.707L190.579 165.075L171.213 145.708L242.016 74.9055L250.316 39.3691L214.487 47.3277L143.658 118.156L72.8291 47.3277L37 39.372L45.3 74.9083L116.103 145.711L96.7362 165.078L83.3677 151.71C81.1263 149.468 77.4928 149.468 75.2514 151.71C73.0099 153.951 73.0099 157.584 75.2514 159.826C79.3182 163.893 78.6121 168.094 76.893 175.786C76.0636 179.511 75.105 183.859 75.237 188.454L44.241 219.447C37.1636 226.53 37.1665 238.048 44.241 245.125C47.6707 248.555 52.2311 250.446 57.0843 250.446C61.9374 250.446 66.495 248.558 69.9246 245.125L100.757 214.293C101.822 214.393 102.881 214.456 103.92 214.456C108.297 214.456 112.424 213.673 116.025 212.987C123.266 211.606 126.685 211.256 129.087 213.656C130.209 214.778 131.676 215.337 133.145 215.337C134.614 215.337 136.081 214.778 137.203 213.656C139.445 211.414 139.445 207.781 137.203 205.539L124.294 192.63L143.661 173.263L163.027 192.63L150.118 205.539C147.877 207.781 147.877 211.414 150.118 213.656C151.24 214.778 152.707 215.337 154.176 215.337C155.646 215.337 157.112 214.778 158.235 213.656C160.637 211.253 164.061 211.604 171.296 212.987C174.898 213.67 179.019 214.456 183.402 214.456C184.441 214.456 185.497 214.393 186.561 214.293L217.394 245.125C220.824 248.555 225.384 250.446 230.237 250.446C235.085 250.446 239.645 248.558 243.077 245.125C250.155 238.048 250.158 226.53 243.077 219.447L212.076 188.451ZM55.7296 69.1023L52.3287 54.5314L67.0776 57.8089L135.539 126.273L124.219 137.592L55.7296 69.1023ZM61.8054 237.003C59.2884 239.526 54.8858 239.526 52.3631 237.003C49.76 234.4 49.7629 230.161 52.3631 227.558L79.0225 200.898C80.0357 202.48 81.264 204.05 82.8109 205.6C84.7195 207.508 86.6539 209.003 88.5969 210.214L61.8054 237.003ZM113.876 201.708C105.435 203.312 98.1482 204.701 90.9273 197.483C85.3796 191.935 86.1918 186.83 88.1004 178.283C88.4333 176.796 88.7805 175.241 89.0675 173.639L116.628 201.2C115.698 201.361 114.78 201.536 113.876 201.708ZM104.855 173.191L220.238 57.8089L234.984 54.5314L231.583 69.1023L116.175 184.511L104.855 173.191ZM151.774 165.147L163.096 153.825L182.463 173.191L171.141 184.514L151.774 165.147ZM173.44 201.708C172.536 201.536 171.617 201.363 170.687 201.2L198.248 173.639C198.535 175.241 198.882 176.796 199.215 178.283C201.124 186.83 201.933 191.935 196.388 197.48C189.165 204.698 181.872 203.306 173.44 201.708ZM234.955 237.003C232.427 239.532 228.033 239.526 225.51 237.003L198.719 210.212C200.662 209 202.599 207.505 204.505 205.597C206.052 204.05 207.28 202.477 208.293 200.896L234.953 227.555C237.556 230.164 237.558 234.4 234.955 237.003Z" fill="url(#paint0_linear)"/>
<path d="M141.474 98.27C144.642 98.27 147.214 95.6985 147.214 92.53V43.74C147.214 40.5715 144.642 38 141.474 38C138.305 38 135.734 40.5715 135.734 43.74V92.53C135.734 95.6985 138.305 98.27 141.474 98.27Z" fill="url(#paint1_linear)"/>
<path d="M171.462 68.3183C172.932 68.3183 174.398 67.7586 175.52 66.6364L193.463 48.6932C195.705 46.4517 195.705 42.8183 193.463 40.5769C191.222 38.3354 187.589 38.3354 185.347 40.5769L167.404 58.5201C165.162 60.7616 165.162 64.395 167.404 66.6364C168.523 67.7586 169.993 68.3183 171.462 68.3183Z" fill="url(#paint2_linear)"/>
<path d="M112.036 66.6364C113.158 67.7586 114.625 68.3183 116.094 68.3183C117.564 68.3183 119.03 67.7586 120.152 66.6364C122.394 64.395 122.394 60.7616 120.152 58.5201L102.209 40.5769C99.9676 38.3354 96.3342 38.3354 94.0927 40.5769C91.8513 42.8183 91.8513 46.4517 94.0927 48.6932L112.036 66.6364Z" fill="url(#paint3_linear)"/>
<path d="M212.076 188.451C212.211 183.856 211.249 179.508 210.42 175.783C208.704 168.094 207.997 163.893 212.064 159.823C214.306 157.582 214.306 153.948 212.064 151.707C209.823 149.465 206.189 149.465 203.948 151.707L190.579 165.075L171.213 145.708L242.016 74.9055L250.316 39.3691L214.487 47.3277L143.658 118.156L72.8291 47.3277L37 39.372L45.3 74.9083L116.103 145.711L96.7362 165.078L83.3677 151.71C81.1263 149.468 77.4928 149.468 75.2514 151.71C73.0099 153.951 73.0099 157.584 75.2514 159.826C79.3182 163.893 78.6121 168.094 76.893 175.786C76.0636 179.511 75.105 183.859 75.237 188.454L44.241 219.447C37.1636 226.53 37.1665 238.048 44.241 245.125C47.6707 248.555 52.2311 250.446 57.0843 250.446C61.9374 250.446 66.495 248.558 69.9246 245.125L100.757 214.293C101.822 214.393 102.881 214.456 103.92 214.456C108.297 214.456 112.424 213.673 116.025 212.987C123.266 211.606 126.685 211.256 129.087 213.656C130.209 214.778 131.676 215.337 133.145 215.337C134.614 215.337 136.081 214.778 137.203 213.656C139.445 211.414 139.445 207.781 137.203 205.539L124.294 192.63L143.661 173.263L163.027 192.63L150.118 205.539C147.877 207.781 147.877 211.414 150.118 213.656C151.24 214.778 152.707 215.337 154.176 215.337C155.646 215.337 157.112 214.778 158.235 213.656C160.637 211.253 164.061 211.604 171.296 212.987C174.898 213.67 179.019 214.456 183.402 214.456C184.441 214.456 185.497 214.393 186.561 214.293L217.394 245.125C220.824 248.555 225.384 250.446 230.237 250.446C235.085 250.446 239.645 248.558 243.077 245.125C250.155 238.048 250.158 226.53 243.077 219.447L212.076 188.451ZM55.7296 69.1023L52.3287 54.5314L67.0776 57.8089L135.539 126.273L124.219 137.592L55.7296 69.1023ZM61.8054 237.003C59.2884 239.526 54.8858 239.526 52.3631 237.003C49.76 234.4 49.7629 230.161 52.3631 227.558L79.0225 200.898C80.0357 202.48 81.264 204.05 82.8109 205.6C84.7195 207.508 86.6539 209.003 88.5969 210.214L61.8054 237.003ZM113.876 201.708C105.435 203.312 98.1482 204.701 90.9273 197.483C85.3796 191.935 86.1918 186.83 88.1004 178.283C88.4333 176.796 88.7805 175.241 89.0675 173.639L116.628 201.2C115.698 201.361 114.78 201.536 113.876 201.708ZM104.855 173.191L220.238 57.8089L234.984 54.5314L231.583 69.1023L116.175 184.511L104.855 173.191ZM151.774 165.147L163.096 153.825L182.463 173.191L171.141 184.514L151.774 165.147ZM173.44 201.708C172.536 201.536 171.617 201.363 170.687 201.2L198.248 173.639C198.535 175.241 198.882 176.796 199.215 178.283C201.124 186.83 201.933 191.935 196.388 197.48C189.165 204.698 181.872 203.306 173.44 201.708ZM234.955 237.003C232.427 239.532 228.033 239.526 225.51 237.003L198.719 210.212C200.662 209 202.599 207.505 204.505 205.597C206.052 204.05 207.28 202.477 208.293 200.896L234.953 227.555C237.556 230.164 237.558 234.4 234.955 237.003Z" fill="url(#paint4_linear)"/>
<path d="M141.474 98.27C144.642 98.27 147.214 95.6985 147.214 92.53V43.74C147.214 40.5715 144.642 38 141.474 38C138.305 38 135.734 40.5715 135.734 43.74V92.53C135.734 95.6985 138.305 98.27 141.474 98.27Z" fill="url(#paint5_linear)"/>
<path d="M171.462 68.3183C172.932 68.3183 174.398 67.7586 175.52 66.6364L193.463 48.6932C195.705 46.4517 195.705 42.8183 193.463 40.5769C191.222 38.3354 187.589 38.3354 185.347 40.5769L167.404 58.5201C165.162 60.7616 165.162 64.395 167.404 66.6364C168.523 67.7586 169.993 68.3183 171.462 68.3183Z" fill="url(#paint6_linear)"/>
<path d="M112.036 66.6364C113.158 67.7586 114.625 68.3183 116.094 68.3183C117.564 68.3183 119.03 67.7586 120.152 66.6364C122.394 64.395 122.394 60.7616 120.152 58.5201L102.209 40.5769C99.9676 38.3354 96.3342 38.3354 94.0927 40.5769C91.8513 42.8183 91.8513 46.4517 94.0927 48.6932L112.036 66.6364Z" fill="url(#paint7_linear)"/>
<defs>
<linearGradient id="paint0_linear" x1="143.657" y1="250.44" x2="143.657" y2="39.3694" gradientUnits="userSpaceOnUse">
<stop stop-color="#C433FF"/>
<stop offset="0.2577" stop-color="#D72EF0"/>
<stop offset="0.7304" stop-color="#F425D8"/>
<stop offset="1" stop-color="#FF22CF"/>
</linearGradient>
<linearGradient id="paint1_linear" x1="141.474" y1="98.2686" x2="141.474" y2="37.9986" gradientUnits="userSpaceOnUse">
<stop stop-color="#C433FF"/>
<stop offset="0.2577" stop-color="#D72EF0"/>
<stop offset="0.7304" stop-color="#F425D8"/>
<stop offset="1" stop-color="#FF22CF"/>
</linearGradient>
<linearGradient id="paint2_linear" x1="180.432" y1="68.3183" x2="180.432" y2="38.895" gradientUnits="userSpaceOnUse">
<stop stop-color="#C433FF"/>
<stop offset="0.2577" stop-color="#D72EF0"/>
<stop offset="0.7304" stop-color="#F425D8"/>
<stop offset="1" stop-color="#FF22CF"/>
</linearGradient>
<linearGradient id="paint3_linear" x1="107.121" y1="68.3183" x2="107.121" y2="38.895" gradientUnits="userSpaceOnUse">
<stop stop-color="#C433FF"/>
<stop offset="0.2577" stop-color="#D72EF0"/>
<stop offset="0.7304" stop-color="#F425D8"/>
<stop offset="1" stop-color="#FF22CF"/>
</linearGradient>
<linearGradient id="paint4_linear" x1="143.657" y1="250.44" x2="143.657" y2="37.9987" gradientUnits="userSpaceOnUse">
<stop stop-color="#FE5F25"/>
<stop offset="0.3798" stop-color="#FE962C"/>
<stop offset="1" stop-color="#FFED37"/>
</linearGradient>
<linearGradient id="paint5_linear" x1="143.656" y1="250.44" x2="143.656" y2="37.9986" gradientUnits="userSpaceOnUse">
<stop stop-color="#FE5F25"/>
<stop offset="0.3798" stop-color="#FE962C"/>
<stop offset="1" stop-color="#FFED37"/>
</linearGradient>
<linearGradient id="paint6_linear" x1="143.656" y1="250.44" x2="143.656" y2="37.9982" gradientUnits="userSpaceOnUse">
<stop stop-color="#FE5F25"/>
<stop offset="0.3798" stop-color="#FE962C"/>
<stop offset="1" stop-color="#FFED37"/>
</linearGradient>
<linearGradient id="paint7_linear" x1="143.656" y1="250.44" x2="143.656" y2="37.9982" gradientUnits="userSpaceOnUse">
<stop stop-color="#FE5F25"/>
<stop offset="0.3798" stop-color="#FE962C"/>
<stop offset="1" stop-color="#FFED37"/>
</linearGradient>
</defs>
</svg>
