<svg width="288" height="288" viewBox="0 0 288 288" fill="none" xmlns="http://www.w3.org/2000/svg">
<path d="M187 151.773H206.074C208.902 157.513 216.353 163.64 225.102 163.64C236.274 163.64 245.363 153.854 245.363 142.721C245.363 131.588 236.274 123.624 225.102 123.624C215.526 123.624 207.5 131.683 205.397 140.293H187V62.8029H205.688C208.18 71.4129 215.935 76.0968 225.102 76.0968C236.274 76.0968 245.363 66.4593 245.363 55.3266C245.363 44.191 236.274 36 225.102 36C215.932 36 208.177 42.7101 205.688 51.3201H175.48V140.29H155.32V120.269C155.32 102.977 140.595 91.5029 123.237 91.5029H122.2C127.424 85.7629 130.641 76.9807 130.641 68.6864C130.641 51.0876 116.273 36.1177 98.6128 36.1177C80.9526 36.1177 66.5843 51.4119 66.5843 69.0107C66.5843 77.305 69.8013 85.7629 75.0256 91.5029H73.9888C56.6339 91.5029 43 102.977 43 120.272V177.603H66.04V252.223H129.4V177.603H155.32V151.773H175.48V237.873H205.688C208.18 246.483 215.935 250.877 225.102 250.877C236.274 250.877 245.363 241.096 245.363 229.963C245.363 218.83 236.274 210.858 225.102 210.858C215.932 210.858 208.177 217.783 205.688 226.393H187V151.773ZM225.102 133.282C229.924 133.282 233.843 137.188 233.843 141.992C233.843 146.796 229.924 150.702 225.102 150.702C220.281 150.702 216.362 146.796 216.362 141.992C216.362 137.188 220.284 133.282 225.102 133.282ZM225.102 46.0364C229.924 46.0364 233.843 49.9453 233.843 54.7497C233.843 59.5541 229.924 63.4602 225.102 63.4602C220.281 63.4602 216.362 59.5541 216.362 54.7497C216.362 49.9453 220.284 46.0364 225.102 46.0364ZM98.6128 46.949C109.923 46.949 119.121 56.1158 119.121 67.3863C119.121 78.6568 109.923 87.8236 98.6128 87.8236C87.303 87.8236 78.1043 78.6568 78.1043 67.3863C78.1043 56.1158 87.3059 46.949 98.6128 46.949ZM143.8 166.123H129.4V134.553H117.88V240.743H103.48V180.473H91.96V240.743H77.56V134.553H66.04V166.123H54.52V120.272C54.52 109.306 62.9843 102.983 73.9917 102.983H123.24C134.244 102.983 143.803 109.306 143.803 120.272V166.123H143.8ZM225.102 220.53C229.924 220.53 233.843 224.436 233.843 229.24C233.843 234.044 229.924 237.95 225.102 237.95C220.281 237.95 216.362 234.044 216.362 229.24C216.362 224.436 220.284 220.53 225.102 220.53Z" fill="url(#paint0_linear)"/>
<defs>
<linearGradient id="paint0_linear" x1="144.182" y1="252.223" x2="144.182" y2="36.0014" gradientUnits="userSpaceOnUse">
<stop stop-color="#04468B"/>
<stop offset="0.1742" stop-color="#0561A3"/>
<stop offset="0.5126" stop-color="#0791CE"/>
<stop offset="0.772" stop-color="#09AEE8"/>
<stop offset="0.9194" stop-color="#09B9F2"/>
</linearGradient>
</defs>
</svg>
