<svg width="288" height="288" viewBox="0 0 288 288" fill="none" xmlns="http://www.w3.org/2000/svg">
<path d="M179.246 94.803C179.024 94.803 178.8 94.8173 178.572 94.846C166.329 96.436 153.499 105.93 150.46 125.041C150.054 127.593 152.076 129.846 154.561 129.846C154.792 129.846 155.022 129.826 155.258 129.788C175.338 126.402 182.44 112.253 184.401 101.08C184.974 97.8136 182.46 94.803 179.246 94.803Z" fill="url(#paint0_linear)"/>
<path d="M150.368 155.299V134.044C150.368 133.513 149.078 130.902 148.87 130.411C144.124 119.192 124.796 108.92 109.193 107.348C109 107.327 108.556 107.319 108.369 107.319C104.498 107.319 101.618 111.334 103.352 114.921C108.222 124.989 118.308 135.623 138.295 137.17C140.611 137.348 141.725 139.236 141.725 141.552V154.835C141.725 157.331 140.504 159.412 138.027 159.791C135.018 160.25 132.673 161.054 129.776 162.268C122.288 165.408 116.073 170.645 112.683 178.102C111.79 180.068 112.401 181.973 114.207 183.067C122.78 188.253 134.079 190.471 145.083 190.471C158.429 190.471 171.432 187.211 178.84 182.028C179.827 181.336 180.668 179.574 180.484 178.48C179.899 174.97 177.354 172.525 174.692 170.384C172.705 168.78 170.528 167.333 168.391 166.053C163.532 163.14 158.755 161.094 153.202 160.058C150.883 159.622 150.368 157.659 150.368 155.299Z" fill="url(#paint1_linear)"/>
<path d="M143.888 248.075C86.3221 248.075 39.4875 201.403 39.4875 144.038C39.4875 86.6719 86.3221 40 143.888 40C201.453 40 248.288 86.6719 248.288 144.038C248.288 201.403 201.456 248.075 143.888 248.075ZM143.888 51.48C92.6754 51.48 51.0075 93.0032 51.0075 144.038C51.0075 195.072 92.6754 236.595 143.888 236.595C195.1 236.595 236.768 195.072 236.768 144.038C236.768 93.0032 195.103 51.48 143.888 51.48Z" fill="url(#paint2_linear)"/>
<path d="M179.246 94.803C179.024 94.803 178.8 94.8173 178.572 94.846C166.329 96.436 153.499 105.93 150.46 125.041C150.054 127.593 152.076 129.846 154.561 129.846C154.792 129.846 155.022 129.826 155.258 129.788C175.338 126.402 182.44 112.253 184.401 101.08C184.974 97.8136 182.46 94.803 179.246 94.803Z" fill="url(#paint3_linear)"/>
<path d="M150.368 155.299V134.044C150.368 133.513 149.078 130.902 148.87 130.411C144.124 119.192 124.796 108.92 109.193 107.348C109 107.327 108.556 107.319 108.369 107.319C104.498 107.319 101.618 111.334 103.352 114.921C108.222 124.989 118.308 135.623 138.295 137.17C140.611 137.348 141.725 139.236 141.725 141.552V154.835C141.725 157.331 140.504 159.412 138.027 159.791C135.018 160.25 132.673 161.054 129.776 162.268C122.288 165.408 116.073 170.645 112.683 178.102C111.79 180.068 112.401 181.973 114.207 183.067C122.78 188.253 134.079 190.471 145.083 190.471C158.429 190.471 171.432 187.211 178.84 182.028C179.827 181.336 180.668 179.574 180.484 178.48C179.899 174.97 177.354 172.525 174.692 170.384C172.705 168.78 170.528 167.333 168.391 166.053C163.532 163.14 158.755 161.094 153.202 160.058C150.883 159.622 150.368 157.659 150.368 155.299Z" fill="url(#paint4_linear)"/>
<path d="M143.888 248.075C86.3221 248.075 39.4875 201.403 39.4875 144.038C39.4875 86.6719 86.3221 40 143.888 40C201.453 40 248.288 86.6719 248.288 144.038C248.288 201.403 201.456 248.075 143.888 248.075ZM143.888 51.48C92.6754 51.48 51.0075 93.0032 51.0075 144.038C51.0075 195.072 92.6754 236.595 143.888 236.595C195.1 236.595 236.768 195.072 236.768 144.038C236.768 93.0032 195.103 51.48 143.888 51.48Z" fill="url(#paint5_linear)"/>
<defs>
<linearGradient id="paint0_linear" x1="167.447" y1="129.846" x2="167.447" y2="94.8041" gradientUnits="userSpaceOnUse">
<stop stop-color="#C433FF"/>
<stop offset="0.2577" stop-color="#D72EF0"/>
<stop offset="0.7304" stop-color="#F425D8"/>
<stop offset="1" stop-color="#FF22CF"/>
</linearGradient>
<linearGradient id="paint1_linear" x1="141.677" y1="190.47" x2="141.677" y2="107.319" gradientUnits="userSpaceOnUse">
<stop stop-color="#C433FF"/>
<stop offset="0.2577" stop-color="#D72EF0"/>
<stop offset="0.7304" stop-color="#F425D8"/>
<stop offset="1" stop-color="#FF22CF"/>
</linearGradient>
<linearGradient id="paint2_linear" x1="143.889" y1="248.075" x2="143.889" y2="40.0003" gradientUnits="userSpaceOnUse">
<stop stop-color="#C433FF"/>
<stop offset="0.2577" stop-color="#D72EF0"/>
<stop offset="0.7304" stop-color="#F425D8"/>
<stop offset="1" stop-color="#FF22CF"/>
</linearGradient>
<linearGradient id="paint3_linear" x1="143.889" y1="248.076" x2="143.889" y2="40.0006" gradientUnits="userSpaceOnUse">
<stop stop-color="#377CB3"/>
<stop offset="1" stop-color="#89CB93"/>
</linearGradient>
<linearGradient id="paint4_linear" x1="143.889" y1="248.075" x2="143.889" y2="40.0004" gradientUnits="userSpaceOnUse">
<stop stop-color="#377CB3"/>
<stop offset="1" stop-color="#89CB93"/>
</linearGradient>
<linearGradient id="paint5_linear" x1="143.889" y1="248.075" x2="143.889" y2="40.0003" gradientUnits="userSpaceOnUse">
<stop stop-color="#377CB3"/>
<stop offset="1" stop-color="#89CB93"/>
</linearGradient>
</defs>
</svg>
