<svg width="288" height="288" viewBox="0 0 288 288" fill="none" xmlns="http://www.w3.org/2000/svg">
<path d="M168.045 121.962C168.866 121.962 169.348 121.893 170.169 121.753C220.652 113.209 234.313 75.9043 238.067 54.4281C238.963 49.3223 237.468 44.1075 234.124 40.1326C230.376 35.6726 224.774 33.3737 218.864 34.1486C191.777 37.6759 160.178 58.1045 152.78 104.84C152.691 105.408 152.627 105.979 152.604 106.55C137.29 89.7635 104.985 62.5415 68.4475 61.3849L67.9739 61.362C67.5119 61.339 67.0067 61.3161 66.6738 61.3161C60.5435 61.3161 54.9269 64.4329 51.6436 69.6563C48.4924 74.6759 48.1365 80.8378 50.6937 86.1358C59.1889 103.758 81.859 133.913 133.548 137.922C135.597 138.086 137.841 139.736 137.841 141.765V170.752C137.841 173.329 135.23 175.493 132.595 175.901C125.81 176.94 119.292 178.725 112.255 181.69C93.2271 189.694 79.0378 202.655 71.5586 219.172C68.4073 226.132 70.4881 233.407 76.8652 237.281C94.9232 248.239 119.754 254.278 146.867 254.278C177.054 254.278 206.411 246.818 223.519 234.81C227.54 231.983 230.183 225.979 229.426 221.433C227.85 211.937 221.444 205.631 214.763 200.236C210.647 196.906 205.949 193.663 200.401 190.325C189.019 183.475 177.677 178.831 165.316 176.518C164.615 176.38 163.671 176.073 163.671 171.774V121.038C163.671 121.632 166.292 121.962 168.045 121.962ZM164.096 106.636C170.505 66.152 197.333 48.5273 220.302 45.5339C220.549 45.5024 220.79 45.4851 221.028 45.4851C222.624 45.4851 224.162 46.2256 225.25 47.52C226.404 48.8947 226.892 50.6942 226.587 52.4535C223.353 70.9449 211.431 103.069 167.904 110.436C166.762 110.634 165.623 110.198 164.857 109.3C164.483 108.863 163.889 107.939 164.096 106.636ZM163.203 187.797C174.216 189.858 184.625 194.016 194.831 200.158C199.848 203.177 204.064 206.202 207.717 209.158C213.403 213.753 217.286 217.918 218.158 223.058C218.124 223.672 217.389 225.047 216.944 225.411C201.902 235.97 174.373 242.795 146.847 242.795C121.804 242.795 99.0359 237.35 82.7487 227.463C81.727 226.843 80.9062 225.982 81.8504 223.907C89.7658 206.429 104.985 197.058 116.362 192.274C122.495 189.691 128.522 188.141 134.337 187.249C142.614 185.975 149.321 179.038 149.321 170.749V141.762C149.321 133.677 142.525 127.108 134.437 126.477C88.4772 122.912 68.812 96.551 61.3873 81.1535C60.2335 78.7628 60.9223 76.7509 61.5423 75.7636C62.7075 73.9096 64.6046 72.7989 66.7571 72.7989C66.9436 72.7989 67.1761 72.8162 67.4315 72.8305L68.7919 72.8621C109.876 74.1564 146.451 113.309 152.191 122.272V171.774C152.191 180.433 155.871 186.422 163.203 187.797Z" fill="url(#paint0_linear)"/>
<defs>
<linearGradient id="paint0_linear" x1="143.662" y1="254.272" x2="143.662" y2="33.9991" gradientUnits="userSpaceOnUse">
<stop offset="0.0112" stop-color="#009B5B"/>
<stop offset="1" stop-color="#9CCE62"/>
</linearGradient>
</defs>
</svg>
