<svg width="288" height="288" viewBox="0 0 288 288" fill="none" xmlns="http://www.w3.org/2000/svg">
<path d="M234.651 223.541L228.563 131.701H236.16V114.481H253.44V82.7416L144 32L34.5601 82.7416V114.481H51.8401V131.701H60.6817L54.5962 223.541H34.5601V255.111H253.44V223.541H234.651ZM223.102 223.541H203.198L209.287 131.701H217.014L223.102 223.541ZM97.5946 223.541L91.5092 131.701H129.194L123.109 223.541H97.5946ZM140.74 131.701H148.47L154.555 223.541H134.654L140.74 131.701ZM166.104 223.541L160.019 131.701H197.741L191.653 223.541H166.104ZM232.923 85.7809H55.201L144.061 44.6596L232.923 85.7809ZM46.0801 97.2609H241.92V103.001H46.0801V97.2609ZM224.64 114.481V120.221H63.3601V114.481H224.64ZM72.2305 131.701H79.9604L86.0458 223.541H66.145L72.2305 131.701ZM241.92 243.631H46.0801V235.021H241.92V243.631Z" fill="url(#paint0_linear)"/>
<defs>
<linearGradient id="paint0_linear" x1="144" y1="297.614" x2="144" y2="-160.547" gradientUnits="userSpaceOnUse">
<stop stop-color="#04468B"/>
<stop offset="0.1742" stop-color="#0561A3"/>
<stop offset="0.5126" stop-color="#0791CE"/>
<stop offset="0.772" stop-color="#09AEE8"/>
<stop offset="0.9194" stop-color="#09B9F2"/>
</linearGradient>
</defs>
</svg>
