<svg width="288" height="288" viewBox="0 0 288 288" fill="none" xmlns="http://www.w3.org/2000/svg">
<path d="M163.237 89.1698L166.189 89.5085L165.846 92.4474C165.477 95.5986 167.744 98.4457 170.903 98.8102C171.128 98.8389 171.353 98.8504 171.574 98.8504C174.457 98.8504 176.946 96.6949 177.285 93.7704L177.628 90.8258L180.583 91.1645C180.808 91.1932 181.029 91.2047 181.251 91.2047C184.134 91.2047 186.625 89.0493 186.962 86.1219C187.328 82.9707 185.064 80.1236 181.902 79.762L178.947 79.4233L179.287 76.4816C179.653 73.3303 177.389 70.4833 174.227 70.1216C171.076 69.7198 168.208 72.0129 167.845 75.1642L167.505 78.106L164.553 77.7673C161.408 77.4 158.534 79.6586 158.171 82.8099C157.814 85.9611 160.077 88.8082 163.237 89.1698Z" fill="url(#paint0_linear)"/>
<path d="M74.9792 59.7091L77.8995 60.243L77.3638 63.156C76.7907 66.2728 78.8614 69.2662 81.9891 69.8345C82.3404 69.8976 82.6889 69.9292 83.0316 69.9292C85.759 69.9292 88.1811 67.9919 88.6909 65.2224L89.2265 62.3093L92.1526 62.8431C92.5011 62.9034 92.8495 62.935 93.1923 62.935C95.9196 62.935 98.3446 60.9949 98.8544 58.2254C99.4246 55.1085 97.3539 52.1179 94.2233 51.5468L91.303 51.0159L91.8387 48.1028C92.4118 44.986 90.3411 41.9926 87.2134 41.4244C84.0656 40.8647 81.0847 42.9196 80.5116 46.0336L79.976 48.9466L77.0499 48.4128C73.9222 47.8618 70.9212 49.911 70.3481 53.0278C69.775 56.1475 71.8486 59.138 74.9792 59.7091Z" fill="url(#paint1_linear)"/>
<path d="M59.3982 71.9091C61.2443 71.7656 62.2638 72.113 64.058 73.416C65.4001 74.3889 66.5262 75.6603 67.2923 76.9862C67.2232 77.058 67.1483 77.1297 67.0734 77.1957C64.8241 79.2076 63.9428 82.3331 64.827 85.1571C65.6679 87.8492 67.9749 89.7519 70.8462 90.1193C73.5678 90.4838 76.3528 89.244 78.0635 86.9136C78.5502 86.2449 78.939 85.5158 79.227 84.7122C79.2788 84.7151 79.3249 84.7209 79.3768 84.7238C82.1041 84.9878 84.6356 86.0439 86.5019 87.6941C87.9044 88.9397 89.0075 90.5355 89.7016 92.2891C87.9678 93.6236 87.3745 95.2882 87.1787 96.2668C86.5508 99.266 88.1493 102.397 91.0005 103.717C92.8926 104.584 95.1073 104.573 97.0888 103.669C98.0709 103.221 98.9406 102.578 99.6635 101.792C100.689 101.895 101.703 102.096 102.687 102.391C105.167 103.135 107.344 104.441 108.986 106.165C112.479 109.845 113.695 115.614 112.272 120.596C108.033 121.925 106.336 125.504 106.889 128.592C107.232 130.563 108.45 132.265 110.224 133.267C112.082 134.315 114.372 134.49 116.339 133.732C118.127 133.055 119.291 131.849 119.999 130.911C122.698 130.672 125.739 130.842 127.104 132.483C127.827 133.359 128.222 134.762 128.155 136.24C128.083 137.85 127.516 139.653 126.476 141.604C124.984 144.405 126.053 147.881 128.861 149.368C129.722 149.821 130.647 150.036 131.559 150.036C133.622 150.036 135.617 148.931 136.654 146.988C138.503 143.521 139.514 140.077 139.667 136.748C139.86 132.377 138.552 128.262 135.983 125.168C132.752 121.273 128.363 119.812 124.201 119.439C125.036 111.845 122.655 103.852 117.352 98.273C114.334 95.0959 110.412 92.7167 106.011 91.3965C104.459 90.9315 102.863 90.6015 101.21 90.4121C100.006 86.0698 97.5668 82.135 94.1598 79.1158C90.4849 75.8583 85.6293 73.7947 80.4856 73.2954C79.7483 73.2265 79.0081 73.1863 78.291 73.172C76.5342 69.3089 73.6139 66.1434 70.8491 64.1373C68.0036 62.0709 64.3489 59.9987 58.5313 60.4608C55.3576 60.7018 52.9816 63.457 53.2235 66.6198C53.4597 69.7796 56.21 72.1474 59.3982 71.9091Z" fill="url(#paint2_linear)"/>
<path d="M178.431 105.351C178.307 105.586 178.186 105.828 178.068 106.074C177.406 106.221 176.726 106.404 176.038 106.634C169.978 108.637 164.832 113.031 161.914 118.688C159.973 122.448 159.063 126.678 159.222 130.88C157.836 131.58 156.566 132.464 155.46 133.509C152.52 136.284 150.587 139.602 148.877 142.529C147.275 145.27 148.208 148.783 150.959 150.376C151.869 150.907 152.865 151.153 153.85 151.153C155.832 151.153 157.764 150.135 158.833 148.301C160.201 145.962 161.494 143.743 163.098 142.119C163.593 142.615 164.166 143.083 164.838 143.491C166.931 144.75 169.569 145.012 171.888 144.197C174.054 143.427 175.727 141.789 176.487 139.682C177.662 136.39 176.366 132.653 173.325 130.598C172.542 130.068 171.683 129.666 170.736 129.393C170.814 127.493 171.292 125.599 172.153 123.934C173.44 121.437 175.635 119.337 178.195 118.108C178.705 118.915 179.324 119.589 180.047 120.149C182.552 122.103 185.962 122.221 188.523 120.485C191.406 118.524 192.396 114.57 190.876 111.163C190.501 110.331 190.035 109.464 189.482 108.809C190.354 107.174 191.149 107.372 191.99 106.336C193.26 107.122 194.726 108.873 196.232 108.873C196.241 108.873 196.247 108.873 196.247 108.873C198.407 108.873 200.478 106.625 201.938 105.004C203.337 103.445 204.017 100.977 203.798 98.928C203.597 97.1228 202.704 95.0163 201.362 93.7908C202.145 93.1048 203.11 92.3069 204.181 91.9281C206.874 90.9695 210.295 90.8261 214.638 91.7387C217.763 92.3759 220.805 90.3439 221.458 87.2414C222.109 84.1389 220.113 81.068 217 80.4166C210.523 79.0705 205.06 79.214 200.305 80.9073C194.32 83.0368 189.813 87.7293 188.318 93.2082C183.226 96.0437 180.528 101.273 178.431 105.351Z" fill="url(#paint3_linear)"/>
<path d="M126.2 73.8782C129.132 74.412 131.669 73.1406 133.046 72.2251C136.341 74.3547 138.702 78.0684 139.042 81.8797C136.122 81.6788 133.276 82.7322 131.375 84.7986C128.458 87.9642 128.334 93.024 131.09 96.3216C133.507 99.2174 136.954 100.337 140.327 99.295C141.412 98.9621 142.417 98.4196 143.333 97.7366C146.254 100.845 147.423 103.695 147.431 107.236C147.437 110.683 146.475 114.532 144.399 119.348C143.143 122.264 144.497 125.636 147.42 126.887C148.163 127.203 148.932 127.355 149.689 127.355C151.921 127.355 154.05 126.052 154.986 123.877C157.699 117.574 158.96 112.279 158.951 107.216C158.931 98.4138 154.703 92.4959 149.799 87.9499C150.19 86.776 150.421 85.7456 150.49 85.0109C151.294 76.731 147.359 68.6376 140.923 63.7127C144.782 57.746 146.867 50.6054 146.614 43.5366C146.498 40.3681 143.811 37.8597 140.649 38.0061C137.47 38.1209 134.987 40.7814 135.099 43.9499C135.295 49.3656 133.438 54.8473 130.094 59.1379C128.57 58.9542 126.623 58.9886 124.633 59.9731C122.707 60.9374 121.244 62.668 120.622 64.7287C120.034 66.6717 120.256 68.6864 121.249 70.4084C122.309 72.2337 124.112 73.4994 126.2 73.8782Z" fill="url(#paint4_linear)"/>
<path d="M85.3726 121.199C88.207 121.199 90.5048 118.909 90.5048 116.085C90.5048 113.26 88.207 110.97 85.3726 110.97C82.5382 110.97 80.2405 113.26 80.2405 116.085C80.2405 118.909 82.5382 121.199 85.3726 121.199Z" fill="url(#paint5_linear)"/>
<path d="M111.293 86.7592C114.127 86.7592 116.425 84.4695 116.425 81.6449C116.425 78.8203 114.127 76.5305 111.293 76.5305C108.458 76.5305 106.16 78.8203 106.16 81.6449C106.16 84.4695 108.458 86.7592 111.293 86.7592Z" fill="url(#paint6_linear)"/>
<path d="M212.09 121.199C214.924 121.199 217.222 118.909 217.222 116.085C217.222 113.26 214.924 110.97 212.09 110.97C209.255 110.97 206.958 113.26 206.958 116.085C206.958 118.909 209.255 121.199 212.09 121.199Z" fill="url(#paint7_linear)"/>
<path d="M145.853 167.119C148.687 167.119 150.985 164.829 150.985 162.005C150.985 159.18 148.687 156.89 145.853 156.89C143.018 156.89 140.72 159.18 140.72 162.005C140.72 164.829 143.018 167.119 145.853 167.119Z" fill="url(#paint8_linear)"/>
<path d="M235.395 104.246L225.157 96.3334C222.605 94.4478 219.224 94.9788 217.329 97.5245C215.434 100.07 216.082 103.666 218.639 105.555L229.396 113.467C230.514 114.294 231.547 115.244 232.432 116.286L145.574 179.959L58.4681 116.291C59.358 115.25 60.3689 114.3 61.4892 113.473L75.0598 103.488C77.6201 101.606 78.1587 98.0124 76.2694 95.461C74.383 92.9153 70.7743 92.3671 68.214 94.2555L54.3497 104.24C46.8012 109.794 42.0002 118.694 42.0002 128.044V225.429C42.0002 237.17 52.181 249.503 63.966 249.503H226.945C238.727 249.503 246.48 237.17 246.48 225.426V128.012C246.48 118.685 242.909 109.8 235.395 104.246ZM234.96 128.012V225.426C234.96 226.324 234.923 227.538 234.923 227.538L170.849 175.347L235.611 127.384C235.62 127.593 234.96 127.8 234.96 128.012ZM119.691 175.267L53.3964 228.635C53.3964 227.891 53.5202 128.044 53.5202 128.044C53.5202 127.817 53.8486 127.594 53.8572 127.367L119.691 175.267ZM62.1602 238.023L129.296 182.982L140.378 190.733L140.64 190.742C142.144 191.718 143.866 192.117 145.588 192.117C147.313 192.117 149.033 191.586 150.539 190.61L161.719 182.393L228.843 238.02C228.843 238.02 62.2034 238.023 62.1602 238.023Z" fill="url(#paint9_linear)"/>
<path d="M163.237 89.1698L166.189 89.5085L165.846 92.4474C165.478 95.5986 167.744 98.4457 170.904 98.8102C171.128 98.8389 171.353 98.8504 171.575 98.8504C174.457 98.8504 176.946 96.6949 177.286 93.7704L177.628 90.8258L180.583 91.1645C180.808 91.1932 181.03 91.2047 181.251 91.2047C184.134 91.2047 186.625 89.0493 186.962 86.1219C187.328 82.9707 185.064 80.1236 181.902 79.762L178.947 79.4233L179.287 76.4816C179.653 73.3303 177.389 70.4833 174.227 70.1216C171.076 69.7198 168.208 72.0129 167.845 75.1642L167.505 78.106L164.553 77.7673C161.408 77.4 158.534 79.6586 158.171 82.8099C157.814 85.9611 160.078 88.8082 163.237 89.1698Z" fill="url(#paint10_linear)"/>
<path d="M74.9794 59.7091L77.8997 60.243L77.3641 63.156C76.7909 66.2728 78.8616 69.2662 81.9893 69.8345C82.3407 69.8976 82.6891 69.9292 83.0319 69.9292C85.7592 69.9292 88.1813 67.9919 88.6911 65.2224L89.2268 62.3093L92.1529 62.8431C92.5013 62.9034 92.8498 62.935 93.1925 62.935C95.9199 62.935 98.3448 60.9949 98.8546 58.2254C99.4248 55.1085 97.3541 52.1179 94.2236 51.5468L91.3033 51.0159L91.8389 48.1028C92.412 44.986 90.3413 41.9926 87.2137 41.4244C84.0658 40.8647 81.085 42.9196 80.5119 46.0336L79.9762 48.9466L77.0501 48.4128C73.9224 47.8618 70.9215 49.911 70.3484 53.0278C69.7753 56.1475 71.8489 59.138 74.9794 59.7091Z" fill="url(#paint11_linear)"/>
<path d="M59.3982 71.9091C61.2443 71.7656 62.2638 72.113 64.058 73.416C65.4001 74.3889 66.5262 75.6603 67.2923 76.9862C67.2232 77.058 67.1483 77.1297 67.0734 77.1957C64.8241 79.2076 63.9428 82.3331 64.827 85.1571C65.6679 87.8492 67.9749 89.7519 70.8462 90.1193C73.5678 90.4838 76.3528 89.244 78.0635 86.9136C78.5502 86.2449 78.939 85.5158 79.227 84.7122C79.2788 84.7151 79.3249 84.7209 79.3768 84.7238C82.1041 84.9878 84.6356 86.0439 86.5019 87.6941C87.9044 88.9397 89.0075 90.5355 89.7016 92.2891C87.9678 93.6236 87.3745 95.2882 87.1787 96.2668C86.5508 99.266 88.1493 102.397 91.0005 103.717C92.8926 104.584 95.1073 104.573 97.0888 103.669C98.0709 103.221 98.9406 102.578 99.6635 101.792C100.689 101.895 101.703 102.096 102.687 102.391C105.167 103.135 107.344 104.441 108.986 106.165C112.479 109.845 113.695 115.614 112.272 120.596C108.033 121.925 106.336 125.504 106.889 128.592C107.232 130.563 108.45 132.265 110.224 133.267C112.082 134.315 114.372 134.49 116.339 133.732C118.127 133.055 119.291 131.849 119.999 130.911C122.698 130.672 125.739 130.842 127.104 132.483C127.827 133.359 128.222 134.762 128.155 136.24C128.083 137.85 127.516 139.653 126.476 141.604C124.984 144.405 126.053 147.881 128.861 149.368C129.722 149.821 130.647 150.036 131.559 150.036C133.622 150.036 135.617 148.931 136.654 146.988C138.503 143.521 139.514 140.077 139.667 136.748C139.86 132.377 138.552 128.262 135.983 125.168C132.752 121.273 128.363 119.812 124.201 119.439C125.036 111.845 122.655 103.852 117.352 98.273C114.334 95.0959 110.412 92.7167 106.011 91.3965C104.459 90.9315 102.863 90.6015 101.21 90.4121C100.006 86.0698 97.5668 82.135 94.1598 79.1158C90.4849 75.8583 85.6293 73.7947 80.4856 73.2954C79.7483 73.2265 79.0081 73.1863 78.291 73.172C76.5342 69.3089 73.6139 66.1434 70.8491 64.1373C68.0036 62.0709 64.3489 59.9987 58.5313 60.4608C55.3576 60.7018 52.9816 63.457 53.2235 66.6198C53.4597 69.7796 56.21 72.1474 59.3982 71.9091Z" fill="url(#paint12_linear)"/>
<path d="M178.431 105.351C178.307 105.586 178.186 105.828 178.068 106.074C177.406 106.221 176.726 106.404 176.038 106.634C169.978 108.637 164.832 113.031 161.914 118.688C159.973 122.448 159.063 126.678 159.222 130.88C157.836 131.58 156.566 132.464 155.46 133.509C152.52 136.284 150.587 139.602 148.877 142.529C147.275 145.27 148.208 148.783 150.959 150.376C151.869 150.907 152.865 151.153 153.85 151.153C155.832 151.153 157.764 150.135 158.833 148.301C160.201 145.962 161.494 143.743 163.098 142.119C163.593 142.615 164.166 143.083 164.838 143.491C166.931 144.75 169.569 145.012 171.888 144.197C174.054 143.427 175.727 141.789 176.487 139.682C177.662 136.39 176.366 132.653 173.325 130.598C172.542 130.068 171.683 129.666 170.736 129.393C170.814 127.493 171.292 125.599 172.153 123.934C173.44 121.437 175.635 119.337 178.195 118.108C178.705 118.915 179.324 119.589 180.047 120.149C182.552 122.103 185.962 122.221 188.523 120.485C191.406 118.524 192.396 114.57 190.876 111.163C190.501 110.331 190.035 109.464 189.482 108.809C190.354 107.174 191.149 107.372 191.99 106.336C193.26 107.122 194.726 108.873 196.232 108.873C196.241 108.873 196.247 108.873 196.247 108.873C198.407 108.873 200.478 106.625 201.938 105.004C203.337 103.445 204.017 100.977 203.798 98.928C203.597 97.1228 202.704 95.0163 201.362 93.7908C202.145 93.1048 203.11 92.3069 204.181 91.9281C206.874 90.9695 210.295 90.8261 214.638 91.7387C217.763 92.3759 220.805 90.3439 221.458 87.2414C222.109 84.1389 220.113 81.068 217 80.4166C210.523 79.0705 205.06 79.214 200.305 80.9073C194.32 83.0368 189.813 87.7293 188.318 93.2082C183.226 96.0437 180.528 101.273 178.431 105.351Z" fill="url(#paint13_linear)"/>
<path d="M126.2 73.8782C129.132 74.412 131.669 73.1406 133.046 72.2251C136.341 74.3547 138.702 78.0684 139.042 81.8797C136.122 81.6788 133.277 82.7322 131.376 84.7986C128.458 87.9642 128.334 93.024 131.091 96.3216C133.507 99.2174 136.954 100.337 140.327 99.295C141.413 98.9621 142.418 98.4196 143.333 97.7366C146.254 100.845 147.423 103.695 147.432 107.236C147.437 110.683 146.476 114.532 144.399 119.348C143.143 122.264 144.497 125.636 147.42 126.887C148.163 127.203 148.932 127.355 149.69 127.355C151.922 127.355 154.05 126.052 154.986 123.877C157.699 117.574 158.96 112.279 158.952 107.216C158.932 98.4138 154.704 92.4959 149.799 87.9499C150.191 86.776 150.421 85.7456 150.49 85.0109C151.294 76.731 147.36 68.6376 140.923 63.7127C144.782 57.746 146.867 50.6054 146.614 43.5366C146.499 40.3681 143.812 37.8597 140.649 38.0061C137.47 38.1209 134.987 40.7814 135.1 43.9499C135.295 49.3656 133.438 54.8473 130.094 59.1379C128.571 58.9542 126.624 58.9886 124.634 59.9731C122.707 60.9374 121.244 62.668 120.622 64.7287C120.034 66.6717 120.256 68.6864 121.25 70.4084C122.309 72.2337 124.112 73.4994 126.2 73.8782Z" fill="url(#paint14_linear)"/>
<path d="M85.3726 121.199C88.207 121.199 90.5048 118.909 90.5048 116.085C90.5048 113.26 88.207 110.97 85.3726 110.97C82.5382 110.97 80.2405 113.26 80.2405 116.085C80.2405 118.909 82.5382 121.199 85.3726 121.199Z" fill="url(#paint15_linear)"/>
<path d="M111.293 86.7592C114.127 86.7592 116.425 84.4695 116.425 81.6449C116.425 78.8203 114.127 76.5305 111.293 76.5305C108.458 76.5305 106.161 78.8203 106.161 81.6449C106.161 84.4695 108.458 86.7592 111.293 86.7592Z" fill="url(#paint16_linear)"/>
<path d="M212.09 121.199C214.924 121.199 217.222 118.909 217.222 116.085C217.222 113.26 214.924 110.97 212.09 110.97C209.256 110.97 206.958 113.26 206.958 116.085C206.958 118.909 209.256 121.199 212.09 121.199Z" fill="url(#paint17_linear)"/>
<path d="M145.853 167.119C148.687 167.119 150.985 164.829 150.985 162.005C150.985 159.18 148.687 156.89 145.853 156.89C143.018 156.89 140.72 159.18 140.72 162.005C140.72 164.829 143.018 167.119 145.853 167.119Z" fill="url(#paint18_linear)"/>
<defs>
<linearGradient id="paint0_linear" x1="172.567" y1="98.8504" x2="172.567" y2="70.076" gradientUnits="userSpaceOnUse">
<stop stop-color="#C433FF"/>
<stop offset="0.2577" stop-color="#D72EF0"/>
<stop offset="0.7304" stop-color="#F425D8"/>
<stop offset="1" stop-color="#FF22CF"/>
</linearGradient>
<linearGradient id="paint1_linear" x1="84.601" y1="69.9292" x2="84.601" y2="41.3325" gradientUnits="userSpaceOnUse">
<stop stop-color="#C433FF"/>
<stop offset="0.2577" stop-color="#D72EF0"/>
<stop offset="0.7304" stop-color="#F425D8"/>
<stop offset="1" stop-color="#FF22CF"/>
</linearGradient>
<linearGradient id="paint2_linear" x1="96.446" y1="150.036" x2="96.446" y2="60.3956" gradientUnits="userSpaceOnUse">
<stop stop-color="#C433FF"/>
<stop offset="0.2577" stop-color="#D72EF0"/>
<stop offset="0.7304" stop-color="#F425D8"/>
<stop offset="1" stop-color="#FF22CF"/>
</linearGradient>
<linearGradient id="paint3_linear" x1="184.837" y1="151.153" x2="184.837" y2="79.5096" gradientUnits="userSpaceOnUse">
<stop stop-color="#C433FF"/>
<stop offset="0.2577" stop-color="#D72EF0"/>
<stop offset="0.7304" stop-color="#F425D8"/>
<stop offset="1" stop-color="#FF22CF"/>
</linearGradient>
<linearGradient id="paint4_linear" x1="139.626" y1="127.355" x2="139.626" y2="37.9998" gradientUnits="userSpaceOnUse">
<stop stop-color="#C433FF"/>
<stop offset="0.2577" stop-color="#D72EF0"/>
<stop offset="0.7304" stop-color="#F425D8"/>
<stop offset="1" stop-color="#FF22CF"/>
</linearGradient>
<linearGradient id="paint5_linear" x1="85.3726" y1="121.199" x2="85.3726" y2="110.97" gradientUnits="userSpaceOnUse">
<stop stop-color="#C433FF"/>
<stop offset="0.2577" stop-color="#D72EF0"/>
<stop offset="0.7304" stop-color="#F425D8"/>
<stop offset="1" stop-color="#FF22CF"/>
</linearGradient>
<linearGradient id="paint6_linear" x1="111.293" y1="86.7592" x2="111.293" y2="76.5305" gradientUnits="userSpaceOnUse">
<stop stop-color="#C433FF"/>
<stop offset="0.2577" stop-color="#D72EF0"/>
<stop offset="0.7304" stop-color="#F425D8"/>
<stop offset="1" stop-color="#FF22CF"/>
</linearGradient>
<linearGradient id="paint7_linear" x1="212.09" y1="121.199" x2="212.09" y2="110.97" gradientUnits="userSpaceOnUse">
<stop stop-color="#C433FF"/>
<stop offset="0.2577" stop-color="#D72EF0"/>
<stop offset="0.7304" stop-color="#F425D8"/>
<stop offset="1" stop-color="#FF22CF"/>
</linearGradient>
<linearGradient id="paint8_linear" x1="145.853" y1="167.119" x2="145.853" y2="156.89" gradientUnits="userSpaceOnUse">
<stop stop-color="#C433FF"/>
<stop offset="0.2577" stop-color="#D72EF0"/>
<stop offset="0.7304" stop-color="#F425D8"/>
<stop offset="1" stop-color="#FF22CF"/>
</linearGradient>
<linearGradient id="paint9_linear" x1="144.24" y1="249.503" x2="144.24" y2="37.9967" gradientUnits="userSpaceOnUse">
<stop stop-color="#04468B"/>
<stop offset="0.1742" stop-color="#0561A3"/>
<stop offset="0.5126" stop-color="#0791CE"/>
<stop offset="0.772" stop-color="#09AEE8"/>
<stop offset="0.9194" stop-color="#09B9F2"/>
</linearGradient>
<linearGradient id="paint10_linear" x1="172.568" y1="249.503" x2="172.568" y2="37.9966" gradientUnits="userSpaceOnUse">
<stop stop-color="#04468B"/>
<stop offset="0.1742" stop-color="#0561A3"/>
<stop offset="0.5126" stop-color="#0791CE"/>
<stop offset="0.772" stop-color="#09AEE8"/>
<stop offset="0.9194" stop-color="#09B9F2"/>
</linearGradient>
<linearGradient id="paint11_linear" x1="84.6012" y1="249.502" x2="84.6012" y2="37.9964" gradientUnits="userSpaceOnUse">
<stop stop-color="#04468B"/>
<stop offset="0.1742" stop-color="#0561A3"/>
<stop offset="0.5126" stop-color="#0791CE"/>
<stop offset="0.772" stop-color="#09AEE8"/>
<stop offset="0.9194" stop-color="#09B9F2"/>
</linearGradient>
<linearGradient id="paint12_linear" x1="96.446" y1="249.502" x2="96.446" y2="37.9961" gradientUnits="userSpaceOnUse">
<stop stop-color="#04468B"/>
<stop offset="0.1742" stop-color="#0561A3"/>
<stop offset="0.5126" stop-color="#0791CE"/>
<stop offset="0.772" stop-color="#09AEE8"/>
<stop offset="0.9194" stop-color="#09B9F2"/>
</linearGradient>
<linearGradient id="paint13_linear" x1="184.837" y1="249.503" x2="184.837" y2="37.9968" gradientUnits="userSpaceOnUse">
<stop stop-color="#04468B"/>
<stop offset="0.1742" stop-color="#0561A3"/>
<stop offset="0.5126" stop-color="#0791CE"/>
<stop offset="0.772" stop-color="#09AEE8"/>
<stop offset="0.9194" stop-color="#09B9F2"/>
</linearGradient>
<linearGradient id="paint14_linear" x1="139.626" y1="249.502" x2="139.626" y2="37.9963" gradientUnits="userSpaceOnUse">
<stop stop-color="#04468B"/>
<stop offset="0.1742" stop-color="#0561A3"/>
<stop offset="0.5126" stop-color="#0791CE"/>
<stop offset="0.772" stop-color="#09AEE8"/>
<stop offset="0.9194" stop-color="#09B9F2"/>
</linearGradient>
<linearGradient id="paint15_linear" x1="85.3726" y1="249.502" x2="85.3726" y2="37.9968" gradientUnits="userSpaceOnUse">
<stop stop-color="#04468B"/>
<stop offset="0.1742" stop-color="#0561A3"/>
<stop offset="0.5126" stop-color="#0791CE"/>
<stop offset="0.772" stop-color="#09AEE8"/>
<stop offset="0.9194" stop-color="#09B9F2"/>
</linearGradient>
<linearGradient id="paint16_linear" x1="111.293" y1="249.502" x2="111.293" y2="37.9968" gradientUnits="userSpaceOnUse">
<stop stop-color="#04468B"/>
<stop offset="0.1742" stop-color="#0561A3"/>
<stop offset="0.5126" stop-color="#0791CE"/>
<stop offset="0.772" stop-color="#09AEE8"/>
<stop offset="0.9194" stop-color="#09B9F2"/>
</linearGradient>
<linearGradient id="paint17_linear" x1="212.09" y1="249.502" x2="212.09" y2="37.9968" gradientUnits="userSpaceOnUse">
<stop stop-color="#04468B"/>
<stop offset="0.1742" stop-color="#0561A3"/>
<stop offset="0.5126" stop-color="#0791CE"/>
<stop offset="0.772" stop-color="#09AEE8"/>
<stop offset="0.9194" stop-color="#09B9F2"/>
</linearGradient>
<linearGradient id="paint18_linear" x1="145.853" y1="249.502" x2="145.853" y2="37.9967" gradientUnits="userSpaceOnUse">
<stop stop-color="#04468B"/>
<stop offset="0.1742" stop-color="#0561A3"/>
<stop offset="0.5126" stop-color="#0791CE"/>
<stop offset="0.772" stop-color="#09AEE8"/>
<stop offset="0.9194" stop-color="#09B9F2"/>
</linearGradient>
</defs>
</svg>
