<svg width="288" height="288" viewBox="0 0 288 288" fill="none" xmlns="http://www.w3.org/2000/svg">
<path d="M144.061 247.348C86.4951 247.348 39.6605 200.514 39.6605 142.948C39.6605 85.3829 86.4951 38.5483 144.061 38.5483C201.626 38.5483 248.461 85.3829 248.461 142.948C248.461 200.514 201.626 247.348 144.061 247.348ZM144.061 50.0683C92.8484 50.0683 51.1805 91.7362 51.1805 142.948C51.1805 194.16 92.8484 235.828 144.061 235.828C195.273 235.828 236.941 194.16 236.941 142.948C236.941 91.7362 195.273 50.0683 144.061 50.0683Z" fill="url(#paint0_linear)"/>
<path d="M148.951 89.4783L163.175 118.298C163.878 119.721 165.234 120.706 166.804 120.937L198.608 125.559C202.562 126.132 204.14 130.993 201.28 133.781L178.266 156.214C177.132 157.322 176.61 158.918 176.881 160.482L182.313 192.156C182.99 196.093 178.854 199.097 175.317 197.236L146.872 182.281C145.466 181.543 143.79 181.543 142.384 182.281L113.939 197.236C110.402 199.097 106.269 196.093 106.943 192.156L112.375 160.482C112.643 158.918 112.124 157.322 110.99 156.214L87.9755 133.781C85.1157 130.993 86.6939 126.135 90.6482 125.559L122.452 120.937C124.022 120.709 125.378 119.721 126.081 118.298L140.305 89.4783C142.073 85.8956 147.183 85.8956 148.951 89.4783Z" fill="url(#paint1_linear)"/>
<path d="M144.061 247.348C86.4951 247.348 39.6605 200.514 39.6605 142.948C39.6605 85.3829 86.4951 38.5483 144.061 38.5483C201.626 38.5483 248.461 85.3829 248.461 142.948C248.461 200.514 201.626 247.348 144.061 247.348ZM144.061 50.0683C92.8484 50.0683 51.1805 91.7362 51.1805 142.948C51.1805 194.16 92.8484 235.828 144.061 235.828C195.273 235.828 236.941 194.16 236.941 142.948C236.941 91.7362 195.273 50.0683 144.061 50.0683Z" fill="url(#paint2_linear)"/>
<path d="M148.951 89.4783L163.175 118.298C163.878 119.721 165.234 120.706 166.804 120.937L198.608 125.559C202.562 126.132 204.14 130.993 201.28 133.781L178.266 156.214C177.132 157.322 176.61 158.918 176.881 160.482L182.313 192.156C182.99 196.093 178.854 199.097 175.317 197.236L146.872 182.281C145.466 181.543 143.79 181.543 142.384 182.281L113.939 197.236C110.402 199.097 106.269 196.093 106.943 192.156L112.375 160.482C112.643 158.918 112.124 157.322 110.99 156.214L87.9755 133.781C85.1157 130.993 86.6939 126.135 90.6482 125.559L122.452 120.937C124.022 120.709 125.378 119.721 126.081 118.298L140.305 89.4783C142.073 85.8956 147.183 85.8956 148.951 89.4783Z" fill="url(#paint3_linear)"/>
<defs>
<linearGradient id="paint0_linear" x1="144.061" y1="247.349" x2="144.061" y2="38.5486" gradientUnits="userSpaceOnUse">
<stop stop-color="#C433FF"/>
<stop offset="0.2577" stop-color="#D72EF0"/>
<stop offset="0.7304" stop-color="#F425D8"/>
<stop offset="1" stop-color="#FF22CF"/>
</linearGradient>
<linearGradient id="paint1_linear" x1="144.628" y1="197.797" x2="144.628" y2="86.7904" gradientUnits="userSpaceOnUse">
<stop stop-color="#C433FF"/>
<stop offset="0.2577" stop-color="#D72EF0"/>
<stop offset="0.7304" stop-color="#F425D8"/>
<stop offset="1" stop-color="#FF22CF"/>
</linearGradient>
<linearGradient id="paint2_linear" x1="144.061" y1="247.349" x2="144.061" y2="38.5486" gradientUnits="userSpaceOnUse">
<stop stop-color="#377CB3"/>
<stop offset="1" stop-color="#89CB93"/>
</linearGradient>
<linearGradient id="paint3_linear" x1="144.061" y1="247.349" x2="144.061" y2="38.5487" gradientUnits="userSpaceOnUse">
<stop stop-color="#377CB3"/>
<stop offset="1" stop-color="#89CB93"/>
</linearGradient>
</defs>
</svg>
