<svg width="288" height="256" viewBox="0 0 288 256" fill="none" xmlns="http://www.w3.org/2000/svg">
<path fill-rule="evenodd" clip-rule="evenodd" d="M233.212 80.3283L233.213 80.3354C235.042 87.204 236.112 98.7668 236.664 109.494C236.93 114.675 237.064 119.366 237.131 122.763C237.165 124.458 237.181 125.825 237.189 126.76C237.194 127.228 237.196 127.587 237.197 127.826C237.197 127.945 237.197 128.034 237.197 128.091L237.197 128.153L237.198 128.164V128.164V128.165V128.166V128.167L237.197 128.178L237.197 128.239C237.197 128.297 237.197 128.385 237.197 128.505C237.196 128.743 237.194 129.103 237.189 129.57C237.181 130.506 237.165 131.872 237.131 133.568C237.064 136.965 236.93 141.656 236.664 146.836C236.112 157.563 235.042 169.126 233.213 175.995L233.212 176.002C231.971 180.671 228.299 184.35 223.316 185.691L223.309 185.693C220.493 186.452 214.415 187.231 205.839 187.86C197.611 188.464 188.041 188.873 178.868 189.147C169.715 189.421 161.055 189.558 154.677 189.627C151.491 189.661 148.88 189.678 147.069 189.687C146.164 189.691 145.459 189.693 144.983 189.694C144.744 189.695 144.563 189.695 144.443 189.695L144.308 189.695L144.275 189.695H144.268H144.267H144.265H144.258L144.226 189.695L144.091 189.695C143.97 189.695 143.789 189.695 143.551 189.694C143.074 189.693 142.369 189.691 141.464 189.687C139.653 189.678 137.042 189.661 133.856 189.627C127.479 189.558 118.819 189.421 109.665 189.147C100.492 188.873 90.9224 188.464 82.6948 187.86C74.1184 187.231 68.0401 186.452 65.2247 185.693L65.2173 185.691C60.2343 184.35 56.562 180.671 55.3219 176.002L55.32 175.995C53.4915 169.126 52.4216 157.563 51.8695 146.836C51.6029 141.656 51.4692 136.965 51.4023 133.568C51.3689 131.872 51.3523 130.506 51.344 129.57C51.3399 129.103 51.3379 128.743 51.3369 128.505C51.3364 128.385 51.3362 128.297 51.336 128.239L51.3359 128.178L51.3359 128.167V128.166L51.3359 128.165V128.165L51.3359 128.164V128.164L51.3359 128.153L51.336 128.091C51.3362 128.034 51.3364 127.945 51.3369 127.826C51.3379 127.587 51.3399 127.228 51.344 126.76C51.3523 125.825 51.3689 124.458 51.4023 122.763C51.4692 119.366 51.6029 114.675 51.8695 109.494C52.4216 98.7668 53.4915 87.204 55.32 80.3354L55.3219 80.3283C56.6185 75.4464 60.4499 71.6229 65.2177 70.3401L65.2247 70.3382C68.0401 69.579 74.1184 68.8005 82.6948 68.1708C90.9224 67.5667 100.492 67.1582 109.665 66.8839C118.819 66.6102 127.479 66.473 133.856 66.4044C137.042 66.3701 139.653 66.353 141.464 66.3444C142.369 66.3402 143.074 66.338 143.551 66.337C143.789 66.3364 143.97 66.3362 144.091 66.3361L144.226 66.3359L144.258 66.3359L144.265 66.3359H144.267H144.267H144.268L144.275 66.3359L144.308 66.3359L144.443 66.3361C144.563 66.3362 144.744 66.3364 144.983 66.337C145.459 66.338 146.164 66.3402 147.069 66.3444C148.88 66.353 151.491 66.3701 154.677 66.4044C161.055 66.473 169.715 66.6102 178.868 66.8839C188.042 67.1582 197.611 67.5667 205.839 68.1708C214.415 68.8005 220.493 69.579 223.309 70.3382L223.316 70.3402C228.083 71.6227 231.915 75.446 233.212 80.3283ZM245.134 179.168C249.533 162.643 249.533 128.165 249.533 128.165C249.533 128.165 249.533 93.687 245.134 77.1619C242.713 68.0448 235.579 60.8646 226.521 58.4278C210.102 54 144.267 54 144.267 54C144.267 54 78.4314 54 62.0127 58.4278C52.9546 60.8649 45.8206 68.0448 43.3993 77.1619C39 93.687 39 128.165 39 128.165C39 128.165 39 162.643 43.3993 179.168C45.8206 188.285 52.9546 195.167 62.0127 197.603C78.4314 202.031 144.267 202.031 144.267 202.031C144.267 202.031 210.102 202.031 226.521 197.603C235.579 195.167 242.713 188.285 245.134 179.168ZM125.785 91.5005C123.875 90.4143 121.533 90.4255 119.634 91.5298C117.735 92.6341 116.567 94.665 116.567 96.8616V159.469C116.567 161.665 117.735 163.696 119.634 164.8C121.532 165.905 123.875 165.916 125.785 164.83L180.81 133.527C182.738 132.431 183.928 130.384 183.928 128.166C183.928 125.948 182.738 123.901 180.81 122.805L125.785 91.5005ZM128.903 148.864V107.467L165.287 128.166L128.903 148.864Z" fill="url(#paint0_linear)"/>
<defs>
<linearGradient id="paint0_linear" x1="144.266" y1="202.034" x2="144.266" y2="54.001" gradientUnits="userSpaceOnUse">
<stop stop-color="#04468B"/>
<stop offset="0.1742" stop-color="#0561A3"/>
<stop offset="0.5126" stop-color="#0791CE"/>
<stop offset="0.772" stop-color="#09AEE8"/>
<stop offset="0.9194" stop-color="#09B9F2"/>
</linearGradient>
</defs>
</svg>
