<?xml version="1.0" standalone="no"?>
<!DOCTYPE svg PUBLIC "-//W3C//DTD SVG 20010904//EN"
 "http://www.w3.org/TR/2001/REC-SVG-20010904/DTD/svg10.dtd">
<svg version="1.0" xmlns="http://www.w3.org/2000/svg"
 width="512.000000pt" height="512.000000pt" viewBox="0 0 512.000000 512.000000"
 preserveAspectRatio="xMidYMid meet">
<metadata>
Created by potrace 1.16, written by Peter Selinger 2001-2019
</metadata>
<g transform="translate(0.000000,512.000000) scale(0.100000,-0.100000)"
fill="#618983" stroke="none">
<path d="M0 4510 l0 -150 305 0 305 0 0 -300 0 -300 -305 0 -305 0 0 -449 0
-449 248 -4 c277 -3 291 -7 335 -78 22 -35 22 -36 25 -723 l3 -687 -21 0 c-30
0 -160 45 -223 76 -29 15 -83 47 -120 71 -65 43 -69 45 -82 27 -7 -11 -47 -64
-89 -119 -42 -55 -76 -104 -76 -110 0 -15 170 -122 267 -167 46 -22 128 -51
181 -64 87 -23 111 -25 227 -21 95 4 149 11 200 27 96 30 234 98 330 162 l80
54 80 -54 c98 -65 235 -132 335 -163 65 -21 95 -24 225 -24 137 1 157 3 235
29 99 33 228 97 324 161 36 25 71 45 76 45 5 0 47 -24 92 -54 109 -70 203
-117 308 -152 78 -26 97 -28 235 -29 130 0 160 3 225 24 100 31 237 98 335
163 l80 54 80 -54 c96 -64 234 -132 330 -162 51 -16 105 -23 200 -27 116 -4
140 -2 227 21 53 13 135 42 181 64 93 44 267 152 267 166 0 7 -135 194 -176
245 -2 2 -34 -17 -71 -42 -37 -24 -91 -56 -120 -71 -63 -31 -193 -76 -223 -76
l-21 0 3 687 c3 668 4 689 23 721 11 18 36 43 55 55 33 21 49 22 283 25 l247
4 0 449 0 449 -305 0 -305 0 0 300 0 300 305 0 305 0 0 150 0 150 -2560 0
-2560 0 0 -150z m1510 -450 l0 -300 -300 0 -300 0 0 300 0 300 300 0 300 0 0
-300z m900 0 l0 -300 -300 0 -300 0 0 300 0 300 300 0 300 0 0 -300z m900 0
l0 -300 -300 0 -300 0 0 300 0 300 300 0 300 0 0 -300z m900 0 l0 -300 -300 0
-300 0 0 300 0 300 300 0 300 0 0 -300z m610 -749 l0 -149 -142 -4 c-139 -3
-145 -4 -213 -37 -92 -45 -171 -124 -216 -216 l-34 -70 -5 -698 -5 -698 -80
50 c-44 27 -110 75 -147 105 l-67 56 -3 592 -3 593 -34 70 c-45 92 -124 171
-216 216 l-70 34 -1025 0 -1025 0 -70 -34 c-92 -45 -171 -124 -216 -216 l-34
-70 -3 -593 -3 -592 -67 -56 c-37 -30 -103 -78 -147 -105 l-80 -50 -5 698 -5
698 -34 70 c-45 92 -124 171 -216 216 -68 33 -74 34 -212 37 l-143 4 0 149 0
149 2260 0 2260 0 0 -149z m-1290 -478 c19 -12 44 -37 55 -55 19 -32 20 -53
23 -640 l3 -608 -53 -34 c-180 -115 -346 -152 -489 -110 -126 37 -286 136
-431 266 l-77 70 -93 -82 c-111 -99 -176 -144 -283 -198 -107 -53 -174 -72
-261 -72 -110 0 -229 41 -362 126 l-53 34 3 608 c3 605 3 607 25 642 24 39 53
60 98 71 17 4 442 6 945 6 l915 -2 35 -22z"/>
<path d="M1197 1045 c-129 -123 -313 -233 -442 -264 -147 -36 -315 9 -508 136
-65 43 -69 45 -82 27 -7 -11 -47 -64 -89 -119 -42 -55 -76 -104 -76 -110 0
-15 170 -122 267 -167 46 -22 128 -51 181 -64 87 -23 111 -25 227 -21 95 4
149 11 200 27 96 30 234 98 330 162 l80 54 80 -54 c98 -65 235 -132 335 -163
65 -21 95 -24 225 -24 137 1 157 3 235 29 99 33 228 97 324 161 36 25 71 45
76 45 5 0 47 -24 92 -54 109 -70 203 -117 308 -152 78 -26 97 -28 235 -29 130
0 160 3 225 24 100 31 237 98 335 163 l80 54 80 -54 c96 -64 234 -132 330
-162 51 -16 105 -23 200 -27 116 -4 140 -2 227 21 53 13 135 42 181 64 93 44
267 152 267 166 0 7 -135 194 -176 245 -2 2 -34 -17 -71 -42 -147 -97 -284
-148 -398 -148 -162 0 -377 108 -561 283 -39 37 -75 68 -79 68 -4 0 -43 -34
-87 -75 -130 -122 -302 -227 -430 -261 -71 -18 -182 -18 -249 2 -126 37 -286
136 -431 266 l-77 70 -103 -91 c-110 -97 -241 -181 -353 -226 -91 -37 -215
-45 -301 -20 -143 42 -300 136 -432 260 -44 41 -84 75 -88 75 -5 -1 -44 -34
-87 -75z"/>
</g>
</svg>
