<svg width="137" height="137" viewBox="0 0 137 137" fill="none" xmlns="http://www.w3.org/2000/svg">
<path d="M122.729 137H82.7702C81.1918 137 79.916 135.721 79.916 134.146V2.85417C79.916 1.27867 81.1918 0 82.7702 0H122.729C124.307 0 125.583 1.27867 125.583 2.85417V134.146C125.583 135.721 124.307 137 122.729 137ZM85.6243 131.292H119.874V5.70833H85.6243V131.292Z" fill="#ED8AB6"/>
<path d="M97.0423 22.8335H82.7715V28.5418H97.0423V22.8335Z" fill="#ED8AB6"/>
<path d="M97.0423 39.9585H82.7715V45.6668H97.0423V39.9585Z" fill="#ED8AB6"/>
<path d="M97.0423 57.0835H82.7715V62.7918H97.0423V57.0835Z" fill="#ED8AB6"/>
<path d="M97.0423 74.2085H82.7715V79.9168H97.0423V74.2085Z" fill="#ED8AB6"/>
<path d="M97.0423 91.3335H82.7715V97.0418H97.0423V91.3335Z" fill="#ED8AB6"/>
<path d="M97.0423 108.458H82.7715V114.167H97.0423V108.458Z" fill="#ED8AB6"/>
<path d="M42.8125 131.292H31.3958C23.5269 131.292 17.125 124.89 17.125 117.021V34.25C17.125 33.6877 17.2934 33.134 17.6045 32.666L34.7295 6.97846C35.7884 5.38869 38.4199 5.38869 39.4788 6.97846L56.6038 32.666C56.9149 33.134 57.0833 33.6877 57.0833 34.25V117.021C57.0833 124.89 50.6814 131.292 42.8125 131.292ZM22.8333 35.1148V117.021C22.8333 121.742 26.675 125.583 31.3958 125.583H42.8125C47.5333 125.583 51.375 121.742 51.375 117.021V35.1148L37.1042 13.7086L22.8333 35.1148Z" fill="#ED8AB6"/>
<path d="M54.2292 114.167H19.9792C18.4008 114.167 17.125 112.888 17.125 111.312C17.125 109.737 18.4008 108.458 19.9792 108.458H54.2292C55.8075 108.458 57.0833 109.737 57.0833 111.312C57.0833 112.888 55.8075 114.167 54.2292 114.167Z" fill="#ED8AB6"/>
<path d="M54.2292 102.75H19.9792C18.4008 102.75 17.125 101.471 17.125 99.8959C17.125 98.3204 18.4008 97.0417 19.9792 97.0417H54.2292C55.8075 97.0417 57.0833 98.3204 57.0833 99.8959C57.0833 101.471 55.8075 102.75 54.2292 102.75Z" fill="#ED8AB6"/>
<path d="M31.3952 102.75C29.8168 102.75 28.541 101.471 28.541 99.8958V45.6667C28.541 44.0912 29.8168 42.8125 31.3952 42.8125C32.9735 42.8125 34.2493 44.0912 34.2493 45.6667V99.8958C34.2493 101.471 32.9735 102.75 31.3952 102.75Z" fill="#ED8AB6"/>
<path d="M42.8132 102.75C41.2348 102.75 39.959 101.471 39.959 99.8958V45.6667C39.959 44.0912 41.2348 42.8125 42.8132 42.8125C44.3915 42.8125 45.6673 44.0912 45.6673 45.6667V99.8958C45.6673 101.471 44.3915 102.75 42.8132 102.75Z" fill="#ED8AB6"/>
<path d="M45.666 19.979H28.541V25.6873H45.666V19.979Z" fill="#ED8AB6"/>
<path d="M28.5417 48.5208C22.2454 48.5208 17.125 43.4005 17.125 37.1042C17.125 35.5287 18.4008 34.25 19.9792 34.25C21.5575 34.25 22.8333 35.5287 22.8333 37.1042C22.8333 40.2523 25.3935 42.8125 28.5417 42.8125C31.6898 42.8125 34.25 40.2523 34.25 37.1042C34.25 35.5287 35.5258 34.25 37.1042 34.25C38.6825 34.25 39.9583 35.5287 39.9583 37.1042C39.9583 43.4005 34.838 48.5208 28.5417 48.5208Z" fill="#ED8AB6"/>
<path d="M45.6667 48.5208C39.3704 48.5208 34.25 43.4005 34.25 37.1042C34.25 35.5287 35.5258 34.25 37.1042 34.25C38.6825 34.25 39.9583 35.5287 39.9583 37.1042C39.9583 40.2523 42.5185 42.8125 45.6667 42.8125C48.8148 42.8125 51.375 40.2523 51.375 37.1042C51.375 35.5287 52.6508 34.25 54.2292 34.25C55.8075 34.25 57.0833 35.5287 57.0833 37.1042C57.0833 43.4005 51.963 48.5208 45.6667 48.5208Z" fill="#ED8AB6"/>
</svg>
