<?xml version="1.0" standalone="no"?>
<!DOCTYPE svg PUBLIC "-//W3C//DTD SVG 20010904//EN"
 "http://www.w3.org/TR/2001/REC-SVG-20010904/DTD/svg10.dtd">
<svg version="1.0" xmlns="http://www.w3.org/2000/svg"
 width="512.000000pt" height="512.000000pt" viewBox="0 0 512.000000 512.000000"
 preserveAspectRatio="xMidYMid meet">

<g transform="translate(0.000000,512.000000) scale(0.100000,-0.100000)"
fill="#8aade6db" stroke="none">
<path d="M3290 4771 c-213 -359 -702 -862 -1355 -1397 -454 -372 -1250 -954
-1433 -1049 -233 -120 -403 -346 -474 -632 -31 -124 -31 -373 0 -515 39 -180
102 -331 200 -483 66 -102 240 -270 334 -323 240 -136 496 -146 723 -29 48 25
128 98 410 377 367 363 720 703 965 930 180 166 378 344 389 348 4 1 28 -23
53 -55 127 -163 240 -362 291 -513 46 -135 101 -425 140 -734 l12 -100 79 172
c43 95 82 172 86 172 3 0 44 -13 91 -28 140 -48 138 -48 133 -10 -63 487 -118
637 -386 1051 -50 76 -88 140 -86 143 8 8 227 -129 330 -206 161 -121 279
-257 391 -451 33 -57 149 -290 171 -344 l17 -40 64 120 c36 66 66 123 67 128
2 4 80 25 173 47 94 22 178 44 188 48 16 6 -24 46 -226 225 -348 310 -435 380
-677 548 -232 161 -362 258 -367 275 -8 25 734 577 1102 820 227 150 333 267
390 430 99 283 -24 610 -364 966 l-80 83 -135 -134 -134 -134 -94 71 c-161
122 -301 197 -468 250 -136 43 -188 53 -335 59 l-130 6 -55 -92z m415 -166
c155 -45 283 -110 418 -211 48 -36 87 -69 87 -73 0 -19 -850 -831 -963 -920
-16 -13 -25 -7 -95 61 -127 122 -249 192 -390 224 -43 9 -83 18 -91 20 -8 3
76 95 203 225 244 249 400 431 514 598 l77 113 75 -5 c41 -4 115 -18 165 -32z
m971 -213 c100 -121 191 -288 214 -393 21 -93 9 -206 -28 -282 -39 -79 -128
-171 -229 -234 -200 -127 -570 -392 -894 -640 -103 -79 -190 -143 -193 -143
-3 0 -6 16 -6 36 0 83 -49 219 -131 364 -27 48 -49 92 -49 98 0 5 101 103 225
217 258 236 879 837 975 943 36 39 70 71 75 71 6 1 24 -16 41 -37z m-2386
-1169 c167 -47 435 -204 435 -255 0 -39 -566 -458 -847 -626 -118 -71 -304
-159 -353 -167 -22 -3 -45 -9 -51 -13 -7 -5 -3 -57 14 -167 22 -141 25 -195
26 -460 1 -210 -3 -324 -12 -380 -79 -466 -250 -676 -552 -676 -56 0 -107 7
-148 20 -324 101 -582 511 -583 931 -1 167 22 274 86 400 83 163 255 314 383
335 74 12 145 -18 222 -95 37 -36 78 -86 92 -112 l26 -48 -91 -86 c-51 -48
-183 -166 -295 -262 -139 -122 -202 -183 -202 -197 0 -37 47 -190 79 -257 39
-83 113 -165 182 -203 74 -40 180 -46 261 -15 120 45 230 153 303 300 70 140
87 229 74 390 -25 309 -165 586 -367 722 l-53 36 83 58 c285 199 708 519 978
738 176 142 149 135 310 89z m603 -535 c41 -95 80 -228 102 -341 8 -44 15 -82
15 -86 0 -4 -91 -89 -202 -188 -267 -238 -503 -458 -837 -782 -249 -242 -274
-263 -268 -231 41 218 44 507 10 882 l-6 67 110 55 c246 123 597 361 958 650
39 31 73 56 76 56 4 0 23 -37 42 -82z m-1778 -1025 c4 -10 10 -61 12 -114 6
-111 -8 -175 -64 -282 -56 -107 -149 -186 -218 -187 -54 0 -115 67 -154 170
l-19 50 191 169 c106 92 201 178 211 190 23 26 32 26 41 4z"/>
</g>
</svg>
