<?xml version="1.0" standalone="no"?>
<!DOCTYPE svg PUBLIC "-//W3C//DTD SVG 20010904//EN"
 "http://www.w3.org/TR/2001/REC-SVG-20010904/DTD/svg10.dtd">
<svg version="1.0" xmlns="http://www.w3.org/2000/svg"
 width="512.000000pt" height="512.000000pt" viewBox="0 0 512.000000 512.000000"
 preserveAspectRatio="xMidYMid meet">
<metadata>
Created by potrace 1.16, written by Peter Selinger 2001-2019
</metadata>
<g transform="translate(0.000000,512.000000) scale(0.100000,-0.100000)"
fill="#ab7b77de" stroke="none">
<path d="M1945 4774 c-163 -15 -319 -68 -444 -153 l-44 -30 -39 33 c-47 41
-88 51 -131 32 -18 -8 -173 -155 -345 -328 l-312 -314 0 -44 c0 -28 8 -56 20
-75 26 -39 25 -71 -3 -117 -49 -80 -131 -109 -197 -69 -41 25 -71 26 -108 7
-15 -8 -98 -86 -184 -173 l-158 -159 0 -50 0 -49 343 -342 342 -343 49 0 48 0
160 158 c88 86 166 169 174 184 19 37 18 67 -6 106 -48 78 2 184 102 214 36
11 44 10 79 -10 59 -34 107 -29 158 15 l43 36 429 -429 429 -429 -734 -735
c-794 -796 -778 -778 -795 -904 -22 -161 61 -326 199 -396 98 -49 225 -51 331
-5 60 27 108 73 802 764 l737 736 773 -772 c448 -448 784 -777 801 -783 54
-20 82 1 284 203 191 193 192 193 192 237 l0 45 -780 780 -781 781 53 50 c115
108 243 193 393 262 50 22 234 101 410 175 415 175 465 198 539 251 135 96
249 253 307 424 32 94 33 102 34 262 0 126 -4 180 -17 230 -27 101 -113 263
-172 325 -47 49 -56 55 -93 55 -74 0 -81 -13 -209 -360 -64 -173 -119 -318
-123 -323 -8 -8 -161 44 -161 55 0 4 50 144 111 310 147 399 144 387 125 432
-11 26 -26 41 -52 52 -33 14 -44 14 -128 -6 -114 -26 -268 -101 -356 -172
-108 -89 -203 -221 -252 -351 -11 -29 -21 -53 -22 -55 -2 -1 -94 32 -205 73
-111 41 -218 75 -237 75 -26 0 -44 -8 -64 -29 -34 -33 -27 -5 -90 -346 -27
-149 -61 -311 -75 -360 -34 -118 -128 -310 -200 -409 l-58 -78 -428 428 -429
429 35 35 c66 68 67 122 4 194 l-39 44 64 60 c78 73 157 117 256 144 65 17 94
19 218 13 156 -6 172 -3 198 47 26 50 11 92 -59 166 -93 96 -208 173 -332 220
-101 39 -276 64 -380 56z m237 -229 c31 -8 76 -24 100 -34 l43 -18 -55 -13
c-148 -34 -264 -96 -372 -198 l-69 -66 -110 110 c-60 60 -109 112 -109 115 0
20 185 99 281 119 59 12 220 4 291 -15z m-607 -375 l240 -240 -220 -220 -220
-220 -242 242 -243 243 217 217 c120 120 220 218 223 218 3 0 113 -108 245
-240z m2654 -56 c-45 -120 -84 -224 -87 -230 -11 -18 -172 44 -172 66 0 10 19
55 41 101 49 97 152 208 239 257 30 17 55 30 57 28 1 -1 -34 -101 -78 -222z
m656 -88 c78 -235 5 -503 -186 -680 -77 -71 -121 -92 -649 -314 -407 -171
-474 -206 -635 -325 -50 -38 -459 -439 -1105 -1083 -575 -574 -1037 -1028
-1053 -1033 -16 -6 -46 -11 -68 -11 -108 0 -191 114 -159 217 10 31 203 230
974 1003 530 531 981 988 1003 1015 54 67 143 205 182 282 81 163 123 302 176
593 19 107 39 202 43 211 6 13 98 -19 567 -193 608 -226 615 -228 661 -175 11
13 65 144 119 290 55 147 102 263 106 259 4 -4 14 -29 24 -56z m-3901 -445
l128 -128 -44 -26 c-40 -23 -111 -94 -148 -146 -15 -21 -18 -19 -139 103
l-124 124 39 25 c46 29 116 102 138 146 9 17 18 31 19 31 1 0 60 -58 131 -129z
m1613 -888 l-97 -98 -430 430 -430 430 97 97 98 98 430 -430 430 -430 -98 -97z
m-1962 537 l240 -240 -70 -70 -70 -70 -242 242 -243 243 67 67 c37 38 70 68
73 68 3 0 113 -108 245 -240z m3958 -2532 l-98 -98 -727 727 -728 728 97 97
98 98 727 -727 728 -728 -97 -97z"/>
<path d="M3491 3743 c-22 -21 -45 -70 -90 -196 -69 -190 -75 -240 -38 -276 21
-18 456 -184 539 -205 38 -9 93 16 111 51 33 64 127 347 127 382 0 66 -20 78
-303 179 -141 51 -271 92 -287 92 -19 0 -41 -10 -59 -27z m261 -257 c68 -24
130 -47 139 -51 14 -5 14 -13 -7 -68 -14 -38 -28 -61 -36 -59 -7 2 -72 24
-144 50 l-132 46 13 36 c24 66 35 90 39 90 3 0 60 -20 128 -44z"/>
<path d="M1172 858 c-39 -11 -72 -59 -72 -106 0 -46 55 -102 99 -102 98 0 148
104 86 178 -27 33 -64 42 -113 30z"/>
</g>
</svg>
