<?xml version="1.0" standalone="no"?>
<!DOCTYPE svg PUBLIC "-//W3C//DTD SVG 20010904//EN"
 "http://www.w3.org/TR/2001/REC-SVG-20010904/DTD/svg10.dtd">
<svg version="1.0" xmlns="http://www.w3.org/2000/svg"
 width="512.000000pt" height="512.000000pt" viewBox="0 0 512.000000 512.000000"
 preserveAspectRatio="xMidYMid meet">

<g transform="translate(0.000000,512.000000) scale(0.100000,-0.100000)"
fill="#d48cffba" stroke="none">
<path d="M2805 4953 c-210 -27 -401 -108 -570 -243 -86 -68 -219 -222 -203
-234 2 -2 31 -22 65 -44 l61 -42 36 49 c111 151 303 277 507 333 79 22 102 23
379 23 277 0 300 -1 379 -23 274 -75 486 -249 606 -497 69 -142 86 -221 92
-422 l6 -173 80 0 80 0 -6 178 c-6 191 -18 258 -67 395 -57 157 -181 336 -304
438 -124 105 -215 157 -356 207 -144 50 -243 62 -514 61 -133 -1 -254 -4 -271
-6z"/>
<path d="M2776 4624 c-38 -7 -74 -18 -79 -23 -5 -5 0 -37 14 -81 21 -63 26
-70 44 -65 11 4 55 12 98 18 l77 11 0 78 0 78 -42 -1 c-24 0 -74 -7 -112 -15z"/>
<path d="M2470 4487 c-177 -139 -284 -332 -306 -547 l-7 -70 82 0 81 0 0 33
c0 58 38 185 77 259 36 69 115 160 182 209 l34 25 -39 67 c-21 37 -41 67 -44
67 -3 0 -30 -19 -60 -43z"/>
<path d="M1910 4253 c-59 -163 -63 -191 -67 -539 l-5 -321 -29 -17 c-34 -20
-83 -84 -106 -136 -23 -55 -28 -157 -9 -210 l15 -44 -54 -49 c-39 -34 -65 -70
-92 -125 l-38 -76 -5 -430 -5 -431 -28 -60 c-29 -62 -93 -137 -137 -160 -25
-13 -26 -12 -59 51 -39 75 -127 169 -196 210 -67 39 -162 72 -233 80 l-60 6
10 37 c25 91 65 137 210 239 161 115 257 243 309 412 19 60 23 99 24 190 0
138 -13 196 -70 315 -75 155 -174 254 -330 330 -134 65 -199 75 -495 75 l-251
0 -26 -26 c-24 -24 -25 -30 -20 -91 8 -87 52 -179 115 -242 61 -61 101 -82
232 -121 127 -37 163 -59 189 -114 48 -99 19 -165 -117 -264 -198 -143 -334
-328 -385 -525 l-15 -57 26 -6 c15 -3 43 -10 62 -15 63 -16 67 -13 85 48 34
116 122 258 208 337 18 15 73 58 122 96 141 104 180 163 192 283 15 167 -84
299 -265 352 -154 46 -175 56 -224 106 -77 79 -76 79 135 79 277 0 381 -34
512 -165 175 -174 214 -428 100 -644 -50 -95 -94 -140 -240 -249 -170 -127
-212 -187 -249 -354 l-6 -28 -216 0 -215 0 -26 -26 c-24 -24 -25 -30 -20 -91
12 -124 100 -258 205 -312 23 -11 103 -39 179 -61 94 -27 144 -47 156 -61 13
-17 17 -40 17 -110 0 -49 -3 -89 -6 -89 -17 0 -110 79 -173 146 l-70 75 -60
-43 c-33 -24 -61 -46 -61 -50 0 -15 103 -130 159 -176 32 -27 92 -70 134 -96
74 -46 76 -49 82 -94 56 -402 330 -717 714 -820 82 -22 117 -25 241 -25 124 0
159 3 241 25 343 92 600 355 696 709 15 57 17 144 20 822 l4 757 -80 0 -80 0
-3 -747 c-3 -660 -5 -754 -20 -803 -65 -219 -173 -368 -345 -480 -136 -89
-259 -125 -433 -125 -174 0 -297 36 -433 125 -173 112 -284 268 -344 480 -11
39 -18 125 -22 295 -4 141 -12 251 -18 266 -18 41 -72 98 -112 118 -20 10 -88
33 -151 51 -142 40 -178 58 -224 111 -62 73 -70 71 242 67 l278 -3 76 -37 c91
-45 147 -103 191 -196 l32 -67 6 -260 c5 -232 7 -266 26 -312 64 -161 181
-267 340 -308 100 -26 229 -14 314 30 l30 16 -37 67 c-21 37 -38 68 -38 69 -1
1 -28 -8 -61 -19 -115 -39 -264 2 -336 93 -68 86 -74 112 -77 350 l-3 216 66
39 c80 46 148 118 192 201 59 109 63 147 63 572 0 272 4 396 12 425 8 26 31
60 64 93 l52 53 59 -28 c49 -23 71 -27 138 -26 127 1 215 53 276 166 31 58 34
70 34 148 0 78 -3 90 -34 148 -51 95 -131 152 -234 167 l-47 7 0 253 c0 283
11 378 60 503 16 42 28 77 27 78 -9 8 -128 64 -136 64 -5 0 -23 -39 -41 -87z
m153 -987 c104 -43 128 -175 47 -256 -66 -66 -156 -67 -221 -1 -124 123 13
325 174 257z"/>
<path d="M1945 3175 c-50 -49 -15 -135 55 -135 41 0 80 39 80 80 0 41 -39 80
-80 80 -19 0 -40 -9 -55 -25z"/>
<path d="M4325 3584 c-88 -19 -211 -77 -292 -138 -176 -133 -284 -374 -270
-601 14 -229 125 -417 335 -567 141 -100 186 -152 210 -239 l10 -37 -60 -6
c-71 -8 -166 -41 -233 -80 -69 -41 -157 -135 -196 -210 -33 -63 -34 -64 -59
-51 -44 23 -108 98 -137 160 l-28 60 0 360 0 360 26 70 c14 39 29 77 33 85 5
12 -10 23 -59 48 -36 17 -69 32 -74 32 -14 0 -58 -119 -75 -203 -23 -108 -23
-692 -1 -786 32 -134 122 -257 239 -325 l66 -39 0 -163 c0 -191 8 -181 -115
-131 -201 82 -381 260 -462 459 -53 130 -63 215 -63 541 l0 297 -80 0 -80 0 0
-708 c0 -603 2 -716 15 -767 67 -256 329 -415 578 -350 159 41 276 147 340
308 19 46 21 80 26 312 l6 260 32 67 c44 93 100 151 191 196 l76 37 278 3
c312 4 304 6 242 -67 -46 -53 -82 -71 -224 -111 -63 -18 -131 -41 -151 -51
-40 -20 -94 -77 -112 -118 -6 -15 -14 -125 -18 -266 -6 -247 -11 -280 -59
-409 -12 -32 -47 -95 -77 -139 l-55 -82 58 -52 c32 -28 61 -50 65 -47 20 12
121 178 149 243 62 146 72 204 79 463 5 194 9 240 21 253 16 15 251 88 259 80
8 -9 -54 -92 -121 -161 l-68 -71 50 -63 50 -62 73 73 c351 353 394 900 102
1278 -57 75 -142 154 -242 225 -120 85 -149 157 -102 252 26 55 62 77 189 114
131 39 171 60 232 121 63 63 107 155 115 242 5 61 4 67 -20 91 l-26 26 -258
-1 c-185 0 -278 -5 -328 -15z m455 -159 c0 -8 -21 -37 -47 -64 -50 -50 -71
-60 -225 -106 -181 -53 -280 -185 -265 -352 12 -120 51 -179 192 -283 115 -86
143 -112 199 -183 82 -103 142 -247 162 -389 l6 -48 -161 0 -161 0 -6 28 c-37
167 -79 227 -249 354 -146 109 -190 154 -240 249 -167 317 11 708 361 793 40
10 121 15 247 15 160 1 187 -1 187 -14z m-1592 -2097 c111 -141 274 -253 464
-318 l78 -26 -29 -46 c-30 -47 -89 -93 -151 -119 -58 -23 -185 -18 -245 11
-63 31 -124 91 -155 155 -23 47 -25 62 -28 240 -2 112 0 186 5 180 5 -5 33
-40 61 -77z"/>
<path d="M2940 3424 c-227 -82 -293 -362 -125 -529 66 -66 125 -90 225 -89 72
0 93 4 136 26 75 39 107 70 145 140 30 57 33 71 34 148 0 100 -24 159 -90 225
-82 82 -222 116 -325 79z m163 -158 c103 -43 128 -177 48 -257 -64 -65 -153
-65 -220 -1 -128 121 9 326 172 258z"/>
<path d="M2985 3175 c-16 -15 -25 -36 -25 -55 0 -19 9 -40 25 -55 15 -16 36
-25 55 -25 19 0 40 9 55 25 16 15 25 36 25 55 0 19 -9 40 -25 55 -15 16 -36
25 -55 25 -19 0 -40 -9 -55 -25z"/>
<path d="M2000 2188 c0 -161 -5 -322 -11 -358 -15 -93 -54 -204 -102 -290 -59
-105 -205 -250 -312 -309 -44 -25 -82 -46 -84 -47 -3 -3 50 -144 54 -144 15 0
97 43 160 84 98 64 178 137 235 213 24 32 48 63 53 68 5 6 7 -71 5 -180 -3
-186 -4 -191 -31 -245 l-28 -54 23 -18 c63 -49 98 -69 108 -63 17 11 59 101
75 162 13 48 15 170 15 765 l0 708 -80 0 -80 0 0 -292z"/>
<path d="M2667 703 c-37 -20 -67 -39 -67 -43 0 -25 112 -169 183 -236 124
-117 276 -199 443 -241 96 -23 334 -24 428 0 134 34 298 113 385 187 l23 20
-51 59 -51 59 -79 -53 c-80 -54 -147 -83 -256 -113 -82 -23 -288 -23 -370 0
-209 57 -367 167 -478 332 l-43 64 -67 -35z"/>
</g>
</svg>
