<?xml version="1.0" encoding="iso-8859-1"?>
<!-- Generator: Adobe Illustrator 19.0.0, SVG Export Plug-In . SVG Version: 6.00 Build 0)  -->
<svg width="400pt" height="400pt" version="1.1" fill="#aaafe6" viewBox="0 0 400 400" xmlns="http://www.w3.org/2000/svg">
<path style="fill:#56ACE0;" d="M205.77,113.939c0-50.683-41.244-92.057-92.057-92.057s-91.927,41.244-91.927,92.057
	c0,23.725,9.115,45.253,23.855,61.608v-8.404c0-13.382,8.469-25.471,21.269-30.125c30.319-11.055,63.612-11.055,93.802,0
	c12.671,4.655,21.269,16.743,21.269,30.125v8.404C196.719,159.192,205.77,137.665,205.77,113.939z M113.842,115.749
	c-21.333,0-38.659-17.325-38.659-38.659s17.325-38.659,38.659-38.659s38.659,17.325,38.659,38.659S135.176,115.749,113.842,115.749z
	"/>
<path style="fill:#FFFFFF;" d="M113.842,60.283c-9.244,0-16.873,7.564-16.873,16.873s7.564,16.873,16.873,16.873
	s16.873-7.564,16.873-16.873S123.087,60.283,113.842,60.283z"/>
<g>
	<path style="fill:#FFC10D;" d="M160.129,193.261v-26.182c0-4.267-2.78-8.21-6.853-9.632c-25.406-9.244-53.398-9.244-78.804,0
		c-4.073,1.487-6.853,5.43-6.853,9.632v26.182c13.576,7.952,29.414,12.671,46.287,12.671
		C130.715,205.867,146.489,201.212,160.129,193.261z"/>
	<path style="fill:#FFC10D;" d="M370.747,299.281c0-39.499-32.065-71.564-71.564-71.564s-71.564,32.065-71.564,71.564
		c0,16.291,5.56,31.354,14.869,43.442v-0.84c0-11.636,7.434-22.174,18.36-26.182c24.76-9.051,51.911-9.051,76.671,0
		c11.055,4.008,18.489,14.545,18.489,26.182v0.84C365.188,330.57,370.747,315.572,370.747,299.281z M299.184,302.901
		c-18.23,0-33.164-14.869-33.164-33.164c0-18.23,14.869-33.164,33.164-33.164s33.164,14.869,33.164,33.164
		C332.347,288.097,317.414,302.901,299.184,302.901z"/>
</g>
<g>
	<path style="fill:#FFFFFF;" d="M299.184,258.489c-6.271,0-11.378,5.107-11.378,11.378c0,6.271,5.107,11.378,11.378,11.378
		s11.378-5.107,11.378-11.378C310.497,263.531,305.455,258.489,299.184,258.489z"/>
	<path style="fill:#FFFFFF;" d="M334.093,361.665v-19.782c0-2.521-1.616-4.784-4.073-5.689c-19.846-7.24-41.826-7.24-61.737,0
		c-2.457,0.905-4.073,3.168-4.073,5.689v19.782c10.343,5.818,22.238,9.18,34.909,9.18
		C311.855,370.844,323.75,367.418,334.093,361.665z"/>
</g>
<g>
	<path style="fill:#194F82;" d="M113.842,38.497c-21.333,0-38.659,17.325-38.659,38.659s17.325,38.659,38.659,38.659
		s38.659-17.325,38.659-38.659C152.436,55.822,135.176,38.497,113.842,38.497z M113.842,93.964c-9.244,0-16.873-7.564-16.873-16.873
		s7.564-16.873,16.873-16.873s16.873,7.564,16.873,16.873S123.087,93.964,113.842,93.964z"/>
	<path style="fill:#194F82;" d="M310.109,206.578V113.81c0-6.012-4.849-10.925-10.925-10.925h-72.081
		c-5.56-57.6-54.238-102.853-113.261-102.853C51.071,0.032,0,51.103,0,113.875s51.071,113.842,113.842,113.842
		c59.022,0,107.701-45.253,113.261-102.917h61.22v81.778c-46.352,5.43-82.424,44.865-82.424,92.638
		c0,51.459,41.891,93.35,93.35,93.35s93.349-41.891,93.349-93.35C392.533,251.442,356.461,212.073,310.109,206.578z M160,193.261
		c-13.576,7.952-29.414,12.671-46.287,12.671c-16.937,0-32.711-4.655-46.287-12.671v-26.182c0-4.267,2.78-8.21,6.853-9.632
		c25.406-9.244,53.398-9.244,78.804,0c4.073,1.487,6.853,5.43,6.853,9.632v26.182H160z M181.98,175.483v-8.404
		c-0.065-13.446-8.598-25.6-21.269-30.19c-30.19-11.055-63.547-11.055-93.802,0c-12.671,4.59-21.269,16.743-21.269,30.125v8.469
		c-14.739-16.291-23.855-37.883-23.855-61.608c0-50.683,41.244-92.057,92.057-92.057s92.057,41.244,92.057,92.057
		C205.834,137.665,196.719,159.192,181.98,175.483z M334.093,361.665c-10.343,5.818-22.238,9.18-34.909,9.18
		s-24.566-3.297-34.909-9.18v-19.782h-0.065c0-2.521,1.616-4.784,4.073-5.689c19.911-7.24,41.826-7.24,61.737,0
		c2.457,0.905,4.073,3.168,4.073,5.689V361.665z M355.943,342.723v-0.84c0-11.636-7.434-22.174-18.36-26.182
		c-24.76-9.051-51.911-9.051-76.671,0c-11.055,4.008-18.36,14.545-18.36,26.182v0.84c-9.244-12.024-14.869-27.022-14.869-43.442
		c0-39.499,32.065-71.564,71.564-71.564s71.564,32.065,71.564,71.564C370.747,315.572,365.188,330.634,355.943,342.723z"/>
	<path style="fill:#194F82;" d="M299.184,236.638c-18.23,0-33.164,14.869-33.164,33.164c0,18.23,14.869,33.164,33.164,33.164
		s33.164-14.869,33.164-33.164S317.414,236.638,299.184,236.638z M299.184,281.115c-6.271,0-11.378-5.107-11.378-11.378
		s5.107-11.378,11.378-11.378s11.378,5.107,11.378,11.378C310.497,276.008,305.455,281.115,299.184,281.115z"/>
</g>
</svg>
