<?xml version="1.0" encoding="UTF-8"?>
<svg width="752pt" height="752pt" version="1.1" fill="#8aade6" viewBox="0 0 752 752" xmlns="http://www.w3.org/2000/svg">
 <g>
  <path d="m225.4 288.39c-34.57 0-62.512-28.418-62.512-62.988 0-34.57 27.941-62.512 62.512-62.512 34.57 0 62.512 27.941 62.512 62.512 0 34.57-27.941 62.988-62.512 62.988zm0-100.4c-20.836 0-37.414 17.051-37.414 37.414 0 20.363 17.051 37.414 37.414 37.414 20.363 0 37.414-17.051 37.414-37.414 0-20.363-16.578-37.414-37.414-37.414z"/>
  <path d="m526.6 288.39h-301.2c-7.1055 0-12.312-5.6836-12.312-12.312 0-7.1055 5.6836-12.312 12.312-12.312 20.836 0 37.414-17.051 37.414-37.414 0-20.363-17.051-37.414-37.414-37.414-7.1055 0-12.312-5.6836-12.312-12.312 0-6.6328 5.6836-13.734 12.312-13.734h300.72c35.047 0 62.988 27.941 62.988 62.512 0 34.57-27.941 62.988-62.512 62.988zm-251-25.102h250.52c20.836 0 37.414-17.051 37.414-37.414s-17.051-37.414-37.414-37.414l-250.52 0.003906c8.0508 10.418 12.785 23.68 12.785 37.414 0.003906 13.73-4.7344 26.992-12.785 37.41z"/>
  <path d="m526.6 589.11h-91.875c-4.2617 0-8.0508-2.3672-10.418-5.6836l-24.629-38.359-14.207 35.992c-1.8945 4.7344-6.6289 8.0508-11.84 8.0508h-148.23c-7.1055 0-12.312-5.6836-12.312-12.312v-69.145c0-4.2617 2.3672-8.0508 5.6836-10.418l31.73-20.836-7.5781-24.629c-1.8945-5.6836 0.94531-11.84 6.1562-14.68l30.309-16.102-58.25-19.891c-5.2109-1.8945-8.5234-6.6289-8.5234-11.84v-113.66c0-7.1055 5.6836-12.312 12.312-12.312h300.72c7.1055 0 12.312 5.6836 12.312 12.312v34.57c0 5.2109-3.3164 10.418-8.5234 11.84l-58.723 19.418 59.672 26.047c4.7344 1.8945 7.5781 6.6289 7.5781 11.367v69.145c0 4.2617-1.8945 8.0508-5.6836 10.418l-23.68 16.102 24.152 17.523c3.3164 2.3672 5.2109 6.1562 5.2109 9.9453v74.352c0.94531 7.1016-4.7383 12.785-11.367 12.785zm-84.773-25.102h72.457v-55.406l-33.152-24.625c-3.3164-2.3672-5.2109-6.1562-5.2109-10.418s2.3672-8.0508 5.6836-9.9453l32.676-22.258 0.003906-53.992-82.402-35.992c-4.7344-1.8945-7.5781-7.1055-7.5781-12.312 0.47266-5.2109 3.7891-9.4727 8.5234-11.367l81.457-26.52v-13.262h-276.1v91.875l76.719 26.52c4.7344 1.4219 8.0508 5.6836 8.5234 10.891 0.47266 5.2109-2.3672 9.9453-6.6289 11.84l-46.883 25.102 7.5781 23.68c1.8945 5.2109-0.47266 11.367-5.2109 14.207l-34.098 22.258v49.727h127.39l19.891-50.672c1.8945-4.2617 5.6836-7.5781 10.418-8.0508 4.7344-0.47266 8.9961 1.8945 11.84 5.6836z"/>
  <path d="m310.65 531.81c0 9.1562-7.4219 16.578-16.578 16.578-9.1523 0-16.574-7.4219-16.574-16.578 0-9.1523 7.4219-16.574 16.574-16.574 9.1562 0 16.578 7.4219 16.578 16.574"/>
 </g>
</svg>
