<?xml version="1.0" encoding="UTF-8"?>
<svg width="752pt" height="752pt" version="1.1" fill="#e2e3a1" viewBox="0 0 752 752" xmlns="http://www.w3.org/2000/svg">
 <g>
  <path d="m376.01 403.96c-8.3359 0-15.098-6.7539-15.098-15.09v-34.016c0-27.562 32.891-46.613 36.641-48.695 13.203-7.5664 21.516-21.898 21.516-37.301 0-23.746-19.316-43.062-43.062-43.062s-43.066 19.316-43.066 43.062c0 8.3359-6.7539 15.094-15.09 15.094-8.3359 0-15.09-6.7578-15.09-15.094 0-40.387 32.855-73.242 73.238-73.242 40.383 0 73.25 32.855 73.25 73.242 0 26.188-14.125 50.551-36.871 63.586-8.7812 4.9336-21.281 15.68-21.281 22.406v34.016c0.003906 8.3438-6.7578 15.094-15.086 15.094z"/>
  <path d="m399.58 439.9c0 13.016-10.555 23.57-23.57 23.57-13.02 0-23.57-10.555-23.57-23.57 0-13.02 10.551-23.57 23.57-23.57 13.016 0 23.57 10.551 23.57 23.57"/>
  <path d="m376.01 234.94-3.7969-1.3789c-4.3398 0.46484-8.4258 1.7344-12.152 3.6133l15.945 5.793 15.938-5.7969c-3.7266-1.8789-7.8047-3.1484-12.137-3.6133z"/>
  <path d="m584.57 235.88-103-37.449c-0.26953-0.097657-0.53516-0.16406-0.82031-0.22266l-0.84766-0.17188c-0.21875-0.027344-0.4375-0.039062-0.65234-0.039062l-1.1367 0.03125c-0.29688 0.03125-0.58594 0.097656-0.875 0.17578l-42.465 15.41c1.832 1.9414 3.5547 3.9727 5.1953 6.0938l38.875-14.137s0.042969-0.007812 0.12891-0.03125l103.01 37.434-0.007813 305.85-102.98-37.449-102.97 37.441-103.01-37.441-102.98 37.449v-305.85l102.96-37.434 39.047 14.188c1.6445-2.1367 3.3828-4.1875 5.2266-6.1406l-41.672-15.156c-0.26953-0.097657-0.54297-0.16406-0.82422-0.22266l-0.84766-0.17188c-0.21875-0.027344-0.42969-0.039062-0.65234-0.039062l-1.1367 0.03125c-0.29688 0.03125-0.59375 0.097656-0.88281 0.17969l-103.81 37.672c-2.9688 1.0781-4.9688 3.9297-4.9688 7.0898v305.85c0 2.4609 1.2031 4.7695 3.2109 6.1758 1.9805 1.4023 4.5703 1.7539 6.9141 0.91406l100.41-36.512 100.43 36.52 0.59766 0.17969c1.3008 0.35938 2.5781 0.37109 3.9297 0l101.03-36.699 100.42 36.52c0.82812 0.29688 1.6953 0.44922 2.5664 0.44922 1.5625 0 3.0586-0.46875 4.3242-1.3633 2.0156-1.4102 3.2188-3.7188 3.2188-6.1797l0.007813-305.85c0.007812-3.1602-1.9922-6.0117-4.957-7.0938z"/>
 </g>
</svg>
