<?xml version="1.0" encoding="iso-8859-1"?>
<!-- Generator: Adobe Illustrator 19.0.0, SVG Export Plug-In . SVG Version: 6.00 Build 0)  -->
<svg width="752pt" height="752pt" version="1.1" fill="#95cfab" viewBox="0 0 500 500" xmlns="http://www.w3.org/2000/svg"><g>
	<g>
		<g>
			<path d="M287.501,0h-65c-42.449,0-82.645,17.038-113.183,47.975C79.566,78.117,62.501,118.949,62.501,160v59.01l-19.806,99.029
				c-0.588,2.938,0.173,5.984,2.072,8.301c1.899,2.317,4.737,3.66,7.733,3.66h34.396c8.319,15.016,7.408,28.473,6.596,40.473
				c-0.722,10.669-1.468,21.702,6.173,29.878c6.237,6.674,16.364,9.649,32.835,9.649h110v80h20v-90c0-5.522-4.477-10-10-10h-120
				c-14.043,0-17.499-2.53-18.224-3.306c-1.713-1.832-1.265-8.461-0.831-14.872c0.996-14.725,2.361-34.891-12.626-57.369
				c-1.852-2.782-4.975-4.453-8.318-4.453H64.699l17.607-88.039c0.129-0.646,0.194-1.303,0.194-1.961v-60
				c0-75.888,64.112-140,140-140h65c77.196,0,140,62.804,140,140v330h20V160C447.501,71.775,375.725,0,287.501,0z"/>
			<path d="M396.445,195.528l-25-50c-1.694-3.389-5.157-5.528-8.944-5.528s-7.25,2.14-8.944,5.528l-25,50
				c-0.706,1.411-1.038,2.943-1.038,4.472h-0.018v200v40c0,5.522,4.477,10,10,10h50c5.523,0,10-4.478,10-10v-40V200h-0.018
				C397.483,198.472,397.151,196.939,396.445,195.528z M362.501,172.36l8.82,17.64h-17.64L362.501,172.36z M377.501,430h-30v-20h30
				V430z M377.501,390h-30V210h30V390z"/>
			<path d="M277.501,70h-20v65h-95v20h50v35h-75c-5.523,0-10,4.477-10,10v65h20v-55h65v35h20v-55h40v110h20V180
				c0-5.523-4.477-10-10-10h-50v-15h90v-20h-45V70z"/>
		</g>
	</g>
</g>
</svg>
