<?xml version="1.0" encoding="UTF-8"?>
<svg width="752pt" height="752pt" version="1.1" fill="#AB7C94" viewBox="0 0 752 752" xmlns="http://www.w3.org/2000/svg">
 <defs>
  <clipPath id="a">
   <path d="m139.21 139.21h473.58v473.58h-473.58z"/>
  </clipPath>
 </defs>
 <path d="m283.65 316.8c4.0703 0 7.3984-3.3281 7.3984-7.3984s-3.3281-7.3984-7.3984-7.3984h-0.074219c-4.0703 0-7.3984 3.3281-7.3984 7.3984 0 4.0664 3.4023 7.3984 7.4727 7.3984z"/>
 <path d="m468.64 316.8c4.0703 0 7.3984-3.3281 7.3984-7.3984s-3.3281-7.3984-7.3984-7.3984h-0.074219c-4.0703 0-7.3984 3.3281-7.3984 7.3984 0 4.0664 3.4023 7.3984 7.4727 7.3984z"/>
 <path d="m279.8 390.8h192.39c4.0703 0 7.3984-3.3281 7.3984-7.3984 0-4.0703-3.3281-7.3984-7.3984-7.3984l-192.39-0.003906c-4.0703 0-7.3984 3.3281-7.3984 7.3984 0 4.0742 3.3281 7.4023 7.3984 7.4023z"/>
 <path d="m279.8 435.2h192.39c4.0703 0 7.3984-3.3281 7.3984-7.3984 0-4.0703-3.3281-7.3984-7.3984-7.3984l-192.39-0.003906c-4.0703 0-7.3984 3.3281-7.3984 7.3984 0 4.0742 3.3281 7.4023 7.3984 7.4023z"/>
 <path d="m279.8 479.6h192.39c4.0703 0 7.3984-3.3281 7.3984-7.3984 0-4.0703-3.3281-7.3984-7.3984-7.3984l-192.39-0.003906c-4.0703 0-7.3984 3.3281-7.3984 7.3984 0 4.0703 3.3281 7.4023 7.3984 7.4023z"/>
 <path d="m329.9 340.56c0.73828 3.4023 3.7734 5.8477 7.25 5.8477h77.695c3.4766 0 6.5117-2.4414 7.25-5.8477l12.949-59.199c0.59375-2.7383-0.37109-5.5508-2.5898-7.3242-2.2188-1.7773-5.1797-2.1445-7.6953-0.96094l-26.566 12.137-15.91-24.27c-2.7383-4.1445-9.6211-4.1445-12.359 0l-15.91 24.27-26.566-12.137c-2.5156-1.1836-5.5508-0.8125-7.6953 0.96094-2.1445 1.7773-3.1836 4.5859-2.5898 7.3242zm23.605-39.219c3.3281 1.5547 7.25 0.37109 9.25-2.6641l13.242-20.203 13.246 20.203c1.9961 3.0352 5.918 4.2188 9.25 2.6641l18.871-8.6562-8.4375 38.918h-65.785l-8.5078-38.922z"/>
 <g clip-path="url(#a)">
  <path d="m583.19 538.79h-11.988c-0.96094-3.5508-2.0703-6.957-3.3281-10.137-1.1094-2.8125-3.8477-4.6602-6.8828-4.6602h-22.199v-178.41c0-6.2148-2.4414-12.062-6.8086-16.426l-13.762-13.762c-3.2578-3.2578-3.2578-8.6562 0-11.914l13.762-13.762c4.3672-4.3672 6.8086-10.211 6.8086-16.426v-45.293h22.199c3.0352 0 5.7734-1.8516 6.8828-4.6602 1.2578-3.1836 2.3672-6.5859 3.3281-10.137l11.988-0.003907c16.352 0 29.598-13.246 29.598-29.598s-13.246-29.598-29.598-29.598h-11.988c-0.96094-3.5508-2.0703-7.0312-3.3281-10.137-1.1094-2.8125-3.8477-4.6641-6.8828-4.6641h-369.98c-3.0312 0-5.7695 1.8516-6.8789 4.6602-1.2578 3.1094-2.2969 6.5859-3.332 10.141h-11.988c-16.352 0-29.598 13.242-29.598 29.598 0 16.352 13.246 29.598 29.598 29.598h11.988c1.0352 3.5508 2.0703 7.0312 3.3281 10.137 1.1133 2.8125 3.8516 4.6641 6.8828 4.6641h22.199v45.211c0 6.2148 2.4414 12.062 6.8086 16.426l13.762 13.762c1.5547 1.6289 2.4414 3.6992 2.4414 5.9922 0 2.293-0.88672 4.3672-2.4414 5.9922l-13.762 13.762c-4.3672 4.375-6.8086 10.219-6.8086 16.438v178.41h-22.199c-3.0352 0-5.7734 1.8516-6.8828 4.6602-1.2539 3.1094-2.293 6.5859-3.3281 10.137h-11.988c-16.352 0-29.598 13.246-29.598 29.598s13.246 29.598 29.598 29.598h11.988c1.0352 3.5508 2.0703 7.0312 3.3281 10.137 1.1133 2.8164 3.8516 4.668 6.8828 4.668h369.98c3.0352 0 5.7734-1.8516 6.8828-4.6602 1.2578-3.1836 2.3672-6.5859 3.3281-10.137l11.988-0.003906c16.352 0 29.598-13.246 29.598-29.598 0.003907-16.355-13.242-29.602-29.598-29.602zm0-369.98c8.1406 0 14.801 6.6602 14.801 14.801s-6.6602 14.801-14.801 14.801h-8.8047c0.074219-0.66406 0.14844-1.2578 0.22266-1.9258 0.074219-0.66406 0.14844-1.4062 0.22266-2.0703 0.73828-7.1758 0.73828-14.43 0-21.605-0.074219-0.66406-0.14844-1.332-0.22266-1.9961-0.074219-0.67188-0.14844-1.3359-0.22266-2.0039zm-88.793-14.797v14.801c0 8.1406-6.6602 14.801-14.801 14.801s-14.801-6.6602-14.801-14.801v-14.801zm-214.59 0v14.801c0 8.1406-6.6602 14.801-14.801 14.801s-14.801-6.6602-14.801-14.801l0.003906-14.801zm-111 44.398c-8.1367 0-14.797-6.6602-14.797-14.801s6.6602-14.801 14.801-14.801h8.8047c-0.074219 0.59375-0.074219 1.2578-0.14844 1.8516-0.074219 0.73828-0.14844 1.4805-0.22266 2.1445-0.37109 3.625-0.66797 7.1797-0.66797 10.805s0.22266 7.1758 0.59375 10.73c0.074219 0.73828 0.14844 1.4805 0.22266 2.2188 0.14844 0.59375 0.14844 1.2578 0.22266 1.8516zm24.863 5.7695c-0.73828-3.4023-1.332-6.8086-1.6992-10.211-0.37109-3.4766-0.59375-6.8828-0.59375-10.359 0-6.8828 0.73828-13.836 2.293-20.57 0.81641-3.2578 1.6289-6.2188 2.5156-9.0273h39.219v14.801c0 16.352 13.246 29.598 29.598 29.598 16.352 0 29.598-13.246 29.598-29.598l0.003907-14.801h155.39v14.801c0 16.352 13.246 29.598 29.598 29.598 16.352 0 29.598-13.246 29.598-29.598v-14.801h46.617c0.88672 2.8125 1.7031 5.7734 2.4414 9.0273 1.5547 6.7344 2.293 13.617 2.293 20.57 0 6.8828-0.73828 13.836-2.293 20.57-0.73828 3.2578-1.5547 6.2148-2.4414 9.0273h-359.62c-0.88672-2.8125-1.6992-5.7695-2.5156-9.0273zm34.336 141.41c0-2.2188 0.88672-4.3672 2.4414-5.9922l13.762-13.762c4.3672-4.3672 6.8086-10.211 6.8086-16.426s-2.4414-12.062-6.8086-16.426l-13.762-13.762c-1.6289-1.5547-2.4414-3.6992-2.4414-5.9922v-45.223h295.99v45.211c0 2.2188-0.88672 4.3672-2.4414 5.9922l-13.762 13.762c-9.0273 9.0273-9.0273 23.828 0 32.855l13.762 13.762c1.6289 1.6289 2.4414 3.6992 2.4414 5.9922v178.41h-295.99zm56.09 193.2h183.81c-0.59375 0.59375-1.2578 1.1094-1.8516 1.6289-15.168 12.062-51.355 20.129-90.055 20.129s-74.887-8.0664-90.055-20.129c-0.58984-0.51562-1.2578-1.0352-1.8477-1.6289zm-115.29 44.398c-8.1406 0-14.801-6.6602-14.801-14.801s6.6602-14.801 14.801-14.801h8.8047c-0.074219 0.59375-0.14844 1.2578-0.22266 1.8516-0.074219 0.73828-0.14844 1.4805-0.22266 2.1445-0.73828 7.1055-0.73828 14.355 0 21.461 0.074219 0.73828 0.14844 1.4805 0.22266 2.1445 0.074219 0.59375 0.074219 1.2578 0.22266 1.8516l-8.8047 0.003906zm27.379 14.801c-0.88672-2.8125-1.7031-5.7734-2.5156-9.0273-3.1094-13.469-3.1094-27.676 0-41.066 0.73828-3.2578 1.5547-6.2891 2.5156-9.0273l24.422-0.003906h45.73c0.37109 1.1094 0.96094 2.1445 1.4805 3.1836 0.074219 0.074219 0.074219 0.14844 0.074219 0.22266 0.88672 1.4805 1.9961 2.9609 3.2578 4.4414 0.29688 0.37109 0.66406 0.73828 0.96094 1.1094 1.332 1.4062 2.8125 2.8867 4.5156 4.2188 18.129 14.43 56.164 23.383 99.305 23.383s81.176-8.9531 99.305-23.383c1.7031-1.4062 3.1836-2.8125 4.5156-4.2188 0.37109-0.37109 0.66406-0.73828 0.96094-1.1094 1.2578-1.4805 2.3672-2.8867 3.2578-4.4414 0.074219-0.074219 0.074219-0.14844 0.074219-0.22266 0.59375-1.0352 1.1094-2.1445 1.4805-3.1836h70.285c0.88672 2.8125 1.7031 5.7734 2.4414 9.0273 3.1094 13.469 3.1094 27.676 0 41.066-0.73828 3.2578-1.5547 6.2148-2.4414 9.0273zm387-14.801h-8.8047c0.074219-0.66406 0.14844-1.2578 0.22266-1.9258 0.074219-0.66406 0.14844-1.4062 0.22266-2.0703 0.73828-7.1758 0.73828-14.43 0-21.605-0.074219-0.66406-0.14844-1.332-0.22266-2.0703-0.074219-0.66406-0.14844-1.2578-0.22266-1.9258h8.8047c8.1406 0 14.801 6.6602 14.801 14.801s-6.6602 14.797-14.801 14.797z"/>
 </g>
</svg>
