<svg width="137" height="137" viewBox="0 0 137 137" fill="none" xmlns="http://www.w3.org/2000/svg">
<path d="M49.8285 64.9319C47.1665 67.594 42.3236 71.252 39.4766 74.099L42.4811 89.1215L57.5036 92.126L68.2503 82.301M69.303 45.4575C81.1554 33.605 84.7749 28.8007 99.5666 14.009L123.603 8L117.594 32.036L86.672 63.3529" stroke="#CFD089" stroke-width="5.7628" stroke-linecap="round" stroke-linejoin="round"/>
<path d="M3.42285 116.162L15.4409 128.18" stroke="#CFD089" stroke-width="5.7628" stroke-linecap="round" stroke-linejoin="round"/>
<path d="M21.4502 80.1079L27.4592 104.144L51.4952 110.153" stroke="#CFD089" stroke-width="5.7628" stroke-linecap="round" stroke-linejoin="round"/>
<path d="M27.4596 104.144L9.43262 122.171" stroke="#CFD089" stroke-width="5.7628" stroke-linecap="round" stroke-linejoin="round"/>
<path d="M36.9334 14.009L12.8974 8L18.9064 32.036L78.9964 92.126L94.0189 89.1215L97.0234 74.099L36.9334 14.009Z" stroke="#CFD089" stroke-width="5.7628" stroke-linecap="round" stroke-linejoin="round"/>
<path d="M133.078 116.162L121.06 128.18" stroke="#CFD089" stroke-width="5.7628" stroke-linecap="round" stroke-linejoin="round"/>
<path d="M115.051 80.1079L109.042 104.144L85.0058 110.153" stroke="#CFD089" stroke-width="5.7628" stroke-linecap="round" stroke-linejoin="round"/>
<path d="M109.041 104.144L127.068 122.171" stroke="#CFD089" stroke-width="5.7628" stroke-linecap="round" stroke-linejoin="round"/>
</svg>
