<?xml version="1.0" standalone="no"?>
<!DOCTYPE svg PUBLIC "-//W3C//DTD SVG 20010904//EN"
 "http://www.w3.org/TR/2001/REC-SVG-20010904/DTD/svg10.dtd">
<svg version="1.0" xmlns="http://www.w3.org/2000/svg"
 width="512.000000pt" height="512.000000pt" viewBox="0 0 512.000000 512.000000"
 preserveAspectRatio="xMidYMid meet">
<metadata>
Created by potrace 1.16, written by Peter Selinger 2001-2019
</metadata>
<g transform="translate(0.000000,512.000000) scale(0.100000,-0.100000)"
fill="#78ca73" stroke="none">
<path d="M1002 5099 c-68 -44 -82 -121 -63 -340 68 -778 449 -1231 1155 -1374
67 -13 164 -28 216 -32 l95 -8 3 -771 2 -770 -107 -27 c-298 -74 -558 -280
-688 -548 l-27 -55 -52 14 c-31 9 -99 15 -176 15 -150 1 -215 -13 -350 -79
-80 -40 -108 -61 -185 -138 -102 -103 -144 -168 -188 -293 l-32 -88 -3 -250
c-3 -237 -2 -252 17 -283 12 -18 35 -41 53 -52 33 -20 55 -20 1888 -20 1833 0
1855 0 1888 20 18 11 41 34 53 52 19 31 20 46 17 283 l-3 250 -32 88 c-44 125
-86 190 -188 293 -77 77 -105 98 -185 138 -135 66 -200 80 -350 79 -77 0 -145
-6 -176 -15 l-52 -14 -27 55 c-139 284 -421 499 -737 561 l-58 11 0 605 c0
332 3 604 8 604 4 0 54 7 112 14 546 73 887 350 1024 833 42 147 59 267 60
424 1 144 1 146 -26 181 -41 54 -77 62 -252 55 -404 -17 -757 -169 -946 -409
l-38 -47 -35 112 c-173 537 -567 844 -1196 931 -62 9 -173 16 -249 16 -122 0
-141 -3 -170 -21z m483 -320 c531 -106 816 -415 899 -973 23 -151 23 -146 -23
-146 -72 0 -273 40 -377 75 -393 131 -601 371 -697 805 -15 63 -29 150 -33
194 l-7 79 69 -7 c38 -4 114 -16 169 -27z m2115 -600 c0 -56 -41 -232 -74
-321 -79 -209 -201 -342 -401 -434 -81 -37 -233 -79 -337 -92 l-68 -9 6 41
c64 466 260 706 657 806 46 11 109 24 142 29 33 5 63 9 68 10 4 0 7 -13 7 -30z
m-845 -2704 c249 -67 447 -266 526 -525 26 -87 57 -123 117 -139 50 -14 77 -8
164 35 90 45 186 62 268 46 129 -24 244 -99 311 -203 50 -79 69 -155 69 -280
l0 -109 -1650 0 -1650 0 0 109 c0 125 19 201 69 280 67 104 182 179 311 203
82 16 178 -1 268 -46 87 -43 114 -49 164 -35 60 16 91 52 117 139 23 73 71
178 110 234 34 50 142 155 199 193 71 47 168 87 257 107 86 19 263 15 350 -9z"/>
</g>
</svg>
