<svg width="120" height="120" viewBox="0 0 120 120" fill="none" xmlns="http://www.w3.org/2000/svg"><circle cx="60" cy="60" r="60" fill="#D9D9D9"/><g filter="url(#a)"><path d="M85.99 72.135c-5.976-5.09-4.775-10.14-2.096-16.68 4.642-11.335-3.065-24.343-14.268-27.708-12.095-3.632-25.479 2.089-29.98 14.173a23.548 23.548 0 0 0-1.431 9.576c.225 3.847 1.916 6.897 3.136 10.456 2.24 6.531-3.659 12.076-8.68 15.31-6.094 3.932-4.729 5.19-1.097 5.45 3.044.22 5.791-.592 8.498-1.959 1.198-.605 5.298-2.465 5.876-3.722-1.586 3.462-4.813 9.466-2.794 13.294 2.487 4.718 8.738-4.136 9.988-5.965 1.118-1.637 5.594-10.583 8.284-6.11 2.457 4.084 1.12 9.947 4.654 13.623 4.278 4.453 6.66-2.385 6.694-5.758.021-2.137-.794-12.48 3.893-7.805 2.79 2.784 6.89 9.268 11.532 8.727 5.044-.588-2.88-8.85-3.68-10.247.702.557 6.987 4.444 7.007 1.24.015-2.447-3.917-4.514-5.537-5.895Z" fill="#C2C2C2"/></g><circle cx="55.508" cy="46.654" fill="#fff" r="4.362"/><circle cx="55.508" cy="46.654" r="2.018" fill="#C2C2C2"/><circle cx="56.225" cy="46.068" r=".521" fill="#fff" fill-opacity=".92"/><circle cx="68.399" cy="46.654" fill="#fff" r="4.362"/><circle cx="68.399" cy="46.654" r="2.018" fill="#C2C2C2"/><circle cx="69.116" cy="46.068" fill="#fff" fill-opacity=".92" r=".521"/><defs><filter id="a" x="24.475" y="22.666" width="71.052" height="74.667" filterUnits="userSpaceOnUse" color-interpolation-filters="sRGB"><feFlood flood-opacity="0" result="BackgroundImageFix"/><feColorMatrix in="SourceAlpha" values="0 0 0 0 0 0 0 0 0 0 0 0 0 0 0 0 0 0 127 0" result="hardAlpha"/><feOffset/><feGaussianBlur stdDeviation="2"/><feComposite in2="hardAlpha" operator="out"/><feColorMatrix values="0 0 0 0 1 0 0 0 0 1 0 0 0 0 1 0 0 0 0.5 0"/><feBlend in2="BackgroundImageFix" result="effect1_dropShadow_18_5011"/><feBlend in="SourceGraphic" in2="effect1_dropShadow_18_5011" result="shape"/></filter></defs></svg>
