<svg width="18" height="18" viewBox="0 0 18 18" fill="none" xmlns="http://www.w3.org/2000/svg">
<g clip-path="url(#clip0)">
<path d="M14.0469 17.8203L11.5233 17.8203L11.5233 15.3237L14.0469 15.3237L14.0469 17.8203Z" fill="white"/>
<path d="M11.5234 15.3242L8.99984 15.3242L8.99984 12.8006L11.5234 12.8006L11.5234 15.3242Z" fill="white"/>
<path d="M9 12.8008L6.4764 12.8008L6.4764 10.2772L9 10.2772L9 12.8008Z" fill="white"/>
<path d="M9 7.75L6.4764 7.75L6.4764 5.2264L9 5.2264L9 7.75Z" fill="white"/>
<path d="M11.5234 5.23047L8.99984 5.23047L8.99984 2.70687L11.5234 2.70687L11.5234 5.23047Z" fill="white"/>
<path d="M14.0469 2.70312L11.5233 2.70312L11.5233 0.179526L14.0469 0.179527L14.0469 2.70312Z" fill="white"/>
<path d="M6.47559 10.2773L3.95199 10.2773L3.95199 7.75374L6.47559 7.75374L6.47559 10.2773Z" fill="white"/>
</g>
<defs>
<clipPath id="clip0">
<rect width="18" height="18" fill="white" transform="translate(18 18) rotate(-180)"/>
</clipPath>
</defs>
</svg>
