<?xml version="1.0" encoding="iso-8859-1"?>
<!-- Generator: Adobe Illustrator 19.0.0, SVG Export Plug-In . SVG Version: 6.00 Build 0)  -->
<svg version="1.1" id="Capa_1" xmlns="http://www.w3.org/2000/svg" xmlns:xlink="http://www.w3.org/1999/xlink" x="0px" y="0px"
	 viewBox="0 0 480.422 480.422" style="enable-background:new 0 0 480.422 480.422;" xml:space="preserve">
<circle style="fill:#F73445;" cx="224.266" cy="152.122" r="144"/>
<circle style="fill:#DFDEED;" cx="224.266" cy="152.122" r="112"/>
<path style="fill:#92B1F9;" d="M471.466,400.922v-18.4l-14.4-6.4c-0.8-4-1.6-7.2-3.2-11.2l8-13.6c-3.2-5.6-6.4-10.4-10.4-14.4
	l-15.2,3.2c-3.2-2.4-5.6-4.8-8.8-6.4l-1.6-16c-5.6-2.4-11.2-4.8-16.8-5.6l-10.4,12h-11.2l-11.2-12c-5.6,1.6-11.2,3.2-16.8,5.6
	l-1.6,16c-3.2,1.6-6.4,4-8.8,6.4l-15.2-3.2c-4,4.8-7.2,9.6-10.4,14.4l8,13.6c-1.6,3.2-2.4,7.2-3.2,11.2l-14.4,6.4v18.4l14.4,6.4
	c0.8,4,1.6,7.2,3.2,11.2l-8,13.6c3.2,5.6,6.4,10.4,10.4,14.4l15.2-3.2c3.2,2.4,5.6,4.8,8.8,6.4l1.6,16c5.6,2.4,11.2,4.8,16.8,5.6
	l10.4-12h11.2l10.4,12.8c5.6-1.6,11.2-3.2,16.8-5.6l1.6-16c3.2-1.6,6.4-4,8.8-6.4l15.2,3.2c4-4.8,7.2-9.6,10.4-14.4l-8-13.6
	c1.6-3.2,2.4-7.2,3.2-11.2L471.466,400.922z"/>
<circle style="fill:#DFDEED;" cx="392.266" cy="392.122" r="32"/>
<path style="fill:#92B1F9;" d="M336.266,152.122c0-36-17.6-69.6-46.4-91.2c-0.8,0-0.8,0-1.6,0.8l-4-4c-4-2.4-8-4.8-12-6.4
	c-7.2,3.2-13.6,7.2-19.2,12l5.6,16c-4,3.2-8,7.2-11.2,11.2l-16-5.6c-5.6,7.2-10.4,15.2-13.6,23.2l12.8,11.2
	c-1.6,4.8-3.2,10.4-4,15.2l-16.8,3.2c-1.6,8.8-1.6,18.4,0,27.2l16.8,3.2c0.8,4.8,2.4,10.4,4,15.2l-12.8,11.2c4,8,8,16,13.6,23.2
	l16-5.6c3.2,4,7.2,8,11.2,11.2l-5.6,16c6.4,4.8,12.8,8.8,19.2,12c4-1.6,8-4,12-6.4l4-4c0.8,0,0.8,0,1.6,0.8
	C318.666,221.722,336.266,188.122,336.266,152.122z"/>
<path style="fill:#FED966;" d="M336.266,152.122c0-23.2-7.2-44.8-20-64c-35.2,2.4-62.4,32.8-60,68c1.6,32,28,57.6,60,60
	C329.066,196.922,336.266,175.322,336.266,152.122z"/>
<path style="fill:#92B1F9;" d="M431.466,160.122c0.8-5.6,0.8-11.2,0-16l-12.8-5.6c-0.8-3.2-1.6-6.4-3.2-9.6l7.2-12.8
	c-2.4-4.8-5.6-8.8-9.6-12.8l-13.6,3.2c-2.4-2.4-5.6-4-8-6.4l-1.6-14.4c-4.8-2.4-9.6-4-15.2-4.8l-9.6,11.2c-1.6,0-3.2,0-4.8,0
	s-3.2,0-4.8,0l-1.6-1.6c19.2,39.2,19.2,85.6,0,125.6l1.6-1.6c1.6,0,3.2,0,4.8,0s3.2,0,4.8,0l9.6,11.2c5.6-0.8,10.4-3.2,15.2-4.8
	l1.6-14.4c3.2-1.6,5.6-4,8-6.4l13.6,3.2c4-4,6.4-8.8,9.6-12.8l-7.2-14.4c1.6-3.2,2.4-6.4,3.2-9.6L431.466,160.122z"/>
<g>
	<polygon style="fill:#F73445;" points="104.266,281.722 8.266,400.122 48.266,432.122 145.866,312.122 	"/>
	<path style="fill:#F73445;" d="M105.066,232.922l-24.8,31.2l88,64l28-34.4C158.666,285.722,126.666,264.122,105.066,232.922z"/>
</g>
<path d="M474.666,376.122l-10.4-5.6c-0.8-1.6-0.8-3.2-1.6-4.8l6.4-10.4c1.6-2.4,1.6-5.6,0-8c-3.2-5.6-7.2-11.2-11.2-16
	c-1.6-2.4-4.8-3.2-8-2.4l-12,2.4c-0.8-0.8-2.4-1.6-3.2-2.4l-0.8-12c0-3.2-2.4-5.6-4.8-6.4c-5.6-2.4-12-4.8-18.4-6.4
	c-3.2-0.8-5.6,0-8,2.4l-8,9.6h-4l-8-9.6c-1.6-2.4-4.8-3.2-8-2.4c-6.4,1.6-12.8,3.2-18.4,6.4c-2.4,0.8-4,4-4.8,6.4l-0.8,12
	c-1.6,0.8-2.4,1.6-3.2,2.4l-12-2.4c-3.2-0.8-5.6,0-8,2.4c-4.8,4.8-8,10.4-11.2,16c-1.6,2.4-1.6,5.6,0,8l6.4,10.4
	c-0.8,1.6-0.8,3.2-1.6,4.8l-11.2,5.6c-3.2,1.6-4.8,4-4.8,7.2v18.4c0,3.2,1.6,6.4,4.8,7.2l11.2,4.8c0.8,1.6,0.8,3.2,1.6,4.8
	l-6.4,10.4c-1.6,2.4-1.6,5.6,0,8c3.2,5.6,7.2,11.2,11.2,16c1.6,2.4,4.8,3.2,8,2.4l12-2.4c0.8,0.8,2.4,1.6,3.2,2.4l0.8,12
	c0,3.2,2.4,5.6,4.8,6.4c5.6,2.4,12,4.8,18.4,6.4c3.2,0.8,5.6,0,8-2.4l8-9.6h4l8,9.6c1.6,1.6,4,2.4,6.4,2.4c0.8,0,0.8,0,1.6,0
	c6.4-1.6,12.8-3.2,18.4-6.4c2.4-0.8,4-4,4.8-6.4l0.8-12c1.6-0.8,2.4-1.6,3.2-2.4l12,2.4c3.2,0.8,5.6,0,8-2.4c4.8-4.8,8-10.4,11.2-16
	c1.6-2.4,1.6-5.6,0-8l-6.4-10.4c0.8-1.6,0.8-3.2,1.6-4.8l11.2-4.8c3.2-1.6,4.8-4,4.8-7.2v-18.4
	C479.466,380.122,477.866,376.922,474.666,376.122z M463.466,396.122l-9.6,4c-2.4,0.8-4,3.2-4.8,5.6c-0.8,3.2-1.6,6.4-3.2,9.6
	c-0.8,2.4-0.8,4.8,0.8,7.2l5.6,9.6c-1.6,2.4-2.4,4-4,5.6l-10.4-2.4c-2.4-0.8-4.8,0-7.2,1.6c-2.4,2.4-4.8,4-8,5.6
	c-2.4,1.6-3.2,3.2-4,6.4l-0.8,11.2c-2.4,0.8-4,1.6-6.4,2.4l-7.2-8.8c-1.6-1.6-4-2.4-6.4-2.4h-11.2c-2.4,0-4.8,0.8-6.4,2.4l-7.2,8.8
	c-2.4-0.8-4-1.6-6.4-2.4l-0.8-11.2c0-2.4-1.6-4.8-4-6.4c-3.2-1.6-5.6-4-8-5.6c-1.6-1.6-4.8-2.4-7.2-1.6l-10.4,3.2
	c-1.6-1.6-3.2-4-4-5.6l5.6-9.6c1.6-2.4,1.6-4.8,0.8-7.2c-1.6-3.2-2.4-6.4-3.2-9.6c-0.8-2.4-2.4-4.8-4.8-5.6l-9.6-4v-8l9.6-4
	c2.4-0.8,4-3.2,4.8-5.6c0.8-3.2,1.6-6.4,3.2-9.6c0.8-2.4,0.8-4.8-0.8-7.2l-5.6-10.4c1.6-1.6,2.4-4,4-5.6l10.4,2.4
	c2.4,0.8,4.8,0,7.2-1.6c2.4-2.4,4.8-4,8-5.6c2.4-1.6,3.2-3.2,4-6.4l0.8-11.2c2.4-0.8,4-1.6,6.4-2.4l7.2,8.8c1.6,1.6,4,2.4,6.4,2.4
	h11.2c2.4,0,4.8-0.8,6.4-2.4l7.2-8.8c2.4,0.8,4,1.6,6.4,2.4l0.8,11.2c0,2.4,1.6,4.8,4,6.4c3.2,1.6,5.6,4,8,5.6
	c1.6,1.6,4.8,2.4,7.2,1.6l10.4-2.4c1.6,1.6,3.2,4,4,5.6l-5.6,9.6c-1.6,2.4-1.6,4.8-0.8,7.2c1.6,3.2,2.4,6.4,3.2,9.6
	c0.8,2.4,2.4,4.8,4.8,5.6l9.6,4V396.122z"/>
<path d="M392.266,352.122c-22.4,0-40,17.6-40,40s17.6,40,40,40s40-17.6,40-40S414.666,352.122,392.266,352.122z M392.266,416.122
	c-13.6,0-24-10.4-24-24s10.4-24,24-24s24,10.4,24,24S405.866,416.122,392.266,416.122z"/>
<path d="M224.266,272.122c66.4,0,120-53.6,120-120s-53.6-120-120-120s-120,53.6-120,120S157.866,272.122,224.266,272.122z
	 M312.266,207.322c-30.4-4-52-32.8-47.2-63.2c3.2-24.8,23.2-44,47.2-47.2C333.866,130.522,333.866,173.722,312.266,207.322z
	 M301.866,82.522c-38.4,10.4-60.8,49.6-50.4,88c6.4,24.8,25.6,44,50.4,50.4c-8,9.6-18.4,16.8-28.8,22.4c-3.2-1.6-7.2-4-10.4-5.6
	l3.2-10.4c0.8-3.2,0-6.4-2.4-8.8c-4-3.2-7.2-6.4-10.4-10.4c-2.4-2.4-5.6-3.2-8.8-2.4l-10.4,3.2c-2.4-4-4.8-8-7.2-12l8-7.2
	c2.4-2.4,3.2-5.6,2.4-8.8c-1.6-4.8-3.2-8.8-4-13.6c-0.8-3.2-3.2-5.6-6.4-6.4l-10.4-2.4v-14.4l10.4-2.4c3.2-0.8,5.6-3.2,6.4-6.4
	c0.8-4.8,2.4-9.6,4-13.6c0.8-3.2,0-6.4-2.4-8.8l-8-7.2c2.4-4,4.8-8,7.2-12l10.4,3.2c3.2,0.8,6.4,0,8.8-2.4c3.2-4,6.4-7.2,10.4-10.4
	c2.4-2.4,3.2-5.6,2.4-8.8l-3.2-10.4c3.2-2.4,6.4-4,10.4-5.6C283.466,65.722,293.066,73.722,301.866,82.522z M224.266,48.122
	c10.4,0,20,1.6,29.6,4c-1.6,1.6-4,3.2-5.6,4c-2.4,2.4-4,5.6-2.4,8.8l4,11.2c-1.6,1.6-3.2,3.2-4.8,4.8l-11.2-4
	c-3.2-0.8-7.2,0-8.8,2.4c-5.6,8-11.2,16-14.4,24.8c-1.6,3.2-0.8,7.2,2.4,8.8l8.8,8c-0.8,1.6-0.8,4-1.6,6.4l-11.2,2.4
	c-4,0.8-6.4,4-6.4,8v27.2c0,4,2.4,7.2,6.4,8l11.2,2.4c0.8,2.4,0.8,4,1.6,6.4l-8.8,8c-2.4,2.4-3.2,5.6-2.4,8.8
	c3.2,9.6,8,17.6,13.6,25.6c2.4,2.4,5.6,4,8.8,2.4l11.2-4c1.6,1.6,3.2,3.2,4.8,4.8l-4,11.2c-0.8,3.2,0,7.2,2.4,8.8
	c1.6,1.6,4,2.4,5.6,4c-55.2,16-112.8-15.2-129.6-69.6c-16-55.2,15.2-112.8,69.6-129.6C204.266,49.722,213.866,48.122,224.266,48.122
	z"/>
<path d="M48.266,440.122c2.4,0,4.8-0.8,6.4-3.2l92.8-114.4l16,12c3.2,2.4,8,1.6,11.2-1.6l24.8-31.2c65.6,12,131.2-21.6,160.8-81.6
	l8.8,9.6c1.6,1.6,4,2.4,5.6,2.4c0.8,0,0.8,0,1.6,0c5.6-1.6,11.2-3.2,16.8-5.6c2.4-1.6,4-4,4.8-6.4l0.8-10.4c0.8-0.8,1.6-1.6,2.4-1.6
	l10.4,2.4c3.2,0.8,5.6,0,8-2.4c4-4.8,7.2-9.6,10.4-14.4c1.6-2.4,1.6-5.6,0-8l-5.6-10.4c0-0.8,0.8-2.4,0.8-3.2l9.6-4
	c3.2-1.6,4.8-4,4.8-7.2v-16c0-3.2-1.6-6.4-4.8-7.2l-9.6-4c0-0.8-0.8-2.4-0.8-3.2l5.6-9.6c1.6-2.4,1.6-5.6,0-8
	c-3.2-5.6-6.4-10.4-10.4-14.4c-1.6-2.4-4.8-3.2-8-2.4l-10.4,2.4c-0.8-2.4-1.6-2.4-2.4-3.2l-0.8-10.4c0-3.2-2.4-5.6-4.8-6.4
	c-5.6-2.4-11.2-4.8-16.8-5.6c-2.4-0.8-5.6,0-7.2,2.4l-8.8,8.8c-37.6-75.2-128.8-105.6-204-68s-105.6,128-68,203.2
	c2.4,4.8,4.8,8.8,7.2,12.8l-21.6,26.4c-1.6,2.4-1.6,4.8-1.6,6.4c0,2.4,1.6,4,3.2,5.6l17.6,12.8l-91.2,112c-2.4,3.2-2.4,8.8,0.8,11.2
	l0,0l40,32C45.066,439.322,46.666,440.122,48.266,440.122z M377.866,88.922c1.6,0.8,3.2,0.8,4.8,1.6l0.8,9.6c0,2.4,1.6,4.8,4,6.4
	s4.8,3.2,7.2,5.6c1.6,1.6,4.8,2.4,7.2,1.6l8.8-2.4c0.8,1.6,2.4,3.2,3.2,4l-5.6,8.8c-1.6,2.4-1.6,4.8-0.8,7.2
	c0.8,2.4,2.4,5.6,2.4,8.8c0.8,2.4,2.4,4.8,4.8,5.6l8,4v5.6l-8,4c-2.4,0.8-4,3.2-4.8,5.6c-0.8,3.2-1.6,5.6-2.4,8.8
	c-0.8,2.4-0.8,4.8,0.8,7.2l4.8,8.8c-0.8,1.6-2.4,3.2-3.2,4l-8.8-2.4c-2.4-0.8-4.8,0-7.2,1.6c-2.4,1.6-4.8,4-7.2,5.6
	c-2.4,1.6-3.2,3.2-4,6.4l-0.8,9.6c-1.6,0.8-3.2,0.8-4.8,1.6l-10.4-11.2c12-33.6,12-69.6,0-103.2L377.866,88.922z M224.266,16.122
	c75.2,0,136,60.8,136,136s-60.8,136-136,136s-136-60.8-136-136S149.066,16.122,224.266,16.122z M105.066,245.722
	c20,24.8,46.4,43.2,76.8,52l-15.2,19.2l-16-12l0,0l-0.8-0.8l-58.4-42.4L105.066,245.722z M105.866,292.922l28.8,20.8l-88,107.2
	l-27.2-22.4L105.866,292.922z"/>
<g>
</g>
<g>
</g>
<g>
</g>
<g>
</g>
<g>
</g>
<g>
</g>
<g>
</g>
<g>
</g>
<g>
</g>
<g>
</g>
<g>
</g>
<g>
</g>
<g>
</g>
<g>
</g>
<g>
</g>
</svg>
