<svg width="24" height="24" viewBox="0 0 24 24" fill="none" xmlns="http://www.w3.org/2000/svg">
<g clip-path="url(#clip0)">
<path d="M23.8359 22.575L17.7891 16.5281C17.6812 16.4203 17.5406 16.3641 17.3906 16.3641H16.9078C18.5156 14.625 19.5 12.3047 19.5 9.75C19.5 4.36406 15.1359 0 9.75 0C4.36406 0 0 4.36406 0 9.75C0 15.1359 4.36406 19.5 9.75 19.5C12.3047 19.5 14.625 18.5156 16.3641 16.9125V17.3906C16.3641 17.5406 16.425 17.6812 16.5281 17.7891L22.575 23.8359C22.7953 24.0562 23.1516 24.0562 23.3719 23.8359L23.8359 23.3719C24.0562 23.1516 24.0562 22.7953 23.8359 22.575ZM9.75 18C5.18906 18 1.5 14.3109 1.5 9.75C1.5 5.18906 5.18906 1.5 9.75 1.5C14.3109 1.5 18 5.18906 18 9.75C18 14.3109 14.3109 18 9.75 18Z" fill="white"/>
</g>
<defs>
<clipPath id="clip0">
<rect width="24" height="24" fill="white"/>
</clipPath>
</defs>
</svg>
