<svg xmlns="http://www.w3.org/2000/svg" width="16" height="16" viewBox="0 0 16 16" fill="none">
  <path d="M8 8.00033H6C4.93913 8.00033 3.92172 7.5789 3.17157 6.82875C2.42143 6.07861 2 5.06119 2 4.00033V2.66699H4C5.06087 2.66699 6.07828 3.08842 6.82843 3.83857C7.57857 4.58871 8 5.60613 8 6.66699V13.3337M8 9.33366C8 8.27279 8.42143 7.25538 9.17157 6.50523C9.92172 5.75509 10.9391 5.33366 12 5.33366H14V6.00033C14 7.06119 13.5786 8.07861 12.8284 8.82875C12.0783 9.5789 11.0609 10.0003 10 10.0003H8" stroke="#A3B8F8" stroke-width="2" stroke-linecap="round" stroke-linejoin="round"/>
</svg>