<svg viewBox="0 0 16 16" xmlns="http://www.w3.org/2000/svg">
<path d="M13.8739 1.04558C14.4061 1.04558 14.8222 1.48316 14.7274 1.95798C14.4029 3.58216 13.2267 5.63947 9.90216 6.13181C9.86318 6.13756 9.82479 6.1403 9.78685 6.1403C9.37519 6.1403 9.04061 5.81277 9.10767 5.44185C9.61045 2.66335 11.7349 1.28306 13.7623 1.05185C13.7998 1.04767 13.8371 1.04558 13.8739 1.04558ZM2.09631 2.86515C2.12738 2.86515 2.15904 2.86659 2.19101 2.86933C4.77464 3.09819 7.88599 4.5918 8.67197 6.22264C8.70617 6.29374 8.74784 6.37059 8.74784 6.4477V9.84101C8.74784 10.184 9.00536 10.4695 9.39058 10.5327C10.3101 10.6832 11.271 10.9807 12.0752 11.4043C12.4286 11.5904 12.7911 11.8009 13.1202 12.0341C13.561 12.3456 13.9838 12.7011 14.0806 13.2114C14.1108 13.3702 13.9738 13.6265 13.81 13.7272C12.5835 14.4806 10.4335 14.9545 8.22386 14.9545C6.40156 14.9545 4.53744 14.632 3.11754 13.8779C2.81836 13.7189 2.72978 13.4419 2.8778 13.1561C3.43898 12.0719 4.49308 11.3103 5.73313 10.854C6.21276 10.6776 6.64608 10.5608 7.14422 10.494C7.55439 10.4389 7.85163 10.1363 7.85163 9.77317V7.84225C7.85163 7.50557 7.56171 7.2311 7.17813 7.2051C3.86827 6.98056 2.09033 5.43441 1.28374 3.97046C0.996505 3.44911 1.45522 2.86515 2.09631 2.86515ZM13.8739 0C13.7855 0 13.696 0.00509686 13.6079 0.0151606C11.6531 0.238 9.23852 1.44447 8.25164 4.08848C6.65459 2.84895 4.26843 2.00229 2.31155 1.82898C2.24015 1.82271 2.16786 1.81944 2.09646 1.81944C1.37232 1.81944 0.709717 2.14043 0.323748 2.67812C-0.0565444 3.20797 -0.108074 3.86081 0.202464 4.42438C1.36858 6.54076 3.66931 7.90694 6.65668 8.2116V9.5059C6.05921 9.58719 5.74538 9.71148 5.25993 9.89015C3.63271 10.4889 2.43403 11.4691 1.78413 12.7247C1.38472 13.4964 1.67837 14.338 2.49467 14.7716C3.98612 15.5637 6.02097 16 8.22177 16C10.7044 16 13.0497 15.4702 14.4944 14.5827C15.0412 14.2467 15.3616 13.5979 15.2557 13.04C15.0944 12.1895 14.4618 11.6429 13.864 11.2205C13.5365 10.9884 13.1863 10.7619 12.7049 10.5083C11.903 10.0859 10.8389 9.75318 9.94264 9.55922V7.1834C9.94264 7.18 10.058 7.17308 10.1285 7.16262C13.2715 6.69721 15.3729 4.86574 15.9178 2.13795C16.0245 1.60418 15.85 1.05996 15.4512 0.644731C15.0578 0.235125 14.4785 0 13.8739 0Z" fill="url(#paint0_linear)"/>
<path d="M13.8739 1.04558C14.4061 1.04558 14.8222 1.48316 14.7274 1.95798C14.4029 3.58216 13.2267 5.63947 9.90216 6.13181C9.86318 6.13756 9.82479 6.1403 9.78685 6.1403C9.37519 6.1403 9.04061 5.81277 9.10767 5.44185C9.61045 2.66335 11.7349 1.28306 13.7623 1.05185C13.7998 1.04767 13.8371 1.04558 13.8739 1.04558ZM2.09631 2.86515C2.12738 2.86515 2.15904 2.86659 2.19101 2.86933C4.77464 3.09819 7.88599 4.5918 8.67197 6.22264C8.70617 6.29374 8.74784 6.37059 8.74784 6.4477V9.84101C8.74784 10.184 9.00536 10.4695 9.39058 10.5327C10.3101 10.6832 11.271 10.9807 12.0752 11.4043C12.4286 11.5904 12.7911 11.8009 13.1202 12.0341C13.561 12.3456 13.9838 12.7011 14.0806 13.2114C14.1108 13.3702 13.9738 13.6265 13.81 13.7272C12.5835 14.4806 10.4335 14.9545 8.22386 14.9545C6.40156 14.9545 4.53744 14.632 3.11754 13.8779C2.81836 13.7189 2.72978 13.4419 2.8778 13.1561C3.43898 12.0719 4.49308 11.3103 5.73313 10.854C6.21276 10.6776 6.64608 10.5608 7.14422 10.494C7.55439 10.4389 7.85163 10.1363 7.85163 9.77317V7.84225C7.85163 7.50557 7.56171 7.2311 7.17813 7.2051C3.86827 6.98056 2.09033 5.43441 1.28374 3.97046C0.996505 3.44911 1.45522 2.86515 2.09631 2.86515ZM13.8739 0C13.7855 0 13.696 0.00509686 13.6079 0.0151606C11.6531 0.238 9.23852 1.44447 8.25164 4.08848C6.65459 2.84895 4.26843 2.00229 2.31155 1.82898C2.24015 1.82271 2.16786 1.81944 2.09646 1.81944C1.37232 1.81944 0.709717 2.14043 0.323748 2.67812C-0.0565444 3.20797 -0.108074 3.86081 0.202464 4.42438C1.36858 6.54076 3.66931 7.90694 6.65668 8.2116V9.5059C6.05921 9.58719 5.74538 9.71148 5.25993 9.89015C3.63271 10.4889 2.43403 11.4691 1.78413 12.7247C1.38472 13.4964 1.67837 14.338 2.49467 14.7716C3.98612 15.5637 6.02097 16 8.22177 16C10.7044 16 13.0497 15.4702 14.4944 14.5827C15.0412 14.2467 15.3616 13.5979 15.2557 13.04C15.0944 12.1895 14.4618 11.6429 13.864 11.2205C13.5365 10.9884 13.1863 10.7619 12.7049 10.5083C11.903 10.0859 10.8389 9.75318 9.94264 9.55922V7.1834C9.94264 7.18 10.058 7.17308 10.1285 7.16262C13.2715 6.69721 15.3729 4.86574 15.9178 2.13795C16.0245 1.60418 15.85 1.05996 15.4512 0.644731C15.0578 0.235125 14.4785 0 13.8739 0Z" fill="url(#paint1_linear)" fill-opacity="0.75"/>
<defs>
<linearGradient id="paint0_linear" x1="7.97429" y1="0" x2="7.97429" y2="16" gradientUnits="userSpaceOnUse">
<stop stop-color="white" stop-opacity="0"/>
<stop offset="1" stop-color="white"/>
</linearGradient>
<linearGradient id="paint1_linear" x1="7.97432" y1="16" x2="7.97432" y2="6.48497e-05" gradientUnits="userSpaceOnUse">
<stop stop-color="#40008A"/>
<stop offset="0.1092" stop-color="#3B1489"/>
<stop offset="0.3334" stop-color="#2E4887"/>
<stop offset="0.6536" stop-color="#199D83"/>
<stop offset="1" stop-color="#00FF7F"/>
</linearGradient>
</defs>
</svg>
