<svg xmlns="http://www.w3.org/2000/svg" width="16" height="16" viewBox="0 0 16 16" fill="none">
  <path d="M5.33301 6H4.66634C4.31272 6 3.97358 6.14048 3.72353 6.39052C3.47348 6.64057 3.33301 6.97971 3.33301 7.33333V12.6667C3.33301 13.0203 3.47348 13.3594 3.72353 13.6095C3.97358 13.8595 4.31272 14 4.66634 14H11.333C11.6866 14 12.0258 13.8595 12.2758 13.6095C12.5259 13.3594 12.6663 13.0203 12.6663 12.6667V7.33333C12.6663 6.97971 12.5259 6.64057 12.2758 6.39052C12.0258 6.14048 11.6866 6 11.333 6H10.6663M7.99967 9.33333V2M7.99967 2L5.99967 4M7.99967 2L9.99967 4" stroke="#A3B8F8" stroke-width="2" stroke-linecap="round" stroke-linejoin="round"/>
</svg>