<svg width="29" height="18" viewBox="0 0 29 18" fill="none" xmlns="http://www.w3.org/2000/svg">
<path d="M3.95264 0.179688H6.47624V2.67629H3.95264V0.179688Z" fill="white"/>
<path d="M6.47607 2.67578H8.99967V5.19938H6.47607V2.67578Z" fill="white"/>
<path d="M9 5.19922H11.5236V7.72282H9V5.19922Z" fill="white"/>
<path d="M9 10.25H11.5236V12.7736H9V10.25Z" fill="white"/>
<path d="M6.47607 12.7695H8.99967V15.2931H6.47607V12.7695Z" fill="white"/>
<path d="M3.95264 15.2969H6.47624V17.8205H3.95264V15.2969Z" fill="white"/>
<path d="M11.5234 7.72266H14.047V10.2463H11.5234V7.72266Z" fill="white"/>
<path d="M14.9526 0.179688H17.4762V2.67629H14.9526V0.179688Z" fill="white"/>
<path d="M17.4761 2.67578H19.9997V5.19938H17.4761V2.67578Z" fill="white"/>
<path d="M20 5.19922H22.5236V7.72282H20V5.19922Z" fill="white"/>
<path d="M20 10.25H22.5236V12.7736H20V10.25Z" fill="white"/>
<path d="M17.4761 12.7695H19.9997V15.2931H17.4761V12.7695Z" fill="white"/>
<path d="M14.9526 15.2969H17.4762V17.8205H14.9526V15.2969Z" fill="white"/>
<path d="M22.5234 7.72266H25.047V10.2463H22.5234V7.72266Z" fill="white"/>
</svg>
