<?xml version="1.0"?>
<svg xmlns="http://www.w3.org/2000/svg" viewBox="0 0 100 100">
  <defs>
    <linearGradient id="a" x2="1" gradientTransform="rotate(90 27.585 19.634) scale(130.65678)" gradientUnits="userSpaceOnUse">
      <stop stop-color="#a4aec4" offset="0"/>
      <stop stop-color="#dca8a9" offset="1"/>
    </linearGradient>
  </defs>
  <g transform="matrix(.63557 0 0 .63557 19.87 15.547)">
    <circle style="fill:#f508fa;fill-opacity:1;fill-rule:evenodd;stroke:#2d3904;stroke-width:4.3;stroke-miterlimit:4;stroke-dasharray:none;stroke-opacity:.64219773" cx="47.861" cy="54.607" r="76.036"/>
    <path d="M33.686-6.072C28.351-4.514 23.499-2.06 20.062 2.563c-.25.333-.744.548-1.165.677-6.345 1.912-12.379 4.465-17.76 8.41-.308.225-.695.365-1.063.475-3.429 1.02-6.858 2.038-10.292 3.029-.75.215-1.181.583-1.436 1.375a86.98 86.98 0 0 0-4.224 24.35 81.181 81.181 0 0 0 1.933 20.225A84.057 84.057 0 0 0-9.278 75.73c1.887 4.715 4.468 9.236 7.298 13.444a83.4 83.4 0 0 0 3.7 5.08 82.238 82.238 0 0 0 6.723 7.548 78.558 78.558 0 0 0 12.06 9.779c5.3 3.49 10.866 6.482 16.98 8.332 2.999.91 6.004 1.82 9.016 2.696.43.123.937.126 1.372.027 12.97-2.898 24.462-8.73 34.482-17.45a80.848 80.848 0 0 0 11.734-12.653 80.438 80.438 0 0 0 11.5-21.58c3.644-10.383 5.215-21.078 4.635-32.092-.403-7.664-1.81-15.117-4.14-22.416-.207-.65-.532-1.023-1.18-1.216-1.989-.593-3.978-1.181-5.944-1.845-2.344-.794-4.949-.883-6.954-2.612-.623-.535-1.33-.98-2.036-1.394-4.537-2.637-9.35-4.634-14.376-6.138-.537-.161-1.03-.593-1.447-.999-1.133-1.087-2.118-2.344-3.332-3.321-3.923-3.177-8.55-4.882-13.426-5.835-3.474-.677-6.946-1.036-10.407-1.036-4.46 0-8.901.596-13.294 1.88" fill="url(#a)" style="fill:url(#a);stroke-width:2.6851;filter:url(#filter1647)" transform="matrix(.9728 0 0 .9728 1.377 2.12)"/>
  </g>
</svg>
