<svg width="109" height="133" viewBox="0 0 109 133" fill="none" xmlns="http://www.w3.org/2000/svg">
  <path d="M22.6929 27.664C29.8079 19.197 38.1149 11.719 47.1569 5.32697C49.1439 3.92197 51.1689 2.56998 53.2299 1.27398C54.1229 0.71198 54.7819 0.654976 55.7069 1.25398C74.8969 13.684 91.0169 28.989 100.954 49.969C107.251 63.264 109.544 77.248 106.997 91.831C105.755 98.943 102.656 105.145 96.6289 109.485C91.7589 112.992 86.1429 114.379 80.2449 114.692C72.9289 115.08 65.8049 113.891 58.7979 111.882C58.7169 111.859 58.6349 111.835 58.5539 111.812C58.5539 114.628 58.5539 125.055 58.5539 132.057C57.4959 132.057 51.3899 132.057 50.1859 132.057C50.1859 125.196 50.1859 113.873 50.1859 111.902C49.2349 112.164 48.2509 112.418 47.3019 112.647C39.6069 114.504 31.8249 115.662 23.9569 114.087C11.2719 111.549 4.2569 104.481 1.9609 91.769C-0.8171 76.389 1.95093 61.743 9.05593 48.006C12.8289 40.714 17.4359 33.919 22.6929 27.664Z" fill="url(#paint0_linear)"/>
  <defs>
    <linearGradient id="paint0_linear" x1="54.458" y1="132.058" x2="54.458" y2="0.828078" gradientUnits="userSpaceOnUse">
      <stop offset="0.0112" stop-color="#0E9651"/>
      <stop offset="1" stop-color="#9FD638"/>
    </linearGradient>
  </defs>
</svg>
