<svg xmlns="http://www.w3.org/2000/svg" viewBox="0 0 1985.469 1985.469"><defs><filter style="color-interpolation-filters:sRGB" id="a"><feFlood flood-opacity=".804" flood-color="#2A1D04" result="flood"/><feComposite in="flood" in2="SourceGraphic" operator="in" result="composite1"/><feGaussianBlur in="composite1" stdDeviation="2" result="blur"/><feOffset dy="2.3" result="offset"/><feComposite in="SourceGraphic" in2="offset" result="composite2"/></filter></defs><circle style="fill:#848484;fill-opacity:1;fill-rule:evenodd;stroke:#000;stroke-width:61.0547;stroke-miterlimit:4;stroke-dasharray:none;stroke-opacity:1" cx="992.734" cy="992.734" r="962.207"/><path style="fill:#000;stroke-width:1.33333;filter:url(#a)" d="M-204.421 104.78c-3.328-3.327-3.357-3.541-2.444-18.368 1.063-17.257 1.123-17.14-9.921-19.468-17.162-3.618-20.672-7.962-19.916-24.647.37-8.156 1.356-12.677 4.01-18.383 3.245-6.975 13.442-19.766 15.758-19.766.546 0 1.38 2.418 1.853 5.375.886 5.541 2.342 6.684 11.207 8.797 3.349.798 3.202.479-2.06-4.452-4.652-4.36-5.666-6.178-5.666-10.155 0-4.336.595-5.162 5.667-7.872 5.088-2.717 7.505-3.027 23.666-3.027 17.558 0 18.226.107 27.19 4.352 9.128 4.323 9.173 4.371 6.703 7.1-1.368 1.512-4.154 3.733-6.19 4.936-2.036 1.203-3.703 2.622-3.703 3.152 0 1.253 11.764-2.746 12.744-4.331 1.288-2.083 2.988-1.349 7.237 3.125 6.39 6.728 13.243 21.743 14.194 31.1.66 6.488.288 9.31-1.868 14.183-2.906 6.571-4.552 7.467-18.973 10.331-11.746 2.333-11.333 1.519-11.333 22.348v18.371l-4.334.418-4.333.418v-7.922c0-5.414-.633-8.446-2-9.58-1.675-1.39-2-1.183-2 1.272 0 1.613-1.95 4.836-4.334 7.163l-4.333 4.231-.666-6.563c-.367-3.61-1.383-6.799-2.257-7.086-1.483-.487-2.425 2.756-3.384 11.65-.244 2.266-1.29 3.465-3.268 3.746-2.52.36-3.211-.666-5.176-7.666-1.247-4.445-2.74-8.08-3.319-8.08-1.433 0-3.004 7.594-1.93 9.332 1.17 1.894-.557 9.334-2.166 9.334-.709 0-2.804-1.516-4.655-3.367zm32.256-26.284c1.185-3.735-.503-12.899-3.378-18.34l-2.462-4.66-.87 6.66c-.479 3.662-1.206 8.158-1.617 9.992-.7 3.125-.815 3.166-1.834.666-.597-1.466-1.129-6.166-1.18-10.444-.107-8.835-2.349-9.783-5.019-2.122-1.514 4.346-2.369 18.835-1.18 20.01.309.307 4.195.622 8.636.703 6.919.125 8.193-.228 8.904-2.465zm-23.626-22.482c9.747-3.397 4.764-16.213-9.015-23.185-8.63-4.366-18.07-.146-22.308 9.97-2.621 6.256-1.34 10.438 3.894 12.714 5.157 2.242 21.575 2.542 27.43.501zm60.918-1.806c3.916-3.915 3.976-5.05.655-12.366-5.833-12.85-20.468-14.682-30.605-3.831-2.342 2.507-3.387 5.429-3.823 10.697l-.601 7.247 4.49.55c2.47.302 9.468.645 15.551.763 10.113.195 11.341-.067 14.333-3.06z" transform="matrix(14.53682 0 0 14.53682 3623.496 269.939)"/></svg>