<?xml version="1.0" encoding="UTF-8"?>
<svg version="1.1" viewBox="0 0 114.02 136.76" xmlns="http://www.w3.org/2000/svg">
  <defs>
    <linearGradient id="linearGradient1005" x2="1" gradientTransform="matrix(0 -49.659 -49.659 0 369.88 421.96)" gradientUnits="userSpaceOnUse">
      <stop stop-color="#f15236" offset="0"/>
      <stop stop-color="#94136e" offset=".91424"/>
      <stop stop-color="#94136e" offset="1"/>
    </linearGradient>
  </defs>
  <g transform="translate(-19.777 -8.3514)">
    <g transform="matrix(2.7539 0 0 -2.7539 -941.82 1170.4)">
      <path d="m362.63 421.88c2.821-3.011 3.426-9.684 1.671-12.411s-4.115-2.372-5.27-0.152c-1.121 2.151 0.665 5.857 0.665 5.857-10.873-9.792-10.513-22.177-10.513-22.177 0-11.432 9.268-20.701 20.701-20.701 11.434 0 20.702 9.269 20.702 20.701 0 9.513-6.058 16.705-6.058 16.705 1.549-3.357-1.026-7.03-4.644-0.864-1.548 2.637-2.383 5.601-5.517 8.766-3.644 3.681-7.527 4.352-10.162 4.352-0.594 0-1.125-0.034-1.575-0.076" fill="url(#linearGradient1005)"/>
    </g>
  </g>
</svg>
