<?xml version="1.0"?>
<svg xmlns="http://www.w3.org/2000/svg" viewBox="0 0 4659.512 4659.512">
  <defs>
    <filter style="color-interpolation-filters:sRGB" id="a">
      <feFlood flood-opacity=".804" flood-color="#2A1D04" result="flood"/>
      <feComposite in="flood" in2="SourceGraphic" operator="in" result="composite1"/>
      <feGaussianBlur in="composite1" stdDeviation="2" result="blur"/>
      <feOffset dy="2.3" result="offset"/>
      <feComposite in="SourceGraphic" in2="offset" result="composite2"/>
    </filter>
  </defs>
  <circle style="fill:#26b569;fill-opacity:1;fill-rule:evenodd;stroke:#000;stroke-width:96.2222;stroke-miterlimit:4;stroke-dasharray:none;stroke-opacity:1" cx="2329.756" cy="2329.756" r="2281.645"/>
  <path style="fill:#000;stroke-width:1.33333;filter:url(#a)" d="m218.501 13.966-1.537-4.333-3.349 3.844c-3.431 3.94-5.202 3.596-6.054-1.178-.42-2.354-1.8-2.744-11.796-3.333l-11.32-.667 4.382-2.815c2.41-1.549 8.327-3.883 13.147-5.188l8.764-2.372-.547-7.566c-.702-9.707-4.42-15.077-12.6-18.2l-6.154-2.35-2.634 3.616c-6.288 8.631-16.242 9.925-23.158 3.009-3.775-3.775-4.534-5.51-4.534-10.37 0-3.21.953-7.196 2.116-8.858 1.689-2.41 1.786-3.417.485-4.985-2.81-3.386-2-12.302 1.45-15.974 1.694-1.804 3.876-3.28 4.848-3.28.973 0 1.768-1.165 1.768-2.588s.601-2.96 1.336-3.414c.756-.467.986-3.02.529-5.877-1.082-6.767 1.997-12.452 8.388-15.485 4.643-2.203 5.484-2.23 10.726-.345 4.505 1.62 5.688 1.685 5.688.313 0-2.667 6.506-9.786 11.127-12.176 6.127-3.168 16.914-2.777 22.74.824 2.64 1.63 4.8 3.449 4.8 4.04 0 .59 4.17 1.31 9.268 1.597 10.416.59 14.235 3.038 18.888 12.111 1.41 2.75 3.11 5 3.775 5 2.373 0 5.402 4.245 5.402 7.57 0 1.988 1.33 4.426 3.228 5.92 4.946 3.89 8.11 13.333 6.252 18.66-1.211 3.476-1.114 4.711.512 6.509 3.002 3.316 2.506 9.761-.992 12.91-5.11 4.6-7.659 4.8-13.103 1.026-4.509-3.124-5.785-3.384-12.499-2.545-4.112.513-10.004 2.212-13.093 3.775-6.388 3.232-8.692 8.505-8.87 20.302-.131 8.754 2.277 10.99 13.564 12.588 4.736.67 9.595 1.597 10.798 2.058 3.129 1.201 1.352 3.22-2.876 3.268-3.229.038-3.338.185-1.095 1.489 4.094 2.378-.17 3.942-8.16 2.994-6.5-.772-7-.63-7 1.99 0 3.712-1.608 3.557-8.178-.79-5.288-3.5-5.51-3.532-7.304-1.078-1.018 1.392-1.851 3.016-1.851 3.609 0 2.957-3.933.531-5.277-3.255zm-7.666-49.333c-2.736-4.7-9.227-7.647-14.59-6.622-2.867.548-2.523.946 3.157 3.64 3.507 1.663 7.576 3.97 9.043 5.127 4.23 3.337 5.118 2.542 2.39-2.145zm35.276-3.882c5.803-1.711 7.121-3.31 3.785-4.59-1.034-.398-4.334.9-7.333 2.885-5.283 3.496-7.188 5.556-3.785 4.092.917-.394 4.217-1.468 7.333-2.387zm-3.245-19.917c.425-1.627-.23-3.052-1.787-3.885-4.45-2.382-5.301-1.486-5.301 5.583v6.899l3.208-3.014c1.764-1.657 3.51-4.17 3.88-5.583zm-35.415 5.132c-.66-2.006-5.669-2.914-8.77-1.588-1.864.796-1.682 1.124 1.097 1.972 5.245 1.6 8.277 1.448 7.673-.384zm11.828-9.71c-.929-2.421-3.501-2.585-3.501-.223 0 2.427 3.162 5.447 3.776 3.606.262-.785.138-2.308-.275-3.383z" transform="matrix(33.18006 0 0 33.18006 -5060.193 3777.836)"/>
</svg>
