<?xml version="1.0" encoding="UTF-8" standalone="no"?>
<svg
   xmlns:dc="http://purl.org/dc/elements/1.1/"
   xmlns:cc="http://creativecommons.org/ns#"
   xmlns:rdf="http://www.w3.org/1999/02/22-rdf-syntax-ns#"
   xmlns:svg="http://www.w3.org/2000/svg"
   xmlns="http://www.w3.org/2000/svg"
   xmlns:sodipodi="http://sodipodi.sourceforge.net/DTD/sodipodi-0.dtd"
   xmlns:inkscape="http://www.inkscape.org/namespaces/inkscape"
   viewBox="0 0 104.89238 104.89238"
   version="1.1"
   id="svg988"
   sodipodi:docname="Jund.svg"
   width="100%"
   height="100%"
   inkscape:version="1.0.1 (0767f8302a, 2020-10-17)">
  <metadata
     id="metadata994">
    <rdf:RDF>
      <cc:Work
         rdf:about="">
        <dc:format>image/svg+xml</dc:format>
        <dc:type
           rdf:resource="http://purl.org/dc/dcmitype/StillImage" />
        <dc:title></dc:title>
      </cc:Work>
    </rdf:RDF>
  </metadata>
  <defs
     id="defs992">
    <filter
       style="color-interpolation-filters:sRGB;"
       inkscape:label="Drop Shadow"
       id="filter1583">
      <feFlood
         flood-opacity="0.803922"
         flood-color="rgb(42,29,4)"
         result="flood"
         id="feFlood1573" />
      <feComposite
         in="flood"
         in2="SourceGraphic"
         operator="in"
         result="composite1"
         id="feComposite1575" />
      <feGaussianBlur
         in="composite1"
         stdDeviation="2"
         result="blur"
         id="feGaussianBlur1577" />
      <feOffset
         dx="0"
         dy="2.3"
         result="offset"
         id="feOffset1579" />
      <feComposite
         in="SourceGraphic"
         in2="offset"
         operator="over"
         result="composite2"
         id="feComposite1581" />
    </filter>
  </defs>
  <sodipodi:namedview
     pagecolor="#ffffff"
     bordercolor="#666666"
     borderopacity="1"
     objecttolerance="10"
     gridtolerance="10"
     guidetolerance="10"
     inkscape:pageopacity="0"
     inkscape:pageshadow="2"
     inkscape:window-width="1916"
     inkscape:window-height="1301"
     id="namedview990"
     showgrid="false"
     fit-margin-top="0"
     fit-margin-left="0"
     fit-margin-right="0"
     fit-margin-bottom="0"
     inkscape:zoom="3.8723589"
     inkscape:cx="11.425375"
     inkscape:cy="69.162862"
     inkscape:window-x="1126"
     inkscape:window-y="56"
     inkscape:window-maximized="0"
     inkscape:current-layer="svg988" />
  <circle
     style="fill:#804000;fill-opacity:1;fill-rule:evenodd;stroke:#380d0d;stroke-width:1.9;stroke-miterlimit:4;stroke-dasharray:none;stroke-opacity:1"
     id="path1559"
     cx="52.44619"
     cy="52.44619"
     r="51.496189" />
  <path
     style="opacity:1;fill:#000000;fill-opacity:1;stroke-width:0.78125;filter:url(#filter1583)"
     d="m 20.604407,75.113125 c -3.394038,-2.084171 -6.621535,-4.626709 -6.879841,-5.021279 -2.545087,-1.084402 -5.9993316,-0.173705 -8.2528268,-2.265339 -1.0348999,-1.0349 -0.8240386,-1.261971 1.8652993,-2.008692 1.6676545,-0.46304 3.4412285,-0.753448 3.9093665,-0.755844 0.468139,-0.0024 1.211616,-0.943175 1.684081,-1.980125 0.472466,-1.03695 1.5411,-2.101845 2.374743,-2.366433 0.833643,-0.264588 4.416469,-4.860149 7.961837,-10.212357 6.023269,-9.092934 6.918896,-9.443989 6.461893,-12.301932 -0.151322,-0.946316 -0.978817,-2.092147 -0.917523,-2.66367 0.119738,-1.116471 1.215215,-1.824406 2.882361,-3.288179 1.065088,-0.93516 1.991315,-2.047494 2.904402,-2.437359 0.751663,-0.320942 1.535823,-0.283461 2.342611,-9.57e-4 3.360438,1.176689 5.299503,-2.26321 5.821483,-9.281914 0.165763,-2.228905 -0.175134,-4.179921 0.08114,-5.068978 0.170045,-0.589921 1.733378,-0.03594 2.005918,-0.03594 0.551652,0 1.13422,-0.829972 1.766018,-1.072416 0.788227,-0.302471 0.384249,-0.733758 2.280862,2.515761 1.645691,2.819608 2.31408,4.209017 3.366859,5.635761 0.199613,0.27052 0.563242,1.220464 1.226219,1.490184 0.596541,0.242693 1.806183,0.127293 2.041783,0.131476 0.417963,0.0074 2.783771,0.223179 3.140655,-0.152809 0.586306,-0.617692 0.698615,-2.708113 0.706035,-4.040764 0.01048,-1.881628 0.121863,-1.839116 2.254349,-1.839116 2.04223,0 2.22851,0.144219 1.889144,1.441953 -0.106277,0.406404 -0.213941,1.462825 -0.01656,2.844608 0.215917,1.511567 0.759934,3.412135 1.165888,5.268488 l 1.159284,6.361322 -1.79986,2.720725 c 0,0 -1.227279,1.894209 -2.195735,2.55406 -0.105866,0.07213 -0.283471,-0.259497 -0.283471,-0.259497 L 61.23378,36.704556 c -0.29969,-2.192369 -1.020088,-2.129114 -1.858084,-0.208936 -0.216939,0.497092 -0.60123,0.931797 -0.557848,1.467685 0.05933,0.732847 0.599055,1.667712 1.347364,2.97866 1.824458,3.196232 3.570046,4.613315 2.389743,1.393166 -0.32005,-0.873172 -0.410808,-0.930484 0.106547,-1.907549 0.359653,-0.679232 1.134343,-1.405799 1.866412,-2.410416 0.97018,-1.331376 2.011279,-3.031943 3.340832,-4.590241 0.319524,-0.374497 1.478829,1.312715 2.605518,3.536128 1.761106,3.475377 2.00496,4.492579 1.591226,8.318941 -0.193159,1.786404 -0.547483,3.137509 -0.392881,4.125777 0.190611,1.218451 1.035729,1.973086 2.0815,3.623273 3.127212,4.934621 3.888096,4.568155 5.433818,3.285322 0.331249,-0.274912 0.60167,-0.665737 1.066278,-0.693245 0.606,-0.03588 1.477973,0.376711 2.590652,0.74393 2.318787,0.765273 3.046803,2.042338 5.30819,7.073461 1.40567,3.127327 1.836677,4.766527 2.834942,5.555816 0.776029,0.613578 2.012274,0.597737 3.56084,1.112614 2.041015,0.678609 3.710937,1.352607 3.710937,1.497771 -4.634298,2.862849 -8.361594,4.712052 -13.522141,7.457309 L 70.734852,78.851555 57.616983,79.015413 57.272861,78.112527 C 63.32115,75.102828 67.211115,71.870605 69.542995,65.341305 64.974913,57.92494 60.406833,50.508574 55.838752,43.092209 l -17.344616,0.0078 -13.60696,22.160577 c 3.679684,7.948822 9.020052,11.116358 15.16946,13.691241 l -6.640625,-0.02465 c -6.555163,-0.02433 -6.720043,-0.07341 -12.811604,-3.814054 z m 9.250974,-13.515516 9.875189,-16.94213 5.221587,6.69225 -8.328618,-1.07059 5.690188,7.095585 -9.226212,-1.167062 4.603285,6.833068 z m 22.765249,-4.27275 5.608262,-7.343691 -9.051261,1.906774 5.710954,-7.605715 10.224199,17.380216 -9.326758,1.994825 5.778843,-7.52906 z m 0.277723,-37.012802 c -0.613582,-1.038712 -1.543664,-1.989151 -1.553627,-2.545016 -0.0047,-0.264817 -0.05254,-0.302109 0.178132,-0.473018 0.321427,-0.238152 1.094564,-0.09405 1.839512,-0.305591 0.577674,-0.164043 0.709558,-0.418071 1.418643,-0.605495 l 1.419422,-0.192196 0.799081,-0.671037 c 0,0 0.596019,-0.113789 0.600753,0.131805 0.02112,1.095475 -0.03562,3.601675 -0.03562,3.601675 -0.0976,1.358351 0.09428,1.819921 -0.235452,2.471476 -0.195879,0.387058 -3.105309,0.412743 -3.418242,0.127973 -0.415912,-0.378481 -0.603124,-0.84738 -1.012605,-1.540576 z m -1.725365,-8.723526 c 0.02964,-1.6929912 0.04383,-3.6146256 0.154109,-4.406871 0.04166,-0.2992698 0.198065,-0.1514482 0.226817,-0.1863425 0.104866,-0.127269 1.45415,1.774854 2.795526,3.5988425 1.352609,1.839263 2.569038,2.769454 2.354072,3.37556 -0.208734,0.588538 -1.819463,0.797178 -3.688644,1.248733 l -1.913528,0.462269 z"
     id="path1557"
     sodipodi:nodetypes="sccssssssssssssssssssssssssccscssssssssssssssssssccccccccccssccccccccccccccccsssssccssssssssssscs" />
</svg>
