<?xml version="1.0"?>
<svg xmlns="http://www.w3.org/2000/svg" viewBox="0 0 104.892 104.892">
  <defs>
    <filter style="color-interpolation-filters:sRGB" id="a">
      <feFlood flood-opacity=".804" flood-color="#2A1D04" result="flood"/>
      <feComposite in="flood" in2="SourceGraphic" operator="in" result="composite1"/>
      <feGaussianBlur in="composite1" stdDeviation="2" result="blur"/>
      <feOffset dy="2.3" result="offset"/>
      <feComposite in="SourceGraphic" in2="offset" result="composite2"/>
    </filter>
  </defs>
  <circle style="fill:#804000;fill-opacity:1;fill-rule:evenodd;stroke:#380d0d;stroke-width:1.9;stroke-miterlimit:4;stroke-dasharray:none;stroke-opacity:1" cx="52.446" cy="52.446" r="51.496"/>
  <path style="opacity:1;fill:#000;fill-opacity:1;stroke-width:.78125;filter:url(#a)" d="M20.604 75.113c-3.394-2.084-6.621-4.627-6.88-5.021-2.545-1.085-5.999-.174-8.252-2.265-1.035-1.035-.824-1.262 1.865-2.01 1.668-.462 3.441-.753 3.91-.755.468-.002 1.211-.943 1.683-1.98.473-1.037 1.542-2.102 2.375-2.367.834-.264 4.417-4.86 7.962-10.212 6.023-9.093 6.919-9.444 6.462-12.302-.151-.946-.979-2.092-.918-2.664.12-1.116 1.216-1.824 2.883-3.288 1.065-.935 1.991-2.047 2.904-2.437.752-.321 1.536-.284 2.343-.001 3.36 1.177 5.3-2.263 5.821-9.282.166-2.229-.175-4.18.081-5.069.17-.59 1.734-.036 2.006-.036.552 0 1.135-.83 1.766-1.072.789-.303.385-.734 2.281 2.515 1.646 2.82 2.314 4.21 3.367 5.636.2.27.563 1.22 1.226 1.49.597.243 1.806.128 2.042.132.418.007 2.784.223 3.14-.153.587-.618.7-2.708.707-4.04.01-1.882.122-1.84 2.254-1.84 2.042 0 2.229.144 1.89 1.442-.107.407-.215 1.463-.017 2.845.216 1.511.76 3.412 1.166 5.268l1.159 6.362-1.8 2.72s-1.227 1.895-2.196 2.554c-.106.072-.283-.26-.283-.26l-.317-2.318c-.3-2.193-1.02-2.13-1.858-.21-.217.498-.602.932-.558 1.468.06.733.599 1.668 1.347 2.979 1.825 3.196 3.57 4.613 2.39 1.393-.32-.873-.41-.93.107-1.907.36-.68 1.134-1.406 1.866-2.41.97-1.332 2.011-3.033 3.34-4.591.32-.375 1.48 1.313 2.606 3.536 1.761 3.475 2.005 4.493 1.591 8.319-.193 1.786-.547 3.138-.392 4.126.19 1.218 1.035 1.973 2.081 3.623 3.127 4.935 3.888 4.568 5.434 3.285.331-.275.602-.665 1.066-.693.606-.036 1.478.377 2.59.744 2.32.765 3.048 2.042 5.309 7.074 1.406 3.127 1.837 4.766 2.835 5.555.776.614 2.012.598 3.56 1.113 2.042.679 3.712 1.353 3.712 1.498-4.635 2.863-8.362 4.712-13.522 7.457l-14.003-.212-13.118.163-.344-.902c6.048-3.01 9.938-6.242 12.27-12.772L55.839 43.092l-17.345.008-13.607 22.16c3.68 7.95 9.02 11.117 15.17 13.692l-6.641-.025c-6.555-.024-6.72-.073-12.812-3.814zm9.251-13.515 9.876-16.943 5.221 6.693-8.328-1.07 5.69 7.095-9.226-1.167 4.603 6.833zm22.766-4.273 5.608-7.344-9.051 1.907 5.71-7.606 10.225 17.38-9.327 1.995 5.779-7.529zm.277-37.013c-.613-1.039-1.543-1.99-1.553-2.545-.005-.265-.053-.302.178-.473.321-.238 1.094-.094 1.84-.306.577-.164.709-.418 1.418-.605l1.42-.192.799-.671s.596-.114.6.132c.021 1.095-.035 3.601-.035 3.601-.098 1.359.094 1.82-.236 2.472-.196.387-3.105.412-3.418.128-.416-.379-.603-.848-1.013-1.54zm-1.725-8.723c.03-1.693.044-3.615.154-4.407.042-.3.198-.152.227-.187.105-.127 1.454 1.775 2.795 3.6 1.353 1.838 2.57 2.769 2.355 3.375-.21.588-1.82.797-3.69 1.248l-1.913.463z"/>
</svg>
