<?xml version="1.0" encoding="UTF-8"?>
<svg version="1.1" viewBox="0 0 133.06 137.7" xmlns="http://www.w3.org/2000/svg" xmlns:cc="http://creativecommons.org/ns#" xmlns:dc="http://purl.org/dc/elements/1.1/" xmlns:rdf="http://www.w3.org/1999/02/22-rdf-syntax-ns#">
  <defs>
    <linearGradient id="linearGradient1049" x2="1" gradientTransform="matrix(0 -48.66 -48.66 0 873.93 421.04)" gradientUnits="userSpaceOnUse">
      <stop stop-color="#a4aec4" offset="0"/>
      <stop stop-color="#dca8a9" offset="1"/>
    </linearGradient>
  </defs>
  <metadata>
    <rdf:RDF>
      <cc:Work rdf:about="">
        <dc:format>image/svg+xml</dc:format>
        <dc:type rdf:resource="http://purl.org/dc/dcmitype/StillImage"/>
        <dc:title/>
      </cc:Work>
    </rdf:RDF>
  </metadata>
  <g transform="translate(-15.651 -3.0238)">
    <g transform="matrix(2.8298 0 0 -2.8298 -2390.8 1194.5)">
      <path d="m868.89 420.34c-1.987-0.58-3.794-1.494-5.074-3.216-0.093-0.124-0.277-0.204-0.434-0.252-2.363-0.712-4.61-1.663-6.614-3.132-0.115-0.084-0.259-0.136-0.396-0.177-1.277-0.38-2.554-0.759-3.833-1.128-0.279-0.08-0.44-0.217-0.535-0.512-0.955-2.95-1.482-5.973-1.573-9.069-0.069-2.313 0.125-4.611 0.581-6.878 0.044-0.219 0.09-0.437 0.139-0.654 0.414-1.863 0.992-3.691 1.738-5.447 0.703-1.756 1.664-3.44 2.718-5.007 0.435-0.647 0.895-1.279 1.378-1.892 0.776-0.987 1.613-1.927 2.504-2.811 1.372-1.359 2.879-2.58 4.491-3.642 1.974-1.3 4.047-2.414 6.324-3.103 1.117-0.339 2.236-0.678 3.358-1.004 0.16-0.046 0.349-0.047 0.511-0.01 4.83 1.079 9.11 3.251 12.842 6.499 1.624 1.414 3.082 2.986 4.37 4.712 1.836 2.46 3.267 5.142 4.283 8.037 1.357 3.867 1.942 7.85 1.726 11.952-0.15 2.854-0.674 5.63-1.542 8.348-0.077 0.242-0.198 0.381-0.439 0.453-0.741 0.221-1.482 0.44-2.214 0.687-0.873 0.296-1.843 0.329-2.59 0.973-0.232 0.199-0.495 0.365-0.758 0.519-1.69 0.982-3.482 1.726-5.354 2.286-0.2 0.06-0.384 0.221-0.539 0.372-0.422 0.405-0.789 0.873-1.241 1.237-1.461 1.183-3.184 1.818-5 2.173-1.294 0.252-2.587 0.386-3.876 0.386-1.661 0-3.315-0.222-4.951-0.7" fill="url(#linearGradient1049)"/>
    </g>
  </g>
</svg>
