<svg xmlns="http://www.w3.org/2000/svg" viewBox="0 0 841.373 841.373"><defs><filter style="color-interpolation-filters:sRGB" id="a"><feFlood flood-opacity=".804" flood-color="#2A1D04" result="flood"/><feComposite in="flood" in2="SourceGraphic" operator="in" result="composite1"/><feGaussianBlur in="composite1" stdDeviation="2" result="blur"/><feOffset dy="2.3" result="offset"/><feComposite in="SourceGraphic" in2="offset" result="composite2"/></filter></defs><circle style="fill:#f85555;fill-opacity:1;fill-rule:evenodd;stroke:#09021b;stroke-width:21.497;stroke-miterlimit:4;stroke-dasharray:none;stroke-opacity:1" cx="420.687" cy="420.687" r="409.938"/><path style="fill:#000;stroke-width:8.18931;filter:url(#a)" d="M240 754.6c-75.465-36.827-110.616-92.617-110.477-175.34.21-127.465 94.678-204.552 219.201-178.883 57.555 11.864 94.193 4.93 147.599-27.93 22.167-13.64 42.43-24.8 45.026-24.8 8.752 0-4.648 61.17-20.207 92.24-8.488 16.952-30.996 42.092-50.016 55.868-42.486 30.773-50.094 43.482-38.735 64.707 6.452 12.057 17.137 16.487 39.76 16.487 57.03 0 91.328-55.632 91.328-148.132 0-35.7 3.687-49.21 16.625-60.92 16.564-14.99 16.606-14.876 11.286 30.389-5.785 49.224 2.848 64.599 23.19 41.298 15.846-18.15 33.534-72.98 28.105-87.126-2.298-5.99-14.387-13.454-26.862-16.585-48.251-12.11-93.834-65.15-92.996-108.208.245-12.636 3.345-11.415 18.733 7.38 26.013 31.771 38.297 28.69 38.297-9.609 0-22.617-6.277-39.588-21.201-57.325-25.041-29.76-48.13-31.938-93.45-8.818-37.313 19.036-61.552 20.258-89.955 4.536l-20.347-11.263 32.63-5.903c17.948-3.248 39.386-9.398 47.642-13.667 14.26-7.375 14.3-8.548.82-23.445-18.141-20.045-61.562-32.048-116.15-32.106-53.184-.061-56.355-12.366-5-19.405 99.299-13.61 194.423 3.462 263.995 47.381 58.375 36.85 123.134 126.417 123.676 171.053.092 8.148 3.865 12.537 8.37 9.754 12.733-7.87 9.719-40.84-7.995-87.46-8.902-23.426-15.194-43.584-13.983-44.796 5.69-5.689 58.405 85.894 68.228 118.534 16.163 53.705 14.149 127.117-4.485 163.503-8.558 16.711-38.295 56.095-66.083 87.52-27.787 31.425-46.395 58.512-41.349 60.194 12.144 4.048 54.668-13.392 90.088-36.947 15.684-10.43 31.396-18.963 34.915-18.963 12.166 0-19.316 61.518-45.133 88.194-28.214 29.15-53.072 37.985-142.532 50.654-122.556 17.356-137.434 48.965-27.27 57.936l53.232 4.335-57.326 18.764c-43.339 14.186-83.3 19.754-163.786 22.825-100.56 3.837-108.732 2.955-147.408-15.92zm131.577-516.304c-36.857-44.98-36.858-52.376-.006-30.632 26.006 15.342 30.555 15.88 41.532 4.903 17.032-17.032 57.926-15.81 67.088 2.003 15.5 30.135-10.528 59.373-52.853 59.373-21.4 0-32.215-6.914-55.76-35.648zm-168.43-31.612c0-21.3-15.128-25.525-37.922-10.59-29.417 19.274-32.354 10.548-10.046-29.858 34.305-62.14 101.95-91.445 132.688-57.481 21.296 23.532 16.899 42.09-11.311 47.731-14.603 2.92-34.882 17.125-49.136 34.419-16.363 19.85-24.272 24.992-24.272 15.779z"/></svg>