<?xml version="1.0" encoding="UTF-8" standalone="no"?>
<svg
   xmlns:dc="http://purl.org/dc/elements/1.1/"
   xmlns:cc="http://creativecommons.org/ns#"
   xmlns:rdf="http://www.w3.org/1999/02/22-rdf-syntax-ns#"
   xmlns:svg="http://www.w3.org/2000/svg"
   xmlns="http://www.w3.org/2000/svg"
   xmlns:sodipodi="http://sodipodi.sourceforge.net/DTD/sodipodi-0.dtd"
   xmlns:inkscape="http://www.inkscape.org/namespaces/inkscape"
   viewBox="0 0 841.37323 841.37323"
   version="1.1"
   id="svg20187"
   sodipodi:docname="Red.svg"
   inkscape:version="1.0.1 (0767f8302a, 2020-10-17)">
  <metadata
     id="metadata20193">
    <rdf:RDF>
      <cc:Work
         rdf:about="">
        <dc:format>image/svg+xml</dc:format>
        <dc:type
           rdf:resource="http://purl.org/dc/dcmitype/StillImage" />
      </cc:Work>
    </rdf:RDF>
  </metadata>
  <defs
     id="defs20191">
    <filter
       style="color-interpolation-filters:sRGB"
       inkscape:label="Drop Shadow"
       id="filter20785">
      <feFlood
         flood-opacity="0.803922"
         flood-color="rgb(42,29,4)"
         result="flood"
         id="feFlood20775" />
      <feComposite
         in="flood"
         in2="SourceGraphic"
         operator="in"
         result="composite1"
         id="feComposite20777" />
      <feGaussianBlur
         in="composite1"
         stdDeviation="2"
         result="blur"
         id="feGaussianBlur20779" />
      <feOffset
         dx="0"
         dy="2.3"
         result="offset"
         id="feOffset20781" />
      <feComposite
         in="SourceGraphic"
         in2="offset"
         operator="over"
         result="composite2"
         id="feComposite20783" />
    </filter>
  </defs>
  <sodipodi:namedview
     pagecolor="#ffffff"
     bordercolor="#666666"
     borderopacity="1"
     objecttolerance="10"
     gridtolerance="10"
     guidetolerance="10"
     inkscape:pageopacity="0"
     inkscape:pageshadow="2"
     inkscape:window-width="1476"
     inkscape:window-height="1145"
     id="namedview20189"
     showgrid="false"
     fit-margin-top="0"
     fit-margin-left="0"
     fit-margin-right="0"
     fit-margin-bottom="0"
     inkscape:zoom="0.49333658"
     inkscape:cx="183.71607"
     inkscape:cy="329.06788"
     inkscape:window-x="0"
     inkscape:window-y="30"
     inkscape:window-maximized="0"
     inkscape:current-layer="svg20187" />
  <circle
     style="fill:#f85555;fill-opacity:1;fill-rule:evenodd;stroke:#09021b;stroke-width:21.497;stroke-miterlimit:4;stroke-dasharray:none;stroke-opacity:1"
     id="path20773"
     cx="420.68661"
     cy="420.68661"
     r="409.93811" />
  <path
     style="fill:#000000;stroke-width:8.18931;filter:url(#filter20785)"
     d="m 239.99964,754.60036 c -75.46431,-36.82744 -110.6156,-92.61708 -110.47618,-175.34124 0.20883,-127.46372 94.67772,-204.55075 219.20066,-178.8821 57.55485,11.86389 94.19312,4.9308 147.59842,-27.92952 22.16771,-13.64016 42.42956,-24.79956 45.0264,-24.79956 8.75235,0 -4.64827,61.16819 -20.20718,92.23935 -8.48825,16.9513 -30.99561,42.09174 -50.01554,55.86764 -42.48606,30.77327 -50.09416,43.4823 -38.73514,64.7066 6.45217,12.05736 17.13741,16.48759 39.76086,16.48759 57.02847,0 91.32663,-55.6318 91.32663,-148.13218 0,-35.70038 3.68704,-49.21033 16.62578,-60.91944 16.56375,-14.98955 16.60552,-14.87654 11.28532,30.38817 -5.78515,49.22445 2.84804,64.59911 23.18974,41.29881 15.84636,-18.15084 33.5341,-72.9811 28.1058,-87.12613 -2.29834,-5.99091 -14.38703,-13.45405 -26.86266,-16.58524 -48.25095,-12.11019 -93.83381,-65.14944 -92.99604,-108.20855 0.24568,-12.63531 3.34554,-11.41432 18.73371,7.37961 26.01322,31.77196 38.29723,28.69052 38.29723,-9.60793 0,-22.61722 -6.27713,-39.58819 -21.20158,-57.32567 -25.04094,-29.75923 -48.12934,-31.93779 -93.44931,-8.81746 -37.31389,19.03591 -61.55207,20.25816 -89.95575,4.53587 l -20.34661,-11.26259 32.63061,-5.90369 c 17.94693,-3.24728 39.38497,-9.39726 47.64105,-13.66718 14.25988,-7.3747 14.30104,-8.54782 0.81934,-23.44402 -18.1404,-20.045645 -61.56128,-32.048345 -116.14954,-32.106075 -53.18359,-0.0614 -56.35471,-12.36692 -4.99898,-19.40566 99.29835,-13.61067 194.42197,3.46225 263.99426,47.381235 58.37543,36.85078 123.13424,126.41705 123.67596,171.05343 0.0921,8.14797 3.86516,12.53705 8.3697,9.75349 12.73298,-7.86974 9.7191,-40.83939 -7.99503,-87.45955 -8.90161,-23.42682 -15.19347,-43.58487 -13.98227,-44.79608 5.68933,-5.68933 58.40428,85.89335 68.2278,118.53379 16.16268,53.70443 14.14872,127.1167 -4.4855,163.50315 -8.55765,16.71115 -38.29477,56.09489 -66.0824,87.51983 -27.78703,31.42494 -46.39485,58.51239 -41.34918,60.19407 12.14396,4.04819 54.66749,-13.39202 90.08779,-36.94721 15.68422,-10.42973 31.39607,-18.96281 34.91482,-18.96281 12.1667,0 -19.31536,61.51828 -45.13265,88.19361 -28.21389,29.15055 -53.0718,37.9852 -142.5319,50.65431 -122.55625,17.35607 -137.43402,48.96465 -27.26925,57.93627 l 53.23088,4.33503 -57.32576,18.76381 c -43.33857,14.18557 -83.29965,19.7539 -163.78628,22.82491 -100.56053,3.8369 -108.73123,2.95491 -147.40803,-15.92069 z M 371.57728,238.29575 c -36.85692,-44.97964 -36.85877,-52.37584 -0.006,-30.63198 26.00523,15.34269 30.55522,15.88012 41.5316,4.90316 17.03238,-17.03171 57.92582,-15.81068 67.08845,2.00352 15.49873,30.13447 -10.52861,59.37224 -52.85314,59.37224 -21.39935,0 -32.2148,-6.91405 -55.76016,-35.64756 z M 203.14763,206.68356 c 0,-21.30046 -15.12898,-25.52492 -37.92256,-10.59003 -29.41711,19.27476 -32.3536,10.54888 -10.04647,-29.8575 34.30554,-62.14047 101.95108,-91.445185 132.68811,-57.48115 21.29678,23.53247 16.89911,42.08929 -11.31111,47.73134 -14.6026,2.92052 -34.88165,17.12512 -49.13601,34.41854 -16.3629,19.85028 -24.27196,24.99175 -24.27196,15.7788 z"
     id="path16929"
     sodipodi:nodetypes="scssssssssssssssssssscssscsscsssssssssssscsssssssssssssssss" />
</svg>
