<svg xmlns="http://www.w3.org/2000/svg" viewBox="0 0 313.551 313.551"><defs><filter style="color-interpolation-filters:sRGB" id="a"><feFlood flood-opacity=".804" flood-color="#2A1D04" result="flood"/><feComposite in="flood" in2="SourceGraphic" operator="in" result="composite1"/><feGaussianBlur in="composite1" stdDeviation="2" result="blur"/><feOffset dy="2.3" result="offset"/><feComposite in="SourceGraphic" in2="offset" result="composite2"/></filter></defs><g transform="translate(43.532 32.103)"><circle style="fill:#804000;fill-opacity:1;fill-rule:evenodd;stroke:#1a1002;stroke-width:6.165;stroke-miterlimit:4;stroke-dasharray:none;stroke-opacity:1" cx="113.243" cy="124.673" r="153.693"/><path style="fill:#000;stroke-width:.352777;filter:url(#a)" d="M98.311 245.554c-15.033-37.763-20.028-50.322-26.13-65.705-3.926-9.896-7.247-18.292-7.38-18.66-.682-1.87-.452.501.831 8.606.778 4.913 1.346 9.002 1.262 9.086-.084.084-1.315-.597-2.736-1.514-3.802-2.453-20.39-14.068-20.394-14.28-.004-.101 5.793-10.34 12.879-22.755 11.251-19.715 13.138-22.822 14.904-24.55l2.023-1.976 15.998-.033 15.998-.033-.222 4.656c-.123 2.56-.61 16.8-1.082 31.643-.473 14.843-.947 29.051-1.055 31.574-.107 2.522-.673 19.19-1.257 37.041-.584 17.851-1.097 32.575-1.14 32.72-.042.146-1.167-2.474-2.499-5.82zm7.335-13.053c.09-.437.257-5.398.37-11.024.114-5.627.278-11.66.364-13.406.086-1.746.245-6.667.354-10.936.108-4.269.504-18.477.88-31.574.377-13.096.859-29.924 1.071-37.394.213-7.47.451-13.783.53-14.028.113-.352 3.888-.447 17.88-.447 15.213 0 22.829-.218 53.543-1.536 19.694-.844 35.838-1.511 35.877-1.482.038.029-2.82 2.149-6.35 4.71-3.531 2.562-13.399 9.74-21.928 15.952-8.53 6.212-15.601 11.295-15.716 11.295-.114 0-2.661-1.941-5.659-4.314l-10.711-8.48c-2.893-2.292-5.374-4.042-5.513-3.889-.138.153-.576 1.152-.973 2.219-.396 1.067-3.61 9.401-7.14 18.52-6.868 17.737-6.976 18.035-6.468 17.72.45-.277 17.147-4.172 17.287-4.032.098.098-7.824 12.311-24.624 37.964-8.286 12.653-16.877 25.846-19.935 30.617-2.735 4.265-3.455 5.079-3.139 3.545zM40.08 155.507c2.927-23.906 3.517-29.31 3.223-29.505-.186-.124-1.152-.33-2.146-.458s-5.379-.774-9.744-1.436c-4.366-.661-18.018-2.71-30.34-4.554a12892.57 12892.57 0 0 1-23.283-3.495c-.485-.079 18.684-.165 42.598-.191 23.914-.027 43.48.04 43.48.147 0 .197-22.077 38.239-23.328 40.198l-.676 1.058zm-72.344-42.695c.582-.477 2.09-1.563 3.352-2.415l2.293-1.549 125.765-.57c63.793.195 131.906 3.279 91.722.826-29.589.582-57.132 1.148-61.207 1.257-4.074.109-27.093.587-51.152 1.062-57.997 1.144-76.419 1.522-94.369 1.932-8.246.188-15.548.338-16.227.332l-1.235-.01 1.058-.866zm95.956-9.524c41.134-.632 92.33-1.41 113.77-1.727 21.44-.318 39.975-.613 41.188-.656 1.213-.043 2.206-.028 2.205.033 0 .061-1.674.894-3.72 1.852l-3.718 1.74-112.257-.045-112.257-.047zm-68.615-5.156c4.213-.243 36.671-1.471 59.972-2.27 3.007-.103 6.222-.24 7.144-.305.921-.065 1.675-.07 1.675-.012 0 .059-.814.755-1.81 1.547l-1.81 1.442-35.143-.054c-23.256-.035-33.413-.153-30.028-.348zm142.443-1.096 1.437-1.438 6.465.072c3.555.04 17.736.302 31.512.582 13.775.28 26.714.53 28.75.555 8.4.101.957.306-29.985.825-17.948.302-34.204.614-36.124.694l-3.493.147zM88.279 72.08 75.826 51.272l12.454-20.81c6.85-11.444 12.533-20.81 12.63-20.812.097-.002 5.783 9.364 12.635 20.815l12.458 20.819-12.45 20.803c-6.848 11.441-12.535 20.802-12.637 20.802-.101 0-5.788-9.364-12.637-20.808zM49.757 91.037c-16.695-.283-29.597-.803-22.754-.916 1.94-.033 13.529-.453 25.753-.934 12.224-.481 22.82-.877 23.548-.88l1.323-.004v3.218l-6.086-.109c-3.347-.06-13.15-.229-21.784-.375zm74.879-7.136.381-1.242h17.702c9.736 0 19.195-.07 21.02-.155 3.279-.153 3.289-.151.847.17-1.358.178-10.248.724-19.755 1.212-9.508.488-18.027.971-18.931 1.073l-1.646.185z" transform="translate(3.656 -16.534) scale(1.09629)"/></g></svg>