<?xml version="1.0"?>
<svg xmlns="http://www.w3.org/2000/svg" viewBox="0 0 118.393 118.393">
  <defs>
    <filter style="color-interpolation-filters:sRGB" id="a">
      <feFlood flood-opacity=".804" flood-color="#2A1D04" result="flood"/>
      <feComposite in="flood" in2="SourceGraphic" operator="in" result="composite1"/>
      <feGaussianBlur in="composite1" stdDeviation="2" result="blur"/>
      <feOffset dy="2.3" result="offset"/>
      <feComposite in="SourceGraphic" in2="offset" result="composite2"/>
    </filter>
  </defs>
  <circle style="fill:#00ffc0;fill-opacity:1;fill-rule:evenodd;stroke:#1e0b14;stroke-width:3.7;stroke-miterlimit:4;stroke-dasharray:none;stroke-opacity:1" cx="59.196" cy="59.196" r="57.346"/>
  <path style="fill:#000;stroke-width:.102533;filter:url(#a)" d="M54.944 110.527c-6.274-4.3-12.317-10.517-14.436-14.85-.225-.462-.44-.842-.475-.846-.128-.014-.165.771-.076 1.595.356 3.314 3.232 9.897 5.783 13.238.197.258.34.488.318.51-.055.055-2.298-.51-3.769-.95-2.943-.877-5.917-2.165-8.934-3.868l-1.104-.623-.824-1.515c-2.808-5.164-5.55-11.942-6.613-16.34-.575-2.381-.954-5.383-.806-6.374.094-.622-.07-.562-.46.17-.67 1.257-1.099 2.962-1.353 5.383-.142 1.352-.153 6.595-.018 8.587.045.663.055 1.205.022 1.205s-.385-.45-.782-1c-3.644-5.045-5.466-10.092-5.64-15.622-.21-6.662 1.583-12.5 5.39-17.55 2.003-2.66 4.472-5.054 9.754-9.46 2.559-2.134 5.005-4.523 5.98-5.84.844-1.139 1.64-2.707 1.923-3.794.273-1.048.37-2.801.202-3.66-.506-2.59-2.686-5.434-5.734-7.479-1.343-.9-2.016-1.24-3.34-1.683-2.412-.807-4.842-.47-7.275 1.01-2.344 1.425-4.154 3.642-4.633 5.673-.41 1.742.184 4.551 1.327 6.27.908 1.366 2.204 2.358 3.795 2.906 1.718.593 3.383.605 5.177.038 1.794-.567 3.287-2.026 3.813-3.726.224-.726.27-2.206.092-2.977-.493-2.141-2.51-3.484-5.069-3.375-.77.032-1.036.092-1.61.36-.843.395-1.545 1.077-1.91 1.856-.233.497-.274.72-.274 1.506 0 .843.028.973.318 1.487.376.668 1.11 1.265 1.836 1.494.282.09.581.188.666.219.284.104-.857.338-1.678.345-1.303.01-2.163-.529-2.775-1.736-1.062-2.095-.785-5.059.64-6.851 1.612-2.027 5.312-2.778 8.248-1.675.993.373 1.53.724 2.342 1.533.624.62.875.97 1.26 1.75.69 1.396.926 2.606.842 4.306-.297 6.03-3.634 9.225-9.635 9.228-2.743 0-5.078-.635-6.989-1.904-1.306-.867-2.705-2.673-3.442-4.445-.334-.802-.81-2.53-.81-2.943 0-.134-.045-.244-.102-.244-.065 0-.102-.752-.102-2.05 0-1.299.037-2.05.102-2.05.057 0 .103-.134.103-.298 0-.49.57-2.568.948-3.458 1.715-4.03 5.624-6.634 10.843-7.225 1.48-.168 3.984-.054 6.024.273l.436.07v-.45c.001-1.22.477-2.887 1.149-4.037.576-.985 1.96-2.334 2.987-2.913 1.542-.869 3.718-1.444 5.461-1.444h.856l-.075-.333c-.04-.184-.071-.772-.069-1.308.006-1.027.156-1.645.636-2.614.819-1.656 2.515-2.924 4.555-3.407.413-.098.766-.213.785-.257.044-.102 3.68-.104 3.726-.003.018.043.38.164.803.269 1.605.4 3.16 1.303 4.488 2.608.696.685 2.1 2.384 2.375 2.876.076.136.272-.01 1.107-.82 1.877-1.821 3.88-3.075 5.933-3.713 2.177-.676 4.847-.755 7.116-.208.854.205 2.38.943 2.973 1.437 2.428 2.02 3.064 5.48 1.571 8.548-.932 1.917-2.856 3.384-4.903 3.74-2.215.386-4.521-.652-5.312-2.389-.279-.614-.29-1.6-.026-2.376.244-.719 1.344-1.839 2.308-2.351l.661-.351-.558.56a4.542 4.542 0 0 0-1.257 2.405c-.14.82.067 1.421.67 1.937.606.52 1.257.705 2.286.65 1.463-.076 2.617-.832 3.287-2.15.378-.744.473-1.32.347-2.11-.348-2.173-2.134-3.45-4.815-3.444-1.703.004-3.114.49-4.522 1.556-3.003 2.275-5.328 7.296-5.596 12.082-.055.994.073 2.551.233 2.816.022.036 1.32-.416 2.886-1.004 3.272-1.23 6.88-2.476 8.256-2.851.897-.244 3.018-.521 5.92-.773.705-.062 3.012-.154 5.126-.206 3.994-.098 5.193-.19 6.665-.51 2.296-.498 3.31-1.267 3.31-2.511 0-1.67-1.99-3.292-4.96-4.043-1.911-.483-3.943-.069-4.303.878-.204.536.542 1.326 1.852 1.96l.769.373-.41.125c-.997.303-2.248.09-3.046-.519-.906-.692-1.594-2.186-1.467-3.186.131-1.036.777-1.717 2.018-2.128.957-.318 3.68-.31 5.21.016 2.936.625 5.181 2.044 6.538 4.131 1.855 2.852 1.363 5.235-1.35 6.543-1.433.69-3.303 1.093-5.568 1.199l-1.356.063.209.266c.503.644 1.326 1.957 1.565 2.497.143.324.303.589.355.589.053 0 .284-.067.514-.148.23-.081.944-.265 1.586-.41 3.18-.713 6.408-.447 8.782.724.795.392 1.127.635 1.858 1.36.727.722.966 1.043 1.309 1.755 1.81 3.766.868 8.742-2.105 11.112l-.627.5.58.485c2.098 1.756 3.635 4.447 4.327 7.576.275 1.242.27 3.035-.011 4.149-.748 2.96-3.285 5.74-6.023 6.596-.685.214-.981.256-1.521.213-1.716-.138-3.803-1.89-4.473-3.754-.408-1.137-.177-2.95.5-3.927.63-.908 1.711-1.367 3.218-1.366.536 0 1.157.039 1.381.085l.407.085-.715.28c-1.24.485-2.202 1.215-2.682 2.033-.226.388-.256.535-.21 1.042.067.747.36 1.323.914 1.797 1.097.939 2.541.871 4.025-.188 2.29-1.633 3.086-4.992 1.775-7.484-.446-.849-1.759-2.134-2.799-2.74-1.033-.602-2.435-1.156-3.45-1.363-1.336-.273-3.49-.185-5.096.207-.787.192-1.99.75-2.39 1.109-.272.244-.279.28-.33 1.718-.173 4.803-1.686 8.488-4.729 11.517-1.228 1.223-2.33 2.031-3.76 2.757-3.433 1.742-7.102 1.996-9.768.676-3.085-1.527-5.182-5.332-4.94-8.96.238-3.548 2.61-5.548 6.836-5.765 1.09-.056 2.63.07 2.899.237.06.037-.395.194-1.01.35-2.736.69-4.294 1.72-5.033 3.33-.24.524-.286.775-.323 1.805-.052 1.436.132 2.411.653 3.453.82 1.639 2.63 2.717 4.557 2.715 3.477-.006 7.851-3.615 9.33-7.699.952-2.633.761-5.088-.611-7.868-.71-1.436-1.332-2.292-2.415-3.32-3.626-3.445-9.733-4.326-15.77-2.275-3.752 1.275-7.238 3.468-10.711 6.738-7.853 7.396-12.821 18.58-11.768 26.493.664 4.98 2.943 10.241 6.171 14.241 2.333 2.89 5.487 5.4 8.96 7.124 4.13 2.052 8.285 3.104 13.662 3.457 8.24.542 15.075-1.344 20.093-5.544 2.168-1.814 4.056-4.297 4.982-6.552.396-.965.475-1.81.243-2.63-.186-.66-.752-1.505-1.233-1.841-.376-.264-.535-.31-1.028-.301-.693.012-1.454.32-1.949.789-.234.222-.31.26-.238.119.152-.296 1.053-1.12 1.445-1.324.962-.497 2.09-.25 2.99.652 1.081 1.084 1.457 2.39 1.235 4.302-.294 2.543-1.27 4.288-4.138 7.396-4.357 4.723-7.82 7.47-12.277 9.734-6.231 3.167-13.59 4.803-22.865 5.085l-2.102.063zm34.062-65.314c1.993-.475 1.863-.395 1.486-.908-.46-.624-.791-1.517-.936-2.52-.235-1.624.17-2.789 1.4-4.027.898-.904 1.964-1.48 2.74-1.48 1.113 0 2.817.663 3.7 1.441.269.236.47.447.448.47-.022.021-.266-.063-.542-.189-.773-.35-2.142-.332-2.933.038-.712.334-1.392.994-1.728 1.677-.203.412-.251.667-.251 1.33 0 .713.043.913.334 1.525.183.388.498.929.698 1.202l.365.498h1.762c.97.001 1.938.045 2.153.097.37.09.425.068 1.026-.391 1.346-1.03 2.374-2.602 2.7-4.13.286-1.34.067-3.112-.529-4.286-.85-1.675-2.721-2.544-5.228-2.43-2.361.11-5.464 1.464-6.328 2.765-.846 1.274-2.521 2.954-4.147 4.157-.908.672-.898.755.303 2.546.525.781 1.136 1.78 1.36 2.218.266.525.457.788.558.768.085-.016.8-.183 1.59-.37zm-7.83-8.387c1.64-.569 3.348-2.141 4.217-3.88.356-.714.421-1.108.28-1.693-.421-1.759-3.484-2.86-5.04-1.811-1.014.683-1.179 2.054-.386 3.207.347.503.337.511-.378.299-1.543-.459-2.197-1.54-1.89-3.13.05-.254.07-.481.046-.505-.107-.108-8.218 3.557-11.018 4.978-1.159.588-2.282 1.214-2.496 1.39-.634.523-.332.55 1.912.168 1.765-.3 2.18-.335 3.922-.332 2.468.006 2.869.076 7.895 1.385.902.234 2.13.203 2.935-.076zm-33.797-.037c.477-.527 2.639-1.746 5.126-2.891l1.743-.803-.027-.895c-.014-.492-.071-2.003-.127-3.356-.056-1.353-.101-2.945-.1-3.537l.001-1.077 1.298-2.307 1.298-2.307.001-1.077c.003-1.59-.385-2.698-1.431-4.09-.969-1.289-2.99-2.577-4.607-2.937-1.58-.351-3.066-.108-4.037.66-.972.77-1.472 2.622-1.134 4.198.101.472.14.517.568.681.728.278 2.184 1.292 2.924 2.036.374.376.725.683.78.683.194 0 1.035-.714 1.248-1.06.439-.71.2-1.635-.608-2.366-.41-.37-1.34-.877-1.611-.88-.07 0-.129-.053-.129-.117 0-.145 1.813-.059 2.387.114.45.135 1.046.626 1.259 1.038.447.865.397 2.143-.128 3.252-.259.547-.97 1.383-1.253 1.472-.11.034-.008.327.425 1.218 1.195 2.46 1.54 4.314 1.165 6.266-.392 2.038-1.402 3.642-2.921 4.633-.895.585-1.563.854-2.483 1.002-.416.067-.77.13-.784.14-.014.012.105.34.267.73.16.391.354.952.43 1.247.075.295.168.536.205.536.037 0 .15-.092.254-.206zm-.45-4.717c.591-.164 1.27-.84 1.679-1.671 1.335-2.712.61-5.954-1.896-8.489-1.44-1.455-2.632-2.04-4.162-2.04-1.347 0-2.472.488-3.409 1.479-1.294 1.368-1.667 3.473-.921 5.206.184.427.3.537.962.9.414.227.773.413.797.413.025 0 .077-.17.116-.379.173-.922 1.097-2.153 2.1-2.797.267-.17.793-.386 1.17-.48 1.25-.308 2.93.107 3.586.886.42.5.577 1.3.38 1.95l-.077.256-.074-.27c-.04-.148-.235-.425-.431-.615-.334-.324-.4-.345-1.043-.34-.93.005-1.673.378-2.485 1.246-1.24 1.326-1.192 2.583.14 3.635 1.251.99 2.55 1.393 3.568 1.11z"/>
</svg>
