<?xml version="1.0" encoding="UTF-8" standalone="no"?>
<svg
   xmlns:dc="http://purl.org/dc/elements/1.1/"
   xmlns:cc="http://creativecommons.org/ns#"
   xmlns:rdf="http://www.w3.org/1999/02/22-rdf-syntax-ns#"
   xmlns:svg="http://www.w3.org/2000/svg"
   xmlns="http://www.w3.org/2000/svg"
   xmlns:sodipodi="http://sodipodi.sourceforge.net/DTD/sodipodi-0.dtd"
   xmlns:inkscape="http://www.inkscape.org/namespaces/inkscape"
   viewBox="0 0 313.55118 313.55118"
   version="1.1"
   id="svg17572"
   inkscape:version="1.0.1 (0767f8302a, 2020-10-17)"
   sodipodi:docname="Jund Shard.svg">
  <defs
     id="defs17566">
    <filter
       style="color-interpolation-filters:sRGB"
       inkscape:label="Drop Shadow"
       id="filter18151">
      <feFlood
         flood-opacity="0.803922"
         flood-color="rgb(42,29,4)"
         result="flood"
         id="feFlood18141" />
      <feComposite
         in="flood"
         in2="SourceGraphic"
         operator="in"
         result="composite1"
         id="feComposite18143" />
      <feGaussianBlur
         in="composite1"
         stdDeviation="2"
         result="blur"
         id="feGaussianBlur18145" />
      <feOffset
         dx="0"
         dy="2.3"
         result="offset"
         id="feOffset18147" />
      <feComposite
         in="SourceGraphic"
         in2="offset"
         operator="over"
         result="composite2"
         id="feComposite18149" />
    </filter>
  </defs>
  <sodipodi:namedview
     id="base"
     pagecolor="#ffffff"
     bordercolor="#666666"
     borderopacity="1.0"
     inkscape:pageopacity="0.0"
     inkscape:pageshadow="2"
     inkscape:zoom="1.4"
     inkscape:cx="55.64709"
     inkscape:cy="197.84087"
     inkscape:document-units="mm"
     inkscape:current-layer="layer1"
     inkscape:document-rotation="0"
     showgrid="false"
     fit-margin-top="0"
     fit-margin-left="0"
     fit-margin-right="0"
     fit-margin-bottom="0"
     inkscape:window-width="1647"
     inkscape:window-height="1212"
     inkscape:window-x="896"
     inkscape:window-y="95"
     inkscape:window-maximized="0" />
  <metadata
     id="metadata17569">
    <rdf:RDF>
      <cc:Work
         rdf:about="">
        <dc:format>image/svg+xml</dc:format>
        <dc:type
           rdf:resource="http://purl.org/dc/dcmitype/StillImage" />
        <dc:title></dc:title>
      </cc:Work>
    </rdf:RDF>
  </metadata>
  <g
     inkscape:label="Layer 1"
     inkscape:groupmode="layer"
     id="layer1"
     transform="translate(43.532367,32.102832)">
    <circle
       style="fill:#804000;fill-opacity:1;fill-rule:evenodd;stroke:#1a1002;stroke-width:6.165;stroke-miterlimit:4;stroke-dasharray:none;stroke-opacity:1"
       id="path18153"
       cx="113.24322"
       cy="124.67275"
       r="153.69308" />
    <path
       style="fill:#000000;stroke-width:0.352777;filter:url(#filter18151)"
       d="m 98.311024,245.55362 c -15.0328,-37.76212 -20.02769,-50.32178 -26.13025,-65.70472 -3.92559,-9.89541 -7.24683,-18.2922 -7.38052,-18.65952 -0.68101,-1.8711 -0.4517,0.50084 0.83187,8.60536 0.77817,4.91331 1.34604,9.00212 1.26193,9.08623 -0.0841,0.0841 -1.31527,-0.59708 -2.73589,-1.51376 -3.80252,-2.45363 -20.38946,-14.06863 -20.39419,-14.28102 -0.004,-0.10018 5.7931,-10.33956 12.87854,-22.75416 11.2518,-19.71463 13.1386,-22.82231 14.90485,-24.54919 l 2.02226,-1.97716 15.99835,-0.0326 15.998326,-0.0326 -0.2228,4.65557 c -0.12253,2.56056 -0.60928,16.79994 -1.08167,31.64307 -0.47236,14.84312 -0.94684,29.05125 -1.05434,31.57361 -0.10753,2.52236 -0.67344,19.19111 -1.25762,37.04167 -0.58417,17.85056 -1.09683,32.57455 -1.13921,32.71999 -0.0424,0.14543 -1.167242,-2.47394 -2.499636,-5.82084 z m 7.335216,-13.05263 c 0.09,-0.43656 0.25661,-5.3975 0.37015,-11.0243 0.11356,-5.62681 0.27712,-11.65931 0.36348,-13.40556 0.0864,-1.74625 0.24554,-6.6675 0.35367,-10.93611 0.10816,-4.26862 0.50453,-18.47674 0.88085,-31.57362 0.37634,-13.09687 0.85812,-29.92437 1.07066,-37.39444 0.21257,-7.47007 0.45104,-13.78279 0.52996,-14.02826 0.11319,-0.35207 3.88843,-0.44632 17.87962,-0.44634 15.21338,-3e-5 22.8292,-0.21849 53.54307,-1.53586 19.69381,-0.84471 35.83845,-1.51194 35.87692,-1.48274 0.0385,0.0292 -2.81901,2.14885 -6.35,4.71033 -3.53097,2.56148 -13.39842,9.73988 -21.92761,15.952 -8.52916,6.21211 -15.60134,11.29476 -15.71586,11.29476 -0.11453,0 -2.66112,-1.94129 -5.65904,-4.31398 -2.99794,-2.37268 -7.81793,-6.18885 -10.71115,-8.48037 -2.89317,-2.29152 -5.37385,-4.04117 -5.51267,-3.88811 -0.13878,0.15306 -0.57677,1.15141 -0.97327,2.21857 -0.39651,1.06715 -3.60982,9.40153 -7.14066,18.52083 -6.86705,17.7358 -6.97582,18.03392 -6.46718,17.71957 0.44931,-0.27771 17.14651,-4.17255 17.28671,-4.03236 0.0982,0.0982 -7.82339,12.31137 -24.6235,37.96365 -8.28662,12.65296 -16.8773,25.84646 -19.9358,30.61727 -2.7342,4.26496 -3.45453,5.07867 -3.13835,3.54507 z M 40.079704,155.50724 c 2.92719,-23.90582 3.51766,-29.31047 3.2235,-29.50569 -0.18654,-0.12382 -1.15229,-0.32975 -2.14609,-0.45763 -0.9938,-0.12788 -5.3788,-0.77388 -9.74442,-1.43555 -4.36563,-0.66167 -18.01813,-2.71105 -30.3388707,-4.55416 -12.3207793,-1.84311 -22.7982793,-3.41575 -23.2833593,-3.49475 -0.48506,-0.079 18.6839993,-0.16526 42.59791,-0.19168 23.91394,-0.0264 43.47988,0.0398 43.47988,0.14713 0,0.19726 -22.0772,38.23901 -23.32847,40.19788 l -0.67606,1.05833 z m -72.34341,-42.69556 c 0.58208,-0.47631 2.09021,-1.56298 3.3514,-2.41483 l 2.29306,-1.54881 125.765272,-0.57011 c 63.793014,0.19499 131.905674,3.27864 91.722214,0.82579 -29.58923,0.58221 -57.13236,1.14783 -61.20694,1.25693 -4.07458,0.1091 -27.09333,0.58697 -51.152776,1.06191 -57.99624,1.14488 -76.4181507,1.52206 -94.36806,1.93213 -8.24617,0.18838 -15.54867,0.33813 -16.22777,0.33276 l -1.23473,-0.01 1.05833,-0.86601 z m 95.95556,-9.52341 c 41.133906,-0.63265 92.330786,-1.40998 113.770846,-1.72741 21.44006,-0.31743 39.97444,-0.61247 41.18753,-0.65566 1.21311,-0.0432 2.2053,-0.0285 2.20488,0.0327 0,0.0612 -1.67418,0.89459 -3.71949,1.85208 l -3.71872,1.74087 -112.25697,-0.0462 -112.256966,-0.0462 z M -4.9234067,98.132285 c 4.21309008,-0.24293 36.6715907,-1.47168 59.9722007,-2.27031 3.00744,-0.10308 6.22213,-0.24047 7.14375,-0.30531 0.92165,-0.0649 1.67571,-0.0701 1.67571,-0.0116 0,0.0585 -0.81449,0.75482 -1.80996,1.54743 l -1.81001,1.441121 -35.14347,-0.0532 c -23.2559207,-0.0352 -33.4132007,-0.15297 -30.0282207,-0.34815 z m 142.4432067,-1.09676 1.43732,-1.43732 6.46462,0.0722 c 3.55549,0.0397 17.73581,0.30156 31.51179,0.58188 13.77596,0.28032 26.71411,0.52984 28.7514,0.55448 8.39944,0.10163 0.95578,0.3066 -29.98613,0.82571 -17.94756,0.30111 -34.20343,0.61337 -36.12412,0.69391 l -3.49221,0.14645 z m -49.241056,-24.95489 -12.45254,-20.80856 12.45367,-20.80933 c 6.84949,-11.44513 12.533036,-20.8110054 12.630056,-20.8130654 0.097,-0.002 5.78268,9.3648054 12.63483,20.8152654 l 12.45846,20.81902 -12.45079,20.80261 c -6.84789,11.44144 -12.5341,20.80262 -12.63597,20.80262 -0.10186,0 -5.788816,-9.36385 -12.637716,-20.80856 z m -38.52162,18.9566 c -16.69555,-0.28349 -29.59671,-0.8032 -22.75416,-0.91662 1.94029,-0.0322 13.52904,-0.45223 25.75279,-0.93349 12.22375,-0.48126 22.82031,-0.87705 23.54792,-0.87953 l 1.32292,-0.005 v 1.60901 1.60901 l -6.08542,-0.10865 c -3.34701,-0.0598 -13.14979,-0.22861 -21.78405,-0.37522 z m 74.878596,-7.13578 0.38148,-1.24282 h 17.7019 c 9.73603,0 19.1947,-0.0696 21.01926,-0.15476 3.27962,-0.153 3.28928,-0.15107 0.84794,0.16973 -1.35819,0.17847 -10.24819,0.72398 -19.75556,1.21223 -9.50736,0.48826 -18.02644,0.97115 -18.93123,1.07309 l -1.64518,0.18536 z"
       id="path16929"
       sodipodi:nodetypes="cssssscsscccsssssccsssssssssssssssssssssssssssssssscscscccssscccccsscsccccssssscsssccsssssccscsssccsscsscccccccccssssscc"
       transform="matrix(1.096292,0,0,1.096292,3.6561652,-16.533558)" />
  </g>
</svg>
