<svg xmlns="http://www.w3.org/2000/svg" viewBox="0 0 229.465 229.465"><defs><filter style="color-interpolation-filters:sRGB" id="a"><feFlood flood-opacity=".804" flood-color="#2A1D04" result="flood"/><feComposite in="flood" in2="SourceGraphic" operator="in" result="composite1"/><feGaussianBlur in="composite1" stdDeviation="2" result="blur"/><feOffset dy="2.3" result="offset"/><feComposite in="SourceGraphic" in2="offset" result="composite2"/></filter></defs><g transform="translate(7.635 -16.47)"><circle style="fill:#7dfee0;fill-rule:evenodd;stroke:#010c09;stroke-width:4.265;stroke-miterlimit:4;stroke-dasharray:none;stroke-opacity:.900373;fill-opacity:1" cx="107.098" cy="131.201" r="112.6"/><path style="fill:#000;stroke-width:.352777;filter:url(#a)" d="M102.428 235.633c-2.864-.16-10.001-.853-10.131-.983-.054-.054 2.295-2.466 5.22-5.36 8.328-8.244 15.79-17.607 20.983-26.328 12.797-21.492 14.826-41.905 5.928-59.635-2.771-5.52-6.36-10.36-11.88-16.022l-4.185-4.292 3.337-3.645c8.566-9.36 20.359-18.416 31.41-24.125 11.436-5.906 21.738-8.779 33.048-9.216 8.08-.312 16.221.798 23.27 3.172 3.233 1.089 3.368 1.178 4.343 2.855 1.6 2.752 3.659 7.909 4.341 10.876.346 1.501.56 2.799.474 2.884-.085.085-1.106-.07-2.268-.343-7.713-1.814-19.596-2.039-26.808-.508-7.674 1.629-15.195 4.897-20.764 9.024-3.16 2.34-9.18 7.9-9.79 9.04-.248.463.11 1.54 1.431 4.3 3.224 6.734 6.47 15.424 8.448 22.615 7.947 28.894 4.633 53.45-9.663 71.6-3.82 4.851-12.235 12.666-14.059 13.057-2.65.569-27.146 1.343-32.685 1.034zM70.68 222.765c-1.648-.162-4.188-.556-5.645-.876-3.378-.743-9.178-2.583-9.165-2.907.006-.136.856-.76 1.89-1.385 5.296-3.204 14.661-10.98 20.053-16.65 13.03-13.703 17.13-26.591 12.086-37.994-1.465-3.314-4.737-7.964-7.582-10.775-5.882-5.812-13.157-7.572-20.719-5.013-2.71.917-6.441 2.904-9.016 4.803-1.318.972-2.455 1.707-2.527 1.634-.774-.78-5.563-9.361-8.337-14.943-9.175-18.455-13.982-35.168-15.142-52.637-.54-8.12.326-19.56 1.63-21.559 2.594-3.973 12.691-14.592 15.285-16.074 1.127-.644 1.15-.644.954 0-.11.362-.475 3.437-.812 6.832-.87 8.786-.875 27.49-.009 34.573 1.544 12.619 4.61 22.562 8.677 28.134l1.094 1.499h4.33c6.903 0 16.083 1.337 23.212 3.382 15.056 4.317 26.65 13.034 32.336 24.311 1.547 3.068 3.147 7.806 4.029 11.928.636 2.976.773 4.809.796 10.65.025 6.609-.033 7.279-.926 10.584-7.967 29.481-24.55 44.634-46.492 42.483zm103.389-10.46c8.688-25.837 7.637-51.266-3.018-72.946-2.198-4.473-4.894-8.976-7.439-12.423-.565-.764-.53-.81 1.663-2.21 3.228-2.06 9.923-5.417 12.999-6.519 10.795-3.866 19.577-3.338 26.993 1.622 2.878 1.925 5.38 4.532 7.137 7.436l1.145 1.893-.53 4.571c-3.114 26.856-12.79 50.84-28.271 70.074-3.584 4.453-9.472 10.802-11.08 11.946l-.997.71zM35.576 204.74c-4.076-3.22-11.07-10.249-13.826-13.891-11.209-14.82-16.935-31.465-18.079-52.551-.77-14.188 1.399-33.047 4.44-38.627 1.627-2.983 6.892-11.342 7.047-11.187.066.066-.056 2.881-.27 6.256-.988 15.542 1.742 31.982 7.654 46.094 5.625 13.426 14.71 25.321 24.323 31.848 9.495 6.448 18.445 6.826 26.027 1.101 1.987-1.5 4.253-3.982 5.485-6.01l.716-1.176.246 1.313c.492 2.62-.084 12.875-.892 15.899-1.04 3.89-3.462 8.723-5.762 11.495-6.12 7.379-17.796 11.989-30.275 11.955l-3.659-.01-3.175-2.51zm58.951-85.711c-3.7-3.463-5.699-6.188-7.821-10.669-3.17-6.692-4.475-15.003-3.734-23.777.703-8.314 1.692-12.194 6.499-25.493 1.972-5.455 3.955-12.365 6.782-23.624l2.17-8.643 2.267-.403c3.353-.596 11.967-.57 15.496.046 1.65.288 4.403.952 6.12 1.476 3.522 1.076 3.762 1.361 3.751 4.46-.029 8.286-4.113 22.42-9.572 33.127-2.5 4.903-4.394 7.859-8.544 13.329-4.82 6.354-7.574 12.543-9.455 21.246-.673 3.117-.785 4.735-.802 11.562-.01 4.366.096 8.453.237 9.084.14.63.124 1.147-.036 1.147s-1.672-1.291-3.357-2.868zm12.489-14.144c7.207-20.652 12.682-33.992 20.384-49.664 4.768-9.702 7.604-16.167 9.148-20.853l.9-2.733 5.156 1.788c10.236 3.551 18.85 7.685 19.83 9.515.284.53.016 2.591-1.122 8.61-.822 4.351-1.423 7.983-1.336 8.07.087.087 3.642-.81 7.899-1.993l7.74-2.153 2.641 1.36c9.173 4.722 16.551 13.818 20.664 25.473 1.147 3.251 1.156 3.324.407 3.158-21.232-4.692-39.44-4.898-55.82-.63-8.155 2.126-16.772 6.056-23.081 10.527-4.15 2.941-10.494 9.155-13.406 13.13a262.69 262.69 0 0 1-2.287 3.097c-.05.054.977-2.962 2.283-6.702zM69.9 98.867C59.41 81.57 55.413 62.53 59.047 47.164c.856-3.616 2.394-8.204 2.937-8.759.222-.227 2.388-1.24 4.813-2.25 2.425-1.012 5.174-2.223 6.108-2.692 3.617-1.818 3.562-1.864 1.843 1.578-3.115 6.24-5.415 13.83-6.775 22.369-.973 6.104-.887 20.935.16 27.526.746 4.702 2.3 11.687 3.394 15.248.295.961.493 1.79.441 1.842-.051.052-.982-1.37-2.067-3.159z"/></g></svg>