<?xml version="1.0" encoding="UTF-8" standalone="no"?>
<svg
   xmlns:dc="http://purl.org/dc/elements/1.1/"
   xmlns:cc="http://creativecommons.org/ns#"
   xmlns:rdf="http://www.w3.org/1999/02/22-rdf-syntax-ns#"
   xmlns:svg="http://www.w3.org/2000/svg"
   xmlns="http://www.w3.org/2000/svg"
   xmlns:sodipodi="http://sodipodi.sourceforge.net/DTD/sodipodi-0.dtd"
   xmlns:inkscape="http://www.inkscape.org/namespaces/inkscape"
   viewBox="0 0 229.46472 229.46472"
   version="1.1"
   id="svg19504"
   inkscape:version="1.0.1 (0767f8302a, 2020-10-17)"
   sodipodi:docname="Bant Shard.svg">
  <defs
     id="defs19498">
    <filter
       style="color-interpolation-filters:sRGB"
       inkscape:label="Drop Shadow"
       id="filter20085">
      <feFlood
         flood-opacity="0.803922"
         flood-color="rgb(42,29,4)"
         result="flood"
         id="feFlood20075" />
      <feComposite
         in="flood"
         in2="SourceGraphic"
         operator="in"
         result="composite1"
         id="feComposite20077" />
      <feGaussianBlur
         in="composite1"
         stdDeviation="2"
         result="blur"
         id="feGaussianBlur20079" />
      <feOffset
         dx="0"
         dy="2.3"
         result="offset"
         id="feOffset20081" />
      <feComposite
         in="SourceGraphic"
         in2="offset"
         operator="over"
         result="composite2"
         id="feComposite20083" />
    </filter>
  </defs>
  <sodipodi:namedview
     id="base"
     pagecolor="#ffffff"
     bordercolor="#666666"
     borderopacity="1.0"
     inkscape:pageopacity="0.0"
     inkscape:pageshadow="2"
     inkscape:zoom="1.4"
     inkscape:cx="124.09753"
     inkscape:cy="253.7715"
     inkscape:document-units="mm"
     inkscape:current-layer="layer1"
     inkscape:document-rotation="0"
     showgrid="false"
     inkscape:window-width="1647"
     inkscape:window-height="1212"
     inkscape:window-x="896"
     inkscape:window-y="95"
     inkscape:window-maximized="0"
     fit-margin-top="0"
     fit-margin-left="0"
     fit-margin-right="0"
     fit-margin-bottom="0" />
  <metadata
     id="metadata19501">
    <rdf:RDF>
      <cc:Work
         rdf:about="">
        <dc:format>image/svg+xml</dc:format>
        <dc:type
           rdf:resource="http://purl.org/dc/dcmitype/StillImage" />
        <dc:title></dc:title>
      </cc:Work>
    </rdf:RDF>
  </metadata>
  <g
     inkscape:label="Layer 1"
     inkscape:groupmode="layer"
     id="layer1"
     transform="translate(7.6346438,-16.469131)">
    <circle
       style="fill:#7dfee0;fill-rule:evenodd;stroke:#010c09;stroke-width:4.265;stroke-miterlimit:4;stroke-dasharray:none;stroke-opacity:0.900373;fill-opacity:1"
       id="path20073"
       cx="107.09772"
       cy="131.20149"
       r="112.59986" />
    <path
       style="fill:#000000;stroke-width:0.352777;filter:url(#filter20085)"
       d="m 102.42766,235.6328 c -2.863296,-0.16001 -10.000616,-0.85264 -10.131126,-0.98316 -0.0533,-0.0533 2.29593,-2.46558 5.22053,-5.3605 8.327996,-8.24322 15.790496,-17.60643 20.983096,-26.32732 12.7968,-21.492 14.8256,-41.90448 5.9274,-59.63449 -2.7708,-5.5209 -6.359,-10.3605 -11.879,-16.02208 l -4.1853,-4.29262 3.3363,-3.64488 c 8.5666,-9.35907 20.3594,-18.41614 31.4113,-24.12434 11.435,-5.90606 21.7374,-8.77913 33.0473,-9.21595 8.0792,-0.31204 16.2211,0.79764 23.2692,3.17143 3.2335,1.08905 3.3685,1.17777 4.3439,2.8553 1.5997,2.75132 3.65839,7.90879 4.34119,10.87586 0.3455,1.50118 0.5586,2.79894 0.4736,2.88393 -0.085,0.085 -1.1057,-0.0692 -2.2683,-0.34259 -7.71309,-1.81394 -19.59609,-2.03935 -26.80819,-0.50854 -7.6735,1.62877 -15.1949,4.89745 -20.7638,9.02367 -3.159,2.34064 -9.1799,7.90035 -9.7898,9.03988 -0.2483,0.46393 0.11,1.54014 1.4313,4.30028 3.2242,6.7347 6.4702,15.42462 8.448,22.61563 7.9464,28.89384 4.6324,53.45008 -9.6628,71.6001 -3.8206,4.85081 -12.2355,12.66576 -14.0595,13.05702 -2.65,0.56846 -27.1459,1.34292 -32.6853,1.03337 z m -31.746926,-12.868 c -1.64751,-0.16153 -4.18751,-0.5558 -5.64444,-0.87615 -3.37822,-0.74284 -9.17839,-2.58227 -9.16532,-2.90665 0.006,-0.13641 0.85595,-0.75974 1.88994,-1.38519 5.29625,-3.20371 14.66141,-10.9795 20.05259,-16.64944 13.02985,-13.70361 17.12986,-26.5914 12.08696,-37.99417 -1.4659,-3.31467 -4.73766,-7.9639 -7.58288,-10.77546 -5.88158,-5.81196 -13.15651,-7.57224 -20.71862,-5.01321 -2.71052,0.91724 -6.44099,2.90482 -9.01578,4.80357 -1.31771,0.97174 -2.45499,1.70721 -2.5273,1.63439 -0.77436,-0.77971 -5.56245,-9.36177 -8.33708,-14.94314 -9.17461,-18.4555 -13.98227,-35.16832 -15.14194,-52.63784 -0.53899,-8.11915 0.32652,-19.55981 1.63089,-21.55851 2.59281,-3.97294 12.69021,-14.59205 15.28466,-16.07433 1.12673,-0.64374 1.14906,-0.64374 0.95364,0 -0.11004,0.36255 -0.47538,3.43732 -0.81182,6.8328 -0.87054,8.78523 -0.8754,27.48871 -0.009,34.57223 1.5435,12.6193 4.60978,22.56199 8.67646,28.13402 l 1.09423,1.49931 h 4.32988 c 6.90311,0 16.08323,1.33744 23.21248,3.3818 15.05618,4.31746 26.649876,13.03407 32.335876,24.31126 1.5467,3.06754 3.1473,7.80635 4.0288,11.92797 0.6364,2.97561 0.7734,4.80864 0.796,10.6498 0.025,6.60877 -0.033,7.27904 -0.9264,10.5846 -7.9669,29.48074 -24.549856,44.63361 -46.491826,42.48234 z M 174.06956,212.30482 c 8.6888,-25.83653 7.637,-51.26549 -3.0171,-72.94585 -2.1981,-4.47289 -4.8946,-8.97558 -7.4395,-12.42256 -0.5646,-0.76473 -0.5302,-0.8105 1.6628,-2.20998 3.2278,-2.05981 9.923,-5.41761 12.9991,-6.51922 10.7952,-3.86609 19.577,-3.33856 26.9929,1.62149 2.87789,1.92488 5.38049,4.5324 7.13689,7.43609 l 1.145,1.89307 -0.5301,4.57139 c -3.1139,26.85532 -12.79029,50.83968 -28.27099,70.07398 -3.5838,4.45276 -9.4717,10.80129 -11.0791,11.94591 l -0.997,0.70987 z M 35.576244,204.73991 c -4.0761,-3.22068 -11.07104,-10.24845 -13.82612,-13.89098 C 10.541314,176.02964 4.8146939,159.384 3.6709539,138.29774 c -0.76959,-14.18746 1.39859,-33.04706 4.44058,-38.62627 1.62664,-2.98328 6.8915001,-11.34219 7.0463901,-11.18731 0.0658,0.0658 -0.0558,2.88099 -0.27035,6.25586 -0.98804,15.54213 1.74204,31.98157 7.65474,46.09431 5.62472,13.42535 14.70937,25.32076 24.32282,31.84814 9.49532,6.44721 18.4444,6.82561 26.02717,1.10056 1.98631,-1.49966 4.25241,-3.98239 5.48513,-6.00941 l 0.71567,-1.17685 0.24638,1.3134 c 0.49131,2.61889 -0.0845,12.87513 -0.89254,15.89881 -1.0396,3.89007 -3.46197,8.72287 -5.7617,11.49518 -6.12082,7.37861 -17.79614,11.98877 -30.27508,11.95449 l -3.65892,-0.0101 -3.175,-2.50869 z m 58.95102,-85.71122 c -3.70118,-3.4629 -5.69889,-6.1878 -7.82151,-10.6687 -3.16987,-6.6916 -4.47501,-15.0034 -3.73351,-23.7766 0.70279,-8.31445 1.69198,-12.19489 6.4988,-25.49372 1.9717,-5.455 3.95536,-12.3648 6.78192,-23.62375 l 2.1698,-8.64306 2.266996,-0.40289 c 3.3537,-0.59603 11.9673,-0.5707 15.4962,0.0456 1.6492,0.288 4.4029,0.95248 6.1193,1.47661 3.5229,1.07581 3.763,1.36121 3.752,4.45994 -0.029,8.28632 -4.1131,22.41908 -9.5724,33.12735 -2.4996,4.90284 -4.3942,7.85855 -8.5437,13.32815 -4.8207,6.35459 -7.5746,12.54313 -9.454696,21.2466 -0.6733,3.11719 -0.7856,4.73473 -0.8021,11.56174 -0.011,4.36562 0.096,8.45344 0.2365,9.08403 0.1407,0.63059 0.1243,1.14652 -0.036,1.14652 -0.1606,0 -1.6714,-1.2905 -3.3572,-2.86778 z m 12.488496,-14.14405 c 7.2068,-20.65155 12.6819,-33.99116 20.3838,-49.66317 4.768,-9.7021 7.6042,-16.16735 9.148,-20.85303 l 0.9006,-2.73376 5.1557,1.78859 c 10.2365,3.55118 18.8505,7.68435 19.8301,9.51481 0.284,0.53057 0.016,2.59127 -1.1215,8.60955 -0.8221,4.35161 -1.4234,7.98339 -1.3362,8.07062 0.087,0.0872 3.6416,-0.80992 7.8986,-1.99366 l 7.7399,-2.15226 2.6412,1.35963 c 9.1731,4.72213 16.5514,13.8176 20.6636,25.47265 1.1472,3.25148 1.1566,3.32392 0.4071,3.15828 -21.2316,-4.6923 -39.4392,-4.8975 -55.8197,-0.62909 -8.155,2.12498 -16.7721,6.05505 -23.0811,10.52668 -4.1493,2.94091 -10.4935,9.15469 -13.406,13.13044 -1.2081,1.64923 -2.2373,3.04266 -2.287,3.09649 -0.05,0.0538 0.9776,-2.96241 2.2829,-6.70277 z M 69.901164,98.86745 c -10.4915,-17.29812 -14.48848,-36.33794 -10.85387,-51.703 0.85545,-3.61628 2.39366,-8.20422 2.93677,-8.75933 0.22183,-0.2267 2.38768,-1.23955 4.81301,-2.25078 2.42536,-1.01123 5.17369,-2.22251 6.10748,-2.69173 3.61701,-1.81761 3.56275,-1.86405 1.84354,1.57882 -3.11542,6.23879 -5.41473,13.8298 -6.77534,22.3683 -0.97272,6.10429 -0.88676,20.93509 0.15959,27.52635 0.74634,4.70152 2.30132,11.687 3.39421,15.2481 0.29501,0.96108 0.49387,1.7899 0.44193,1.84181 -0.0519,0.0519 -0.98221,-1.36944 -2.06732,-3.15854 z"
       id="path16929"
       sodipodi:nodetypes="sscssscssssssscsssccssssscsssssscsssssssscssssccssssscsscssscssssssssssscssssccscsssscssscscsccscccsscssccscssssssccsssssssssss" />
  </g>
</svg>
