<svg version="1.1" viewBox="0 0 286.66 286.66" xmlns="http://www.w3.org/2000/svg">
  <defs>
    <filter id="a" color-interpolation-filters="sRGB">
      <feFlood flood-color="rgb(72,49,7)" flood-opacity=".80392" result="flood"/>
      <feComposite in="flood" in2="SourceGraphic" operator="in" result="composite1"/>
      <feGaussianBlur in="composite1" result="blur" stdDeviation="2"/>
      <feOffset dx="0" dy="2.3" result="offset"/>
      <feComposite in="SourceGraphic" in2="offset" result="composite2"/>
    </filter>
  </defs>
  <g transform="translate(43.049 28.441)">
    <circle cx="100.28" cy="114.89" r="139.95" fill="#5cbf46" fill-rule="evenodd" stroke="#131318" stroke-width="6.765"/>
    <path d="m137.33 220.75c-.68065-.29545-.98393-.31598-1.2617-.0854-.28073.23299-.47699.20281-.8446-.12988-.26339-.23836-.60965-.43339-.76947-.43339-.57779 0-4.298-1.8584-4.298-2.147 0-.16277-.22921-.23601-.50937-.16275-.34332.0898-.46646.0214-.37774-.20982.0724-.18867-.0864-.41223-.35289-.49681-.26648-.0846-.60252-.41505-.74674-.73439-.24781-.54873-1.0134-1.0501-.87573-.5735.11487.39769-.59559 1.4337-.86781 1.2654-.17037-.1053-.15416-.2958.0457-.53658.24389-.29387.22316-.37332-.0974-.37332-.22396 0-.62549.28666-.89229.63702-.38939.51134-.6033.59104-1.0842.40397-.32954-.12817-.71355-.53388-.85335-.90159-.15287-.40208-.46149-.66856-.77428-.66856-.28606 0-.59369-.11907-.68363-.26459-.0899-.14552-.4085-.26458-.70791-.26458-.43417 0-.51946.13047-.42123.64435.0678.3544.0239.80088-.0974.99219-.16705.26343-.22156.23696-.22462-.10909-.002-.2513-.2928-.64611-.64572-.87735-.35291-.23124-.76344-.76977-.91228-1.1967-.25876-.74229-.82731-1.0832-.82731-.4961 0 .15411-.1239.20362-.27534.11003-.15144-.0936-.21369-.36852-.13833-.61093.19693-.63352-.13726-.97114-1.0028-1.0131-.57631-.0279-.85809.14466-1.1906.72922-.44349.77961-.93478.98124-1.2294.50455-.28896-.46754-.66133-.2826-.66592.33073-.004.53422-.061.50707-.55515-.26458-.30288-.47294-.71461-.8599-.91497-.8599-.25321 0-.32377-.22184-.23142-.7276.0731-.40018.0403-.86148-.0728-1.0251-.29763-.4306-1.9254-.74595-1.9254-.373 0 .19906-.31928.2377-.96429.11669-.69058-.12955-.91145-.0954-.77813.12031.11617.18796-.0187.3012-.35863.3012-.29963 0-.54478.12709-.54478.28242 0 .16582-.22769.21014-.55155.10735-.36914-.11716-1.0865.11008-2.1691.68711l-1.6176.86215-1.2808-.4549c-1.2712-.4515-2.3185-.38212-2.3185.1536 0 .17901-.1363.16603-.37996-.0362-.25253-.20958-.54092-.23268-.8599-.0689-.26396.13555-1.105.3168-1.869.40277-1.11.12492-1.3891.0791-1.3891-.22809 0-.65066-.62702-.42756-1.352.48106-.93881 1.1766-1.1824 2.0028-.65061 2.2068.43677.16761.57576.63185.18917.63185-.12427 0-.5519-.30208-.95028-.67129-.57131-.52948-.65971-.74916-.41843-1.0399.23963-.28873.19691-.42693-.19716-.63783-.70769-.37875-2.1664-.13953-3.0265.49631l-.72814.53834-.33315-.53345c-.43284-.69309-1.6315-.6953-2.3225-.004-.29104.29104-.52917.64823-.52917.79375s-.11906.26459-.26458.26459c-.14552 0-.26458-.16402-.26458-.36448s-.18619-.519-.41376-.70787c-.27838-.23103-.39016-.69612-.34164-1.4215.06314-.94386.0076-1.0667-.44614-.987-.28504.0501-.73126.31798-.99159.59531-.94752 1.0094-1.7147.40181-.78696-.6233.43667-.48251.43578-.5251-.01789-.85682-.45995-.33632-.45982-.37026.0035-.92905.26449-.31898 1.5525-1.3891 2.8621-2.378 3.2627-2.4636 4.4275-3.5852 4.3166-4.1567-.05057-.2606-.2686-.47696-.4845-.4808-.2159-.004-.54269-.10099-.7262-.21587-.21045-.13174-.61987.0773-1.1088.56623-.60249.60249-1.0143.7751-1.8492.7751-.59073 0-1.0741-.11741-1.0741-.2609 0-.1435-.17859-.11269-.39688.0685-.32461.2694-.39688.25242-.39688-.0933 0-.32851-.17681-.38729-.79375-.26391-.61768.12354-.79375.0647-.79375-.26509 0-.23312-.29974-.62025-.66609-.86029-.43041-.28201-.58374-.54161-.43336-.7337.36579-.46723.62419-1.818.38107-1.992-.12094-.0866-.42418-.47861-.67386-.8712-.55442-.87175-.13706-1.2748.61515-.59402.45493.41171.5125.41602.5125.0384 0-.67843-.56339-1.7298-1.021-1.9054-.24033-.0922-.55722.0261-.74031.27652-.17606.24078-.44816.35864-.60466.26191-.44976-.27796-1.3355.11393-1.3645.60373-.02735.46167-.11086.30186-.62187-1.19-.10868-.3173-.39424-.5693-.63458-.55999-.24034.009-.64534-.0712-.9-.179-.64856-.27444-.60328.40477.08535 1.2802.67662.86019.55994.86546-1.0541.0476-1.3409-.6795-1.6109-.64931-1.6109.18013 0 .27537-.11906.4271-.26458.33716-.14552-.0899-.26458-.51368-.26458-.94166 0-.46812-.13914-.77813-.34925-.77813-.19209 0-.81928-.38695-1.3938-.8599-.57448-.47294-1.2805-.99325-1.569-1.1562-.32064-.18118-.49267-.51317-.44265-.85426.05532-.37722-.15893-.70969-.66155-1.0266-1.3683-.86262-4.8082-3.5033-5.0023-3.84-.10552-.18305.09523-.0798.44612.22944.35089.30923.93563.71111 1.2994.89306s1.2896.80895 2.0572 1.3934c1.5141 1.1526 1.9935 1.1593 1.2453.0174-.32264-.49242-.37616-.75471-.16813-.82406.16784-.0559.30516-.36406.30516-.68472 0-.67741-2.1567-3.0771-2.7655-3.0771-.56691 0-.51357.2558.21768 1.0439.34496.37177.83367 1.0331 1.086 1.4697l.4588.79375-.62299-.69265c-.34264-.38096-1.129-1.0219-1.7475-1.4242-.61846-.40237-1.1245-.78231-1.1245-.84432 0-.062.12007-.0385.26682.0522.28128.17385.81284-.91797.61254-1.2582-.21254-.36097-.87936-.20587-.87936.20453 0 .3545-.07833.35166-.65114-.0237-.35813-.23465-.728-.66879-.82193-.96475-.09393-.29597-.66117-1.0592-1.2605-1.6961-.7788-.82758-1.2992-1.158-1.8239-1.158-.83828 0-1.0028.61712-.27336 1.0253.25345.14184.37204.34666.26354.45516-.1085.1085-.4679-.057-.79866-.36769-.40214-.3778-.79626-.51402-1.1896-.41116-.48548.12695-.58822.0445-.58837-.47236-.00015-.54723.12492-.62617.99219-.62617.70571 0 .99236-.11464.99236-.39687 0-.49633-2.6258-1.8521-3.587-1.8521-.3927 0-1.1581-.18556-1.7009-.41237-.54282-.22681-1.0483-.35102-1.1233-.27603-.25037.25038-2.0261-1.2297-5.2304-4.3596-1.7462-1.7057-3.4368-3.1788-3.7568-3.2735-.31998-.0947-.65542-.40424-.74543-.68783-.17495-.55122-.65716-.71239-.65716-.21965 0 .16279-.40878-.0158-.90839-.39687-.866-.66054-2.002-.93301-2.002-.48019 0 .11698.42649.62299.94776 1.1245 1.6078 1.5468 1.6546 1.9271.14376 1.1682-1.3817-.69398-1.6682-1.0758-1.4458-1.9266.1778-.67991-.64915-.90828-1.2994-.35885-.30068.25405-.46302.28407-.46302.0856 0-.45655-.557-.36866-.93439.14745-.26743.36573-.4068.39034-.72324.12772-.21558-.17891-.55983-.26089-.76499-.18216-.21587.0828-1.1496-.52459-2.2163-1.4419-1.0138-.87175-1.9948-1.589-2.18-1.5938-.18515-.005-.84-.47163-1.4552-1.0373s-1.5353-1.2579-2.0446-1.5383c-.50932-.28037-1.5047-1.276-2.212-2.2126-.70729-.93656-1.5129-1.8112-1.7903-1.9437-.30988-.14796-.4502-.41139-.36393-.68321.08097-.25509-.09713-.65721-.42065-.9498-.30858-.27908-.77966-.93571-1.0468-1.4592-.86757-1.6998-2.5783-2.3372-2.2949-.8551l.12323.64465-.62748-.58949c-.34512-.32422-.62748-.72888-.62748-.89924 0-.44047-.88606-1.1855-1.4099-1.1855-.2432 0-.44219-.17859-.44219-.39688 0-.21828-.12708-.39687-.28241-.39687-.15693 0-.21161-.22309-.12305-.5021.13991-.44083.03117-.49555-.89128-.44845-1.0019.0511-1.0442.0215-.91204-.6394.11298-.56489-.03692-.82691-.81068-1.4171-.52211-.39823-.94929-.61545-.94929-.4827s-.29748.18449-.66106.11499c-.77259-.14769-2.2494-1.7249-2.2494-2.4024 0-.52968-.48638-1.102-.93649-1.102-.16582 0-.45331.32742-.63887.72761l-.33738.7276-.23835-.62942c-.15651-.41329-.13597-.75278.059804-.98867.23416-.28214.022066-.61597-.9881-1.5552-1.0701-.99499-1.4157-1.1731-2.0566-1.0599-.74834.13219-.75706.12137-.30481-.37835.47992-.53031.37098-1.0769-.21464-1.0769-.33893 0-1.4883 1.8157-1.4883 2.3511 0 .16209.23812.2947.52917.2947.34741 0 .52917.17639.52917.51355 0 .72744-.50237.94716-.90539.396-.47052-.64347-1.1241-.32145-1.3396.66007-.09804.4464-.32512.81163-.50461.81163-.17949 0-.67324.36208-1.0972.80462-.75571.78879-3.3565 2.4221-2.825 1.7741.24947-.30413.42128-1.253.35115-1.9393-.01635-.1599-.56621-.28663-1.2437-.28663-.98457 0-1.3582.14384-1.9745.76008-.6993.6993-.86581.74606-2.0821.58472-1.1775-.1562-1.4121-.0995-2.1469.51873-.45369.38176-1.0743.69411-1.3791.69411-.3048 0-.74215.15738-.97189.34974-.22974.19235-1.1916.68208-2.1375 1.0883-.94589.4062-1.8691.92709-2.0516 1.1575s-.85047.61586-1.4844.85649l-1.1526.43751.12518-1.2172c.06885-.66944.29034-1.4809.4922-1.8032.20186-.3223.36702-.76851.36702-.99157s.41672-.84737.92604-1.3874c.71315-.75607.92604-1.2059.92604-1.9567 0-.6225.14346-1.03.39688-1.1272.2207-.0847.39738-.47898.39801-.8882.000529-.40475.35745-1.2717.79294-1.9265.4355-.65485.98034-1.7562 1.2108-2.4474.23042-.69122.51035-1.2568.62207-1.2568.20539 0 .95039-2.0278 1.3495-3.6732.2136-.88064.04938-1.5687-.58573-2.4542-.25175-.35101-.20538-.66888.23159-1.5875.30051-.63174.72628-1.6844.94617-2.3392.72916-2.1715 1.1166-3.0404 1.4509-3.2543.61302-.39218.31265-2.0374-.37197-2.0374-.39883 0-1.3981-1.918-1.4082-2.7028-.0032-.24965-.363-.8193-.79956-1.2659-.57672-.58997-.79375-1.0657-.79375-1.7399 0-.51038-.35384-1.6848-.78632-2.6098-.43247-.92501-.86495-2.1736-.96106-2.7746-.20456-1.2793-1.5011-3.3627-2.2383-3.5967-.57613-.18286-1.241-1.1853-.78616-1.1853.44987 0 .31507-.7681-.4237-2.4143-.69523-1.5492-1.1451-1.9706-1.165-1.0914-.0057.25467-.52342-.84666-1.1504-2.4474-.62696-1.6007-1.6343-3.9977-2.2385-5.3266-.60422-1.3289-1.1028-2.7577-1.108-3.175-.0052-.41734-.17953-1.0565-.3875-1.4203-.23743-.41533-.38268-1.4491-.39036-2.7781-.0067-1.1642-.18115-2.6732-.3876-3.3535-.53274-1.7554-.1137-3.1288.95464-3.1288.73842 0 .74936.0229.74936 1.5672 0 1.3089.11774 1.7123.71432 2.4474.39288.4841.75006.9298.79375.99044.04369.0606.15759.0321.25312-.0634.09553-.0955-.01543-.62139-.24658-1.1686-.23115-.54718-.47309-1.5587-.53764-2.2478-.06455-.68912-.30995-1.5226-.54534-1.8521-.23539-.32952-.60709-.84468-.826-1.1448-.3484-.47765-.35023-.60958-.01466-1.0583.37317-.49902.40194-.49293 1.0814.22906.86041.91421 1.2188.82014 1.6352-.42916.3956-1.1871.27818-1.5328-.72093-2.123-.96209-.56832-1.5074-2.1314-1.1342-3.2514.34367-1.0315.82274-1.0517 1.9949-.0842 1.0623.87682 1.247 1.6632.71778 3.0552-.42255 1.1114.14658 3.546.82896 3.546.36359 0 .56446.23718.67687.79925.18238.91188.58488 1.2743.88176.7939.14371-.23252.25411-.2423.38291-.0339.22009.35611 1.2081.39198 1.2081.0439 0-.13694-.10591-.31443-.23535-.39442-.12944-.08-.29542-.53352-.36883-1.0078-.07341-.47429-.33041-1.3867-.57111-2.0275-.52355-1.3939-.39333-1.8776.50552-1.8776.49196 0 .66976.1396.66976.52585 0 .51165 1.7452 1.8554 2.4097 1.8554.50086 0 .12828-2.3396-.67413-4.2333-.4008-.94588-.81635-2.2195-.92346-2.8302s-.31755-1.2656-.46767-1.4552c-.38981-.49246-.63631-2.6419-.27755-2.4202.18675.11542.21684-.04.08966-.46296-.10529-.35018-.3643-1.2915-.57557-2.0919-.21128-.80036-.49396-1.6506-.62819-1.8893-.18954-.33715-.14415-.41025.20316-.32729.24597.0588.61735-.004.8253-.13993.32372-.21128.3271-.45931.02352-1.7247-.19501-.81287-.27322-1.5593-.17382-1.6587.0994-.0994.65098.34775 1.2257.99368.60402.67881 1.0499 1.0069 1.0566.77752.01027-.35277.04275-.35277.29224 0 .21122.29867.31388.31504.41487.0661.23437-.5776.59321-.36072 1.1237.67916.28336.55544.72145 1.1805.97352 1.3891.25207.20854.71576.91495 1.0304 1.5698 1.0298 2.1432 1.5835 2.9228 2.1861 3.0783.32642.0842.53609.246.46593.3595-.07015.11351.03189.33871.22677.50044.26407.21916.57133.18581 1.2063-.13096.81413-.40614.87968-.39901 1.4753.16051.70047.65806 1.1828.52032 1.2095-.34541l.01791-.5797.28711.59532c.3552.73648.64802.7583.86816.0647.13763-.43365.3782-.52268 1.3163-.4872.85555.0324 1.1123.13633 1.008.40818-.07698.20061.06473.59094.31491.86739.48645.53752.35071 1.0652-.27403 1.0652-.52554 0-.47859.44551.08176.77576.38389.22626.39991.31438.09374.51562-.45509.29912-.19318 1.0899.36099 1.0899.22285 0 .40518.10993.40518.24429 0 .34111 1.3175 1.8724 1.611 1.8724.13258 0 .24106-.23813.24106-.52917s.0893-.52614.19844-.52245c.10914.004.91066.59901 1.7812 1.3229.8705.72391 1.6771 1.3162 1.7925 1.3162s.32293.29766.46125.66146c.30446.80078.79375.87122.79375.11427v-.54718l.76845.54718c.42265.30095.98106.54719 1.2409.54719s1.1172.68461 1.9052 1.5214c1.3553 1.4392 1.4254 1.4787 1.2976.73264-.12525-.73143-.10805-.75178.2368-.28016.20453.27971.37187.60713.37187.72761 0 .37963 1.4234-.10965 2.2031-.75731.41134-.34167.84166-.62122.95624-.62122.11458 0 .41538.54215.66844 1.2048.32544.85214.58764 1.1784.89584 1.1146.33746-.0698.41923-.34608.36254-1.2247-.04675-.72473.02492-1.0739.19844-.96668.14939.0923.2729.30968.27445.48299.0016.17331.42572.72607.94259 1.2284.51688.50229 1.1366 1.2464 1.3771 1.6536.54296.91915.96594.96405.74379.079-.20005-.79707.11856-.85224.76926-.13323.65868.72784 1.1915.24051 1.1915-1.0898 0-.56427.12655-1.0259.28122-1.0259.15467 0 .24934.20836.21037.46302-.08407.54951.47722 1.6536.84064 1.6536.1404 0 .25528-.16471.25528-.36602 0-.63628 1.1453-.75559 1.5536-.16184.49524.72016.82762.66277.82762-.14291 0-.58878.06468-.63615.52917-.38757.40055.21438.52917.20122.52917-.0541 0-.18553.30247-.0111.67217.38757.43632.47055.94271.7249 1.4432.7249.66895 0 .79363-.12035.94156-.90887.09378-.49988.09215-1.0357-.0036-1.1906-.25126-.40654.26701-.34737.61343.07.49216.59302 1.9336.19011 3.2599-.9112.89493-.74313 1.4836-1.0281 2.1239-1.0281.62025 0 1.0956-.21813 1.5858-.72761 1.5767-1.639 2.2002-2.0525 1.8948-1.2568-.20383.53117.53139.51964.97534-.0153.18814-.22669.7385-.5778 1.223-.78025.48453-.20244.88096-.49322.88096-.64616 0-.15295.23586-.27809.52413-.27809.34352 0 .5835-.23658.69645-.6866.12902-.51403.23138-.59715.40729-.33073.18424.27904.34803.21307.75866-.30558.28804-.36381.6475-.81029.79881-.99219.15131-.1819.54415-.33073.87298-.33073.44311 0 .68455-.23971.93274-.92604.18417-.50933.51116-.92604.72664-.92604s.68943-.29766 1.0532-.66146.88714-.66146 1.163-.66146c.5674 0 1.0455-.57876.60055-.72705-.19163-.0639-.14004-.36125.15159-.87384.5083-.89344.85384-1.0268.65102-.25119-.09624.36801-.0081.52916.28935.52916.23525 0 .42773-.10324.42773-.22942 0-.12619.4891-.55309 1.0869-.94869.95969-.63509 1.0688-.80949.93266-1.4904-.12769-.63844-.06646-.77111.35588-.77111.84107 0 1.7118-.51489 2.2636-1.3385.28618-.42714.68286-.77697.88152-.77739.19865-.00052.76919-.44619 1.2679-.99061.68758-.75067.9598-.9039 1.1265-.63414.30156.48793 1.3455-.0713 1.3455-.72074 0-.37261.16423-.44993.76756-.36138.50572.0742.94237-.0542 1.28-.37656.61234-.5846 1.3284-1.0662 2.0644-1.3883.93272-.40828 1.2998-1.0187.90136-1.4988-.29941-.36077-.25886-.39235.31796-.24758.43973.11037.77618.0273 1.0046-.24794.18892-.22764.47774-.41562.64182-.41774.55285-.007 3.0755-2.8255 3.1072-3.4714.02199-.44842.06499-.49455.15169-.16277.16213.62043 1.017.58656 1.6697-.0661.29104-.29104.58852-.52916.66105-.52916.53048 0 6.5119-3.6323 7.1442-4.3384.43656-.48754 1.1862-1.0162 1.6658-1.1749 1.3941-.46118 10.635-6.596 12.159-8.0722.76398-.73998 1.3888-1.4685 1.3884-1.619-.000265-.15049-.60232-1.1666-1.3377-2.258-.73536-1.0914-1.638-2.5657-2.006-3.2763-.36792-.71055-1.1776-1.8416-1.7993-2.5135-1.0736-1.1603-3.5876-5.5668-3.5876-6.2883 0-.18628-.24999-.47248-.55554-.636-.40518-.21685-.52127-.47653-.42896-.95946.06962-.36418-.007-1.0159-.17017-1.4483-.26611-.705-.22864-.83852.36281-1.2929.89593-.68834 1.231-.64611 1.6397.20669.19117.39885.65895.87443 1.0395 1.0568.38057.1824 1.1242.95739 1.6525 1.7222s2.1532 2.5027 3.6108 3.8621c1.4576 1.3593 2.8414 2.8476 3.075 3.3073.23365.45968.63194 1.034.88508 1.2762.25314.24225 1.0395 1.1777 1.7474 2.0788 1.12 1.4256 1.3221 1.578 1.5566 1.1735.14823-.25562.86482-1.1679 1.5924-2.0273.72761-.85938 1.561-1.902 1.8521-2.317s.91923-.94368 1.396-1.175c.8565-.41553.87003-.4121 1.1364.28859.30826.81079-.0427 1.966-.88316 2.9073-.28274.31665-.43822.69845-.34552.84845.19817.32064-1.0183 2.8048-1.8034 3.683-.46521.5203-.48781.64526-.15481.85585.21447.13563.6451.24842.95696.25065.39764.003.67551.27607.93023.91471.19978.50086.74103 1.1855 1.2028 1.5214s1.8219 1.423 3.0225 2.4158c2.4853 2.0551 3.1334 2.4365 4.6053 2.7104.57705.10737 1.1857.38796 1.3525.62353.16681.23557.83836.69553 1.4923 1.0222.65398.32661 1.338.77329 1.52.99262.18233.2197.54208.33177.80109.24956.29968-.0951.81314.15196 1.4162.68144.8029.70496.97128.76495 1.1127.39642.0917-.23883.0932-.50773.003-.59754-.0898-.0898.0711-.32749.35765-.52818.46418-.32512.74816-.24632 2.6058.72308 1.1467.59839 2.4891 1.1847 2.9831 1.3029.49404.11818 1.1066.30086 1.3613.40596.32933.13592.46302.067.46302-.23854 0-.36242.21427-.32106 1.3695.26433.75323.38169 1.8527.7495 2.4434.81735.59062.0678 1.1947.2174 1.3425.33233s.59606.28718.99624.38278c.6109.14593.7276.0881.7276-.3604 0-.29381.1318-.5342.29289-.5342.16702 0 .22017-.199.12369-.46302-.0966-.26437.0899-.15652.43471.25138.65341.77295 2.3964 1.2654 2.7059.76457.26693-.4319 1.2053-.34741 1.2053.10853 0 .51263.90478.51263 1.4174 0 .5471-.5471 2.2764-.49785 3.6539.10405.63052.27551 2.0084 1.3548 3.062 2.3985 1.0536 1.0437 2.0359 1.8232 2.1828 1.7324.14696-.0908.41099-.0763.58673.0324.63869.39473 1.5326.34048 1.5326-.093 0-.37834.0458-.37965.46302-.0133.25466.22362.71521.48324 1.0234.57693.30823.0937.77317.40542 1.0332.69275.26003.28733.64006.52241.84452.52241.31472 0 2.0032 1.1263 3.1876 2.1263.18373.15513.45162.2094.59531.1206.14368-.0888.26287.11345.26485.44946.007 1.1976.30177 1.8243.78559 1.6707.25245-.0801.60946.0356.79334.25717.42836.51613.79871.51592.79871-.00053 0-.27764.28853-.14075.92604.43938.52915.48151.92605 1.0954.92605 1.4322 0 .39903.14959.57767.46289.5528.3056-.0243.49457.1877.55611.62378.0873.61852 1.3356 1.9335 3.2493 3.4228.78948.61441.84329.62184 1.179.16268.3089-.42244.33426-.35576.20801.54683-.0791.56537-.2457 1.3527-.37025 1.7497-.13464.42915-.12559.78409.0223.87551.3361.20772.31486 1.3568-.0372 2.0147-.58743 1.0976.071.79665 1.4916-.68185 1.3312-1.3854 1.7224-2.2431.94418-2.0702-.17657.0392-.29765-.31217-.29765-.8639 0-1.1339 1.3132-3.5546 2.445-4.5069.4465-.37571 1.2181-1.3599 1.7147-2.1871 1.2036-2.0049 2.1744-3 2.7489-2.8176.31596.10028.91136-.32692 1.9338-1.3874.81247-.84278 1.5446-1.7407 1.6269-1.9954.0823-.25466.31738-.46302.52234-.46302.78971 0 2.0951-1.0823 2.6175-2.1702.35814-.7458.74397-1.1653 1.1212-1.219.31637-.0451.7656-.37248.99829-.7276.54321-.82905.88803-.81694 1.2148.0427.14607.38418.40622.62922.58876.55454.17988-.0736.53541-.21749.79007-.31978.70809-.28442.55239.21517-.33073 1.0612-.91103.87283-1.0234 1.4552-.28091 1.4552.39514 0 .5014.16698.46302.72761-.0505.73827-.0225.74763 1.2022.40114.31373-.0888.53926.0833.71494.54533.3734.9821 1.2568 1.3939 1.8462.86055.25402-.22988.66083-.41796.90403-.41796.24321 0 .44219-.18115.44219-.40255 0-.6305 1.2464-1.0955 1.8784-.70077.44064.27518.60691.22458 1.1352-.34547.81121-.87532.97099-.84269.89002.18176-.0864 1.0935.70649 1.3618 1.1497.389.30871-.67755 1.2427-1.2386 2.0618-1.2386.92677 0 1.7793 1.5565 1.0869 1.9844-.14552.0899-.26458.33509-.26458.54478 0 .60039 1.1648.45132 1.806-.23111.65587-.69816.73451-1.3074.22349-1.7315-.83585-.6937.71051-3.7416 1.8983-3.7416.21142 0 .78912.41672 1.2838.92604.87445.90038 1.4031 1.1632 1.4031.69745 0-.33607 2.0965-1.7318 2.2982-1.5301.0946.0946.0204.45528-.16491.80153-.18796.35116-.25606.88433-.15404 1.2058.28787.90698-.53909 2.3972-1.3302 2.3972-.50088 0-.64905.13892-.64905.60854 0 .3347.12221.73077.2716.88015.29041.2904-.74298 2.4123-1.4677 3.0138-.5252.43586-.22702.82441.49384.64349.66942-.16801 1.744.61334 1.5648 1.1379-.13999.41003.51382.436.91356.0363.3838-.3838.90426-.0545.81057.51284-.0757.45868.34708.52283 1.1836.17957.28723-.11786.46302-.0711.46302.12325 0 .17229.34763.66089.77253 1.0858.42489.42489.84836 1.1178.94104 1.5397.28699 1.3066 1.3105 1.897 4.0411 2.3308.8045.12782 1.1272.4514.65019.652-.34528.14521-1.3778 1.9696-1.3778 2.4345 0 .26481.21894.4318.56616.4318.54176 0 .82454.24703 1.6966 1.4822.35677.50535.31978.73497-.40497 2.5135-.86018 2.1109-.94377 2.5265-.53551 2.6629.16909.0565.12268.89133-.12917 2.3235-.29044 1.6516-.31449 2.2838-.0921 2.4213.20254.12517.24355.67446.12538 1.6798-.15676 1.3339-.12559 1.4854.29123 1.4152.34129-.0575.49019.126.55375.68238.11628 1.0177.88167 1.8211 1.5066 1.5814.3978-.15266.44601-.0957.27403.3237-.45918 1.1197-.63299 2.3456-.39547 2.7894.41822.78146.27916 1.5501-.45445 2.5119-.53999.70796-.62997.99278-.38957 1.2332.24037.24038.41783.23717.76829-.0139.81045-.58057 1.1469-.66383 1.4515-.35923.2219.22192.19177.38403-.11719.63045-.80978.64586-.97419 1.2952-.59798 2.3615.24765.70186.30768 1.685.19791 3.2405l-.15759 2.2329 1.2072-.0467c.664-.0257 1.272.018 1.3512.0972.26548.26546-.61129 3.0229-1.0671 3.3562-.71607.5236-.1864.7233 1.1774.44392l1.2563-.25735-.0138 1.0403c-.0103.78196.103 1.0709.45673 1.1634.6138.16051.59647.31633-.18767 1.688-.36203.63332-.65969 1.3712-.66146 1.6398-.003.26859-.16957.80437-.37293 1.1906-.20339.38626-.51094 1.2381-.6835 1.8929-.17254.65484-.74771 2.0836-1.2782 3.175s-.93665 2.2041-.90268 2.4726c.0805.63629-1.9783 2.7227-2.9199 2.959-.75015.18828-.8899.61231-.76902 2.3335.036.51216-.20288 1.045-.74535 1.6628-.43908.50006-.7983 1.0745-.7983 1.2766 0 .72648-1.319 1.9611-2.1855 2.0456-.8354.0815-.8418.0932-.766 1.4051.0829 1.4347.59029 2.3812 2.393 4.4641.5982.69116 1.0876 1.3424 1.0876 1.4471s-.35718.32531-.79375.49009c-.96845.36555-1.0883 1.271-.19843 1.4992.69873.17911 1.8616 1.9454 2.332 3.542.29409.99826.2775 1.1829-.14848 1.6536-.26376.29144-.63968.52989-.83542.52989-.20979 0-.35933.29867-.36428.72761-.005.40018-.18322.95872-.39688 1.2412-.55544.73434-.48156 1.1255.2471 1.3084.6287.15779 2.2749 2.3081 2.2749 2.9715 0 .18539.31644.4924.70321.68224 1.3841.67938 1.5392 2.065.23114 2.065-1.011 0-.87815 1.0186.278 2.1309 1.0394.99994 1.3837 1.5353 1.7027 2.6478.19082.66532.15132.72984-.41026.66996-.34179-.0364-.77729-.19155-.96779-.34469-.50771-.40811-2.6427-1.3998-3.0136-1.3998-.39888 0-.64008.60639-.64008 1.6091 0 .42466-.11287.77211-.25085.77211-.13795 0-.99356-.6181-1.9014-1.3736-.96803-.80561-1.6939-1.2432-1.7556-1.0583-.16574.49715-.74753.37127-1.6002-.34623-.43235-.3638-1.007-.66176-1.2771-.66213-.27003-.00027-1.3839-.59538-2.4753-1.3222-1.0914-.72686-2.2312-1.3219-2.5329-1.3222-.63098-8e-4-3.8962-1.9903-5.7167-3.4833-.68104-.55833-1.4362-1.0152-1.6782-1.0152-.55317 0-1.7444.92093-2.1677 1.6759l-.32136.57309-.009-.61271c-.005-.33699-.12877-.83578-.27468-1.1084-.17734-.33137-.17734-.55008 0-.65968.14591-.0902.2653-.43338.2653-.76268 0-.88332-.80162-3.1601-1.2355-3.5091-.25533-.20538-.31728-.53736-.19282-1.0332.1688-.67256.13295-.71715-.45092-.56091-.34887.0933-1.0735.17136-1.6104.17334-.75565.003-1.2522.24263-2.1989 1.062-1.3732 1.1885-1.8376 1.2978-2.249.52917-.21196-.39605-.55399-.52917-1.3596-.52917-.90663 0-1.3304.21223-2.6866 1.3454-2.5386 2.1212-6.2012 3.8001-10.017 4.5916-.38602.0801-1.2538.68201-1.9284 1.3376-.67459.65562-1.341 1.192-1.481 1.192-.40692 0-.29343 1.06.13094 1.2228.27847.10686.0538.43481-.80984 1.1823-.65737.56894-1.3033 1.0344-1.4354 1.0344-.2639 0-.0604-.73201.35114-1.2632.42549-.54913.0443-.64704-1.1389-.29254-1.2176.36481-1.5045.74587-1.1024 1.4644.3202.57215-.42301 2.1708-1.2378 2.6625-.46541.28085-.54459.24958-.61732-.24386-.14785-1.0031-.73672-.82252-2.0117.61694-.68569.77414-1.9316 2.053-2.7687 2.8418-1.1463 1.0803-1.4528 1.5177-1.2416 1.7721.38177.46001-3.5194 3.8189-4.4355 3.8189-.37894 0-.95078.34465-1.4148.85272-.81093.88785-.96395 1.264-.51426 1.264.60828 0 .19841.50997-.62946.78319-.49173.16229-1.1054.52859-1.3637.81402-.45145.49885-.44757.53809.1003 1.0133.7478.64856.71922 1.1261-.11413 1.9075-.56068.52573-.6585.80848-.5423 1.5675.13573.8866.0388 1.0218-2.2759 3.175-1.3297 1.2369-3.6753 3.4464-5.2124 4.91-1.5371 1.4636-3.8365 3.5916-5.1098 4.7289-2.0298 1.813-2.3151 2.176-2.3151 2.9458 0 .48285.12242.95357.27205 1.046.33623.20779-3.5384 2.2443-4.2699 2.2443-.37159 0-.68334.34708-1.0439 1.1622-.28277.63924-.69279 1.2308-.91116 1.3146-.54446.20893-.49761.76352.13212 1.5641.62767.79795.65692.98613.15331.98613-.20672 0-.45293.35095-.54714.77989-.15756.71737-.22328.7562-.81975.48443-.56123-.25572-.74876-.19936-1.3942.41897-.45546.43635-.90889.6518-1.165.55352-.2306-.0885-.69647-.009-1.0353.1768-.3388.18573-.85827.3088-1.1544.27348-.29888-.0357-.82068.23626-1.1729.61118-.39398.41938-.8082.62027-1.0927.52996-.29022-.0921-.61202.0741-.87761.45329l-.41937.59872v-.72032c0-.39619-.0372-.72033-.0826-.72033s-.5812.2409-1.1906.53534c-1.2883.62242-1.4359 1.285-.45766 2.0545.3577.28136.79249.8235.96619 1.2047.37191.81625 1.2568 1.1872 1.5874.6655.15939-.25155.22871-.14303.23155.36246.003.49898.22846.86035.73166 1.1717.40018.2476 1.1443.82662 1.6536 1.2867.50932.46009 1.4618 1.1544 2.1167 1.5429.65484.38849 1.522.96949 1.927 1.2911.59236.47043.83006.52625 1.2156.28548.42054-.26264.4643-.22108.35718.33927-.20323 1.0631 2.2172 3.7272 2.531 2.7858.0621-.1864.46203.007 1.0091.48692.88564.77761 2.6321 2.6666 2.4464 2.646-.0515-.006-.49676-.18538-.98957-.39929zm-33.27-42.784c1.4812-2.2419 3.9489-6.6345 6.0873-10.836 1.978-3.886 4.6327-8.8271 5.8995-10.98 4.9369-8.3915 6.6222-11.431 7.8908-14.234 3.3013-7.2919 10.381-21.13 12.928-25.268 1.2469-2.0261 6.5583-12.015 8.291-15.592 1.6213-3.3474 1.828-5.3023.73606-6.962-4.3564-6.6213-13.604-17.016-29.367-33.008-3.8009-3.8563-8.7961-9.0096-11.1-11.452-2.3044-2.4421-4.2819-4.4066-4.3946-4.3656-.11266.041-3.4578 3.5339-7.4336 7.762-3.9758 4.2281-9.7291 10.339-12.785 13.581-3.0559 3.2412-7.6251 8.1757-10.154 10.966-2.5286 2.7899-5.9904 6.5609-7.693 8.3799-6.6663 7.1221-7.4211 8.1146-7.4211 9.7578 0 .99503 2.9298 7.3376 7.5664 16.38 1.993 3.8869 5.5237 10.818 7.8459 15.402 2.3222 4.5839 4.7386 9.1678 5.3697 10.186.63109 1.0186 2.9891 5.6026 5.2401 10.186 2.9249 5.9563 5.2037 10.146 7.9865 14.684 2.1416 3.4925 5.2665 8.7312 6.9443 11.642 3.3572 5.8238 4.4561 7.5406 4.8265 7.5406.13507 0 1.3665-1.6966 2.7366-3.7703zm-48.186.52916c.17961-.48841-.05818-.99219-.46832-.99219-.53888 0-.74264.50167-.38082.93763.39226.47264.6884.49167.84914.0546zm-1.4365-1.3229c.08891-.77268-.17263-.92974-.68876-.41361-.24227.24227-.45467.18183-.92986-.26459-.33873-.31822-.86806-.57858-1.1763-.57858-.32812 0-.63007-.21942-.72844-.52934-.16156-.50904-1.6873-1.8519-2.1041-1.8519-.31896 0 .11467 1.4031.60344 1.9526.24332.27354.91866.80839 1.5007 1.1886 2.3774 1.5527 3.3855 1.6949 3.5233.49692zm167.48-20.393c.0461-.38896.19069-.7072.32142-.7072.35795 0 .80351-.96811.64077-1.3922-.11795-.30738-.35185-.31915-1.3426-.0676-1.8185.46175-2.1303 1.2096-.98263 2.3573.83526.83528 1.2485.7776 1.363-.19028zm-244.43-67.189c-.63635-1.7008-1.1791-2.2945-1.6588-1.8147-.2417.2417-.2374.41801.01876.7693.18278.25066.71171 1.0338 1.1754 1.7404 1.0219 1.5572 1.2049 1.2835.46467-.69493zm3.4397-4.6907c0-.42215-1.0605-1.3663-1.4056-1.2514-.4603.15325-.55609 1.0192-.14179 1.2818.49303.31245 1.5474.29174 1.5474-.0304zm138.91 132.29c0-.14552.11907-.26459.26459-.26459s.26458.11907.26458.26459-.11906.26458-.26458.26458-.26459-.11906-.26459-.26458zm-40.867-5.0088c-.27032-.4374.29241-.54201.80962-.15052.4855.36749.48294.38026-.0777.3884-.31883.005-.6482-.10242-.73192-.23788zm44.58-4.1855c.005-.10914.17953-.49609.3875-.85989l.37812-.66146.009.8599c.006.59213-.11421.85989-.3875.85989-.21828 0-.39266-.0893-.3875-.19844zm15.197-12.223c.22975-.44431.59802-.80782.81836-.80782s.90189-.25389 1.5146-.56419l1.1139-.56418-.50403.56418c-.27722.3103-.64959.56419-.8275.56419s-.47821.18644-.66733.41432c-.18912.22787-.68628.59139-1.1048.80782l-.76094.3935zm-117.87-35.607c-.18408-.2218-.26783-.47012-.18612-.55183.08171-.0817.28146.0998.44389.40327.34656.64756.21791.72171-.25776.14856zm-21.514-86.556c-.09702-.097-.17639-.29942-.17639-.44979 0-.16579.12324-.15017.31309.0397.1722.1722.25158.3746.17639.44979-.07519.0752-.21608.0573-.31309-.0397zm162.86-16.345c.0999-.11105.0663-.50505-.0746-.87556-.2239-.58889-.20513-.63132.14918-.33727.49061.40717.52461.96544.0746 1.2244-.18191.10468-.24904.0995-.14919-.0116zm-39.472-11.789c-.23846-.15411-.2711-.2581-.0818-.26053.17331-.002.3887.11501.47864.26053.20301.32849.11142.32849-.39688 0zm-29.083-25.29c.0127-.30822.07539-.37092.15985-.15985.07643.19099.06703.4192-.02088.50712-.08792.0879-.15045-.0684-.13896-.34727z" filter="url(#a)" stroke-width=".26458"/>
  </g>
</svg>
