<?xml version="1.0" encoding="UTF-8" standalone="no"?>
<svg
   xmlns:dc="http://purl.org/dc/elements/1.1/"
   xmlns:cc="http://creativecommons.org/ns#"
   xmlns:rdf="http://www.w3.org/1999/02/22-rdf-syntax-ns#"
   xmlns:svg="http://www.w3.org/2000/svg"
   xmlns="http://www.w3.org/2000/svg"
   xmlns:sodipodi="http://sodipodi.sourceforge.net/DTD/sodipodi-0.dtd"
   xmlns:inkscape="http://www.inkscape.org/namespaces/inkscape"
   width="100%"
   height="100%"
   viewBox="0 0 291.44385 291.44385"
   version="1.1"
   id="svg895"
   inkscape:version="1.0.1 (0767f8302a, 2020-10-17)"
   sodipodi:docname="Gruul Clans.svg">
  <defs
     id="defs889">
    <filter
       style="color-interpolation-filters:sRGB;"
       inkscape:label="Drop Shadow"
       id="filter1514">
      <feFlood
         flood-opacity="0.803922"
         flood-color="rgb(42,29,4)"
         result="flood"
         id="feFlood1504" />
      <feComposite
         in="flood"
         in2="SourceGraphic"
         operator="in"
         result="composite1"
         id="feComposite1506" />
      <feGaussianBlur
         in="composite1"
         stdDeviation="2"
         result="blur"
         id="feGaussianBlur1508" />
      <feOffset
         dx="0"
         dy="2.3"
         result="offset"
         id="feOffset1510" />
      <feComposite
         in="SourceGraphic"
         in2="offset"
         operator="over"
         result="composite2"
         id="feComposite1512" />
    </filter>
  </defs>
  <sodipodi:namedview
     id="base"
     pagecolor="#ffffff"
     bordercolor="#666666"
     borderopacity="1.0"
     inkscape:pageopacity="0.0"
     inkscape:pageshadow="2"
     inkscape:zoom="1.979899"
     inkscape:cx="260.50529"
     inkscape:cy="266.8854"
     inkscape:document-units="mm"
     inkscape:current-layer="layer1"
     inkscape:document-rotation="0"
     showgrid="false"
     fit-margin-top="0"
     fit-margin-left="0"
     fit-margin-right="0"
     fit-margin-bottom="0"
     inkscape:window-width="1647"
     inkscape:window-height="1212"
     inkscape:window-x="896"
     inkscape:window-y="95"
     inkscape:window-maximized="0" />
  <metadata
     id="metadata892">
    <rdf:RDF>
      <cc:Work
         rdf:about="">
        <dc:format>image/svg+xml</dc:format>
        <dc:type
           rdf:resource="http://purl.org/dc/dcmitype/StillImage" />
        <dc:title></dc:title>
      </cc:Work>
    </rdf:RDF>
  </metadata>
  <g
     inkscape:label="Layer 1"
     inkscape:groupmode="layer"
     id="layer1"
     transform="translate(37.08669,6.2236681)">
    <circle
       style="fill:#ff822b;fill-opacity:1;fill-rule:evenodd;stroke:#191a1e;stroke-width:4.865;stroke-miterlimit:4;stroke-dasharray:none;stroke-opacity:1"
       id="path1474"
       cx="108.63524"
       cy="139.49826"
       r="143.28943" />
    <path
       style="fill:#000000;stroke-width:0.0535909;filter:url(#filter1514)"
       d="m 103.34,270.29326 c 0,-0.0221 -0.0234,-0.18489 -0.0515,-0.36175 -0.24458,-1.53924 -0.39468,-5.12063 -0.56379,-13.4513 -0.13271,-6.53755 -0.20963,-8.46164 -0.34153,-8.54317 -0.22565,-0.13946 -0.79918,-0.66539 -0.96886,-0.88845 -0.3816,-0.50165 -0.38438,-0.52544 -0.21456,-1.83216 0.14382,-1.10651 0.14751,-1.51395 0.0158,-1.73951 -0.14193,-0.24301 -0.50338,-0.40534 -1.14719,-0.5152 l -0.548096,-0.0935 0.0331,-0.64312 c 0.0182,-0.35372 0.17723,-2.01773 0.35339,-3.69781 0.467226,-4.45595 0.590226,-5.78439 0.764156,-8.253 0.0931,-1.32111 0.0926,-4.68895 -7.5e-4,-5.2519 -0.0869,-0.52389 -0.20285,-0.94248 -0.29672,-1.07084 -0.24643,-0.33702 -1.562666,0.38117 -3.919056,2.13838 -3.54268,2.64187 -4.39185,3.23066 -5.30649,3.67937 -0.43159,0.21172 -0.66917,0.28867 -1.21504,0.39352 -1.25721,0.24149 -2.1688,0.55755 -3.43326,1.19037 -1.67619,0.83888 -2.81462,1.59954 -6.20328,4.14483 -3.06207,2.29999 -4.20751,3.07143 -5.47342,3.68628 -1.11618,0.54213 -1.94483,0.76315 -2.86125,0.76315 h -0.56851 l 0.66233,-0.65649 c 0.90847,-0.90044 1.2537,-1.45229 1.10825,-1.77152 -0.0918,-0.20145 -0.31038,-0.26989 -0.75979,-0.23791 -0.58824,0.0419 -0.88422,0.19209 -3.33489,1.69264 -1.96903,1.20566 -3.01384,1.79519 -3.48805,1.96815 -0.57403,0.20936 -0.8108,0.17387 -1.6037,-0.24039 -0.94776,-0.49516 -1.19958,-0.454 -2.05738,0.33629 -0.62944,0.5799 -1.04396,0.8719 -2.79198,1.96677 -1.94758,1.21985 -2.40605,1.57011 -2.53465,1.93639 -0.0438,0.12467 0.14153,0.34432 0.40948,0.48539 0.25081,0.13205 0.68716,0.1505 1.69644,0.0717 0.63951,-0.0499 0.62591,-0.0566 0.98416,0.48302 0.24191,0.36435 0.33886,0.38152 0.68563,0.12141 0.69946,-0.52464 1.52353,-0.86716 2.32249,-0.96535 0.42096,-0.0517 0.6833,-0.0466 1.54,0.0303 0.56793,0.0509 1.08777,0.10367 1.15519,0.11718 0.10281,0.0206 -0.0226,0.13926 -0.77707,0.73539 -1.69473,1.33904 -7.58923,5.90428 -14.31591,11.08752 -2.60593,2.00801 -2.76772,2.12336 -3.05468,2.17791 -0.53417,0.10157 -1.19251,0.12447 -2.05371,0.0715 -0.73059,-0.045 -0.88026,-0.0702 -1.15221,-0.19463 -0.37871,-0.17321 -0.58816,-0.36111 -0.72005,-0.646 -0.18557,-0.40081 -0.10575,-0.73911 0.21812,-0.92447 0.30052,-0.172 1.14903,-0.99463 1.42541,-1.38194 0.4608,-0.64575 0.62193,-1.18707 0.41496,-1.39404 -0.23306,-0.23306 -1.14599,0.0777 -2.2411,0.7629 -0.23546,0.14732 -0.59692,0.32326 -0.80324,0.39099 -0.20633,0.0677 -0.71276,0.26769 -1.12541,0.44437 -1.15305,0.49369 -1.62678,0.67589 -2.04736,0.78743 -0.50102,0.13286 -1.16626,0.22902 -1.43125,0.20687 l -0.20957,-0.0175 0.66509,-0.58859 c 0.3658,-0.32373 1.99146,-1.79486 3.61259,-3.26918 6.77934,-6.16545 8.775,-7.91199 10.15247,-8.88512 1.61192,-1.13877 2.61326,-1.91839 5.65684,-4.40429 4.45281,-3.63692 5.61746,-4.54141 7.20702,-5.5971 0.97996,-0.65083 1.45668,-0.91638 2.7073,-1.50806 1.25844,-0.59539 2.85228,-1.41471 3.67097,-1.88709 1.59925,-0.92275 2.3682,-1.47889 3.43647,-2.48537 1.21613,-1.1458 1.56944,-1.41002 2.56942,-1.92152 0.91974,-0.47046 1.54684,-0.98399 2.32377,-1.90296 0.63621,-0.75252 0.99626,-1.25377 2.39344,-3.33209 2.00493,-2.98233 2.82491,-4.02603 3.80187,-4.83916 0.76854,-0.63966 1.65636,-1.09997 2.12152,-1.09997 0.32859,0 0.55684,0.15974 1.41642,0.99135 0.63685,0.61611 0.92128,0.85209 1.2058,1.00039 0.50239,0.26186 0.77478,0.30418 0.9867,0.15328 0.2191,-0.15601 0.93505,-0.48265 1.9029,-0.86817 2.35278,-0.93717 2.87483,-1.40677 2.38537,-2.14572 -0.57386,-0.86637 -8.47826,-9.72664 -10.61005,-11.89311 l -0.5627,-0.57186 -0.32886,-0.0339 c -0.18087,-0.0187 -0.75965,-0.0559 -1.28618,-0.0827 -1.45374,-0.0741 -1.86833,-0.23868 -2.6993,-1.07133 -0.82354,-0.82522 -1.51069,-1.877 -2.66754,-4.08309 -0.34745,-0.66258 -0.72238,-1.32819 -0.83319,-1.47913 -0.27688,-0.3772 -1.11174,-1.15721 -1.76788,-1.65176 -0.30015,-0.22622 -1.14863,-0.80954 -1.8855,-1.29627 -2.1517,-1.42123 -2.95205,-2.06913 -3.23067,-2.61526 -0.14983,-0.2937 -0.23316,-0.77531 -0.1714,-0.99066 0.0737,-0.25696 0.19544,-0.36335 0.67956,-0.59383 0.46888,-0.22324 0.60949,-0.36571 0.70647,-0.71583 0.1324,-0.47802 0.18451,-0.40103 -1.44956,-2.14193 -0.82911,-0.8833 -2.57205,-2.74023 -3.87319,-4.12649 -5.56621,-5.93035 -9.31073,-10.00802 -10.261,-11.17392 l -0.31027,-0.38067 -0.0644,-0.54729 c -0.21775,-1.85065 -0.60919,-3.49751 -1.16739,-4.91142 -0.4384,-1.11045 -0.94803,-2.05162 -1.93895,-3.58085 -0.64073,-0.98877 -1.07905,-1.73143 -1.07905,-1.82824 0,-0.074 0.12908,-0.0489 0.68424,0.13305 1.04686,0.34317 2.47994,1.24484 3.73585,2.35052 1.29342,1.13871 2.36127,2.26942 4.54725,4.81491 0.86512,1.00741 1.61298,1.86476 1.6619,1.90521 0.11683,0.0966 0.11535,0.0536 -0.0182,-0.52908 -0.0574,-0.25053 -0.10505,-0.61645 -0.10581,-0.81315 -10e-4,-0.30598 0.0183,-0.381 0.13483,-0.51949 0.16271,-0.19337 0.57078,-0.35545 1.02633,-0.40764 0.32022,-0.0367 0.34218,-0.0312 0.62571,0.15702 0.84906,0.56357 3.00345,2.66281 8.81755,8.59181 3.59107,3.66204 4.49899,4.4777 5.37692,4.83056 1.69926,0.68297 3.26028,1.87468 6.60585,5.04303 2.01018,1.90369 2.65741,2.43797 3.15462,2.60412 0.4504,0.15051 1.42725,-0.0391 1.76729,-0.34296 0.0565,-0.0505 0.23079,-0.26446 0.3874,-0.47556 0.28246,-0.38075 0.60626,-0.65048 0.95657,-0.79685 0.17853,-0.0746 0.18578,-0.0724 0.36622,0.11343 0.42841,0.44107 0.7513,1.32796 1.35267,3.7154 0.56174,2.23014 0.79819,2.91153 1.07273,3.09142 0.0688,0.0451 0.26027,0.0959 0.42556,0.11294 0.27898,0.0288 0.31555,0.0189 0.51012,-0.13742 0.26605,-0.2138 0.32307,-0.21175 0.32307,0.0117 0,0.18302 -0.14519,0.44071 -0.43531,0.77263 -0.64183,0.73432 -0.49035,1.21769 0.86028,2.74505 1.01111,1.14341 1.85272,2.02993 5.308616,5.59186 1.98373,2.04458 2.44274,2.49206 2.4738,2.41159 0.021,-0.0543 0.31069,-3.21737 0.64381,-7.02897 0.33312,-3.8116 0.61816,-6.9495 0.63343,-6.97312 0.0395,-0.0611 1.41172,-0.16431 2.18448,-0.16431 0.69847,0 0.68887,-0.003 0.87563,0.31156 0.0727,0.12253 0.20937,0.2263 0.44093,0.33466 0.39901,0.18671 0.73143,0.25389 1.51544,0.30624 l 0.58359,0.039 0.16396,1.61927 c 0.0902,0.8906 0.17483,1.62987 0.18813,1.64283 0.0133,0.013 0.5276,-0.0716 1.14289,-0.18796 0.61528,-0.11633 1.12716,-0.20305 1.13752,-0.19269 0.0104,0.0104 0.14107,2.416 0.29048,5.34589 0.14941,2.92988 0.28113,5.33653 0.2927,5.3481 0.0265,0.0265 0.9136,-0.45936 2.8831,-1.57913 4.31591,-2.45381 6.35203,-3.80456 6.51862,-4.3244 0.0298,-0.0931 0.0795,-0.42188 0.11037,-0.73072 0.0429,-0.42921 0.0935,-0.6414 0.21472,-0.90042 0.28135,-0.60121 0.95504,-1.16225 2.06918,-1.72317 1.5392,-0.77491 2.40102,-0.96165 3.10319,-0.6724 0.41576,0.17127 0.59479,0.16727 0.88984,-0.0198 0.13252,-0.084 0.3362,-0.17056 0.45262,-0.19226 0.91668,-0.17084 2.92361,-1.24854 5.50792,-2.95768 2.93648,-1.94206 5.46582,-3.80445 12.17237,-8.9627 4.31936,-3.32218 5.37637,-4.10373 5.73388,-4.23966 0.11614,-0.0442 0.15097,-0.0281 0.26548,0.12198 0.0725,0.095 0.21842,0.37758 0.32427,0.62786 0.27904,0.65978 0.48187,0.80012 0.90148,0.62372 0.0949,-0.0399 0.46184,-0.26552 0.81554,-0.50144 2.61492,-1.74412 16.56292,-10.07839 16.67662,-9.96468 0.0308,0.0308 -0.33127,0.4746 -0.90579,1.11031 -0.63314,0.70054 -1.53382,1.54171 -3.60664,3.36829 -1.85418,1.63392 -3.164,2.92353 -3.50434,3.45029 -0.30864,0.47768 -0.35756,0.82145 -0.14494,1.0185 0.24055,0.22293 0.53424,0.26947 1.49494,0.23687 0.61733,-0.0209 1.15409,-0.0784 1.85289,-0.19819 0.54108,-0.0928 0.99929,-0.15266 1.01823,-0.13304 0.14207,0.14717 -4.15492,3.45258 -10.20142,7.84733 -8.79464,6.39217 -16.90537,11.9506 -19.58747,13.42365 -1.00642,0.55275 -1.588,0.99045 -2.13516,1.60694 -0.65193,0.73455 -0.96328,1.52081 -1.16596,2.94448 -0.19603,1.37693 -0.31641,1.72194 -0.73564,2.10838 -0.48328,0.44546 -1.13917,0.67887 -1.82316,0.64879 -0.62705,-0.0276 -0.98028,-0.20815 -1.6964,-0.86722 -0.57639,-0.53048 -0.80123,-0.67827 -1.0318,-0.67827 -0.14015,0 -0.16228,0.0145 -1.01306,0.66489 -0.72675,0.55556 -2.88471,1.98126 -7.06559,4.66804 -5.87281,3.77405 -7.35517,4.79327 -7.2484,4.98372 0.17317,0.3089 3.10053,3.20024 7.91969,7.82228 1.4435,1.38445 3.12168,2.99419 3.72929,3.57719 0.60761,0.583 1.12284,1.06 1.14497,1.06 0.0221,0 0.24125,-0.19028 0.48695,-0.42285 0.69456,-0.65747 1.49046,-1.13128 1.90028,-1.13128 0.328,0 1.0602,0.62573 2.97477,2.54221 3.7581,3.76186 7.90166,8.45699 8.70937,9.86872 0.19899,0.34779 0.21162,0.55562 0.0553,0.90909 -0.16593,0.37511 -0.45004,0.69435 -0.89041,1.00049 l -0.38896,0.27041 3.68027,4.29357 c 7.77616,9.07202 12.06431,14.11591 12.06431,14.19053 0,0.0275 -0.13867,0.11506 -0.30815,0.19448 -0.28271,0.1325 -0.36123,0.14415 -0.95124,0.14122 -0.55484,-0.003 -0.7056,-0.0238 -1.09861,-0.15325 -0.68276,-0.22492 -1.41554,-0.5886 -2.5352,-1.25821 -1.13677,-0.67983 -1.49816,-0.86168 -1.71401,-0.86243 -0.33119,-0.001 -0.7707,0.34795 -0.99636,0.79143 -0.24618,0.48379 -0.61484,1.78544 -0.77965,2.75273 -0.0291,0.17102 -0.0563,0.19957 -0.21868,0.23004 -0.45108,0.0846 -0.92892,-0.22634 -1.16727,-0.75961 -0.0759,-0.16983 -0.22549,-0.65702 -0.33241,-1.08265 -0.10691,-0.42563 -0.25418,-0.90027 -0.32727,-1.05477 -0.22227,-0.46985 -0.68527,-0.80043 -1.36174,-0.97229 -0.22139,-0.0562 -0.50183,-0.16495 -0.62319,-0.24156 -0.12137,-0.0766 -0.83252,-0.7142 -1.58034,-1.41686 -17.86611,-16.78714 -26.01537,-24.29236 -26.37673,-24.29212 -0.15345,0 -0.72486,0.32265 -0.86481,0.48815 -0.42237,0.4995 -0.55042,1.08085 -0.61893,2.81009 -0.0541,1.36698 -0.0987,1.77896 -0.24594,2.27517 -0.19119,0.64432 -0.55352,1.14786 -1.02464,1.42395 -0.22252,0.1304 -0.28813,0.14181 -0.77227,0.1342 -0.98812,-0.0155 -1.6546,-0.26846 -2.24888,-0.85345 l -0.36202,-0.35636 -0.0298,1.01823 c -0.0164,0.56002 -0.0552,2.12756 -0.0862,3.48341 -0.16481,7.19512 -0.48409,12.3958 -0.83622,13.62112 -0.0646,0.22489 -0.10891,0.28721 -0.23539,0.3313 -0.23433,0.0817 -0.46697,-0.006 -1.05165,-0.39706 -0.56576,-0.37826 -0.73028,-0.44519 -0.85002,-0.34581 -0.13668,0.11344 -0.1511,0.41243 -0.0842,1.74564 0.23693,4.72047 -0.0946,8.34494 -1.0266,11.22396 -0.35456,1.09522 -1.11134,2.77848 -1.11436,2.47858 z m 5.38629,-85.15186 c -4.71917,-0.19044 -9.323776,-1.14304 -13.656826,-2.82532 -0.99772,-0.38736 -1.29966,-0.44936 -3.67983,-0.75561 -2.47863,-0.31893 -3.51724,-0.52731 -4.66002,-0.93497 -1.5055,-0.53704 -2.53794,-1.32937 -3.08246,-2.36559 -0.10393,-0.19779 -0.18897,-0.38296 -0.18897,-0.41149 0,-0.0285 0.10249,-0.0918 0.22776,-0.14058 0.55587,-0.21652 0.94709,-0.663 0.95006,-1.08425 6.4e-4,-0.0918 -0.0863,-0.3419 -0.19329,-0.5557 -0.17223,-0.34425 -0.34946,-0.54389 -1.5492,-1.745 -0.88835,-0.88936 -1.45319,-1.4125 -1.64076,-1.51963 -0.56733,-0.32402 -1.04009,-0.27294 -1.51818,0.164 l -0.28428,0.25982 -0.39452,-0.41938 c -1.27445,-1.35474 -3.60503,-5.32447 -5.25994,-8.95934 -2.53332,-5.56426 -4.21408,-11.3251 -4.83135,-16.55958 -0.34916,-2.96096 -0.38989,-6.89257 -0.10687,-10.31625 0.3968,-4.80014 1.38349,-8.12864 3.39966,-11.46845 0.79998,-1.32517 1.58935,-2.44767 3.73297,-5.3083 0.76623,-1.02253 1.52304,-2.10161 1.87176,-2.66882 1.28207,-2.08531 2.0137,-3.12744 2.98968,-4.25849 0.80504,-0.93294 1.62132,-1.52607 3.81229,-2.77013 1.64813,-0.93582 1.71205,-0.97819 2.19723,-1.45647 0.44823,-0.44185 0.89413,-0.72307 2.79389,-1.76203 0.79189,-0.43307 1.57846,-0.87895 1.74794,-0.99085 l 0.30815,-0.20345 v 0.23297 c 0,0.4309 0.40467,0.72711 0.83212,0.60908 0.41809,-0.11543 0.72197,-0.57313 0.72204,-1.08751 l 4e-5,-0.21822 1.11198,-0.003 c 0.96326,-0.003 1.22275,-0.0227 1.9403,-0.14933 1.54163,-0.27196 2.98257,-0.65863 5.338586,-1.4326 1.71849,-0.56453 1.67015,-0.56001 2.80957,-0.26281 1.45009,0.37824 2.59606,0.34498 4.76839,-0.13839 0.3383,-0.0753 0.63007,-0.16111 0.64838,-0.19073 0.0212,-0.0342 0.35347,0.0147 0.91224,0.1343 1.38728,0.29697 2.04002,0.37124 2.96901,0.33784 0.67601,-0.0243 0.92319,-0.0586 1.55413,-0.21561 1.28288,-0.31927 1.12296,-0.33194 2.81567,0.22295 2.57833,0.84521 4.03193,1.22983 5.60375,1.48276 0.53271,0.0857 1.83652,0.18878 1.99678,0.15784 0.0482,-0.009 0.26112,-0.0289 0.47318,-0.0436 0.30779,-0.0213 0.38,-0.0122 0.35804,0.045 -0.0513,0.13368 0.0868,0.69299 0.22133,0.89625 0.14824,0.22401 0.4776,0.41877 0.70765,0.41847 0.18181,0 0.46912,-0.16754 0.55124,-0.32097 0.0331,-0.0619 0.0769,-0.2068 0.0972,-0.32199 l 0.037,-0.20945 0.32154,0.20387 c 0.17685,0.11213 0.9365,0.54092 1.68812,0.95288 1.84047,1.00876 2.31346,1.30796 2.78672,1.76281 0.46789,0.44969 0.77721,0.65434 2.19723,1.45372 1.36614,0.76906 1.94539,1.13018 2.58177,1.60956 1.18504,0.89268 2.39765,2.44997 4.23266,5.43577 0.35814,0.58273 1.14766,1.69861 2.11731,2.99249 2.14908,2.86771 3.01371,4.12538 3.8501,5.60025 1.23606,2.17966 2.09116,4.58244 2.57156,7.22597 0.63046,3.46922 0.83573,8.92229 0.47945,12.73663 -0.55661,5.9593 -2.403,12.36199 -5.37746,18.6474 -1.57782,3.33412 -3.68719,6.84518 -4.85879,8.08745 l -0.37879,0.40164 -0.21249,-0.21249 c -0.44439,-0.4444 -0.93494,-0.53047 -1.49512,-0.26235 -0.26859,0.12856 -0.55152,0.38413 -1.71807,1.5519 -1.17106,1.17229 -1.42413,1.45323 -1.56753,1.74021 -0.27378,0.54787 -0.2094,0.99 0.19115,1.31284 0.18053,0.14551 0.66367,0.40559 0.75346,0.40561 0.0999,1e-5 0.0401,0.17174 -0.2076,0.59527 -0.53429,0.91375 -1.31344,1.54851 -2.56079,2.08628 -1.12838,0.48647 -2.55048,0.79348 -5.20686,1.12408 -2.22648,0.2771 -2.55695,0.34697 -3.67996,0.77801 -4.39714,1.68772 -8.95342,2.61463 -13.72369,2.79189 -0.53791,0.02 -0.97803,0.0568 -0.97803,0.0818 0,0.0425 -0.36894,0.0452 -1.25939,0.009 z M 98.044714,169.07576 c 0.45709,-0.15701 0.92275,-0.4186 1.46394,-0.82236 0.553786,-0.41316 0.861166,-0.68799 2.384806,-2.13225 0.69266,-0.65658 1.45231,-1.35474 1.68811,-1.55148 1.20599,-1.00617 2.16301,-1.49015 3.08147,-1.55834 0.22107,-0.0164 0.52493,-0.0635 0.67524,-0.10468 0.25791,-0.0706 1.00462,-0.45216 1.31528,-0.67206 0.23197,-0.1642 0.79245,-0.41262 1.01623,-0.45043 0.11479,-0.0194 0.20871,-0.0603 0.20871,-0.091 0,-0.0838 0.41039,-0.004 0.72959,0.14175 0.15074,0.0688 0.53659,0.28031 0.85745,0.46993 0.77331,0.45701 0.95937,0.52534 1.65521,0.60792 1.48341,0.17604 2.29843,0.70469 4.88417,3.16804 2.27764,2.16983 3.079,2.75075 4.13938,3.00064 1.44268,0.33998 3.37277,-0.63333 5.3929,-2.71955 0.84039,-0.86789 1.4365,-1.6195 2.24854,-2.83508 0.78639,-1.1772 1.11549,-1.74361 1.74916,-3.01042 1.77119,-3.54092 2.80154,-7.13821 3.24378,-11.32515 0.11571,-1.09547 0.1341,-4.11935 0.0301,-4.95715 -0.21523,-1.73471 -0.55015,-3.10219 -1.23796,-5.05467 -0.26809,-0.76103 -0.50178,-1.47336 -0.51931,-1.58296 l -0.0319,-0.19926 0.29866,-0.0942 c 0.36204,-0.11412 0.75309,-0.47207 0.94653,-0.86644 0.10488,-0.2138 0.13144,-0.35118 0.13144,-0.67976 0,-0.37686 -0.0126,-0.42495 -0.14831,-0.56661 -0.0861,-0.0899 -0.27719,-0.19465 -0.45552,-0.24978 -1.59288,-0.49247 -2.79649,-2.28014 -3.53899,-5.2563 -0.2109,-0.84535 -0.45883,-2.15563 -0.7349,-3.88383 -0.0776,-0.48551 -0.15807,-0.91323 -0.17892,-0.95048 -0.0208,-0.0372 -0.14566,-0.13611 -0.27736,-0.21969 -0.51393,-0.32614 -1.32966,-1.07259 -3.55398,-3.25215 -2.84156,-2.78439 -3.67479,-3.54092 -4.72599,-4.29105 -0.79458,-0.567 -1.59668,-0.9345 -2.03964,-0.9345 -0.79954,0 -2.0905,1.12582 -4.39821,3.83557 -2.338,2.7453 -2.79168,3.26549 -3.27542,3.75558 -0.2953,0.29916 -0.65384,0.61178 -0.79676,0.69469 -0.14292,0.0829 -0.26789,0.16973 -0.27772,0.19293 -0.0354,0.0836 -0.20701,0.0392 -0.45403,-0.11745 -0.36152,-0.22928 -1.23672,-1.13333 -2.2447,-2.31872 -2.31619,-2.72386 -2.86363,-3.34595 -3.65992,-4.15903 -1.59132,-1.6249 -2.18011,-1.94747 -3.06328,-1.67825 -1.102276,0.33601 -2.612366,1.54506 -5.565656,4.45611 -3.03539,2.99196 -3.70859,3.61139 -4.27301,3.93167 -0.25164,0.1428 -0.24672,0.12556 -0.52229,1.83033 -0.48776,3.01741 -0.87122,4.44898 -1.57907,5.895 -0.68359,1.39648 -1.49111,2.20666 -2.5418,2.55017 -0.4388,0.14347 -0.56855,0.2576 -0.64699,0.5691 -0.17259,0.68543 0.36194,1.55131 1.12498,1.82231 0.14606,0.0519 0.26557,0.10682 0.26557,0.12211 0,0.0799 -0.25281,0.86037 -0.64249,1.98351 -0.68365,1.97042 -1.03512,3.48959 -1.17789,5.09113 -0.12012,1.34749 -0.0596,3.76578 0.13549,5.41268 0.75544,6.37775 3.51169,12.67969 7.20316,16.46948 2.19493,2.25338 4.11619,3.1257 5.69203,2.58437 z M 109.6285,158.28111 c -0.29497,-0.16264 -0.76157,-0.48488 -2.1348,-1.47427 -0.4716,-0.33979 -1.05038,-0.72599 -1.28618,-0.85824 -0.8987,-0.50402 -2.3042,-0.84135 -3.95608,-0.94948 -0.76795,-0.0503 -0.96849,-0.0814 -1.20884,-0.18768 -0.8934,-0.39504 -2.197036,-1.71319 -3.241506,-3.27757 -0.78125,-1.17013 -1.43957,-2.6601 -1.66253,-3.76278 -0.13302,-0.65783 -0.15495,-1.29427 -0.0914,-2.65274 0.17039,-3.64419 0.75651,-6.16972 1.84513,-7.95046 0.39596,-0.64771 0.87379,-1.28935 1.79491,-2.41024 0.954736,-1.1618 1.058676,-1.31684 1.238166,-1.84698 0.75462,-2.22891 2.47168,-3.64669 5.04001,-4.16156 0.43981,-0.0882 1.64637,-0.2164 2.04185,-0.21701 0.0466,0 0.1605,-0.11703 0.25308,-0.2599 0.34099,-0.52623 0.81984,-0.86216 1.35027,-0.94726 0.13264,-0.0213 0.25687,-0.0635 0.27607,-0.0937 0.0464,-0.0731 0.64669,0.0446 0.9086,0.17824 0.24369,0.12432 0.63094,0.50721 0.82797,0.81863 l 0.14916,0.23579 0.701,0.0298 c 3.24971,0.13814 5.50916,1.66034 6.45865,4.35123 0.18672,0.52919 0.29444,0.68854 1.23224,1.82294 2.0201,2.44358 2.6676,3.70888 3.16644,6.18759 0.41624,2.06832 0.61669,5.42665 0.39876,6.68088 -0.32993,1.89887 -1.71007,4.32347 -3.43623,6.03673 -0.59501,0.59056 -1.03013,0.93121 -1.45557,1.13952 -0.25992,0.12727 -0.3821,0.1473 -1.15489,0.18926 -1.35276,0.0735 -2.66942,0.33301 -3.55079,0.69992 -0.43506,0.18112 -1.28599,0.73666 -2.69932,1.76229 -0.48633,0.35293 -1.0108,0.70829 -1.16547,0.78968 -0.15467,0.0814 -0.28128,0.17814 -0.28135,0.21498 0,0.0954 -0.0458,0.0842 -0.35731,-0.0876 z m 49.8489,-7.52738 c -0.30265,-0.4619 -0.43156,-1.24476 -0.38497,-2.33772 0.036,-0.84524 0.0917,-1.33584 0.41061,-3.61921 0.26854,-1.92264 0.35878,-2.76109 0.43223,-4.01587 0.0719,-1.22793 0.0465,-1.53776 -0.35305,-4.31751 -0.52678,-3.66448 -0.64147,-5.01454 -0.60041,-7.06754 0.0213,-1.06303 0.053,-1.51822 0.1407,-2.01612 0.14581,-0.82806 0.38591,-1.63597 0.44413,-1.49446 0.0229,0.0556 0.16342,0.69194 0.31233,1.41408 0.53103,2.57525 0.75141,3.11741 1.36196,3.35058 0.41002,0.15659 0.44838,0.12613 0.6426,-0.51027 0.52961,-1.73542 1.25613,-3.14146 2.81064,-5.43947 2.21467,-3.27392 2.47498,-3.69225 3.06004,-4.91762 0.20036,-0.41966 0.45108,-1.00417 0.55715,-1.29892 0.19971,-0.55498 0.47602,-1.47913 0.45001,-1.50513 -0.008,-0.008 -0.34211,0.13967 -0.74213,0.32852 -0.89765,0.42378 -1.55205,0.64118 -2.35262,0.7816 -0.74551,0.13076 -2.41159,0.20426 -2.41159,0.10639 0,-0.11766 0.82838,-0.90226 1.2174,-1.15305 1.17674,-0.75862 2.84413,-1.1126 4.09758,-0.86991 l 0.35783,0.0693 0.0575,-0.3302 c 0.0316,-0.1816 0.0575,-0.39715 0.0575,-0.47899 0,-0.13562 0.0131,-0.14549 0.14738,-0.11156 0.45462,0.11485 1.07358,0.18861 1.58319,0.18868 0.97957,0 1.782,-0.22736 2.69469,-0.76393 0.57841,-0.34005 1.54625,-1.27325 2.04221,-1.96913 1.6708,-2.34428 2.86841,-6.03855 3.4225,-10.55741 0.054,-0.44067 0.0994,-1.33098 0.11606,-2.277606 0.0381,-2.166224 -0.0514,-2.9282 -0.4313,-3.67096 -0.15244,-0.29804 -0.2085,-0.35866 -0.38821,-0.41983 -0.2847,-0.0969 -0.68688,-0.0445 -0.93902,0.12236 -0.39668,0.26251 -0.61216,0.77862 -1.04153,2.494692 -0.56049,2.240134 -0.91344,2.997924 -1.76808,3.796054 -0.78719,0.73515 -1.66205,1.04667 -4.55364,1.62148 -1.03162,0.20508 -2.172,0.44575 -2.53417,0.53484 -2.46062,0.60526 -4.22081,1.69119 -5.14064,3.17146 -0.10532,0.16948 -0.20295,0.30815 -0.21696,0.30815 -0.0386,0 0.0356,-0.74899 0.1485,-1.50055 0.56039,-3.72895 2.31541,-6.446766 5.92118,-9.169506 0.29475,-0.22257 1.1991,-0.87017 2.00966,-1.43912 2.64822,-1.85882 3.49274,-2.53168 4.58594,-3.65373 1.39898,-1.43592 2.25628,-2.93927 2.7292,-4.78592 0.2041,-0.79692 0.32335,-1.72939 0.3945,-3.08474 0.058,-1.10357 0.1022,-1.26091 0.55695,-1.98009 0.4933,-0.78015 0.64605,-1.17359 0.81247,-2.09281 0.13596,-0.75092 0.1924,-1.52002 0.19664,-2.67955 0.003,-0.88228 -0.0177,-1.22206 -0.10603,-1.72553 -0.52201,-2.97398 -2.28943,-7.48741 -3.79146,-9.68216 -0.12841,-0.18764 -0.23349,-0.39526 -0.23349,-0.46137 0,-0.0661 0.0819,-0.29844 0.18192,-0.51628 0.24609,-0.53581 0.32148,-0.93657 0.28116,-1.4947 -0.0373,-0.51607 -0.22942,-1.35807 -0.43383,-1.90112 -0.0758,-0.20139 -0.13114,-0.37285 -0.12296,-0.38102 0.008,-0.008 0.18137,0.28992 0.38487,0.66244 0.43189,0.79056 1.05338,1.73087 1.55805,2.35733 0.19623,0.24359 0.97363,1.07558 1.72755,1.84889 1.24289,1.27483 2.27755,2.408 2.92301,3.2013 0.81208,0.9981 2.21106,4.05178 2.95845,6.4577 0.69634,2.24156 0.91611,3.59509 1.04419,6.43091 0.079,1.75019 0.24668,2.72106 1.02712,5.94859 1.02437,4.23628 1.37818,6.27498 1.55165,8.94078 0.0906,1.392948 0.035,4.064876 -0.1062,5.102266 -0.27916,2.05057 -0.69873,3.5032 -1.45703,5.04462 -0.99776,2.02818 -2.41477,3.6184 -4.63401,5.20048 -0.29338,0.20914 -1.22413,0.81497 -2.06834,1.34628 -0.8442,0.53131 -1.74855,1.11784 -2.00966,1.30339 -1.81997,1.29338 -2.59477,2.58581 -2.52918,4.21886 0.0229,0.56883 0.10685,0.78599 0.38383,0.99223 0.49507,0.36862 1.59407,-0.12637 2.82282,-1.27139 1.53959,-1.43468 3.04593,-3.64102 3.76769,-5.51854 l 0.18138,-0.4718 0.0342,0.60578 c 0.0797,1.41058 0.0993,3.66624 0.0419,4.80617 -0.21427,4.25285 -0.92588,6.56708 -2.48477,8.0806 -0.53381,0.51827 -0.95808,0.80802 -2.18525,1.49233 -1.10813,0.61793 -1.5875,0.94033 -2.09033,1.40588 -0.66496,0.61566 -1.27501,1.55101 -1.63452,2.50615 -0.22243,0.59093 -0.1614,0.86176 0.23774,1.05497 0.72173,0.34938 2.37374,-0.0843 3.71836,-0.97619 0.99795,-0.66192 1.69765,-1.3482 2.30487,-2.26067 0.15117,-0.22717 0.2841,-0.40379 0.29539,-0.3925 0.0113,0.0113 -0.044,0.24539 -0.12289,0.52021 -0.77583,2.70284 -2.18355,4.567 -4.71649,6.24577 -0.87708,0.58132 -1.59573,0.98509 -3.51105,1.97268 -2.92334,1.50734 -3.93615,2.07493 -5.14388,2.88268 -3.31395,2.21643 -5.74759,5.11801 -7.42965,8.85821 -0.22382,0.49769 -0.4143,0.913 -0.42329,0.92293 -0.009,0.01 -0.0561,-0.0427 -0.10477,-0.11689 z m -98.232646,-3.72148 c -0.88175,-0.46278 -1.63226,-1.03527 -2.41584,-1.84282 -0.78592,-0.80996 -1.24445,-1.39365 -2.77128,-3.5277 -1.67169,-2.33652 -2.51016,-3.11941 -3.78935,-3.53813 -0.28001,-0.0916 -1.34426,-0.33263 -2.36499,-0.5355 -2.54256,-0.50534 -3.37372,-0.73167 -4.64924,-1.26607 -5.08289,-2.12955 -8.23762,-7.36405 -9.73394,-16.15112 -0.1417,-0.83213 -0.45338,-3.06904 -0.43108,-3.09379 0.007,-0.007 0.0913,0.19772 0.18834,0.45552 0.38399,1.02009 1.14453,2.33618 1.88124,3.25544 0.79747,0.99508 1.98372,2.09128 2.94454,2.72102 0.91208,0.5978 2.15244,1.09149 2.7913,1.11101 0.70796,0.0216 0.71463,0.0199 0.84986,-0.22072 0.27091,-0.48203 0.034,-1.24775 -0.7492,-2.42137 -0.52836,-0.79175 -0.93887,-1.31207 -2.3552,-2.98523 -0.53645,-0.63371 -1.18046,-1.42337 -1.43114,-1.75481 -0.7553,-0.99859 -1.09836,-1.26807 -3.76803,-2.95989 -1.98939,-1.26071 -2.95999,-1.99503 -3.96717,-3.00142 -0.33976,-0.3395 -0.76901,-0.80373 -0.95389,-1.03163 -1.16365,-1.4344 -2.01255,-3.24084 -2.38664,-5.0787 -0.24805,-1.21863 -0.27555,-1.54802 -0.27286,-3.26904 0.003,-1.86092 0.009,-1.918016 0.58942,-5.714636 0.94773,-6.19724 2.23072,-13.33746 2.97421,-16.55236 0.38815,-1.67838 0.41581,-1.75668 1.88396,-5.33229 0.56062,-1.36536 1.28597,-2.84696 1.70448,-3.48159 0.41125,-0.62362 0.794,-1.007 1.66108,-1.66381 1.41893,-1.07484 2.12947,-1.75375 2.86821,-2.7405 0.69826,-0.93269 1.24496,-1.93697 1.80436,-3.3146 0.17354,-0.42738 0.30333,-0.70471 0.28842,-0.61629 -0.0149,0.0884 -0.0562,0.31753 -0.0918,0.50911 -0.0356,0.19159 -0.0646,0.69802 -0.0645,1.12541 1.5e-4,0.89888 0.0712,1.2612 0.39547,2.02028 0.11691,0.27363 0.21256,0.54231 0.21256,0.59707 0,0.0548 -0.18471,0.32628 -0.41046,0.60339 -1.4016,1.72042 -2.06356,3.20351 -2.73015,6.11679 -0.30549,1.33514 -0.37139,1.52516 -0.74735,2.15517 -0.63925,1.07122 -0.79612,1.8647 -0.75804,3.83429 0.0208,1.07388 0.0462,1.40842 0.1399,1.83708 0.23182,1.06112 0.58987,2.09817 1.42452,4.12597 0.34449,0.83696 0.39845,1.16236 0.33975,2.04879 -0.13659,2.06281 -0.12098,2.44837 0.11824,2.92071 0.14655,0.28934 0.32534,0.42658 1.35939,1.04345 2.49027,1.4856 3.65656,2.453 5.49981,4.56199 0.8777,1.00423 1.6769,1.787786 1.82496,1.789256 0.15616,0.002 0.22586,-0.27114 0.24637,-0.963796 0.0917,-3.09878 0.13308,-4.03439 0.20599,-4.6624 0.31865,-2.74439 1.15306,-4.70695 2.54393,-5.98335 0.25514,-0.23414 1.024,-0.7812 1.05473,-0.75047 0.01,0.01 -0.0286,0.29323 -0.0857,0.62945 -0.16946,0.99714 -0.23544,1.88806 -0.20201,2.72814 0.081,2.03639 0.59955,3.57241 2.01714,5.97538 1.08948,1.84679 1.49515,2.57208 1.8584,3.322632 0.85208,1.760568 1.32914,3.381734 1.61043,5.472604 0.13609,1.01152 0.13546,4.07142 -0.001,5.40633 -0.0543,0.53055 -0.1157,0.98265 -0.13651,1.00468 -0.0208,0.022 -0.15945,-0.13474 -0.3081,-0.34834 -0.93752,-1.34713 -2.05697,-2.39392 -3.37604,-3.1569 -1.06164,-0.61407 -2.07099,-0.98623 -4.28007,-1.57807 -1.9604,-0.52522 -2.65987,-0.73481 -3.37791,-1.01216 -2.28469,-0.8825 -3.98889,-2.29251 -5.07847,-4.201816 -0.35406,-0.620416 -0.60422,-1.207658 -0.9497,-2.22941 -0.31228,-0.92358 -0.36015,-1.03403 -0.52837,-1.2192 -0.13393,-0.14741 -0.38199,-0.1967 -0.52678,-0.10467 -0.19118,0.12151 -0.54811,1.22674 -0.69041,2.137852 -0.12076,0.773212 -0.12155,2.561164 -0.002,3.553644 0.35597,2.94466 1.19309,5.77853 2.47888,8.39172 0.74719,1.51853 1.47099,2.54792 2.46482,3.50546 0.91879,0.88525 1.71323,1.37961 3.18162,1.97984 0.36844,0.1506 0.73018,0.31755 0.80386,0.37101 0.12001,0.0871 0.19823,0.0927 0.75028,0.0541 0.63624,-0.0445 1.68585,0.0113 2.20163,0.11704 1.2161,0.24933 2.18696,0.75461 2.96391,1.54254 l 0.36917,0.37439 -0.20839,0.0627 c -0.11462,0.0345 -0.45548,0.0759 -0.75748,0.092 -1.07896,0.0575 -1.77309,-0.18484 -3.55062,-1.23945 -0.73302,-0.4349 -1.46721,-0.7794 -1.52912,-0.71748 -0.0154,0.0154 0.0545,0.2794 0.15517,0.58677 0.89675,2.73756 2.86488,5.71943 5.55111,8.41037 1.53322,1.5359 2.89822,2.59408 4.15885,3.22404 0.74185,0.37073 1.58386,0.5791 1.88199,0.46575 0.40141,-0.15262 0.48579,-0.33387 1.1431,-2.4553 0.12399,-0.40014 0.24234,-0.69617 0.26784,-0.66988 0.0593,0.0611 0.4003,1.46293 0.50563,2.0784 0.16225,0.94808 0.21103,1.79395 0.14409,2.49902 -0.0822,0.86522 -0.18715,1.32598 -0.66608,2.92277 -0.45079,1.50298 -0.62318,2.22969 -0.78724,3.31868 -0.32985,2.18945 -0.11443,4.67305 0.62268,7.17882 0.26651,0.906 0.61075,1.75704 1.06855,2.64171 0.21736,0.42001 0.38998,0.76291 0.38362,0.76197 -0.006,-9.1e-4 -0.22862,-0.1156 -0.4939,-0.25483 z m 9.6606,-38.54028 c -0.36114,-0.14117 -1.0867,-0.63695 -1.51658,-1.03629 l -0.36738,-0.34128 0.38071,-0.85345 c 0.96249,-2.15767 1.50529,-3.80312 1.78855,-5.42178 0.27595,-1.576942 0.14674,-4.482356 -0.25681,-5.774686 -0.29123,-0.93266 -0.60983,-1.32536 -1.61243,-1.98744 -1.09791,-0.72502 -1.36098,-1.07478 -2.07244,-2.75536 -1.12761,-2.66358 -2.52055,-4.57769 -4.3161,-5.93096 -0.90503,-0.6821 -1.707,-1.1227 -3.99079,-2.19252 -1.7685,-0.82843 -2.68498,-1.43838 -3.60061,-2.39633 -1.79513,-1.87807 -2.80375,-4.93583 -3.20318,-9.71075 -0.20863,-2.49406 -0.23502,-5.68388 -0.0607,-7.34195 0.26116,-2.48464 0.61622,-4.10781 1.88735,-8.62813 1.58868,-5.64957 1.89112,-7.31976 1.92144,-10.61099 0.0166,-1.79797 0.0546,-2.17044 0.29855,-2.92804 0.15702,-0.48751 0.52321,-1.22095 0.91945,-1.84155 0.8836,-1.38391 1.06008,-1.74001 1.76623,-3.5638 0.48649,-1.25648 0.86891,-2.08769 1.12499,-2.4452 0.11082,-0.15472 0.3483,-0.36033 0.63287,-0.54793 0.61987,-0.40865 1.4467,-1.22327 3.29893,-3.25021 0.8619,-0.94319 1.76989,-1.90805 2.01775,-2.14413 0.66177,-0.63028 0.72937,-0.7977 0.9476,-2.3468 0.11444,-0.81235 0.48984,-1.31897 1.29492,-1.74756 0.3535,-0.18819 0.43553,-0.21548 0.4028,-0.13398 -0.16357,0.40717 -0.46981,1.43397 -0.57397,1.92443 -0.18547,0.87336 -0.17648,1.96635 0.0231,2.81316 0.22959,0.97402 0.22596,0.98777 -0.44735,1.69455 -0.61868,0.64944 -0.90949,1.10171 -1.26073,1.9607 -0.30758,0.75224 -0.40786,0.93076 -0.88195,1.57022 -0.37585,0.50694 -0.61782,1.05342 -0.73237,1.65406 -0.0669,0.35076 -0.0742,0.5879 -0.0376,1.21306 0.0251,0.42738 0.0461,1.0544 0.0467,1.39336 0.001,0.75793 -0.0275,0.82144 -0.66079,1.45285 -0.86728,0.8647 -0.98639,1.20395 -0.96251,2.74143 0.009,0.58753 -0.0169,1.4197 -0.0605,1.93508 -0.13935,1.646 0.0717,3.09007 0.67841,4.64241 0.0749,0.19158 0.3715,0.84271 0.65915,1.44695 0.84813,1.7816 0.81462,1.65232 0.86132,3.32264 0.0426,1.52439 0.10142,1.92696 0.39502,2.70503 0.49966,1.32414 1.47362,2.36469 2.85648,3.05179 0.59492,0.2956 1.2918,0.54438 1.34749,0.48105 0.0233,-0.0265 0.0693,-0.28929 0.10234,-0.58403 0.42809,-3.82329 3.01531,-9.81542 7.45073,-17.25627 1.6185,-2.71519 2.74478,-4.49151 5.7765,-9.11045 0.67713,-1.03163 1.2865,-1.96009 1.35418,-2.06325 0.0677,-0.10316 0.10523,-0.13934 0.0835,-0.0804 -0.0218,0.059 -0.14671,0.38301 -0.27764,0.72012 -0.67617,1.74106 -1.20335,4.30072 -1.44106,6.99697 -0.12182,1.38179 -0.12351,4.07504 -0.003,5.25225 0.22019,2.15602 0.59878,3.62768 1.23375,4.79591 0.42448,0.78094 1.12619,1.44247 1.72708,1.62817 0.10515,0.0325 0.11389,0.003 0.17555,-0.59595 0.51924,-5.04196 2.34394,-10.52549 5.21869,-15.68309 1.93575,-3.47294 3.7712,-6.10782 7.78782,-11.1798 1.668876,-2.10737 2.103856,-2.68226 2.589646,-3.42263 0.74428,-1.1343 0.91913,-1.83338 0.56409,-2.25532 -0.16555,-0.19674 -0.42409,-0.23981 -0.86968,-0.14486 -0.27911,0.0595 -0.34453,0.0599 -0.36662,0.002 -0.0728,-0.18979 0.19562,-0.72342 1.70895,-3.39714 3.22846,-5.7039811 4.45204,-8.4249711 4.97641,-11.0665211 l 0.0638,-0.32153998 0.17662,0.77706998 c 0.46929,2.06462 1.22117,4.06343 2.45939,6.5380899 0.56129,1.1217706 0.92898,1.7991809 2.57427,4.7427912 1.11924,2.00244 1.44485,2.72459 1.76444,3.91314 0.36405,1.35391 0.79236,2.48599 1.49491,3.95128 1.27491,2.65909 3.21796,5.67369 5.24172,8.13246 0.30325,0.36844 0.67527,0.87906 0.8267,1.13471 0.52914,0.8933 1.30545,2.647 3.00873,6.79674 1.28027,3.11915 1.63759,3.96918 2.01619,4.79638 0.80046,1.7489 1.0891,3.51582 1.30003,7.95825 0.0483,1.01689 0.10572,1.868 0.12764,1.89137 0.0583,0.0622 0.55972,-0.3322 0.84597,-0.66536 1.1479,-1.33604 2.75091,-5.03624 3.58416,-8.27321 0.19312,-0.7502 0.20678,-0.85395 0.20468,-1.55414 -0.002,-0.73535 -0.008,-0.77372 -0.3073,-1.92927 -0.41674,-1.61065 -0.48673,-2.12347 -0.44979,-3.29584 0.033,-1.04795 0.13244,-1.71163 0.36925,-2.46518 0.2172,-0.6911 0.70187,-1.67299 1.17714,-2.38479 l 0.39362,-0.5895 0.0384,0.77707 c 0.25102,5.07921 1.95754,9.2694 5.42437,13.31893 1.08539,1.26782 2.26907,2.45931 4.48391,4.51351 1.13122,1.04917 1.54775,1.5293 2.07012,2.38617 0.57576,0.94444 0.95006,1.88902 1.51892,3.83311 0.42756,1.46122 0.59468,1.88045 0.87148,2.18619 0.20191,0.22302 0.25532,0.25224 0.5049,0.27622 0.22964,0.0221 0.33199,9.1e-4 0.57749,-0.11917 0.60728,-0.29711 0.73606,-0.77837 0.48599,-1.81607 -0.1974,-0.81912 -0.18888,-0.93186 0.10621,-1.40531 0.4565,-0.73242 0.54061,-1.1486 0.36197,-1.79111 -0.12025,-0.43253 -0.0534,-0.63765 0.38244,-1.17308 0.37935,-0.46607 0.63779,-0.85389 0.85387,-1.28139 0.81329,-1.60899 1.384,-4.26041 1.39225,-6.46812 0.004,-0.99763 -7.6e-4,-1.03992 -0.22159,-2.09005 -0.82776,-3.93615 -2.63536,-9.1656 -3.79088,-10.9671 -0.33479,-0.52196 -0.5304,-0.72155 -0.88506,-0.90307 -0.54032,-0.27654 -0.74992,-0.6193 -0.63736,-1.04228 0.0741,-0.27848 0.157,-0.36964 0.58999,-0.64874 0.55245,-0.35612 0.69856,-0.79205 0.50685,-1.51223 -0.17172,-0.64506 -0.70792,-1.54287 -1.27657,-2.13748 l -0.31538,-0.32977 0.31168,-0.11711 c 0.45962,-0.17268 0.99667,-0.13902 1.31144,0.0822 0.52461,0.36872 0.76823,0.88832 1.19702,2.55306 0.39823,1.54607 0.47086,1.70614 1.06191,2.3401 3.16286,3.39255 5.41732,6.462 6.89427,9.38658 0.62096,1.22961 0.91073,1.91593 1.28969,3.05468 0.58449,1.75636 0.7837,2.91874 0.85415,4.98395 0.0669,1.9619 0.19722,2.77228 0.97368,6.05578 1.15228,4.87269 1.51535,6.68254 1.8384,9.16404 0.68453,5.25831 0.502,10.52453 -0.48356,13.9506 -0.84279,2.92978 -2.24439,4.83105 -4.87178,6.60859 -0.3537,0.23929 -1.22187,0.79142 -1.92927,1.22694 -2.05718,1.26654 -2.9752,1.90793 -3.99253,2.7894 -0.69066,0.59844 -1.87087,1.81381 -2.36383,2.43427 -0.78365,0.98634 -1.23263,1.6664 -2.18991,3.31697 -0.16018,0.2762 -0.4753,0.65099 -1.04009,1.23704 -0.92578,0.96063 -1.38053,1.56713 -1.74882,2.33242 -0.56229,1.1684 -0.9094,2.842832 -0.91092,4.39411 -6e-4,0.3244 -0.0364,0.927446 -0.0803,1.340096 -0.11239,1.05788 -0.10449,1.7044 0.026,2.12686 0.19624,0.63533 0.55197,1.03496 1.31458,1.4768 0.42347,0.24536 0.58929,0.40223 0.54557,0.51616 -0.0164,0.0427 -0.20814,0.20958 -0.4261,0.37076 -0.3726,0.27555 -0.57531,0.53937 -0.57531,0.74872 0,0.11995 0.2356,0.32951 0.64174,0.57079 0.73178,0.43475 0.929,0.70308 0.90159,1.22665 l -0.016,0.30521 -0.21795,0.016 c -0.29258,0.0215 -1.12956,-0.16596 -1.53988,-0.34485 -0.92274,-0.40229 -1.67438,-1.06466 -2.94115,-2.59185 -0.42785,-0.51582 -0.93278,-1.08254 -1.12207,-1.25939 -0.75499,-0.70538 -1.93476,-1.50771 -3.70985,-2.52294 -0.61442,-0.35141 -1.238,-0.74599 -1.38574,-0.87684 l -0.2686,-0.23792 0.0321,-0.29799 c 0.0176,-0.1639 0.0564,-1.262618 0.0862,-2.44161 0.0601,-2.381936 0.13021,-3.655876 0.23784,-4.324016 0.0395,-0.24506 0.0632,-0.45496 0.0526,-0.46643 -0.0303,-0.033 -0.37316,0.24197 -1.06046,0.85061 -1.96894,1.74359 -3.10692,2.47392 -4.68737,3.00822 -0.71438,0.24151 -2.10916,0.53691 -2.18361,0.46246 -0.0343,-0.0343 0.16045,-0.57014 0.32659,-0.89861 0.25421,-0.50257 0.53655,-0.87447 0.97796,-1.28816 1.05335,-0.98721 2.41203,-1.50092 5.38994,-2.03793 l 1.2771,-0.2303 0.12759,-0.25179 c 0.14191,-0.28004 0.18483,-0.30255 1.57869,-0.82758 1.2829,-0.48323 1.97164,-0.91928 2.51826,-1.59432 0.85239,-1.05263 1.29267,-2.59166 1.38973,-4.85791 0.0831,-1.93901 -0.0545,-2.73694 -0.79987,-4.63973 -1.02163,-2.60806 -1.19878,-3.32786 -1.33877,-5.43947 -0.0893,-1.34755 -0.31202,-2.16726 -0.9099,-3.34943 -0.66017,-1.30533 -1.24435,-2.08754 -2.67298,-3.57904 -1.20852,-1.26172 -1.67883,-1.89631 -2.26887,-3.06138 -0.41241,-0.81433 -0.64153,-1.04988 -1.02124,-1.04988 -0.34857,0 -0.65918,0.38938 -0.71995,0.90252 -0.0375,0.31693 0.0625,0.97742 0.19264,1.27157 0.0545,0.12318 0.26011,0.39944 0.45693,0.61392 0.19683,0.21448 0.42883,0.51295 0.51556,0.66326 0.23102,0.40037 0.45653,1.15228 0.55612,1.85423 0.12964,0.91377 0.23221,1.41462 0.40777,1.99124 0.33274,1.09285 0.22709,1.39112 -1.021,2.88224 -0.7865,0.93965 -1.03242,1.3887 -1.0637,1.94236 -0.0192,0.33992 -0.0326,0.37502 -0.17,0.44607 -0.24842,0.12847 -0.55441,0.17588 -2.06272,0.3196 -2.92079,0.2783 -4.49717,0.65565 -6.10921,1.4624 -0.32423,0.16226 -0.71008,0.37159 -0.85746,0.46518 -0.14737,0.0936 -0.2988,0.18874 -0.33652,0.21145 -0.0486,0.0293 -0.12129,-0.073 -0.24979,-0.35139 -0.22061,-0.478 -0.2987,-0.77017 -0.59202,-2.21477 -0.26813,-1.32051 -0.38358,-1.65323 -0.68721,-1.98053 -0.17175,-0.18514 -1.29248,-0.94017 -1.39554,-0.94017 -0.0102,0 -0.0352,0.40394 -0.0554,0.89765 -0.0691,1.68833 -0.30867,2.5326 -1.02262,3.60399 -0.52036,0.78088 -1.38273,1.5896 -2.41339,2.26326 -0.54355,0.35527 -1.94906,1.05979 -2.68623,1.34648 -0.60518,0.23536 -1.72759,0.62394 -1.80227,0.62394 -0.079,0 -0.0155,-1.27453 0.0869,-1.74171 0.37528,-1.71269 1.39047,-3.00315 3.36427,-4.27646 0.25143,-0.1622 0.92532,-0.5659 1.49752,-0.89711 1.55811,-0.90189 2.53739,-1.55202 2.78234,-1.84716 0.0705,-0.085 0.066,-0.10318 -0.0445,-0.17652 l -0.12314,-0.0818 0.23952,-0.14908 c 0.13174,-0.082 0.72664,-0.4287 1.32201,-0.77046 1.11332,-0.63908 1.88085,-1.12746 2.3036,-1.46577 1.63885,-1.31151 2.61527,-2.78381 3.10853,-4.6872 0.2855,-1.10166 0.3467,-1.6838 0.34199,-3.25308 -0.0123,-4.08852 -0.9578,-7.73587 -2.91051,-11.22729 -0.5379,-0.96176 -1.53992,-2.45708 -2.58901,-3.86358 -1.48564,-1.9918 -1.55316,-2.11095 -1.83448,-3.23722 -0.57107,-2.28629 -1.39659,-3.90245 -2.64711,-5.18236 -0.25466,-0.26064 -0.78247,-0.77045 -1.17291,-1.13291 -0.53372,-0.49546 -0.76344,-0.75067 -0.92563,-1.02839 -0.88742,-1.51947 -3.19261,-3.40322 -5.54566,-4.53179 -0.64761,-0.31061 -1.2511,-0.53213 -2.03645,-0.74751 -0.41237,-0.11308 -0.64052,-0.34511 -1.117,-1.13593 -0.52258,-0.86734 -0.78558,-1.20105 -1.1112,-1.41 -0.2545,-0.16332 -0.32892,-0.18468 -0.63769,-0.18306 -0.44152,0.002 -0.89426,0.18392 -0.8294,0.3327 0.0826,0.1895 0.60125,1.93284 0.74546,2.50578 0.0916,0.36386 0.19195,0.63702 0.26221,0.71364 0.0626,0.0683 0.41851,0.31549 0.79088,0.54935 1.24319,0.78077 1.43243,0.9897 1.71227,1.89044 0.4407,1.41854 0.91659,2.37048 1.97045,3.94164 0.9706,1.44702 1.09749,1.69063 1.12528,2.16036 0.0528,0.89166 -0.37742,2.01279 -1.61737,4.21519 -0.33787,0.60013 -0.62877,1.16828 -0.64646,1.26257 -0.0453,0.24136 0.0774,0.6035 0.39149,1.15598 0.26383,0.46402 0.48894,1.026 0.4879,1.21803 -5.3e-4,0.0712 -0.12648,0.14253 -0.49571,0.28045 -0.67638,0.25264 -1.68448,0.7542 -2.1772,1.08321 -0.66609,0.44478 -1.10494,0.81944 -2.12296,1.81239 -1.97737,1.92868 -2.65757,2.44092 -5.091136,3.83405 -2.58323,1.47881 -3.67686,2.24974 -4.97753,3.5088 -2.35655,2.28119 -3.70623,4.98156 -4.21784,8.43888 -0.16388,1.10741 -0.24071,2.95841 -0.16848,4.05889 0.12643,1.92631 0.57772,2.90413 2.00826,4.3514 0.37594,0.38033 0.68352,0.69447 0.68352,0.6981 0,0.0153 -0.501,-0.0326 -1.12541,-0.10765 -2.14106,-0.25725 -4.18498,-0.92389 -5.45884,-1.78043 -1.13542,-0.76346 -1.87238,-1.73004 -2.23697,-2.93399 -0.12813,-0.42309 -0.14566,-0.57136 -0.14865,-1.25675 -0.004,-0.92084 0.008,-0.96303 0.87446,-3.07109 0.99763,-2.42724 1.2727,-3.50877 1.07415,-4.22357 -0.0713,-0.25679 -0.26322,-0.53507 -0.4357,-0.63189 -0.13145,-0.0738 -0.15275,-0.0679 -0.37393,0.10393 -4.19555,3.25872 -7.3602,8.28707 -8.75137,13.90519 -1.2069,4.87399 -0.88009,9.45185 0.86187,12.07261 0.83708,1.2594 2.14262,2.04383 3.40788,2.04765 0.16949,6.1e-4 0.30815,0.0197 0.30815,0.0426 0,0.0589 0.78275,0.33679 1.84889,0.65633 1.94305,0.58236 2.8474,0.91178 3.60672,1.31377 0.90132,0.47718 1.68223,1.1243 2.19624,1.81997 0.25809,0.34931 0.57174,0.93153 0.5263,0.97697 -0.0479,0.0479 -1.98239,-0.24865 -2.5328,-0.38827 -1.25567,-0.31853 -2.19278,-0.98409 -4.7343,-3.36242 -0.7154,-0.66947 -0.83293,-0.76045 -0.84704,-0.65574 -0.0186,0.13785 0.1055,1.10356 0.63338,4.93001 0.39708,2.87832 0.58871,4.459546 0.58876,4.858106 3e-5,0.24579 -0.007,0.25632 -0.52248,0.74468 -0.94514,0.89603 -2.81888,2.32595 -4.7026,3.58872 -1.91586,1.28432 -3.74859,2.46414 -3.82441,2.46198 -0.0482,-10e-4 -0.2019,-0.0471 -0.34145,-0.10168 z"
       id="path1472" />
  </g>
</svg>
