<svg xmlns="http://www.w3.org/2000/svg" viewBox="0 0 274.624 274.624"><defs><filter style="color-interpolation-filters:sRGB" id="a"><feFlood flood-opacity=".804" flood-color="#483107" result="flood"/><feComposite in="flood" in2="SourceGraphic" operator="in" result="composite1"/><feGaussianBlur in="composite1" stdDeviation="2" result="blur"/><feOffset dy="2.3" result="offset"/><feComposite in="SourceGraphic" in2="offset" result="composite2"/></filter></defs><g transform="translate(41.267 28.082)"><circle style="fill:#f080ff;fill-rule:evenodd;stroke:#120314;stroke-width:6.46677174;stroke-miterlimit:4;stroke-dasharray:none;stroke-opacity:1;fill-opacity:1" cx="96.045" cy="109.23" r="134.08"/><path style="fill:#000;stroke-width:.262972;filter:url(#a)" d="M81.013 215.769c-1.39-.337-5.028-2.437-5.476-3.162-.2-.325-1.978-.908-2.173-.713-.083.083 0 .335.186.559.643.774.047.687-1.853-.27-1.903-.958-2.207-.992-3.8-.422-.434.155-1.116.347-1.515.427-.695.138-.709.17-.321.761.398.608.387.62-.677.79-1.684.27-3.819-.517-5.1-1.878-.733-.778-1.268-1.118-1.76-1.118-1.56 0-2.125-.842-.883-1.315.731-.278.788-.487.371-1.368-.388-.82-3.094-2.84-3.805-2.84-.356 0-1.364-.752-2.646-1.975-1.842-1.755-3.047-2.528-3.397-2.178-.064.064.124.374.417.689.75.804.272.711-1.091-.212-.637-.431-1.435-.786-1.775-.789-.932-.007-2.503-1.687-2.308-2.467.13-.52 0-.69-.826-1.073-.54-.251-1.274-.821-1.631-1.267-.692-.864-.595-.896.912-.313.466.18.454.123-.111-.496-.351-.385-.89-.7-1.198-.7-.308 0-1.106-.346-1.773-.77-.902-.571-1.37-1.116-1.826-2.128l-.614-1.36-1.205.14-1.205.138-1.73-1.91c-.977-1.079-2.79-2.635-4.17-3.58-1.343-.92-2.307-1.718-2.143-1.772.165-.055.553.036.862.201.31.166.612.253.672.193.06-.06-.986-.75-2.324-1.533-1.337-.784-3.26-2.203-4.273-3.155-1.012-.951-2.506-2.166-3.32-2.7-1.092-.715-1.521-1.173-1.635-1.742-.111-.555-.858-1.382-2.654-2.94-2.124-1.843-2.476-2.26-2.346-2.779.176-.7-.377-2.243-.725-2.028-.128.08-.233.38-.233.67 0 .876-.539.276-1.34-1.491-.498-1.099-1.236-2.113-2.203-3.027-.928-.878-1.548-1.718-1.715-2.323-.366-1.33-1.58-3.355-2.934-4.896a60.473 60.473 0 0 1-1.54-1.81c-.36-.461-.345-.484.201-.31.671.213.755-.011.23-.617-.197-.228-.436-.74-.53-1.138-.203-.853.302-.99.964-.263.23.253 1.267 1.052 2.304 1.775 1.036.723 2.386 1.757 3 2.298.614.54 1.52 1.161 2.011 1.38.492.219 1.296.722 1.787 1.118.83.67.88.68.712.153-.279-.88.591-.516 2.106.88 1.441 1.328 2.207 1.823 2.207 1.427 0-.14-.119-.33-.263-.419a.603.603 0 0 1-.263-.456c0-.161.266-.05.591.245.326.296.715.493.865.437.15-.055.938.493 1.752 1.218.96.855 1.528 1.204 1.615.99.09-.218.41-.039.94.525.442.47.909.854 1.038.854s.382.178.562.395c.528.636.75.47 1.137-.855.27-.923.494-1.25.863-1.25.865 0 .775 1.069-.136 1.607-.438.258-.85.61-.915.78-.189.492 1.736 2.187 2.702 2.38.833.167.87.143.696-.454-.139-.477.08-.33.895.6 1.075 1.227 2.817 2.5 3.072 2.245.074-.073-.406-.742-1.066-1.485-1.193-1.343-1.583-2.325-.805-2.027.217.083.394.09.394.015 0-.267-.86-1.827-1.256-2.28-.222-.253-.31-.46-.196-.46.114 0 .918.777 1.788 1.726 1.395 1.522 1.986 1.924 5.027 3.411 1.896.928 4.867 2.177 6.602 2.778 3.519 1.217 7.89 3.142 9.284 4.088 1.103.748 1.748.811.877.085-.74-.616-.482-.65.986-.133.598.211 2.397.697 3.998 1.08 2.24.536 3.237.654 4.335.517.95-.118 1.427-.084 1.427.104 0 .155-.148.286-.33.29-.517.013.634.78 1.172.78.264 0 .704-.14.98-.311.41-.257.73-.192 1.809.367.72.374 1.707.76 2.192.858.485.098 1.106.241 1.378.319.427.121.471.04.315-.58l-.18-.722.81.682c.859.723 2.285 1.119 3.183.884.306-.08.945.097 1.47.406.895.528.954.531 1.707.086.716-.422.82-.426 1.244-.041.582.526 1.182.536 1.606.025.409-.493 1.155-.509 1.55-.034.391.472 2.577.711 3.433.376 1.209-.474 3.218-.506 3.547-.056.215.293.657.382 1.603.323 1.267-.08 1.309-.11 1.39-.953.087-.91.544-1.27 1.26-.996.385.148.382.223-.027.848-.431.658-.427.71.093 1.23.529.529.559.53 1.078.06.484-.437.853-.465 3.976-.3 2.362.124 3.389.095 3.273-.093-.093-.15-.34-.273-.548-.273-.209 0-.38-.134-.38-.297 0-.204.406-.243 1.285-.127.736.098 1.607.048 2.038-.116.415-.158 1.797-.287 3.071-.287 1.98 0 2.272-.055 2.006-.376-.251-.302-.216-.376.18-.378.891-.005 3.197-1.243 3.378-1.814.223-.702.673-.708.855-.013.125.477.275.518 1.356.36.668-.096 1.393-.266 1.61-.376 1.41-.719 5.459-1.907 7.23-2.124 3.05-.371 3.604-.615 5.983-2.627 2.282-1.931 4.496-3.164 6.641-3.699.897-.223 1.692-.677 2.499-1.424.65-.604 2.012-1.626 3.025-2.272 1.013-.646 2.513-1.762 3.333-2.48 1.466-1.282 4.306-2.93 4.58-2.657.076.077-.579.691-1.455 1.366-.877.674-1.594 1.34-1.594 1.478 0 .138.713-.11 1.586-.55 1.108-.559 1.801-1.13 2.3-1.891 1.153-1.759 2.598-2.996 4.885-4.181 1.178-.611 2.651-1.625 3.274-2.252.622-.628 1.628-1.393 2.235-1.7a71.266 71.266 0 0 0 2.813-1.547c1.225-.71 2.128-1.028 3.187-1.127 1.14-.107 1.638-.299 2.183-.844.678-.677.8-.702 3.059-.614 1.414.055 2.392-.013 2.452-.171.157-.421.77.304.826.976.045.548.16.594 1.294.52 1.136-.074 1.23-.036 1.08.438-.24.755.238.914 1.698.564 1.309-.314 2.892-.159 2.892.284 0 .133-.178.242-.394.242-.722 0-.408.507.46.742.534.145.98.134 1.19-.03.424-.331 1.637.734 1.637 1.437 0 .263.414.937.92 1.498 1.022 1.13 1.097 1.572.538 3.157-.404 1.145-.232 1.445.321.559.181-.29.425-.526.541-.526.203 0 .211 4.432.01 5.26-.052.216.023.428.168.47.145.042.3-.165.347-.46.046-.295.204-.537.352-.537.387 0 .024 1.852-.726 3.697-.347.854-.63 1.854-.63 2.222 0 .368-.247 1.346-.548 2.174a28.042 28.042 0 0 0-.87 2.99c-.178.817-.525 1.764-.772 2.105-.246.34-1.109 1.617-1.916 2.837-1.8 2.72-8.58 9.502-11.296 11.302-1.022.677-1.813 1.367-1.757 1.535.059.178-.53.48-1.43.733-3.137.883-5.954 2.205-5.562 2.612.096.1.432.044.746-.124.314-.168.635-.242.712-.164.287.286-.192.967-.902 1.282-.402.178-1.645.887-2.764 1.575-2.127 1.31-2.727 1.517-2.473.857.083-.217.055-.394-.063-.394-.33 0-1.019.846-1.308 1.605-.213.561-.483.715-1.499.854-.68.093-1.625.408-2.097.7-.635.393-1.019.471-1.478.301-.904-.335-1.274-.147-2.623 1.33-1.01 1.106-1.433 1.372-2.499 1.57-2.478.46-2.693.536-3.288 1.17-.33.351-.606.943-.612 1.316-.01.533-.224.761-1.01 1.076-1.16.464-1.515.287-.864-.432.252-.278.418-.782.37-1.119-.084-.598-.11-.59-1.123.34-.99.908-1.011.96-.46 1.134.317.1.576.286.576.41 0 .311-.61.463-2.695.673-1.533.154-1.775.12-1.775-.247 0-.527-.531-.54-1.722-.043-.67.28-.958.59-1.071 1.156-.163.818-.801 1.09-2.565 1.093-.452.001-1.177.237-1.61.524-.492.325-1.237.524-1.973.526-.651.002-1.522.18-1.937.396-.414.216-1.291.393-1.949.393-.791 0-1.564.216-2.283.638-.94.55-1.309.617-2.715.49-1.528-.14-1.618-.184-1.478-.74.193-.772-.326-1.08-.918-.545-.255.231-.649.42-.874.42-.226 0-.685.222-1.02.494l-.61.494 1.618.188c.89.103 1.773.109 1.962.012.188-.096.113.011-.168.239-.28.228-.754.42-1.052.427-2.465.062-4.055.19-4.574.372-.51.178-.606.13-.562-.283.099-.924-.006-1.164-.628-1.448-.485-.22-.812-.184-1.488.165-.632.327-1.2.405-2.09.287-1.154-.154-1.269-.11-2.04.76-.867.98-1.388 1.178-1.388.528 0-.5-.047-.498-2.53.128-2.315.583-3.101.657-2.86.267.21-.34-.431-.336-1.34.009-1.032.392-3.789.733-3.789.468 0-.281-1.196-.004-2.227.516-1.049.53-5.622.582-7.667.087zm25.409-1.203c0-.423.78-.93 1.429-.93.58 0 .513.716-.097 1.043-.725.388-1.332.336-1.332-.113zm26.1-3.998c-.18-.072-.329-.248-.329-.39 0-.337 1.07-.174 1.082.164.011.31-.306.405-.753.226zM66.976 164.95c0-.125.296-.227.657-.227.362 0 .658.046.658.101 0 .055-.296.157-.658.226-.361.07-.657.024-.657-.1zm-2.63-.68c0-.038.437-.277.971-.531.561-.267 1.2-.867 1.512-1.42a22.88 22.88 0 0 1 1.049-1.67c.424-.594.453-.797.18-1.235-.391-.626.027-1.025 1.624-1.553.903-.298.982-.398.838-1.054-.18-.817.318-1.94 1.527-3.445.556-.692.737-1.146.626-1.57-.101-.388.078-.997.512-1.737.537-.917.605-1.215.349-1.525-.255-.306-.229-.484.127-.877.605-.669 1.78-3.923 1.746-4.84-.015-.407.212-1.044.505-1.416.692-.88.67-1.58-.096-3.02-.441-.83-.555-1.306-.384-1.61.162-.29.108-.69-.163-1.215-.579-1.12-.534-1.844.105-1.677.414.108.543-.044.687-.812.097-.52.1-1.253.005-1.629-.252-1.007-1.733-2.413-2.65-2.517-.644-.074-.771-.197-.704-.681.069-.493-.041-.592-.658-.592-1.065 0-5.299-3.075-6.925-5.03-.73-.876-1.73-2.392-2.221-3.37-1.062-2.109-2.12-3.434-2.74-3.434-.247 0-1.415-.473-2.595-1.052-1.18-.578-2.249-1.051-2.374-1.051s-.515-.308-.866-.684c-.954-1.022-2.444-1.703-3.336-1.525-1.017.204-1.767-.846-1.525-2.135.153-.814.104-.89-.761-1.175-1.214-.4-1.55-.913-.439-.669.452.1.822.08.822-.044 0-.516-.885-1.428-1.727-1.78-.496-.207-.903-.487-.903-.622s.421-.566.935-.958c.776-.592.922-.856.855-1.544-.078-.8-.123-.83-1.307-.83-1.527 0-1.795-.244-1.04-.948.469-.436.552-.716.412-1.377-.2-.944-.819-1.75-1.342-1.75-.482 0-.45-.77.04-.958.907-.347.04-2.36-1.193-2.772-.287-.095-.202-.331.364-1.004.613-.728.711-1.034.57-1.78-.123-.663-.048-1.036.285-1.403.37-.41.398-.62.156-1.153-.24-.524-.202-.873.187-1.774.266-.617.727-1.339 1.023-1.604.297-.265.684-1.093.862-1.84.178-.748.779-2.034 1.336-2.857.557-.824 1.013-1.624 1.013-1.778 0-.154.356-.652.79-1.107 1.107-1.158 1.472-2.5 1.033-3.802-.19-.56-.351-1.256-.36-1.546-.019-.586-.348-.581-1.663.026-.472.218-.98.32-1.13.228-.15-.093-.948.231-1.773.72-.824.489-1.913 1.052-2.42 1.25-1.26.496-1.498.71-1.704 1.532-.313 1.246-1.328 1.558-1.058.324l.173-.785-1.138.517c-.626.284-1.325.518-1.555.522-.547.008-2.87 1.823-2.87 2.244 0 .18-.197.49-.438.688-.395.325-.42.29-.258-.363.1-.397.12-.723.046-.723s-.68.417-1.347.926c-1.836 1.402-2.523 1.703-1.572.689.423-.451.716-.874.651-.939-.222-.222-2.597 1.424-3.913 2.712-.907.888-1.62 1.343-2.303 1.471-.675.127-1.354.555-2.136 1.347-.63.639-1.417 1.23-1.748 1.313-.332.083-.976.615-1.432 1.183-.64.795-.962.998-1.407.888-.546-.136-1.656.461-3.603 1.94-2.23 1.694-3.893 2.604-4.612 2.525-.42-.046-.91.037-1.089.185-.178.148-.443.195-.59.105-.145-.09-.738.077-1.315.372-.578.294-1.265.536-1.527.536s-1.657.943-3.1 2.096a311.118 311.118 0 0 1-5.649 4.378c-5.295 3.995-10.033 8.007-13.172 11.154-1.677 1.681-3.908 3.633-4.958 4.338-1.928 1.294-6.822 6.252-8.241 8.35-.948 1.4-.902 1.367-1.348.997-.304-.252-.519-.23-1.034.109-.438.286-.708.334-.825.144-.096-.155-.284-.213-.419-.13-.134.083-.245.026-.245-.127s-.177-.279-.394-.279c-.458 0-.49-.242-.148-1.139.172-.453.144-.786-.093-1.11-.374-.511-.09-1.8.761-3.467.24-.468.357-.979.26-1.134-.095-.156.02-.497.257-.759.237-.262.529-1.053.649-1.759.12-.705.305-1.49.412-1.742.139-.33.072-.46-.237-.46-.368 0-.349-.11.132-.761.31-.419.668-1.325.797-2.014.128-.69.662-2.21 1.186-3.38.541-1.21 1.036-2.823 1.146-3.737.214-1.778.391-2.205.916-2.205.194 0 .487-.384.65-.852.164-.469.692-1.268 1.173-1.775 1.288-1.357 3.575-4.406 3.597-4.795.01-.184.594-.81 1.297-1.388.702-.578 1.837-1.747 2.522-2.596 1.63-2.024 5.25-5.615 5.85-5.805.6-.191 3.02-2.963 3.21-3.68.08-.298.376-.558.658-.58.282-.02.648-.05.812-.065.416-.039 1.187-1.277 1.27-2.043.04-.35.3-.899.581-1.218l1.71-1.95c.66-.754 1.475-2.056 1.812-2.893 1.158-2.875 2.289-4.454 4.983-6.957 1.445-1.341 2.69-2.64 2.769-2.885.077-.246.806-1.551 1.618-2.901 1.62-2.693 3.473-4.924 4.888-5.885.502-.342.99-.922 1.082-1.29.187-.749.549-.875.78-.273.114.297.433.09 1.277-.828.618-.673 1.51-1.386 1.98-1.583.556-.234.854-.542.854-.882 0-.287-.118-.522-.263-.522a.266.266 0 0 1-.263-.268c0-.149.27-.2.603-.117.703.176 1.651-.685 1.42-1.29-.08-.208.033-.597.252-.864.358-.437.383-.44.253-.025-.21.669.358.565 1.171-.214.387-.37 2.168-1.643 3.957-2.827 2.055-1.36 3.382-2.42 3.6-2.88.19-.399.746-.893 1.235-1.097 1.574-.658 3.721-2.443 4.466-3.713.52-.888.783-1.136.94-.883.306.495 1.3-.433 1.3-1.215 0-.321.178-.732.395-.912.33-.273.394-.235.394.231 0 .706.437.728.657.032.184-.576.782-.7 1.077-.223.23.373.896-.449.896-1.106 0-.243.245-.752.545-1.134.606-.77.44-.861-.545-.298-.362.207-.936.38-1.275.385-1.052.016-2.45.843-2.79 1.649-.317.755-.322.757-.691.203l-.372-.558-1.238.66c-.682.362-1.51.835-1.841 1.05-.332.214-1.184.535-1.894.712-.71.177-1.508.54-1.775.806-.266.266-.726.484-1.023.484-.668 0-2.008.678-2.88 1.458-2.604 2.33-4.765 4.064-5.064 4.064-.194 0-.495.142-.668.316-.727.726-.24-.615 1.503-4.135 1.852-3.745 3.25-5.593 3.69-4.881.47.762 1.035.083 1.117-1.345l.08-1.394 1.578-.27c1.429-.244 1.602-.345 1.84-1.071.145-.441.47-1.009.724-1.261.253-.253.46-.652.46-.888 0-.333-.07-.358-.316-.113-1.076 1.076-.951-.491.137-1.721a37.16 37.16 0 0 0 1.61-1.973c.404-.543.846-.987.982-.987s.174.119.085.263c-.183.297.148.342.768.104.228-.088.419-.413.423-.723.004-.374.673-1.127 1.978-2.23 1.084-.915 2.207-2.128 2.496-2.695.345-.676.705-1.03 1.049-1.03.287 0 .902-.363 1.366-.806.725-.693.884-.75 1.135-.407.16.22.52.353.798.296 1.893-.385 1.996-.43 1.85-.813-.084-.217-.006-.435.173-.486 1.306-.373 2.822-1.021 2.822-1.207 0-.122-.259-.305-.575-.406-.53-.168-.54-.208-.126-.51.247-.181.944-.408 1.548-.505.605-.096 1.251-.301 1.437-.455.185-.154 1.02-.306 1.854-.338.834-.031 2.167-.279 2.962-.55 1.8-.614 4.3-.618 5.581-.01.678.322 1.275.403 2.089.284 1.012-.149 1.272-.07 2.314.702.864.64 1.055.892.723.955-.248.048-.45.246-.45.44 0 .195-.31.579-.687.854l-.687.5.838.705c.919.773 1.786.916 2.01.331a.859.859 0 0 1 1.355-.353c.218.183.883.57 1.479.859.836.406 1.082.674 1.082 1.18 0 .892-.746.988-1.13.145-.243-.533-.506-.674-1.297-.699-.545-.017-1.11 0-1.254.036a5.794 5.794 0 0 1-.663.11c-.679.071-1.047.419-1.047.988 0 .3-.312.835-.693 1.189-.636.59-.659.677-.271 1.064.387.388.462.386.911-.02.324-.294.942-.443 1.833-.443.74 0 1.418-.118 1.507-.263.09-.145.578-.263 1.085-.263s1.18-.14 1.497-.312c.745-.405 7.103-2.32 7.242-2.18.058.058-.205.247-.586.42-.38.174-.691.414-.691.533 0 .333 4.747-.077 5.51-.475.368-.192.82-.35 1.002-.351.183 0 .553-.14.823-.308.37-.232 1.274-.234 3.713-.01 1.773.163 3.415.199 3.648.08.9-.462 4.66-.54 7.525-.156 1.591.214 2.919.389 2.95.39.032.001-.01-.175-.094-.392-.083-.217-.085-.395-.004-.395.303 0 1.625.656 1.79.888.309.436 1.052-.075 1.002-.69-.077-.951-.02-1.021.57-.706.433.232.607.222.771-.044.221-.357.465-.284 2.391.716.887.46 1.104.457.924-.014-.212-.552 4.412-.712 4.952-.17.403.405 2.762.65 2.762.286 0-.122-.139-.268-.308-.324-.169-.057.334-.114 1.118-.127.784-.013 1.573.096 1.753.244.18.147 1.015.298 1.855.335.84.037 2.458.38 3.597.763 1.14.382 2.139.594 2.222.47.217-.324 4.69.602 5.223 1.082.247.223 1.09.657 1.87.964 1.582.622 2.706.533 3.26-.257.235-.337.46-.415.721-.254.302.187.313.302.053.562-.844.844.145 1.035 1.172.227.518-.407.774-.46 1.18-.243.286.153.966.2 1.522.107.736-.125 1.326-.024 2.198.373.656.299 1.367.476 1.581.394.35-.135 2.712.52 5.958 1.65.65.227 1.716.495 2.367.596.724.113 2.038.709 3.385 1.536 1.21.744 2.858 1.598 3.66 1.898.802.3 1.895.892 2.428 1.314.534.423 1.275.884 1.649 1.026.567.216.692.18.76-.221.08-.46.141-.457 1.462.048.76.29 2.042 1.106 2.852 1.815.81.708 2.082 1.594 2.828 1.969 1.557.782 4.563 2.904 6.063 4.28.563.516.94.792.839.61-.28-.494-.02-.403 1.218.427.619.416 2.013 1.249 3.098 1.851 1.084.603 3.155 2.11 4.602 3.35 1.446 1.24 3.27 2.685 4.054 3.211 3.157 2.12 7.108 5.509 8.005 6.865.347.525 1.069 1.304 1.603 1.73 2.008 1.605 4.205 3.773 4.016 3.962-.108.108-.537-.13-.953-.53l-.758-.725.738 1.548c.846 1.778 1.344 2.284 2.032 2.066.758-.24 2.182 1.393 2.446 2.807.282 1.512 1.055 2.721 3.076 4.818.904.938 1.643 1.828 1.643 1.978 0 .15-.71-.345-1.58-1.1-.869-.757-1.652-1.303-1.741-1.214-.194.193.969 2.238 2.182 3.839.678.893.876 1.411.876 2.283 0 1.462.287 2.176 1.567 3.91.623.842.927 1.462.747 1.522-.198.066-.219.233-.06.48.132.209.255.616.272.905.016.29.124.746.238 1.016.187.44.12.47-.68.294-.818-.18-.86-.159-.517.254.28.337.295.496.06.641-.474.293-.456 2.268.027 3.006.522.796.304 1.08-.432.565-.706-.495-1.055-.49-.863.01.092.24 0 .394-.235.394-.548 0-.49.188.402 1.314.934 1.18.971 1.462.243 1.852-.333.178-.487.448-.393.691.099.26-.04.449-.396.542-.39.102-.504.284-.395.633.517 1.658.5 1.696-.33.753-.642-.729-.813-.819-.822-.432-.007.324-.143.437-.405.337-.59-.227-.477.22.287 1.127.508.605.579.809.278.809-.221 0-.477-.12-.567-.267-.284-.46-.655 0-.655.808 0 .426-.073.774-.163.774-.09 0-.575-.363-1.08-.806-1.233-1.083-1.437-.769-.235.364.83.783 1.318 1.716.755 1.441-.109-.053-.524-.26-.922-.459-.398-.2-.802-.285-.897-.19-.228.228.687 1.227 1.124 1.227.466 0 .724 1.556.4 2.409-.145.381-.228.735-.185.786.043.05.158.801.255 1.667.22 1.948-.08 1.65-.88-.874-.595-1.873-1.097-2.483-1.616-1.964-.162.162-.055.505.298.953.58.739.47 1.37-.195 1.115-.49-.188-1.645.869-1.651 1.512-.003.296-.121.404-.312.286-.207-.128-.253-.047-.14.247.092.24.046.438-.102.438-.15 0-.186.136-.083.303.122.198.071.232-.145.098-.192-.119-.424-.06-.547.14-.174.282-.298.276-.677-.032-.414-.337-.445-.328-.291.083.098.261.049.46-.113.46-.168 0-.23.29-.151.705.074.387.01.95-.142 1.249-.152.3-.365.721-.473.938-.134.27.146.748.88 1.507.591.612.985 1.203.874 1.313-.238.238-1.397-1.072-2.71-3.06l-.94-1.424-.365.695c-.254.485-.286.837-.106 1.161.141.256.44.845.663 1.308l.405.842-1.25-.642c-.686-.354-1.647-.721-2.135-.816l-.886-.173.48.732.48.733-.615-.365c-.46-.273-.642-.286-.728-.05-.062.172-.284.249-.491.169-.58-.223-.453.468.29 1.56.366.54.616.981.554.981-.061 0-.82-.71-1.685-1.578-1.617-1.622-2.004-1.883-1.728-1.165.14.365-.144.393-2.441.243-1.43-.094-2.777-.242-2.994-.33-.454-.183-4.185-.588-6.311-.685-.796-.036-1.624-.147-1.841-.247-.217-.1-.965-.286-1.663-.414-.795-.147-1.412-.438-1.651-.78-.437-.623-1.042-.506-1.238.24-.073.28-.32.508-.551.508-.565 0-.528.437.107 1.244.289.367.525.897.525 1.176 0 .28.123.737.273 1.016.407.76.058.616-.813-.338-.738-.808-.774-.82-.774-.243 0 .59-.015.587-.598-.139-1.435-1.784-1.406-1.715-.632-1.52.786.197.888-.057.327-.817-.302-.409-.443-.445-.71-.181-.537.53-.974.39-2.06-.658-1.288-1.242-2.51-2.17-2.86-2.17-.15 0-.421-.416-.606-.926-.184-.51-.695-1.157-1.135-1.438a30.93 30.93 0 0 1-1.376-.936c-.317-.234-.77-.386-1.007-.337-.649.132 1.698 3.065 4.462 5.574 1.253 1.138 2.217 2.13 2.142 2.204-.308.307-7.835-6.266-7.717-6.74.022-.089-.056-.445-.173-.792-.159-.467-.103-.692.216-.87.526-.295.305-.735-.37-.735-.669 0-.873.404-.529 1.047.156.292.213.531.127.531-.367 0-2.71-2.23-2.488-2.368.553-.342-6.774-6.681-7.76-6.713-.405-.013-4.324-2.866-5.67-4.127-.66-.618-.985-.957-.722-.753.263.204.537.312.61.24.153-.154-2.142-2.147-3.617-3.14-.561-.377-1.198-.94-1.414-1.248-.217-.31-.575-.562-.797-.562-.221 0-2.02-1.05-3.995-2.332-1.976-1.283-3.982-2.531-4.458-2.774-.476-.243-1.513-1.027-2.304-1.744-1.084-.982-1.642-1.302-2.268-1.302-.486 0-2.21-.68-4.165-1.644-4.298-2.117-5.327-2.566-6.227-2.717a9.755 9.755 0 0 1-1.395-.36c-.848-.304-2.668-.642-3.085-.572-.177.03-.958-.246-1.734-.614-.777-.367-1.53-.667-1.673-.667-.144 0-.902-.353-1.684-.785-1.462-.806-1.956-.968-1.704-.56.08.128-.018.367-.215.531-.281.234-.39.183-.498-.231-.2-.76-.93-.962-1.36-.374-.328.448-.346.429-.22-.23.114-.594.044-.718-.404-.718-.297 0-.614.118-.703.263-.212.342-1.184.342-1.184 0 0-.145-.335-.263-.745-.263s-.833-.089-.942-.197c-.108-.108-1.104-.393-2.213-.632-1.819-.393-2.1-.396-2.875-.034-.473.22-.926.508-1.007.64-.17.274.894 2.176 1.856 3.319.628.746 4.497 2.803 6.498 3.454.882.287 1.335.727 4.206 4.083.496.58.456-.128-.057-.997-.308-.522-.513-1.09-.456-1.26.13-.393 1.273.81 2.347 2.471.443.687.927 1.25 1.076 1.25.148 0 .934.68 1.748 1.512.814.831 2.032 1.829 2.707 2.216.912.523 1.361 1.006 1.748 1.881.598 1.351 3.309 5.505 3.926 6.014.364.3.395.247.265-.447l-.148-.789.763.91c.548.654.763 1.192.763 1.907 0 .952.693 2.048 1.294 2.048.133 0 .32.385.413.855.094.47.35 1.419.57 2.109.332 1.045.345 1.464.075 2.516-.282 1.1-.265 1.349.126 1.947.42.641.421.74.01 1.533-.419.812-.412.901.16 2.124.797 1.701 1.149 1.637.936-.17-.21-1.792.34-2.012.988-.395.231.578.596 1.052.81 1.052.328 0 .364.39.228 2.46-.113 1.716-.07 2.515.139 2.645.165.102.3.585.3 1.075 0 1.111.45 1.442.686.503.151-.6.212-.638.424-.259.194.348.326.376.62.132.306-.253.373-.19.373.348 0 .362.188.813.418 1.004.287.238.369.586.262 1.12-.085.425-.038 1.206.104 1.735.292 1.083.021 3.213-.427 3.362-.162.054-.371-.211-.466-.59-.355-1.412-1.411.01-1.764 2.375-1.07 7.183-1.124 7.377-2.45 8.94l-.669.79.393-.978c.527-1.314.503-1.704-.195-3.154-.95-1.972-1.976-1.437-1.172.61.363.924.366 1.07.023 1.202-.542.207-.722-.039-1.025-1.398-.145-.649-.382-1.168-.526-1.154-.302.03-.198 1.64.168 2.6.207.547.117.78-.572 1.492-.45.464-.788 1.007-.75 1.206.036.2-.083 1.048-.266 1.886-.187.86-.254 1.985-.153 2.58.167.994.112 1.12-.924 2.106-.607.576-1.209 1.427-1.338 1.89-.28 1.002-1.82 2.087-1.82 1.282 0-.25.192-.728.426-1.062.296-.423.341-.69.149-.882-.472-.472-1.064-.015-1.677 1.296-.337.722-1.6 2.307-2.96 3.716-2.534 2.624-3.332 3.233-3.516 2.683-.065-.196-.633.182-1.424.949-.723.7-1.183 1.016-1.021.7.162-.316.294-.77.294-1.011 0-.24.26-.803.579-1.25.319-.448.558-1.071.532-1.386-.026-.315.187-.784.473-1.043.662-.6.668-1.359.012-1.567-.28-.089-.619-.481-.753-.872l-.245-.711-1.154 1.307c-1.411 1.6-2.49 2.679-3.599 3.6-.547.454-.842.935-.842 1.374 0 .452-.239.824-.723 1.126-.398.248-2.338 2.026-4.311 3.95-1.973 1.926-3.706 3.5-3.85 3.5-.145 0-.337-.295-.428-.657-.108-.433-.348-.657-.703-.657-.778 0-2.282 1.236-2.779 2.282-.27.57-.823 1.1-1.508 1.446-.595.3-1.377.887-1.739 1.304-.373.43-2.154 1.493-4.119 2.458-2.414 1.185-3.634 1.942-4.031 2.5-.815 1.145-1.874 1.624-3.142 1.42-.812-.129-1.265-.038-2.013.403-1.363.804-4.075 1.394-6.615 1.438-1.193.021-2.17.007-2.17-.03zm29.84-100.462-.08-1.25-1.271.025c-1.603.03-3.54.428-3.595.737-.05.273 3.365 1.475 4.858 1.71.093.015.132-.535.088-1.222zm-19.32 99.764c0-.055.177-.247.394-.427.323-.268.394-.25.394.1 0 .234-.177.426-.394.426-.217 0-.395-.044-.395-.1zM56.8 115.162c-.96-.845-.694-.85.445-.009.49.362.756.658.592.658-.165 0-.632-.293-1.037-.65zm-3.762-1.193c0-.144.177-.262.394-.262.217 0 .394.118.394.262 0 .145-.177.263-.394.263-.217 0-.394-.118-.394-.263zm-5.523-2.498c0-.24.127-.396.283-.344.155.052.282.207.282.344 0 .138-.127.292-.282.344-.156.052-.283-.103-.283-.344zm.198-1.775c-.17-.462.062-1.019.35-.84.31.19.315 1.169.006 1.169-.129 0-.289-.148-.356-.329zm126.555-1c0-.154-.382-.627-.848-1.053-.62-.567-.729-.774-.403-.774.244 0 .573.243.732.539.158.296.576.648.93.782.773.294.845.783.115.783-.29 0-.526-.125-.526-.278zm40.56-8.923c-.458-.735-.424-.793.463-.793.828 0 1.035.438.474 1-.43.428-.557.4-.936-.207zm1.384-2.996c-.47-.343-.453-.383.32-.783.449-.232.876-.572.95-.756.074-.184.144-.017.155.37.012.388-.165.89-.392 1.118-.498.498-.427.495-1.033.051zm1.467-2.42c.013-.307.075-.37.159-.16.076.19.066.417-.021.504-.087.088-.15-.068-.138-.345zm.762-6.57c-.319-.838-.337-2.036-.028-1.845.126.078.295.47.376.87.081.4.227.936.325 1.189.105.272.057.46-.12.46-.163 0-.412-.303-.553-.674zM19.115 41.956c0-.122.237-.437.526-.698.579-.524.673-.372.254.411-.275.513-.78.699-.78.287zm14.464-7.404c0-.145.118-.263.263-.263.144 0 .263.118.263.263a.264.264 0 0 1-.263.263.264.264 0 0 1-.263-.263zm2.235-17.62c.09-.144.215-.262.278-.262.064 0 .116.118.116.263 0 .144-.125.263-.278.263-.153 0-.206-.119-.116-.263zm1.977-2.24c.183-.221.387-.348.453-.281.183.182-.188.68-.506.68-.174 0-.154-.15.053-.4zm35.233-1.297c0-.21-.473-.762-1.051-1.227-.579-.465-1.013-.885-.966-.932.073-.073 2.968 1.383 3.313 1.666.133.108-.812.855-1.098.867-.109.004-.198-.164-.198-.374z"/></g></svg>