<?xml version="1.0" encoding="UTF-8" standalone="no"?>
<svg
   xmlns:dc="http://purl.org/dc/elements/1.1/"
   xmlns:cc="http://creativecommons.org/ns#"
   xmlns:rdf="http://www.w3.org/1999/02/22-rdf-syntax-ns#"
   xmlns:svg="http://www.w3.org/2000/svg"
   xmlns="http://www.w3.org/2000/svg"
   xmlns:sodipodi="http://sodipodi.sourceforge.net/DTD/sodipodi-0.dtd"
   xmlns:inkscape="http://www.inkscape.org/namespaces/inkscape"
   viewBox="0 0 285.35541 285.35541"
   version="1.1"
   id="svg9065"
   inkscape:version="1.0.1 (0767f8302a, 2020-10-17)"
   sodipodi:docname="Sultai Brood.svg">
  <defs
     id="defs9059">
    <filter
       style="color-interpolation-filters:sRGB;"
       inkscape:label="Drop Shadow"
       id="filter9766">
      <feFlood
         flood-opacity="0.803922"
         flood-color="rgb(42,29,4)"
         result="flood"
         id="feFlood9756" />
      <feComposite
         in="flood"
         in2="SourceGraphic"
         operator="in"
         result="composite1"
         id="feComposite9758" />
      <feGaussianBlur
         in="composite1"
         stdDeviation="2"
         result="blur"
         id="feGaussianBlur9760" />
      <feOffset
         dx="0"
         dy="2.3"
         result="offset"
         id="feOffset9762" />
      <feComposite
         in="SourceGraphic"
         in2="offset"
         operator="over"
         result="composite2"
         id="feComposite9764" />
    </filter>
  </defs>
  <sodipodi:namedview
     id="base"
     pagecolor="#ffffff"
     bordercolor="#666666"
     borderopacity="1.0"
     inkscape:pageopacity="0.0"
     inkscape:pageshadow="2"
     inkscape:zoom="1.979899"
     inkscape:cx="249.41457"
     inkscape:cy="244.21295"
     inkscape:document-units="mm"
     inkscape:current-layer="layer1"
     inkscape:document-rotation="0"
     showgrid="false"
     fit-margin-top="0"
     fit-margin-left="0"
     fit-margin-right="0"
     fit-margin-bottom="0"
     inkscape:window-width="1647"
     inkscape:window-height="1212"
     inkscape:window-x="896"
     inkscape:window-y="95"
     inkscape:window-maximized="0" />
  <metadata
     id="metadata9062">
    <rdf:RDF>
      <cc:Work
         rdf:about="">
        <dc:format>image/svg+xml</dc:format>
        <dc:type
           rdf:resource="http://purl.org/dc/dcmitype/StillImage" />
        <dc:title></dc:title>
      </cc:Work>
    </rdf:RDF>
  </metadata>
  <g
     inkscape:label="Layer 1"
     inkscape:groupmode="layer"
     id="layer1"
     transform="translate(35.754752,2.2317643)">
    <circle
       style="fill:#007f5f;fill-opacity:1;fill-rule:evenodd;stroke:#131323;stroke-width:8.565;stroke-miterlimit:4;stroke-dasharray:none;stroke-opacity:1"
       id="path9726"
       cx="106.92295"
       cy="140.44594"
       r="138.3952" />
    <path
       style="fill:#000000;stroke-width:0.264583;filter:url(#filter9766)"
       d="m 121.97812,270.50068 c -0.91257,-0.49458 -3.25319,-0.70216 -3.91623,-0.34732 -0.36502,0.19536 -0.73719,0.0984 -1.52031,-0.39593 -0.57033,-0.36003 -1.61444,-0.94185 -2.32024,-1.29292 -2.43145,-1.20944 -5.25437,-2.85591 -6.21999,-3.62781 -0.53237,-0.42558 -1.45951,-0.85238 -2.06029,-0.94845 -0.65978,-0.1055 -1.24446,-0.39185 -1.47647,-0.72309 -0.36228,-0.51723 -0.40346,-0.52198 -0.72411,-0.0835 -0.31911,0.43641 -0.39645,0.42331 -1.25974,-0.21326 -0.50587,-0.37301 -1.45554,-1.07151 -2.11038,-1.5522 -0.896133,-0.65782 -1.169493,-1.02084 -1.105183,-1.46769 0.11844,-0.82289 -0.37617,-1.3235 -1.28217,-1.29775 -0.85857,0.0244 -2.63974,-1.18433 -2.63974,-1.79139 0,-0.58923 -0.34707,-0.46302 -1.31036,0.47649 -0.84348,0.82266 -0.8731,0.83125 -0.68414,0.19844 0.10864,-0.3638 0.36646,-0.92935 0.57295,-1.25677 0.35546,-0.56366 0.33702,-0.59532 -0.34679,-0.59532 -0.70451,0 -2.85382,-1.32702 -4.89841,-3.02437 -1.754571,-1.45659 -2.463236,-1.94111 -3.429711,-2.34493 -0.523288,-0.21865 -1.032529,-0.52875 -1.131642,-0.68912 -0.09911,-0.16036 -0.456258,-0.29158 -0.793652,-0.29158 -0.748183,0 -1.088427,-0.39086 -1.332137,-1.53031 -0.102211,-0.47788 -0.461211,-1.0493 -0.797782,-1.26983 -0.336569,-0.22053 -0.915879,-0.86024 -1.287354,-1.42157 -0.669947,-1.01236 -2.231626,-1.82874 -2.812045,-1.47002 -0.148365,0.0917 -0.27051,0.0704 -0.271428,-0.0473 -7.94e-4,-0.11773 -0.345342,-0.40955 -0.765379,-0.64848 -0.420037,-0.23894 -1.818269,-1.92047 -3.107182,-3.73674 -2.451751,-3.45489 -4.226856,-5.22154 -5.246529,-5.22154 -0.676952,0 -1.039185,-0.35556 -1.331724,-1.30717 -0.109175,-0.35515 -0.844159,-1.23582 -1.633297,-1.95704 -0.839745,-0.76748 -1.377312,-1.46113 -1.296191,-1.67253 0.248531,-0.64766 -0.414761,-1.67784 -1.080289,-1.67784 -0.709662,0 -0.739502,-0.0788 -0.297756,-0.78614 0.269086,-0.43088 0.229325,-0.61282 -0.24497,-1.12089 -0.311409,-0.33358 -0.646245,-0.92907 -0.744075,-1.32331 -0.104658,-0.42175 -0.548357,-0.93538 -1.077947,-1.24785 -0.49504,-0.29208 -0.900072,-0.69291 -0.900072,-0.89073 0,-0.19782 -0.309441,-0.64832 -0.68765,-1.00111 -0.378206,-0.35279 -0.973836,-1.17721 -1.32362,-1.83206 -0.349785,-0.65484 -0.879674,-1.4948 -1.177526,-1.86657 -0.447873,-0.55901 -0.493675,-0.80188 -0.264774,-1.40393 0.215718,-0.56738 0.180449,-0.91427 -0.159858,-1.57235 -0.683181,-1.32112 -2.189649,-3.42926 -2.711979,-3.79512 -0.351036,-0.24587 -0.516642,-0.83733 -0.638678,-2.28103 -0.15734,-1.86131 -0.759854,-3.65172 -2.041607,-6.06675 -0.419767,-0.79091 -0.519308,-1.50457 -0.519308,-3.72318 0,-3.02825 -0.558607,-5.36708 -1.22115,-5.11284 -0.296704,0.11385 -0.36635,-0.35187 -0.36635,-2.44982 0,-1.6931 -0.148376,-3.02586 -0.42835,-3.84753 -0.257657,-0.75618 -0.367319,-1.63323 -0.275191,-2.20093 0.11534,-0.71075 -0.0029,-1.21229 -0.478816,-2.03115 -0.504611,-0.86821 -0.790112,-2.20708 -1.416675,-6.64359 -0.431588,-3.05594 -0.725548,-6.05897 -0.653245,-6.67339 0.08834,-0.75076 -0.09616,-1.91065 -0.562568,-3.53664 -0.521626,-1.81848 -0.726424,-3.24523 -0.824436,-5.74357 -0.07173,-1.82825 -0.187592,-3.38126 -0.257485,-3.45115 -0.06989,-0.0699 -0.365929,0.0891 -0.657862,0.35328 -0.527506,0.47739 -0.530789,0.46597 -0.530789,-1.84636 0,-1.2797 0.226962,-3.70917 0.504359,-5.39882 0.2774,-1.68966 0.575572,-4.47097 0.66261,-6.1807 0.359783,-7.06741 1.41506,-11.67684 4.134194,-18.05807 1.054145,-2.47386 2.323986,-5.74807 2.821871,-7.27604 0.497882,-1.52797 1.433724,-3.8954 2.079646,-5.26095 0.645922,-1.36555 1.174403,-2.66563 1.174403,-2.88907 0,-0.22344 0.520317,-1.48742 1.156256,-2.80885 0.635942,-1.32142 1.703292,-3.54453 2.371892,-4.94023 1.190717,-2.485621 2.183923,-3.690881 5.83084,-7.075705 0.418017,-0.387975 1.175477,-1.360252 1.683247,-2.160617 0.50777,-0.800364 1.525124,-2.153314 2.260788,-3.006553 1.052081,-1.220229 1.381321,-1.828104 1.542547,-2.848012 0.112736,-0.713166 0.479774,-1.671881 0.815639,-2.130476 0.335867,-0.458594 0.848791,-1.310068 1.139833,-1.892165 0.46795,-0.935921 0.784916,-1.164717 2.739914,-1.977747 1.336593,-0.555853 2.631887,-1.320012 3.275817,-1.932567 1.13689,-1.0815 1.10227,-0.86709 0.539998,-3.344252 -0.103364,-0.455387 -0.01733,-0.595312 0.366014,-0.595312 0.275627,0 0.782405,-0.197006 1.126176,-0.437793 0.900832,-0.630968 4.226033,-0.739846 4.453974,-0.145841 0.256268,0.667827 1.462522,1.624338 2.060136,1.633607 0.296513,0.0046 1.125474,0.603673 1.842138,1.331277 1.019849,1.035418 1.485352,1.322917 2.142007,1.322917 0.63264,0 0.87511,0.138133 0.98586,0.561649 0.13313,0.509085 0.26472,0.543976 1.40614,0.372809 1.14012,-0.170971 1.22572,-0.148405 0.90462,0.238495 -0.49375,0.594932 -0.26369,0.713608 0.79486,0.410023 0.49872,-0.143034 1.25879,-0.260059 1.68904,-0.260059 0.60843,0 0.71171,0.07056 0.46476,0.3175 -0.67611,0.676116 -0.34681,1.005416 1.00542,1.005416 1.43799,0 1.65035,0.247219 0.73462,0.855234 -0.57875,0.384278 -0.56728,0.399907 0.70737,0.963742 1.23015,0.544153 1.36525,0.552903 2.67195,0.173035 1.510123,-0.439004 1.958923,-1.064876 2.053743,-2.864014 0.0302,-0.573397 0.14605,-0.854019 0.29257,-0.708848 0.14692,0.145566 0.1049,0.969754 -0.10657,2.090534 l -0.34912,1.850229 0.96647,1.069766 c 0.53156,0.58837 0.96647,1.188484 0.96647,1.333585 0,0.145102 0.15848,0.263821 0.35217,0.263821 0.44547,0 0.88251,-0.887344 1.10767,-2.248959 0.20676,-1.250304 0.53937,-1.719791 1.21839,-1.719791 0.73114,0 0.60554,0.580474 -0.29698,1.372417 -0.90377,0.793041 -1.06838,2.019324 -0.36543,2.722275 0.39471,0.394705 0.46739,0.392972 0.92604,-0.02212 0.47093,-0.42618 0.49772,-0.422902 0.49772,0.06087 0,0.986155 0.87981,1.745795 3.5138,3.033877 1.46135,0.714634 2.83466,1.299334 3.0518,1.299334 0.35984,0 2.69724,0.978776 3.81571,1.597806 0.63738,0.352763 0.68326,0.332676 0.77894,-0.341035 0.079,-0.556271 0.14528,-0.527891 1.01059,0.432747 0.50932,0.565431 1.30917,1.190509 1.77744,1.389063 1.13722,0.482198 3.19565,0.454763 4.17568,-0.05566 l 0.79375,-0.413398 -0.73789,0.770969 c -0.63261,0.660974 -0.68273,0.816745 -0.35132,1.091793 0.21261,0.17645 1.1995,0.455096 2.1931,0.619212 0.99359,0.164116 1.94737,0.438391 2.1195,0.609501 0.17214,0.17111 0.80871,0.39037 1.41461,0.48726 0.77254,0.12353 1.06064,0.28298 0.96441,0.53373 -0.0967,0.25193 0.18895,0.40554 0.96665,0.51988 2.28811,0.3364 2.96352,0.52119 3.22825,0.88322 0.23113,0.31609 0.45916,0.29276 1.50027,-0.15351 1.02815,-0.44072 1.25131,-0.46476 1.37291,-0.14788 0.0799,0.20811 0.43956,0.37838 0.79934,0.37838 0.35978,0 0.72774,0.11906 0.81767,0.26458 0.0899,0.14552 0.50777,0.264591 0.92851,0.264591 0.43086,0 0.87002,0.18768 1.00546,0.42969 0.19675,0.35158 0.40355,0.38254 1.13762,0.1703 0.49344,-0.14266 1.67107,-0.22642 2.61695,-0.18614 0.94589,0.0403 2.22581,0.0772 2.84428,0.0821 0.83423,0.007 1.12447,0.11443 1.12447,0.41791 0,0.97624 1.74154,-0.0728 1.98865,-1.197891 0.0935,-0.42587 0.28386,-0.7743 0.42294,-0.7743 0.15352,0 0.14526,0.20106 -0.021,0.51178 -0.62391,1.165781 -0.40275,1.334101 1.64434,1.251411 1.05503,-0.0426 2.12659,0.0237 2.38125,0.14731 0.27736,0.13465 0.68403,0.10651 1.0142,-0.0702 0.43046,-0.23038 0.6478,-0.20754 0.99235,0.10427 0.34442,0.3117 0.5572,0.33411 0.97018,0.1022 0.83654,-0.46977 2.83546,-0.69243 3.34719,-0.37285 0.34661,0.21646 0.75965,0.14949 1.72902,-0.28033 0.70049,-0.3106 1.61155,-0.637071 2.02458,-0.725481 0.622,-0.13315 0.69595,-0.22703 0.43062,-0.54673 -0.27791,-0.33486 0.13309,-0.38597 3.10363,-0.38597 2.33963,0 3.86651,-0.13143 4.82142,-0.415 1.62423,-0.48235 2.1565,-0.37374 1.95448,0.39881 -0.15822,0.60501 0.19268,0.70076 0.99483,0.27146 0.62138,-0.33255 0.66302,-0.0672 0.089,0.56712 -0.4684,0.517571 -0.30004,1.029691 0.33851,1.029691 0.3377,0 0.35317,0.0729 0.0843,0.39688 -0.26931,0.32449 -0.2526,0.39687 0.0916,0.39687 0.26549,0 0.36472,0.14658 0.26868,0.39688 -0.20084,0.52337 0.59894,0.52184 1.85638,-0.004 1.18639,-0.49571 1.26751,-0.14542 0.0927,0.40043 -0.62603,0.29087 -0.85417,0.57204 -0.85417,1.0527 0,0.52145 0.14538,0.667 0.70952,0.71036 0.39023,0.03 0.85129,-0.1163 1.02458,-0.3251 0.38904,-0.46876 1.39515,-0.50832 1.24361,-0.0489 -0.06,0.1819 -0.36968,0.46182 -0.68819,0.62205 -0.93247,0.46908 -0.95445,0.595 -0.22224,1.27358 0.85136,0.78902 1.63343,0.91408 2.77062,0.44304 1.14386,-0.4738 1.37032,-0.20417 0.33979,0.40458 -0.87608,0.51752 -1.05114,0.89478 -0.41518,0.89478 0.65892,0 0.45052,0.46131 -0.5548,1.22811 -0.81333,0.62036 -0.89259,0.76908 -0.54521,1.02309 0.34394,0.25149 0.238,0.40643 -0.68879,1.00738 -1.12851,0.73174 -1.50184,0.81385 -2.49237,0.54819 -0.35517,-0.0953 -0.5223,-0.29731 -0.43471,-0.52555 0.16937,-0.44139 -0.38154,-0.48186 -1.38194,-0.10151 -0.54554,0.20742 -0.67469,0.39784 -0.56202,0.82869 0.14073,0.53818 0.0832,0.55292 -1.51777,0.3889 -1.17222,-0.1201 -1.93005,-0.0598 -2.56405,0.20384 -0.495,0.20587 -1.61438,0.45903 -2.48751,0.56258 -1.30678,0.15497 -1.52901,0.12678 -1.25677,-0.1594 0.1819,-0.19121 0.33073,-0.44291 0.33073,-0.55932 0,-0.40955 -1.89449,-0.20558 -3.07173,0.33072 -0.69059,0.3146 -1.41473,0.47126 -1.72424,0.37303 -0.32952,-0.10459 -0.72136,5.3e-4 -1.02448,0.27486 -0.26997,0.24432 -0.94605,0.55942 -1.50239,0.70022 -0.55634,0.1408 -1.42825,0.36666 -1.93758,0.5019 -0.50932,0.13525 -1.76008,0.17428 -2.77947,0.0868 -1.40034,-0.12024 -2.10596,-0.0536 -2.88638,0.27244 -0.61441,0.25672 -1.36428,0.37037 -1.85073,0.28049 -0.44978,-0.0831 -1.54791,0.0203 -2.44028,0.22976 -0.89237,0.20947 -1.9324,0.32162 -2.31118,0.2492 -0.47869,-0.0915 -1.08021,0.11958 -1.97256,0.6922 -1.39779,0.89696 -2.16356,1.04808 -2.16356,0.42697 0,-0.49031 -0.42921,-0.50033 -1.75267,-0.0409 -0.564,0.19578 -1.42497,0.43344 -1.91326,0.52814 -0.72177,0.13996 -0.8594,0.0981 -0.73591,-0.22368 0.24108,-0.62825 -0.61192,-0.47704 -1.74721,0.30971 -0.58665,0.40655 -1.37758,0.70531 -1.86631,0.70498 -0.6912,-5.3e-4 -1.12608,0.29034 -2.34969,1.57128 -0.82584,0.86452 -1.62951,1.49276 -1.78594,1.39608 -0.47013,-0.29056 -0.32851,-0.66329 0.56052,-1.47529 0.46471,-0.42446 0.77317,-0.84351 0.68545,-0.93123 -0.0877,-0.0877 -0.99391,0.20674 -2.01377,0.65436 -1.01986,0.44762 -1.99887,0.81385 -2.17558,0.81385 -0.61437,0 -2.01466,1.04967 -2.33333,1.74908 -0.30791,0.67578 -0.38418,0.69798 -1.91977,0.55874 -1.40146,-0.12709 -1.71828,-0.0641 -2.56327,0.50928 -0.53028,0.35987 -1.05423,0.79597 -1.16432,0.96912 -0.42612,0.67018 -0.20171,-0.4084 0.24084,-1.15757 0.24701,-0.41816 0.37627,-0.83313 0.28724,-0.92215 -0.2893,-0.28931 -1.25001,0.40644 -1.6624,1.20392 -0.43682,0.84473 -1.13188,1.32291 -1.92288,1.32291 -0.27636,0 -0.82853,0.34862 -1.22706,0.77471 -1.21245,1.2963 -1.93348,1.97703 -2.71665,2.56479 -0.70541,0.5294 -1.40945,2.4666 -1.40945,3.87815 0,0.52729 -0.29174,0.58686 -0.72962,0.14898 -0.48835,-0.48834 -1.12246,0.23083 -1.12246,1.27303 0,0.59924 -0.14862,0.95898 -0.44281,1.07187 -0.24355,0.0935 -0.66026,0.38738 -0.92604,0.65316 -0.26578,0.26578 -0.64725,0.48323 -0.84772,0.48323 -0.20046,0 -0.51269,0.17859 -0.69385,0.39688 -0.18116,0.21828 -0.55292,0.39687 -0.82614,0.39687 -0.40658,0 -0.49678,0.20038 -0.49678,1.10365 0,0.67473 0.17781,1.30011 0.45752,1.60919 0.43504,0.48071 0.43179,0.51986 -0.0661,0.79687 -0.28801,0.16023 -0.88084,0.65208 -1.31741,1.09301 -0.43656,0.44093 -1.00008,0.76918 -1.25227,0.72945 -0.4285,-0.0675 -2.58419,1.90704 -2.58419,2.36705 0,0.11262 0.37779,0.24206 0.83952,0.28766 0.46174,0.0456 0.89257,0.2443 0.9574,0.44155 0.09,0.27385 -0.0754,0.31618 -0.69986,0.17904 -0.67064,-0.1473 -0.92612,-0.0589 -1.42041,0.49174 -1.46317,1.62987 -1.92053,2.28901 -1.84855,2.6641 0.0424,0.22085 -0.0722,0.67078 -0.25464,0.99985 -0.182443,0.32906 -0.300493,0.70536 -0.262343,0.83621 0.0382,0.13086 -0.0156,0.42851 -0.11938,0.66146 -0.10381,0.23295 -0.19902,0.89223 -0.21159,1.46506 -0.0209,0.95149 -0.0992,1.06129 -0.90586,1.27032 -0.69838,0.18097 -0.84117,0.32279 -0.68294,0.67828 0.11003,0.24721 0.22014,0.77114 0.24468,1.16428 0.0245,0.39315 0.18881,0.88856 0.36506,1.10093 0.42215,0.50865 -0.0545,0.81274 -0.71759,0.45784 -0.5372,-0.28751 -1.10433,0.0667 -1.10433,0.68975 0,0.18918 -0.12201,0.34396 -0.27113,0.34396 -0.14912,0 -0.3843,0.29766 -0.52262,0.66146 -0.30512,0.80254 -0.55907,0.83343 -1.00334,0.12203 -0.45044,-0.72127 -0.93786,-0.38081 -0.71664,0.50057 0.14708,0.58601 0.0144,0.83198 -0.83226,1.54278 -1.33132,1.11771 -0.91939,1.44547 0.71881,0.57193 0.71734,-0.38252 1.30426,-0.58381 1.30426,-0.44732 0,0.13649 -0.38414,0.45099 -0.85366,0.69888 -1.09736,0.57938 -2.58592,2.14454 -2.58592,2.71898 0,0.24479 0.17729,0.5922 0.39396,0.77202 0.21668,0.17983 0.31654,0.45224 0.22191,0.60536 -0.0946,0.15312 0.15279,0.53742 0.54982,0.85401 l 0.72189,0.57561 -0.6567,0.43028 c -0.43736,0.28657 -0.61298,0.59746 -0.52581,0.9308 0.10204,0.39018 -0.0487,0.53645 -0.68396,0.6635 -1.06823,0.21364 -1.07595,0.9678 -0.019,1.85715 l 0.79585,0.66967 -1.1243,0.0815 c -0.83297,0.0603 -1.14768,0.20472 -1.21457,0.55719 -0.14167,0.74658 0.43941,1.28578 1.03954,0.96461 0.39507,-0.21144 0.50138,-0.17852 0.50138,0.15524 0,0.23297 -0.12736,0.66157 -0.28303,0.95244 -0.23312,0.43558 -0.35334,0.47051 -0.68163,0.19805 -0.62361,-0.51755 -0.89022,0.19221 -0.71215,1.89588 0.12375,1.18404 0.0443,1.68505 -0.40766,2.57098 -0.33051,0.64786 -0.56136,1.59931 -0.56136,2.31365 0,0.78644 -0.23271,1.65043 -0.66146,2.45583 -0.799383,1.50164 -0.815049,1.78188 -0.13229,2.36648 0.67534,0.57824 0.66628,0.75334 -0.132293,2.55906 -0.992789,2.24487 -0.819428,4.49691 0.276173,3.58764 0.32015,-0.2657 0.38528,-0.206 0.38528,0.35307 0,0.53246 -0.16559,0.70921 -0.793745,0.84717 -0.882478,0.19383 -0.89525,0.21393 -0.548481,0.86349 0.134897,0.25269 0.309755,0.66779 0.388572,0.92245 0.07881,0.25466 0.385164,0.46302 0.680774,0.46302 0.67261,0 0.69709,0.42512 0.0446,0.77433 -1.077389,0.5766 -1.282685,2.06793 -0.626026,4.54762 0.208546,0.78749 0.144698,1.20788 -0.36163,2.38125 -0.338185,0.78371 -0.619662,1.76017 -0.625507,2.16992 -0.0058,0.40975 -0.134202,0.97591 -0.285242,1.25813 -0.200295,0.37426 -0.163544,0.84028 0.135803,1.72198 0.225729,0.66487 0.340484,1.32201 0.255011,1.46031 -0.291336,0.47139 0.173299,1.8731 0.570383,1.72072 0.290108,-0.11132 0.371465,0.1606 0.370438,1.23811 l -0.0013,1.38076 -0.650629,-0.79375 c -0.797843,-0.97335 -0.806236,-0.87543 -0.130707,1.5247 0.296426,1.05319 0.6129,2.91321 0.703279,4.1334 0.137789,1.86031 0.243787,2.2393 0.656517,2.34723 0.41937,0.10967 0.47021,0.30992 0.34358,1.35336 -0.19244,1.58562 0.17103,3.60589 0.64874,3.60589 0.44458,0 0.76968,0.7772 0.7945,1.89933 0.0102,0.46255 0.18267,1.00508 0.38321,1.20561 0.20054,0.20054 0.44705,0.7746 0.5478,1.27567 0.35832,1.78213 1.00868,3.56273 1.4441,3.95377 0.58206,0.52273 1.70831,3.1 2.39326,5.47667 0.54649,1.89623 1.07106,2.72035 1.07106,1.68269 0,-0.76502 0.16603,-0.69483 1.3436,0.56799 1.04839,1.1243 1.31322,1.92308 0.70692,2.13221 -0.57976,0.19997 1.02469,3.03262 3.432033,6.05924 1.24007,1.55907 2.4188,2.89765 2.61939,2.97463 0.2006,0.077 0.36472,0.37753 0.36472,0.66789 0,0.58352 1.68042,1.86993 2.44267,1.86993 0.25726,0 0.46775,0.13197 0.46775,0.29326 0,0.18365 -0.25693,0.22878 -0.68735,0.12075 -0.37805,-0.0949 -0.63673,-0.078 -0.57486,0.0375 0.0619,0.11548 0.27823,0.59693 0.48078,1.06987 0.40819,0.95308 1.11103,1.12252 1.85676,0.44764 0.40851,-0.36969 0.55407,-0.37109 1.4099,-0.0135 1.17193,0.48966 1.23639,0.95492 0.1323,0.95492 -0.64091,0 -0.78667,0.0922 -0.66146,0.41851 0.0883,0.23019 0.1606,0.52245 0.1606,0.64947 0,0.12703 0.40726,0.30736 0.90503,0.40074 0.49776,0.0934 1.19487,0.48573 1.54911,0.87189 0.35424,0.38615 0.84475,0.82116 1.09002,0.96668 0.28077,0.16659 0.46648,0.65658 0.50141,1.32292 0.053,1.01139 0.0997,1.0642 1.05205,1.19062 1.31836,0.17501 2.92133,1.44321 2.70113,2.13702 -0.0888,0.27985 -0.0473,0.50882 0.0922,0.50882 0.13956,0 0.33057,0.30615 0.42449,0.68034 0.12475,0.49704 0.54238,0.84646 1.55004,1.29689 0.7586,0.3391 1.78959,1.04498 2.29108,1.56861 1.01421,1.05901 1.00697,1.11043 -0.0738,0.52467 z M 94.681817,232.03434 c -0.0899,-0.14552 -0.0374,-0.26459 0.11667,-0.26459 0.15411,0 0.2802,0.11907 0.2802,0.26459 0,0.14552 -0.0525,0.26458 -0.11667,0.26458 -0.0642,0 -0.19027,-0.11906 -0.2802,-0.26458 z m -5.95313,-16.66875 c -0.1691,-0.31597 -0.24792,-0.63402 -0.17516,-0.70678 0.0728,-0.0728 0.27064,0.12622 0.43974,0.44219 0.1691,0.31597 0.24793,0.63402 0.17517,0.70678 -0.0728,0.0728 -0.27065,-0.12623 -0.43975,-0.44219 z M 88.22041,209.655 c 0.0127,-0.30823 0.07539,-0.37092 0.159847,-0.15986 0.0764,0.191 0.067,0.4192 -0.0209,0.50712 -0.08792,0.0879 -0.150454,-0.0684 -0.138966,-0.34726 z m 0.244687,-1.20233 c -5.3e-4,-0.38236 0.18048,-0.84582 0.40228,-1.02989 0.65383,-0.54264 0.72488,-0.12213 0.14114,0.83536 -0.53645,0.87992 -0.54245,0.88206 -0.54342,0.19453 z M 47.82016,205.45989 c -0.08743,-0.22783 -0.08981,-0.68974 -0.0053,-1.02647 0.09058,-0.36089 -0.02077,-0.86125 -0.271222,-1.21882 -0.330065,-0.47124 -0.351202,-0.65214 -0.09472,-0.81065 0.181589,-0.11223 0.524838,-0.63476 0.762775,-1.16118 l 0.432612,-0.95713 0.42508,1.34674 c 0.423508,1.34176 0.422645,1.34899 -0.233683,1.95757 -0.500591,0.46418 -0.618302,0.77205 -0.490254,1.28223 0.185573,0.73938 -0.27105,1.25026 -0.525296,0.58771 z m -1.78507,-1.60368 c 0.08376,-0.21828 0.199088,-0.39688 0.256281,-0.39688 0.05719,0 0.103984,0.1786 0.103984,0.39688 0,0.21828 -0.115327,0.39687 -0.256281,0.39687 -0.140952,0 -0.187746,-0.17859 -0.103984,-0.39687 z m 44.810267,-10.20207 c 0,-0.15411 0.11906,-0.20662 0.26458,-0.11668 0.14552,0.0899 0.26458,0.21603 0.26458,0.2802 0,0.0642 -0.11906,0.11667 -0.26458,0.11667 -0.14552,0 -0.26458,-0.12609 -0.26458,-0.28019 z m 2.88717,-29.28848 -0.6847,-0.41612 0.62697,-1.12178 c 0.64876,-1.16075 1.40389,-1.96864 1.40389,-1.50197 0,0.14552 -0.16691,0.40311 -0.37092,0.57241 -0.61354,0.5092 -0.75425,1.59993 -0.29651,2.29852 0.47303,0.72194 0.30146,0.76465 -0.67873,0.16894 z M 167.2438,113.06119 c 0.1819,-0.0734 0.47955,-0.0734 0.66145,0 0.1819,0.0734 0.0331,0.13345 -0.33073,0.13345 -0.3638,0 -0.51263,-0.0601 -0.33072,-0.13345 z m 9.525,-0.79375 c 0.1819,-0.0734 0.47955,-0.0734 0.66145,0 0.1819,0.0734 0.0331,0.13345 -0.33073,0.13345 -0.3638,0 -0.51263,-0.0601 -0.33072,-0.13345 z m 3.10885,-0.61853 c 0.72736,-0.31255 1.14511,-0.31255 0.66146,0 -0.21828,0.14107 -0.57547,0.24994 -0.79375,0.24194 -0.26169,-0.01 -0.21663,-0.092 0.13229,-0.24194 z M 140.85566,98.618179 c 0.007,-0.55444 0.44872,-1.07063 0.7547,-0.88152 0.2054,0.12694 0.19557,0.32765 -0.0341,0.69535 -0.36598,0.58604 -0.72667,0.67922 -0.72063,0.18617 z m -3.17905,-0.16721 c 0,-0.14552 0.11906,-0.33816 0.26458,-0.4281 0.14552,-0.0899 0.26458,-0.0445 0.26458,0.10106 0,0.14552 -0.11906,0.33817 -0.26458,0.42811 -0.14552,0.0899 -0.26458,0.0445 -0.26458,-0.10107 z m 13.49375,-5.322891 c 0.51815,-0.334857 0.86841,-0.334857 0.66146,0 -0.0899,0.145521 -0.36486,0.262761 -0.61093,0.260533 -0.38557,-0.0035 -0.39256,-0.0395 -0.0505,-0.260533 z m 2.91041,-0.675137 c -0.50932,-0.19108 -1.52135,-0.299464 -2.24895,-0.240853 -4.74655,0.382352 -5.19248,0.389842 -5.00349,0.08406 0.13495,-0.218353 0.004,-0.260866 -0.44217,-0.144066 -0.34849,0.09113 -1.0777,0.03264 -1.62048,-0.129979 -0.75159,-0.225184 -1.07927,-0.21898 -1.37448,0.02603 -0.46839,0.388726 -4.75421,-0.437076 -7.60459,-1.465268 -1.8293,-0.659866 -4.02171,-0.6599 -3.87018,-6.1e-5 0.0696,0.303266 -0.10807,0.428615 -0.60765,0.428615 -0.15579,0 -0.21178,-0.222557 -0.12487,-0.496369 0.11477,-0.361622 -5.3e-4,-0.537718 -0.42497,-0.648695 -0.78414,-0.205058 -1.01823,-0.01611 -1.02833,0.82995 -0.007,0.59748 -0.12414,0.478248 -0.7276,-0.741365 -0.58483,-1.181957 -0.87039,-1.482614 -1.52925,-1.610053 -0.44558,-0.08619 -1.39808,-0.463786 -2.11667,-0.839113 -0.71859,-0.375327 -1.77585,-0.748353 -2.34947,-0.828945 -0.57363,-0.0806 -1.52613,-0.49158 -2.11667,-0.913305 -0.68531,-0.489397 -1.91099,-0.963057 -3.38825,-1.30938 -2.33528,-0.547473 -3.66415,-1.178947 -4.5569,-2.165432 -0.26764,-0.295754 -0.71048,-0.537724 -0.98409,-0.537724 -0.53232,0 -1.47403,-0.530204 -2.68197,-1.510011 -0.41134,-0.333661 -0.93946,-0.606655 -1.17359,-0.606655 -0.23413,0 -0.9762,-0.464193 -1.64904,-1.03154 -2.02275,-1.70561 -2.91182,-2.141384 -4.37109,-2.142471 -0.84418,-5.29e-4 -1.66249,-0.194141 -2.248963,-0.531823 -0.50705,-0.29196 -1.21957,-0.67649 -1.58337,-0.854512 -0.3638,-0.178022 -0.73874,-0.432744 -0.83319,-0.566052 -0.0945,-0.133308 -0.35249,-0.173016 -0.57342,-0.08824 -0.22694,0.08709 -0.46794,-0.01855 -0.554,-0.242797 -0.0838,-0.218318 -0.25868,-0.3312 -0.38869,-0.250854 -0.13,0.08035 -0.30044,-0.09891 -0.37875,-0.39836 -0.11403,-0.436046 -0.31756,-0.527642 -1.02226,-0.460047 -0.84358,0.08092 -0.87631,0.125355 -0.79306,1.07659 0.0938,1.072258 -0.28903,1.321165 -0.73899,0.480415 -0.37905,-0.708269 -0.36629,-0.750779 0.45347,-1.510509 l 0.72737,-0.674098 -0.72737,-0.579977 c -0.40005,-0.31899 -0.72736,-0.748226 -0.72736,-0.95386 0,-0.205634 -1.08923,-1.427406 -2.4205,-2.715051 -1.33128,-1.287643 -2.730262,-2.72582 -3.108854,-3.195945 -1.184182,-1.470483 -3.274465,-3.248324 -3.397327,-2.889517 -0.06229,0.181901 -0.277349,0.330729 -0.477919,0.330729 -0.462833,0 -2.509351,-1.979213 -3.393141,-3.281553 -0.370782,-0.546378 -1.178428,-1.392463 -1.79477,-1.880193 -0.616341,-0.487728 -1.373584,-1.38263 -1.682766,-1.988672 -0.309178,-0.606041 -1.471993,-2.072857 -2.584034,-3.259593 -1.112041,-1.186733 -2.595745,-2.931604 -3.297116,-3.87749 -0.878274,-1.184455 -1.451628,-1.719791 -1.841929,-1.719791 -0.363291,0 -0.862819,-0.408065 -1.391676,-1.136862 -0.885378,-1.2201 -1.53987,-1.633395 -1.833713,-1.157947 -0.121113,0.195967 -0.601118,-0.0016 -1.421813,-0.585033 -0.738177,-0.524825 -1.833184,-1.00021 -2.709064,-1.176113 -1.705514,-0.342516 -2.888887,-1.165511 -4.394041,-3.055906 -0.945581,-1.187598 -1.056672,-1.468776 -0.919424,-2.327084 0.182576,-1.141767 -0.132371,-2.104258 -1.042477,-3.185859 -0.772536,-0.918107 -0.858234,-1.378256 -0.190998,-1.025551 0.778926,0.411744 2.148078,0.876758 2.369903,0.804906 0.115382,-0.03737 0.173807,-0.280315 0.129836,-0.539869 -0.04476,-0.264194 0.159049,-0.599824 0.463021,-0.762505 0.746429,-0.399476 0.681564,-0.889457 -0.25966,-1.961452 -0.527253,-0.600508 -0.7009,-0.977019 -0.506116,-1.0974 0.163081,-0.100791 0.230809,-0.434506 0.150506,-0.741591 -0.09477,-0.362382 0.05965,-0.77765 0.43997,-1.18324 l 0.585978,-0.624906 -0.593056,-0.481127 -0.593053,-0.481127 0.725345,-0.769407 c 0.398941,-0.423175 0.933707,-0.84766 1.188368,-0.943302 0.254662,-0.09564 0.463021,-0.356224 0.463021,-0.579073 0,-0.222848 0.133641,-0.405179 0.296979,-0.405179 0.218027,0 0.218861,-0.09413 0.0031,-0.354072 -0.161621,-0.19474 -0.950106,-0.500935 -1.752187,-0.680433 -1.54486,-0.345725 -2.075455,-0.953535 -0.59844,-0.685526 0.715933,0.129909 0.978699,0.02834 1.569519,-0.606656 0.891558,-0.958228 2.4839,-1.548557 4.785897,-1.774276 1.340424,-0.131433 1.983602,-0.337415 2.555076,-0.818277 0.651285,-0.548022 0.871437,-0.601674 1.495417,-0.364437 1.083193,0.411829 1.530297,0.141787 1.340064,-0.809374 -0.169225,-0.846126 -0.122422,-0.855271 1.758117,-0.343538 0.399198,0.108631 0.444907,0.01544 0.291745,-0.594797 l -0.181615,-0.723609 1.535546,0.158482 c 0.84455,0.08716 1.628646,0.309119 1.742432,0.493231 0.113787,0.184111 0.779788,0.536564 1.48,0.783228 0.700212,0.246664 1.749364,0.633264 2.331448,0.859112 1.048591,0.406852 2.513541,0.572475 2.513541,0.284173 0,-0.08233 -0.12234,-0.378283 -0.27187,-0.65768 -0.247303,-0.462092 -0.21128,-0.484958 0.398672,-0.253055 0.368797,0.140216 0.997154,0.416579 1.396349,0.614139 0.399193,0.197559 1.440183,0.510242 2.313308,0.694851 0.873125,0.184608 1.958742,0.561389 2.412478,0.837291 0.45374,0.275902 1.287177,0.503074 1.852083,0.504827 0.61657,0.0019 1.503,0.276715 2.21773,0.687516 5.21525,2.99754 8.4831,4.585753 9.458863,4.597113 0.1819,0.0021 0.33073,-0.174743 0.33073,-0.393024 0,-0.601522 0.41477,-0.48115 1.43811,0.417362 0.51006,0.44783 1.04998,0.73846 1.19983,0.645843 0.35021,-0.216436 0.3495,-1.086368 -10e-4,-1.742058 -0.40143,-0.750089 0.081,-0.623928 0.80695,0.211047 0.35548,0.408837 0.60804,1.012228 0.58143,1.389063 -0.0259,0.366434 0.0663,0.844837 0.20491,1.063118 0.20916,0.32947 0.34398,0.339835 0.7938,0.06103 0.4783,-0.296462 0.56966,-0.262683 0.77905,0.288043 0.33311,0.876165 1.85731,2.097279 2.43068,1.947341 0.39462,-0.103197 0.4488,-3.44e-4 0.32524,0.617414 -0.11921,0.596078 -0.0132,0.829723 0.54138,1.193092 0.37929,0.248521 0.68962,0.618561 0.68962,0.822311 0,1.480286 3.57671,5.515097 4.33273,4.887659 0.50142,-0.41615 0.69435,-0.08876 0.69435,1.178303 0,0.996178 0.15487,1.274773 1.42731,2.567707 1.37812,1.400316 3.33519,4.78744 3.33519,5.772246 0,0.608685 1.52583,3.832215 2.00036,4.226042 0.20949,0.17386 0.38089,0.486301 0.38089,0.694314 0,0.208013 0.25844,0.878044 0.57431,1.488956 0.31587,0.610915 0.65545,1.289346 0.75463,1.507628 0.0992,0.218281 0.43605,0.434922 0.74861,0.481422 0.55046,0.0819 0.68342,0.324263 0.58286,1.062458 -0.0265,0.194289 0.41559,1.146789 0.98235,2.116667 0.56676,0.969875 1.19028,2.18013 1.3856,2.689453 0.36211,0.944197 2.57464,3.333118 2.84064,3.067108 0.0806,-0.08057 0.97715,1.29191 1.99238,3.049964 1.35801,2.351651 2.04243,3.279111 2.58958,3.509171 0.40904,0.17199 1.00959,0.650716 1.33455,1.063837 0.32496,0.41312 0.97177,0.910291 1.43736,1.104826 0.46558,0.194532 1.95887,1.317829 3.31843,2.496217 1.93979,1.681308 2.59854,2.110737 3.06017,1.994876 0.48932,-0.122812 0.60236,-0.02532 0.67204,0.579678 0.0581,0.504167 0.33263,0.849369 0.89484,1.125093 0.44608,0.218777 1.53734,0.962531 2.42502,1.652789 0.88768,0.690258 1.86533,1.293376 2.17256,1.340263 0.30723,0.04689 0.73099,0.331375 0.9417,0.632198 0.34757,0.496231 0.78351,0.664877 2.38079,0.921017 0.37972,0.06089 0.55293,-0.08319 0.61371,-0.510474 0.12543,-0.881853 0.57704,-0.722114 0.57704,0.204111 0,0.59596 0.16835,0.876128 0.66146,1.100801 0.3638,0.165762 0.66146,0.453367 0.66146,0.639125 0,1.052169 4.11195,3.663887 6.77364,4.302297 0.56736,0.136081 1.76055,0.44132 2.65154,0.67831 1.34484,0.357706 2.0189,0.385188 3.96875,0.161803 2.99371,-0.342971 2.92204,-0.346146 2.92204,0.129477 0,0.221596 -0.30758,0.46641 -0.68351,0.544033 -0.37593,0.07762 -1.42235,0.313037 -2.32538,0.52314 -0.90303,0.210106 -2.3921,0.382008 -3.30904,0.382008 -0.91694,0 -2.08309,0.12528 -2.59146,0.2784 -0.50836,0.15312 -2.05539,0.390943 -3.43783,0.528497 -1.80859,0.179954 -2.71461,0.398698 -3.23044,0.779934 -0.80689,0.596352 -1.50555,0.625544 -2.85498,0.119282 z m -18.90069,-1.363972 c -0.14359,-0.377084 -0.1132,-0.407475 0.14811,-0.148114 0.18082,0.179477 0.26211,0.39297 0.18065,0.474432 -0.0815,0.08146 -0.2294,-0.06538 -0.32876,-0.326318 z m -8.08681,-0.225465 c 0,-0.22687 0.12101,-0.337704 0.2689,-0.246301 0.1479,0.0914 0.2004,0.277024 0.11668,0.412491 -0.22681,0.366988 -0.38558,0.298559 -0.38558,-0.16619 z m -17.69629,-5.672926 c -0.0105,-0.851636 0.0551,-1.071198 0.23061,-0.771168 0.14466,0.247359 0.15069,0.735864 0.0147,1.190625 -0.2129,0.711946 -0.23173,0.679733 -0.2453,-0.419457 z m 4.73171,-0.79375 c 0,-0.145521 0.11906,-0.264584 0.26458,-0.264584 0.14553,0 0.26459,0.119063 0.26459,0.264584 0,0.145521 -0.11906,0.264583 -0.26459,0.264583 -0.14552,0 -0.26458,-0.119062 -0.26458,-0.264583 z m -14.00203,-4.387673 c 0.0127,-0.308227 0.0754,-0.37092 0.15985,-0.159854 0.0764,0.190995 0.067,0.419201 -0.0209,0.507119 -0.0879,0.08792 -0.15045,-0.06835 -0.13897,-0.347265 z m 29.90643,-18.13131 c -0.163,-0.467587 -0.25007,-0.896464 -0.19348,-0.953053 0.0566,-0.05659 0.23626,0.279678 0.39927,0.747266 0.163,0.467587 0.25006,0.896464 0.19347,0.953053 -0.0566,0.05659 -0.23626,-0.279678 -0.39926,-0.747266 z M 108.87435,27.078397 c -0.31784,-0.709211 -0.31101,-0.729693 0.10686,-0.320579 0.24552,0.240369 0.39832,0.581295 0.33954,0.757614 -0.0588,0.176318 -0.25965,-0.02035 -0.4464,-0.437035 z"
       id="path9724" />
  </g>
</svg>
