<?xml version="1.0"?>
<svg xmlns="http://www.w3.org/2000/svg" viewBox="0 0 285.355 285.355">
  <defs>
    <filter style="color-interpolation-filters:sRGB" id="a">
      <feFlood flood-opacity=".804" flood-color="#2A1D04" result="flood"/>
      <feComposite in="flood" in2="SourceGraphic" operator="in" result="composite1"/>
      <feGaussianBlur in="composite1" stdDeviation="2" result="blur"/>
      <feOffset dy="2.3" result="offset"/>
      <feComposite in="SourceGraphic" in2="offset" result="composite2"/>
    </filter>
  </defs>
  <g transform="translate(35.755 2.232)">
    <circle style="fill:#007f5f;fill-opacity:1;fill-rule:evenodd;stroke:#131323;stroke-width:8.565;stroke-miterlimit:4;stroke-dasharray:none;stroke-opacity:1" cx="106.923" cy="140.446" r="138.395"/>
    <path style="fill:#000;stroke-width:.264583;filter:url(#a)" d="M121.978 270.5c-.912-.494-3.253-.701-3.916-.347-.365.196-.737.099-1.52-.396a31.86 31.86 0 0 0-2.32-1.292c-2.432-1.21-5.255-2.856-6.22-3.628-.533-.426-1.46-.853-2.06-.949-.66-.105-1.245-.392-1.477-.723-.363-.517-.404-.522-.725-.083-.319.436-.396.423-1.26-.214a1499.56 1499.56 0 0 0-2.11-1.552c-.896-.658-1.17-1.02-1.105-1.467.119-.823-.376-1.324-1.282-1.298-.859.024-2.64-1.185-2.64-1.792 0-.589-.347-.463-1.31.477-.844.823-.873.831-.684.198.108-.364.366-.93.573-1.256.355-.564.337-.596-.347-.596-.705 0-2.854-1.327-4.898-3.024-1.755-1.457-2.464-1.941-3.43-2.345-.523-.219-1.033-.529-1.132-.69-.099-.16-.456-.29-.793-.29-.749 0-1.089-.392-1.333-1.531-.102-.478-.46-1.05-.797-1.27-.337-.22-.916-.86-1.288-1.422-.67-1.012-2.231-1.828-2.812-1.47-.148.092-.27.07-.271-.047-.001-.118-.346-.41-.766-.648-.42-.24-1.818-1.92-3.107-3.737-2.452-3.455-4.227-5.222-5.246-5.222-.677 0-1.04-.355-1.332-1.307-.11-.355-.844-1.236-1.633-1.957-.84-.767-1.378-1.46-1.297-1.672.249-.648-.414-1.678-1.08-1.678-.71 0-.74-.079-.298-.786.27-.431.23-.613-.245-1.121-.311-.334-.646-.93-.744-1.324-.104-.421-.548-.935-1.078-1.247-.495-.292-.9-.693-.9-.891 0-.198-.31-.648-.687-1.001-.379-.353-.974-1.177-1.324-1.832-.35-.655-.88-1.495-1.177-1.867-.448-.559-.494-.802-.265-1.404.216-.567.18-.914-.16-1.572-.683-1.321-2.19-3.43-2.712-3.795-.351-.246-.517-.838-.639-2.281-.157-1.862-.76-3.652-2.041-6.067-.42-.79-.52-1.505-.52-3.723 0-3.028-.558-5.367-1.22-5.113-.297.114-.367-.352-.367-2.45 0-1.693-.149-3.026-.428-3.847-.258-.757-.368-1.634-.276-2.201.116-.711-.003-1.213-.479-2.031-.504-.869-.79-2.208-1.416-6.644-.432-3.056-.726-6.059-.653-6.673.088-.751-.097-1.911-.563-3.537-.522-1.819-.726-3.245-.824-5.744-.072-1.828-.188-3.38-.258-3.45-.07-.07-.366.088-.658.352-.527.478-.53.466-.53-1.846 0-1.28.226-3.709.504-5.399.277-1.69.575-4.47.662-6.18.36-7.068 1.415-11.677 4.135-18.058 1.054-2.474 2.324-5.749 2.821-7.277.498-1.527 1.434-3.895 2.08-5.26.646-1.366 1.175-2.666 1.175-2.89 0-.223.52-1.487 1.156-2.808.636-1.322 1.703-3.545 2.372-4.94 1.19-2.486 2.184-3.691 5.83-7.076.419-.388 1.176-1.36 1.684-2.16.508-.801 1.525-2.154 2.26-3.007 1.053-1.22 1.382-1.829 1.543-2.848.113-.714.48-1.672.816-2.131.336-.459.849-1.31 1.14-1.892.468-.936.784-1.165 2.74-1.978 1.336-.556 2.631-1.32 3.275-1.932 1.137-1.082 1.103-.868.54-3.345-.103-.455-.017-.595.366-.595.276 0 .783-.197 1.126-.438.901-.63 4.227-.74 4.454-.146.257.668 1.463 1.625 2.06 1.634.297.005 1.126.604 1.843 1.331 1.02 1.036 1.485 1.323 2.142 1.323.632 0 .875.138.986.562.133.509.264.544 1.406.373 1.14-.171 1.225-.149.904.238-.493.595-.263.714.795.41.499-.143 1.259-.26 1.69-.26.608 0 .711.07.464.318-.676.676-.347 1.005 1.005 1.005 1.438 0 1.65.247.735.855-.579.385-.567.4.707.964 1.23.544 1.366.553 2.672.173 1.51-.439 1.96-1.065 2.054-2.864.03-.573.146-.854.293-.709.147.146.105.97-.107 2.09l-.349 1.85.966 1.07c.532.589.967 1.19.967 1.334 0 .145.158.264.352.264.446 0 .883-.887 1.108-2.249.207-1.25.54-1.72 1.218-1.72.731 0 .606.58-.297 1.373-.904.793-1.068 2.02-.365 2.722.394.395.467.393.926-.022.47-.426.498-.423.498.06 0 .987.88 1.747 3.513 3.035 1.462.714 2.835 1.299 3.052 1.299.36 0 2.697.979 3.816 1.598.637.353.683.332.779-.341.079-.557.145-.528 1.01.432.51.566 1.31 1.191 1.778 1.39 1.137.482 3.195.454 4.175-.056l.794-.413-.738.77c-.632.661-.682.817-.351 1.092.213.177 1.2.455 2.193.62.994.164 1.947.438 2.12.609.172.171.808.39 1.414.487.773.124 1.06.283.965.534-.097.252.189.406.966.52 2.288.336 2.964.521 3.229.883.23.316.459.293 1.5-.153 1.028-.441 1.251-.465 1.373-.148.08.208.44.378.8.378.359 0 .727.12.817.265.09.145.508.264.928.264.431 0 .87.188 1.006.43.196.351.403.382 1.137.17.494-.142 1.671-.226 2.617-.186.946.04 2.226.077 2.845.082.834.007 1.124.115 1.124.418 0 .976 1.742-.073 1.989-1.198.093-.426.284-.774.423-.774.153 0 .145.201-.021.512-.624 1.165-.403 1.334 1.644 1.251 1.055-.043 2.127.024 2.381.147.278.135.684.107 1.014-.07.43-.23.648-.207.993.104.344.312.557.335.97.103.836-.47 2.835-.693 3.347-.373.347.216.76.15 1.73-.28.7-.311 1.61-.638 2.024-.726.622-.133.696-.227.43-.547-.278-.335.133-.386 3.104-.386 2.34 0 3.866-.131 4.821-.415 1.625-.482 2.157-.373 1.955.4-.158.604.193.7.995.27.621-.332.663-.067.089.568-.469.517-.3 1.03.338 1.03.338 0 .353.072.085.396-.27.325-.253.397.091.397.266 0 .365.147.269.397-.201.523.599.522 1.856-.004 1.187-.496 1.268-.145.093.4-.626.291-.854.572-.854 1.053 0 .522.145.667.71.71.39.03.85-.116 1.024-.325.389-.468 1.395-.508 1.243-.048-.06.181-.37.461-.688.622-.932.469-.954.595-.222 1.273.851.79 1.633.914 2.77.443 1.144-.474 1.37-.204.34.405-.876.517-1.05.895-.415.895.66 0 .45.46-.555 1.228-.813.62-.892.769-.545 1.023.344.251.238.406-.689 1.007-1.128.732-1.501.814-2.492.548-.355-.095-.522-.297-.435-.525.17-.442-.381-.482-1.382-.102-.545.208-.674.398-.562.829.141.538.084.553-1.517.389-1.173-.12-1.93-.06-2.564.204-.495.206-1.615.459-2.488.562-1.307.155-1.529.127-1.257-.16.182-.19.331-.442.331-.558 0-.41-1.894-.206-3.072.33-.69.315-1.414.472-1.724.373-.33-.104-.721 0-1.024.275-.27.244-.946.56-1.503.7a208.4 208.4 0 0 0-1.937.502c-.51.136-1.76.175-2.78.087-1.4-.12-2.106-.054-2.886.273-.615.256-1.365.37-1.851.28-.45-.083-1.548.02-2.44.23-.893.21-1.933.321-2.311.249-.48-.092-1.08.12-1.973.692-1.398.897-2.164 1.048-2.164.427 0-.49-.429-.5-1.752-.04a16.98 16.98 0 0 1-1.914.527c-.721.14-.859.098-.735-.223.24-.629-.612-.477-1.748.31-.586.406-1.377.705-1.866.704-.691 0-1.126.29-2.35 1.572-.825.864-1.63 1.492-1.786 1.396-.47-.29-.328-.664.561-1.476.465-.424.773-.843.685-.93-.087-.088-.994.206-2.013.654-1.02.447-2 .813-2.176.813-.614 0-2.015 1.05-2.333 1.75-.308.675-.384.697-1.92.558-1.402-.127-1.718-.064-2.563.51-.53.36-1.055.795-1.165.969-.426.67-.201-.409.241-1.158.247-.418.376-.833.287-.922-.289-.29-1.25.406-1.662 1.204-.437.845-1.132 1.323-1.923 1.323-.276 0-.828.348-1.227.774-1.212 1.297-1.933 1.977-2.717 2.565-.705.53-1.409 2.467-1.409 3.878 0 .528-.292.587-.73.15-.488-.489-1.122.23-1.122 1.272 0 .6-.149.96-.443 1.072-.243.094-.66.388-.926.653-.266.266-.647.484-.848.484-.2 0-.512.178-.693.397-.182.218-.553.396-.827.396-.406 0-.496.2-.496 1.104 0 .675.177 1.3.457 1.61.435.48.432.52-.066.796-.288.16-.88.652-1.317 1.093-.437.441-1 .77-1.253.73-.428-.068-2.584 1.907-2.584 2.367 0 .112.378.242.84.287.461.046.892.245.957.442.09.274-.075.316-.7.179-.67-.147-.926-.059-1.42.492-1.463 1.63-1.92 2.289-1.849 2.664.043.22-.072.67-.254 1-.183.329-.3.705-.263.836.038.13-.015.428-.12.661-.103.233-.198.892-.21 1.465-.022.952-.1 1.062-.907 1.27-.698.182-.84.323-.683.679.11.247.22.771.245 1.164.025.393.189.889.365 1.101.422.509-.054.813-.717.458-.538-.288-1.105.067-1.105.69 0 .189-.122.344-.27.344-.15 0-.385.297-.523.661-.306.803-.56.834-1.004.122-.45-.721-.938-.38-.716.5.147.587.014.833-.833 1.544-1.331 1.117-.92 1.445.72.571.716-.382 1.303-.583 1.303-.447 0 .137-.384.451-.853.699-1.098.58-2.586 2.145-2.586 2.719 0 .245.177.592.394.772.216.18.316.452.222.605-.095.153.152.538.55.854l.721.576-.656.43c-.438.287-.613.598-.526.931.102.39-.049.537-.684.664-1.068.213-1.076.967-.02 1.857l.797.67-1.125.08c-.833.061-1.147.206-1.214.558-.142.747.44 1.286 1.04.965.394-.212.5-.179.5.155 0 .233-.127.661-.282.952-.233.436-.354.47-.682.198-.623-.517-.89.193-.712 1.896.124 1.184.044 1.685-.408 2.571-.33.648-.561 1.6-.561 2.314 0 .786-.233 1.65-.661 2.456-.8 1.501-.816 1.782-.133 2.366.676.578.667.754-.132 2.56-.993 2.244-.82 4.496.276 3.587.32-.266.385-.206.385.353 0 .532-.165.71-.793.847-.883.194-.896.214-.549.864.135.252.31.667.389.922.079.255.385.463.68.463.673 0 .698.425.045.774-1.077.577-1.283 2.068-.626 4.548.209.788.145 1.208-.362 2.381-.338.784-.62 1.76-.625 2.17-.006.41-.134.976-.285 1.258-.2.375-.164.84.136 1.722.225.665.34 1.322.255 1.46-.292.472.173 1.874.57 1.721.29-.11.371.161.37 1.239l-.001 1.38-.65-.793c-.798-.974-.807-.876-.131 1.524.296 1.053.613 2.913.703 4.134.138 1.86.244 2.239.656 2.347.42.11.47.31.344 1.353-.192 1.586.171 3.606.649 3.606.444 0 .77.777.794 1.9.01.462.183 1.005.384 1.205.2.2.447.775.547 1.276.359 1.782 1.009 3.562 1.444 3.953.582.523 1.709 3.1 2.394 5.477.546 1.896 1.07 2.72 1.07 1.683 0-.765.167-.695 1.344.568 1.049 1.124 1.314 1.923.707 2.132-.58.2 1.025 3.033 3.432 6.06 1.24 1.558 2.42 2.897 2.62 2.974.2.077.364.377.364.668 0 .583 1.68 1.87 2.443 1.87.257 0 .468.132.468.293 0 .184-.257.229-.688.12-.378-.094-.636-.077-.574.038.062.116.278.597.48 1.07.409.953 1.111 1.123 1.857.448.409-.37.554-.371 1.41-.014 1.172.49 1.236.955.132.955-.64 0-.786.092-.661.419.088.23.16.522.16.65 0 .126.408.307.906.4.497.093 1.194.486 1.549.872.354.386.844.82 1.09.966.28.167.466.657.501 1.323.053 1.012.1 1.065 1.052 1.191 1.318.175 2.921 1.443 2.701 2.137-.089.28-.047.509.092.509.14 0 .331.306.425.68.125.497.542.847 1.55 1.297.759.34 1.79 1.045 2.291 1.569 1.014 1.059 1.007 1.11-.074.524zm-27.296-38.466c-.09-.145-.038-.264.116-.264.155 0 .28.119.28.264 0 .146-.052.265-.116.265s-.19-.12-.28-.265zm-5.953-16.668c-.17-.316-.248-.634-.175-.707.072-.073.27.126.44.442.168.316.247.634.174.707-.072.073-.27-.126-.44-.442zm-.509-5.711c.013-.308.076-.37.16-.16.077.191.067.42-.02.507-.089.088-.151-.068-.14-.347zm.245-1.202c0-.383.18-.846.402-1.03.654-.543.725-.122.142.835-.537.88-.543.882-.544.195zM47.82 205.46c-.087-.228-.09-.69-.005-1.027.09-.36-.02-.86-.271-1.218-.33-.472-.352-.653-.095-.811.182-.112.525-.635.763-1.161l.432-.957.425 1.346c.424 1.342.423 1.35-.233 1.958-.5.464-.619.772-.49 1.282.185.74-.272 1.25-.526.588zm-1.785-1.604c.084-.218.2-.397.256-.397.058 0 .104.179.104.397 0 .218-.115.397-.256.397-.14 0-.188-.179-.104-.397zm44.81-10.202c0-.154.12-.206.265-.117.145.09.265.216.265.28 0 .065-.12.117-.265.117-.146 0-.265-.126-.265-.28zm2.888-29.288-.685-.416.627-1.122c.649-1.161 1.404-1.969 1.404-1.502 0 .145-.167.403-.371.572-.614.51-.754 1.6-.297 2.299.473.722.302.764-.678.169zm73.51-51.305c.183-.073.48-.073.662 0 .182.074.033.134-.33.134-.364 0-.513-.06-.331-.134zm9.526-.794c.182-.073.48-.073.661 0 .182.074.033.134-.33.134-.364 0-.513-.06-.331-.134zm3.109-.618c.727-.313 1.145-.313.661 0-.218.141-.575.25-.794.242-.261-.01-.216-.092.133-.242zm-39.022-13.03c.007-.555.448-1.071.754-.882.206.127.196.327-.034.695-.366.586-.726.68-.72.186zm-3.18-.168c0-.146.12-.338.265-.428.146-.09.265-.045.265.1 0 .146-.12.34-.265.429-.145.09-.264.045-.264-.101zm13.494-5.323c.519-.335.869-.335.662 0-.09.146-.365.263-.611.26-.386-.003-.393-.039-.05-.26zm2.91-.675c-.509-.191-1.52-.3-2.248-.24-4.747.381-5.193.389-5.004.083.135-.218.004-.26-.442-.144-.348.091-1.078.033-1.62-.13-.752-.225-1.08-.219-1.375.026-.468.389-4.754-.437-7.604-1.465-1.83-.66-4.022-.66-3.87 0 .069.303-.109.428-.608.428-.156 0-.212-.222-.125-.496.115-.362 0-.538-.425-.649-.784-.205-1.018-.016-1.028.83-.007.598-.125.479-.728-.741-.585-1.182-.87-1.483-1.53-1.61-.445-.086-1.397-.464-2.116-.84-.718-.375-1.776-.748-2.35-.828-.573-.08-1.526-.492-2.116-.913-.685-.49-1.911-.964-3.388-1.31-2.336-.547-3.664-1.179-4.557-2.165-.268-.296-.71-.538-.984-.538-.533 0-1.474-.53-2.682-1.51-.412-.334-.94-.607-1.174-.607-.234 0-.976-.464-1.649-1.031-2.023-1.706-2.912-2.142-4.371-2.143-.844 0-1.662-.194-2.249-.532a33.294 33.294 0 0 0-1.583-.854c-.364-.178-.74-.433-.834-.566-.094-.133-.352-.173-.573-.088a.421.421 0 0 1-.554-.243c-.084-.218-.259-.331-.389-.251-.13.08-.3-.099-.378-.398-.114-.436-.318-.528-1.023-.46-.843.08-.876.125-.793 1.076.094 1.072-.289 1.321-.739.48-.379-.708-.366-.75.454-1.51l.727-.674-.727-.58c-.4-.319-.728-.748-.728-.954 0-.205-1.089-1.427-2.42-2.715-1.331-1.288-2.73-2.726-3.109-3.196-1.184-1.47-3.274-3.248-3.397-2.89a.536.536 0 0 1-.478.331c-.463 0-2.51-1.979-3.393-3.281-.371-.547-1.179-1.393-1.795-1.88-.616-.488-1.374-1.383-1.683-1.989-.309-.606-1.472-2.073-2.584-3.26-1.112-1.186-2.596-2.931-3.297-3.877-.878-1.185-1.452-1.72-1.842-1.72-.363 0-.863-.408-1.392-1.137-.885-1.22-1.54-1.633-1.833-1.158-.121.196-.601-.001-1.422-.585-.738-.525-1.833-1-2.71-1.176-1.705-.342-2.888-1.165-4.393-3.056-.946-1.187-1.057-1.469-.92-2.327.183-1.142-.132-2.104-1.042-3.186-.773-.918-.858-1.378-.191-1.025.779.411 2.148.877 2.37.805.115-.038.174-.28.13-.54-.045-.264.159-.6.463-.763.746-.4.681-.89-.26-1.961-.527-.6-.7-.977-.506-1.098.163-.1.23-.434.15-.741-.094-.363.06-.778.44-1.183l.586-.625-.593-.481-.593-.482.726-.769c.398-.423.933-.848 1.188-.943.255-.096.463-.356.463-.58 0-.222.134-.405.297-.405.218 0 .219-.094.003-.354-.162-.194-.95-.5-1.752-.68-1.545-.346-2.076-.954-.599-.686.716.13.98.029 1.57-.606.891-.958 2.484-1.549 4.786-1.774 1.34-.132 1.983-.338 2.555-.819.651-.548.871-.601 1.495-.364 1.083.412 1.53.142 1.34-.81-.169-.846-.122-.855 1.758-.343.4.109.445.015.292-.595l-.181-.724 1.535.159c.845.087 1.629.31 1.743.493.113.184.78.537 1.48.783.7.247 1.749.634 2.331.86 1.049.406 2.514.572 2.514.284 0-.083-.123-.379-.272-.658-.248-.462-.212-.485.398-.253.37.14.998.417 1.397.614.399.198 1.44.51 2.313.695.873.185 1.959.561 2.413.837.453.276 1.287.503 1.852.505.616.002 1.503.277 2.217.688 5.216 2.997 8.483 4.585 9.46 4.597.181.002.33-.175.33-.393 0-.602.415-.481 1.438.417.51.448 1.05.739 1.2.646.35-.217.35-1.086-.001-1.742-.402-.75.08-.624.807.21.355.41.608 1.013.581 1.39-.026.366.067.845.205 1.063.21.33.344.34.794.061.478-.296.57-.263.779.288.333.876 1.857 2.097 2.43 1.947.395-.103.45 0 .326.618-.12.596-.013.83.541 1.193.38.249.69.619.69.822 0 1.48 3.577 5.515 4.333 4.888.501-.416.694-.089.694 1.178 0 .996.155 1.275 1.427 2.568 1.378 1.4 3.335 4.787 3.335 5.772 0 .609 1.526 3.832 2 4.226.21.174.382.487.382.695 0 .208.258.878.574 1.489.316.61.656 1.289.755 1.507.099.218.436.435.748.482.55.081.684.324.583 1.062-.026.194.416 1.147.983 2.117.566.97 1.19 2.18 1.385 2.69.362.943 2.575 3.332 2.84 3.066.081-.08.978 1.292 1.993 3.05 1.358 2.352 2.043 3.28 2.59 3.51.409.171 1.01.65 1.334 1.063.325.413.972.91 1.438 1.105.465.195 1.958 1.318 3.318 2.496 1.94 1.682 2.599 2.111 3.06 1.995.49-.123.603-.025.672.58.058.504.333.85.895 1.125.446.219 1.537.962 2.425 1.653.888.69 1.865 1.293 2.173 1.34.307.047.73.331.941.632.348.496.784.665 2.381.921.38.061.553-.083.614-.51.125-.882.577-.722.577.204 0 .596.168.876.661 1.1.364.166.662.454.662.64 0 1.052 4.112 3.664 6.773 4.302.568.136 1.761.441 2.652.678 1.345.358 2.019.386 3.969.162 2.993-.343 2.922-.346 2.922.13 0 .221-.308.466-.684.544-.376.077-1.422.313-2.325.523-.903.21-2.392.382-3.31.382-.916 0-2.082.125-2.59.278-.509.153-2.056.391-3.438.529-1.809.18-2.715.398-3.23.78-.808.596-1.506.625-2.856.119zm-18.9-1.364c-.144-.377-.113-.408.148-.148.181.18.262.393.18.474-.08.082-.229-.065-.328-.326zm-8.087-.225c0-.227.121-.338.27-.247.147.092.2.277.116.413-.227.367-.386.298-.386-.166zm-17.696-5.673c-.01-.852.055-1.072.23-.772.145.248.151.736.015 1.191-.213.712-.231.68-.245-.42zm4.732-.794c0-.146.119-.265.264-.265a.265.265 0 0 1 0 .53.265.265 0 0 1-.264-.265zm-14.002-4.388c.012-.308.075-.37.16-.16.076.191.067.42-.021.507-.088.088-.15-.068-.14-.347zm29.906-18.131c-.163-.468-.25-.897-.193-.953.056-.057.236.28.399.747.163.468.25.897.193.953-.056.057-.236-.28-.399-.747zm-21.159-34.8c-.317-.709-.31-.73.107-.32.246.24.399.581.34.757-.059.177-.26-.02-.447-.437z"/>
  </g>
</svg>
