<?xml version="1.0" encoding="UTF-8" standalone="no"?>
<svg
   xmlns:dc="http://purl.org/dc/elements/1.1/"
   xmlns:cc="http://creativecommons.org/ns#"
   xmlns:rdf="http://www.w3.org/1999/02/22-rdf-syntax-ns#"
   xmlns:svg="http://www.w3.org/2000/svg"
   xmlns="http://www.w3.org/2000/svg"
   xmlns:sodipodi="http://sodipodi.sourceforge.net/DTD/sodipodi-0.dtd"
   xmlns:inkscape="http://www.inkscape.org/namespaces/inkscape"
   viewBox="0 0 265.71445 265.71445"
   version="1.1"
   id="svg6506"
   inkscape:version="1.0.1 (0767f8302a, 2020-10-17)"
   sodipodi:docname="The Golgari Swarm.svg">
  <defs
     id="defs6500">
    <filter
       style="color-interpolation-filters:sRGB;"
       inkscape:label="Drop Shadow"
       id="filter842">
      <feFlood
         flood-opacity="0.803922"
         flood-color="rgb(72,49,7)"
         result="flood"
         id="feFlood832" />
      <feComposite
         in="flood"
         in2="SourceGraphic"
         operator="in"
         result="composite1"
         id="feComposite834" />
      <feGaussianBlur
         in="composite1"
         stdDeviation="2"
         result="blur"
         id="feGaussianBlur836" />
      <feOffset
         dx="0"
         dy="2.3"
         result="offset"
         id="feOffset838" />
      <feComposite
         in="SourceGraphic"
         in2="offset"
         operator="over"
         result="composite2"
         id="feComposite840" />
    </filter>
  </defs>
  <sodipodi:namedview
     id="base"
     pagecolor="#ffffff"
     bordercolor="#666666"
     borderopacity="1.0"
     inkscape:pageopacity="0.0"
     inkscape:pageshadow="2"
     inkscape:zoom="1.979899"
     inkscape:cx="79.457789"
     inkscape:cy="144.61212"
     inkscape:document-units="mm"
     inkscape:current-layer="layer1"
     inkscape:document-rotation="0"
     showgrid="false"
     fit-margin-top="0"
     fit-margin-left="0"
     fit-margin-right="0"
     fit-margin-bottom="0"
     inkscape:window-width="1647"
     inkscape:window-height="1212"
     inkscape:window-x="896"
     inkscape:window-y="95"
     inkscape:window-maximized="0" />
  <metadata
     id="metadata6503">
    <rdf:RDF>
      <cc:Work
         rdf:about="">
        <dc:format>image/svg+xml</dc:format>
        <dc:type
           rdf:resource="http://purl.org/dc/dcmitype/StillImage" />
        <dc:title />
      </cc:Work>
    </rdf:RDF>
  </metadata>
  <g
     inkscape:label="Layer 1"
     inkscape:groupmode="layer"
     id="layer1"
     transform="translate(24.550957,9.6515124)">
    <circle
       style="fill:#317f18;fill-opacity:1;fill-rule:evenodd;stroke:#1d0f10;stroke-width:7.265;stroke-miterlimit:4;stroke-dasharray:none;stroke-opacity:1"
       id="path7085"
       cx="108.30626"
       cy="123.2057"
       r="129.22472" />
    <path
       style="fill:#000000;stroke-width:0.264583;filter:url(#filter842)"
       d="m 77.625003,226.05223 c 4.52413,-6.05366 5.04169,-16.80535 1.41543,-29.40398 -1.71475,-5.95747 -3.52565,-9.55946 -7.471803,-14.86182 -2.25895,-3.03532 -6.33661,-7.35276 -8.57975,-9.08428 -2.94635,-2.27436 -5.51223,-3.21989 -6.38079,-2.35133 -0.41356,0.41356 -0.46125,0.39373 -0.73005,-0.30358 -1.19738,-3.10606 -3.33375,-17.31492 -3.96355,-26.3612 -0.66742,-9.58676 0.72273,-19.75959 3.72167,-27.2345 1.91066,-4.76233 5.11722,-9.43951 8.50791,-12.40989 3.12636,-2.73881 7.747843,-5.878121 11.606483,-7.884161 5.98303,-3.11045 8.67886,-5.31051 11.37859,-9.28605 1.91559,-2.82084 4.82091,-9.17077 5.39307,-11.78721 0.10119,-0.46276 0.52602,-1.07554 0.97662,-1.40868 0.43863,-0.3243 1.01179,-0.94198 1.27369,-1.37263 l 0.47617,-0.783 0.16947,1.23642 c 0.26054,1.90091 0.20119,7.50609 -0.10978,10.36726 -0.4238,3.89933 -1.41034,7.94551 -3.28031,13.45385 -1.96877,5.799381 -2.34858,7.669651 -2.22161,10.939721 l 0.0926,2.38533 -0.94416,-1.3e-4 c -3.67573,-5.3e-4 -8.69135,3.67675 -11.79208,8.64554 -2.80255,4.49096 -4.88094,11.9116 -5.15524,18.40613 l -0.0642,1.51952 1.27187,0.84245 c 1.56769,1.03839 4.33833,4.33855 7.2397,8.62335 l 2.1969,3.24442 -1.13891,-0.59858 c -1.71744,-0.90265 -4.24463,-0.8451 -5.71845,0.13023 -1.49988,0.99257 -2.45515,2.90145 -2.4844,4.9645 -0.0498,3.51061 3.40936,8.22228 7.46257,10.16473 3.11459,1.49263 4.40724,1.63772 10.18471,1.14322 0.73418,-0.0628 0.86728,0.0711 1.77357,1.78415 3.04567,5.75702 4.88611,15.78747 4.22176,23.00866 -0.8393,9.12263 -3.97432,18.12467 -8.58825,24.66067 -2.69177,3.81311 -6.61114,7.5116 -10.63625,10.03683 l -0.79375,0.49798 z m 61.339847,-0.72431 c -2.8351,-1.92873 -6.77475,-5.86433 -8.94206,-8.93289 -5.89301,-8.34351 -9.40063,-21.17163 -8.5351,-31.21466 0.53673,-6.22773 2.13577,-12.45258 4.21499,-16.40834 0.90103,-1.71423 1.03257,-1.84703 1.76724,-1.78415 5.77747,0.4945 7.07012,0.34941 10.1847,-1.14322 4.06261,-1.94695 7.51236,-6.65341 7.46234,-10.18079 -0.0292,-2.06019 -0.89754,-3.82058 -2.40884,-4.88351 -0.98054,-0.68963 -1.35986,-0.79375 -2.89172,-0.79375 -1.31931,0 -2.04985,0.15068 -2.90206,0.59859 l -1.1389,0.59858 2.1969,-3.24442 c 2.90137,-4.2848 5.67201,-7.58496 7.2397,-8.62335 l 1.27187,-0.84245 -0.0642,-1.51952 c -0.27429,-6.49453 -2.35269,-13.91517 -5.15523,-18.40613 -3.10074,-4.96879 -8.11635,-8.64606 -11.79208,-8.64554 l -0.94417,1.3e-4 0.0926,-2.38533 c 0.12697,-3.27007 -0.25283,-5.14034 -2.22161,-10.939721 -1.86996,-5.50834 -2.8565,-9.55452 -3.28031,-13.45385 -0.48571,-4.46898 -0.22789,-12.80284 0.34434,-11.13028 0.11064,0.32338 0.64935,0.97822 1.19714,1.45521 0.82722,0.7203 1.16253,1.35339 1.97892,3.73633 0.54062,1.578 1.58964,4.07831 2.33117,5.55625 3.40247,6.78148 6.43669,9.72986 13.91091,13.51733 1.92789,0.97694 4.24961,2.32355 5.15937,2.99248 0.90977,0.66892 2.54709,1.869601 3.63849,2.668191 6.97165,5.10117 11.54818,12.82921 13.62945,23.01499 1.72231,8.42901 1.78766,16.06504 0.2427,28.3598 -0.93043,7.40428 -2.60119,16.59849 -3.10843,17.10574 -0.0456,0.0456 -0.44133,-0.0523 -0.8793,-0.2176 -1.84609,-0.69682 -4.94786,1.16661 -9.51672,5.7173 -4.59564,4.57737 -8.63632,10.22128 -10.59885,14.80419 -2.09921,4.90206 -3.81996,12.06096 -4.32197,17.98086 -0.60198,7.09864 0.74683,13.5081 3.64142,17.30379 0.36067,0.47294 0.60536,0.85989 0.54377,0.85989 -0.0616,0 -1.11752,-0.68406 -2.34651,-1.52015 z M 43.6666,220.49807 c 0.10724,-1.23692 0.18601,-4.45161 0.17505,-7.14375 -0.0225,-5.52741 -0.55882,-9.06054 -1.99861,-13.16642 -2.40184,-6.84939 -5.45063,-11.29625 -14.9178,-21.75858 -8.90234,-9.83813 -12.78883,-15.59953 -20.3894204,-30.22568 -3.97429,-7.64791 -5.44886,-10.18544 -6.84155997,-11.7734 -1.00758003,-1.14886 -1.08006003,-1.18227 -2.30860003,-1.06422 -0.76833,0.0738 -1.6907,0.40136 -2.33965,0.83082 -1.33169,0.88127 -3.2231,3.41354 -3.84833,5.15223 -0.31341,0.87157 -0.59029,1.26613 -0.82523,1.17598 -0.26761,-0.10269 -0.35357,-0.90068 -0.35357,-3.28237 0,-1.73068 0.0966,-3.14669 0.21456,-3.14669 0.11801,0 0.36675,-0.59379 0.55275,-1.31954 0.46254,-1.80474 2.05007,-5.01727 4.08571,-8.26793 5.05183003,-8.06705 6.13988,-10.14244 8.84478,-16.87087 C 9.3630196,95.592389 16.10218,74.288219 17.54516,65.922299 c 0.28396,-1.64627 0.26532,-1.84606 -0.25002,-2.67989 -1.45336,-2.3516 -4.36236,-4.23339 -6.56343,-4.24579 -1.3398604,-0.008 -1.3753904,-0.0272 -1.2254704,-0.67869 0.5125604,-2.2272 2.0919804,-3.6563 6.4418004,-5.82871 3.67052,-1.83315 6.27231,-3.68903 10.05417,-7.17173 11.7859,-10.8536 14.78387,-13.19957 23.01875,-18.01265 7.76779,-4.54007 12.6274,-6.89503 17.70283,-8.57876 1.60017,-0.53084 3.08859,-0.8964 3.30761,-0.81235 1.00192,0.38447 3.331233,5.44646 3.331233,7.23935 0,1.06081 -0.17673,1.75084 -2.189613,8.54915 -0.66784,2.25558 -1.2841,4.42847 -1.36945,4.82865 -0.13669,0.64088 -0.2766,0.7276 -1.17383,0.7276 -1.46234,0 -5.1677,0.68475 -7.17336,1.32564 -2.6454,0.84531 -7.81611,3.5156 -10.36658,5.35358 -8.18727,5.9001 -16.55793,15.71714 -22.7038,26.62681 -1.23649,2.19492 -1.42383,2.73058 -1.6193,4.63021 -0.12158,1.18148 -0.52512,3.27923 -0.89677,4.66168 -4.65552,17.31765 -5.41292,22.045461 -5.42546,33.866671 l -0.007,6.74687 -1.19737,2.76717 c -0.65855,1.52194 -1.30364,3.24018 -1.43354,3.81831 -0.55524,2.47118 0.51929,7.12481 3.20002,13.85883 0.7108,1.78552 1.83762,4.76208 2.50405,6.61459 1.54608,4.29768 4.46605,10.35017 7.11374,14.74527 1.13964,1.89177 4.70934,7.36865 7.93267,12.17084 7.62406,11.35847 9.47955,14.82281 10.72782,20.02964 0.98117,4.09274 0.57456,10.38146 -1.07422,16.61396 -0.87974,3.32548 -2.65772,7.2763 -3.92985,8.73244 l -0.80901,0.92604 0.19498,-2.24896 z m 130.2323,1.0168 c -3.88909,-5.33211 -6.30309,-17.47924 -4.87081,-24.50972 0.54192,-2.66003 2.11735,-6.57694 3.99552,-9.93385 0.82742,-1.47887 4.02594,-6.43932 7.10781,-11.02323 3.08187,-4.5839 6.53499,-9.88219 7.67359,-11.77396 2.64854,-4.40052 5.56767,-10.45286 7.11185,-14.74527 0.66644,-1.85251 1.79326,-4.82907 2.50405,-6.61459 1.8849,-4.73489 2.88119,-8.03845 3.20143,-10.61554 0.33672,-2.70968 0.30367,-2.87677 -1.35005,-6.82681 l -1.29091,-3.08346 -0.003,-6.83842 c -0.004,-9.99258 -0.69494,-15.43494 -3.19818,-25.181091 -0.73531,-2.86288 -1.74471,-6.79367 -2.2431,-8.7351 -0.4983,-1.94142 -0.90607,-4.13382 -0.90607,-4.87199 0,-1.13682 -0.22563,-1.74607 -1.47491,-3.98268 -6.12147,-10.95999 -14.56857,-20.89615 -22.81858,-26.84146 -2.54013,-1.83053 -7.72321,-4.5099 -10.33039,-5.34024 -2.16633,-0.68994 -5.59421,-1.33898 -7.07184,-1.33898 -1.04536,0 -1.17208,-0.0698 -1.32022,-0.7276 -0.43813,-1.94541 -0.78431,-3.16473 -2.00945,-7.07761 -1.75235,-5.59672 -1.83744,-6.57969 -0.79491,-9.18328 0.92749,-2.3163 2.00626,-4.1341 2.58521,-4.35626 0.9391,-0.36037 8.71791,2.6631 13.86669,5.3897 12.06004,6.38656 16.97256,9.90914 28.30328,20.29519 5.60818,5.14062 8.0748,6.98203 11.91338,8.89375 4.3432,2.16302 5.92895,3.59708 6.44181,5.82556 0.14992,0.65145 0.11438,0.67114 -1.22548,0.67869 -2.19909,0.0124 -5.11001,1.89411 -6.56039,4.24087 -0.66257,1.07205 -0.63343,1.33484 0.82178,7.41112 2.47249,10.32401 7.45816,25.57938 12.60961,38.583471 2.52103,6.36398 3.64633,8.59105 7.51769,14.87819 5.33718,8.66765 6.05957,10.49226 6.05957,15.30526 0,1.64958 -0.0934,3.05692 -0.20743,3.12742 -0.11409,0.0705 -0.47087,-0.54754 -0.79286,-1.37344 -1.2384,-3.17649 -3.75392,-5.57788 -6.0768,-5.80108 -1.25892,-0.12096 -1.32127,-0.0926 -2.33371,1.06181 -1.37881,1.57213 -2.82398,4.06049 -6.85945,11.81091 -7.62419,14.64284 -11.36936,20.2086 -20.13539,29.92359 -9.79664,10.85715 -12.7362,15.12829 -15.1505,22.01339 -1.80201,5.13899 -2.55297,12.62135 -1.91681,19.09871 0.16985,1.72941 0.2542,3.199 0.18745,3.26576 -0.0668,0.0667 -0.49851,-0.39573 -0.95948,-1.02773 z m -72.04617,-83.81514 c 0.45511,-3.84265 -1.52936,-8.06753 -6.763847,-14.40003 -2.334,-2.82359 -2.37942,-2.90544 -2.5688,-4.6302 -0.52169,-4.75102 0.94715,-13.02699 4.95837,-27.937371 2.47411,-9.1967 2.707937,-10.39968 2.522367,-12.97677 -0.278377,-3.86605 -2.478207,-10.71563 -3.441447,-10.71563 -0.58258,0 -3.38103,2.14983 -5.77789,4.43869 -4.71339,4.50102 -8.38423,10.10092 -10.01158,15.27277 -0.50309,1.59885 -0.52391,1.59803 -1.30602,-0.0514 -0.40062,-0.84487 -2.13739,-4.03645 -3.85949,-7.09239 -5.474863,-9.71538 -5.945933,-10.57718 -5.945933,-10.87765 0,-0.16191 0.36878,-0.75723 0.81952,-1.32295 1.605843,-2.01547 1.845983,-2.92242 3.284753,-12.40565 1.10389,-7.27596 1.96754,-11.67879 4.35959,-22.225 0.9902,-4.36563 1.88654,-8.47328 1.99186,-9.12813 0.15821,-0.9836 0.52914,-1.56337 2.13328,-3.33431 l 1.94178,-2.14368 4.8393,-0.18013 c 6.19852,-0.23073 10.15675,-0.62026 11.028887,-1.08537 0.37926,-0.20225 1.21063,-0.85131 1.84749,-1.44233 1.32549,-1.23011 1.76312,-1.33079 1.98265,-0.45613 0.24383,0.9715 1.07045,1.86415 3.23451,3.49287 2.30522,1.73496 2.07064,1.75834 4.86971,-0.48541 1.08074,-0.86633 1.91643,-1.79257 2.24896,-2.49267 0.29104,-0.61274 0.66295,-1.11839 0.82646,-1.12367 0.16351,-0.005 0.81835,0.47398 1.45521,1.06501 0.63685,0.59102 1.46822,1.24008 1.84749,1.44233 0.87214,0.46511 4.83037,0.85464 11.02889,1.08537 l 4.8393,0.18013 1.9335,2.14368 c 1.78282,1.97662 1.95893,2.27772 2.25963,3.86348 0.17936,0.94589 1.081,5.05354 2.00364,9.12813 2.29778,10.14753 3.0839,14.192 4.34555,22.35729 1.4492,9.37914 1.446,9.36819 3.63255,12.38706 0.55338,0.76401 0.56794,0.73205 -3.8873,8.53228 -1.78159,3.11921 -3.93958,7.01363 -4.79553,8.65427 -1.07152,2.05383 -1.60027,2.83676 -1.69752,2.51354 -1.14378,-3.80135 -3.78732,-8.69665 -6.5402,-12.11111 -2.85499,-3.54112 -8.51602,-8.59896 -9.62445,-8.59896 -0.99023,0 -3.18692,6.93427 -3.4365,10.84792 -0.16458,2.5809 0.14863,4.13094 2.83362,14.02292 3.36378,12.392761 4.56485,18.759701 4.59593,24.363361 l 0.0214,3.85816 -1.13012,1.43351 c -0.62156,0.78843 -1.95557,2.44554 -2.96447,3.68247 -3.59342,4.40563 -5.11589,7.78329 -5.14652,11.41773 -0.0122,1.44568 -0.11683,2.23388 -0.28389,2.13841 -2.05513,-1.17437 -3.69943,-3.81468 -3.99341,-6.41239 -0.21435,-1.89403 0.44025,-5.37993 1.62475,-8.65217 1.01511,-2.80427 1.11487,-4.06024 0.49109,-6.18262 -1.1046,-3.75833 -3.48608,-6.86105 -5.26618,-6.86105 -1.8243,0 -4.31777,3.31508 -5.28416,7.0253 -0.59349,2.27857 -0.51434,3.07076 0.64453,6.45134 1.22343,3.56893 1.72023,6.39736 1.47226,8.38203 -0.23555,1.88527 -1.52169,4.39572 -2.7354,5.33929 -1.6338,1.27016 -1.63164,1.27045 -1.45817,-0.19421 z M 59.63232,97.319509 c -0.41578,-1.4976 -0.3595,-6.3357 0.10176,-8.74648 0.66186,-3.45923 2.32929,-8.1768 3.7725,-10.6733 l 0.6813,-1.17854 0.71718,2.89833 c 0.8545,3.45329 2.07016,6.68418 3.164,8.40898 0.91742,1.44663 0.93172,1.50082 0.39589,1.50082 -1.92337,0 -5.7307,3.44182 -7.44676,6.73186 l -1.0962,2.10165 z m 97.8013,-1.00015 c -1.68033,-3.26418 -4.8131,-6.24461 -7.02978,-6.68794 -0.46266,-0.0925 -0.84121,-0.20876 -0.84121,-0.25828 0,-0.0495 0.35804,-0.6546 0.79565,-1.34464 1.09065,-1.71978 2.30886,-4.95315 3.15613,-8.37697 0.80986,-3.27268 0.80313,-3.27235 2.24409,-0.11037 2.41014,5.2887 3.42896,9.81926 3.28418,14.60432 -0.1307,4.31977 -0.35111,4.61755 -1.60906,2.17388 z"
       id="path7083" />
  </g>
</svg>
