<?xml version="1.0"?>
<svg xmlns="http://www.w3.org/2000/svg" viewBox="0 0 884.609 884.609">
  <defs>
    <filter style="color-interpolation-filters:sRGB" id="a">
      <feFlood flood-opacity=".804" flood-color="#2A1D04" result="flood"/>
      <feComposite in="flood" in2="SourceGraphic" operator="in" result="composite1"/>
      <feGaussianBlur in="composite1" stdDeviation="2.6" result="blur"/>
      <feOffset dy="2.3" result="offset"/>
      <feComposite in="SourceGraphic" in2="offset" result="composite2"/>
    </filter>
  </defs>
  <g transform="translate(-60.064 46.44)">
    <circle style="fill:#fbff00;fill-opacity:1;fill-rule:evenodd;stroke:#000;stroke-width:24;stroke-miterlimit:4;stroke-dasharray:none;stroke-opacity:1" cx="502.368" cy="395.864" r="430.306"/>
    <path style="fill:#131107;stroke:none;stroke-width:1.06525;filter:url(#a)" d="M353.429 112.444c3.364 9.511-15.194 15.404-18.11 23.435h-2.13l-3.195-3.195-2.131 8.522c-.398 6.677-9.319 14.98-13.725 19.935-9.242 10.391-17.871 22.95-24.169 35.457-8.222 16.329-15.949 32.21-20.78 50.067-7.338 27.129-9.804 53.455-19.987 79.894-6.872 17.842-30.078 28.237-34.255 45.805h1.065l7.457-9.587c-4.846 13.978-16.21 22.697-24.838 34.088-7.457 9.848-14.077 25.679-18.837 37.284h2.13c-5.699 12.042-13.8 25.435-16.998 38.349-3.626 14.64-1.746 30.831-4.222 45.805-2.977 18.015-6.981 40.07 4.176 56.458h1.065l22.774-50.994 12.38-21.442h1.065v3.195l6.391-14.913 10.088-7.309 21.87-28.91c-2.511 0 11.338-11.01 14.913-13.493 10.852-7.536 24.442-13.137 36.219-19.351 32.974-17.404 71.643-13.696 106.524-28.23 11.212-4.672 20.452-10.63 30.893-16.867 5.154-3.077 7.497-7.278 13.848-7.278v6.391l3.196-1.065c-.559-9.327 7.628-22.318 14.913-27.697v4.261c15.902-1.195 19.95-9.016 28.618-20.143 5.327-6.841 9.738-10.355 10.796-19.27 7.913-.979 7.397-18.713 6.392-24.501l-3.196-2.131c-5.16 6.27-10.645 16.808-19.175 18.11-.877 5.372-3.692 6.049-8.522 4.26l-1.065 5.326c-6.989-4.455-3.172-12.196-2.13-19.174l-7.457-1.065-11.718-13.848-1.065 3.195-1.065-4.26c-3.773-3.23-5.449-6.63-10.653-4.262-.675-4.338-12.32-18.746-15.978-14.913-5.15-4.304-4.22-10.575-.033-15.657 9.294-11.276 23.888-19.051 27.729-34.41l6.392 3.196c6.436-12.407 18.634-17.454 29.826-24.33 26.304-16.155 50.54-27.884 82.025-30.093 10.466-.735 18.44-3.795 28.761.095 2.075-3.632 4.395-4.497 8.522-4.26l-7.457 2.13v1.065c4.606 1.094 9.312.295 13.849 1.396 7.291 1.768 13.66 6.015 21.305 6.93 5.37.642 9.763-1.496 14.913-1.663 7.008-.228 16.907 3.316 23.436 5.808 8.299 3.167 14.037 9.573 21.305 14.29 33.639 21.83 59.098 53.373 69.282 92.547 1.664 6.399 5.125 11.312 5.285 18.109h3.196v5.326l6.391-3.196 1.065 39.415h1.066l1.065-3.196h1.065l1.065 12.783h3.196l1.065 11.718h1.066v-3.196h1.065l-1.065 18.11h1.065l1.065-4.262h1.065l-3.195 30.892h1.065c15.921-24.37 17.044-55.046 17.044-83.089l2.13 2.13h1.066c.665-32.24 4.686-67.646-3.392-99.068-4.311-16.768-12.607-29.44-21.516-43.675-3.572-5.706 1.76-11.216-2.789-15.978v4.26c-8.859-3.01-13.613-11.386-19.574-17.997-5.028-5.576-10.403-8.345-14.514-15.025h-1.065v4.26c-21.831-16.633-41.401-37.753-68.176-46.87l2.13 3.196-17.043-7.457v-1.065l10.652 3.195c-3.428-5.353-18.18-11.572-24.5-10.652l3.195 4.261-34.088-6.392c-.295-2.745-1.206-4.07-4.266-4.733-9.55-2.071-18.169-3.526-27.691-6.748-2.23-.754-13.215-.92-7.457-4.497l-17.044-.704-27.696-5.256-22.37 5.507-63.915 16.004-9.588 5.725-46.87 14.906-40.48 20.276m230.094-56.458v1.065l5.326 1.065-5.327-2.13m29.827 7.457v1.065h7.457l-7.457-1.065m23.436 4.26 4.26 2.131-4.26-2.13m9.587 3.195 1.065 1.065-1.065-1.065m11.718 6.392 7.457 3.195v1.066l-8.522-3.196 1.065-1.065m25.566 12.783-1.065 1.065 1.065-1.065M337.45 126.292l-4.26 6.392 4.26-6.392m415.447 1.065 2.13 3.196-2.13-3.196m25.566 26.632v2.13h2.13v-2.13h-2.13m6.391 14.913 1.066 1.065-1.066-1.065m-353.307 74.213.356.71-.356-.71m-1.42 3.55c-1.919 4.762-1.445 8.01 3.196 10.653l-3.196-10.653m-3.196 10.653v2.13h-2.13l2.13-2.13m48.291 39.059.356.71-.356-.71m295.784 4.616 1.065 1.065-1.065-1.065m-321.705 79.893v-4.26h-2.13l-6.392 10.652-3.195-1.065-1.066 5.326c-8.885 1.445-27.86 19.268-30.892 27.696l-3.196-2.13-1.065 3.195-4.26-2.13-14.914 17.044 3.195-6.392c-14.98 11.058-25.292 32.529-35.972 47.484-4.373 6.122-11.594 9.994-15.16 16.431l-3.195-1.065c-6.602 20.076-20.797 38.78-30.464 57.523-8.07 15.647-10.318 33.158-13.924 50.067-2.322 10.89-6.744 19.565-6.744 30.892l-2.13-1.065c0 32.71-6.315 63.74 7.456 94.807h1.065c-1.837-23.29 9.354-45.064 18.99-66.045 10.1-21.992 20.742-45.153 36.75-63.9 13.528-15.842 34.658-31.668 52.154-42.922 11.347-7.3 24.389-10.687 35.915-17.379 11.396-6.617 23.825-11.337 35.153-17.767 13.29-7.542 30.778-20.468 46.87-18.885l37.285-20.24-1.066-5.326 2.13 3.196h1.066c.756-3.257.713-4.546-2.13-6.391l4.26-11.718-4.26 1.065v-5.326l3.195 1.065-2.13-5.326c6.547-1.838 10.436-7.592 14.999-12.331 14.571-15.134 21.836-37.975 22.284-59.04-2.27 1.592-4.262 3.35-6.396 5.122-1.58 1.312-12.191 8.348-10.447 1.227 2.004-8.18 9.295-15.615 12.582-23.394h5.327v-1.065h-4.261c-.323-7.043-3.932-24.397-9.295-29.188-8.667-7.743-24.115-5.544-34.38-3.835l1.065-3.195c-9.942-1.905-26.145 11.18-31.447 19.27-2.48 3.78-2.849 9.773-6.134 12.736-4.146 3.74-10.055 3.433-14.52 6.266-13.609 8.632-24.537 15.74-40.576 20.316m328.451-37.638.356.71-.356-.71M439.714 379.82l-2.13 4.261 2.13-4.26m355.438 22.724.71.356-.71-.356m-454.86 7.457.709.356-.71-.356m220.861 32.668-7.456 6.391v1.065l7.456-7.456m77.763 3.195v2.13h2.13v-2.13h-2.13m-3.195 4.261c-12.233 9.46-24.197-.382-37.284 5.608-9.454 4.327-21.08 12.013-27.691 20.07-3.232 3.936-4.186 10.04-7.774 13.332-3.939 3.614-9.947 3.478-14.602 5.73-2.09 8.947-17.158 13.447-22.706 21.306-11.86 16.793-29.595 32.803-38.782 51.132-5.475 10.924-8.723 32.525-20.536 38.349l-13.848 84.154-4.261-3.196h-2.13c-.733 4.46.348 6.322 4.26 8.522v1.066l-4.26 6.391h1.065l4.26-5.326 3.197 31.957c9.593 5.6 10.642 29.489 14.913 39.414 6.986-10.48 5.089-27.688 9.66-39.414 3.05-7.82 8.792-14.798 12.583-22.37 11.138-22.243 19.912-41.452 37.826-59.336 23.435-23.397 48.975-41.268 78.413-56.501 11.377-5.886 21.861-13.017 33.023-19.019 5.236-2.814 11.695-2.321 14.913-7.887l-18.109-1.065 2.13 6.391h-15.978l9.587-7.457-3.196-1.065c13.207-14.338 28.341-25.967 37.49-43.675 2.311-4.47 7.308-10.714 6.72-15.979-.434-3.869-3.97-7.364-5.86-10.652 14.396-2.941.826-14.555 0-22.37-6.295 2.079-9.824 10.964-10.653 17.044h-1.065l-21.305-35.154m-472.97 22.37-1.066 6.392h1.066v-6.391m329.516 82.734.356.71-.356-.71m160.498 5.681 1.065 1.065-1.065-1.065m-198.136 69.241-5.327 8.522c3.629-1.79 6.442-4.262 5.327-8.522m-6.392 27.697-1.065 3.195h3.196l-2.131-3.195m62.85 36.218v2.13h2.13v-2.13h-2.13m-30.893 53.263v2.13h2.131v-2.13z"/>
  </g>
</svg>
