<?xml version="1.0" encoding="UTF-8" standalone="no"?>
<svg
   xmlns:dc="http://purl.org/dc/elements/1.1/"
   xmlns:cc="http://creativecommons.org/ns#"
   xmlns:rdf="http://www.w3.org/1999/02/22-rdf-syntax-ns#"
   xmlns:svg="http://www.w3.org/2000/svg"
   xmlns="http://www.w3.org/2000/svg"
   xmlns:sodipodi="http://sodipodi.sourceforge.net/DTD/sodipodi-0.dtd"
   xmlns:inkscape="http://www.inkscape.org/namespaces/inkscape"
   viewBox="0 0 310.30664 310.30664"
   version="1.1"
   id="svg16946"
   inkscape:version="1.0.1 (0767f8302a, 2020-10-17)"
   sodipodi:docname="Esper Shard.svg">
  <defs
     id="defs16940">
    <filter
       style="color-interpolation-filters:sRGB"
       inkscape:label="Drop Shadow"
       id="filter17527">
      <feFlood
         flood-opacity="0.803922"
         flood-color="rgb(42,29,4)"
         result="flood"
         id="feFlood17517" />
      <feComposite
         in="flood"
         in2="SourceGraphic"
         operator="in"
         result="composite1"
         id="feComposite17519" />
      <feGaussianBlur
         in="composite1"
         stdDeviation="2"
         result="blur"
         id="feGaussianBlur17521" />
      <feOffset
         dx="0"
         dy="2.3"
         result="offset"
         id="feOffset17523" />
      <feComposite
         in="SourceGraphic"
         in2="offset"
         operator="over"
         result="composite2"
         id="feComposite17525" />
    </filter>
  </defs>
  <sodipodi:namedview
     id="base"
     pagecolor="#ffffff"
     bordercolor="#666666"
     borderopacity="1.0"
     inkscape:pageopacity="0.0"
     inkscape:pageshadow="2"
     inkscape:zoom="1.4"
     inkscape:cx="144.13017"
     inkscape:cy="213.98844"
     inkscape:document-units="mm"
     inkscape:current-layer="layer1"
     inkscape:document-rotation="0"
     showgrid="false"
     fit-margin-top="0"
     fit-margin-left="0"
     fit-margin-right="0"
     fit-margin-bottom="0"
     inkscape:window-width="1647"
     inkscape:window-height="1212"
     inkscape:window-x="896"
     inkscape:window-y="95"
     inkscape:window-maximized="0" />
  <metadata
     id="metadata16943">
    <rdf:RDF>
      <cc:Work
         rdf:about="">
        <dc:format>image/svg+xml</dc:format>
        <dc:type
           rdf:resource="http://purl.org/dc/dcmitype/StillImage" />
        <dc:title></dc:title>
      </cc:Work>
    </rdf:RDF>
  </metadata>
  <g
     inkscape:label="Layer 1"
     inkscape:groupmode="layer"
     id="layer1"
     transform="translate(63.753266,24.735909)">
    <circle
       style="fill:#405ebd;fill-rule:evenodd;stroke:#091e0e;stroke-width:9.765;stroke-miterlimit:4;stroke-dasharray:none;stroke-opacity:1;fill-opacity:1"
       id="path17515"
       cx="91.400047"
       cy="130.4174"
       r="150.27081" />
    <path
       style="fill:#000000;stroke-width:0.352777;filter:url(#filter17527)"
       d="m 89.87067,262.67159 c -0.8569,-1.5037 -5.79509,-10.06768 -10.97372,-19.0311 -5.17864,-8.96343 -9.41571,-16.3739 -9.41571,-16.46775 0,-0.0938 0.51594,-0.022 1.14652,0.16036 1.58137,0.45652 10.01395,1.64111 13.75363,1.93207 l 3.08208,0.23979 1.72862,3.01083 1.72869,3.0108 1.62745,-2.78016 c 0.89508,-1.52914 1.62745,-2.87558 1.62745,-2.99212 0,-0.11655 2.14786,-0.40209 4.773035,-0.6345 4.677465,-0.41415 11.563565,-1.47802 13.836025,-2.13768 0.63058,-0.18306 1.14651,-0.28281 1.14651,-0.22166 0,0.0611 -1.32193,2.39156 -2.93761,5.17882 -1.61568,2.78722 -6.32092,10.9415 -10.4561,18.12052 -8.4717,14.70765 -8.84593,15.34583 -8.99883,15.34583 -0.0605,0 -0.81111,-1.23031 -1.66804,-2.73405 z M 82.18124,224.93754 C 78.91816,224.67415 71.63434,223.367 67.54098,222.3102 52.41223,218.40434 37.66333,210.1744 26.5707,199.44867 10.95335,184.34792 2.2552478,167.52446 -1.2646921,145.61067 -2.4921222,137.96926 -2.3160122,124.90736 -0.87030212,116.35701 0.85607784,106.14682 5.7797108,92.526999 10.7634,84.175629 c 7.57868,-12.69984 19.72316,-24.56434 33.14145,-32.37735 6.71851,-3.91194 16.38752,-8.03622 23.45973,-10.00667 7.76359,-2.1631 19.33048,-3.20292 28.69594,-2.57966 24.03873,1.59977 44.49811,10.81243 60.98726,27.46192 7.47564,7.54832 12.85711,15.06612 17.38268,24.28314 5.37763,10.952481 8.27995,21.415241 9.3454,33.690301 1.77744,20.47761 -3.77278,41.89857 -15.35168,59.24941 -8.77398,13.1477 -21.6435,24.52066 -35.70751,31.55519 -1.40671,0.70358 -2.55765,1.4175 -2.55765,1.58644 0,0.16899 -0.27781,0.3923 -0.61735,0.49631 -0.33954,0.10395 -2.9986,1.00184 -5.90902,1.9953 -12.24648,4.18023 -21.28816,5.70651 -33.15897,5.59736 -3.68771,-0.0339 -7.41931,-0.1193 -8.29244,-0.18978 z m 8.38383,-20.10008 c -0.92742,-0.92742 -0.96488,-0.93411 -1.66767,-0.29811 -1.08495,0.98187 -0.88334,1.24683 0.94874,1.24683 h 1.66767 z m 20.36758,-1.52352 c 4.38214,-1.12213 5.82062,-1.62052 5.82131,-2.01692 2.7e-4,-0.15036 0.22516,-1.54993 0.49975,-3.11015 0.43286,-2.45954 1.53797,-9.88544 2.16111,-14.52179 l 0.19939,-1.4836 -1.87134,-0.93652 c -1.02923,-0.51509 -2.71994,-1.57064 -3.75711,-2.34564 -1.03717,-0.77501 -2.0043,-1.27343 -2.14919,-1.10765 -0.14488,0.16582 -1.74548,2.26373 -3.55682,4.66204 -1.81136,2.39832 -5.33138,6.72425 -7.82232,9.61324 l -4.52896,5.25261 1.1521,1.06805 c 0.63362,0.58742 2.707985,2.25528 4.60968,3.70633 2.89772,2.21113 3.61178,2.60393 4.40973,2.42599 0.52367,-0.11678 2.69836,-0.6595 4.83267,-1.20599 z m -40.07483,-8.41436 c 3.22048,-2.34088 6.30936,-4.62624 6.86424,-5.07857 l 1.00889,-0.82238 -0.59833,-1.74858 c -0.32904,-0.96171 -0.67712,-2.6217 -0.77354,-3.68887 -0.0964,-1.06715 -0.22926,-2.1199 -0.29527,-2.3395 -0.0791,-0.26318 -1.80171,0.11549 -5.05558,1.11141 -2.71452,0.83087 -7.76703,2.1863 -11.22778,3.01212 -3.46075,0.82579 -6.35741,1.55498 -6.43708,1.62041 -0.23407,0.1923 0.67805,3.92266 1.83163,7.49118 l 1.0703,3.31086 2.85477,1.34202 c 3.37217,1.58528 2.09944,2.08338 10.75775,-4.2101 z m -25.36547,-5.28235 c 0,-0.87067 -0.26067,-1.07522 -1.09286,-0.85757 -0.66033,0.17266 -0.66599,0.2196 -0.10129,0.8436 0.75735,0.83682 1.19415,0.84193 1.19415,0.014 z m 98.36317,-4.39098 0.82013,-0.88471 -3.11319,0.16661 c -1.71223,0.0917 -3.27189,0.21299 -3.46594,0.26958 -0.20881,0.061 -0.30538,1.2015 -0.23669,2.7945 l 0.11604,2.69153 2.52979,-2.0764 c 1.39134,-1.14196 2.8988,-2.47449 3.34986,-2.96111 z m -54.66258,-4.75186 c 5.59827,-4.97097 13.67788,-13.14098 12.99555,-13.14098 -0.0956,0 -0.78663,0.56007 -1.53564,1.24462 -2.25304,2.05907 -6.76361,4.92663 -11.06327,7.03342 -2.23131,1.09329 -4.16912,2.09997 -4.30623,2.23706 -0.26895,0.26897 0.70758,5.00713 1.03196,5.00713 0.10773,0 1.40268,-1.07156 2.87763,-2.38125 z m 55.61487,-5.5721 c 1.75094,-0.2689 4.6627,-0.82949 6.47057,-1.24574 l 3.28708,-0.75681 1.62385,-2.51018 c 3.10579,-4.80111 7.83638,-14.7228 7.83638,-16.43563 0,-0.47699 -8.25743,-8.90265 -13.83424,-14.11605 l -1.66341,-1.55506 -2.74632,1.27569 c -4.42524,2.05557 -8.41632,2.41707 -12.18311,1.1036 -0.72761,-0.25371 -1.32292,-0.40605 -1.32292,-0.33851 0,0.0675 0.46471,2.08455 1.03272,4.48226 0.56801,2.39773 1.36057,6.34386 1.76125,8.76921 0.80918,4.89832 2.14493,17.37903 2.14493,20.04148 0,0.94223 0.0792,1.79236 0.17603,1.8892 0.24939,0.24935 3.68326,-0.03 7.41719,-0.60346 z m -24.00265,-7.41402 c 0.14094,-2.63118 0.19312,-4.84709 0.11596,-4.92424 -0.0771,-0.0772 -1.04677,1.62552 -2.15474,3.78367 -1.10797,2.15816 -1.97445,3.95275 -1.92553,3.98791 1.37202,0.98679 2.99223,1.9367 3.30335,1.9367 0.27197,0 0.48877,-1.56938 0.66096,-4.78404 z m -76.98974,2.79389 c 1.19015,-0.19669 1.36022,-0.36314 1.70836,-1.67179 0.708,-2.66105 2.80982,-6.16244 4.78017,-7.96322 2.28775,-2.0909 4.83294,-3.34463 8.49564,-4.18497 l 2.74415,-0.6296 -2.46943,-1.3044 c -8.2537,-4.35977 -21.1841,-17.15166 -31.39649,-31.06025 l -1.69148,-2.30368 -1.23505,0.83923 c -1.82306,1.23881 -8.31599,7.10714 -9.22711,8.33943 -0.77123,1.04317 -0.77925,1.15525 -0.38362,5.35784 1.05895,11.24868 4.38203,21.91975 9.76837,31.36807 l 1.96088,3.43959 7.81195,-0.004 c 4.2966,-0.004 8.40674,-0.10221 9.13366,-0.22236 z m 17.02276,-1.20629 c 15.40256,-1.5731 28.49864,-5.89155 34.65655,-11.42804 4.68232,-4.20984 6.50427,-10.11089 4.71817,-15.28156 -0.632625,-1.83124 -0.632095,-1.85068 0.0332,-1.2486 1.1063,1.00118 4.00958,5.09389 4.96869,7.00442 2.32294,4.62696 2.63229,9.44142 0.85596,13.32148 -1.1978,2.61631 -0.69483,2.28304 1.3857,-0.91821 2.08719,-3.21146 4.17764,-7.63394 4.87616,-10.31584 0.76473,-2.93589 0.69956,-7.13512 -0.14816,-9.54698 -0.82574,-2.34945 -2.8457,-5.09593 -4.68572,-6.37104 -0.73774,-0.51128 -1.28773,-0.98319 -1.22222,-1.0487 0.0655,-0.0655 1.27117,0.2001 2.67917,0.59026 2.91121,0.80674 6.58141,2.39688 8.21182,3.55782 l 1.1049,0.78679 -0.2577,-1.02684 c -0.50954,-2.03018 -2.65126,-6.17974 -4.28615,-8.30443 -1.97424,-2.56569 -5.07481,-4.69299 -7.6945,-5.27923 -1.01881,-0.22804 -3.05345,-0.35391 -4.52147,-0.2798 l -2.669065,0.13478 1.240955,-0.84322 c 3.96496,-2.69431 9.54267,-4.42836 13.52105,-4.2036 6.27809,0.35465 11.1488,4.4849 15.20436,12.89288 l 1.74975,3.6276 1.82816,-0.23122 c 1.99549,-0.25233 6.62972,-1.64079 7.94652,-2.38083 0.80794,-0.45405 0.74004,-0.53427 -2.9986,-3.54208 -8.69275,-6.99347 -19.07373,-13.16109 -25.91488,-15.39669 -6.82829,-2.23133 -12.843595,-2.03163 -16.89236,0.56089 -1.83795,1.1769 -4.04452,3.63369 -5.05312,5.62613 l -0.89286,1.7639 0.17349,-2.11667 c 0.32216,-3.93009 1.22745,-7.74803 2.43573,-10.27237 2.76727,-5.78141 8.629865,-8.90294 16.03513,-8.53781 l 2.2914,0.11295 0.44281,-1.351201 c 0.63299,-1.93162 0.92744,-5.7663 0.64521,-8.40187 -0.34592,-3.23003 -0.54602,-3.43091 -2.193,-2.20152 -12.86447,9.60282 -21.86187,18.887181 -25.49486,26.308131 -2.54963,5.20795 -3.10177,9.22983 -1.82867,13.32024 0.70678,2.27099 2.97019,5.61313 4.46439,6.59217 1.42489,0.93364 0.78703,0.90887 -1.81938,-0.0706 -6.29862,-2.36707 -10.41643,-5.55281 -12.33162,-9.54045 -1.3911,-2.89647 -1.61449,-7.58021 -0.56031,-11.74887 0.85442,-3.37884 3.15622,-8.41114 5.51553,-12.05823 1.48577,-2.296741 1.63566,-2.711161 1.43479,-3.967161 -0.36955,-2.31111 -2.20665,-6.25841 -4.04847,-8.69866 -1.78655,-2.36704 -3.80466,-4.47209 -4.03381,-4.20761 -0.39156,0.45198 -3.48676,12.17062 -4.24244,16.062191 -1.46455,7.54219 -1.73342,10.4525 -1.52752,16.53495 0.21537,6.36299 0.69184,8.59472 2.62091,12.27688 2.27836,4.34872 6.09108,6.97973 11.01593,7.60164 l 1.9577,0.24722 -2.64583,0.80809 c -14.6677,4.47961 -23.40218,-2.17802 -25.49173,-19.43041 l -0.41719,-3.44456 -1.24484,-0.34584 c -1.34163,-0.37269 -7.77124,-0.48723 -7.77124,-0.13843 0,0.41394 4.03103,7.08898 6.79622,11.25395 13.82366,20.82141 27.44076,27.54431 37.25024,18.39089 l 1.18398,-1.10479 -1.40999,2.82223 c -2.67827,5.36099 -5.57011,8.56589 -9.60112,10.64062 -1.769,0.91051 -2.26698,0.99832 -5.64433,0.99576 -2.03729,0 -4.44772,-0.14023 -5.35651,-0.30811 l -1.6523,-0.30528 -2.76754,2.77881 c -2.59914,2.60964 -5.07207,6.47404 -5.91217,9.23867 -0.23109,0.76034 -0.16817,0.80285 0.92938,0.62847 0.64746,-0.10293 2.92343,-0.36542 5.05774,-0.58341 z m 107.41796,-41.87094 c -0.005,-4.16087 -0.91792,-11.37709 -1.43923,-11.37709 -0.17698,0 -0.32176,0.16423 -0.32176,0.36492 0,0.20074 -1.18062,2.26361 -2.62358,4.58417 l -2.62358,4.21926 2.359,1.65401 c 1.29743,0.90969 2.75587,1.93741 3.24093,2.28383 0.48506,0.34639 1.001,0.63484 1.14652,0.64098 0.14555,0.006 0.26329,-1.0604 0.2617,-2.37008 z m -13.24258,-9.525 c 2.88914,-4.60449 7.34904,-15.01206 7.36968,-17.19792 0.0119,-1.288551 -3.47073,-8.332921 -6.2851,-12.711911 -3.88588,-6.04625 -10.12222,-13.1491 -15.19396,-17.30502 l -1.64058,-1.34434 -1.81827,1.00517 c -3.89445,2.15289 -12.22804,7.12851 -15.82351,9.44753 -3.61352,2.33067 -3.7601,2.47309 -3.43236,3.3351 0.1883,0.49525 0.499,2.00483 0.69043,3.35463 0.6795,4.79118 -0.68527,9.23377 -3.92599,12.77961 -0.962,1.052621 -1.62537,1.986811 -1.4741,2.076031 0.15131,0.0892 0.83068,0.27694 1.50979,0.41722 4.33586,0.89564 13.36291,4.38806 20.20337,7.8164 3.71348,1.86116 14.33097,7.93483 16.30913,9.32955 0.7761,0.54724 1.59731,1.00203 1.82488,1.01069 0.22757,0.008 0.98655,-0.89707 1.68659,-2.01274 z M 18.3457,115.40562 c 1.15469,-0.81431 2.09944,-1.61755 2.09944,-1.78504 0,-0.39084 -2.57646,-4.11162 -2.8594,-4.12935 -0.11745,-0.007 -0.48911,1.2963 -0.8259,2.89703 -0.33679,1.60073 -0.69445,3.2676 -0.79483,3.70417 -0.10036,0.43656 -0.0781,0.79375 0.0494,0.79375 0.12753,0 1.17663,-0.66625 2.3313,-1.48056 z m 32.56875,-12.54236 c 0.2929,-5.974901 1.0305,-12.672061 2.1816,-19.807691 0.48194,-2.98762 0.80528,-5.50301 0.71855,-5.58977 -0.45474,-0.45469 -7.74636,-1.19904 -12.32341,-1.25799 l -5.2359,-0.0675 -1.88955,2.02528 c -1.03928,1.1139 -2.86758,3.31004 -4.06294,4.88032 l -2.17336,2.85504 2.38902,5.46552 c 1.31395,3.00604 3.35749,7.45768 4.54121,9.892561 l 2.15217,4.42704 4.40486,0.0453 c 3.92941,0.0403 4.63328,0.14547 6.52148,0.97394 1.16417,0.5108 2.21157,0.94667 2.32759,0.96871 0.116,0.022 0.3179,-2.14286 0.44868,-4.81073 z m 31.08812,-9.514021 c 2.90208,-3.85178 8.95403,-10.53894 14.44702,-15.96345 l 5.16901,-5.10458 -3.038395,-2.9178 c -1.671115,-1.60478 -4.893605,-4.31411 -7.161055,-6.0207 -3.99905,-3.00987 -10.59458,-7.30636 -10.83969,-7.06125 -0.37785,0.3779 -6.34294,15.00568 -7.19307,17.63911 l -0.42225,1.30799 2.49534,2.35397 c 1.86909,1.76319 2.82649,3.02419 3.81481,5.02444 1.31011,2.6516 1.31927,2.70063 1.29435,6.9214 -0.0138,2.35542 -0.20667,4.68344 -0.43228,5.22099 -0.66315,1.58028 -0.0103,1.09054 1.86621,-1.40012 z M 55.86301,67.938259 c 0.23415,-0.77057 1.6238,-7.05953 1.6238,-7.34878 0,-0.11689 -1.06053,0.37045 -2.35675,1.08292 -3.13394,1.72265 -7.87382,4.77499 -7.87382,5.07053 0,0.1298 1.78594,0.56835 3.96875,0.97448 2.18282,0.40616 4.07713,0.76092 4.20955,0.78836 0.13245,0.0275 0.32528,-0.22797 0.42847,-0.56751 z m 56.68101,-5.29167 c 2.22361,-1.89177 4.47728,-3.77994 5.00814,-4.19589 0.53086,-0.41601 0.9652,-0.84508 0.9652,-0.95359 0,-0.22569 -5.48921,-2.02004 -8.64304,-2.82535 -4.66969,-1.19232 -15.50287,-2.57836 -15.26179,-1.95268 0.0508,0.13179 2.1758,2.15043 4.722265,4.4858 2.546405,2.33545 5.551205,5.28916 6.677185,6.56376 1.12604,1.27466 2.14673,2.31754 2.26822,2.31754 0.12147,0 2.04021,-1.54782 4.26382,-3.43959 z m 71.59,41.609541 c 0,-0.90934 -3.32732,-9.591041 -5.15059,-13.438901 -1.04769,-2.2112 -1.90494,-4.11856 -1.90494,-4.2386 0,-0.12007 2.14312,-3.93242 4.7625,-8.47193 2.61937,-4.53951 4.7625,-8.30747 4.7625,-8.37322 0,-0.0657 -4.70567,-0.11951 -10.45708,-0.11951 h -10.45705 l -4.97699,-5.06576 c -2.7373,-2.78617 -5.92945,-5.87608 -7.09362,-6.8665 l -2.11666,-1.80072 30.42708,-0.0127 c 16.7349,-0.007 30.42518,0.10639 30.42285,0.25193 -0.004,0.14552 -0.37229,0.89959 -0.82211,1.67569 -1.44177,2.48766 -9.07574,15.72763 -11.6958,20.2847 -15.29964,26.610291 -15.70009,27.277941 -15.70009,26.175521 z M -5.9890222,96.683409 c -3.59338,-6.28054 -6.4844698,-11.29207 -17.7755108,-30.81263 -3.0426,-5.26023 -5.532,-9.66211 -5.532,-9.78196 0,-0.11986 13.45406,-0.22138 29.89792084,-0.22561 l 29.89792216,-0.008 -1.7639,1.45904 c -0.97015,0.80251 -4.1851,3.89816 -7.14438,6.87925 l -5.38049,5.42023 H 5.7664808 c -9.142943,0 -10.418733,0.066 -10.240803,0.52964 0.11178,0.29128 2.26806,4.08609 4.79176004,8.4328 l 4.58848296,7.90316 -1.885923,4.00259 c -1.83174,3.88765 -4.1408899,9.706081 -4.6336199,11.675561 -0.13351,0.53356 -0.34459,0.96729 -0.4690801,0.96387 -0.12449,-0.004 -1.88233,-2.9006 -3.90632,-6.438181 z"
       id="path16929"
       sodipodi:nodetypes="ssscsccccsssssssssssssssssscssssssssssscscssscssssscscscssccsssssscsssssssscccscssssssssssscssscssssssssscscssccsscsscscsscccccscscsscssssscsscscsssccsscsccssscsscssscssscsssscscsscsssscssccccsccccssscssccscsscssssscssscssscsssssssccccscssccsssscscsscscscccccscssccscscscsssscssssccscscccscsscccccssccssccc" />
  </g>
</svg>
