<svg xmlns="http://www.w3.org/2000/svg" viewBox="0 0 381.598 381.598"><g transform="translate(71.53 23.523)"><circle style="fill:#7f9dfc;fill-opacity:1;fill-rule:evenodd;stroke:#2c0731;stroke-width:11.165;stroke-miterlimit:4;stroke-dasharray:none;stroke-opacity:1" cx="119.269" cy="167.276" r="185.217"/><path style="fill:#000;stroke-width:.0881974" d="M-33.003 255.67c0-.047 60.156-104.145 60.236-104.236.033-.038-.03.485-.14 1.162-1.14 6.99-1.451 14.986-.867 22.235 1.292 16.01 6.536 31.089 15.428 44.363 2.64 3.94 5.051 7.055 8.195 10.584 1.38 1.549 5.588 5.758 7.11 7.11 9.031 8.033 18.592 13.84 29.766 18.078l1.94.736-60.834.003c-33.459.001-60.834-.014-60.834-.034zm184.112-.052c.097-.043.89-.343 1.764-.668 14.905-5.541 28.64-15.284 38.983-27.653 6.378-7.627 11.422-16.07 15.17-25.39 3.1-7.71 5.188-16.162 6.077-24.607.398-3.774.45-4.92.45-9.922 0-5.758-.167-8.357-.846-13.174-.146-1.036-.252-1.898-.234-1.915.026-.027 58.982 102.246 59.446 103.123l.157.296-60.572-.006c-35.107-.003-60.497-.039-60.395-.084zm-32.81-5.465c-.145-.037-.8-.214-1.455-.393-.89-.243-1.424-.335-2.117-.368-1.764-.082-1.847-.144-1.417-1.064.15-.318.27-.67.27-.784 0-.404.437-.619 2.306-1.135.453-.125.51-.17.64-.492.336-.842.429-1.876.46-5.149.017-1.74.054-3.24.083-3.33.098-.31.556-.46 1.516-.5 1.094-.044 1.494.019 1.565.245.07.222-.156.746-.483 1.119-.147.168-.265.402-.265.528 0 .295.422.687.904.84.544.172.612.434.662 2.566l.042 1.742-.385.17a4.03 4.03 0 0 1-.708.228c-.22.04-.344.12-.389.25-.036.104-.081 1.36-.1 2.791-.032 2.278-.054 2.616-.18 2.712-.158.121-.537.13-.949.024zm-8.388-1.037-.628-.03.292-1.013c.624-2.166.8-3.558.518-4.103a16.18 16.18 0 0 0-.578-.94c-.58-.889-.566-1.072.097-1.234a40.724 40.724 0 0 0 1.729-.51l1.243-.392.064-2.228c.036-1.225.071-2.234.08-2.24.008-.007.432-.027.941-.045l.926-.033.24 3.792c.13 2.085.21 3.815.176 3.844-.035.03-.38.165-.769.302-1.054.371-2.01.875-2.312 1.22-.377.43-.623 1.297-.95 3.344-.044.274-.086.328-.247.314-.107-.01-.477-.031-.822-.048zm12.674-.254c-.2-.716-.065-3.65.345-7.53.1-.946.243-2.316.318-3.043.183-1.774.203-1.847.525-1.875.142-.012.696.027 1.23.088l.97.111-.01.265c-.004.145-.038 1.118-.075 2.16l-.067 1.897.747.507c.896.608 1.565 1.291 1.565 1.598 0 .375-.583.776-1.75 1.202l-.648.237.012 2.252.013 2.253-.29.05c-.16.029-.854.078-1.54.111l-1.25.06zm5.229.106c-.237-.17-.386-.754-.386-1.512 0-.562.033-.656.747-2.082.957-1.914 1.281-2.901 1.281-3.902 0-.907-.156-1.441-.99-3.39-.515-1.199-.61-1.494-.566-1.763.1-.634.664-.895 1.93-.896.932-.001.91-.038.777 1.366-.05.534-.092.995-.092 1.025 0 .03.585.081 1.3.115.716.033 1.43.082 1.587.11l.285.048-.057-1.963-.057-1.963.698.06c1.907.165 1.792.137 1.84.442.024.15.145 2.06.268 4.243l.224 3.97-.219.19c-.138.121-.535.263-1.081.385-2.963.662-3.47.841-3.872 1.37-.243.319-.255.376-.25 1.223.004.76.043 1 .278 1.666.185.525.24.788.172.809-.056.017-.32.055-.587.085-.456.052-2.196.331-2.778.446a.58.58 0 0 1-.452-.082zm-21.774-.674c-.146-.042-.538-.319-.871-.615-1.274-1.131-1.51-1.19-3.354-.845-1.19.224-2.008.287-2.294.177-.195-.075-.176-.27.089-.92.199-.49.216-.606.131-.889-.119-.397-.009-.986.35-1.866.457-1.123.81-1.612 1.53-2.116.374-.262.595-1.14.634-2.514.068-2.373.738-4.02 1.82-4.47.506-.21.716-.169 1.357.27.578.396.78.49 1.298.604.388.085.604.668.62 1.67.017 1.03-.114 1.286-1.223 2.399-1.005 1.008-1.512 1.898-1.43 2.51.086.638 1.125 1.95 2.301 2.906.436.354.49.433.493.736.006.499-.33 2.057-.528 2.445-.152.297-.484.625-.612.603a5.773 5.773 0 0 1-.311-.085zm30.78-.941c-.326-.082-.648-.378-1.01-.93-.434-.661-.61-1.168-.46-1.319.064-.064.352-.095.763-.081.787.025 1.269-.09 1.62-.386.639-.537 1.237-1.926 1.43-3.318.09-.652.07-1.06-.167-3.515-.35-3.618-.4-4.38-.323-4.943.134-.969.613-1.081 2.425-.57.602.17 1.164.31 1.25.31.395 0 .746.681 1.659 3.218.724 2.014 1.323 3.324 1.611 3.527.11.077.337.229.506.338.422.271.916 1.008 1.241 1.85.268.696.271.72.21 1.791l-.062 1.086-.397.06c-.631.095-1.582-.02-2.037-.247-.33-.164-.51-.354-.938-.996-.634-.95-.912-1.135-1.616-1.07-.548.052-.692.15-.91.629-.136.3-.16.598-.162 1.993-.002 1.5-.016 1.653-.17 1.792-.244.22-.844.379-1.878.496-.5.056-1.179.158-1.51.226-.617.127-.77.135-1.074.059zm-43.132-2.604a45.18 45.18 0 0 1-.689-.74l-.249-.278.321-.802c.38-.948.462-1.505.296-1.994-.088-.26-.166-.35-.294-.342-.31.018-1.276.198-1.366.254-.209.13-.35.61-.44 1.5-.113 1.108-.254 1.509-.572 1.63-.263.1-1.807-.033-2.08-.179a1.088 1.088 0 0 1-.315-.312c-.307-.468.069-1.987.936-3.786.281-.582.575-1.257.654-1.5l.143-.44 1.212-.001c1.176-.001 1.226-.008 1.654-.256.242-.14.73-.55 1.082-.911.578-.591.71-.798 1.337-2.094.4-.827.835-1.593 1.022-1.8l.327-.363 1.335.001c.734.001 1.386.034 1.448.074.067.042.186.558.288 1.255.153 1.04.224 1.287.587 2.04.227.472.395.877.372.9-.023.023-.596.279-1.274.57l-1.233.527-.024 1.284-.024 1.284.304.442c.373.544.526.984.467 1.353-.335 2.12-.426 2.383-.883 2.57-.154.062-.578.14-.942.174a39.45 39.45 0 0 0-1.799.231c-.626.095-1.143.172-1.15.172-.007 0-.21-.209-.451-.463zm-9.808-3.445c-.394-.403-.741-.835-.773-.96-.088-.353.163-.728.861-1.286 1.107-.884 1.627-1.418 1.82-1.867.1-.234.26-.9.353-1.482.113-.704.25-1.222.414-1.556.32-.651.253-.843-.493-1.42-.909-.703-1.291-1.114-1.411-1.514-.096-.32-.09-.408.056-.705.22-.453.619-.634 1.636-.746 2.067-.229 2.633-.419 2.719-.916.053-.309.345-.482.812-.484.493-.002.714.141 1.028.666.317.53.487.656.892.656.377 0 .898.283 1.166.634.395.518.865 1.546.865 1.893 0 .18-.081.494-.18.698-.223.46-2.36 2.565-2.687 2.648-.27.068-.417 0-1.174-.538-.306-.218-.653-.396-.77-.396-.29 0-.43.243-.747 1.312a13.18 13.18 0 0 1-.709 1.784c-.241.48-.56 1.182-.71 1.557-.529 1.334-.939 1.993-1.565 2.513-.456.38-.605.327-1.403-.49zm-4.287-1.714a19.83 19.83 0 0 1-.186-1.125 44.977 44.977 0 0 0-.189-1.21c-.03-.15-.508-.73-1.275-1.544-.675-.717-1.21-1.354-1.186-1.416.023-.062.851-1.272 1.84-2.69l1.798-2.577.361-1.632c.2-.897.405-1.929.457-2.293.052-.363.134-.755.183-.87.151-.363.634-.215 1.802.553.56.369 1.216.77 1.457.892.33.167.438.27.436.42-.003.299-.28.842-.747 1.459-.232.306-.71 1.17-1.064 1.92-.354.75-.865 1.696-1.135 2.103-.478.718-.548.935-.435 1.355.03.112.604.925 1.275 1.808l1.22 1.606-1.18.044c-.65.024-1.201.064-1.225.088-.024.024.018.69.093 1.48.076.789.12 1.454.096 1.477-.038.038-1.993.304-2.248.305-.057 0-.124-.068-.148-.153zm77.06-.213c-.396-.106-.743-.544-1.312-1.656-.495-.969-.874-1.417-1.198-1.417-.094 0-.407.096-.694.213-.718.291-1.017.346-1.24.227-.295-.157-.523-.76-.525-1.386-.002-.49.045-.636.432-1.367.736-1.386.884-2.228.448-2.551-.299-.221-1.31-.424-2.126-.426h-.67l-.443-.993c-.329-.736-.418-1.018-.344-1.092.169-.169 6.225-3.72 7.285-4.272l.53-.276.277.163c.153.09.39.361.526.604.279.496.546 1.416.475 1.64-.026.08-.401.407-.834.726-.433.319-.912.75-1.064.96-.445.61-.38.868.83 3.25.993 1.959 1.026 2.042 1.026 2.59 0 .621.06.54-1.003 1.399-.232.188-.242.217-.112.346.082.082.5.201 1.003.286l1.435.24c.796.134 1.059.28 1.059.59 0 .492-.605 1.123-1.764 1.84-.476.296-.67.363-1.147.396-.315.023-.698.007-.85-.033zm6.539-4.233c-.687-.391-2.1-1.91-3.865-4.155l-1.025-1.302.586-.893c.321-.49.636-1.036.698-1.211.074-.207.116-.804.118-1.695.004-1.307.095-1.931.281-1.931.148 0 .515.452 1.574 1.94 1.612 2.267 2.336 3.085 2.73 3.088.268.002 1.482.59 2.244 1.087.961.627 1.642 1.288 1.642 1.596 0 .147-.265.562-.774 1.21-.425.543-.817 1.002-.87 1.02-.054.018-.46-.421-.903-.976-.443-.555-.855-1.026-.915-1.047-.178-.061-2.006.034-2.006.104 0 .036.194.392.432.792.538.904.865 1.864.749 2.197-.092.263-.405.342-.696.176zm-90.403-.364c-.728-.392-1.558-.98-3.134-2.218l-1.34-1.052.05-.362c.067-.484.665-1.9.804-1.9.06 0 .89.378 1.845.839.955.46 1.771.837 1.815.837.115 0 .212-.908.156-1.454-.064-.615-.204-.867-1-1.786-.78-.903-1.09-1.453-.947-1.68.224-.356.55-.264 1.652.464.479.317.918.576.975.576.254 0 .443-.291.717-1.109l.294-.876-.201-.44c-.111-.243-.41-.711-.662-1.04l-.46-.6 1.292-1.407c.71-.774 1.315-1.408 1.343-1.408.16 0 1.256.94 1.256 1.079 0 .089-.105.577-.232 1.085-.273 1.09-.248 1.203.42 1.915.236.251.429.503.429.56 0 .199-.38.97-.772 1.563-.342.519-.389.645-.344.921.066.404.576 1.15 1.12 1.64l.42.377-.492.656c-1.45 1.937-3.103 4.073-3.525 4.558-.569.655-.706.68-1.48.262zm52.403-5.432c-.112-1.686-.11-1.696.386-2.352.9-1.19 1.116-1.883.793-2.551-.207-.427-.917-1.073-1.517-1.378l-.337-.172v-4.928l.287-.044c.485-.074 3.689-.25 3.734-.206.024.024.109.684.19 1.468.134 1.307.161 1.429.327 1.463.1.02.862.084 1.694.142l1.513.104.102.892c.056.49.122.998.146 1.128.044.233.026.243-1.125.618-1.31.427-1.216.33-1.398 1.435-.069.424-.06.565.044.725.215.328.912.485 2.37.535l1.315.045-.054 1.062c-.03.61-.094 1.087-.149 1.121-.052.032-1.711.387-3.686.788-1.974.4-3.812.78-4.084.841l-.495.113zm-16.418.683c-.398-.092-1.324-.366-2.99-.885l-1.138-.355.054-1.749.054-1.749 1.063-2.066 1.062-2.066.904-.153c.496-.084.966-.17 1.044-.191.102-.028.235-.428.48-1.447.185-.774.36-1.442.387-1.484.028-.042.257-.1.51-.13l.46-.052.045.282c.057.361.204 2.342.28 3.775l.058 1.112-.387.27c-.824.574-1.666 1.63-1.665 2.091 0 .308.133.527.768 1.272.253.296.505.69.56.876.09.3.075.401-.134.904a24.6 24.6 0 0 0-.415 1.074c-.153.433-.436.793-.6.762a29.845 29.845 0 0 1-.4-.09zm60.406-.113c-.026-.069.058-.377.187-.684.503-1.197.581-1.435.534-1.622-.064-.256-.378-.453-.967-.606-.452-.118-.547-.111-1.585.117l-1.104.242-1.323-1.33c-1.21-1.214-1.378-1.423-1.952-2.422-1.597-2.783-1.694-3.183-.966-4.012.347-.394.55-.405 1.782-.093 1.354.343 1.374.34 2.624-.35 1.117-.618 1.715-.802 1.86-.572.21.33-.099 1.44-.662 2.385-.267.448-.3.558-.215.72.216.418.812 1.074 2.899 3.192 3.27 3.32 3.29 3.348 2.755 3.86-.338.324-1.446.818-2.42 1.08-.931.249-1.377.278-1.447.095zm-47.649-1.475c-.648-.033-1.21-.094-1.247-.134-.137-.147-.353-1.357-.355-1.988-.001-.355.086-2.343.194-4.419l.198-3.774 1.194.06a32.93 32.93 0 0 1 1.211.072c.033.024.049 10.203.016 10.223-.018.01-.563-.007-1.211-.04zm-22.093-1.225c-.516-.155-.721-.551-.5-.965.048-.088.267-.274.488-.413.22-.138.42-.33.44-.428.022-.097.12-.638.217-1.202l.178-1.026-.52-1.091c-.879-1.847-.967-2.274-.558-2.72.335-.367 1.537-1.067 2.418-1.408l.938-.366c.254-.101.424-.502.558-1.312.078-.472.134-.618.226-.582.067.025.695.229 1.397.452l1.276.405-.004.765-.004.765-.851.53-.85.532-.721 3.746a1994.1 1994.1 0 0 0-.781 4.078l-.061.33-1.518-.008c-.834-.004-1.63-.041-1.77-.083zm35.796-.196c-.298-1.276-2.154-11.308-2.101-11.355.04-.035.498-.147 1.019-.249l.947-.185.773.779c.798.805 1.332 1.154 1.766 1.154.323 0 .92.388 1.47.956l.434.448-.32.687c-.79 1.7-.87 2.101-.545 2.716.324.61 1.055 1.502 2.176 2.654l.953.979-3.163.807c-1.74.444-3.208.807-3.263.807-.054 0-.12-.09-.146-.198zm-39.62-1.384c-.452-.247-2.886-1.878-3.093-2.072-.09-.085.35-1.121 2.234-5.26 1.29-2.834 2.379-5.186 2.418-5.227.085-.088 1.322.562 1.325.696 0 .051-.597 1.99-1.327 4.31-.73 2.318-1.316 4.225-1.3 4.237.014.012.304.167.644.345 1.268.665 1.81 1.216 1.639 1.666-.101.267-.907.995-1.351 1.222-.669.341-.712.344-1.19.083zm79.267-.275c-.73-.346-2.057-1.294-3.384-2.418a812.01 812.01 0 0 0-1.272-1.077l-.23-.192.366-.474c.357-.461.637-1.005.636-1.233 0-.063-.288-.412-.64-.777-.545-.567-2.616-2.92-2.957-3.361-.095-.123-.006-.32.596-1.323.39-.649.72-1.216.735-1.26.015-.046.501.274 1.08.71 1.976 1.486 3.525 2.573 4.41 3.096 2.43 1.434 5.596 3.907 5.596 4.37 0 .149-.633.743-1.183 1.11l-.344.23-.317-.394c-.557-.692-1.025-1.133-1.264-1.193-.176-.045-.327.007-.629.214a2.93 2.93 0 0 1-.865.375c-.676.148-.746.236-.527.665.098.192.434.663.746 1.048.877 1.079 1.066 1.598.723 1.977-.226.25-.61.222-1.276-.093zm-32.857-2.39c-1.025-1.082-1.597-1.753-1.616-1.895-.036-.278.273-.696 1.075-1.453l.618-.584-1.786-2.402c-.982-1.32-1.773-2.414-1.758-2.43.058-.057 3.691-2.246 5.025-3.026.76-.445 1.443-.809 1.517-.809.155 0 .338.549.26.779-.027.081-.174.254-.325.384-.267.229-.275.257-.275.97 0 1.236.035 1.315.728 1.61.784.334 1.574.809 1.74 1.046a.944.944 0 0 1 .133.461c0 .274-.496 1.39-.906 2.04l-.221.35.886 1.874.887 1.873-.25.522-.249.521-.335-.302c-.843-.763-1.819-.98-2.36-.524-.499.42-.445 1.162.129 1.77.165.175.279.353.253.394-.041.067-1.438.532-1.542.514-.022-.004-.754-.761-1.628-1.683zm-81.857.608c-1.755-1.817-2.503-2.811-2.503-3.328 0-.418.16-.56 1.317-1.157.69-.356 1.1-.644 1.632-1.146 1.031-.973 1.125-1.01 2.184-.87 1.047.138 1.341.071 2.208-.503.719-.476 2.236-1.909 3.03-2.861.354-.424.646-.696.749-.696.33 0 1.194 1.004 1.446 1.679.036.097-.307.393-1.23 1.058-1.128.815-1.285.96-1.337 1.227-.033.167-.035.91-.006 1.652.071 1.834.017 1.884-1.38 1.255-1.345-.606-2.11-.674-2.23-.2-.04.162.028.432.23.904.523 1.217.581 1.406.47 1.518-.168.167-.84.012-1.36-.313-1.149-.72-1.443-.868-1.802-.909-.822-.092-1.613.612-1.363 1.215.133.322 1.044 1.195 1.699 1.629.28.185.495.35.48.365-.03.03-1.194.474-1.244.474-.016 0-.462-.447-.99-.993zm89.454-4.289c-.661-1.158-1.202-2.13-1.202-2.158 0-.053 2.183-.762 2.346-.762.05 0 .265.387.476.86.212.473.598 1.29.86 1.817.462.933.47.962.314 1.136-.162.181-1.485 1.214-1.554 1.214-.021 0-.58-.948-1.24-2.107zm-62.5 1.987c0-.018-.04-.246-.09-.507-.148-.768-.123-2.098.047-2.524.249-.62 1.08-1.105 2.69-1.568l1.058-.304c.285-.082.724-.906 1.869-3.518a81.99 81.99 0 0 1 .904-2.023c.017-.017.475.193 1.019.465.768.385.98.53.947.645-.111.397-3.711 8.712-3.794 8.764-.11.068-.903.182-2.992.428-1.561.184-1.657.192-1.657.142zm-3.897-2.763-.942-.76 1.2-1.331 1.415-1.566.212-.234-.8-.84-.8-.839-2.052 1.613-2.053 1.612-1.234-1.281c-.68-.705-1.235-1.313-1.235-1.352 0-.1 3.967-4.178 4.343-4.465l.31-.236.3.35c.165.192.575.707.911 1.144l.611.795.731.198c1.1.299 1.286.323 1.449.187.198-.164.478-.627.805-1.335l.276-.595-1.455-1.345-1.454-1.345.6-.564c.747-.704 1.736-1.509 1.852-1.509.11 0 1.944 1.884 3.705 3.806l1.342 1.465-3.443 4.487c-1.894 2.467-3.49 4.534-3.547 4.593-.08.083-.314-.062-1.047-.653zm95.164-1.748-2.62-2.068-1.349.387c-.996.286-1.38.362-1.465.292-.063-.053-.723-.833-1.465-1.734-.743-.902-1.434-1.714-1.536-1.805l-.186-.166.19-.275c.37-.532 2.17-2.751 2.686-3.31l.522-.565.514 1.359c.664 1.759 1.148 2.698 1.501 2.913.366.223 1.151.216 1.993-.017 1.599-.443 1.71-.425 3.082.51 1.625 1.104 1.756 1.172 2.266 1.172.254 0 .95.1 1.547.22a28.01 28.01 0 0 0 1.15.221c.037 0 .067.034.067.075 0 .085-4.113 4.81-4.213 4.84-.035.01-1.243-.912-2.684-2.05zm-27.676-3.34c-2.013-2.82-3.66-5.176-3.66-5.236 0-.06 1.071-1.066 2.381-2.235l2.381-2.124.75.035c.837.04 1.08.147 1.279.566.226.476.173.752-.193 1.001l-1.24.85-.915.631 1.505 1.352c.827.744 1.504 1.379 1.504 1.41 0 .032-.416.443-.926.915-.509.472-.925.903-.925.959 0 .195 1.544 2.393 1.7 2.423.103.02.416-.222.888-.683.402-.392.77-.713.818-.713.161 0 .747.902 1.758 2.71l.556.994-.59.341c-1.075.623-3.056 1.75-3.235 1.84-.16.081-.508-.375-3.836-5.036zm-95.173 4.028c-.584-.527-3.079-3.183-3.079-3.278 0-.373 1.91-1.581 2.333-1.475.114.028.375.252.58.497.681.813 1.146.895 2.032.36.692-.419 2.535-1.85 3.08-2.392.429-.425 1.117-1.553 2.073-3.395.327-.631.633-1.161.679-1.179.107-.04 1.044.298 1.596.576.256.128.456.3.507.435.103.27-.102 1.359-.316 1.686-.173.263-.619.46-1.2.528-.308.037-.462.102-.528.226-.197.368.163 1.142.58 1.246.446.112 1.409-.381 2.84-1.454.415-.311.652-.294.812.058.241.529-.013 1.357-.527 1.721-.163.116-.873.767-1.576 1.447-1.37 1.327-2.089 1.858-2.87 2.123-.576.196-.654.141-.656-.46-.004-.977-.27-.901-1.898.54-1.355 1.198-3.393 2.513-3.903 2.516-.109 0-.36-.146-.56-.326zm103.034-4.522a281.17 281.17 0 0 1-1.574-1.358c-.066-.066.966-1.385 1.369-1.749.425-.384.479-.351-.974-.586-.57-.091-1.086-.205-1.147-.252-.39-.299-2.426-1.924-2.527-2.017-.102-.093.103-.279 1.216-1.103l1.339-.992-.29-.3c-.16-.166-.762-.666-1.339-1.11a313.85 313.85 0 0 1-1.231-.954c-.18-.141-.176-.15.299-.583.265-.242.878-.783 1.362-1.201 1.014-.877.963-.865 2.583-.624 1.225.182 2.226.503 2.57.825.636.594.144 1.446-1 1.733-.314.08-.478.43-.603 1.289l-.104.715.968.929c1.495 1.435 3.708 3.5 4.464 4.167l.683.601-1.076.655c-.59.36-1.364.824-1.718 1.031-.625.367-.656.402-1.146 1.29-.277.502-.524.912-.548.911-.024 0-.733-.593-1.576-1.317zm-84.843-3.067-1.97-1.918 2.103-1.883 2.102-1.884.705-1.18c.851-1.423 1.2-1.921 1.472-2.098.329-.216 1.207-.408 1.863-.408.523 0 .711-.048 1.346-.345l.737-.346 1.304 1.32c.717.727 1.317 1.376 1.332 1.443.028.128-.8 2.127-.989 2.385-.1.136-.161.122-.742-.17a7.041 7.041 0 0 0-1.115-.445c-1.278-.333-1.734.477-1.06 1.884l.31.649-.2.14c-.236.164-.776.64-1.552 1.368l-.557.523-.545-.533c-.807-.788-1.107-.896-1.456-.525-.343.366-.177 1.054.462 1.907l.227.303-.857.866c-.472.476-.878.866-.904.866-.025 0-.932-.864-2.016-1.919zm111.77 1.244c-1.172-.719-1.248-.751-1.78-.747-.588.005-1.254.168-2.21.539l-.679.264-.327-.242c-1.998-1.476-6.323-4.853-6.327-4.94-.014-.337 1.57-3.548 1.751-3.548.04 0 .222-.12.405-.265.44-.35.786-.347 1.217.01.524.43.692.855.758 1.913.05.82.078.935.263 1.085.331.268.89.21 2.164-.223 1.394-.474 1.46-.462 1.614.295.06.301.176.685.256.854.198.417.796.909 1.655 1.36 1.73.908 2.768 1.773 2.98 2.48a1.21 1.21 0 0 1-.376 1.26c-.378.319-.73.294-1.363-.094zm-135.644-1.55c-.568-.931-.998-1.705-.956-1.72.38-.133 1.482-.828 1.46-.921-.016-.065-.214-.522-.441-1.017l-.414-.9-1.162-.996c-.916-.785-1.14-1.02-1.057-1.106.14-.144 2.882-1.1 3.012-1.05.055.02.148.197.206.392.058.195.22.477.36.627.422.45.758.359 1.474-.4.249-.262.507-.46.574-.44.067.022.41.107.762.189.567.132.646.175.69.382.243 1.1.75 1.791 1.403 1.914.713.134 1.555-.294 1.678-.852.058-.263-.244-1.492-.625-2.55-.12-.329-.193-.66-.164-.735.1-.261 1.33-1.03 1.644-1.027.062 0 .492.665.954 1.477l.84 1.476.748.028.747.028.687.878c.377.483.704.927.726.986.05.141-1.268.884-2.887 1.626-.693.318-1.31.617-1.37.666-.08.062-.113.457-.117 1.378-.003.71-.034 1.353-.066 1.43-.033.078-.462.482-.952.9l-.892.758-1.307-.493-1.306-.493-1.55.63c-.853.347-1.576.63-1.609.63-.032 0-.522-.762-1.09-1.694zm64.529.676c-2.163-1.96-2.968-2.05-3.418-.384-.084.31-.162.579-.173.595-.037.053-1.553-.352-1.94-.518-.565-.242-.741-.459-.741-.909 0-.434.397-1.314.738-1.634.24-.227 1.369-.668 2.637-1.032.84-.242.868-.258 1.132-.669.346-.54 1.266-2.549 2.195-4.793.402-.97.74-1.776.753-1.792.013-.015.53-.162 1.147-.327l1.123-.3-.057.813c-.157 2.247-.506 8.223-.556 9.527-.055 1.44-.062 1.486-.274 1.653-.167.131-1.538.64-1.633.607-.01-.004-.43-.38-.933-.837zm8.02-.142c-1.623-.092-2.964-.18-2.98-.197-.039-.039-.286-2.152-.287-2.456l-.001-.243h2.16c1.19 0 2.162-.01 2.163-.022 0-.012.096-.538.213-1.168.117-.63.203-1.156.191-1.168-.011-.011-.863-.116-1.893-.232s-1.885-.226-1.9-.244c-.015-.018-.05-.623-.079-1.346l-.05-1.314 1.074.06c.875.049 2.425.19 2.84.26.096.016.116-1.284.043-2.896l-.043-.97.882-.054c.485-.03.893-.044.908-.032.015.012.122 2.457.238 5.434.117 2.977.228 5.72.246 6.096l.034.683-.405-.011a295.7 295.7 0 0 1-3.354-.18zm5.116-1.453-.48-1.023 1.042-.982 1.043-.981-.905-4.17c-.498-2.294-.885-4.19-.86-4.215.063-.064 2.475-.746 2.51-.71.076.075 1.087 3.283 1.88 5.964 1.454 4.915 1.571 5.334 1.511 5.394-.043.044-3.593 1.225-5.085 1.692-.153.048-.237-.076-.656-.969zm-22.603-.594c-.7-.593-1.127-1.206-1.127-1.616 0-.663.875-2.62 1.818-4.066.84-1.29 2-2.302 2.643-2.309.283-.003.79-.563 1.52-1.677l.679-1.037c.02-.033 1.908.315 1.953.36.022.021-.55 1.313-1.271 2.87l-1.31 2.83-.921.68a18.308 18.308 0 0 0-1.681 1.435c-.622.618-.825.891-1.118 1.505a13 13 0 0 0-.483 1.132l-.126.382zm61.371-1.108c-.618-.315-2.549-1.796-4.316-3.31l-.689-.59.8-.828c.441-.456.843-.938.894-1.072.087-.228.063-.268-.376-.642-.704-.6-2.631-2.39-3.75-3.485l-.99-.97 1.827-1.969c1.005-1.082 1.854-1.975 1.886-1.984.051-.014 6.98 4.231 7.28 4.46.078.06-.024.34-.396 1.087-.275.554-.547 1.007-.603 1.007-.056 0-.905-.319-1.888-.708-.982-.39-1.8-.695-1.816-.678-.017.017.073.392.199.834l.229.803 1.332.766c2.246 1.292 3.939 2.5 3.939 2.809 0 .135-1.212 2.322-1.726 3.114-.519.8-1.058 1.385-1.346 1.46-.103.028-.324-.02-.49-.104zm-96.28-1.659c-.225-.284-1.938-3.697-1.938-3.86 0-.062 1.399-.944 3.109-1.962 5.886-3.504 6.894-4.078 7.152-4.078.129 0 .74.67 1.532 1.68l.453.577-3.344 2.006-3.343 2.007.395.788c.218.433.396.82.396.86 0 .088-2.17 1.374-3.145 1.863-.395.199-.8.362-.897.362-.098 0-.265-.11-.37-.243zm69.43-2.85-1.337-1.42.99-1.053c.546-.578 1.005-1.09 1.022-1.139.016-.048-.132-.42-.329-.827-.347-.717-.685-1.089-1.868-2.056-.118-.096-.237-.051-.774.292-.348.223-.684.386-.745.363-.062-.024-.595-.599-1.184-1.277l-1.073-1.234 1.948-2.37c1.07-1.304 2.04-2.482 2.154-2.619l.207-.247.845.744.845.745.772.037c.635.03.843.078 1.17.27.534.313.78.655 1.54 2.15 1.128 2.218 1.142 2.224 2.371 1.14 1.085-.956 1.272-1.015 1.92-.608.385.242 1.917 1.754 1.917 1.892 0 .043-.8 1.07-1.776 2.283l-1.775 2.205-3.598-3.638-3.598-3.638-.723.717-.723.717 3.23 3.711c1.777 2.04 3.23 3.745 3.23 3.786 0 .062-3.077 2.392-3.263 2.471-.032.013-.66-.615-1.395-1.397zm-48.218-2.788-1.149-1.19.623-.588c2.22-2.096 6.201-5.3 7.431-5.981.343-.19.88-.614 1.272-1.002l.68-.674 1.161 1.452 1.162 1.452-.545 1.095c-.3.603-.608 1.12-.684 1.149-.206.079-.377-.059-.854-.688-.236-.311-.46-.578-.497-.592-.038-.015-.38.157-.761.38-.585.343-1.162.873-3.692 3.392l-2.999 2.986zm-39.202.098a11.626 11.626 0 0 1-1.17-.673l-.685-.448-2.382.487c-2.288.468-2.386.481-2.471.321-.142-.264-.604-2.101-.539-2.14.032-.02.892-.36 1.911-.759 1.019-.398 3.715-1.46 5.992-2.36l4.139-1.635.2.25c.321.404 1.646 3.047 1.564 3.12-.042.037-.354.169-.694.292-.34.123-1.163.431-1.83.685l-1.212.461-.682.938c-.826 1.135-1.321 1.687-1.513 1.686-.078 0-.361-.102-.628-.225zm138.675.05c-.745-.156-1.186-.472-2.77-1.988-.76-.728-1.306-1.156-2.142-1.677-2.363-1.475-4.772-3.485-5.132-4.283-.16-.356-.16-.365.01-.493.246-.187 1.16-.096 1.98.198.363.13 1.276.533 2.028.895 2.036.98 2.352 1.086 3.252 1.085.419 0 1.237-.061 1.82-.135 1.422-.18 2.743-.202 3.108-.05.225.093.306.196.381.483.053.2.216.718.362 1.15.367 1.079.332 1.782-.145 2.963-.438 1.086-.688 1.453-1.136 1.668-.442.211-1.116.288-1.616.184zm-125.072-2.315c-.764-1.447-1.343-2.672-1.343-2.843 0-.025.041-.046.092-.046.148 0 4.388-2.053 5.757-2.787 1.69-.908 1.824-1.014 1.824-1.448 0-.36-.238-2.221-.319-2.49-.056-.188.05-.193 1.142-.053l.79.102 1.024.855c1.572 1.313 1.874 1.674 2.486 2.971l.529 1.121-1.878 1.88-1.878 1.88-.306-.95a25.563 25.563 0 0 0-.33-.984c-.043-.065-1.21-.267-1.566-.27-.238-.002-.706.155-1.472.494l-1.122.498.362.539c.199.296.53.763.737 1.037l.375.498-.712.325c-.566.259-3.226 1.368-3.28 1.368-.008 0-.418-.764-.912-1.697zm21.847-2.117-1.32-1.257 2.881-2.836 2.882-2.837-.117-.294a41.51 41.51 0 0 0-.588-1.3c-.258-.553-.47-1.093-.47-1.201 0-.923 3.234-2.211 3.846-1.532.15.166.165.308.143 1.32-.035 1.656-.075 1.596 1.59 2.403 1.39.674 1.918 1.064 1.918 1.416 0 .243-.377.618-.8.794-.443.185-1.785.349-2.416.295l-.532-.046-2.778 3.16c-1.528 1.736-2.81 3.16-2.848 3.165-.038.004-.664-.559-1.39-1.25zm-42.12-1.241-.255-.986-1.057-.542-1.058-.542-.496-1.354-.496-1.355 1.202-.05c.789-.034 1.31-.099 1.517-.188.462-.2.91-.706 1.29-1.456l.334-.66.706.054c2.848.22 3.024.206 6.874-.528 1.113-.212 2.03-.377 2.038-.366.02.029.49 4.033.51 4.333l.015.256-2.29.688c-1.258.379-2.302.675-2.319.658-.017-.016.048-.263.144-.547.096-.284.167-.522.159-.53-.01-.006-.79-.076-1.735-.154-.946-.078-1.929-.162-2.183-.187-.255-.025-.463-.024-.463.001 0 .075.773 2.186.964 2.631l.175.41-.239.123c-.228.118-1.713.738-2.642 1.104l-.439.173-.255-.986zm124.943.105c-.731-.199-2.423-.738-3.484-1.111l-1.147-.403-1.41-1.37c-.777-.752-1.444-1.42-1.483-1.485-.114-.191.096-1.1.307-1.325a.668.668 0 0 1 .435-.204c.133 0 .533-.15.888-.331l.646-.332.047-.727c.054-.828.178-1.027.635-1.025.407.002.89.256 1.439.758.525.48.837.93.873 1.26.046.42 1.396 1.8 2.176 2.225.435.236.475.223 2.033-.643l1.03-.573.628.62c.346.341.665.62.709.62.044 0 .181.172.304.383a1.78 1.78 0 0 1 .052 1.639c-.353.69-1.445 1.398-2.93 1.896-.7.235-1.215.273-1.748.128zm-20.065-2.776c-.922-.75-1.725-1.387-1.786-1.415-.06-.027-.687.277-1.393.676l-1.283.726-2.09-2.055a554.168 554.168 0 0 0-2.392-2.342l-.301-.287.337-.646c.695-1.332.87-1.548 1.379-1.699.286-.085.805-.137 1.365-.137 1.048 0 .97.058 1.607-1.19.198-.389.397-.761.443-.83.067-.098.275-.02 1.084.41.935.495 4.13 2.294 4.214 2.371.021.02-.068.501-.198 1.07-.13.57-.237 1.102-.237 1.184 0 .104.15.19.508.292.279.08.99.285 1.579.457l1.072.312-.664 1.38c-.365.759-.845 1.766-1.065 2.24-.221.472-.425.856-.453.853-.028-.003-.805-.62-1.726-1.37zm-86.75.436c-.09-.024-.51-.975-1.182-2.68-.573-1.454-1.026-2.658-1.007-2.676.02-.018.631-.41 1.359-.87l1.323-.839 1.586-.112 1.587-.112 1.28-.992c1.009-.782 1.339-1.092 1.56-1.464.355-.6.888-1.221 1.046-1.221.174 0 .429.29 1.004 1.146.837 1.245 1.443 2.304 1.362 2.379-.042.038-.95.634-2.017 1.322-1.067.689-2.025 1.346-2.13 1.46-.26.286-.326.903-.198 1.85.059.437.11.914.115 1.06l.008.264-1.043.09-1.043.09-.442-.597c-.535-.721-1.142-1.272-1.485-1.347-.762-.167-.888.61-.39 2.406.116.423.212.799.213.835 0 .068-1.257.075-1.506.008zm130.804-.178c-.12-.02-1.153-.22-2.293-.445-2.437-.482-3.16-.51-4.743-.18l-.996.208-.567-1.023-.567-1.023-.433-.111a6.746 6.746 0 0 1-.977-.368c-.425-.201-.571-.323-.669-.556-.14-.336-.326-1.924-.235-2.01.032-.032.575-.084 1.205-.118l1.147-.06.309.47c.197.3.452.548.705.69.358.198.494.22 1.367.217 1.12-.003 1.647-.138 3.352-.853 1.47-.617 1.599-.626 2.112-.152.427.393.998 1.436 1.192 2.175.053.206.288.623.52.926 1.384 1.809 1.455 2.285.337 2.26a8.094 8.094 0 0 1-.766-.047zm-110.575-3.33-1.255-2.512 2.49-1.753c3.332-2.347 7.162-4.97 7.637-5.231l.384-.211.257.307c.218.261 1.047 1.75 1.047 1.88 0 .024-1.28.937-2.845 2.03-3.786 2.645-5.027 3.582-5.128 3.87-.112.318.226.992.898 1.792l.518.616-1.242.81c-.683.446-1.301.833-1.374.861-.101.039-.43-.545-1.387-2.46zm91.528-.556c-.168-.02-2.193-.841-4.498-1.824-2.306-.983-4.57-1.94-5.03-2.126-.461-.186-.888-.376-.949-.421-.175-.133-.13-.351.143-.681.139-.169.421-.644.628-1.057.755-1.506 1.232-2.028 1.853-2.028.377 0 .741.233 1.29.826.436.473.452.508.645 1.483.11.549.255 1.133.324 1.298l.124.3.983-.052c.73-.039 1.02-.088 1.124-.192.113-.113.146-.392.169-1.405l.028-1.263-.376-.323c-.457-.39-2.688-1.522-4.296-2.177l-1.176-.48.057-.926c.086-1.388.053-1.327.631-1.176.858.224 2.442.562 3.022.645.438.063.619.053.804-.043.238-.123.528-.602.528-.872 0-.104.088-.142.33-.144.183-.002 1.244-.058 2.36-.124 1.116-.067 2.048-.102 2.071-.079.024.023.166.565.315 1.204l.272 1.163-.477.147c-.263.081-.496.167-.519.19-.04.04.098 1.569.194 2.149.043.264.012.304-.508.653-.305.204-.568.383-.585.396-.017.013.016 1.267.072 2.787.09 2.406.122 2.777.251 2.878.082.065.446.283.81.486.545.303.667.41.69.61.027.242.025.243-.486.23a12.17 12.17 0 0 1-.818-.052zm-20.156-1.314-.993-.083-.639-.052v-2.887l-4.065-2.047c-2.236-1.126-4.083-2.092-4.104-2.147-.02-.055.122-.88.317-1.834.195-.955.355-1.756.355-1.781 0-.043.833-.49.913-.49.02 0 .185.347.366.771.398.932.414.954.92 1.21 1.125.569 2.614.771 3.294.448.447-.213.99-.848 1.2-1.402l.17-.454.716.027c.393.015.87.054 1.059.088l.343.061-.662.74-.663.74.058.495c.146 1.253.522 1.777 1.324 1.843.507.042 1.737-.197 2.677-.52.267-.092.502-.15.522-.13.02.02-.456 1.697-1.059 3.727l-1.096 3.69-.3.008a6.987 6.987 0 0 1-.653-.021zm-112.747-.516c-.695-.212-1.278-.399-1.295-.415-.056-.056-.946-8.368-.902-8.413.055-.055 3.156-.329 3.202-.283.018.018.078.765.134 1.66.056.896.114 1.642.129 1.658.04.044 7.392.014 7.436-.03.021-.021.058-.416.082-.879.035-.659.072-.84.173-.84.071 0 .58.085 1.129.188l1 .188.225.98c.694 3.02.83 3.627.816 3.634-.008.005-2.278.175-5.043.378-2.765.204-5.174.392-5.353.419l-.326.048.053 1.051c.044.87.031 1.05-.071 1.046-.068-.003-.693-.178-1.389-.39zm152.658-1.109a1.52 1.52 0 0 1-.357-.217c-.176-.16-1.708-.53-2.952-.715-.779-.115-1.215-.129-2.205-.067-1.982.122-2.586.096-3.025-.13-.588-.304-.636-.515-.26-1.147.569-.954.57-.95-.72-2.332-1.15-1.234-1.236-1.552-.485-1.812.632-.218 3.035.032 5.03.522 1.275.314 2.107.425 2.472.33.354-.091 1.07-.866 1.4-1.513l.262-.515.617.05 1.919.154 1.3.104v.317c-.001.298-.125 1.232-.22 1.655-.046.201-.15.23-1.24.341l-.533.055.07.677c.159 1.511.287 1.869.963 2.68.423.51.65.854.593.904a16.84 16.84 0 0 1-.78.353c-.792.347-1.484.461-1.85.306zM61.09 183.352c-.8-.216-1.11-.577-.956-1.115.044-.154.262-.57.483-.926.488-.783.612-1.115.534-1.432-.035-.144-.427-.599-.966-1.123-.944-.919-1.205-1.29-1.218-1.733-.013-.448.19-.557 1.103-.59.9-.031 1.616.097 3.54.636 1.312.368 1.637.39 2.044.138.161-.1.781-.69 1.378-1.313l1.085-1.131 1.41-.321c.776-.177 1.497-.34 1.603-.363.13-.029.208.008.24.112.091.295.223 1.75.283 3.124l.06 1.382-.432.06c-.475.066-.91.154-2.945.599l-1.367.298-.03.3c-.016.166.04.53.125.809.084.279.137.52.117.536-.02.015-.937.511-2.038 1.102l-2.002 1.073-.82-.006c-.452-.003-1.005-.055-1.23-.116zm115.927-.214c-.311-.154-.463-.283-.463-.394 0-.282 1.048-4.857 1.33-5.807.335-1.127.387-1.224.66-1.224.266 0 1.097.406 1.097.536 0 .11-1.999 6.762-2.095 6.973-.06.13-.115.12-.53-.084zm-96.46-.47a46.282 46.282 0 0 1-.224-.737c-.101-.34-.204-.683-.229-.763-.034-.112.241-.294 1.218-.805 1.537-.805 2.666-1.462 3.391-1.973.764-.539 1.095-1.246 1.39-2.965l.057-.332 2.83.023 2.831.024.292.793c.16.437.293.854.295.927.003.095-.237.19-.856.339-3.248.781-4.923 1.765-4.756 2.794l.046.284-2.969 1.198a650.343 650.343 0 0 1-3.123 1.255c-.092.034-.17.01-.194-.062zm-35.687-4.584c-.025-.94-.244-3.36-.31-3.424-.113-.11-4.028-1.404-4.455-1.472l-.345-.055v-3.77h5.222l-.047.198c-.026.11-.074.427-.108.706-.057.476-.049.507.125.507.102 0 1.823.178 3.823.397 2.001.218 3.688.397 3.75.397.086 0 .111.408.111 1.81v1.81l-.683-.05c-1.301-.095-5.002-.295-5.026-.272-.013.013.022.745.078 1.627.057.882.087 1.619.067 1.638-.02.019-.522.063-1.116.098l-1.08.064-.007-.21zm34.402.081c0-.02.138-.378.306-.795.448-1.111.633-2.143.496-2.76-.132-.588-.666-1.413-1.224-1.89-.291-.249-.372-.363-.28-.396l4.054-1.449 3.924-1.403 2.37-.065 2.37-.065-.054.782c-.029.43-.078 1.249-.109 1.818-.03.57-.08 1.036-.111 1.035-.095-.003-5.955.716-6.142.753-.143.028-.317.43-.926 2.146l-.75 2.111-1.013.055-1.963.107c-.521.029-.948.036-.948.016zm110.732-.4c-.36-.051-1.66-.354-2.227-.519l-.463-.134v-1.91l.551-.092c.303-.051.744-.12.98-.153l.428-.06-.056-.364c-.03-.2-.117-.705-.192-1.123l-.137-.759-1.425-.062c-.784-.035-1.436-.073-1.449-.086-.038-.039.174-1.444.232-1.536.048-.076 1.583-.023 3.067.106l.456.04.061-.743.062-.743 1.445-.019c2.643-.035 2.548-.04 2.538.114l-.073 1.111-.063.972.638-.097.637-.096.295-.693c.163-.38.407-.857.543-1.058l.246-.366 1.118.005c.615.003 1.136.024 1.159.046.083.084.162 3.78.099 4.697l-.065.955-.234-.058a48.358 48.358 0 0 1-1.777-.607l-1.543-.547-1.435.035-1.434.035.059 1.828.058 1.83-.608.057c-.635.06-1.044.058-1.491-.006zm-40.321-3.291c-.154-.047-.67-.346-1.147-.664l-.867-.578-.424-.842c-.234-.462-.405-.86-.38-.885.037-.038 7.583-.454 8.396-.463.271-.003.271-.003.374.68.152 1.008.311 2.491.271 2.526-.019.017-1.047.076-2.284.132-1.237.055-2.566.118-2.954.14-.388.021-.832 0-.985-.046zm-91.299-.66a2.665 2.665 0 0 1-.155-.56c-.065-.403.047-.638.93-1.951.341-.51.621-1.014.621-1.122 0-.118-.28-.52-.71-1.014-.85-.981-1.176-1.496-1.1-1.736.081-.258.706-.515 1.502-.618.388-.05 2.65-.176 5.027-.279l4.322-.187.745.354.744.353.412 1.044c.226.574.407 1.05.402 1.059-.005.008-.85.144-1.876.302l-1.866.287-.063 1.749-.064 1.748h-2.079l-.195-.402a1.63 1.63 0 0 0-1.27-.898c-.35-.04-.424-.015-.657.218-.317.317-.42.785-.294 1.336.069.302.066.423-.01.472-.057.036-1.04.066-2.184.067h-2.08l-.102-.223zm121.39-.583c-.938-.803-.5-.732-4.819-.781-2.12-.025-3.878-.068-3.906-.096-.029-.028-.208-.435-.398-.903l-.347-.852 1.295.05c.712.028 2.975.1 5.029.162 3.032.09 3.749.134 3.813.235.146.23.068 2.64-.085 2.638-.03 0-.291-.204-.582-.453zm-99.268-4.973c-1.14-.705-2.08-1.311-2.091-1.346-.011-.035.306-.26.705-.501.913-.552 1.74-1.335 1.74-1.647 0-.44-.621-1.94-.898-2.168-.064-.053-.381-.202-.704-.331l-.588-.235-.032-1.383a38.621 38.621 0 0 1-.02-1.408c.028-.053 12.696 3.459 12.748 3.534.077.113.276 3.28.24 3.811l-.03.441h-8.094l-.416 1.151c-.229.633-.432 1.2-.452 1.258-.022.066-.833-.386-2.108-1.176zm67.48.333a20.948 20.948 0 0 1-.17-.699l-.08-.367.583-.13c.322-.07 1.934-.418 3.584-.771 1.649-.354 3.025-.666 3.058-.694.032-.028-.007-.448-.089-.933l-.147-.882-1.764-.163c-.97-.09-1.78-.178-1.8-.197-.036-.036.238-1.371.293-1.426.04-.04 5.976-.462 6.496-.463h.403l.444 2.158.444 2.158-.204 1.205c-.111.662-.217 1.218-.234 1.235-.028.028-9.338.298-10.315.3-.406 0-.417-.007-.503-.33zm39.337.103c-.516-.139-1.153-.462-1.518-.77l-.23-.193.07-1.707c.038-.938.095-1.732.126-1.762.03-.031 1.79-.124 3.908-.206 2.119-.082 3.905-.153 3.97-.156.084-.004.1-.08.059-.27-.05-.23-.033-.265.131-.265.104 0 1.123-.063 2.264-.14 1.14-.076 2.097-.116 2.126-.087.046.047-.101 1.232-.21 1.688-.034.139-.22.24-.779.421l-.734.24-.113.883c-.062.486-.138.9-.168.918-.031.02-1.602.166-3.492.326l-3.435.292-.358.367c-.213.217-.5.406-.706.463-.407.113-.318.117-.911-.042zm-138.489-.103-2.612-.025-.05-.497c-.03-.274-.092-.523-.141-.553-.05-.03-1.351-.165-2.894-.299-1.542-.134-2.913-.265-3.047-.291l-.242-.047v-3.983l2.315.06c1.273.032 3.133.084 4.132.115l1.817.057.058-.367.059-.366h3.463l-.06.816c-.056.754-.078.829-.3.986-.51.363-1.077 1.018-1.077 1.244 0 .253.48.74 1.19 1.207.43.283.441.303.545.907.059.34.109.726.112.86.005.226-.017.24-.325.221-.182-.011-1.506-.031-2.943-.045zm127.764-.083c-5.664-.247-7.788-.391-8.316-.566-.656-.217-1.031-.508-1.157-.897-.11-.342-.006-.876.236-1.203.224-.303.707-.624.937-.625.339 0 .743-.335 1.19-.987.244-.354.494-.71.557-.792.097-.125.375-.157 1.834-.207l1.72-.059.28.568.278.569.603.056c.332.032.778.058.991.058l.389.001-.058-1-.057-1 2.227-.369c1.225-.203 2.256-.368 2.293-.367.036.001.066.438.066.971v.97l-.842.393c-1.04.487-1.516.855-1.731 1.342-.204.46-.175.607.34 1.725.668 1.455.585 1.522-1.78 1.419zm-110.14-4.127c-.911-.11-1.68-.223-1.71-.251-.078-.079.572-1.665.934-2.28.436-.74.607-.842 1.094-.657.207.08.653.388.99.686.677.599.738.745.87 2.09l.063.631-.292-.01c-.16-.005-1.038-.1-1.949-.209zm-8.435-.376c.004-.085.094-.75.2-1.478l.193-1.323.793-.054c.435-.03 1.358-.082 2.049-.116l1.257-.062v1.373c0 1.067-.026 1.373-.115 1.373-.063 0-1.06.1-2.214.22-1.155.122-2.115.221-2.134.221-.02 0-.033-.07-.029-.154zm127.85-1.845c-.032-.032-.059-.821-.059-1.753v-1.694l.75-.157c.414-.087.764-.141.78-.122.015.02.18.313.367.651.421.764 1.047 1.407 1.448 1.487.393.08.87-.059 1.312-.379.46-.333.512-.441.584-1.193.032-.34.08-.783.108-.985l.049-.366 1.028-.055c.565-.03 1.414-.077 1.887-.105l.86-.052v-.431c0-.39.02-.432.198-.432.34.001 2.225.189 2.262.226.02.019.14 1.012.27 2.207.158 1.463.204 2.182.141 2.201-.051.016-1.155.083-2.453.149l-2.36.12-.377.37-.378.372h-3.179c-1.748 0-3.205-.027-3.238-.06zm-14.964-1.582a11.88 11.88 0 0 0-1.346-.57c-.732-.237-1.313-.193-2.45.188a12.39 12.39 0 0 1-.825.259c-.03 0-.053-.573-.053-1.273 0-1.136.016-1.278.154-1.319.47-.138 11.276-2.524 11.433-2.524.108 0 1.73 4.19 1.76 4.542.024.291-.575.191-1.394-.233l-1.281-.663a5.854 5.854 0 0 0-1.235-.436c-1.635-.343-2.64.165-3.635 1.84-.195.327-.36.588-.366.58-.007-.008-.35-.184-.762-.39zm-81.538-.265-4.146-1.009c-1.408-.341-2.613-.654-2.68-.695-.066-.041-.177-.405-.246-.812-.165-.964-.338-1.304-.778-1.528-.433-.22-.794-.852-1.192-2.086l-.274-.848.555-1.115c.305-.613.595-1.113.645-1.112.05.001.883.336 1.854.743 1.436.602 1.776.778 1.83.945.035.114.186 1.198.334 2.41.148 1.213.297 2.231.331 2.263.034.032.876.296 1.87.588 1.731.509 3.175.994 3.426 1.152.134.086.265 1.516.137 1.502a80.138 80.138 0 0 1-1.666-.398zm-19.825-.539-1.567-.4.043-.275c.023-.152.067-.656.097-1.121l.055-.846-1.132-.153c-.623-.084-1.2-.172-1.283-.196-.134-.038-.154.055-.176.822l-.026.865-.926-.032c-.509-.017-.935-.04-.946-.05a19.85 19.85 0 0 1-.233-1.087c-.229-1.15-.452-1.725-.687-1.768-.317-.059-.746.634-1.215 1.964-.153.435-.293.805-.31.822-.044.045-2.694-1.494-2.694-1.564 0-.216 1.799-5.085 1.933-5.23.033-.037.555-.028 1.158.02.604.048 1.674.097 2.377.109 1.279.021 1.279.021 1.808-.254.291-.151.994-.617 1.563-1.034.568-.418 1.213-.847 1.434-.954.366-.178.444-.185.907-.09.492.1 3.1 1.337 3.267 1.548.045.057.106.743.137 1.524l.056 1.42-1.477.06c-.812.033-1.702.083-1.976.111l-.5.052-.052 1.026c-.03.564-.074 1.349-.1 1.743l-.047.718 1.326.463c.73.255 1.327.503 1.327.551 0 .049-.047.44-.104.87-.094.703-.122.781-.287.774-.1-.005-.887-.188-1.75-.408zm75.533-4.199c-.346-.838-.63-1.568-.63-1.622 0-.079 9.466-6.807 9.683-6.882.045-.016 2.79 5.842 3.087 6.59.013.034-.62.299-1.41.589l-1.433.527-.482-.52c-.556-.602-1.249-1.032-1.66-1.034-.536 0-2.676 1.223-5.222 2.987-.604.419-1.144.79-1.201.825-.07.044-.304-.42-.732-1.46zm-54.768.952c-1.612-.162-2.307-.42-2.307-.855 0-.264.418-1.448.8-2.265.192-.408.337-.75.325-.762-.013-.011-1.372-.696-3.022-1.523a260.198 260.198 0 0 1-3.54-1.796l-.54-.293.543-.943c.298-.518.567-.967.597-.997.03-.03 1.29.563 2.798 1.318 1.509.754 2.773 1.372 2.81 1.372.037 0 .117-.11.176-.246.335-.755 1.02-1.332 1.454-1.223.586.147 2.145 1.94 2.396 2.756.043.141-.058.326-.421.77-.264.32-.549.766-.634.99l-.155.406.417 1.294c.305.944.41 1.402.39 1.691l-.029.397-.44.014c-.243.008-.971-.04-1.618-.105zm76.916-1.505c.027-.044.648-.516 1.379-1.05 1.09-.796 1.347-1.025 1.431-1.279.291-.877 1.042-2.082 1.609-2.582 1.168-1.032 2.27-.753 3.151.796.117.206.262.374.32.375.06 0 .549-.123 1.087-.273.539-.15.997-.255 1.02-.233.05.051.488 1.848.456 1.873a528 528 0 0 1-5.077 1.187c-2.78.643-5.137 1.191-5.24 1.218-.102.027-.163.012-.136-.032zm-123.93-1.145c-1.716-.212-3.135-.399-3.151-.415-.016-.016-.001-.464.034-.995l.065-.964 1.491.034 1.491.034-.051-1.459-.052-1.458.386-.205c.354-.188.413-.195.72-.085.375.132 7.549 3.185 7.602 3.234.047.043-.267 1.564-.34 1.648-.091.106-2.585-.098-2.66-.218-.035-.058-.042-.288-.015-.513l.048-.409-1.003.032c-1.22.039-1.752.1-1.752.202 0 .043.043.189.096.326.053.136.211.555.351.931l.254.684-.196-.01c-.108-.004-1.601-.182-3.318-.394zm121.086-1.244c0-.04-.223-1.254-.496-2.7-.273-1.445-.475-2.65-.449-2.675.026-.026 1.007-.223 2.18-.437 2.635-.481 4.123-.85 4.708-1.163.278-.15 1.068-.85 2.087-1.847l1.64-1.607 1.096 1.952c.603 1.073 1.108 2.001 1.123 2.061.023.092-2.43 1.113-4.862 2.024-.529.198-1.458 1.051-2.424 2.225l-.87 1.055c-.121.147-.57.307-1.793.644-.898.246-1.701.469-1.786.494-.085.026-.154.014-.154-.026zm-20.938-1.596c-.322-.37-.575-.7-.562-.736.013-.036.906-.823 1.986-1.749 1.08-.926 1.962-1.714 1.962-1.751 0-.038-.237-.444-.528-.902-.29-.46-.529-.86-.53-.89 0-.03 1.048-1.073 2.328-2.316l2.328-2.262 1.778 2.392c.978 1.316 1.757 2.414 1.73 2.441a62.57 62.57 0 0 1-1.306.95l-1.257.9-.348-.348c-.385-.385-.912-.687-1.197-.687-.31 0-.677.243-.895.593-.166.267-.207.455-.207.956v.624l-1.278.938c-.704.516-1.76 1.294-2.348 1.728l-1.07.79zm-49.444-1.929c-1.813-1.583-3.995-3.338-4.542-3.655-.243-.14-.562-.255-.71-.256-.37 0-1.021.432-1.377.915-.162.22-.314.402-.339.404-.034.003-2.704-2.249-3.03-2.555-.04-.039.541-.808 1.294-1.709l1.369-1.638 1.97 1.511c3.198 2.454 6.855 5.21 7.636 5.754.4.28.728.52.728.534 0 .1-1.527 1.907-1.601 1.894-.017-.003-.646-.543-1.398-1.199zm92.75.638c-.444-.165-.936-.644-1.477-1.44-.24-.352-.444-.643-.455-.647-.01-.004-.546-.073-1.19-.154-.645-.081-1.175-.187-1.179-.236a16.5 16.5 0 0 1 .055-.872l.061-.785 1.123.06 1.124.059.39-.297c.81-.616 1.055-.64 1.807-.183.75.457 1.057.47 2.303.092.574-.174 1.208-.342 1.41-.373.2-.032.472-.128.603-.214.325-.213.868-.885 1.292-1.598.328-.553.379-.598.765-.683 1.188-.26 1.657-.193 1.94.276.192.318.492 1.203.635 1.872.051.243.115.51.14.596.042.135-.019.154-.481.154-.438 0-.574.039-.797.226-.586.493-.412 1.202.577 2.363.893 1.046 1.108 1.383.982 1.535-.137.165-.991.116-2.935-.17a18.383 18.383 0 0 0-2.426-.194c-1.054-.001-1.14.013-1.968.323-1.014.379-1.795.478-2.3.29zm-139.495-2.165c-4.412-1.797-4.717-1.935-4.707-2.13.006-.116.063-.806.126-1.533l.115-1.323.37-.363c.245-.24.566-.433.948-.57l.578-.208.108-.576c.06-.317.172-.627.25-.69.077-.062.412-.309.745-.548l.605-.435.317.133c.599.25 2.026 1.264 2.22 1.578.349.565.37.8.13 1.484-.12.342-.217.749-.217.903 0 .528.538.92 1.933 1.403.897.311.95.319 2.173.31 1.184-.01 1.281.002 1.748.223.979.463 1.135.792 1.046 2.193-.035.545-.071.675-.187.676-.462.002-1.737.197-1.921.293a.879.879 0 0 0-.324.329c-.115.232-.978.793-1.2.78-.076-.003-2.26-.872-4.856-1.929zm15.063 1.742c-.312-.476-.782-1.508-.715-1.57.095-.087 3.855-.706 4.284-.705.308 0 .33.019.33.263 0 .144-.17.59-.38.992l-.38.73-1.045.19c-1.815.33-1.94.336-2.094.1zm77.611-3.038c-1.006-1.19-1.812-2.193-1.79-2.228.02-.034 1.546-1.204 3.389-2.6l3.35-2.537.266-1.117c.145-.615.33-1.407.41-1.761.08-.355.175-.633.21-.618.222.093 2.995 2.427 2.98 2.51-.01.055-1.419 1.552-3.132 3.327l-3.114 3.228.894 1.098c.548.672.884 1.16.865 1.255-.041.216-.74.726-1.658 1.21-.425.225-.788.405-.807.402-.018-.003-.857-.979-1.863-2.17zm-46.943-3.92a626.153 626.153 0 0 1-4.833-4.123c-.152-.152-.128-.178.616-.68.426-.288.822-.554.879-.59.064-.041.337.148.71.49 1.474 1.352 3.243 2.73 4.054 3.156.65.343 1.482.368 1.777.054.222-.237.476-1.006.405-1.231-.087-.277-.548-.425-1.631-.525l-1.057-.097-1.45-1.815c-1.362-1.703-1.442-1.824-1.299-1.958.32-.297 3.69-3.382 3.88-3.55l.198-.177.23.214c.125.117.382.396.57.619l.34.405-.347.69c-.19.378-.393.9-.451 1.16-.094.417-.088.49.05.642a.893.893 0 0 0 .403.226c.32.07 1.202-.091 1.975-.36.484-.17.635-.19.737-.106.476.395 3.471 4.737 4.084 5.92.357.69.336.76-.354 1.177l-.466.282-.689-.56c-1.136-.926-1.866-1.286-2.164-1.068-.115.084-.137.183-.093.418.071.378.64 1.567 1.073 2.245l.32.501-1.307 1.31c-.719.72-1.347 1.307-1.397 1.303-.049-.003-2.192-1.79-4.763-3.972zm68.91 1.957-.497-1.244 1.734-1.028a8990 8990 0 0 0 4.987-2.96l3.254-1.933.435.426c.24.234.87.888 1.4 1.452l.964 1.027-1.574.63c-1.325.531-1.629.688-1.92.99-.792.827-2.206 2.04-2.62 2.25-.426.215-4.694 1.478-5.353 1.583l-.314.05zm-87.985-1.661c-1.562-1.903-2.6-3.054-3.104-3.443-.233-.18-1.324-.962-2.424-1.739l-2-1.41 2.056-.051c1.555-.038 2.202-.088 2.655-.207.505-.131.622-.137.748-.038.083.066 1.493 1.365 3.134 2.889 2.84 2.637 2.976 2.777 2.824 2.918-.089.081-.743.67-1.455 1.309l-1.294 1.16zm109.962-.418c-.315-.607-.613-1.088-.661-1.07-.816.297-2.628.843-2.684.808-.099-.06-.393-1.163-.655-2.456l-.212-1.04.673-.338c.37-.186 2.3-1.121 4.289-2.08a534.971 534.971 0 0 0 5.017-2.442c1.154-.577 1.421-.68 1.512-.584.162.17.961 1.586 1.797 3.181.827 1.58.85 1.376-.19 1.704l-.509.16.058.446c.031.246.149.902.26 1.458.113.556.19 1.026.171 1.044-.142.142-.901.186-1.861.108l-1.097-.089-.594-.64c-1.305-1.406-2.228-2.184-2.591-2.184-.213 0-.282.285-.21.86.072.578.475 2.048.793 2.893.176.467.201.615.114.67-.098.06-1.814.487-2.582.64-.262.053-.271.042-.838-1.049zm-130.797.657c-.557-.034-1.119-.067-1.247-.073-.132-.007-.26-.078-.294-.166-.033-.085-.1-.848-.148-1.697a40.152 40.152 0 0 0-.103-1.55c-.009-.006-1.444-.774-3.19-1.71a308.469 308.469 0 0 1-3.209-1.73c-.018-.017.076-.469.209-1.005.213-.861.263-.973.43-.972.103.001.843.08 1.643.176.8.096 1.643.175 1.872.175.405 0 1.318-.307 2.112-.713l.352-.18 1.382.736 1.382.737.044 1.184.044 1.184.309.063c.17.035.916.145 1.66.245.766.103 1.43.238 1.536.312.102.071.36.34.572.596.447.538.448.579.057 1.856l-.237.772h-3.035l-.15.771c-.081.425-.169.842-.194.926-.049.17-.03.17-1.797.063zm82.493-1.144a.67.67 0 0 1-.292-.263c-.28-.522.844-2.65 2.672-5.06l.526-.694-.232-.746c-.321-1.036-.538-2.146-.472-2.41.031-.123.18-.41.333-.64.376-.568 1.92-2.18 2.088-2.18.247 0 5.05 2.988 5.05 3.142 0 .021-.953.98-2.118 2.13l-2.119 2.092.147.396c.08.219.163.715.184 1.103.043.822-.1 1.197-.573 1.513-.348.233-1.337.471-1.954.471-.402 0-.497.043-.993.442-.817.659-1.685.93-2.247.704zm-58.68-3.81c-1.986-1.734-3.727-3.38-4.288-4.052-.467-.56-.651-.713-1.029-.854-.575-.214-1.532-.365-2.372-.374a9.077 9.077 0 0 1-1.022-.066l-.378-.06 1.576-2.072c.866-1.14 1.618-2.073 1.671-2.073.053 0 2.103 1.978 4.556 4.395l4.46 4.395-.77.593c-.425.325-.91.696-1.08.823l-.309.231zm32.254-.998c-.533-.623-.943-1.276-.943-1.503 0-.302.295-1.006.76-1.812l.406-.703-.321-.485c-.49-.738-.927-1.18-1.37-1.386-.504-.236-2.031-1.75-2.552-2.532-.363-.545-.38-.598-.337-1.074.076-.854.561-1.483 1.143-1.483.248 0 .746.306 1.778 1.094.91.694 1.12.725 2.152.311.37-.148.69-.286.71-.306.02-.02.16-.622.312-1.339l.275-1.302 1.72-.41c.945-.224 1.743-.394 1.775-.376.124.073.36 1.301.318 1.666-.047.423-.416 1.198-1.177 2.472l-.495.83.031 3.931c.03 3.872.029 3.932-.145 3.973-2.812.652-3.604.833-3.65.83-.03 0-.206-.18-.39-.396zm16.74-.221a233.14 233.14 0 0 1-2.127-.43c-.006-.005.083-.532.196-1.171.114-.64.188-1.183.164-1.207-.024-.024-.45-.15-.946-.278l-.903-.235-.055-3.431c-.031-1.888-.05-3.438-.045-3.446.006-.008.627-.062 1.38-.122.751-.06 1.386-.127 1.41-.148.024-.021.064-.548.088-1.17l.045-1.13 1.984.792c1.091.435 2.01.818 2.042.85.032.033-.236.731-.595 1.552-.36.82-.653 1.5-.653 1.509 0 .01.506.366 1.124.792a45.85 45.85 0 0 1 1.197.839c.058.05-2.11 6.905-2.172 6.868-.01-.005-.97-.201-2.134-.434zm52.297-.854c-.23-.426-.513-.94-.629-1.14l-.21-.365 1.81-1.556c.997-.855 1.811-1.604 1.811-1.663 0-.06-.1-.604-.22-1.21a18.264 18.264 0 0 1-.276-1.94c-.05-.75-.037-.854.11-.985.228-.2 1.108-.453 3.024-.867.893-.193 1.72-.415 1.84-.494.238-.155.238-.13.056-2.263-.056-.65-.05-.684.123-.684.228 0 1.588 1.441 2.62 2.777.412.534.748.99.747 1.015-.002.025-.248.184-.548.354-.3.17-1.069.656-1.71 1.081-1.136.756-1.764 1.315-1.661 1.482.154.248 1.281.02 3.52-.714.726-.238 1.328-.423 1.34-.412.076.076.385 2.389.326 2.443-.04.038-2.68 1.384-5.864 2.992l-5.79 2.923zm-62.31-.267c-.002-.085-.06-.89-.13-1.787a83.664 83.664 0 0 1-.13-1.817c-.001-.163.08-.2.655-.299l.657-.112.05-.451c.06-.526.577-6.85.577-7.058 0-.123.176-.14 1.389-.141h1.389l-.028 5.71c-.015 3.14-.036 5.717-.046 5.726-.01.01-.85.08-1.868.157-1.018.076-2 .159-2.181.183-.274.037-.332.018-.334-.11zM57.576 134.3a19.638 19.638 0 0 1-.912-.652c-.04-.04.052-.465.206-.943.154-.479.302-1.153.328-1.499l.049-.628-.381-.413c-.776-.842-3.514-1.846-4.227-1.55-.508.21-1.081 1-1.33 1.83-.061.207-.144.375-.185.375-.04 0-.41-.167-.823-.372-.867-.43-.855-.397-.524-1.436.327-1.025.374-1.978.137-2.759-.103-.34-.188-.696-.188-.79 0-.19.559-1.092 1.036-1.675l.306-.373-.063-.707-.063-.707h2.561l4.925 3.228c2.709 1.776 4.96 3.262 5.002 3.302.045.042.038.328-.016.674-.073.467-.235.87-.725 1.801l-.63 1.2-.753.059c-.414.031-.788.08-.83.105-.043.027-.5.602-1.017 1.278-.517.676-.964 1.23-.993 1.23-.029 0-.43-.26-.89-.578zm23.486-.157-.635-.375.302-.24c.358-.286 1.194-1.31 1.398-1.71.266-.525.147-.949-.313-1.111-.42-.149-1.342.433-2.252 1.422l-.46.5-2.02-2.017-2.02-2.016.165-.63c.091-.346.191-.934.222-1.306.052-.632.04-.703-.19-1.097-.136-.23-.52-.693-.853-1.026l-.607-.607 1.91-.924c1.05-.509 1.919-.913 1.93-.899l3.694 4.109c2.02 2.246 3.672 4.123 3.672 4.173 0 .142-3.104 4.136-3.21 4.132-.054-.002-.383-.173-.733-.378zm73.317-1.05c-.61-.641-1.11-1.193-1.11-1.225 0-.033.83-1.005 1.844-2.16l1.843-2.102-1.531-1.597-1.531-1.597 1.865-3.007 1.865-3.007 1.514 1.03 1.514 1.03-.294.687c-.507 1.184-.751 2.086-.721 2.66.068 1.294.875.778 2.741-1.755.043-.058.211.06.448.317.422.457 1.468 1.949 1.468 2.094 0 .087-8.69 9.8-8.768 9.8-.02 0-.536-.526-1.147-1.168zm5.025-.075c-.318-.394-.578-.742-.578-.773 0-.032.83-1.118 1.844-2.414l1.843-2.356.744 1.202.744 1.202-1.89 1.86c-1.04 1.023-1.945 1.89-2.01 1.927-.083.048-.295-.15-.697-.648zm-9.704-4.396c-1.309-1.205-2.416-2.249-2.46-2.32-.06-.094.633-1.194 2.659-4.22 3.216-4.806 4.038-5.981 4.232-6.056.127-.049 2.195.933 2.617 1.241.126.093-.145.517-2.208 3.456a767.324 767.324 0 0 0-2.483 3.549c-.126.192-.081.25 1.387 1.784l1.518 1.585-.163.205c-.359.452-2.626 2.974-2.672 2.97-.026-.001-1.119-.989-2.427-2.194zm25.795.825a88.371 88.371 0 0 1-1.131-1.447c-.104-.147-.063-.276.33-1.063.522-1.041.571-1.412.22-1.643-.203-.132-.291-.137-.76-.04-.291.06-.824.255-1.184.433-.514.254-.686.303-.806.229-.21-.13-.365-.473-.42-.93l-.048-.383 2.958-2.897 2.958-2.896.382.185c.21.101.543.323.741.493.198.169.403.308.456.308.052 0 .758-.636 1.568-1.413s1.503-1.402 1.541-1.39c.038.014.683.893 1.432 1.955l1.364 1.931-.767.587c-.422.322-2.364 1.788-4.316 3.257l-3.548 2.67v.33c0 .348.368 1.046.876 1.662l.27.328-.504.51c-.277.28-.525.508-.55.507-.026 0-.504-.578-1.062-1.283zm-92.468-5.03-4.036-4.638 1.082-1.03 1.082-1.031.592.576c1.096 1.066 2.12 1.493 2.55 1.063.16-.16.184-.255.137-.518-.087-.481-.433-1.191-.984-2.019-.27-.407-.478-.752-.46-.767.016-.015.391-.23.832-.477 1.205-.676 2.107-1.084 2.263-1.024.206.079.532.61 1.206 1.963 1.144 2.297 1.63 3.532 1.546 3.933-.03.15-.271.683-.533 1.184l-.478.91 1.462 1.683c1.176 1.355 1.438 1.704 1.345 1.788-.092.084-2.823 2.414-3.43 2.926-.122.103-.635-.451-4.176-4.521zm-23.17-.886a3143.88 3143.88 0 0 1-5.351-3.929l-.821-.607.235-.283c.576-.695 2.347-2.62 2.41-2.62.038 0 .471.24.963.535l.894.535-.214.325c-.276.418-.486 1.018-.486 1.39 0 .642.378.986 1.172 1.068.4.041.813-.015 2.092-.283.19-.04.583.289 2.91 2.433 1.48 1.364 2.69 2.516 2.69 2.561 0 .103-1.81 2.196-1.898 2.196-.037 0-2.105-1.495-4.596-3.321zm32.39.09-.828-.933.14-.586c.079-.323.168-.904.2-1.292.053-.646.036-.761-.201-1.373-.392-1.008-2.166-3.913-3.481-5.701-.186-.253-.338-.477-.338-.5 0-.055 1.104-.838 1.273-.903.093-.036.43.226 1.042.81.985.938 2.05 1.817 2.46 2.029.247.128.282.121.72-.132.252-.147.855-.563 1.34-.925.838-.625.889-.65 1.015-.494.072.09.425.543.782 1.007l.65.844-.358.552c-.496.765-.882 1.57-.947 1.976-.043.27-.015.391.133.58.226.287 1.266.82 2.375 1.217.645.23.79.313.699.396-.256.233-5.638 4.287-5.74 4.323-.06.021-.48-.382-.936-.895zm76.702-2.194-1.123-1.163 4.817-4.681 4.816-4.681 1.363 1.644 1.363 1.645-.217.179a403.9 403.9 0 0 0-1.954 1.666c-2.046 1.75-3.943 3.282-4.668 3.767-.622.416-.933.437-1.687.115-.291-.124-.676-.287-.854-.361-.385-.161-.733-.098-.87.158-.137.255-.115 1.319.044 2.147.074.385.124.706.113.714-.011.008-.526-.51-1.143-1.149zm-28.717-.317-1.51-1.332.136-.322c.074-.177 1.01-2.425 2.078-4.996a476.342 476.342 0 0 1 2.006-4.788c.045-.08.512.179 1.645.915.87.565 1.596 1.039 1.612 1.053.016.015-.196.41-.47.877-.652 1.107-1.103 2.089-1.102 2.4.002.581 1.06 1.916 2.854 3.6l1.033.97-1.362 1.178c-.75.648-1.382 1.184-1.404 1.19-.023.008-.55-.378-1.17-.857-1.062-.818-1.137-.86-1.253-.705-.067.09-.44.61-.829 1.156-.388.546-.717.993-.73.993-.013 0-.703-.6-1.534-1.332zm-71.592-1.888.06-2.469 1.11-1.117 1.11-1.116-.059-.57c-.08-.78-.281-1.415-.55-1.735-.374-.444-.96-.365-2.44.326-.473.222-.872.387-.887.367-.015-.02-.942-1.048-2.06-2.285s-2.048-2.286-2.066-2.33c-.035-.083 2.883-2.609 3.013-2.609.102 0 8.679 8.71 8.705 8.841.017.086-5.478 6.675-5.903 7.079-.066.062-.075-.652-.033-2.382zm66.988.252c-1.496-.793-2.512-1.604-2.728-2.178-.107-.286-.04-.619.323-1.601.483-1.308 3.358-7.715 3.557-7.928.082-.087 1.787-.49 2.085-.493.169-.002.212.082.343.671l.15.674-.902 1.774c-1.048 2.062-1.077 2.22-.489 2.63.194.135.562.295.816.355.255.06.463.144.463.186 0 .042-.255.559-.566 1.148a20.397 20.397 0 0 0-1.009 2.35 45.215 45.215 0 0 1-.78 2.09l-.34.812zm-73.614-1.32a63.854 63.854 0 0 1-1.685-1.394l-.202-.193 1.018-.994c.937-.917 1.017-1.02 1.017-1.323 0-.402-.388-1.211-.608-1.269-.39-.101-1.143.338-2.275 1.325l-.659.575-.485-.475c-.266-.262-.52-.54-.564-.62-.064-.117.242-.426 1.591-1.61.92-.805 1.71-1.465 1.756-1.465.067 0 3.05 2.822 5.65 5.345l.305.296-.26.274c-.32.336-2.835 2.57-2.998 2.663-.077.044-.619-.34-1.6-1.134zm36.942-1.688-1.259-2.712.335-.259c.545-.421 1.214-1.165 1.42-1.579a1.95 1.95 0 0 0 .194-.804c0-.497-.423-1.81-.83-2.575l-.288-.544 1.9-.373c1.045-.205 1.913-.338 1.93-.294l.711 1.974.681 1.897 1.663.845 1.663.845-1.047.686c-1.262.827-1.797 1.252-1.797 1.425 0 .22.438 1.014 1.034 1.871.314.452.557.835.54.851-.046.045-5.367 1.458-5.487 1.458-.058 0-.671-1.22-1.363-2.712zm66.176.066c-.83-.834-.873-.893-.758-1.077.194-.312 5.883-7.883 6.6-8.784l.653-.822.413.334c.367.296 2.125 1.798 3.048 2.604l.342.298-4.662 4.165c-2.563 2.29-4.683 4.164-4.709 4.164-.027 0-.444-.397-.927-.882zm-16.945-.318-.97-1.12.254-1.374c.14-.755.29-1.417.335-1.47.044-.054.21-.168.369-.253l.288-.155 1.371.826c.755.454 1.598.944 1.874 1.088.277.145.503.287.503.317 0 .076-1.795 2.028-2.488 2.706l-.568.555zm-38.884.635a169.05 169.05 0 0 1-.397-2.301c-.633-3.752-.894-5.109-1.044-5.424-.261-.55-.984-.745-1.944-.524-.213.049-.405.07-.427.048-.047-.046-.725-2.692-.728-2.84 0-.054 1.04-.42 2.313-.814 2.24-.692 2.365-.72 3.837-.86.837-.08 1.585-.12 1.663-.09.115.044.135.168.11.685l-.031.632.705.183.706.184.146 1.764c.08.97.14 1.77.132 1.779-.007.008-.331.057-.72.11-.953.131-1.509.343-1.816.693-.303.344-.32.572-.073.99.2.339.287.42 1.449 1.36 1.201.972 1.11.772 1.083 2.395l-.025 1.399-2.45.407c-2.428.404-2.449.406-2.489.224zm19.462-1.2c-.862-.255-1.754-.613-1.869-.751-.08-.098.06-.758.652-3.06.415-1.614 1.001-3.907 1.302-5.095.301-1.189.57-2.188.6-2.222.027-.033.388.082.8.255.412.173 1.365.547 2.117.83 1.56.589 1.845.813 2.033 1.596.194.809.07 1.553-.528 3.16-.79 2.124-1.1 2.71-1.626 3.062-.236.158-.76.387-1.163.51l-.733.224-.194.592c-.39 1.185-.399 1.191-1.391.898zm-7.6-.275c-.9-.144-1.194-.152-2.632-.07-.89.051-1.64.073-1.663.049-.053-.053-.29-12.784-.24-12.836.02-.02.76.01 1.646.067.886.056 1.7.102 1.81.102.187 0 .198.034.198.644 0 .896-.544 6.415-.75 7.613-.046.265-.01.305.902.977 1.5 1.107 2.05 1.478 2.803 1.893.413.227.716.454.734.548.067.345-1.043 1.211-1.524 1.189a20.02 20.02 0 0 1-1.283-.176zm39.748-1.92c-.323-.335-.588-.672-.588-.749 0-.164.52-.56 1.045-.797.58-.261.565-.286-.956-1.57-.448-.378-.568-.53-.55-.695.036-.318.669-1.307 1.878-2.935l1.09-1.465h1.027c1.031 0 1.768-.091 2.221-.275.524-.213.19-.895-1.218-2.489-.634-.717-.745-.886-.645-.976.49-.437 1.214-1.022 1.264-1.022.115 0 4.458 3.188 4.458 3.272 0 .046-.715.931-1.589 1.967l-1.588 1.882-.519.145c-1.202.338-2.61.853-2.773 1.015-.343.343-.189 1.18.487 2.65.26.566.315.761.23.813-.063.037-.669.465-1.348.95-.68.486-1.258.885-1.286.886-.029.001-.317-.272-.64-.607zm-37.366-2.64a8.387 8.387 0 0 1-.961-.405l-.477-.243.064-3.32c.035-1.826.08-3.336.098-3.355.041-.041 4.206.595 4.262.651.021.022-.012.784-.073 1.695-.094 1.38-.156 1.794-.374 2.493-.306.984-.861 2.184-1.117 2.416-.255.23-.848.26-1.422.068zm-42.793-1.672a34.813 34.813 0 0 0-1.225-1.688l-.458-.567.255-.205c.52-.42 4.052-2.784 4.173-2.795.147-.013 2.42 3.481 2.32 3.566-.208.178-4.177 2.817-4.232 2.813-.036-.002-.411-.508-.833-1.124zm73.905-.146c-.715-.39-1.3-.75-1.3-.798 0-.174 1.199-1.993 1.653-2.507.254-.288.463-.59.463-.672 0-.25-.598-.714-1.31-1.017-.37-.159-.708-.316-.748-.35-.178-.153 1.578-3.138 1.97-3.348.153-.082.35-.048 1.065.183.864.28.88.281 1.062.117.219-.198.566-.868 1.009-1.944.176-.43.44-1.069.585-1.42.168-.407.314-.64.4-.64.102 0 3.69 1.837 3.89 1.992.061.047-1.483 2.393-4.292 6.52a870.446 870.446 0 0 1-3.014 4.415c-.13.174-.16.164-1.433-.531zm-5.967-3.138c-.441-.341-.802-.639-.802-.662 0-.192 2.026-4.316 2.432-4.953l.293-.457-.51-.469c-.28-.257-.792-.667-1.138-.909-.346-.243-.63-.467-.633-.5-.002-.031.304-.225.68-.43.966-.528 1.914-1.196 2.047-1.444.094-.177.082-.35-.074-1.082-.215-1.004-.24-1.773-.066-2.011.278-.381 1.496-.118 4.245.917 1.423.536 1.59.62 1.614.813.033.273-.414.733-1.252 1.29-.483.322-.809.456-1.587.654-1.085.275-1.933.658-1.978.892-.052.268.342.771 1.033 1.318.369.292.684.566.7.608.016.042-.684 1.278-1.555 2.745a317.64 317.64 0 0 0-2.045 3.484c-.254.449-.494.816-.532.816-.038 0-.43-.28-.872-.62zm-71.841-.61c-.675-.677-.931-.99-.88-1.076.04-.066.278-.406.529-.756l.455-.636-.656-2.216c-.361-1.219-.644-2.228-.628-2.243.11-.101 2.75-1.735 3.054-1.89l.379-.192.296.644c.31.672 2.253 5.825 2.253 5.975 0 .07-2.814 2.53-3.625 3.167l-.225.177zm9.653-1.127c-.606-1.15-1.71-3.242-2.455-4.65-2.664-5.047-2.82-5.405-2.57-5.873.137-.256.764-.584 1.497-.783.732-.198 2.776-.486 2.958-.416.153.06.886 1.587 3.323 6.935a440.016 440.016 0 0 0 2.24 4.87c.116.229.21.434.21.456 0 .064-3.898 1.557-4.05 1.552-.027-.001-.546-.942-1.153-2.091zm56.938-.695c-1.55-.748-2.834-1.378-2.856-1.4-.022-.022.86-2.73 1.958-6.018 1.098-3.288 2.046-6.154 2.106-6.368.22-.786.566-.672 1.083.355l.294.583 1.55.043c.852.023 1.573.066 1.601.094.051.051-1.294 2.373-1.51 2.607-.06.065-.42.227-.803.362-1.376.483-2.503 1.207-2.503 1.608 0 .448.543 1.01 1.432 1.482l.397.21.1.712c.11.777.129.733-.415 1.034-.247.136-.266.187-.322.838-.033.38-.077.756-.099.834-.026.096.194.32.69.698.402.306.817.634.923.729l.194.172-.436.344-.436.345v1.056c0 .58-.03 1.053-.066 1.049-.036-.004-1.333-.62-2.882-1.369zm-48.335-1.16a2.94 2.94 0 0 1 .236-.771c.164-.323.174-.453.12-1.526-.057-1.105-.26-2.767-.357-2.924-.052-.083-.727.047-2.579.499-.737.18-1.356.31-1.375.287-.09-.11-2.973-6.227-2.972-6.31 0-.054.308-.218.684-.366.375-.149.886-.35 1.135-.45l.451-.18.323 1.252c.178.688.357 1.33.397 1.428.054.129.333.261 1.013.481l.94.304.571-.567c.314-.311.572-.602.572-.645 0-.042-.364-.753-.808-1.579l-.807-1.501.209-.158c.115-.087.675-.4 1.244-.698l1.036-.541.182.358c.101.197.416 1.043.7 1.879.433 1.278.734 1.94 1.89 4.166l1.374 2.646.14.926c.259 1.725.385 3.118.298 3.282-.188.351-1.274.686-3.089.953-1.682.248-1.598.261-1.528-.244zm6.655-1.827c0-.023.222-.807.492-1.742.481-1.665.49-1.711.388-2.228-.212-1.088-1.327-3.697-2.976-6.968-.489-.97-.881-1.771-.872-1.78.01-.01 1.445-.41 3.19-.89l3.174-.872.058.36c.032.197.106 2.64.165 5.43l.108 5.071.652 1.303c.446.892.617 1.315.54 1.341-.191.065-4.697 1.017-4.81 1.017-.06 0-.109-.02-.109-.042zm30.87-.346c0-.034.16-.583.355-1.22.516-1.68.866-3.075.93-3.707.082-.793-.199-1.739-.975-3.29-.35-.7-.63-1.274-.621-1.274.069 0 3.078-.622 3.091-.639.01-.012.065-.636.123-1.387.058-.75.118-1.377.133-1.392.023-.024 4.394.769 4.43.803.008.008-.158.442-.37.966l-.382.953.22.083c.122.047.26.084.307.084.19 0 .785.365.877.539.074.137.073.374-.005.918l-.104.734-.763.054c-1.492.106-1.461.096-1.849.604-.46.602-.723 1.138-.723 1.47 0 .368.52.857 1.402 1.316l.695.361.064 1.152c.035.634.05 1.166.032 1.183-.034.033-2.666.224-3.089.224h-.25v1.412h-.772c-.425 0-1.218.026-1.764.057-.546.032-.992.03-.992-.005zM118.1 97.398c-.4-.12-.728-.26-.728-.312 0-.111-1.566-11.804-1.628-12.149l-.042-.24.504.041c.278.023.966.066 1.53.095l1.026.053.063 5.923c.035 3.258.05 6.122.033 6.365l-.03.443zm-7.385-.547c-.128-.405-.968-2.992-1.867-5.748-.898-2.757-1.607-5.04-1.575-5.072.059-.059 3.795-.259 5.092-.272.756-.008.691-.064.815.708l.05.319-1.55.158-1.55.158.053.317c.03.174.122.649.204 1.054l.15.738.794.298a74.98 74.98 0 0 0 1.733.62l.94.322.096.671c.186 1.296.601 6.241.53 6.306-.02.018-.857.06-1.86.095l-1.823.064zm10.744-.052-.544-.03-.05-.724c-.056-.792-.32-9.12-.319-10.003l.001-.547.287-.044c.157-.024 1.353-.07 2.657-.1l2.37-.055-.06.338c-.133.749-.688 3.077-.75 3.141-.035.038-.554.009-1.153-.065-.598-.074-1.111-.113-1.14-.085-.112.11-.693 1.761-.638 1.815.062.061 2.612.879 3.25 1.042.296.076.377.14.418.335.088.424.226 1.813.227 2.282v.454l-1.465.064-1.465.065.053.496c.029.273.078.764.11 1.091l.058.595-.652-.017c-.358-.009-.896-.03-1.195-.048zm-61.934-1.233c.019-.049 13.585-23.532 30.148-52.185 24.554-42.48 30.13-52.068 30.2-51.938.202.364 59.537 103.375 59.707 103.654.153.252-.008.15-.914-.576-8.903-7.137-18.695-12.47-29.366-15.992-7.901-2.608-15.948-4.118-24.52-4.6-2.23-.126-7.87-.126-10.01 0-7.4.437-13.88 1.507-20.62 3.406-12.157 3.425-23.636 9.383-33.522 17.398-.625.507-1.121.882-1.103.833z"/></g></svg>