<?xml version="1.0" encoding="UTF-8" standalone="no"?>
<svg
   xmlns:dc="http://purl.org/dc/elements/1.1/"
   xmlns:cc="http://creativecommons.org/ns#"
   xmlns:rdf="http://www.w3.org/1999/02/22-rdf-syntax-ns#"
   xmlns:svg="http://www.w3.org/2000/svg"
   xmlns="http://www.w3.org/2000/svg"
   xmlns:sodipodi="http://sodipodi.sourceforge.net/DTD/sodipodi-0.dtd"
   xmlns:inkscape="http://www.inkscape.org/namespaces/inkscape"
   viewBox="0 0 274.62418 274.62418"
   version="1.1"
   id="svg8"
   inkscape:version="1.0.1 (0767f8302a, 2020-10-17)"
   sodipodi:docname="Jeskai Way.svg">
  <defs
     id="defs2">
    <filter
       style="color-interpolation-filters:sRGB;"
       inkscape:label="Drop Shadow"
       id="filter861">
      <feFlood
         flood-opacity="0.803922"
         flood-color="rgb(72,49,7)"
         result="flood"
         id="feFlood851" />
      <feComposite
         in="flood"
         in2="SourceGraphic"
         operator="in"
         result="composite1"
         id="feComposite853" />
      <feGaussianBlur
         in="composite1"
         stdDeviation="2"
         result="blur"
         id="feGaussianBlur855" />
      <feOffset
         dx="0"
         dy="2.3"
         result="offset"
         id="feOffset857" />
      <feComposite
         in="SourceGraphic"
         in2="offset"
         operator="over"
         result="composite2"
         id="feComposite859" />
    </filter>
  </defs>
  <sodipodi:namedview
     id="base"
     pagecolor="#ffffff"
     bordercolor="#666666"
     borderopacity="1.0"
     inkscape:pageopacity="0.0"
     inkscape:pageshadow="2"
     inkscape:zoom="1.979899"
     inkscape:cx="123.09264"
     inkscape:cy="214.71618"
     inkscape:document-units="mm"
     inkscape:current-layer="layer1"
     inkscape:document-rotation="0"
     showgrid="false"
     fit-margin-top="0"
     fit-margin-left="0"
     fit-margin-right="0"
     fit-margin-bottom="0"
     inkscape:window-width="1647"
     inkscape:window-height="1212"
     inkscape:window-x="896"
     inkscape:window-y="95"
     inkscape:window-maximized="0" />
  <metadata
     id="metadata5">
    <rdf:RDF>
      <cc:Work
         rdf:about="">
        <dc:format>image/svg+xml</dc:format>
        <dc:type
           rdf:resource="http://purl.org/dc/dcmitype/StillImage" />
        <dc:title></dc:title>
      </cc:Work>
    </rdf:RDF>
  </metadata>
  <g
     inkscape:label="Layer 1"
     inkscape:groupmode="layer"
     id="layer1"
     transform="translate(41.267389,28.082407)">
    <circle
       style="fill:#f080ff;fill-rule:evenodd;stroke:#120314;stroke-width:6.46677174;stroke-miterlimit:4;stroke-dasharray:none;stroke-opacity:1;fill-opacity:1"
       id="path849"
       cx="96.044701"
       cy="109.22968"
       r="134.07959" />
    <path
       style="fill:#000000;stroke-width:0.262972;filter:url(#filter861)"
       d="m 81.012508,215.76854 c -1.389861,-0.33617 -5.027412,-2.43619 -5.475396,-3.16105 -0.201008,-0.32524 -1.978148,-0.90858 -2.173334,-0.7134 -0.08324,0.0832 7.89e-4,0.33457 0.186579,0.55851 0.642391,0.77404 0.04652,0.68747 -1.853224,-0.26922 -1.902694,-0.95818 -2.207584,-0.99207 -3.80068,-0.42234 -0.433905,0.15517 -1.115418,0.34719 -1.514479,0.42671 -0.695267,0.13855 -0.708681,0.17035 -0.321273,0.76161 0.397988,0.6074 0.38744,0.61971 -0.676785,0.78989 -1.683838,0.26926 -3.81861,-0.51694 -5.100295,-1.87833 -0.732181,-0.77772 -1.267582,-1.11764 -1.760389,-1.11764 -1.558613,0 -2.124388,-0.84277 -0.882698,-1.31486 0.731736,-0.2782 0.788496,-0.48724 0.37154,-1.36823 -0.388223,-0.82029 -3.094274,-2.83933 -3.805454,-2.83933 -0.355196,0 -1.363858,-0.75306 -2.646111,-1.97559 -1.84155,-1.75576 -3.046457,-2.52865 -3.396447,-2.17866 -0.06406,0.0641 0.123573,0.37411 0.41695,0.68901 0.749448,0.80444 0.271585,0.71177 -1.091082,-0.21158 -0.636462,-0.43127 -1.435298,-0.78629 -1.775189,-0.78892 -0.93224,-0.007 -2.503086,-1.68673 -2.30728,-2.46688 0.130448,-0.51974 -7.89e-4,-0.69008 -0.826595,-1.07357 -0.539903,-0.2507 -1.27398,-0.82089 -1.631283,-1.26711 -0.691133,-0.86312 -0.595049,-0.89606 0.912614,-0.31291 0.466052,0.18026 0.453345,0.12377 -0.111582,-0.49611 -0.350642,-0.38475 -0.889578,-0.69954 -1.197634,-0.69954 -0.308059,0 -1.105822,-0.34608 -1.772806,-0.76907 -0.902379,-0.57227 -1.369781,-1.11702 -1.826548,-2.1288 l -0.613848,-1.35973 -1.204984,0.13889 -1.204984,0.13889 -1.729379,-1.90945 c -0.977834,-1.07964 -2.790265,-2.63606 -4.170583,-3.58145 -1.342663,-0.91961 -2.306756,-1.71684 -2.142432,-1.77161 0.164323,-0.0548 0.552142,0.036 0.861818,0.20174 0.309673,0.16574 0.611926,0.25246 0.671668,0.19272 0.05974,-0.0597 -0.985849,-0.74977 -2.323531,-1.5334 -1.337685,-0.78363 -3.260515,-2.20315 -4.272958,-3.1545 -1.012443,-0.95135 -2.506844,-2.16626 -3.32089,-2.6998 -1.091356,-0.71528 -1.520659,-1.17294 -1.634576,-1.74251 -0.111029,-0.55516 -0.857521,-1.38227 -2.653703,-2.9403 -2.124014,-1.84241 -2.476207,-2.25953 -2.345962,-2.77846 0.175631,-0.69978 -0.376863,-2.24351 -0.725767,-2.02788 -0.127849,0.079 -0.2324524,0.38034 -0.2324524,0.66961 0,0.87571 -0.538935,0.27603 -1.3403174,-1.49138 -0.4980188,-1.09836 -1.2361198,-2.11257 -2.2027558,-3.02678 -0.928302,-0.87795 -1.548165,-1.7175 -1.714937,-2.32273 -0.366549,-1.33025 -1.579864,-3.35507 -2.934029,-4.89641 -0.633426,-0.72098 -1.32641598,-1.53503 -1.53997596,-1.809 -0.3599485,-0.46177 -0.3452505,-0.48447 0.20133198,-0.311 0.67089198,0.21294 0.75451398,-0.0107 0.230487,-0.61651 -0.197526,-0.22834 -0.43645498,-0.74059 -0.53095398,-1.13834 -0.2026125,-0.8528 0.30230498,-0.99046 0.96450296,-0.26297 0.230393,0.25311 1.266801,1.05189 2.303125,1.77506 1.036326,0.72318 2.386628,1.75718 3.000668,2.29779 0.614041,0.5406 1.51896,1.16179 2.010931,1.3804 0.4919708,0.21862 1.2960222,0.72165 1.7867816,1.11784 0.829688,0.66981 0.879663,0.68058 0.712368,0.15347 -0.279158,-0.87955 0.590768,-0.51607 2.105498,0.87973 1.44127,1.32811 2.206722,1.82319 2.206722,1.42728 0,-0.14118 -0.118338,-0.32984 -0.262972,-0.41923 -0.144635,-0.0894 -0.262973,-0.29451 -0.262973,-0.45581 0,-0.16131 0.26626,-0.0511 0.591688,0.24502 0.325428,0.29607 0.714364,0.49275 0.864303,0.43708 0.149939,-0.0557 0.938682,0.49243 1.752763,1.218 0.959181,0.85491 1.52764,1.20313 1.615081,0.98936 0.08892,-0.21738 0.409114,-0.0384 0.938995,0.52479 0.442235,0.47006 0.909579,0.85466 1.038543,0.85466 0.128965,0 0.381797,0.17751 0.561851,0.39446 0.528459,0.63675 0.751154,0.46939 1.137226,-0.85466 0.269037,-0.92266 0.49448,-1.24912 0.862618,-1.24912 0.865266,0 0.775077,1.06787 -0.135623,1.60583 -0.437709,0.25857 -0.849311,0.60947 -0.91467,0.77979 -0.188853,0.49214 1.735267,2.18797 2.701856,2.38129 0.832673,0.16653 0.869536,0.14245 0.695914,-0.45473 -0.138689,-0.47702 0.07921,-0.33095 0.894853,0.59989 1.074797,1.2266 2.817067,2.50023 3.071771,2.24552 0.07378,-0.0738 -0.405795,-0.74208 -1.065719,-1.48512 -1.193042,-1.3433 -1.583369,-2.32578 -0.805405,-2.02724 0.216952,0.0832 0.394459,0.09 0.394459,0.0151 0,-0.26747 -0.859449,-1.8276 -1.255846,-2.27969 -0.221927,-0.25311 -0.310312,-0.4602 -0.196411,-0.4602 0.113901,0 0.91861,0.77649 1.788238,1.72554 1.395212,1.52262 1.986393,1.92379 5.027367,3.41145 1.895423,0.92726 4.866273,2.17718 6.60189,2.77762 3.518328,1.21716 7.890592,3.14233 9.283816,4.08779 1.102661,0.74829 1.748327,0.81127 0.877228,0.0856 -0.739922,-0.61641 -0.482601,-0.65122 0.98541,-0.13327 0.59848,0.21116 2.397518,0.697 3.997865,1.07966 2.240761,0.53579 3.237597,0.65478 4.33585,0.51756 0.950072,-0.1187 1.426128,-0.0841 1.426128,0.10371 0,0.15505 -0.147922,0.28566 -0.328715,0.29026 -0.518161,0.0132 0.633516,0.78056 1.171462,0.78056 0.263588,0 0.704116,-0.14044 0.978954,-0.31207 0.411415,-0.25693 0.731123,-0.19201 1.809483,0.36746 0.720381,0.37375 1.706867,0.75969 2.192195,0.85765 0.485329,0.098 1.10562,0.24153 1.378425,0.31905 0.427046,0.12134 0.47083,0.0406 0.314925,-0.58056 l -0.181083,-0.72149 0.810446,0.68194 c 0.859102,0.72289 2.285122,1.11889 3.18334,0.884 0.305698,-0.0799 0.945212,0.0968 1.469242,0.40593 0.895679,0.52847 0.955039,0.53148 1.708132,0.0866 0.715353,-0.42257 0.818743,-0.426 1.243803,-0.0413 0.58154,0.52628 1.181821,0.53566 1.605562,0.0251 0.408885,-0.49267 1.155466,-0.50892 1.549843,-0.0337 0.391639,0.47189 2.577572,0.71082 3.433216,0.37525 1.208936,-0.47411 3.218591,-0.50583 3.54753,-0.056 0.214572,0.29345 0.657005,0.38259 1.602556,0.32288 1.26659,-0.08 1.30868,-0.10882 1.38968,-0.95222 0.0874,-0.90982 0.54417,-1.27115 1.25982,-0.99652 0.38524,0.14783 0.38286,0.22348 -0.0268,0.84869 -0.43064,0.65724 -0.42666,0.70948 0.0937,1.22985 0.52846,0.52846 0.55819,0.53013 1.07719,0.0604 0.4842,-0.43819 0.8532,-0.46615 3.97608,-0.30129 2.362458,0.12472 3.38927,0.0958 3.27313,-0.0921 -0.0931,-0.15058 -0.339752,-0.2738 -0.548162,-0.2738 -0.20842,0 -0.37894,-0.13358 -0.37894,-0.29685 0,-0.20323 0.40512,-0.24311 1.284512,-0.12645 0.73577,0.0976 1.60641,0.0479 2.03803,-0.11626 0.41444,-0.15765 1.79646,-0.28671 3.07115,-0.28678 1.97877,-1.2e-4 2.27203,-0.0551 2.00583,-0.37582 -0.25128,-0.30278 -0.21623,-0.37617 0.18062,-0.37824 0.8906,-0.005 3.19626,-1.24325 3.37754,-1.81443 0.22258,-0.70128 0.67285,-0.70798 0.85466,-0.0127 0.12486,0.47746 0.27526,0.51749 1.35599,0.36085 0.66855,-0.0969 1.39306,-0.26659 1.61001,-0.3771 1.41067,-0.71853 5.45863,-1.9072 7.23091,-2.12333 3.04888,-0.37181 3.60264,-0.61509 5.98176,-2.62788 2.28245,-1.931 4.49655,-3.16382 6.64173,-3.69816 0.89622,-0.22324 1.69165,-0.67692 2.49824,-1.42489 0.65086,-0.60355 2.01227,-1.6258 3.02536,-2.27165 1.01309,-0.64585 2.51312,-1.76158 3.3334,-2.47939 1.4658,-1.28269 4.30562,-2.93084 4.57896,-2.6575 0.0766,0.0766 -0.57798,0.6912 -1.45463,1.36577 -0.87666,0.67457 -1.59392,1.33962 -1.59392,1.47788 0,0.13827 0.71368,-0.10887 1.58594,-0.54919 1.10784,-0.55924 1.80151,-1.1295 2.30101,-1.89165 1.15269,-1.75882 2.59755,-2.99567 4.8844,-4.18121 1.1781,-0.61075 2.65125,-1.62418 3.27366,-2.25206 0.62242,-0.62789 1.62829,-1.39246 2.23527,-1.69905 0.60698,-0.30659 1.87279,-1.00283 2.81292,-1.54719 1.22537,-0.70954 2.12765,-1.02876 3.18689,-1.12751 1.14084,-0.10636 1.63839,-0.29857 2.18322,-0.8434 0.67745,-0.67745 0.7997,-0.702 3.05885,-0.61425 1.41384,0.0549 2.3925,-0.0136 2.45166,-0.17158 0.15761,-0.42091 0.77078,0.30409 0.82614,0.97681 0.045,0.54725 0.16083,0.59375 1.29426,0.51973 1.13646,-0.0742 1.23045,-0.0361 1.07996,0.43807 -0.23972,0.75529 0.23789,0.91375 1.69823,0.56342 1.30852,-0.31391 2.89182,-0.15838 2.89182,0.28407 0,0.13314 -0.17751,0.24208 -0.39446,0.24208 -0.72156,0 -0.40711,0.50747 0.4602,0.7427 0.53447,0.14495 0.9807,0.13331 1.19109,-0.0311 0.42334,-0.33078 1.63587,0.73452 1.63587,1.43724 0,0.26364 0.41418,0.9378 0.9204,1.49813 1.02173,1.13093 1.09686,1.57215 0.53761,3.15723 -0.40396,1.14494 -0.23139,1.44475 0.32176,0.55901 0.18066,-0.28927 0.42405,-0.52595 0.54088,-0.52595 0.20238,0 0.21107,4.43204 0.0103,5.25945 -0.0526,0.21695 0.0226,0.42873 0.16726,0.47062 0.14464,0.0419 0.30079,-0.16521 0.34701,-0.46021 0.0462,-0.295 0.20454,-0.53636 0.35183,-0.53636 0.38756,0 0.0242,1.85157 -0.72529,3.69616 -0.34704,0.85406 -0.63098,1.85399 -0.63098,2.22206 0,0.36808 -0.24631,1.34671 -0.54735,2.17475 -0.30104,0.82804 -0.69264,2.17369 -0.87021,2.99034 -0.17758,0.81665 -0.52473,1.76335 -0.77144,2.10378 -0.24671,0.34043 -1.10924,1.61734 -1.91675,2.83758 -1.79965,2.71948 -8.57901,9.50234 -11.29591,11.30171 -1.02222,0.67701 -1.81301,1.36764 -1.75731,1.53473 0.0595,0.1785 -0.52974,0.4812 -1.42857,0.73388 -3.13825,0.88223 -5.95456,2.20448 -5.56269,2.61168 0.0961,0.0999 0.43165,0.044 0.7457,-0.12404 0.31404,-0.16808 0.63464,-0.24194 0.71244,-0.16414 0.28644,0.28645 -0.19245,0.9668 -0.90229,1.28186 -0.40181,0.17834 -1.64559,0.88734 -2.76398,1.57556 -2.12697,1.30887 -2.72667,1.51661 -2.47349,0.85684 0.0833,-0.21695 0.0551,-0.39446 -0.0626,-0.39446 -0.33,0 -1.01906,0.84583 -1.30786,1.60541 -0.21321,0.56079 -0.48327,0.71463 -1.49878,0.85383 -0.68129,0.0934 -1.62493,0.40848 -2.09697,0.70022 -0.63502,0.39246 -1.01946,0.47077 -1.47796,0.30108 -0.90493,-0.33492 -1.27428,-0.14769 -2.62395,1.33018 -1.00922,1.10508 -1.4329,1.37117 -2.49823,1.56895 -2.47822,0.4601 -2.69291,0.53651 -3.28831,1.1703 -0.3302,0.35147 -0.60575,0.94366 -0.61234,1.31597 -0.009,0.53338 -0.22347,0.76155 -1.00935,1.07605 -1.16092,0.46459 -1.51543,0.28757 -0.86452,-0.43168 0.25179,-0.27823 0.41871,-0.78171 0.37093,-1.11885 -0.0848,-0.59846 -0.11141,-0.59044 -1.12386,0.33892 -0.99017,0.9089 -1.01095,0.96015 -0.46021,1.13495 0.31725,0.10068 0.57681,0.28545 0.57681,0.41059 0,0.31062 -0.60953,0.46257 -2.69547,0.67199 -1.53287,0.15389 -1.77506,0.1202 -1.77506,-0.24689 0,-0.52672 -0.53137,-0.53977 -1.72201,-0.0423 -0.67064,0.2802 -0.95765,0.59004 -1.07084,1.15598 -0.16346,0.81729 -0.80121,1.08894 -2.56521,1.09266 -0.45199,0.001 -1.1768,0.23685 -1.61071,0.52421 -0.49067,0.32496 -1.23629,0.52375 -1.97229,0.52583 -0.65086,0.002 -1.52233,0.18013 -1.93661,0.39619 -0.41428,0.21606 -1.29141,0.39284 -1.94919,0.39284 -0.79115,0 -1.56404,0.21572 -2.28346,0.63732 -0.93978,0.55075 -1.3085,0.61728 -2.7145,0.48979 -1.52764,-0.13852 -1.61792,-0.18372 -1.47827,-0.74011 0.19358,-0.77132 -0.32586,-1.07951 -0.91731,-0.54424 -0.25539,0.23112 -0.64901,0.42021 -0.8747,0.42021 -0.2257,0 -0.68477,0.2222 -1.02015,0.49378 l -0.60979,0.49378 1.61851,0.18784 c 0.89019,0.10332 1.77275,0.10902 1.96126,0.0127 0.18851,-0.0964 0.11304,0.0111 -0.16772,0.23878 -0.28075,0.22767 -0.7541,0.41999 -1.05188,0.42738 -2.46551,0.0611 -4.05526,0.19016 -4.57449,0.37135 -0.50995,0.17794 -0.60541,0.12993 -0.56141,-0.28241 0.0986,-0.92402 -0.006,-1.16476 -0.62853,-1.44847 -0.48428,-0.22065 -0.81185,-0.18423 -1.48809,0.16547 -0.63183,0.32673 -1.19886,0.40439 -2.08975,0.28621 -1.1541,-0.15309 -1.26844,-0.11046 -2.03959,0.76058 -0.86687,0.97913 -1.38778,1.17744 -1.38778,0.5283 0,-0.5006 -0.0476,-0.49821 -2.530684,0.12745 -2.314506,0.58318 -3.101026,0.6566 -2.860246,0.26701 0.21052,-0.34064 -0.43073,-0.33615 -1.33954,0.009 -1.03205,0.39238 -3.78842,0.7329 -3.78842,0.46802 0,-0.28129 -1.19626,-0.004 -2.22716,0.51645 -1.049091,0.52953 -5.622397,0.58131 -7.666862,0.0868 z m 25.409382,-1.20291 c 0,-0.42232 0.77987,-0.92965 1.42906,-0.92965 0.57964,0 0.51307,0.71618 -0.0969,1.04264 -0.72491,0.38796 -1.33215,0.33645 -1.33215,-0.11299 z m 26.1,-3.99766 c -0.18079,-0.0723 -0.32871,-0.24819 -0.32871,-0.39083 0,-0.33619 1.06975,-0.17295 1.08202,0.16511 0.0112,0.30942 -0.30625,0.40454 -0.75331,0.22572 z M 66.97605,164.94963 c 0,-0.12457 0.295843,-0.2265 0.65743,-0.2265 0.361587,0 0.657431,0.0454 0.657431,0.10083 0,0.0555 -0.295844,0.15738 -0.657431,0.2265 -0.361587,0.0691 -0.65743,0.0238 -0.65743,-0.10083 z m -2.629723,-0.67972 c 0,-0.0377 0.436944,-0.27661 0.970988,-0.53086 0.560786,-0.26698 1.199582,-0.86706 1.512091,-1.42044 0.297606,-0.52699 0.769409,-1.2782 1.048449,-1.66937 0.42409,-0.59449 0.45362,-0.79724 0.179944,-1.23547 -0.390787,-0.62575 0.02697,-1.02507 1.62458,-1.55287 0.902355,-0.29811 0.98191,-0.39811 0.83798,-1.05342 -0.17965,-0.81794 0.317951,-1.94089 1.526725,-3.44538 0.55631,-0.6924 0.737156,-1.14605 0.626129,-1.57062 -0.101442,-0.38792 0.07781,-0.99618 0.511823,-1.73676 0.537097,-0.91649 0.605435,-1.21507 0.348851,-1.52423 -0.254576,-0.30675 -0.228815,-0.48423 0.12741,-0.87786 0.60497,-0.66848 1.778823,-3.92257 1.745662,-4.83923 -0.01473,-0.40725 0.212364,-1.04448 0.504655,-1.41607 0.692598,-0.88049 0.670545,-1.57958 -0.09526,-3.01987 -0.441425,-0.83021 -0.555148,-1.30651 -0.384673,-1.61114 0.162267,-0.28995 0.108807,-0.69009 -0.162217,-1.21419 -0.579302,-1.12025 -0.534031,-1.84444 0.104857,-1.67736 0.413842,0.10822 0.54227,-0.0437 0.686374,-0.81181 0.0975,-0.51972 0.100053,-1.2526 0.0057,-1.62863 -0.252782,-1.00717 -1.733718,-2.4135 -2.651292,-2.51774 -0.643212,-0.0731 -0.770251,-0.19613 -0.702848,-0.68087 0.06856,-0.49304 -0.04123,-0.59169 -0.658496,-0.59169 -1.064612,0 -5.29851,-3.07504 -6.92521,-5.02972 -0.729419,-0.87649 -1.728648,-2.39273 -2.220509,-3.36944 -1.062413,-2.10966 -2.119212,-3.43459 -2.739521,-3.43459 -0.247205,0 -1.415178,-0.47335 -2.595492,-1.05189 -1.180314,-0.57854 -2.248621,-1.05189 -2.374014,-1.05189 -0.125393,0 -0.514873,-0.30736 -0.865515,-0.68302 -0.9543,-1.0224 -2.444375,-1.70367 -3.336169,-1.52531 -1.017782,0.20355 -1.767332,-0.84571 -1.525397,-2.13535 0.152734,-0.81414 0.103895,-0.88953 -0.761153,-1.17503 -1.214106,-0.40069 -1.549971,-0.91246 -0.43864,-0.66838 0.451999,0.0993 0.821817,0.0791 0.821817,-0.0448 0,-0.51588 -0.884523,-1.42715 -1.726907,-1.77913 -0.496547,-0.20747 -0.902815,-0.48755 -0.902815,-0.6224 0,-0.13484 0.42085,-0.56617 0.935224,-0.95851 0.775358,-0.59139 0.921452,-0.8552 0.85466,-1.5433 -0.07777,-0.80121 -0.123079,-0.82997 -1.307525,-0.82997 -1.526299,0 -1.794404,-0.24447 -1.039432,-0.94783 0.468454,-0.43643 0.552192,-0.71661 0.411796,-1.377832 -0.200345,-0.94357 -0.818846,-1.7504 -1.341829,-1.7504 -0.48212,0 -0.449372,-0.76871 0.04076,-0.95679 0.906384,-0.34781 0.03922,-2.36112 -1.194031,-2.7722 -0.28715,-0.0957 -0.201589,-0.33144 0.364493,-1.00419 0.612518,-0.72794 0.71063,-1.0342 0.570534,-1.78098 -0.124189,-0.66197 -0.04868,-1.03502 0.28386,-1.40248 0.370076,-0.40893 0.398629,-0.62006 0.155903,-1.15278 -0.238829,-0.52417 -0.202091,-0.87235 0.187168,-1.774 0.266375,-0.617 0.726874,-1.33869 1.023328,-1.60376 0.296456,-0.26507 0.684351,-1.09343 0.861991,-1.84081 0.177641,-0.74737 0.778785,-2.03281 1.335876,-2.85653 0.557091,-0.82371 1.012893,-1.62357 1.012893,-1.77745 0,-0.15389 0.355754,-0.65206 0.790563,-1.10704 1.106927,-1.1583 1.471314,-2.500227 1.032395,-3.802008 -0.189127,-0.560928 -0.351234,-1.256542 -0.360238,-1.545812 -0.01828,-0.586733 -0.34777,-0.581621 -1.66286,0.0258 -0.471667,0.217857 -0.980243,0.320287 -1.130168,0.227626 -0.149929,-0.09266 -0.947398,0.231392 -1.772152,0.720118 -0.824755,0.488724 -1.913736,1.051548 -2.419958,1.250718 -1.2601,0.495776 -1.498161,0.709657 -1.704368,1.531248 -0.312737,1.24604 -1.328549,1.55764 -1.057693,0.32445 l 0.17242,-0.785036 -1.137673,0.516286 c -0.625721,0.28396 -1.325343,0.51888 -1.554718,0.52206 -0.547948,0.008 -2.870109,1.82319 -2.870109,2.24402 0,0.17989 -0.197134,0.48949 -0.438077,0.68799 -0.394932,0.32537 -0.420341,0.28969 -0.257963,-0.36226 0.09906,-0.39774 0.119715,-0.72317 0.0459,-0.72317 -0.07382,0 -0.679843,0.41648 -1.346712,0.92551 -1.836504,1.40184 -2.52399,1.70314 -1.57244,0.68915 0.423359,-0.45114 0.716434,-0.87357 0.651274,-0.93873 -0.22239,-0.22239 -2.597196,1.4234 -3.912948,2.71175 -0.906892,0.888 -1.619455,1.34315 -2.303296,1.47124 -0.675397,0.1265 -1.354352,0.55467 -2.135784,1.34689 -0.630087,0.63879 -1.416971,1.22955 -1.748629,1.31279 -0.331656,0.0832 -0.976067,0.61556 -1.432024,1.18294 -0.639204,0.7954 -0.961358,0.99867 -1.407038,0.8878 -0.545989,-0.13582 -1.655724,0.4619 -3.602208,1.94024 -2.231172,1.69454 -3.892913,2.60427 -4.612723,2.52526 -0.420495,-0.0462 -0.910352,0.0371 -1.088568,0.18499 -0.178219,0.14791 -0.443495,0.19509 -0.589505,0.10485 -0.14601,-0.0902 -0.7381664,0.0771 -1.3159068,0.37182 -0.5777368,0.29474 -1.2647698,0.53589 -1.5267428,0.53589 -0.261971,0 -1.657152,0.94356 -3.100401,2.0968 -1.443248,1.15323 -3.98496898,3.12327 -5.6482685,4.377872 -5.2954439,3.99424 -10.0337749,8.00649 -13.1725259,11.15403 -1.676451,1.68114 -3.907323,3.6331 -4.957493,4.33769 -1.92795,1.29351 -6.821996,6.25226 -8.241657,8.35062 -0.947131,1.39992 -0.902079,1.36662 -1.347946,0.99658 -0.303738,-0.25208 -0.518163,-0.22962 -1.033894,0.1083 -0.437899,0.28692 -0.707582,0.33427 -0.824686,0.14479 -0.0957,-0.15485 -0.284168,-0.21347 -0.41881,-0.13025 -0.134639,0.0832 -0.244801,0.026 -0.244801,-0.1272 0,-0.15317 -0.177506,-0.27849 -0.394458,-0.27849 -0.457701,0 -0.489263,-0.24235 -0.14834,-1.13905 0.172455,-0.45359 0.144603,-0.78616 -0.09306,-1.11118 -0.373355,-0.5106 -0.08996,-1.80005 0.761762,-3.46607 0.239371,-0.46822 0.356541,-0.97862 0.260382,-1.13421 -0.09616,-0.15559 0.01901,-0.4971 0.255956,-0.75891 0.236939,-0.26181 0.528967,-1.05313 0.648953,-1.75849 0.119986,-0.70536 0.305395,-1.48956 0.412017,-1.74267 0.138936,-0.32982 0.0719,-0.46021 -0.236604,-0.46021 -0.368211,0 -0.349111,-0.11003 0.132059,-0.76085 0.30939,-0.41847 0.667855,-1.32465 0.796588,-2.01373 0.128736,-0.68908 0.662538,-2.21052 1.186229,-3.38097 0.541005,-1.20914 1.035826,-2.82233 1.145909,-3.73583 0.214349,-1.7787 0.391616,-2.20534 0.916304,-2.20534 0.194268,0 0.486887,-0.38346 0.650267,-0.85213 0.163379,-0.468672 0.69122,-1.267452 1.172977,-1.775062 1.287168,-1.35625 3.574935,-4.4056 3.596875,-4.79424 0.01044,-0.18494 0.593886,-0.8096 1.296548,-1.38814 0.702662,-0.57854 1.837661,-1.74695 2.52222,-2.59646 1.630723,-2.02367 5.249255,-5.61459 5.849845,-5.80521 0.600607,-0.19062 3.019673,-2.96283 3.2110116,-3.67976 0.079447,-0.29769 0.3752904,-0.55825 0.6574307,-0.57903 0.2821377,-0.0208 0.6472932,-0.0504 0.811451,-0.0657 0.4165823,-0.039 1.1870174,-1.27748 1.2710765,-2.04325 0.038504,-0.35076 0.2997095,-0.89876 0.5804561,-1.21778 0.2807466,-0.31901 1.050051,-1.196753 1.709567,-1.950543 0.6595188,-0.753789 1.474954,-2.055502 1.81207898,-2.892695 1.15774054,-2.875047 2.28859752,-4.453628 4.98349552,-6.956546 1.444464,-1.341564 2.690088,-2.640189 2.768051,-2.885832 0.07796,-0.245645 0.806213,-1.550863 1.6183318,-2.90049 1.6205248,-2.693078 3.4733388,-4.923875 4.8879738,-5.885147 0.502585,-0.341514 0.989391,-0.922146 1.081789,-1.290292 0.187776,-0.748156 0.548947,-0.874461 0.779855,-0.272726 0.114143,0.297456 0.433518,0.09048 1.277254,-0.827736 0.618776,-0.673402 1.509648,-1.385993 1.97971,-1.583536 0.556889,-0.234029 0.85466,-0.541181 0.85466,-0.881583 0,-0.287329 -0.118337,-0.522415 -0.262972,-0.522415 -0.144635,0 -0.262972,-0.120591 -0.262972,-0.267982 0,-0.148109 0.26982,-0.200262 0.603192,-0.116592 0.702781,0.176386 1.650933,-0.685129 1.419054,-1.289392 -0.07992,-0.20828 0.03372,-0.597284 0.252548,-0.864453 0.358145,-0.437268 0.383419,-0.439819 0.253164,-0.02556 -0.210389,0.669117 0.357595,0.565445 1.17086,-0.213715 0.38688,-0.370652 2.167746,-1.64278 3.957486,-2.826953 2.054592,-1.359409 3.381618,-2.420741 3.600101,-2.879294 0.190315,-0.399442 0.745905,-0.893335 1.234642,-1.097544 1.573912,-0.657623 3.720923,-2.443002 4.465306,-3.713195 0.520635,-0.888397 0.783747,-1.135609 0.939842,-0.883043 0.306326,0.495645 1.300781,-0.433013 1.300781,-1.214714 0,-0.321462 0.177507,-0.731791 0.394459,-0.911846 0.329557,-0.273509 0.394458,-0.235539 0.394458,0.230774 0,0.706228 0.436713,0.727618 0.657431,0.0322 0.183058,-0.576764 0.781317,-0.700769 1.076511,-0.223135 0.230398,0.372795 0.895781,-0.449125 0.895781,-1.106524 0,-0.242122 0.245264,-0.752022 0.545031,-1.133114 0.606335,-0.770832 0.440337,-0.861723 -0.545031,-0.298437 -0.361587,0.206702 -0.93539,0.380016 -1.275118,0.385139 -1.0517,0.01586 -2.450555,0.842645 -2.789471,1.648687 -0.317605,0.755361 -0.322307,0.756739 -0.691575,0.202951 l -0.371795,-0.55758 -1.2383,0.65934 c -0.681064,0.362639 -1.509427,0.835055 -1.840806,1.049814 -0.331379,0.214759 -1.183386,0.535299 -1.89335,0.712308 -0.709965,0.177009 -1.508743,0.539735 -1.775063,0.806055 -0.26632,0.26632 -0.726772,0.484219 -1.023223,0.484219 -0.668415,0 -2.008424,0.678366 -2.879636,1.457784 -2.603972,2.329617 -4.765712,4.064634 -5.06432,4.064634 -0.1941,0 -0.494914,0.142005 -0.668476,0.315567 -0.726279,0.72628 -0.238873,-0.61469 1.502947,-4.134984 1.852766,-3.744513 3.250035,-5.593045 3.689809,-4.881474 0.471257,0.762507 1.035627,0.0837 1.117509,-1.344091 l 0.07996,-1.394313 1.577834,-0.269815 c 1.429125,-0.244386 1.602618,-0.345383 1.840806,-1.071599 0.144634,-0.440981 0.470063,-1.008457 0.723173,-1.26106 0.253111,-0.252601 0.460202,-0.651995 0.460202,-0.887545 0,-0.333099 -0.07013,-0.358142 -0.315567,-0.112702 -1.075983,1.075983 -0.951505,-0.491561 0.136722,-1.721711 0.480174,-0.542796 1.204245,-1.43067 1.609046,-1.97305 0.404801,-0.54238 0.847278,-0.986146 0.983282,-0.986146 0.136004,0 0.174143,0.118337 0.08475,0.262972 -0.183363,0.296688 0.147472,0.341244 0.767408,0.103351 0.228783,-0.08779 0.419186,-0.413219 0.423117,-0.723174 0.0047,-0.373139 0.673041,-1.126163 1.977946,-2.228688 1.083938,-0.915822 2.207332,-2.128782 2.49643,-2.695466 0.345317,-0.676877 0.705047,-1.030331 1.048631,-1.030331 0.287644,0 0.902497,-0.362675 1.366336,-0.805944 0.725493,-0.693321 0.884102,-0.750205 1.135017,-0.407058 0.160421,0.219388 0.519446,0.352515 0.797839,0.295839 1.893104,-0.385407 1.99612,-0.430701 1.849371,-0.813123 -0.08303,-0.216371 -0.005,-0.435049 0.17332,-0.48595 1.306286,-0.372808 2.822519,-1.020891 2.822519,-1.206431 0,-0.1229274 -0.258797,-0.3056404 -0.575105,-0.4060324 -0.529708,-0.168124 -0.539653,-0.208456 -0.125987,-0.5109369 0.247017,-0.180623 0.943707,-0.407492 1.548204,-0.504155 0.604497,-0.09666 1.250941,-0.301779 1.436541,-0.455812 0.185601,-0.154036 1.019833,-0.305848 1.853853,-0.33736 0.834019,-0.03151 2.167254,-0.279153 2.962745,-0.550306 1.79983,-0.613499 4.29935,-0.617733 5.581203,-0.0094 0.677635,0.321557 1.274458,0.402477 2.088557,0.283174 1.01192,-0.148295 1.271508,-0.06953 2.313536,0.701992 0.864729,0.640248 1.055113,0.89187 0.723174,0.9557959 -0.247804,0.04772 -0.450551,0.245727 -0.450551,0.440011 0,0.194284 -0.308913,0.5782704 -0.686476,0.8533054 l -0.686473,0.50006 0.838137,0.705247 c 0.91816,0.772581 1.785506,0.915482 2.009745,0.331121 0.212389,-0.553475 0.902794,-0.733664 1.354781,-0.353585 0.217964,0.18329 0.883405,0.569927 1.478758,0.859197 0.836694,0.406531 1.08246,0.674392 1.08246,1.179772 0,0.892755 -0.746591,0.988708 -1.130854,0.145343 -0.242627,-0.532509 -0.50501,-0.673991 -1.296001,-0.698826 -0.545481,-0.01712 -1.110122,-7.89e-4 -1.254757,0.03602 -0.144635,0.03694 -0.442559,0.08614 -0.662054,0.109333 -0.679097,0.07176 -1.047266,0.419365 -1.047266,0.988781 0,0.300307 -0.311937,0.835106 -0.693195,1.188443 -0.636303,0.589708 -0.658556,0.677067 -0.271156,1.064468 0.387398,0.3874 0.462174,0.385709 0.911128,-0.02059 0.324148,-0.293348 0.942488,-0.442625 1.833472,-0.442625 0.73941,0 1.417515,-0.118337 1.506905,-0.262972 0.08939,-0.144635 0.577503,-0.262972 1.084697,-0.262972 0.507195,0 1.180651,-0.140443 1.49657,-0.312093 0.745324,-0.404964 7.103318,-2.31919 7.242102,-2.180409 0.05833,0.05833 -0.205079,0.247823 -0.585355,0.421087 -0.380279,0.173267 -0.691415,0.413082 -0.691415,0.532924 0,0.332247 4.747055,-0.07728 5.509782,-0.47533 0.368537,-0.19233 0.819595,-0.350419 1.002351,-0.35131 0.182755,-7.89e-4 0.552854,-0.13937 0.822443,-0.30773 0.370901,-0.231632 1.274432,-0.234001 3.713533,-0.0097 1.77285,0.163006 3.41448,0.198467 3.64808,0.07881 0.90029,-0.461182 4.66009,-0.538522 7.524968,-0.154788 1.590982,0.213102 2.918572,0.388442 2.950192,0.389644 0.0316,0.0013 -0.0106,-0.175321 -0.0939,-0.392274 -0.0833,-0.216952 -0.0851,-0.394458 -0.004,-0.394458 0.30297,0 1.62478,0.655819 1.78903,0.887626 0.30918,0.436363 1.05237,-0.07471 1.00252,-0.689416 -0.0772,-0.951728 -0.0205,-1.022029 0.56955,-0.706257 0.43303,0.231752 0.60737,0.221736 0.77182,-0.04434 0.22081,-0.357279 0.46479,-0.284226 2.39098,0.715905 0.88683,0.460467 1.10397,0.45723 0.92323,-0.01375 -0.21193,-0.552281 4.4129,-0.711635 4.95217,-0.170635 0.40377,0.405064 2.76211,0.649765 2.76211,0.286595 0,-0.122037 -0.13838,-0.268016 -0.30751,-0.324395 -0.16914,-0.05638 0.33379,-0.113359 1.11763,-0.126621 0.78383,-0.01325 1.57278,0.09642 1.75321,0.243736 0.18044,0.14732 1.01495,0.298134 1.85448,0.335145 0.83952,0.03701 2.4584,0.380319 3.59751,0.762907 1.1391,0.382585 2.13882,0.594454 2.22159,0.470815 0.21745,-0.324811 4.68969,0.601459 5.22313,1.081789 0.24738,0.222758 1.08919,0.65646 1.87068,0.963783 1.58127,0.621837 2.70534,0.532961 3.25913,-0.257687 0.23557,-0.336326 0.4595,-0.414899 0.7213,-0.2531 0.30237,0.186879 0.31319,0.301124 0.0531,0.561167 -0.84403,0.844031 0.14444,1.035551 1.1722,0.227116 0.51726,-0.406876 0.77398,-0.459836 1.1788,-0.243184 0.28643,0.153295 0.96662,0.201101 1.52324,0.107059 0.73553,-0.124267 1.32599,-0.02401 2.19791,0.373195 0.65571,0.29871 1.36727,0.475927 1.58125,0.393816 0.35002,-0.134313 2.71103,0.519855 5.95762,1.650678 0.65085,0.226703 1.71589,0.494858 2.36675,0.595905 0.72408,0.112416 2.03785,0.708574 3.38495,1.536024 1.21086,0.74377 2.85783,1.597844 3.65991,1.897943 0.80209,0.300101 1.89484,0.891347 2.42833,1.31388 0.5335,0.422534 1.27539,0.884358 1.64867,1.026276 0.56767,0.215829 0.69214,0.179618 0.76102,-0.221394 0.0789,-0.45922 0.1405,-0.457214 1.46177,0.04759 0.75868,0.289859 2.04176,1.106614 2.85129,1.815009 0.80952,0.708397 2.08218,1.594467 2.82813,1.969045 1.55736,0.782027 4.56327,2.903942 6.06267,4.279732 0.56363,0.517164 0.94125,0.792375 0.83914,0.611582 -0.27968,-0.495233 -0.0192,-0.404055 1.21832,0.426551 0.61892,0.415396 2.01285,1.24819 3.09761,1.850652 1.08476,0.602462 3.15567,2.109769 4.60201,3.34957 1.44635,1.239802 3.27101,2.685006 4.0548,3.211566 3.15612,2.120319 7.10709,5.508794 8.00456,6.86495 0.34718,0.524632 1.06872,1.303451 1.6034,1.73071 2.00729,1.603992 4.20492,3.771633 4.01566,3.960886 -0.10792,0.107935 -0.53704,-0.130247 -0.95354,-0.529292 l -0.7573,-0.725538 0.73755,1.548499 c 0.84659,1.777438 1.34463,2.283618 2.03218,2.065393 0.7582,-0.240641 2.18172,1.393301 2.4459,2.80744 0.28235,1.51127 1.05481,2.721179 3.07599,4.817955 0.90396,0.937775 1.64357,1.827994 1.64357,1.978267 0,0.150273 -0.71107,-0.345259 -1.58017,-1.101178 -0.8691,-0.755922 -1.65268,-1.301913 -1.74127,-1.213315 -0.1935,0.193487 0.96897,2.238089 2.18243,3.83853 0.67713,0.893099 0.87604,1.411667 0.87604,2.283889 0,1.46114 0.28648,2.175843 1.5669,3.909067 0.62229,0.842395 0.92663,1.46274 0.74697,1.52262 -0.19786,0.066 -0.21911,0.23274 -0.0612,0.48001 0.13312,0.20842 0.25577,0.61561 0.27255,0.90488 0.0168,0.28927 0.12407,0.74634 0.23846,1.01572 0.18718,0.44085 0.11915,0.47026 -0.68102,0.29451 -0.8174,-0.17953 -0.859,-0.15911 -0.51661,0.25345 0.27993,0.33731 0.295,0.49653 0.0607,0.64136 -0.47409,0.29301 -0.45668,2.26831 0.0265,3.00574 0.52189,0.79652 0.30478,1.08101 -0.43146,0.56533 -0.7064,-0.49479 -1.05573,-0.49104 -0.86374,0.009 0.0922,0.24028 0,0.39446 -0.23483,0.39446 -0.54738,0 -0.48979,0.18797 0.40272,1.31486 0.93378,1.17902 0.97086,1.46196 0.24256,1.85172 -0.33279,0.17811 -0.48655,0.4482 -0.39335,0.69102 0.0994,0.25912 -0.0389,0.4488 -0.39528,0.54199 -0.39048,0.10212 -0.5043,0.28427 -0.39553,0.6331 0.51687,1.65787 0.50043,1.69539 -0.33001,0.7527 -0.64194,-0.72872 -0.81303,-0.8187 -0.8215,-0.43207 -0.007,0.32404 -0.14339,0.43741 -0.40513,0.33697 -0.59061,-0.22664 -0.47729,0.21926 0.28635,1.12681 0.50896,0.60486 0.57925,0.8091 0.27849,0.8091 -0.22127,0 -0.47664,-0.12027 -0.5675,-0.26726 -0.28348,-0.4587 -0.65477,-1.1e-4 -0.65477,0.80872 0,0.42537 -0.0731,0.7734 -0.16252,0.7734 -0.0894,0 -0.57514,-0.36231 -1.0795,-0.80513 -1.23387,-1.08335 -1.43751,-0.7694 -0.23596,0.36379 0.82973,0.78255 1.31849,1.7156 0.75481,1.44096 -0.10848,-0.0529 -0.52316,-0.25944 -0.92151,-0.45909 -0.39838,-0.19965 -0.80196,-0.28533 -0.8969,-0.1904 -0.2282,0.22822 0.68689,1.2277 1.12408,1.2277 0.46564,0 0.72396,1.55571 0.39985,2.40819 -0.145,0.38137 -0.22845,0.73515 -0.18548,0.78618 0.043,0.051 0.1581,0.80122 0.2558,1.66708 0.21976,1.947842 -0.0797,1.650952 -0.88099,-0.87355 -0.59468,-1.87348 -1.0963,-2.48332 -1.61554,-1.96409 -0.16181,0.1618 -0.0546,0.50485 0.29774,0.95278 0.58114,0.73881 0.47109,1.37076 -0.19426,1.11544 -0.49102,-0.18842 -1.64542,0.86818 -1.65154,1.51165 -0.003,0.295662 -0.121,0.403752 -0.31221,0.285582 -0.20688,-0.12785 -0.25266,-0.0468 -0.13974,0.24745 0.0924,0.24068 0.0463,0.4376 -0.10232,0.4376 -0.14863,0 -0.18579,0.13662 -0.0826,0.3036 0.12218,0.19768 0.0714,0.2318 -0.14537,0.0978 -0.19205,-0.11869 -0.42339,-0.0596 -0.54654,0.13969 -0.17445,0.28226 -0.29839,0.27639 -0.67726,-0.032 -0.41334,-0.33651 -0.445,-0.32753 -0.29126,0.0827 0.098,0.26151 0.0493,0.46019 -0.11292,0.46019 -0.16773,0 -0.22982,0.2906 -0.15064,0.70487 0.0741,0.38768 0.0103,0.94978 -0.14168,1.24912 -0.15206,0.29933 -0.36483,0.72175 -0.47283,0.9387 -0.13404,0.26922 0.14508,0.74756 0.87912,1.50658 0.59153,0.61167 0.98504,1.2026 0.87446,1.31318 -0.23765,0.23765 -1.39741,-1.07176 -2.71048,-3.06022 l -0.94023,-1.42385 -0.3643,0.6953 c -0.25374,0.48426 -0.28606,0.83661 -0.10648,1.16087 0.1418,0.25607 0.4403,0.84458 0.66335,1.30782 l 0.4055,0.84224 -1.24943,-0.64285 c -0.6872,-0.35357 -1.64836,-0.72065 -2.13589,-0.81573 l -0.88642,-0.17287 0.47989,0.7324 0.47988,0.7324 -0.61397,-0.36446 c -0.46099,-0.27365 -0.64238,-0.28624 -0.72809,-0.0505 -0.0627,0.17267 -0.28395,0.24877 -0.49157,0.1691 -0.58065,-0.22282 -0.45247,0.46788 0.28945,1.5597 0.3668,0.53979 0.61654,0.98144 0.55501,0.98144 -0.0616,0 -0.81974,-0.71002 -1.68486,-1.57783 -1.61725,-1.62227 -2.0045,-1.8832 -1.72887,-1.16492 0.14003,0.36489 -0.14383,0.39309 -2.44074,0.24255 -1.42956,-0.0937 -2.77671,-0.24188 -2.99366,-0.3293 -0.45438,-0.18309 -4.18463,-0.58806 -6.31133,-0.68517 -0.79549,-0.0363 -1.62386,-0.14751 -1.84081,-0.24708 -0.21695,-0.0996 -0.96547,-0.28616 -1.66337,-0.41465 -0.79493,-0.14635 -1.41155,-0.43726 -1.65077,-0.7788 -0.43687,-0.62372 -1.04219,-0.50636 -1.23734,0.23989 -0.073,0.27927 -0.32137,0.50776 -0.55186,0.50776 -0.56503,0 -0.5275,0.43664 0.10687,1.2431 0.28927,0.36775 0.52594,0.89713 0.52594,1.1764 0,0.27927 0.1225,0.73666 0.27223,1.01642 0.40699,0.76047 0.0584,0.61517 -0.813,-0.33886 -0.73731,-0.80729 -0.77408,-0.81882 -0.77408,-0.24282 0,0.59034 -0.0142,0.58704 -0.59792,-0.13862 -1.43464,-1.78357 -1.40605,-1.71473 -0.63138,-1.5203 0.7861,0.1973 0.88756,-0.0563 0.3266,-0.81637 -0.30197,-0.40914 -0.44291,-0.44521 -0.71003,-0.18175 -0.53693,0.52959 -0.97428,0.39001 -2.05998,-0.65743 -1.28793,-1.24254 -2.51011,-2.16952 -2.86042,-2.16952 -0.14856,0 -0.42095,-0.41715 -0.60532,-0.927 -0.18436,-0.50985 -0.69496,-1.15695 -1.13465,-1.438 -0.4397,-0.281042 -1.05898,-0.702232 -1.3762,-0.935962 -0.31721,-0.23372 -0.77066,-0.3854 -1.00766,-0.33706 -0.64865,0.13232 1.69882,3.064932 4.46239,5.574732 1.25253,1.1375 2.21662,2.1289 2.14242,2.2031 -0.30799,0.30798 -7.83582,-6.26515 -7.71777,-6.738982 0.0222,-0.0891 -0.0557,-0.44563 -0.17317,-0.79224 -0.15844,-0.46762 -0.10261,-0.6923 0.2164,-0.87083 0.5263,-0.29453 0.3047,-0.73422 -0.37004,-0.73422 -0.66852,0 -0.87269,0.40398 -0.52885,1.04645 0.15641,0.29226 0.21343,0.53138 0.12671,0.53138 -0.36687,0 -2.7104,-2.23088 -2.48795,-2.36836 0.55354,-0.3421 -6.77423,-6.6807 -7.76028,-6.71273 -0.40458,-0.0131 -4.32391,-2.86584 -5.67016,-4.12705 -0.6598,-0.61812 -0.98451,-0.95693 -0.72157,-0.75292 0.26294,0.20401 0.53717,0.31184 0.6094,0.23961 0.15378,-0.15378 -2.14135,-2.14611 -3.6159,-3.13884 -0.56164,-0.37812 -1.19818,-0.94022 -1.41454,-1.24912 -0.21636,-0.30889 -0.57473,-0.56162 -0.79638,-0.56162 -0.22166,0 -2.01959,-1.04951 -3.99542,-2.33223 -1.97582,-1.28272 -3.98191,-2.530836 -4.45796,-2.773591 -0.47606,-0.242752 -1.51276,-1.027485 -2.30379,-1.743845 -1.08439,-0.982026 -1.64231,-1.302476 -2.26768,-1.302476 -0.48627,0 -2.20969,-0.679999 -4.16556,-1.643577 -4.29784,-2.117371 -5.32672,-2.566315 -6.22718,-2.717164 -0.40562,-0.06795 -1.03334,-0.229838 -1.39492,-0.359746 -0.84768,-0.304551 -2.66795,-0.642473 -3.08449,-0.572617 -0.1778,0.02982 -0.95841,-0.246255 -1.73469,-0.613496 -0.77628,-0.367238 -1.52902,-0.667708 -1.67275,-0.667708 -0.14373,0 -0.9015,-0.352869 -1.68394,-0.784152 -1.46241,-0.806083 -1.95616,-0.968495 -1.70401,-0.560507 0.0793,0.128247 -0.0177,0.367417 -0.21533,0.531488 -0.28093,0.233146 -0.38973,0.182501 -0.49809,-0.231849 -0.19883,-0.760348 -0.93001,-0.961232 -1.35972,-0.373568 -0.32733,0.447655 -0.34557,0.428561 -0.21968,-0.22999 0.11355,-0.594036 0.0438,-0.718172 -0.4038,-0.718172 -0.29759,0 -0.61421,0.118337 -0.7036,0.262972 -0.21139,0.342032 -1.18338,0.342032 -1.18338,0 0,-0.144635 -0.33529,-0.262972 -0.74509,-0.262972 -0.4098,0 -0.83368,-0.08859 -0.94196,-0.196872 -0.10828,-0.108279 -1.104282,-0.392728 -2.213354,-0.632112 -1.818936,-0.392604 -2.100606,-0.395947 -2.875376,-0.03412 -0.4724,0.220613 -0.92533,0.508601 -1.00652,0.639975 -0.16952,0.27428 0.8936,2.175893 1.85564,3.319215 0.62792,0.746244 4.49723,2.803061 6.49834,3.454341 0.8817,0.286956 1.33481,0.726756 4.20602,4.082422 0.4961,0.579806 0.4557,-0.128036 -0.0569,-0.996815 -0.30801,-0.522032 -0.51335,-1.089134 -0.45632,-1.260229 0.13104,-0.39312 1.2733,0.810031 2.3467,2.471805 0.44378,0.687016 0.92796,1.249119 1.07598,1.249119 0.14801,0 0.93484,0.680441 1.7485,1.512091 0.81367,0.83165 2.0318,1.82898 2.70696,2.21629 0.9124,0.5234 1.36125,1.00644 1.74831,1.88145 0.59751,1.35077 3.30876,5.50452 3.92534,6.0138 0.36399,0.30064 0.39582,0.24699 0.26548,-0.4473 l -0.14811,-0.78892 0.76315,0.91047 c 0.54765,0.65337 0.76315,1.19174 0.76315,1.90655 0,0.95178 0.6926,2.04797 1.29396,2.04797 0.13315,0 0.31899,0.38459 0.41298,0.85466 0.094,0.47006 0.35039,1.41918 0.56976,2.10916 0.33242,1.0455 0.345,1.46467 0.0755,2.51609 -0.28203,1.10043 -0.26598,1.34912 0.12568,1.94687 0.42026,0.6414 0.42095,0.73956 0.0107,1.533 -0.4199,0.812002 -0.41319,0.901472 0.15933,2.123812 0.79692,1.70146 1.14862,1.6375 0.93615,-0.17024 -0.21051,-1.791102 0.34041,-2.011202 0.9873,-0.39446 0.23149,0.57853 0.59617,1.05188 0.81042,1.05188 0.32783,0 0.36395,0.3897 0.22797,2.45976 -0.11278,1.71693 -0.0709,2.51578 0.13853,2.64525 0.16506,0.10201 0.30011,0.58569 0.30011,1.07484 0,1.11166 0.4509,1.44247 0.68652,0.50366 0.15085,-0.60105 0.21134,-0.63807 0.4234,-0.25915 0.19471,0.34793 0.32688,0.37611 0.62063,0.13233 0.3054,-0.25346 0.37323,-0.19027 0.37323,0.34767 0,0.36159 0.1877,0.81323 0.41712,1.00363 0.28751,0.23861 0.36906,0.58655 0.26243,1.1197 -0.0851,0.42543 -0.0381,1.20645 0.10436,1.73559 0.29148,1.0825 0.0206,3.2129 -0.42756,3.36228 -0.16147,0.0538 -0.37124,-0.21155 -0.46615,-0.58971 -0.35453,-1.41253 -1.41112,0.01 -1.76346,2.37398 -1.07059,7.18356 -1.12373,7.37751 -2.4497,8.94106 l -0.66903,0.78892 0.39221,-0.9777 c 0.527,-1.31368 0.50289,-1.70376 -0.19496,-3.1539 -0.94905,-1.97214 -1.97597,-1.43676 -1.17165,0.61084 0.36284,0.9237 0.36558,1.06911 0.0226,1.20072 -0.54139,0.20775 -0.72175,-0.0382 -1.02498,-1.39761 -0.14464,-0.64842 -0.38131,-1.16755 -0.52595,-1.15363 -0.30146,0.029 -0.19747,1.63931 0.16794,2.6004 0.20755,0.54591 0.11773,0.78024 -0.57174,1.4916 -0.44989,0.46417 -0.78771,1.0069 -0.75072,1.20607 0.037,0.19917 -0.0822,1.04791 -0.26488,1.88609 -0.18722,0.85901 -0.25428,1.98479 -0.1537,2.58012 0.16781,0.99324 0.11276,1.11862 -0.9241,2.10496 -0.60639,0.57685 -1.20844,1.42754 -1.33789,1.89042 -0.28023,1.00196 -1.81883,2.08674 -1.81883,1.28234 0,-0.25036 0.1912,-0.72819 0.42489,-1.06182 0.29637,-0.42313 0.34149,-0.69003 0.14916,-0.88235 -0.47199,-0.47199 -1.06364,-0.0148 -1.67646,1.29549 -0.33787,0.72242 -1.60079,2.30756 -2.96065,3.71602 -2.53411,2.62469 -3.33197,3.23379 -3.51534,2.68367 -0.0654,-0.1963 -0.63334,0.18187 -1.42427,0.94844 -0.7235,0.7012 -1.18312,1.01644 -1.02138,0.70052 0.16174,-0.31592 0.29407,-0.771 0.29407,-1.0113 0,-0.24029 0.26064,-0.80292 0.5792,-1.25029 0.31855,-0.44737 0.55787,-1.07097 0.53182,-1.38576 -0.0261,-0.3148 0.18666,-0.78416 0.47269,-1.04302 0.66224,-0.59931 0.66806,-1.35861 0.012,-1.56683 -0.27942,-0.0887 -0.61824,-0.48126 -0.75294,-0.87238 l -0.24489,-0.71114 -1.15361,1.30739 c -1.41125,1.59938 -2.49056,2.67892 -3.59882,3.59962 -0.547,0.45441 -0.84195,0.93594 -0.84195,1.37454 0,0.45186 -0.23913,0.82418 -0.72317,1.12594 -0.39775,0.24796 -2.337772,2.02575 -4.31117,3.95065 -1.9734,1.92489 -3.70605,3.4998 -3.85033,3.4998 -0.14429,0 -0.33659,-0.29584 -0.42734,-0.65743 -0.1088,-0.4335 -0.34842,-0.65743 -0.70348,-0.65743 -0.77737,0 -2.28214,1.23608 -2.77872,2.28255 -0.27016,0.56931 -0.82363,1.09982 -1.508216,1.44562 -0.594793,0.30045 -1.377288,0.88731 -1.738875,1.30412 -0.373111,0.4301 -2.154474,1.49309 -4.119025,2.45794 -2.413859,1.18551 -3.633956,1.94215 -4.03106,2.49983 -0.815232,1.14489 -1.874377,1.62395 -3.142158,1.42122 -0.811514,-0.12977 -1.26441,-0.0392 -2.013011,0.40247 -1.362286,0.80377 -4.074298,1.39334 -6.614897,1.43802 -1.193237,0.021 -2.169521,0.007 -2.169521,-0.0304 z M 94.18615,63.807501 l -0.0802,-1.249118 -1.271,0.02438 c -1.60296,0.03074 -3.53921,0.428017 -3.59513,0.737645 -0.0493,0.273071 3.36544,1.474747 4.85868,1.709804 0.0923,0.01454 0.13173,-0.535687 0.0876,-1.222703 z M 74.865218,163.57195 c 0,-0.0546 0.177506,-0.2466 0.394459,-0.42666 0.323064,-0.26811 0.394458,-0.25015 0.394458,0.0993 0,0.23466 -0.177506,0.42666 -0.394458,0.42666 -0.216953,0 -0.394459,-0.0447 -0.394459,-0.0993 z M 56.800537,115.16116 c -0.959294,-0.84395 -0.693821,-0.8489 0.445538,-0.008 0.490104,0.36158 0.756369,0.65743 0.591698,0.65743 -0.164668,0 -0.631425,-0.29211 -1.037236,-0.64912 z m -3.762018,-1.19169 c 0,-0.14463 0.177506,-0.26297 0.394458,-0.26297 0.216952,0 0.394459,0.11834 0.394459,0.26297 0,0.14464 -0.177507,0.26297 -0.394459,0.26297 -0.216952,0 -0.394458,-0.11833 -0.394458,-0.26297 z m -5.522418,-2.49824 c 0,-0.24105 0.127213,-0.39588 0.282695,-0.34405 0.155482,0.0518 0.282695,0.20665 0.282695,0.34405 0,0.13741 -0.127213,0.29223 -0.282695,0.34406 -0.155482,0.0518 -0.282695,-0.103 -0.282695,-0.34406 z m 0.19836,-1.77506 c -0.169967,-0.46219 0.06182,-1.01892 0.350045,-0.84079 0.309744,0.19143 0.314491,1.16951 0.0057,1.16951 -0.129162,0 -0.289235,-0.14792 -0.35572,-0.32872 z m 126.554279,-1.00098 c 0,-0.15279 -0.38138,-0.62614 -0.84752,-1.05189 -0.62064,-0.56687 -0.72872,-0.77409 -0.40371,-0.77409 0.24409,0 0.57351,0.24234 0.73202,0.53853 0.15852,0.29619 0.57687,0.64828 0.92966,0.78241 0.77416,0.29434 0.84623,0.78284 0.1155,0.78284 -0.28927,0 -0.52595,-0.12501 -0.52595,-0.2778 z m 40.56098,-8.922652 c -0.45868,-0.73448 -0.42481,-0.79249 0.4627,-0.79249 0.82718,0 1.03464,0.438 0.47335,0.99929 -0.42894,0.428942 -0.55664,0.400722 -0.93605,-0.2068 z m 1.38328,-2.9951 c -0.46959,-0.34337 -0.45325,-0.3833 0.32044,-0.78339 0.44839,-0.23187 0.87575,-0.57199 0.94972,-0.75582 0.074,-0.18384 0.14382,-0.0173 0.15526,0.37014 0.0113,0.38742 -0.1652,0.89035 -0.39249,1.11763 -0.4982,0.49818 -0.42683,0.49463 -1.03293,0.0514 z m 1.46692,-2.42132 c 0.0126,-0.30635 0.0749,-0.36866 0.15888,-0.15888 0.076,0.18983 0.0666,0.41665 -0.0208,0.50403 -0.0874,0.0874 -0.14955,-0.0679 -0.13814,-0.34515 z m 0.76164,-6.56951 c -0.31835,-0.83735 -0.33618,-2.03549 -0.0275,-1.84468 0.12596,0.0778 0.29519,0.46942 0.37605,0.87018 0.0809,0.40075 0.22715,0.93574 0.32509,1.18885 0.10524,0.27207 0.0564,0.4602 -0.1196,0.4602 -0.16368,0 -0.41303,-0.30355 -0.55409,-0.67455 z M 19.115094,41.955814 c 0,-0.122219 0.236675,-0.436402 0.525945,-0.698189 0.578794,-0.523801 0.67278,-0.371274 0.253721,0.411747 -0.274415,0.512748 -0.779666,0.698373 -0.779666,0.286442 z M 33.57857,34.551831 c 0,-0.144634 0.118337,-0.262972 0.262972,-0.262972 0.144635,0 0.262972,0.118338 0.262972,0.262972 0,0.144635 -0.118337,0.262973 -0.262972,0.262973 -0.144635,0 -0.262972,-0.118338 -0.262972,-0.262973 z m 2.235264,-17.619145 c 0.08939,-0.144634 0.214712,-0.262972 0.278493,-0.262972 0.06378,0 0.115966,0.118338 0.115966,0.262972 0,0.144635 -0.125323,0.262973 -0.278493,0.262973 -0.153171,0 -0.205355,-0.118338 -0.115966,-0.262973 z m 1.977567,-2.24162 c 0.182956,-0.220447 0.386801,-0.346658 0.452991,-0.280468 0.182369,0.182371 -0.18817,0.681282 -0.505985,0.681282 -0.174377,0 -0.154425,-0.150888 0.05299,-0.400814 z m 35.233011,-1.296115 c 0,-0.210135 -0.473305,-0.762422 -1.051786,-1.227304 -0.578484,-0.464883 -1.012843,-0.884187 -0.96524,-0.931788 0.07265,-0.07265 2.967518,1.382961 3.312691,1.665699 0.132816,0.108794 -0.812437,0.85497 -1.098436,0.867098 -0.108476,0.0046 -0.197229,-0.163566 -0.197229,-0.373705 z"
       id="path847" />
  </g>
</svg>
