<svg xmlns="http://www.w3.org/2000/svg" viewBox="0 0 220.093 204.997"><defs><filter style="color-interpolation-filters:sRGB" id="a"><feFlood flood-opacity=".804" flood-color="#2A1D04" result="flood"/><feComposite in="flood" in2="SourceGraphic" operator="in" result="composite1"/><feGaussianBlur in="composite1" stdDeviation="2" result="blur"/><feOffset dy="2.3" result="offset"/><feComposite in="SourceGraphic" in2="offset" result="composite2"/></filter></defs><g transform="translate(.6 -60.92)"><circle style="fill:#800f13;fill-opacity:1;fill-rule:evenodd;stroke:#030d04;stroke-width:7.265;stroke-miterlimit:4;stroke-dasharray:none;stroke-opacity:1" cx="109.427" cy="163.419" r="98.866"/><path style="fill:#000;stroke-width:.0422995;filter:url(#a)" d="M85.335 213.573c-4.296-.173-8.829-1.474-12.706-3.645-1.225-.685-2.377-1.498-3.114-2.198l-.423-.402-.508.143c-4.949 1.39-10.409 1.778-13.472.957-.466-.125-.924-.284-1.159-.403l-.164-.084.527-.223c4.622-1.955 9.05-5.975 12.838-11.655 2.207-3.309 4.373-7.536 5.257-10.258.45-1.385.159-2.326-.882-2.847-.498-.25-.875-.325-1.612-.324-.842 0-1.547.159-2.215.494-.136.068-.253.118-.26.11a15.783 15.783 0 0 1-.188-.732c-1.045-4.313-2.424-7.45-4.321-9.835-.427-.536-1.322-1.44-1.814-1.834-1.117-.892-2.417-1.541-3.726-1.86-.888-.217-1.318-.26-2.62-.258-4.09.006-7.239.786-10.215 2.535-.349.205-1.1.677-1.67 1.05-1.495.975-2.068 1.334-2.665 1.669-1.557.87-3.078 1.365-4.928 1.604-.483.062-.881.076-2.158.073-1.617-.006-2.484-.054-3.916-.23-4.146-.509-7.803-1.812-10.647-3.793a10.73 10.73 0 0 1-.666-.496l-.168-.148h.538c.807 0 1.946-.08 2.846-.193 4.354-.547 7.464-2.135 10.148-5.18 1.135-1.289 1.984-2.48 3.98-5.584 1.749-2.718 2.73-4.15 3.76-5.478 3.237-4.18 7.058-7.347 11.891-9.856.396-.205.724-.376.729-.38a3.616 3.616 0 0 0-.14-.384c-.378-.958-.78-2.594-1.053-4.29-.775-4.812-.867-12.166-.208-16.646.059-.395.122-.791.142-.88.033-.149.028-.164-.074-.203-.15-.057-.47.017-.772.178-.722.385-1.733 1.434-2.557 2.654l-.296.437-.17-.018c-.559-.06-1.42.233-2.242.762-.96.618-1.956 1.713-2.538 2.792-.09.167-.171.297-.18.288-.021-.02.22-1.335.374-2.042 1.103-5.049 2.949-8.985 5.799-12.372.553-.657 2.018-2.136 2.657-2.683 2.125-1.816 3.859-2.955 7.953-5.22 2.208-1.222 3.012-1.694 3.934-2.306 1.61-1.07 2.631-2.028 3.364-3.154a7.95 7.95 0 0 0 .76-1.614c.064-.203.12-.37.127-.37.031 0-.097 2.063-.172 2.77-.265 2.499-.756 4.515-1.567 6.432a34.98 34.98 0 0 1-.835 1.754c-.935 1.835-1.194 2.372-1.4 2.89-.788 1.998-.996 4.17-.655 6.839.434 3.404 1.954 7.205 4.286 10.72 1.967 2.966 4.607 5.754 6.9 7.287.209.14.418.273.464.296.06.03.315.013.846-.055.42-.054 1.628-.195 2.686-.314 1.059-.12 1.93-.223 1.938-.23.008-.009-.043-.202-.112-.431-.868-2.85-2.267-8.966-2.913-12.726-.147-.853-.16-.996-.159-1.713.005-2.503.954-4.777 2.933-7.029 1.245-1.416 2.354-2.355 6.054-5.123 3.339-2.498 4.139-3.152 5.439-4.45 1.416-1.412 2.282-2.573 3.015-4.04.452-.906.738-1.705.955-2.676.217-.968.255-1.36.256-2.633 0-1.058-.01-1.243-.098-1.734-.336-1.872-.95-3.496-2.27-6.006-.75-1.427-1.17-2.27-1.146-2.295.045-.044 1.63.905 2.69 1.61 4.227 2.816 7.595 6.05 9.588 9.208.993 1.574 1.698 3.26 1.995 4.78.176.894.196 1.112.194 2.115-.001.832-.017 1.077-.094 1.502-.285 1.575-.84 2.881-1.932 4.547-.729 1.112-1.443 2.024-3.578 4.574-1.438 1.717-2.202 2.706-2.941 3.807-1.764 2.627-2.712 5.074-2.996 7.735-.096.901-.12 1.706-.068 2.22.133 1.303.62 2.745 1.565 4.635.327.654 1.229 2.327 1.294 2.402.007.008.362-.006.788-.031 2.342-.143 5.28-.248 7.967-.286l2.074-.028.16.14c.59.519.87 2.296.941 6.007.06 3.124-.127 7.571-.66 15.63-.347 5.258-.348 5.268-.237 7.36.13 2.45.463 10.44.658 15.798.046 1.268.108 2.915.138 3.66.07 1.796.07 5.804 0 6.64-.166 1.949-.41 3.164-.902 4.484-.339.912-1.156 2.456-1.952 3.687l-.195.303-.323.03c-.334.03-.781 0-1.134-.073-.184-.039-.198-.05-.144-.113.034-.038.138-.203.233-.366.752-1.291.742-2.708-.024-3.408-.259-.236-.583-.358-.83-.312-.136.026-.144.035-.107.132.074.195.044.666-.068 1.056-.136.479-.604 1.432-.984 2.005-.284.428-.861 1.098-.946 1.098-.076 0-.206-.373-.563-1.615-.606-2.106-.99-3.158-1.59-4.349-.182-.36-.438-.827-.57-1.036-.868-1.387-1.958-2.43-3.17-3.036-.28-.14-1.107-.42-1.188-.404-.037.008-.213.344-.416.796-.346.77-.992 2.077-1.258 2.544l-.136.239.173.438c.404 1.023.554 1.683.589 2.595.047 1.232-.212 2.345-.854 3.68-.266.554-.788 1.43-.826 1.385a3.35 3.35 0 0 1-.144-.39c-.424-1.296-1.04-2.031-1.864-2.224-.503-.117-.956-.035-1.653.3-.642.31-1.229.757-1.987 1.517-1.984 1.99-3.825 5.159-3.825 6.586 0 1.607 1.367 3.702 3.562 5.456.875.7 2.022 1.372 2.74 1.606l.318.104-.444.026c-.91.054-1.906.067-2.686.036zm5.878-39.922c.355-.166.758-.547 1.06-1 .123-.187.435-.767.693-1.29.712-1.446.994-1.757 2.056-2.265.302-.145.584-.302.627-.35.043-.048.18-.436.305-.862s.352-1.135.506-1.575c.153-.44.273-.824.266-.853-.015-.06-2.437-1.69-3.375-2.27-1.695-1.047-4.186-2.367-5.732-3.036-3.146-1.363-6.259-2.232-9.158-2.556-.813-.09-2.017-.158-2.548-.143l-.454.014.429.782c1.271 2.323 1.452 3.057 1.112 4.526-.021.093.004.123.212.246.493.294 1.122.803 1.676 1.357 1.054 1.055 1.756 2.033 3.084 4.298.887 1.511 1.134 1.837 1.831 2.418 1.226 1.022 3.125 1.944 5.05 2.45.755.2 1.231.27 1.69.255.328-.012.43-.034.67-.146zm40.186 39.92c-1.048-.048-1.025-.043-.677-.161 1.16-.394 2.533-1.31 3.781-2.52 1.436-1.393 2.32-2.849 2.504-4.12.089-.62-.02-1.154-.426-2.105-.973-2.274-3.122-5.023-4.759-6.087-1.058-.689-1.886-.848-2.631-.507-.25.114-.67.491-.868.778-.194.28-.474.874-.602 1.275l-.135.423c-.062.191-1.047-1.682-1.323-2.517-.302-.912-.359-1.274-.36-2.284-.003-.782.01-.942.097-1.333a9.06 9.06 0 0 1 .481-1.539l.17-.418-.077-.132c-.302-.51-.8-1.501-1.207-2.397-.351-.774-.498-1.055-.55-1.055-.04 0-.267.068-.506.151-2.17.756-3.808 2.63-5.043 5.771-.342.868-.569 1.567-.98 3.013-.327 1.152-.453 1.513-.526 1.513-.065 0-.45-.408-.702-.742-.578-.767-1.08-1.748-1.271-2.478-.08-.308-.094-.829-.025-.958.043-.079.033-.09-.111-.113-.345-.058-.791.174-1.045.542-.254.369-.33.62-.35 1.169-.029.724.148 1.352.582 2.075.116.192.203.358.193.368-.086.086-1.064.161-1.398.107-.247-.04-.223-.01-.924-1.175-1.484-2.471-2.033-4.125-2.295-6.916-.093-.985-.126-4.067-.065-5.947.179-5.494.524-14.215.747-18.904.195-4.073.206-3.42-.152-8.883-.285-4.36-.286-4.374-.357-5.647-.229-4.076-.292-5.98-.295-8.904-.003-2.775.028-3.557.19-4.865.187-1.501.507-2.356.923-2.46.059-.016 1.003-.015 2.097 0 2.684.038 5.034.12 7.521.263.622.035 1.149.054 1.17.04.056-.033.666-1.135 1.15-2.074.837-1.627 1.324-2.875 1.59-4.082.092-.412.111-.627.128-1.396.066-3.006-.823-5.927-2.708-8.893-.8-1.258-1.674-2.406-3.455-4.535-2.712-3.242-3.555-4.4-4.33-5.945-.793-1.582-1.127-2.915-1.127-4.498 0-2.035.596-4.083 1.81-6.225a26.994 26.994 0 0 1 1.415-2.13c1.845-2.432 4.554-4.941 7.73-7.16 1.347-.94 3.47-2.251 3.537-2.184.026.027-.312.703-.922 1.844-2.323 4.346-2.962 6.89-2.507 9.99.408 2.774 1.763 5.226 4.236 7.66 1.248 1.23 2.159 1.97 5.322 4.332 3.492 2.607 4.575 3.51 5.767 4.8 2.19 2.372 3.236 4.762 3.238 7.403 0 .681-.014.82-.177 1.748-.68 3.876-1.975 9.542-2.85 12.476-.095.32-.166.59-.156.6.009.009.464.066 1.01.127 1.848.206 4.25.49 4.319.511.082.026.677-.36 1.35-.871 2.945-2.245 5.9-5.867 7.849-9.621 1.535-2.958 2.432-5.87 2.681-8.707.061-.695.062-2.246 0-2.843a11.356 11.356 0 0 0-.917-3.53 73.355 73.355 0 0 0-1.068-2.178c-.554-1.097-.986-2.015-1.176-2.496-.891-2.269-1.351-4.614-1.533-7.82-.059-1.04-.06-1.036.12-.511.566 1.651 1.652 2.967 3.602 4.362.828.593 1.979 1.277 4.359 2.594 3.41 1.888 4.826 2.769 6.598 4.107 1.357 1.025 2.95 2.508 3.97 3.697 3.105 3.621 5.11 8.092 6.16 13.746.081.437.148.817.148.843 0 .026-.1-.134-.223-.355-.784-1.413-1.945-2.551-3.217-3.152-.524-.249-.968-.365-1.387-.365h-.337l-.288-.431c-1-1.49-2.224-2.649-2.976-2.817a.996.996 0 0 0-.33-.018c-.123.025-.131.037-.107.159.58 2.832.762 8.554.423 13.35-.242 3.422-.776 6.46-1.472 8.378a8.729 8.729 0 0 0-.183.53c.004.006.294.154.643.335 4.546 2.364 8.028 5.14 11.164 8.903 1.327 1.592 2.444 3.174 4.479 6.345 2.397 3.735 3.283 4.936 4.721 6.402 2.093 2.131 4.255 3.353 7.243 4.092 1.384.342 3.474.584 5.09.59h.55l-.147.126c-.299.255-1.096.804-1.68 1.158-3.533 2.136-7.991 3.287-13.147 3.394-1.822.038-3.004-.074-4.314-.409-1.672-.426-2.845-.98-4.864-2.296-2.428-1.582-3.131-2.005-4.083-2.453-2.594-1.222-5.326-1.777-8.777-1.784-1.259 0-1.624.03-2.468.215-1.359.3-2.779.994-3.927 1.922-.49.395-1.426 1.348-1.847 1.879a17.641 17.641 0 0 0-1.803 2.824c-.967 1.855-1.772 4.108-2.42 6.77-.12.493-.222.902-.228.91a.871.871 0 0 1-.215-.09 6.485 6.485 0 0 0-1.283-.436c-.273-.06-.525-.078-1.037-.075-.608.006-.715.015-1.057.118-.618.186-1.022.461-1.291.877-.235.364-.313.7-.285 1.235.019.377.05.522.221 1.027.422 1.246 1.052 2.698 1.952 4.5 1.939 3.881 4.125 7.195 6.72 10.18.718.828 2.462 2.565 3.258 3.247 2.008 1.72 4.121 3.057 6.193 3.918l.482.2-.165.084c-.385.195-1.146.421-1.942.577-.628.123-1.349.197-2.327.238-2.862.122-6.728-.373-10.067-1.289l-.804-.22-.36.338c-1.492 1.407-3.956 2.846-6.746 3.942a29.379 29.379 0 0 1-7.843 1.88c-.467.045-2.305.13-2.563.12-.07-.006-.47-.021-.888-.04zm-1.976-39.884c2.266-.459 4.814-1.713 6.1-3.003.444-.445.621-.704 1.437-2.095 1.193-2.03 1.986-3.143 2.938-4.118.587-.6.991-.936 1.59-1.32.348-.224.418-.287.4-.357a3.919 3.919 0 0 1-.134-1.268c.037-.83.252-1.443.974-2.777.446-.825.663-1.246.663-1.29 0-.015-.414-.017-.92-.006-4.912.139-10.112 1.776-15.513 4.883-1.136.653-1.819 1.083-3.437 2.162-.894.595-1.364.934-1.364.98 0 .04.15.51.335 1.044.184.535.405 1.228.491 1.54.087.312.174.6.195.64.02.04.333.216.693.392.553.27.703.364.956.603.428.404.604.674 1.122 1.724.513 1.039.77 1.453 1.114 1.796.245.244.635.479.915.55.237.06.941.02 1.445-.083z"/></g></svg>