<?xml version="1.0" encoding="UTF-8" standalone="no"?>
<svg
   xmlns:dc="http://purl.org/dc/elements/1.1/"
   xmlns:cc="http://creativecommons.org/ns#"
   xmlns:rdf="http://www.w3.org/1999/02/22-rdf-syntax-ns#"
   xmlns:svg="http://www.w3.org/2000/svg"
   xmlns="http://www.w3.org/2000/svg"
   xmlns:sodipodi="http://sodipodi.sourceforge.net/DTD/sodipodi-0.dtd"
   xmlns:inkscape="http://www.inkscape.org/namespaces/inkscape"
   viewBox="0 0 339.05298 339.05298"
   version="1.1"
   id="svg8"
   inkscape:version="1.0.1 (0767f8302a, 2020-10-17)"
   sodipodi:docname="Mardu Horde.svg">
  <defs
     id="defs2">
    <filter
       style="color-interpolation-filters:sRGB;"
       inkscape:label="Drop Shadow"
       id="filter1732">
      <feFlood
         flood-opacity="0.803922"
         flood-color="rgb(72,49,7)"
         result="flood"
         id="feFlood1722" />
      <feComposite
         in="flood"
         in2="SourceGraphic"
         operator="in"
         result="composite1"
         id="feComposite1724" />
      <feGaussianBlur
         in="composite1"
         stdDeviation="2"
         result="blur"
         id="feGaussianBlur1726" />
      <feOffset
         dx="0"
         dy="2.3"
         result="offset"
         id="feOffset1728" />
      <feComposite
         in="SourceGraphic"
         in2="offset"
         operator="over"
         result="composite2"
         id="feComposite1730" />
    </filter>
  </defs>
  <sodipodi:namedview
     id="base"
     pagecolor="#ffffff"
     bordercolor="#666666"
     borderopacity="1.0"
     inkscape:pageopacity="0.0"
     inkscape:pageshadow="2"
     inkscape:zoom="1.4"
     inkscape:cx="111.84364"
     inkscape:cy="252.69126"
     inkscape:document-units="mm"
     inkscape:current-layer="layer1"
     inkscape:document-rotation="0"
     showgrid="false"
     fit-margin-top="0"
     fit-margin-left="0"
     fit-margin-right="0"
     fit-margin-bottom="0"
     inkscape:window-width="1647"
     inkscape:window-height="1212"
     inkscape:window-x="896"
     inkscape:window-y="95"
     inkscape:window-maximized="0" />
  <metadata
     id="metadata5">
    <rdf:RDF>
      <cc:Work
         rdf:about="">
        <dc:format>image/svg+xml</dc:format>
        <dc:type
           rdf:resource="http://purl.org/dc/dcmitype/StillImage" />
        <dc:title></dc:title>
      </cc:Work>
    </rdf:RDF>
  </metadata>
  <g
     inkscape:label="Layer 1"
     inkscape:groupmode="layer"
     id="layer1"
     transform="translate(75.857701,77.719052)">
    <circle
       style="fill:#c04243;fill-rule:evenodd;stroke:#000000;stroke-width:7.865;stroke-miterlimit:4;stroke-dasharray:none;stroke-opacity:1;fill-opacity:1"
       id="path849"
       cx="93.668793"
       cy="91.807442"
       r="165.59399" />
    <g
       id="g1720"
       style="filter:url(#filter1732)">
      <g
         id="g1689"
         transform="matrix(1.125829,0.36036014,-0.36036014,1.125829,35.845657,-34.338014)">
        <path
           style="fill:#000000;stroke-width:0.264583"
           d="m -52.944549,71.954575 c -0.729803,-0.64655 -0.970705,-1.64289 -0.397229,-1.64289 0.202033,0 1.603259,1.9606 1.603259,2.24329 0,0.29956 -0.434166,0.0834 -1.20603,-0.6004 z"
           id="path1670" />
        <path
           style="fill:#000000;stroke-width:0.264583"
           d="m -49.348436,73.847425 c 0,1.822493 -2.060993,-1.32483 -1.65555,-1.73027 0.243585,-0.24359 0.480904,-0.15709 1.046994,0.3816 0.402608,0.38312 1.089202,0.9965 1.525764,1.36306 0.975176,0.81882 -0.917208,-1.78212 -0.917208,-0.0144 z"
           id="path1666" />
        <path
           style="fill:#000000;stroke-width:0.264583"
           d="m -54.240908,76.043125 c -1.139318,-1.9441 -0.83677,-2.30303 0.730893,-0.86711 1.077443,0.9869 1.311991,2.01484 0.459732,2.01484 -0.331313,0 -0.760432,-0.41366 -1.190625,-1.14773 z"
           id="path1664" />
        <path
           style="fill:#000000;stroke-width:0.264583"
           d="m -38.801309,85.879675 c -0.314303,-0.37872 -0.285703,-0.41998 0.235354,-0.33954 0.326223,0.0504 0.597346,0.20764 0.602496,0.34952 0.01616,0.44532 -0.464737,0.43959 -0.83785,-0.01 z"
           id="path1662" />
        <path
           style="fill:#000000;stroke-width:0.264583"
           d="m -50.68763,86.699975 c -0.518458,-0.83888 -0.55105,-1.053009 -0.265283,-1.74291 l 0.325792,-0.78653 1.091148,1.00256 c 0.600138,0.551414 1.381621,1.20486 1.736644,1.4521 0.355022,0.24724 0.593147,0.49834 0.529166,0.55799 -0.06398,0.0597 -0.726092,0.19052 -1.47136,0.29082 -1.343547,0.18081 -1.360041,0.17425 -1.946107,-0.77403 z"
           id="path1660" />
        <path
           style="fill:#000000;stroke-width:0.264583"
           d="m -35.882554,93.084675 c -0.366793,-0.17008 -0.953912,-0.51415 -1.304709,-0.7646 -0.622028,-0.44409 -0.625789,-0.46865 -0.151992,-0.99219 0.580925,-0.64191 1.082376,-0.68944 1.299671,-0.12318 0.0873,0.22751 0.279475,0.33902 0.427051,0.24782 0.277007,-0.1712 0.372177,0.0144 0.6444,1.25677 0.174429,0.79604 0.07807,0.8356 -0.914421,0.37538 z"
           id="path1658" />
        <path
           style="fill:#000000;stroke-width:0.264583"
           d="m -48.029178,96.502225 c -0.197319,-0.23776 -0.280279,-0.51077 -0.184357,-0.60669 0.247102,-0.2471 0.775656,0.34136 0.648701,0.72222 -0.07297,0.21893 -0.216383,0.18324 -0.464344,-0.11553 z"
           id="path1656" />
        <path
           style="fill:#000000;stroke-width:0.264583"
           d="m -45.553307,98.086005 c -0.280189,-0.20488 -0.4414,-0.44055 -0.358245,-0.5237 0.08315,-0.0832 0.380436,0.0164 0.660626,0.22132 0.28019,0.20488 0.4414,0.44054 0.358246,0.5237 -0.08316,0.0832 -0.380437,-0.0164 -0.660627,-0.22132 z"
           id="path1652" />
        <path
           style="fill:#000000;stroke-width:0.264583"
           d="m 78.725033,126.95287 c -0.262664,-0.74602 -0.306952,-1.70263 -0.168429,-3.63802 0.10337,-1.44423 0.267089,-2.62586 0.363821,-2.62586 0.09673,0 0.403129,0.42198 0.680884,0.93774 0.484539,0.89974 0.487129,1.00966 0.0639,2.71198 -0.242609,0.97583 -0.473215,2.19095 -0.512458,2.70028 l -0.07135,0.92604 z"
           id="path1648" />
        <path
           style="fill:#000000;stroke-width:0.264583"
           d="m 80.170121,140.99576 c -0.452785,-1.61828 -1.222114,-5.30968 -1.12652,-5.40527 0.119756,-0.11976 1.098937,3.43834 1.3783,5.00839 0.192196,1.08017 0.01677,1.35669 -0.25178,0.39688 z"
           id="path1646" />
        <path
           style="fill:#000000;stroke-width:0.264583"
           d="m 86.764053,155.89171 c 0.483347,0 -0.391185,-1.17348 -0.375928,-1.65365 l 0.02774,-0.87303 0.305562,0.92604 c 0.168058,0.50932 0.453232,1.18611 0.633717,1.50396 0.395563,0.69664 0.410054,0.87729 0.07036,0.87729 -0.141784,0 -1.144805,-0.78061 -0.661458,-0.78061 z"
           id="path1644" />
        <path
           style="fill:#000000;stroke-width:0.264583"
           d="m 88.2713,159.50076 c -0.944359,-2.1018 -1.040511,-2.52003 -0.470615,-2.04706 0.37854,0.31416 1.616361,3.65849 1.424946,3.8499 -0.05476,0.0548 -0.484209,-0.75651 -0.954331,-1.80284 z"
           id="path1642" />
        <path
           style="fill:#000000;stroke-width:0.264583"
           d="m 90.273849,164.28735 c -0.774208,-1.19346 -1.026382,-1.7942 -0.753152,-1.7942 0.291756,0 1.447622,2.09485 1.259612,2.28286 -0.0632,0.0632 -0.29111,-0.1567 -0.50646,-0.48866 z"
           id="path1640" />
        <path
           style="fill:#000000;stroke-width:0.264583"
           d="m 91.933149,168.07259 c -0.48281,-0.67804 -0.49446,-0.7626 -0.097,-0.70426 0.24845,0.0365 0.53648,0.38322 0.64008,0.77056 0.24058,0.89958 0.1355,0.88676 -0.54313,-0.0663 z"
           id="path1638" />
        <path
           style="fill:#000000;stroke-width:0.264583"
           d="m 93.849079,185.57805 c -3.14073,-2.2159 -7.870899,-4.79922 -8.194696,-4.47542 -0.110006,0.11 -0.05468,0.43272 0.122946,0.71714 0.233022,0.37313 0.239218,0.51713 0.02225,0.51713 -0.400767,0 -5.896261,-3.62492 -8.559636,-5.64609 -3.755123,-2.84965 -4.539369,-3.72556 -6.0163,-6.71945 -1.240575,-2.51478 -2.221447,-3.77404 -2.939703,-3.77404 -0.152898,0 -0.535048,-0.24149 -0.849228,-0.53665 -0.763696,-0.71745 -1.572488,-0.45748 -1.134502,0.36466 0.557419,1.04633 -0.5188,-0.0481 -1.768517,-1.79848 -0.628851,-0.88077 -1.508445,-1.87092 -1.954652,-2.20034 -0.446206,-0.32942 -1.242552,-1.28192 -1.769652,-2.11667 -1.119743,-1.77329 -5.856531,-6.48319 -8.20715,-8.16056 -1.034576,-0.73825 -2.102776,-1.25538 -2.91954,-1.41337 -0.708414,-0.13704 -3.224376,-1.02959 -5.591029,-1.98346 -2.36665,-0.95386 -4.504635,-1.7343 -4.751073,-1.7343 -0.755438,0 -8.831357,-2.08677 -10.657382,-2.7538 -0.945885,-0.34553 -2.403245,-0.75371 -3.238577,-0.90708 -1.712251,-0.31437 -4.13059,-1.48375 -10.805403,-5.22494 -5.6445603,-3.16374 -6.4188583,-3.54959 -7.1230443,-3.54959 -0.662935,0 -1.893975,-0.60393 -2.349249,-1.1525 -0.179678,-0.2165 -0.825852,-0.4708 -1.435938,-0.56511 -2.020261,-0.31229 -2.709744,-0.65651 -4.0324889,-2.0132 -1.84908,-1.89652 -4.141896,-3.4796 -6.885291,-4.75394 -1.299266,-0.60353 -2.643833,-1.23097 -2.9879318,-1.39431 -0.344096,-0.16334 -1.152943,-0.96817 -1.797439,-1.78851 -0.644496,-0.82034 -1.672651,-1.89222 -2.284788,-2.38196 -2.059202,-1.64746 -5.743183,-5.03104 -5.743183,-5.27487 0,-0.14159 0.281053,-0.13482 0.678682,0.0164 1.436037,0.54598 1.24038,0.12523 -1.097338,-2.35978 -2.765287,-2.93951 -10.371592,-8.89962 -12.025357,-9.42276 -1.400631,-0.44306 -2.406177,-1.45317 -1.446612,-1.45317 0.456025,0 0.506462,-0.35918 0.145218,-1.03418 -0.341711,-0.638495 -2.786795,-2.457805 -4.405788,-3.278215 -1.53491,-0.77779 -1.957139,-1.51049 -1.957139,-3.39623 v -1.33372 l -1.058333,0.1788 c -0.986836,0.166721 -1.058333,0.13652 -1.058333,-0.44704 0,-1.39314 1.679689,-2.39764 2.551477,-1.52586 0.191692,0.1917 0.526088,0.13257 1.094169,-0.19347 0.907246,-0.52068 1.407147,-0.30435 0.908426,0.39312 -1.016021,1.42094 -0.887409,2.43931 0.30697,2.43061 0.336971,-0.002 0.949338,0.44517 1.525642,1.11518 0.843996,0.98124 1.016262,1.07485 1.396819,0.75902 0.373274,-0.30979 0.518802,-0.28069 1.038701,0.20773 0.718567,0.67506 1.302974,0.72317 1.781441,0.14666 0.29478,-0.35519 0.254931,-0.59997 -0.253799,-1.55894 -0.331917,-0.62567 -1.170226,-1.77551 -1.862907,-2.55521 -0.692681,-0.7797 -1.574186,-1.91853 -1.9589,-2.53073 -0.384715,-0.61221 -0.939344,-1.24148 -1.23251,-1.39838 -0.624514,-0.33423 -0.713852,-1.0604 -0.130458,-1.0604 0.221414,0 1.485119,0.42302 2.808232,0.94004 1.323113,0.51701 2.47327,0.87242 2.555907,0.78978 0.08263,-0.0826 -0.211347,-0.53541 -0.653293,-1.00618 -0.441947,-0.47076 -0.876557,-1.06429 -0.965799,-1.31895 -0.08924,-0.25466 -0.401235,-0.46302 -0.693315,-0.46302 -0.29208,0 -0.920894,-0.43216 -1.397366,-0.96035 -1.088052,-1.20617 -4.630635,-3.58229 -5.201255,-3.48864 -0.613224,0.10063 -1.089016,-0.26596 -1.089016,-0.83909 0,-0.46297 -1.138409,-1.59108 -1.605607,-1.59108 -0.11623,0 -0.249001,0.31756 -0.295048,0.7057 -0.07821,0.65926 -0.182283,0.58261 -1.581135,-1.16449 -1.427988,-1.78349 -2.708869,-4.11028 -2.421098,-4.39805 0.249898,-0.24989 1.393434,0.43492 1.550007,0.92824 0.11643,0.36684 0.416168,0.48901 1.199719,0.48901 0.671636,0 1.546594,0.28336 2.450959,0.79375 0.773547,0.43657 1.67729,0.79375 2.008319,0.79375 0.331029,0 0.955615,0.29766 1.387969,0.66146 0.439759,0.37003 1.121381,0.66146 1.547099,0.66146 0.418551,0 1.056667,0.13472 1.418036,0.29937 0.36137,0.16465 0.859429,0.2217 1.106798,0.12677 0.41676,-0.15992 0.413517,-0.21264 -0.0442,-0.71841 -0.27168,-0.30021 -1.54551,-1.11479 -2.830732,-1.81018 -2.248359,-1.21652 -2.306109,-1.27048 -1.526425,-1.42642 0.445688,-0.0891 0.810342,-0.27404 0.810342,-0.41089 0,-0.13686 -0.762479,-0.91825 -1.694398,-1.73643 -1.611493,-1.41481 -2.538935,-2.76285 -2.538935,-3.69036 0,-0.76845 0.410435,-0.44185 1.213989,0.96603 0.67571,1.18388 0.908406,1.38906 1.575352,1.38906 0.617891,0 0.80089,-0.12958 0.869779,-0.6159 0.131904,-0.93115 -3.768416,-4.64748 -6.241396,-5.94696 -1.053603,-0.55364 -1.915641,-1.12329 -1.915641,-1.26589 0,-0.1583 0.517759,-0.19058 1.329587,-0.0829 1.05992,0.14061 1.431787,0.0839 1.833489,-0.27965 0.4746,-0.4295 0.592799,-0.43018 2.032551,-0.0116 0.840756,0.24442 2.099279,0.73355 2.796719,1.08697 0.697439,0.35343 1.268071,0.53479 1.268071,0.40303 0,-0.33047 -3.595516,-2.17067 -7.311297,-3.74194 -1.701911,-0.71968 -3.342714,-1.5364 -3.64623,-1.81493 0,0 -4.808992,-4.878573 4.587315,-0.89417 0.273954,0.11562 0.328015,0.0322 0.198258,-0.30595 -0.224917,-0.58612 -0.817993,-0.874 5.29614,2.57077 2.128748,1.19937 2.7507,1.39175 2.337398,0.72301 -0.0984,-0.15921 -1.577022,-1.40885 -3.285831,-2.77698 -3.218763,-2.57705 -4.004421,-3.31875 -3.515431,-3.31875 0.154751,0 0.356596,0.12173 0.448546,0.27051 0.27477,0.44458 3.240246,1.84616 3.906142,1.84616 0.33968,0 1.027685,0.30592 1.528899,0.67984 1.26546,0.94404 2.563822,1.4632 3.900386,1.55959 0.977306,0.0705 1.367511,0.30228 2.778126,1.65039 0.902616,0.86263 2.712683,2.16707 4.022371,2.89878 2.183029,1.21964 7.571938,3.79473 7.941238,3.79473 0.086,0 2.144401,0.78868 4.574228,1.75261 2.429828,0.96394 6.5987398,2.50899 9.2642528,3.43344 4.582395,1.58927 4.934347,1.76043 6.4612329,3.14218 1.70764,1.54533 2.679917,2.0115 1.392381,0.6676 -1.080725,-1.12803 -0.439632,-1.0285 2.669122,0.41437 1.431626,0.66446 3.617788,1.5022 4.8581413,1.86164 1.240351,0.35944 3.268822,0.9976 4.507712,1.41813 2.766804,0.93917 3.835805,1.08921 3.84162,0.5392 0.0055,-0.52361 0.725432,-0.42083 3.702572,0.52862 1.554945,0.49589 3.437085,0.85238 5.423958,1.02735 1.67349,0.14737 3.876146,0.52854 4.894792,0.84705 1.756619,0.54925 2.165749,0.57065 7.9375,0.41503 3.346979,-0.0902 7.142855,-0.28803 8.435281,-0.43952 2.948681,-0.34565 3.338677,-0.23617 3.338677,0.93728 0,1.15623 0.648925,1.51856 2.847224,1.58975 1.645695,0.0533 2.657438,0.50875 4.428818,1.99377 0.291041,0.24399 1.005416,0.5275 1.5875,0.63002 0.582083,0.10253 1.306478,0.4171 1.609767,0.69905 0.414671,0.3855 1.103678,0.55413 2.778125,0.67994 1.565992,0.11767 2.413918,0.31248 2.857685,0.65656 0.347046,0.26909 0.83439,0.48926 1.082985,0.48926 0.60434,0 4.003693,2.42499 4.5027,3.21208 0.217715,0.34341 0.396309,0.80297 0.396875,1.02125 5.29e-4,0.21828 0.750261,0.79307 1.665986,1.27731 1.342493,0.70992 1.634437,0.97659 1.507379,1.37692 -0.119285,0.37583 0.103018,0.66099 0.914731,1.17341 1.158364,0.73124 1.292455,1.14666 0.674528,2.089745 -0.345905,0.52792 -0.350099,0.76552 -0.03215,1.822 0.262733,0.87299 0.284887,1.29566 0.07872,1.50183 -0.206172,0.20617 -0.08543,0.68485 0.429022,1.70085 0.684979,1.3528 0.90211,2.817 0.552749,3.72743 -0.127728,0.33285 -0.24411,0.35811 -0.535562,0.11623 -0.614154,-0.5097 -0.67578,-0.11233 -0.242118,1.56122 0.818296,3.15792 0.618848,4.31506 -1.603234,9.30156 -0.223023,0.50047 -0.470776,1.6911 -0.550564,2.64583 -0.209732,2.50963 0.391554,12.12409 0.872061,13.94413 0.225082,0.85255 0.513186,2.17417 0.640234,2.93694 0.136676,0.82058 0.566989,1.8752 1.053872,2.58286 0.515401,0.74911 0.967158,1.88799 1.209006,3.0479 0.648893,3.11211 2.786311,8.70801 4.545378,11.90009 0.823965,1.49521 0.969729,2.03459 1.116221,4.13043 0.155176,2.22011 0.257532,2.56051 1.295051,4.30691 0.619606,1.04296 1.730976,2.69483 2.469702,3.67083 1.41285,1.86663 2.6631,4.50403 3.29075,6.94183 0.66795,2.5943 2.29183,7.49866 3.04431,9.19428 0.66738,1.50382 0.69038,1.65364 0.25391,1.65364 -0.26398,0 -1.78781,-0.92273 -3.38629,-2.05052 z"
           id="path1636"
           sodipodi:nodetypes="cssssssssssssssssssssssssssscsssssscssssscssssssssssssssssssssssssssssssscssssssssccssssccsssssssccsssssssssscssscsssssssssssssssssssssssssssssssssscc" />
      </g>
      <g
         id="g1696"
         transform="matrix(1.1318858,-0.34085928,0.34085928,1.1318858,-64.331131,33.703542)">
        <path
           style="fill:#000000;stroke-width:0.264583"
           d="m 220.30618,54.234099 c 0.39248,-0.39247 0.77399,-0.65318 0.8478,-0.57935 0.24236,0.24235 -0.6672,1.29292 -1.11937,1.29292 -0.34581,0 -0.28673,-0.15528 0.27157,-0.71357 z"
           id="path1672" />
        <path
           style="fill:#000000;stroke-width:0.264583"
           d="m 237.70454,69.896629 c -0.18116,-0.21828 -0.49339,-0.39688 -0.69384,-0.39688 -0.20047,0 -0.36449,-0.10541 -0.36449,-0.23424 0,-0.28958 3.4531,-3.54461 3.60217,-3.39554 0.0592,0.0592 -0.0722,0.61745 -0.29205,1.24053 -0.21984,0.62307 -0.3997,1.4088 -0.3997,1.74606 0,0.33725 -0.26461,0.79853 -0.58804,1.02507 -0.72813,0.51 -0.85201,0.51147 -1.26405,0.015 z"
           id="path1668" />
        <path
           style="fill:#000000;stroke-width:0.264583"
           d="m 227.36092,96.786749 c 0.48864,-0.68622 1.64267,-1.62242 1.99994,-1.62242 0.46812,0 -0.003,0.87423 -0.84471,1.56824 -1.28487,1.05909 -1.89101,1.08752 -1.15523,0.0542 z"
           id="path1654" />
        <path
           style="fill:#000000;stroke-width:0.264583"
           d="m 222.35871,104.75539 c 0,-0.2208 1.60488,-1.65001 3.04271,-2.70966 l 0.52917,-0.38998 -0.52917,0.62021 c -0.79423,0.93087 -3.04271,2.76311 -3.04271,2.47943 z"
           id="path1650" />
        <path
           style="fill:#000000;stroke-width:0.264583"
           d="m 104.50838,192.06798 c 0.0978,-0.5457 0.35498,-1.4089 0.57154,-1.91822 0.21654,-0.50933 0.84029,-2.23573 1.38611,-3.83646 0.54581,-1.60073 1.67435,-4.3987 2.50785,-6.21771 0.83351,-1.81901 1.78523,-4.02167 2.11495,-4.89479 1.02396,-2.7116 3.01523,-9.43098 3.97643,-13.41815 0.50525,-2.09585 1.11427,-4.33947 1.35338,-4.98583 0.27421,-0.74123 0.51256,-2.59187 0.64546,-5.01165 0.15817,-2.87965 0.38122,-4.41484 0.89434,-6.15556 0.37598,-1.27551 0.6836,-2.53906 0.6836,-2.80789 0,-0.26883 0.35719,-0.93825 0.79375,-1.48759 0.8638,-1.08694 0.95927,-1.8811 0.50894,-4.23334 -0.1393,-0.7276 -0.28821,-2.51354 -0.33091,-3.96875 -0.0427,-1.4552 -0.22203,-2.911 -0.39849,-3.2351 -0.2584,-0.47457 -0.24276,-0.77617 0.0803,-1.54946 0.22066,-0.52811 0.31269,-1.09637 0.20451,-1.26281 -0.10817,-0.16645 -0.26201,-1.67184 -0.34185,-3.34533 -0.11193,-2.34577 -0.25776,-3.2132 -0.63669,-3.78702 -0.33988,-0.5147 -0.47683,-1.15883 -0.44395,-2.08805 0.0399,-1.12811 -0.0122,-1.29416 -0.32476,-1.03475 -0.30506,0.25318 -0.4047,0.13644 -0.55151,-0.64611 -0.0986,-0.52531 -0.10783,-1.27994 -0.0206,-1.67696 0.15782,-0.71859 -0.42495,-2.28646 -0.73474,-1.97668 -0.26572,0.26572 -0.40924,-0.91846 -0.57146,-4.71499 -0.0892,-2.08865 -0.31752,-4.08282 -0.53935,-4.71155 l -0.38461,-1.09012 0.91966,-0.91966 c 1.08058,-1.08058 1.20664,-2.183241 0.3905,-3.415571 -0.94249,-1.42313 -0.72046,-2.69574 0.88296,-5.06083 1.91972,-2.83162 4.01487,-4.286 7.97994,-5.53938 1.80168,-0.56951 3.06521,-1.12303 3.31556,-1.45245 0.35076,-0.46154 0.87803,-0.56519 3.96875,-0.78015 3.73047,-0.25946 5.80731,-0.7247 11.36946,-2.54691 l 3.04271,-0.99682 5.95312,-0.0233 5.95313,-0.0233 4.36562,-1.09586 c 2.4011,-0.60273 6.92547,-1.80679 10.05417,-2.6757 3.1287,-0.86891 7.23635,-1.95294 9.12812,-2.40896 5.12215,-1.23471 8.83472,-2.79316 11.16816,-4.68811 0.61269,-0.49756 1.56251,-1.09206 2.1107,-1.32111 0.54819,-0.22905 1.50543,-0.76645 2.12717,-1.19422 1.25061,-0.86045 1.30852,-0.7945 0.73356,0.83516 -0.76523,2.1689 -0.39902,2.68869 0.94639,1.34327 0.61438,-0.61439 0.77422,-1.00878 0.77745,-1.91823 0.005,-1.50346 0.16986,-1.70478 1.58345,-1.93746 1.35078,-0.22234 2.52349,-0.75558 2.75423,-1.25233 0.12414,-0.26733 0.18783,-0.26847 0.31052,-0.006 0.43738,0.93723 2.36789,-0.22236 3.82246,-2.29602 0.58994,-0.84101 1.33548,-1.64818 1.65677,-1.79371 0.32128,-0.14554 1.17946,-0.52985 1.90706,-0.85404 0.7276,-0.3242 2.10555,-1.11553 3.0621,-1.75851 0.95658,-0.64299 1.82595,-1.16907 1.93196,-1.16907 0.10605,0 -0.498,0.57696 -1.34231,1.28214 -3.49009,2.91501 -3.87543,3.48036 -2.37225,3.48036 0.61357,0 1.26222,-0.29575 2.12796,-0.97025 1.09787,-0.85534 1.22587,-1.05905 1.08069,-1.72001 -0.1991,-0.90646 0.54632,-1.37536 1.06302,-0.66871 0.28078,0.38398 0.37883,0.34524 0.89572,-0.35389 0.71911,-0.97264 1.17795,-1.04105 0.82915,-0.1236 -0.19944,0.52461 -0.1688,0.66146 0.14814,0.66146 0.31314,0 0.34036,0.11079 0.12576,0.51177 -0.68096,1.27236 -0.13727,1.02205 1.44253,-0.66414 1.75128,-1.86921 1.81113,-1.96858 1.74199,-2.89164 -0.0217,-0.29176 0.13978,-0.76801 0.35918,-1.05833 0.39377,-0.52109 0.39901,-0.52023 0.40732,0.0674 0.0103,0.72347 0.45231,0.75074 1.32308,0.0816 0.65257,-0.50145 0.65394,-0.50116 1.40761,0.28747 0.60626,0.6344 0.8287,0.72776 1.13273,0.47543 0.20807,-0.17269 0.37833,-0.70155 0.37833,-1.17523 0,-0.91321 0.60806,-1.70512 0.92078,-1.19916 0.0957,0.15496 0.28495,0.21325 0.42042,0.12952 0.45328,-0.28014 0.2527,0.71439 -0.30089,1.49181 -0.43455,0.61026 -0.4663,0.76845 -0.15433,0.76845 0.21606,0 0.43754,-0.1341 0.49218,-0.29799 0.0546,-0.1639 0.8682,-0.57492 1.80798,-0.91338 l 1.70865,-0.61538 -1.5875,1.45871 c -1.78612,1.64122 -1.74606,1.66372 0.66217,0.37207 1.02743,-0.55105 2.46425,-1.67945 3.57116,-2.80461 1.01865,-1.03544 2.26881,-2.08622 2.77813,-2.33508 0.50932,-0.24885 1.58088,-1.15212 2.38125,-2.00726 4.56488,-4.021076 3.30729,0.19179 3.30729,0.19179 -1.09141,1.11286 -1.98437,2.22457 -1.98437,2.47048 0,0.24591 -0.19011,0.60489 -0.42249,0.79774 -0.35624,0.29565 -0.46199,0.27999 -0.67461,-0.0999 -0.51303,-0.91673 -1.06828,-0.33471 -1.39197,1.45902 l -0.17748,0.9835 1.50373,-0.791 c 0.82703,-0.43505 1.56842,-0.72631 1.64751,-0.64723 0.29101,0.29102 -2.24891,2.58178 -3.65977,3.30074 -0.96862,0.4936 -1.75255,1.15553 -2.34416,1.97933 -0.53988,0.75179 -1.34488,1.45927 -2.05044,1.80205 -0.63886,0.31039 -1.16157,0.64256 -1.16157,0.73816 0,0.30336 -1.86619,2.63115 -2.1094,2.63115 -0.12819,0 -0.28289,-0.20835 -0.34379,-0.46302 -0.0987,-0.41273 -0.13116,-0.40554 -0.29851,0.0661 -0.6277,1.76912 -0.93673,2.05123 -2.65282,2.42161 -0.90712,0.1958 -1.1312,0.40348 -1.76715,1.63785 -0.40055,0.77749 -0.94509,1.66022 -1.21007,1.96162 -0.91366,1.0392 2.19435,-0.85103 3.82368,-2.32549 1.26934,-1.14868 4.87029,-3.29871 5.52482,-3.29871 0.10244,0 -0.59918,0.77391 -1.55911,1.71979 -0.95994,0.94589 -1.90511,1.71979 -2.10037,1.71979 -0.54515,0 -1.14329,1.07791 -0.73737,1.3288 0.39108,0.24169 0.10499,0.78787 -0.41267,0.78787 -0.51496,0 -1.11345,1.12605 -0.67601,1.27187 0.17579,0.0586 0.43463,0.40904 0.5752,0.77877 l 0.25559,0.67222 0.63378,-0.5954 c 0.34857,-0.32747 0.76719,-0.51294 0.93028,-0.41215 0.16989,0.10499 0.75279,-0.33513 1.36498,-1.03061 1.06588,-1.2109 1.67233,-1.56896 1.38378,-0.81699 -0.0838,0.21828 -0.0462,0.39687 0.0835,0.39687 0.30041,0 2.67195,-2.4689 3.62164,-3.77031 0.79002,-1.08263 1.12385,-1.18972 1.90331,-0.61058 0.48723,0.36202 0.39253,0.49442 -1.84481,2.57969 -1.29712,1.20894 -2.7854,2.4553 -3.30729,2.76968 -0.52189,0.31439 -1.21891,0.93749 -1.5489,1.3847 -0.33001,0.44719 -0.97888,1.00901 -1.44192,1.24846 l -0.84194,0.43538 0.62712,0.5078 c 0.34491,0.27929 0.65963,0.81283 0.69937,1.18565 0.0397,0.37282 0.13433,0.73991 0.21019,0.81577 0.35478,0.35476 -0.44609,1.12668 -1.16888,1.12668 -0.59748,0 -0.87331,0.185 -1.19057,0.79851 -0.3796,0.73405 -0.37685,0.81234 0.0341,0.97003 0.64559,0.24774 2.207,-0.67696 5.48736,-3.24971 2.90147,-2.27557 3.93845,-2.73833 2.26811,-1.01218 -0.67159,0.69405 -0.7702,0.89348 -0.37878,0.76612 0.30356,-0.0988 0.032,0.27106 -0.63709,0.8675 -0.66952,0.59686 -1.0878,1.16658 -0.9821,1.33762 0.10829,0.1752 -0.28324,0.63186 -0.95041,1.1085 -0.62402,0.4458 -1.73294,1.37257 -2.46431,2.05948 -0.73133,0.68691 -2.09904,1.84424 -3.03932,2.57184 -0.94025,0.7276 -2.42546,2.03728 -3.30046,2.91041 -1.43317,1.4301 -1.53149,1.59593 -0.99166,1.67256 0.32959,0.0468 0.53091,0.19561 0.44741,0.33073 -0.53036,0.85814 1.86224,-0.69318 3.03437,-1.96743 0.76248,-0.8289 1.1793,-0.90299 0.94607,-0.16815 -0.29797,0.93887 0.32825,0.56629 1.70106,-1.01205 0.73726,-0.84767 2.02536,-2.03813 2.86242,-2.64547 0.83707,-0.60734 1.76007,-1.46662 2.05111,-1.9095 0.29104,-0.4429 1.18401,-1.30221 1.98437,-1.90959 0.80037,-0.60738 1.99099,-1.58114 2.64584,-2.1639 0.84539,-0.75234 0.99591,-0.83167 0.51916,-0.27359 -2.11521,2.47595 -5.00486,5.34938 -5.80922,5.77661 -0.51022,0.27099 -1.47719,0.90833 -2.14886,1.4163 -1.18468,0.89598 -1.21727,0.95841 -1.08993,2.08807 0.11666,1.03502 0.0243,1.30158 -0.82933,2.39743 -0.52832,0.67812 -0.96057,1.34042 -0.96057,1.47177 0,0.58788 -2.62972,3.22364 -3.82302,3.83179 -1.2223,0.62295 -1.27617,0.69171 -0.80931,1.03308 0.64394,0.47087 0.93948,0.46064 1.68016,-0.0581 1.31783,-0.92306 0.75033,-0.0568 -1.40113,2.13872 -1.2437,1.26916 -2.26129,2.4664 -2.26129,2.66052 0,0.19412 -0.79317,1.04525 -1.76257,1.891391 -3.93777,3.43702 -6.23113,5.93608 -5.82245,6.34475 0.0719,0.0719 0.46852,-0.0732 0.88133,-0.32249 0.45257,-0.27331 0.24704,0.007 -0.51761,0.70646 -3.20304,2.92909 -4.15578,3.87732 -4.15578,4.13605 0,0.15329 0.89821,-0.31945 1.99599,-1.05055 1.09781,-0.7311 2.05504,-1.27023 2.1272,-1.19807 0.0722,0.0722 -0.40466,0.70659 -1.05961,1.40985 -0.65492,0.70325 -1.15091,1.31851 -1.1022,1.36723 0.0487,0.0487 0.5501,-0.17978 1.11414,-0.5078 0.88532,-0.51484 0.97125,-0.52842 0.62865,-0.0992 -0.21829,0.27343 -0.99219,0.89604 -1.7198,1.38359 -2.31597,1.55186 -3.36137,2.43483 -4.1461,3.50188 -0.88114,1.19817 -4.1453,3.37496 -7.03678,4.69265 -1.85539,0.84552 -1.96365,0.86648 -1.55921,0.30179 1.39986,-1.95461 0.93004,-2.09195 -1.13282,-0.33114 -2.08597,1.78056 -3.39132,2.61009 -5.30738,3.37272 -3.23012,1.28567 -6.76917,3.07957 -7.39984,3.7509 -0.59551,0.63388 -1.81332,0.97161 -1.4637,0.40591 0.3409,-0.55159 -0.4952,-0.23307 -1.34362,0.51185 -1.38786,1.21856 -2.93988,2.03276 -6.61935,3.47254 -1.87776,0.73477 -3.85512,1.62522 -4.39413,1.97877 -0.53901,0.35355 -1.78916,0.87764 -2.77812,1.16465 -0.98896,0.28701 -2.98874,0.93504 -4.44395,1.44006 -2.91602,1.012 -7.54748,1.78676 -10.78736,1.80453 -2.4999,0.0137 -3.29158,0.47669 -3.41843,1.99913 -0.0793,0.95173 -0.11965,0.98682 -1.37469,1.19585 -1.28253,0.21361 -3.0046,1.20035 -3.97354,2.27682 -0.31762,0.35286 -0.82336,0.55996 -1.36743,0.55996 -1.35126,0 -1.58034,0.18398 -2.51021,2.01597 -0.85738,1.68919 -1.60088,2.4803 -3.40702,3.6252 -0.61134,0.38753 -0.98678,0.88014 -1.14519,1.50258 -0.12962,0.50933 -0.34542,1.03916 -0.47955,1.1774 -0.13413,0.13825 -0.24387,0.63217 -0.24387,1.09761 0,0.46544 -0.35719,1.52528 -0.79375,2.3552 -0.88488,1.68219 -0.9849,2.24896 -0.39687,2.24896 0.53503,0 0.50003,0.3538 -0.0876,0.88561 -0.5375,0.48643 -0.88529,0.33814 -0.6493,-0.27685 0.10876,-0.28342 0.008,-0.37033 -0.34896,-0.30216 -0.30487,0.0581 -0.53068,0.35407 -0.57569,0.75444 -0.16501,1.46745 -0.39348,1.94812 -1.48729,3.12901 -0.68539,0.73994 -1.3768,1.86943 -1.72711,2.82141 -0.48124,1.30774 -0.99433,1.99236 -2.9116,3.8849 -1.28008,1.26357 -2.87928,3.03154 -3.55378,3.92882 -0.78609,1.04573 -1.22726,1.45578 -1.22887,1.14218 -10e-4,-0.28219 -0.44933,0.21507 -1.05834,1.17505 -0.5807,0.91535 -1.05582,1.72321 -1.05582,1.79525 0,0.072 0.25159,-0.004 0.55908,-0.16825 l 0.55909,-0.29921 -0.49294,0.83734 c -0.27111,0.46054 -0.86757,1.06934 -1.32546,1.3529 -0.45788,0.28355 -1.01092,0.78782 -1.22896,1.1206 -0.61812,0.94335 -3.12371,3.61893 -3.38902,3.61893 -0.13092,0 -0.23804,-0.47625 -0.23804,-1.05833 0,-0.58209 -0.0675,-1.05834 -0.14994,-1.05834 -0.0825,0 -0.57523,0.32438 -1.09501,0.72084 l -0.94506,0.72083 0.17593,-0.65469 c 0.0968,-0.36008 -0.238,0.13397 -0.74391,1.09789 -0.50591,0.96392 -1.09633,1.82031 -1.31206,1.90309 -0.21573,0.0828 -0.81288,0.8081 -1.32701,1.61181 -0.51684,0.80795 -1.41662,1.76547 -2.01247,2.14162 -0.59273,0.37417 -1.18478,0.96199 -1.31567,1.30626 -0.28474,0.74892 -0.85855,1.16254 -1.00467,0.7242 -0.14161,-0.42483 -0.58888,-0.39496 -0.58888,0.0393 0,0.36238 -1.07581,1.50133 -1.4181,1.50133 -0.10636,0 -0.11336,-0.44648 -0.0156,-0.99219 z"
           id="path847"
           sodipodi:nodetypes="csssssssssssssssssssccscscssssssscccsssssssscsscssssssssssssssscscsssscssssscssssccsssscsssssssssssssssssssscssssssssssscsssssssssssssssssssssssscssscssscssssscsssssssssssssssssssssssssssssssssscssssscssccsssssssccsssssssscc" />
      </g>
    </g>
  </g>
</svg>
