<svg xmlns="http://www.w3.org/2000/svg" viewBox="0 0 211.822 211.822"><defs><filter style="color-interpolation-filters:sRGB" id="a"><feFlood flood-opacity=".804" flood-color="#2A1D04" result="flood"/><feComposite in="flood" in2="SourceGraphic" operator="in" result="composite1"/><feGaussianBlur in="composite1" stdDeviation="2" result="blur"/><feOffset dy="2.3" result="offset"/><feComposite in="SourceGraphic" in2="offset" result="composite2"/></filter></defs><g transform="translate(1.706 -8.879)"><circle style="fill:#ff8182;fill-opacity:1;fill-rule:evenodd;stroke:#2b1f07;stroke-width:3.565;stroke-miterlimit:4;stroke-dasharray:none;stroke-opacity:1" cx="104.206" cy="114.79" r="104.129"/><path style="fill:#000;stroke-width:.216834;filter:url(#a)" d="M135.919 206.125c-.06-.257-2.01-10.068-4.336-21.801l-4.228-21.333 5.03-5.23a993.185 993.185 0 0 0 5.637-5.887c.525-.572 1.038-2.255 3.866-12.685a3049.64 3049.64 0 0 1 3.386-12.433c.117-.38-9.745 4.497-24.32 12.027l-4.125 2.13-14.09-6.49-14.089-6.492-7.1-.005-7.102-.005v-3.036h23.418v-15.828H59.703v26.436l10.3 13.452c5.664 7.399 10.3 13.592 10.3 13.763 0 .172-1.224 6.1-2.72 13.174-1.495 7.074-3.552 16.813-4.57 21.643-1.02 4.83-1.884 8.812-1.922 8.85-.14.14-5.085-1.99-7.942-3.42-4.623-2.317-10.02-5.876-12.702-8.378l-.907-.846 3.787-10.723 3.787-10.722-1.6-1.637c-9.525-9.746-15.935-22.96-17.886-36.87l-.38-2.708-15.553-4.862c-8.553-2.675-15.507-4.908-15.451-4.964.055-.055 7.198-2.072 15.871-4.48 9.815-2.727 15.828-4.497 15.923-4.69.084-.169.481-1.693.882-3.386l.73-3.078-13.925-11.657c-7.659-6.412-13.893-11.689-13.855-11.728.04-.038 8.198 1.158 18.132 2.658 9.934 1.5 18.12 2.645 18.19 2.544l.869-1.257c.407-.59 1.2-1.66 1.762-2.375l1.02-1.301-9.817-17.347c-5.4-9.54-9.788-17.378-9.752-17.416.036-.038 7.786 4.479 17.223 10.037 9.437 5.558 17.381 10.207 17.654 10.331.42.191.73.083 2-.7.826-.51 1.525-.938 1.554-.954.028-.015-1.156-9.583-2.631-21.262-1.476-11.679-2.657-21.263-2.626-21.298.04-.045 23.885 32.595 25.48 34.876.152.22 3.094-.294 3.177-.555.038-.118 2.125-9.97 4.637-21.892 2.513-11.922 4.59-21.699 4.617-21.725.026-.027 2.24 9.718 4.92 21.655 2.68 11.938 4.971 21.827 5.09 21.978.12.15.808.338 1.53.417l1.311.144 12.89-17.543c7.09-9.649 12.92-17.475 12.954-17.392.058.138-5.488 41.02-5.683 41.894-.062.278.396.667 1.747 1.483 1.007.608 1.96 1.057 2.115.997.291-.111 33.637-19.669 34.6-20.293.294-.19.478-.248.41-.129-1.998 3.472-19.277 34.143-19.365 34.373-.077.204.464 1.117 1.416 2.386.848 1.13 1.613 2.182 1.7 2.337.125.225 3.788-.231 17.897-2.23 9.757-1.382 17.772-2.481 17.81-2.442.04.039-5.363 4.653-12.004 10.253-6.642 5.6-12.72 10.734-13.506 11.407l-1.43 1.225.906 3.654.905 3.654 15.65 4.538c8.607 2.496 15.574 4.607 15.482 4.69-.092.084-6.968 2.18-15.28 4.66l-15.113 4.506-.142 1.211c-1.714 14.617-7.829 27.65-18.165 38.711l-2.24 2.398 4.2 10.3 4.202 10.3-.524.433c-6.736 5.575-12.585 9.001-20.476 11.995l-1.14.432zm-27.211-104.977V79.144l-8.584-.06c-4.72-.032-8.623-.018-8.673.032-.05.05-.09 6.27-.09 13.823v13.733h9.757v16.48h7.59zm19.515 3.247V85.64H111.96V123.152h16.262zm17.347 2.277v-16.48h-14.528v32.96h14.528zm-57.245-.27V85.638h-17.78v21.038l8.89-.057c4.89-.03 8.89-.13 8.89-.219z"/></g></svg>