<?xml version="1.0" encoding="UTF-8" standalone="no"?>
<svg
   xmlns:dc="http://purl.org/dc/elements/1.1/"
   xmlns:cc="http://creativecommons.org/ns#"
   xmlns:rdf="http://www.w3.org/1999/02/22-rdf-syntax-ns#"
   xmlns:svg="http://www.w3.org/2000/svg"
   xmlns="http://www.w3.org/2000/svg"
   xmlns:sodipodi="http://sodipodi.sourceforge.net/DTD/sodipodi-0.dtd"
   xmlns:inkscape="http://www.inkscape.org/namespaces/inkscape"
   width="100%"
   height="100%"
   viewBox="0 0 220.09296 204.99673"
   version="1.1"
   id="svg8"
   inkscape:version="1.0.1 (0767f8302a, 2020-10-17)"
   sodipodi:docname="House of Rakdos.svg">
  <defs
     id="defs2">
    <filter
       style="color-interpolation-filters:sRGB"
       inkscape:label="Drop Shadow"
       id="filter861">
      <feFlood
         flood-opacity="0.803922"
         flood-color="rgb(42,29,4)"
         result="flood"
         id="feFlood851" />
      <feComposite
         in="flood"
         in2="SourceGraphic"
         operator="in"
         result="composite1"
         id="feComposite853" />
      <feGaussianBlur
         in="composite1"
         stdDeviation="2"
         result="blur"
         id="feGaussianBlur855" />
      <feOffset
         dx="0"
         dy="2.3"
         result="offset"
         id="feOffset857" />
      <feComposite
         in="SourceGraphic"
         in2="offset"
         operator="over"
         result="composite2"
         id="feComposite859" />
    </filter>
  </defs>
  <sodipodi:namedview
     id="base"
     pagecolor="#ffffff"
     bordercolor="#666666"
     borderopacity="1.0"
     inkscape:pageopacity="0.0"
     inkscape:pageshadow="2"
     inkscape:zoom="2.8"
     inkscape:cx="104.70798"
     inkscape:cy="99.523562"
     inkscape:document-units="mm"
     inkscape:current-layer="layer1"
     inkscape:document-rotation="0"
     showgrid="false"
     fit-margin-top="0"
     fit-margin-left="0"
     fit-margin-right="0"
     fit-margin-bottom="0"
     inkscape:window-width="1647"
     inkscape:window-height="1212"
     inkscape:window-x="896"
     inkscape:window-y="95"
     inkscape:window-maximized="0" />
  <metadata
     id="metadata5">
    <rdf:RDF>
      <cc:Work
         rdf:about="">
        <dc:format>image/svg+xml</dc:format>
        <dc:type
           rdf:resource="http://purl.org/dc/dcmitype/StillImage" />
        <dc:title></dc:title>
      </cc:Work>
    </rdf:RDF>
  </metadata>
  <g
     inkscape:label="Layer 1"
     inkscape:groupmode="layer"
     id="layer1"
     transform="translate(0.60075571,-60.920822)">
    <circle
       style="fill:#800f13;fill-opacity:1;fill-rule:evenodd;stroke:#030d04;stroke-width:7.265;stroke-miterlimit:4;stroke-dasharray:none;stroke-opacity:1"
       id="path849"
       cx="109.42733"
       cy="163.41919"
       r="98.865868" />
    <path
       style="fill:#000000;stroke-width:0.0422995;filter:url(#filter861)"
       d="m 85.334998,213.57343 c -4.29592,-0.17385 -8.82897,-1.47426 -12.70633,-3.64501 -1.22453,-0.68557 -2.37623,-1.49886 -3.1137,-2.19889 l -0.423,-0.40145 -0.50759,0.14253 c -4.94909,1.39004 -10.409,1.77794 -13.4724,0.95703 -0.46632,-0.12496 -0.92405,-0.28411 -1.15874,-0.40296 l -0.16469,-0.0833 0.52727,-0.22305 c 4.62206,-1.95514 9.05014,-5.97509 12.83855,-11.65522 2.20675,-3.30864 4.37299,-7.53562 5.25681,-10.25762 0.44999,-1.38584 0.15852,-2.32685 -0.88201,-2.84769 -0.49817,-0.24932 -0.87509,-0.32502 -1.61235,-0.32376 -0.84172,0 -1.54641,0.15855 -2.21444,0.49372 -0.13612,0.0683 -0.25339,0.11812 -0.2606,0.1108 -0.007,-0.007 -0.0915,-0.33697 -0.18736,-0.73248 -1.04516,-4.31265 -2.42393,-7.45014 -4.32185,-9.83464 -0.42695,-0.53637 -1.3214,-1.44103 -1.81406,-1.83468 -1.1161,-0.89182 -2.41661,-1.54121 -3.72576,-1.86036 -0.88802,-0.21651 -1.31739,-0.25868 -2.61917,-0.25736 -4.08973,0.006 -7.23945,0.78563 -10.215344,2.53477 -0.34897,0.20517 -1.100847,0.67747 -1.670833,1.04971 -1.493933,0.97562 -2.067615,1.33491 -2.664872,1.66899 -1.556401,0.87064 -3.077738,1.36598 -4.927894,1.60456 -0.48288,0.0622 -0.881102,0.0757 -2.157277,0.0731 -1.617789,-0.006 -2.483971,-0.0546 -3.916114,-0.23012 -4.145986,-0.50902 -7.803483,-1.81213 -10.646851,-3.79331 -0.273766,-0.19077 -0.573423,-0.41363 -0.66591,-0.49528 l -0.168159,-0.14842 h 0.537891 c 0.806834,0 1.945313,-0.0798 2.846067,-0.19292 4.353583,-0.54664 7.464112,-2.13464 10.147989,-5.18089 1.134711,-1.28793 1.984096,-2.4794 3.980467,-5.58354 1.748118,-2.71816 2.729878,-4.14875 3.759156,-5.47778 3.237558,-4.18042 7.058344,-7.34719 11.891274,-9.85581 0.3955,-0.20535 0.72344,-0.37614 0.72875,-0.37962 0.005,-0.006 -0.0575,-0.17643 -0.13962,-0.38442 -0.37842,-0.95834 -0.77987,-2.59386 -1.0532,-4.29074 -0.77493,-4.81087 -0.86666,-12.1652 -0.2076,-16.64492 0.0582,-0.39546 0.1219,-0.79157 0.14158,-0.88024 0.0331,-0.1492 0.0277,-0.16425 -0.0737,-0.20277 -0.15028,-0.057 -0.46956,0.0162 -0.77254,0.17787 -0.72151,0.38454 -1.7329,1.43407 -2.55715,2.6535 l -0.29542,0.43709 -0.16973,-0.018 c -0.55906,-0.0594 -1.420601,0.2333 -2.242408,0.76212 -0.959672,0.61754 -1.955655,1.71302 -2.538551,2.79219 -0.09019,0.16701 -0.170997,0.29659 -0.179575,0.28801 -0.02118,-0.021 0.21942,-1.33539 0.373967,-2.04243 1.103397,-5.04831 2.948711,-8.98523 5.798917,-12.3718 0.55283,-0.65684 2.01808,-2.13614 2.65752,-2.68295 2.12414,-1.81645 3.85849,-2.95501 7.95232,-5.22036 2.20831,-1.222 3.01239,-1.69329 3.93386,-2.30579 1.61052,-1.07041 2.6315,-2.02773 3.36407,-3.15423 0.26948,-0.41441 0.61878,-1.15488 0.761,-1.613199 0.0632,-0.203549 0.12002,-0.370139 0.12633,-0.370139 0.031,0 -0.0973,2.062288 -0.17231,2.770648 -0.26457,2.49782 -0.75568,4.51379 -1.5668,6.43145 -0.15701,0.37116 -0.53266,1.16027 -0.8348,1.75351 -0.93478,1.83553 -1.19453,2.37208 -1.39927,2.89064 -0.78865,1.99743 -0.99712,4.16962 -0.65628,6.83823 0.43475,3.40385 1.95459,7.20514 4.28642,10.72069 1.9671,2.96575 4.60677,5.7535 6.89917,7.28619 0.20939,0.14002 0.41877,0.27332 0.4653,0.29629 0.059,0.0294 0.31459,0.0126 0.84599,-0.0552 0.41876,-0.0534 1.62739,-0.19479 2.68584,-0.31405 1.05844,-0.1192 1.93066,-0.22298 1.93825,-0.2306 0.008,-0.008 -0.0432,-0.20121 -0.11287,-0.43019 -0.86729,-2.8508 -2.26699,-8.96538 -2.91306,-12.72563 -0.14653,-0.85282 -0.15976,-0.99596 -0.1583,-1.71314 0.005,-2.50274 0.95398,-4.77692 2.93275,-7.02865 1.24468,-1.41637 2.3538,-2.35498 6.05422,-5.12347 3.3383,-2.49752 4.13829,-3.15202 5.43841,-4.44925 1.41599,-1.41283 2.28227,-2.57376 3.01522,-4.04089 0.45237,-0.90555 0.73788,-1.70534 0.955,-2.675378 0.2168,-0.968666 0.25477,-1.359566 0.25571,-2.633096 6e-4,-1.05799 -0.01,-1.24306 -0.0978,-1.73432 -0.33612,-1.87224 -0.94965,-3.49636 -2.26905,-6.00653 -0.74985,-1.42657 -1.17133,-2.2698 -1.14684,-2.29427 0.0447,-0.0444 1.63088,0.90495 2.69,1.61044 4.22711,2.8157 7.594832,6.04972 9.587972,9.20719 0.9936,1.574086 1.69769,3.260534 1.99559,4.779844 0.17529,0.89398 0.19523,1.11186 0.1936,2.11502 -10e-4,0.83219 -0.0166,1.07683 -0.0937,1.50258 -0.28513,1.57445 -0.84043,2.88116 -1.93202,4.54625 -0.72909,1.11216 -1.44291,2.02467 -3.578319,4.57438 -1.438083,1.7171 -2.201893,2.70568 -2.941143,3.8068 -1.76383,2.62716 -2.71141,5.07393 -2.9956,7.73492 -0.0963,0.90159 -0.12119,1.7066 -0.0687,2.22072 0.13302,1.30281 0.62,2.74456 1.56554,4.63491 0.32684,0.65348 1.22849,2.32685 1.29431,2.40214 0.007,0.008 0.3618,-0.006 0.78767,-0.0318 2.342333,-0.14266 5.279422,-0.24782 7.966672,-0.28519 l 2.0741,-0.0288 0.15991,0.14044 c 0.59101,0.51892 0.86951,2.29619 0.9412,6.00647 0.0604,3.1249 -0.12736,7.57168 -0.65985,15.6297 -0.34753,5.25912 -0.34785,5.26907 -0.2369,7.3601 0.13007,2.45138 0.4627,10.43993 0.65783,15.79887 0.0462,1.26796 0.10802,2.91445 0.13745,3.65893 0.071,1.79683 0.0711,5.80485 0,6.64105 -0.16547,1.94837 -0.40966,3.16341 -0.9011,4.48374 -0.33933,0.91167 -1.15679,2.4557 -1.9519,3.68676 l -0.19557,0.30284 -0.32258,0.03 c -0.33404,0.0312 -0.78135,0 -1.13452,-0.0721 -0.18419,-0.039 -0.19797,-0.0498 -0.14345,-0.11314 0.0332,-0.0384 0.13792,-0.20319 0.23278,-0.366 0.75233,-1.29165 0.74218,-2.70808 -0.0245,-3.40871 -0.25822,-0.236 -0.5827,-0.35802 -0.8291,-0.31177 -0.13632,0.0258 -0.14462,0.0354 -0.10802,0.13198 0.0741,0.19485 0.0441,0.66589 -0.0672,1.05637 -0.13649,0.47866 -0.60449,1.43161 -0.98466,2.00499 -0.28349,0.4275 -0.86084,1.09819 -0.94539,1.09819 -0.0758,0 -0.20604,-0.37368 -0.56326,-1.6153 -0.605789,-2.10572 -0.990729,-3.15831 -1.590328,-4.34894 -0.181614,-0.3606 -0.437584,-0.82697 -0.568824,-1.03633 -0.86936,-1.38698 -1.95887,-2.42979 -3.17182,-3.036 -0.27901,-0.13941 -1.10648,-0.42071 -1.18752,-0.40367 -0.0368,0.008 -0.21236,0.34422 -0.41528,0.79595 -0.34606,0.77034 -0.99226,2.07657 -1.25857,2.54401 l -0.136,0.2387 0.17303,0.43811 c 0.40421,1.02338 0.55399,1.68351 0.58889,2.59536 0.0472,1.23173 -0.21113,2.34521 -0.85354,3.68005 -0.26634,0.55341 -0.78848,1.42885 -0.82588,1.38476 -0.0145,-0.0174 -0.0794,-0.19299 -0.14405,-0.39072 -0.42381,-1.29549 -1.04022,-2.03061 -1.86396,-2.22294 -0.50329,-0.11746 -0.95641,-0.0354 -1.65287,0.29995 -0.64219,0.30907 -1.22881,0.75684 -1.98687,1.51674 -1.98444,1.9891 -3.82519,5.15856 -3.82519,6.58633 0,1.60703 1.36724,3.70141 3.56172,5.45589 0.87548,0.69996 2.02196,1.37173 2.74091,1.60612 l 0.31725,0.10342 -0.44415,0.0264 c -0.90943,0.054 -1.9058,0.0671 -2.68602,0.0354 z m 5.87768,-39.92201 c 0.35498,-0.16611 0.75845,-0.54717 1.06004,-1.00111 0.12364,-0.18615 0.43568,-0.76668 0.69343,-1.29016 0.71156,-1.4451 0.99428,-1.75657 2.05545,-2.26433 0.30244,-0.14476 0.58489,-0.30217 0.62765,-0.34987 0.0428,-0.048 0.1799,-0.43553 0.30474,-0.86182 0.12484,-0.42629 0.35233,-1.13531 0.50554,-1.57558 0.15321,-0.44027 0.27304,-0.82373 0.26631,-0.85211 -0.0145,-0.0611 -2.43649,-1.69028 -3.37507,-2.27027 -1.69508,-1.04743 -4.18601,-2.36716 -5.73159,-3.03659 -3.14617,-1.36262 -6.25885,-2.23122 -9.15786,-2.55541 -0.81315,-0.0909 -2.01699,-0.15837 -2.54804,-0.14278 l -0.45423,0.0132 0.42851,0.78252 c 1.27181,2.32258 1.45239,3.0571 1.11267,4.52603 -0.0215,0.0929 0.004,0.1228 0.21158,0.24614 0.49337,0.29335 1.12195,0.80225 1.67619,1.35704 1.05407,1.05511 1.7556,2.03253 3.0844,4.29765 0.88663,1.51133 1.1333,1.8372 1.83078,2.41845 1.22629,1.02199 3.12484,1.94314 5.04909,2.44982 0.75585,0.19905 1.23208,0.27068 1.69156,0.2546 0.32757,-0.0114 0.42982,-0.0336 0.66885,-0.1456 z m 40.186532,39.91883 c -1.04782,-0.0474 -1.02514,-0.042 -0.6768,-0.16047 1.15879,-0.39426 2.53226,-1.30989 3.78067,-2.52056 1.43594,-1.39249 2.32065,-2.8481 2.50343,-4.11899 0.0891,-0.61976 -0.0189,-1.1541 -0.42561,-2.10488 -0.97271,-2.27388 -3.12193,-5.02335 -4.7587,-6.08776 -1.0583,-0.68821 -1.88652,-0.84767 -2.63138,-0.50668 -0.24959,0.11428 -0.67069,0.49144 -0.86818,0.77765 -0.19385,0.28094 -0.47396,0.8749 -0.60143,1.27528 -0.063,0.19773 -0.12369,0.38808 -0.13498,0.42287 -0.0621,0.19167 -1.04699,-1.68171 -1.32317,-2.51671 -0.30161,-0.91192 -0.35883,-1.27402 -0.36094,-2.28414 -0.002,-0.78209 0.01,-0.94142 0.0975,-1.33244 0.1258,-0.56271 0.26558,-1.00952 0.48158,-1.53935 l 0.17056,-0.41838 -0.0777,-0.1315 c -0.30201,-0.51111 -0.80057,-1.50131 -1.20721,-2.39751 -0.35107,-0.77381 -0.4975,-1.05451 -0.55,-1.05451 -0.0394,0 -0.26692,0.068 -0.50567,0.15112 -2.17022,0.7554 -3.8083,2.62961 -5.04364,5.77083 -0.3413,0.86782 -0.56857,1.567 -0.97922,3.01259 -0.32741,1.15248 -0.45305,1.51344 -0.52681,1.51344 -0.0646,0 -0.45015,-0.4077 -0.702,-0.74232 -0.57742,-0.76722 -1.08036,-1.748 -1.27058,-2.47778 -0.0802,-0.30769 -0.0935,-0.82895 -0.0245,-0.95793 0.0424,-0.0791 0.0323,-0.0893 -0.11162,-0.11326 -0.34496,-0.0576 -0.79096,0.17409 -1.04459,0.54237 -0.25385,0.36858 -0.32954,0.62072 -0.35079,1.16867 -0.0281,0.72379 0.1484,1.35195 0.583,2.07501 0.11566,0.19245 0.20224,0.35796 0.19239,0.36786 -0.0862,0.0862 -1.06428,0.16119 -1.39795,0.10726 -0.24675,-0.0402 -0.22285,-0.01 -0.92354,-1.17539 -1.48474,-2.47064 -2.03355,-4.12415 -2.2955,-6.91598 -0.0924,-0.98439 -0.1259,-4.06675 -0.0647,-5.94655 0.17886,-5.49445 0.52358,-14.21524 0.74727,-18.90445 0.1943,-4.07298 0.20549,-3.41915 -0.15203,-8.88289 -0.28532,-4.36033 -0.28619,-4.37407 -0.35758,-5.64701 -0.22858,-4.07544 -0.29156,-5.98043 -0.2944,-8.90406 -0.003,-2.77504 0.0278,-3.55701 0.19,-4.86444 0.18624,-1.50174 0.50664,-2.3566 0.92233,-2.46098 0.0592,-0.015 1.0032,-0.0138 2.09778,0 2.68383,0.039 5.03359,0.12136 7.52051,0.26366 0.62216,0.0354 1.14874,0.054 1.17017,0.0408 0.0559,-0.0342 0.66589,-1.13568 1.14964,-2.07513 0.83744,-1.62633 1.32413,-2.87509 1.59089,-4.08192 0.0909,-0.41129 0.1106,-0.6269 0.12749,-1.39585 0.066,-3.00618 -0.82354,-5.92669 -2.70858,-8.89261 -0.79998,-1.25872 -1.6739,-2.40597 -3.45439,-4.53485 -2.71186,-3.24247 -3.55553,-4.40101 -4.32997,-5.94576 -0.79308,-1.582 -1.12713,-2.91499 -1.12713,-4.49777 0,-2.03512 0.59543,-4.08325 1.80982,-6.225194 0.28155,-0.4966 1.02319,-1.61248 1.41546,-2.12978 1.84426,-2.43189 4.55349,-4.94122 7.7303,-7.1599 1.34662,-0.94047 3.46865,-2.25096 3.53596,-2.18365 0.0262,0.0264 -0.31197,0.70242 -0.92206,1.84368 -2.32307,4.34564 -2.96119,6.88905 -2.50615,9.98923 0.40733,2.775144 1.76269,5.226834 4.23526,7.660944 1.24866,1.22926 2.15924,1.97044 5.32244,4.33226 3.49159,2.60706 4.57519,3.50883 5.76712,4.7997 2.19008,2.37184 3.23549,4.76227 3.2373,7.40239 4.8e-4,0.68167 -0.0135,0.82007 -0.1766,1.74866 -0.68071,3.87555 -1.97493,9.54176 -2.84959,12.47577 -0.0956,0.32059 -0.16615,0.59042 -0.15687,0.59972 0.009,0.009 0.464,0.0667 1.01047,0.1276 1.84831,0.20595 4.25026,0.49018 4.31863,0.51106 0.0819,0.0252 0.67762,-0.35982 1.34944,-0.8716 2.94631,-2.24454 5.90143,-5.8664 7.8499,-9.62095 1.53516,-2.95819 2.43167,-5.86934 2.68133,-8.70676 0.0611,-0.69487 0.0615,-2.24562 6e-4,-2.84348 -0.13037,-1.28169 -0.40978,-2.35582 -0.91814,-3.52959 -0.1058,-0.24428 -0.58646,-1.22458 -1.06814,-2.17843 -0.55364,-1.09632 -0.98591,-2.01435 -1.17515,-2.49566 -0.89189,-2.26841 -1.35172,-4.61367 -1.53312,-7.81956 -0.0589,-1.039568 -0.0596,-1.036388 0.12019,-0.511349 0.56525,1.651109 1.65195,2.967239 3.60172,4.362129 0.82823,0.59253 1.97876,1.27732 4.35831,2.59417 3.41086,1.88747 4.82657,2.76855 6.59846,4.10657 1.35708,1.02476 2.94954,2.50802 3.96979,3.69757 3.10562,3.62095 5.10927,8.09191 6.15999,13.74558 0.0813,0.43745 0.14782,0.81671 0.14782,0.84274 0,0.0258 -0.1003,-0.13353 -0.2229,-0.35454 -0.78372,-1.41283 -1.9451,-2.55115 -3.21651,-3.15267 -0.52444,-0.24806 -0.96829,-0.36486 -1.38685,-0.36486 h -0.33687 l -0.28894,-0.43067 c -0.99976,-1.4901 -2.22326,-2.64864 -2.97516,-2.81715 -0.10782,-0.024 -0.25628,-0.0318 -0.32992,-0.0174 -0.12384,0.0246 -0.13187,0.0366 -0.10697,0.1582 0.58023,2.83214 0.76111,8.55402 0.42204,13.34995 -0.24197,3.42257 -0.77543,6.46012 -1.47139,8.37807 -0.1047,0.28861 -0.1869,0.52719 -0.18267,0.53031 0.004,0.006 0.29322,0.15406 0.64219,0.33547 4.54616,2.36368 8.02831,5.14021 11.16473,8.90238 1.32704,1.59179 2.44368,3.17379 4.47862,6.34524 2.3968,3.73536 3.2826,4.93643 4.72138,6.40193 2.09236,2.13122 4.25456,3.35274 7.24267,4.09176 1.38408,0.3423 3.474,0.58467 5.09015,0.5903 h 0.5499 l -0.14742,0.12598 c -0.29834,0.25496 -1.09564,0.80441 -1.68025,1.15788 -3.53204,2.13565 -7.99086,3.28687 -13.14637,3.39419 -1.82162,0.0378 -3.00393,-0.074 -4.31456,-0.40871 -1.67107,-0.42665 -2.84422,-0.98061 -4.86373,-2.29661 -2.42774,-1.58201 -3.13088,-2.00446 -4.08262,-2.45283 -2.5939,-1.22188 -5.32647,-1.77733 -8.77715,-1.78405 -1.2587,0 -1.62394,0.0294 -2.46811,0.2153 -1.35856,0.29924 -2.77873,0.99422 -3.92655,1.9215 -0.4895,0.39551 -1.42621,1.34864 -1.84687,1.87931 -0.64821,0.81779 -1.24399,1.75076 -1.80354,2.82429 -0.96648,1.8543 -1.77196,4.10796 -2.41929,6.76883 -0.12005,0.49342 -0.22276,0.90321 -0.22826,0.91059 -0.005,0.007 -0.1023,-0.033 -0.21512,-0.0904 -0.29974,-0.15165 -0.87214,-0.34596 -1.28376,-0.43577 -0.27211,-0.0594 -0.52413,-0.0776 -1.03634,-0.0749 -0.60842,0.006 -0.71525,0.015 -1.05749,0.11836 -0.61725,0.18615 -1.0219,0.4612 -1.29096,0.87748 -0.23468,0.36306 -0.3124,0.69972 -0.28509,1.23478 0.0193,0.37686 0.0505,0.52179 0.22135,1.02643 0.42194,1.24618 1.05155,2.69789 1.95184,4.5003 1.93872,3.88149 4.12549,7.19464 6.71963,10.1809 0.71807,0.82666 2.46247,2.56446 3.25812,3.24583 2.00803,1.71963 4.1218,3.05711 6.19294,3.91845 l 0.48251,0.20067 -0.16526,0.0836 c -0.38448,0.1946 -1.14578,0.42059 -1.94184,0.57632 -0.628,0.12286 -1.34887,0.19677 -2.32648,0.23846 -2.86212,0.12214 -6.72884,-0.37302 -10.06729,-1.28907 l -0.80369,-0.22052 -0.35955,0.3387 c -1.493,1.4066 -3.95727,2.84612 -6.74678,3.94125 -2.49566,0.97976 -5.19599,1.6273 -7.84285,1.88075 -0.46703,0.0444 -2.30491,0.13054 -2.56283,0.11969 -0.0698,-0.006 -0.46953,-0.021 -0.88829,-0.0396 z m -1.97589,-39.88295 c 2.2661,-0.45899 4.81356,-1.71339 6.10009,-3.00378 0.44314,-0.44447 0.621,-0.70362 1.43709,-2.09402 1.19203,-2.03085 1.98545,-3.14301 2.9379,-4.11822 0.58634,-0.60032 0.99094,-0.93663 1.5893,-1.32086 0.34816,-0.22359 0.41853,-0.28622 0.39996,-0.35593 -0.11595,-0.43541 -0.15447,-0.80099 -0.13368,-1.26897 0.0368,-0.82955 0.25197,-1.44289 0.97393,-2.77665 0.4462,-0.82439 0.66321,-1.2463 0.66321,-1.2895 0,-0.0156 -0.414,-0.0174 -0.92001,-0.006 -4.91253,0.13858 -10.11218,1.77518 -15.51336,4.8828 -1.13536,0.65323 -1.81878,1.08306 -3.43683,2.16169 -0.89349,0.59558 -1.36417,0.93399 -1.36417,0.98078 0,0.0396 0.15075,0.50902 0.33498,1.04383 0.18425,0.53476 0.40551,1.22746 0.49169,1.53929 0.0862,0.31189 0.17375,0.59979 0.1946,0.63986 0.0209,0.0402 0.33277,0.21663 0.69314,0.39246 0.55242,0.26941 0.70235,0.36402 0.95555,0.6029 0.42872,0.4044 0.60408,0.67369 1.12231,1.72358 0.51303,1.03934 0.76961,1.45315 1.11415,1.79683 0.24461,0.24404 0.6349,0.47831 0.91475,0.54898 0.23729,0.06 0.94148,0.0198 1.4454,-0.0821 z"
       id="path847" />
  </g>
</svg>
