<?xml version="1.0" encoding="UTF-8" standalone="no"?>
<svg
   xmlns:dc="http://purl.org/dc/elements/1.1/"
   xmlns:cc="http://creativecommons.org/ns#"
   xmlns:rdf="http://www.w3.org/1999/02/22-rdf-syntax-ns#"
   xmlns:svg="http://www.w3.org/2000/svg"
   xmlns="http://www.w3.org/2000/svg"
   xmlns:sodipodi="http://sodipodi.sourceforge.net/DTD/sodipodi-0.dtd"
   xmlns:inkscape="http://www.inkscape.org/namespaces/inkscape"
   version="1.1"
   id="svg5019"
   width="100%"
   height="100%"
   viewBox="0 0 884.60925 884.60925"
   sodipodi:docname="Temur.svg"
   inkscape:version="1.0.1 (0767f8302a, 2020-10-17)">
  <metadata
     id="metadata5025">
    <rdf:RDF>
      <cc:Work
         rdf:about="">
        <dc:format>image/svg+xml</dc:format>
        <dc:type
           rdf:resource="http://purl.org/dc/dcmitype/StillImage" />
        <dc:title />
      </cc:Work>
    </rdf:RDF>
  </metadata>
  <defs
     id="defs5023">
    <filter
       style="color-interpolation-filters:sRGB;"
       inkscape:label="Drop Shadow"
       id="filter842">
      <feFlood
         flood-opacity="0.803922"
         flood-color="rgb(42,29,4)"
         result="flood"
         id="feFlood832" />
      <feComposite
         in="flood"
         in2="SourceGraphic"
         operator="in"
         result="composite1"
         id="feComposite834" />
      <feGaussianBlur
         in="composite1"
         stdDeviation="2.6"
         result="blur"
         id="feGaussianBlur836" />
      <feOffset
         dx="0"
         dy="2.3"
         result="offset"
         id="feOffset838" />
      <feComposite
         in="SourceGraphic"
         in2="offset"
         operator="over"
         result="composite2"
         id="feComposite840" />
    </filter>
  </defs>
  <sodipodi:namedview
     pagecolor="#ffffff"
     bordercolor="#666666"
     borderopacity="1"
     objecttolerance="10"
     gridtolerance="10"
     guidetolerance="10"
     inkscape:pageopacity="0"
     inkscape:pageshadow="2"
     inkscape:window-width="1613"
     inkscape:window-height="912"
     id="namedview5021"
     showgrid="false"
     fit-margin-top="0"
     fit-margin-left="0"
     fit-margin-right="0"
     fit-margin-bottom="0"
     inkscape:zoom="0.71630707"
     inkscape:cx="296.4203"
     inkscape:cy="424.41993"
     inkscape:window-x="486"
     inkscape:window-y="311"
     inkscape:window-maximized="0"
     inkscape:current-layer="g5027"
     inkscape:document-rotation="0" />
  <g
     inkscape:groupmode="layer"
     inkscape:label="Image"
     id="g5027"
     transform="translate(-60.063666,46.440637)">
    <circle
       style="fill:#fbff00;fill-opacity:1;fill-rule:evenodd;stroke:#000000;stroke-width:24;stroke-miterlimit:4;stroke-dasharray:none;stroke-opacity:1"
       id="path5045"
       cx="502.36829"
       cy="395.86398"
       r="430.30597" />
    <path
       style="fill:#131107;stroke:none;stroke-width:1.06525;filter:url(#filter842)"
       d="m 353.429,112.44389 c 3.36405,9.5116 -15.19363,15.40455 -18.10921,23.43545 h -2.1305 l -3.19574,-3.19574 -2.1305,8.52198 c -0.3984,6.67697 -9.31879,14.98058 -13.72465,19.93505 -9.24209,10.39149 -17.87166,22.95076 -24.16941,35.45783 -8.22158,16.32812 -15.94888,32.20883 -20.77978,50.06664 -7.33849,27.12867 -9.80454,53.4552 -19.98725,79.89358 -6.87191,17.84184 -30.07833,28.23759 -34.25517,45.80565 h 1.06525 l 7.45674,-9.58723 c -4.84582,13.97818 -16.20988,22.69724 -24.83732,34.08793 -7.4578,9.84822 -14.07725,25.67886 -18.83784,37.28367 h 2.1305 c -5.69908,12.04263 -13.79922,25.43492 -16.99816,38.34892 -3.62611,14.6397 -1.74594,30.83146 -4.22158,45.80565 -2.97737,18.0144 -6.98163,40.06929 4.17577,56.45813 h 1.06525 l 22.77393,-50.99447 12.37924,-21.44238 h 1.06525 v 3.19575 l 6.39149,-14.91347 10.08789,-7.30867 21.86954,-28.90975 c -2.51079,0 11.3385,-11.0104 14.91347,-13.4935 10.85168,-7.53556 24.44211,-13.13663 36.21842,-19.35129 32.97474,-17.40401 71.64323,-13.69589 106.52477,-28.22906 11.21173,-4.67218 20.45169,-10.63117 30.89218,-16.86713 5.15474,-3.0775 7.49722,-7.27884 13.84822,-7.27884 v 6.39149 l 3.19575,-1.06525 c -0.55819,-9.32731 7.62824,-22.31801 14.91347,-27.69644 v 4.26099 c 15.90201,-1.19521 19.94995,-9.01626 28.61788,-20.14383 5.3273,-6.84103 9.73849,-10.35421 10.79628,-19.27034 7.91266,-0.97789 7.39708,-18.71214 6.39149,-24.50069 l -3.19575,-2.1305 c -5.15899,6.27005 -10.64502,16.80748 -19.17446,18.10921 -0.87776,5.37311 -3.69214,6.04954 -8.52198,4.26099 l -1.06524,5.32624 c -6.98909,-4.45593 -3.17231,-12.19602 -2.1305,-19.17446 l -7.45673,-1.06524 -11.71773,-13.84822 -1.06525,3.19574 -1.06524,-4.26099 c -3.77311,-3.22983 -5.44875,-6.62904 -10.65248,-4.26099 -0.67537,-4.33876 -12.31959,-18.74623 -15.97872,-14.91347 -5.1494,-4.3036 -4.22051,-10.57472 -0.033,-15.65701 9.29429,-11.27565 23.88818,-19.05089 27.72946,-34.40963 l 6.39149,3.19574 c 6.43623,-12.40694 18.63438,-17.45408 29.82694,-24.32919 26.30309,-16.15555 50.53961,-27.88499 82.02407,-30.09325 10.46606,-0.73502 18.4405,-3.79548 28.76169,0.0948 2.0751,-3.6325 4.39521,-4.49748 8.52198,-4.26099 l -7.45673,2.13049 v 1.06525 c 4.60506,1.09401 9.31133,0.29507 13.84822,1.39547 7.29162,1.76831 13.66073,6.01546 21.30495,6.9305 5.37098,0.64235 9.76299,-1.4956 14.91347,-1.66285 7.00826,-0.22796 16.90654,3.31612 23.43545,5.80773 8.29934,3.16698 14.03783,9.57338 21.30495,14.28924 33.63946,21.83118 59.09888,53.37423 69.28265,92.54765 1.66391,6.39894 5.1249,11.31187 5.28469,18.10921 h 3.19574 v 5.32624 l 6.39149,-3.19574 1.06525,39.41416 h 1.06525 l 1.06524,-3.19574 h 1.06525 l 1.06525,12.78297 h 3.19574 l 1.06525,11.71773 h 1.06525 v -3.19575 h 1.06525 l -1.06525,18.10922 h 1.06525 l 1.06524,-4.26099 h 1.06525 l -3.19574,30.89218 h 1.06525 c 15.92119,-24.36967 17.04396,-55.04668 17.04396,-83.08932 l 2.13049,2.13049 h 1.06525 c 0.66578,-32.24078 4.68603,-67.64642 -3.39175,-99.06803 -4.31105,-16.76807 -12.6072,-29.44132 -21.51587,-43.67516 -3.57178,-5.70653 1.76085,-11.21599 -2.78882,-15.97872 v 4.26099 c -8.8586,-3.01145 -13.6128,-11.38643 -19.57393,-17.99736 -5.02796,-5.57657 -10.4032,-8.34515 -14.514,-15.02531 h -1.06524 v 4.26099 C 726.80471,117.115 707.23504,95.995403 680.46004,86.877955 l 2.1305,3.195743 -17.04396,-7.456733 v -1.065248 l 10.65247,3.195743 C 672.77109,79.393525 658.01847,73.174619 651.69836,74.094993 l 3.19574,4.260981 -34.08793,-6.391476 c -0.29507,-2.745143 -1.20586,-4.071377 -4.26632,-4.733961 -9.54994,-2.070735 -18.16886,-3.525437 -27.69111,-6.747066 -2.23063,-0.754728 -13.2144,-0.920906 -7.45673,-4.497689 l -17.04397,-0.703596 -27.69644,-5.256358 -22.3702,5.507011 -63.91486,16.004495 -9.58723,5.72463 -46.8709,14.906012 L 353.429,112.44389 M 583.5225,55.985782 v 1.065248 l 5.32624,1.065248 -5.32624,-2.130496 m 29.82694,7.456734 v 1.065248 h 7.45673 l -7.45673,-1.065248 m 23.43545,4.260991 4.26099,2.130496 -4.26099,-2.130496 m 9.58723,3.195743 1.06524,1.065248 -1.06524,-1.065248 m 11.71772,6.391476 7.45674,3.195743 v 1.065248 l -8.52199,-3.195743 1.06525,-1.065248 m 25.56595,12.782972 -1.06525,1.065249 1.06525,-1.065249 m -346.20551,36.218412 -4.26099,6.39149 4.26099,-6.39149 m 415.44661,1.06525 2.13049,3.19574 -2.13049,-3.19574 m 25.56594,26.63119 v 2.1305 h 2.1305 v -2.1305 h -2.1305 m 6.39149,14.91347 1.06525,1.06525 -1.06525,-1.06525 m -353.30751,74.21261 0.35579,0.70946 -0.35579,-0.70946 m -1.41998,3.55047 c -1.91851,4.76166 -1.44447,8.01067 3.19574,10.65248 l -3.19574,-10.65248 m -3.19574,10.65248 v 2.1305 h -2.1305 l 2.1305,-2.1305 m 48.29087,39.05944 0.3558,0.70945 -0.3558,-0.70945 m 295.78414,4.61572 1.06525,1.06524 -1.06525,-1.06524 m -321.70481,79.89358 v -4.261 h -2.13049 l -6.39149,10.65248 -3.19574,-1.06525 -1.06525,5.32624 c -8.88523,1.44554 -27.85943,19.2682 -30.89219,27.69644 l -3.19574,-2.13049 -1.06525,3.19574 -4.26099,-2.13049 -14.91347,17.04396 3.19575,-6.39149 c -14.97952,11.05727 -25.29218,32.52841 -35.97235,47.48342 -4.37284,6.12198 -11.59416,9.99415 -15.15954,16.43144 l -3.19575,-1.06524 c -6.60134,20.07566 -20.79683,38.77927 -30.46395,57.52337 -8.07032,15.64636 -10.31799,33.15797 -13.92385,50.06665 -2.32224,10.89002 -6.74409,19.5654 -6.74409,30.89218 l -2.13049,-1.06525 c 0,32.7095 -6.31479,63.7391 7.45673,94.80705 h 1.06525 c -1.83755,-23.28951 9.35394,-45.06424 18.98911,-66.04536 10.09961,-21.99204 20.7425,-45.15265 36.75104,-63.89888 13.52758,-15.84237 34.65784,-31.66875 52.15347,-42.9231 11.34701,-7.29907 24.38884,-10.68656 35.91482,-17.37845 11.39602,-6.61732 23.82533,-11.33743 35.15318,-17.76726 13.29003,-7.54196 30.7782,-20.46767 46.8709,-18.88471 l 37.28367,-20.23971 -1.06525,-5.32624 2.13049,3.19574 h 1.06525 c 0.75633,-3.25752 0.71265,-4.54647 -2.13049,-6.39148 l 4.26099,-11.71773 -4.26099,1.06525 v -5.32624 l 3.19574,1.06525 -2.1305,-5.32624 c 6.54702,-1.83755 10.43623,-7.59202 14.99869,-12.33131 14.57152,-15.13397 21.83651,-37.97501 22.28498,-59.04029 -2.27004,1.59255 -4.26205,3.35127 -6.39681,5.12278 -1.57976,1.31239 -12.19069,8.34835 -10.44688,1.22717 2.00373,-8.18111 9.29535,-15.61547 12.5827,-23.39391 h 5.32624 v -1.06525 h -4.26099 c -0.32277,-7.04341 -3.93183,-24.39736 -9.29429,-29.18778 -8.66792,-7.74329 -24.11507,-5.54462 -34.38087,-3.8349 l 1.06525,-3.19574 c -9.94196,-1.90466 -26.14437,11.18084 -31.44718,19.27033 -2.47883,3.78057 -2.84847,9.77258 -6.13369,12.7361 -4.14595,3.73902 -10.05488,3.4333 -14.52039,6.26579 -13.60854,8.6317 -24.53692,15.7401 -40.57529,20.31641 m 328.45102,-37.6384 0.3558,0.70945 -0.3558,-0.70945 m -338.03825,36.57315 -2.13049,4.26099 2.13049,-4.26099 m 355.43801,22.72493 0.70945,0.35579 -0.70945,-0.35579 m -454.86077,7.45673 0.70945,0.35579 -0.70945,-0.35579 m 220.861,32.66795 -7.45673,6.39149 v 1.06525 l 7.45673,-7.45674 m 77.76308,3.19575 v 2.13049 h 2.1305 v -2.13049 h -2.1305 m -3.19574,4.26099 c -12.23224,9.46046 -24.1971,-0.38243 -37.28367,5.60746 -9.45407,4.32704 -21.08019,12.0128 -27.69111,20.06927 -3.23197,3.93715 -4.18536,10.03996 -7.77418,13.33264 -3.93822,3.61438 -9.94622,3.47803 -14.60135,5.73103 -2.09108,8.94595 -17.15795,13.44662 -22.70682,21.30495 -11.85941,16.79363 -29.59471,32.80324 -38.78141,51.13189 -5.47537,10.92412 -8.72331,32.52521 -20.53585,38.34892 l -13.84822,84.15457 -4.26099,-3.19574 h -2.13049 c -0.73289,4.45912 0.34833,6.32118 4.26099,8.52198 v 1.06525 l -4.26099,6.39148 h 1.06525 l 4.26099,-5.32623 3.19574,31.95743 c 9.59362,5.6 10.64289,29.48818 14.91347,39.41416 6.98589,-10.48097 5.08869,-27.68898 9.66073,-39.41416 3.0498,-7.81999 8.79149,-14.79842 12.5827,-22.37021 11.13717,-22.24343 19.91161,-41.45198 37.82589,-59.33642 23.43438,-23.3971 48.97476,-41.2677 78.41288,-56.50074 11.37684,-5.8855 21.86101,-13.01733 33.02268,-19.01893 5.23569,-2.81439 11.69535,-2.32118 14.91347,-7.8871 l -18.10921,-1.06525 2.13049,6.39149 h -15.97872 l 9.58723,-7.45673 -3.19574,-1.06525 c 13.20694,-14.33824 28.34092,-25.96755 37.49033,-43.67516 2.31052,-4.47084 7.3076,-10.71426 6.71852,-15.97871 -0.43356,-3.86898 -3.97018,-7.36406 -5.85993,-10.65248 14.39682,-2.94115 0.82663,-14.55448 0,-22.3702 -6.29455,2.07936 -9.82372,10.96459 -10.65248,17.04396 h -1.06525 l -21.30495,-35.15317 m -472.96998,22.3702 -1.06525,6.39148 h 1.06525 v -6.39148 m 329.51627,82.73459 0.35579,0.70946 -0.35579,-0.70946 m 160.49767,5.68097 1.06525,1.06525 -1.06525,-1.06525 m -198.13607,69.2411 -5.32624,8.52198 c 3.62823,-1.78962 6.44155,-4.26206 5.32624,-8.52198 m -6.39149,27.69644 -1.06524,3.19574 h 3.19574 l -2.1305,-3.19574 m 62.84962,36.21842 v 2.1305 h 2.13049 v -2.1305 h -2.13049 m -30.89219,53.26239 v 2.13049 h 2.1305 v -2.13049 z"
       id="path5043" />
  </g>
</svg>
