<?xml version="1.0" encoding="UTF-8" standalone="no"?>
<svg
   xmlns:dc="http://purl.org/dc/elements/1.1/"
   xmlns:cc="http://creativecommons.org/ns#"
   xmlns:rdf="http://www.w3.org/1999/02/22-rdf-syntax-ns#"
   xmlns:svg="http://www.w3.org/2000/svg"
   xmlns="http://www.w3.org/2000/svg"
   xmlns:sodipodi="http://sodipodi.sourceforge.net/DTD/sodipodi-0.dtd"
   xmlns:inkscape="http://www.inkscape.org/namespaces/inkscape"
   viewBox="0 0 263.55139 263.55139"
   version="1.1"
   id="svg9774"
   inkscape:version="1.0.1 (0767f8302a, 2020-10-17)"
   sodipodi:docname="Grixis Shard.svg">
  <defs
     id="defs9768">
    <filter
       style="color-interpolation-filters:sRGB;"
       inkscape:label="Drop Shadow"
       id="filter842">
      <feFlood
         flood-opacity="0.803922"
         flood-color="rgb(72,49,7)"
         result="flood"
         id="feFlood832" />
      <feComposite
         in="flood"
         in2="SourceGraphic"
         operator="in"
         result="composite1"
         id="feComposite834" />
      <feGaussianBlur
         in="composite1"
         stdDeviation="2"
         result="blur"
         id="feGaussianBlur836" />
      <feOffset
         dx="0"
         dy="2.3"
         result="offset"
         id="feOffset838" />
      <feComposite
         in="SourceGraphic"
         in2="offset"
         operator="over"
         result="composite2"
         id="feComposite840" />
    </filter>
  </defs>
  <sodipodi:namedview
     id="base"
     pagecolor="#ffffff"
     bordercolor="#666666"
     borderopacity="1.0"
     inkscape:pageopacity="0.0"
     inkscape:pageshadow="2"
     inkscape:zoom="2.8"
     inkscape:cx="139.05186"
     inkscape:cy="154.66988"
     inkscape:document-units="mm"
     inkscape:current-layer="layer1"
     inkscape:document-rotation="0"
     showgrid="false"
     fit-margin-top="0"
     fit-margin-left="0"
     fit-margin-right="0"
     fit-margin-bottom="0"
     inkscape:window-width="1647"
     inkscape:window-height="1212"
     inkscape:window-x="896"
     inkscape:window-y="95"
     inkscape:window-maximized="0" />
  <metadata
     id="metadata9771">
    <rdf:RDF>
      <cc:Work
         rdf:about="">
        <dc:format>image/svg+xml</dc:format>
        <dc:type
           rdf:resource="http://purl.org/dc/dcmitype/StillImage" />
        <dc:title></dc:title>
      </cc:Work>
    </rdf:RDF>
  </metadata>
  <g
     inkscape:label="Layer 1"
     inkscape:groupmode="layer"
     id="layer1"
     transform="translate(7.2791476,-8.2156186)">
    <circle
       style="fill:#700080;fill-opacity:1;fill-rule:evenodd;stroke:#0b101c;stroke-width:9.665;stroke-miterlimit:4;stroke-dasharray:none;stroke-opacity:1"
       id="path9057"
       cx="124.49655"
       cy="139.99132"
       r="126.9432" />
    <path
       style="fill:#000000;stroke-width:0.264583;filter:url(#filter842)"
       d="m 167.96694,225.2299 c -4.86066,-0.7145 -8.80344,-2.82301 -12.83843,-6.8657 -4.69258,-4.70154 -8.87248,-12.601 -11.94386,-22.57234 -1.0043,-3.26048 -0.99915,-3.25728 -3.34285,-2.07419 -2.06586,1.04284 -4.60228,3.79839 -6.24407,6.78352 -1.44631,2.62969 -3.72559,5.1973 -5.97354,6.72917 -4.79278,3.26604 -11.40031,5.32785 -16.90185,5.27404 l -2.28044,-0.0223 2.11666,-0.48433 c 7.03787,-1.61041 13.30195,-4.54128 16.84059,-7.87945 2.18064,-2.05711 3.18751,-3.59879 3.92603,-6.01139 1.91842,-6.26708 4.84953,-10.32343 8.93748,-12.36854 1.66463,-0.83279 1.9625,-0.90007 3.13333,-0.70778 2.09963,0.34483 9.27517,0.26334 12.27403,-0.13938 7.10489,-0.95414 15.15491,-3.55924 21.38982,-6.92206 1.21414,-0.65485 2.13446,-1.07241 2.04515,-0.9279 -0.39209,0.6344 -5.27058,4.50895 -7.59848,6.03478 -5.45528,3.57569 -12.97229,6.56466 -18.48232,7.34908 -2.76461,0.39358 -2.64583,0.31765 -2.64583,1.69145 0,0.68401 0.1824,2.71695 0.40533,4.51765 1.86854,15.09299 8.03236,24.33574 17.58633,26.37101 4.22072,0.89914 10.81871,0.004 15.96324,-2.16568 1.16872,-0.4929 2.16347,-0.85765 2.21057,-0.81056 0.25878,0.25878 -5.46987,3.07089 -7.97127,3.91298 -3.93576,1.32496 -7.45025,1.75176 -10.60562,1.28794 z m -55.01961,-20.44207 c 5.22617,-2.78792 7.0484,-4.45969 9.08784,-8.3374 2.3594,-4.4861 4.52225,-6.73047 10.21923,-10.60447 4.66581,-3.1728 4.8641,-3.23758 2.49219,-0.81411 -2.50399,2.55842 -4.8577,5.53173 -6.99922,8.84173 -0.84735,1.30969 -1.84678,2.84993 -2.22097,3.42275 -1.15505,1.76823 -4.07851,4.45314 -6.3056,5.79109 -2.17225,1.305 -5.6377,2.61911 -7.74689,2.93765 -1.10204,0.16644 -1.00478,0.0848 1.47342,-1.23724 z m -18.792923,-0.30979 c -2.61754,-0.59198 -5.75268,-1.93037 -8.7817,-3.74889 -1.57298,-0.94437 -3.03856,-1.90462 -3.25684,-2.1339 -0.21829,-0.22928 0.10918,-0.10402 0.72769,0.27837 2.99311,1.85045 6.71664,3.01345 10.39647,3.24722 4.88406,0.31026 9.829813,-1.12345 14.288873,-4.14216 1.24422,-0.84232 1.73339,-1.01087 3.2059,-1.10463 1.20876,-0.077 2.15732,-0.32838 3.11652,-0.82603 l 1.37887,-0.71539 -0.87184,1.12256 c -2.56894,3.30769 -6.5367,6.27991 -10.08046,7.5512 -1.61512,0.57941 -2.44859,0.70055 -5.228693,0.75998 -2.0832,0.0445 -3.89486,-0.0622 -4.89479,-0.28833 z m -13.13063,-6.70186 c -0.3291,-0.41964 -0.31975,-0.429 0.0999,-0.0999 0.44073,0.34564 0.58089,0.56291 0.36312,0.56291 -0.0549,0 -0.2633,-0.20837 -0.46302,-0.46302 z m 14.05667,-1.28365 c -11.8561,-1.43286 -19.89441,-6.76766 -24.67677,-16.37729 -1.85165,-3.72069 -3.36298,-8.34559 -5.83609,-17.85937 -3.06084,-11.77472 -5.30727,-17.45897 -9.19944,-23.27784 -1.97838,-2.95769 -6.12475,-7.19597 -9.11651,-9.31857 -8.47279,-6.01129 -20.84625,-9.48805 -36.3709407,-10.21971 l -4.09713,-0.19309 2.38125,-0.57913 c 5.8795997,-1.42996 14.6744607,-2.04306 20.2424407,-1.41115 5.61928,0.63774 11.34336,2.24862 15.62471,4.39711 5.47153,2.74576 11.5061,8.14896 15.04274,13.46888 3.69206,5.5537 5.90223,10.87448 8.24851,19.85746 0.72217,2.76489 1.78943,6.4283 2.3717,8.1409 4.80654,14.13718 12.2137,22.86758 21.72872,25.61041 2.75275,0.79351 7.51962,0.96918 10.800563,0.39802 8.34605,-1.45293 18.07245,-6.89588 27.2802,-15.26615 1.2524,-1.13849 2.36365,-1.98342 2.46945,-1.87763 0.10579,0.1058 0.15267,0.0617 0.10416,-0.098 -0.0485,-0.15966 1.48073,-1.88606 3.39831,-3.83645 5.17064,-5.25909 10.72068,-11.87504 15.63242,-18.63467 1.27178,-1.75026 2.52687,-3.47666 2.78909,-3.83647 0.83847,-1.15047 -4.69742,9.55737 -6.43279,12.44271 -6.93031,11.5227 -14.96463,21.32475 -22.88356,27.91842 -5.85552,4.87558 -13.80363,8.86093 -20.03409,10.0455 -2.20187,0.41863 -7.740543,0.71471 -9.466943,0.50607 z m 35.857543,-12.02486 c 5.76803,-6.17545 11.72455,-13.70735 16.41514,-20.75659 15.77188,-23.70272 19.53511,-45.90675 10.84808,-64.006488 -1.45481,-3.03113 -3.95251,-6.80331 -5.89149,-8.89763 l -1.4592,-1.5761 h -2.5528 c -3.20893,0 -8.44246,-0.60501 -12.58683,-1.45506 -4.94893,-1.01508 -4.95214,-1.05838 -0.0786,-1.05998 5.24072,-0.002 7.23425,-0.29712 11.57847,-1.71566 3.63123,-1.18573 6.71746,-2.69122 9.78221,-4.77184 4.11515,-2.79373 12.17757,-5.43596 18.52083,-6.06968 11.21134,-1.12006 21.14499,3.63794 27.04832,12.95555 1.8966,2.99352 1.79035,3.09181 -0.68882,0.63722 -5.17702,-5.12571 -10.04957,-6.14749 -14.98241,-3.14183 -5.4174,3.3009 -11.04409,12.65498 -15.33701,25.496968 -1.54666,4.62673 -2.81253,9.29313 -3.45232,12.72639 -3.52491,18.91546 -11.80712,35.86511 -24.56416,50.27085 -3.71666,4.19699 -8.93423,9.07915 -13.00276,12.1669 -1.15923,0.87977 -1.14859,0.85859 0.40338,-0.80302 z m -20.6624,-0.46636 c 0.75866,-3.62824 0.9072,-10.05093 0.29905,-12.93075 -0.4544,-2.15174 -1.23724,-3.99803 -2.16037,-5.0951 l -0.67474,-0.80188 0.61577,-0.26102 c 0.33867,-0.14356 2.14551,-0.8073 4.01519,-1.47497 l 3.39943,-1.21394 3.94276,1.91439 c 2.16852,1.05291 3.94276,2.07345 3.94276,2.26787 0,0.72248 -1.10047,5.32897 -1.88452,7.8885 -0.44577,1.45521 -1.21952,3.42786 -1.71944,4.38365 -0.82191,1.57143 -1.10457,1.85553 -2.95197,2.96702 -2.22479,1.33855 -4.41055,2.3599 -5.9744,2.7917 -0.99266,0.27409 -0.99738,0.27167 -0.84952,-0.43547 z m 35.47256,-3.12878 c -0.87313,-0.052 -1.97161,-0.1592 -2.44108,-0.23827 l -0.85358,-0.14375 2.8799,-3.43216 c 5.37368,-6.40417 10.63376,-13.86906 11.83474,-16.79539 0.3552,-0.86551 0.59324,-1.13821 0.88314,-1.01176 3.67554,1.60316 7.80927,2.39251 10.95441,2.09179 4.90706,-0.46918 10.15596,-2.66932 14.81468,-6.20975 7.58789,-5.76649 14.06956,-8.24915 23.56622,-9.02651 3.96312,-0.32441 9.31201,0.0605 11.62182,0.83639 0.88926,0.2987 2.62886,1.06911 3.86579,1.71203 8.13379,4.22771 11.03159,10.92973 8.44539,19.53257 -0.53572,1.78204 -2.22619,5.70982 -2.45745,5.70982 -0.0634,0 0.0661,-0.56555 0.28789,-1.25677 0.65316,-2.03585 0.57774,-7.12608 -0.14338,-9.67666 -2.76227,-9.77017 -10.49461,-12.31116 -20.98146,-6.89492 -2.85482,1.47447 -5.81976,3.45733 -9.75724,6.52538 -9.61415,7.49125 -19.9476,12.82764 -30.372,15.68465 -3.24473,0.88927 -9.30594,2.04878 -12.22592,2.33881 -2.12601,0.21116 -8.08337,0.36398 -9.92187,0.2545 z m -90.759223,-5.11858 c -5.92226,-1.3391 -12.51886,-4.84321 -19.45563,-10.33478 -3.23525,-2.56121 -10.56641,-9.83069 -13.72987,-13.61434 l -2.21215,-2.64585 3.94407,3.87415 c 4.19462,4.12028 5.06431,4.90379 7.78052,7.00963 5.55277,4.30501 11.6258,7.46224 17.06562,8.87202 2.04456,0.52987 3.01723,0.61664 6.87917,0.61367 3.36973,-0.003 4.87981,-0.1125 6.02045,-0.43821 l 1.52254,-0.43476 0.15124,0.7028 c 0.20403,0.94812 1.57622,5.6231 1.80689,6.15598 0.14579,0.33681 -0.0265,0.46097 -0.82188,0.59241 -1.96864,0.3253 -6.79312,0.1352 -8.95097,-0.35272 z m 19.67577,-4.82505 c -1.13068,-1.9656 -1.87942,-4.14468 -1.76151,-5.12663 0.0743,-0.61857 0.34179,-0.79776 2.20122,-1.47435 2.8701,-1.04433 8.70224,-3.88758 10.92882,-5.32794 1.00126,-0.64773 2.62214,-1.85774 3.60196,-2.68895 0.97982,-0.83121 1.82069,-1.47078 1.86859,-1.42125 0.0479,0.0495 0.65568,0.86395 1.35061,1.80984 1.55512,2.11671 3.6247,4.34131 4.92137,5.29 l 0.97552,0.71374 -4.94427,2.32944 c -8.71211,4.1046 -15.41908,6.95257 -17.38622,7.38269 -0.76127,0.16646 -0.84688,0.094 -1.75609,-1.48659 z m 52.430323,-6.2923 c -0.21828,-0.13472 -2.87118,-1.43313 -5.89534,-2.88533 l -5.49847,-2.64039 -1.73013,0.65121 c -3.18623,1.19929 -7.73472,2.47459 -9.45427,2.65076 -1.61335,0.1653 -1.7672,0.13044 -2.91769,-0.66113 -2.418103,-1.6637 -7.746083,-7.4073 -13.517803,-14.57233 -2.48194,-3.0811 -4.99043,-5.61964 -8.61129,-8.71446 -1.0914,-0.93285 -2.02066,-1.78537 -2.06501,-1.8945 -0.0443,-0.10912 0.10447,-1.17426 0.33073,-2.36697 0.51434,-2.7114 0.52372,-7.03452 0.0198,-9.12156 -0.21083,-0.87313 -0.38756,-1.6753 -0.39274,-1.78261 -0.005,-0.10731 0.85377,-0.62612 1.9088,-1.15291 3.41122,-1.70327 5.4901,-3.59234 5.4901,-4.98884 0,-0.32966 -0.34879,-0.41002 -1.77973,-0.41002 h -1.77973 l 2.11046,-2.14686 c 2.99809,-3.04981 8.80979,-8.20417 12.04804,-10.68535 5.846463,-4.479608 11.323083,-7.646108 15.462413,-8.940148 1.94526,-0.60813 2.32021,-0.64293 4.63021,-0.42976 8.8152,0.81349 17.92833,3.10721 24.41692,6.145598 5.09978,2.38806 10.00707,6.11433 12.50817,9.49788 0.86448,1.16949 1.17958,1.88735 1.39369,3.175 1.26769,7.62427 0.0257,16.85575 -3.33868,24.81489 -2.94227,6.96065 -7.09635,12.93886 -13.14541,18.91772 -3.32738,3.28878 -8.5829,7.63097 -9.35469,7.72899 -0.2428,0.0308 -0.62005,-0.0542 -0.83834,-0.18888 z m -12.54413,-38.78988 c 2.48743,-1.18036 4.95919,-7.80986 4.47769,-12.00961 -0.35111,-3.06247 -2.31364,-5.64978 -4.84307,-6.38486 -1.95451,-0.56801 -6.38519,-0.43372 -8.9186,0.27031 -2.13365,0.59293 -4.75396,1.87242 -6.389703,3.12006 l -0.88634,0.67604 v 2.61443 2.61443 h -2.51355 c -1.38244,0 -2.51152,0.0893 -2.50905,0.19844 0.005,0.20981 7.450633,4.47136 10.238143,5.85966 3.55377,1.76993 8.22956,3.41248 9.82571,3.45165 0.34181,0.008 1.02526,-0.17635 1.51877,-0.41055 z m 49.88698,24.03227 c 3.54481,-7.36916 6.03403,-16.90032 6.89059,-26.38392 l 0.32044,-3.54777 1.734,-1.27599 c 0.9537,-0.70179 2.09119,-1.53643 2.52775,-1.85476 0.43656,-0.31833 2.46062,-1.69402 4.49792,-3.05708 17.13712,-11.46569 32.76066,-16.146028 44.82351,-13.42778 5.38437,1.21332 10.49964,4.13648 13.53248,7.73325 l 1.12308,1.33191 -1.29683,-0.9949 c -1.89751,-1.45575 -5.2279,-2.96213 -7.64683,-3.45876 -3.02556,-0.62118 -8.11639,-0.38008 -11.46814,0.54314 -11.3627,3.12976 -24.49478,12.38574 -39.39114,27.76433 -4.37662,4.51831 -10.39116,11.3362 -14.01869,15.89113 -1.39823,1.7557 -2.67223,3.33761 -2.8311,3.51533 -0.15886,0.17773 0.38247,-1.07243 1.20296,-2.77813 z m -145.450273,-1.44761 -0.50403,-0.59531 0.59532,0.50403 c 0.55944,0.47366 0.71576,0.68659 0.50403,0.68659 -0.0502,0 -0.3181,-0.26789 -0.59532,-0.59531 z m 62.128,-2.46145 c -1.94664,-0.52404 -4.33068,-1.7532 -6.45527,-3.32823 -0.99268,-0.73591 -1.80488,-1.36597 -1.80488,-1.40015 0,-0.0342 0.73799,0.30364 1.63997,0.75071 1.46839,0.7278 1.93103,0.82068 4.42196,0.88773 2.40938,0.0649 2.86194,0.15 3.37896,0.63571 0.32833,0.30846 0.53492,0.66122 0.45909,0.78392 -0.0758,0.1227 0.0171,0.16966 0.20659,0.10435 0.18946,-0.0653 0.88025,0.35246 1.5351,0.92836 l 1.19062,1.0471 -1.5875,-0.0167 c -0.87312,-0.009 -2.21621,-0.18594 -2.98464,-0.3928 z m -26.19844,-37.18975 c 1.35309,-1.18058 4.12704,-3.39787 6.16433,-4.92732 13.6947,-10.280938 26.90029,-16.363628 40.745833,-18.768128 2.00159,-0.34761 4.19203,-0.46168 8.99583,-0.46845 5.47056,-0.008 6.7714,0.0717 9.39271,0.57349 11.54833,2.21063 20.9356,7.35571 30.42628,16.676368 l 3.57268,3.50867 -2.91308,-1.92041 c -8.94204,-5.894938 -19.5016,-9.655958 -31.48276,-11.213268 -4.7013,-0.61107 -13.79584,-0.61174 -18.87716,-10e-4 -5.793713,0.69592 -11.464093,1.91931 -17.503043,3.77631 -8.60355,2.64562 -20.41766,8.233538 -28.51796,13.488628 -1.20555,0.78211 -2.25309,1.42201 -2.32787,1.42201 -0.0748,0 0.97113,-0.96593 2.32421,-2.14651 z"
       id="path8441"
       sodipodi:nodetypes="ssssssscssssssssssssssssssssssssssssssssssscssssssssssssssscssssssssssssssssssssssscsscssssssssssssssscsscssssssssscsssssssssssssssssssscssscscsssssssssssscssssscsssssssscssscssssssssssssssssscccssscssscssssscsssssssscssssssssssssccscsscsscsscssscc" />
  </g>
</svg>
