<?xml version="1.0"?>
<svg xmlns="http://www.w3.org/2000/svg" viewBox="0 0 311.785 311.785">
  <defs>
    <filter style="color-interpolation-filters:sRGB" id="a">
      <feFlood flood-opacity=".804" flood-color="#2A1D04" result="flood"/>
      <feComposite in="flood" in2="SourceGraphic" operator="in" result="composite1"/>
      <feGaussianBlur in="composite1" stdDeviation="2" result="blur"/>
      <feOffset dy="2.3" result="offset"/>
      <feComposite in="SourceGraphic" in2="offset" result="composite2"/>
    </filter>
  </defs>
  <g transform="translate(47.912 23.807)">
    <circle style="fill:#002080;fill-opacity:1;fill-rule:evenodd;stroke:#071719;stroke-width:8.765;stroke-miterlimit:4;stroke-dasharray:none;stroke-opacity:1" cx="107.981" cy="132.085" r="151.51"/>
    <path style="fill:#000;stroke-width:.264583;filter:url(#a)" d="M85.844 272.333c-7.015-7.8-21.378-37.084-35.468-72.31-8.123-20.31-15.346-41.351-14.738-42.935.079-.206 2.273-1.992 4.876-3.968 7.275-5.526 10.652-9.182 13.262-14.359 1.383-2.742 2.343-5.693 2.892-8.892l.439-2.554 1.36 4.141c.748 2.278 1.81 5.273 2.36 6.655 1.392 3.505 4.574 9.718 6.477 12.649.88 1.354 1.599 2.5 1.599 2.545 0 .045-.496.149-1.102.23-2.025.272-3.593 2.043-4.382 4.949-.38 1.398-.466 2.785-.46 7.408.002 3.129.156 7.177.34 8.996 2.682 26.567 4.24 36.443 8.404 53.257 3.563 14.392 9.706 32.55 14.51 42.894.67 1.44 1.17 2.667 1.114 2.724-.058.057-.725-.586-1.483-1.43zm39.481 1.245c.086-.219.77-1.757 1.522-3.42 5.35-11.834 10.9-28.44 14.568-43.586 3.98-16.436 6.187-30.878 8.077-52.874.571-6.649.415-13.556-.36-15.95-.891-2.747-2.124-3.995-4.345-4.397l-.976-.177 1.593-2.438c1.908-2.921 5.889-10.927 7.264-14.61a135.457 135.457 0 0 0 1.977-5.82c.956-3.066.995-3.139 1.154-2.117.371 2.396 1.454 6.48 2.232 8.42 2.44 6.089 6.247 10.464 14.432 16.588 4.517 3.379 4.769 3.653 4.54 4.941-.928 5.232-6.832 22.165-14.097 40.43-11.722 29.474-24.06 55.762-32.038 68.263-2.048 3.208-6.083 8.12-5.543 6.747zm-108.267-93.32c-4.489-12.642-9.76-35.908-11.768-51.937-.77-6.145-1.249-13.629-1.027-16.043l.15-1.623 1.619-.181c8.208-.918 20.52-4.97 29.533-9.722 7.447-3.926 13.917-8.719 17.273-12.798.754-.916 1.41-1.628 1.457-1.58.047.046-.107 1.675-.341 3.62-.522 4.326-.796 14.602-.474 17.764.209 2.056.189 2.303-.174 2.143-.226-.099-1.564-.235-2.973-.302-2.202-.106-2.899-.026-4.96.565-7.325 2.101-14.269 7.859-19.357 16.051-6.755 10.874-9.983 26.537-9.008 43.71.184 3.239.552 7.556.819 9.593.267 2.038.452 3.74.412 3.783-.04.043-.571-1.326-1.181-3.043zm177.536 1.702c1.231-6.613 1.609-22.83.69-29.694-2.355-17.615-8.954-30.58-19.357-38.032-2.247-1.61-6.523-3.7-8.864-4.333-1.981-.536-6.458-.652-7.276-.188-.524.297-.53.222-.54-8.207-.01-6.538-.118-9.296-.47-11.917-.253-1.875-.415-3.455-.36-3.51.056-.055.43.374.831.954.402.58 1.759 2.043 3.016 3.252 9.608 9.245 27.743 17.567 43.409 19.922 1.372.207 2.59.527 2.708.712.478.753.107 8.892-.72 15.815-1.823 15.251-6.632 37.212-11.14 50.865-1.687 5.113-2.344 6.598-1.927 4.36zm-93.086-27.576c-10.332-1.873-19.534-9.137-25.947-20.482-8.97-15.868-10.893-37.924-4.92-56.402 3.877-11.991 10.335-21.24 18.876-27.033 4.756-3.225 9.83-4.922 15.41-5.154 5.482-.228 9.59.64 14.379 3.036 12.997 6.504 22.363 21.713 25.297 41.079.696 4.595.844 14.772.278 19.182-2.841 22.153-14.01 39.216-29.147 44.525-4.41 1.546-9.916 2.03-14.226 1.249zm10.216-27.551c4.802-.848 10.69-3.294 15.387-6.391 3.189-2.104 7.343-6.315 8.443-8.56.472-.965.925-2.244 1.005-2.843.695-5.176-7.657-13.048-18.136-17.095-4.51-1.742-7.606-2.354-11.95-2.364-5.575-.012-9.485 1.005-15.742 4.096-4.404 2.175-7.916 4.623-10.832 7.55-3.437 3.451-4.613 5.92-3.988 8.38 1.213 4.777 9.754 11.811 18.524 15.255 6.32 2.48 11.23 3.04 17.29 1.972zm-8.488-11.083c-3.097-1.137-5.154-3.641-5.777-7.034-.692-3.761 1.249-7.494 4.913-9.451 1.169-.624 1.617-.706 3.837-.704 2.083.002 2.724.107 3.74.61 1.978.977 3.304 2.293 4.252 4.22.783 1.591.87 1.997.86 4.024-.01 1.945-.117 2.465-.783 3.8-.96 1.924-2.867 3.675-4.785 4.392-1.705.638-4.722.707-6.257.143zm-116.09-29.63c0-.509.104-.926.23-.926.128 0 .312-.625.41-1.389.313-2.43 1.48-7.284 2.582-10.741 4.245-13.32 11.978-27.741 22.65-42.241 4.386-5.96 12.12-15.217 12.711-15.213.098 0 .703 1.027 1.343 2.28 8.011 15.686 20.224 26.406 32.527 28.551 2.71.473 6.909.486 9.502.031 1.055-.185 1.918-.305 1.918-.265 0 .039-.84 1.169-1.865 2.51-4.499 5.886-8.29 13.383-10.955 21.66l-1.106 3.434c-.071.22-.63-.667-1.273-2.022-4.191-8.82-12.554-15.746-22.062-18.272-2.196-.583-3.12-.68-6.527-.687-2.769-.005-4.547.126-5.88.431C9.037 56.081-1.11 65.615-10.34 83.04c-1.164 2.197-2.206 3.998-2.315 4.001-.11.003-.199-.41-.199-.92zm235.48-4.061c-4.484-8.332-8.501-13.845-13.821-18.973-7.505-7.233-14.632-10.435-23.227-10.435-7.975 0-15.522 3.359-21.977 9.78-3.092 3.077-5.03 5.763-6.71 9.297l-1.109 2.334-.988-3.115c-2.741-8.646-6.481-16.11-11.208-22.367-1.857-2.46-1.93-2.606-1.221-2.453 7.38 1.59 15.483.017 22.478-4.366 7.99-5.006 15.744-13.881 20.476-23.436.8-1.616 1.528-2.948 1.617-2.96.264-.034 5.174 5.584 8.366 9.573 15.687 19.605 26.718 41.302 29.58 58.181.238 1.405.393 2.792.345 3.082-.057.341-.974-1.12-2.601-4.142zM79.823 37.569c.537-2.33.777-6.315.642-10.666-.161-5.219-.466-7.05-1.927-11.584-1.01-3.133-1.04-3.286-.573-2.892.181.153 1.783 1.23 3.559 2.392 3.528 2.309 7.308 5.797 9.458 8.727 1.307 1.783 4.736 7.411 4.593 7.54-.045.04-1.094.333-2.33.65-3.32.854-7.234 2.46-10.066 4.133-1.376.812-2.729 1.676-3.005 1.92-.48.422-.496.412-.35-.22zm52.29-.226c-2.489-1.95-8.8-4.824-12.543-5.712-1.018-.241-2-.489-2.183-.55-.362-.12 1.399-3.29 3.744-6.74 2.142-3.152 6.399-7.232 10.081-9.665 1.746-1.153 3.258-2.215 3.359-2.36.101-.145.26-.188.352-.096.092.092-.25 1.458-.759 3.035-1.356 4.202-1.794 6.84-1.946 11.731-.1 3.157-.021 5.241.281 7.526.23 1.738.38 3.198.333 3.245-.046.046-.37-.14-.72-.414z"/>
  </g>
</svg>
