<?xml version="1.0" encoding="UTF-8" standalone="no"?>
<svg
   xmlns:dc="http://purl.org/dc/elements/1.1/"
   xmlns:cc="http://creativecommons.org/ns#"
   xmlns:rdf="http://www.w3.org/1999/02/22-rdf-syntax-ns#"
   xmlns:svg="http://www.w3.org/2000/svg"
   xmlns="http://www.w3.org/2000/svg"
   xmlns:sodipodi="http://sodipodi.sourceforge.net/DTD/sodipodi-0.dtd"
   xmlns:inkscape="http://www.inkscape.org/namespaces/inkscape"
   viewBox="0 0 118.39274 118.39274"
   version="1.1"
   id="svg5256"
   sodipodi:docname="The Simic Combine.svg"
   width="100%"
   height="100%"
   inkscape:version="1.0.1 (0767f8302a, 2020-10-17)">
  <metadata
     id="metadata5262">
    <rdf:RDF>
      <cc:Work
         rdf:about="">
        <dc:format>image/svg+xml</dc:format>
        <dc:type
           rdf:resource="http://purl.org/dc/dcmitype/StillImage" />
        <dc:title></dc:title>
      </cc:Work>
    </rdf:RDF>
  </metadata>
  <defs
     id="defs5260">
    <filter
       style="color-interpolation-filters:sRGB"
       inkscape:label="Drop Shadow"
       id="filter5853">
      <feFlood
         flood-opacity="0.803922"
         flood-color="rgb(42,29,4)"
         result="flood"
         id="feFlood5843" />
      <feComposite
         in="flood"
         in2="SourceGraphic"
         operator="in"
         result="composite1"
         id="feComposite5845" />
      <feGaussianBlur
         in="composite1"
         stdDeviation="2"
         result="blur"
         id="feGaussianBlur5847" />
      <feOffset
         dx="0"
         dy="2.3"
         result="offset"
         id="feOffset5849" />
      <feComposite
         in="SourceGraphic"
         in2="offset"
         operator="over"
         result="composite2"
         id="feComposite5851" />
    </filter>
  </defs>
  <sodipodi:namedview
     pagecolor="#ffffff"
     bordercolor="#666666"
     borderopacity="1"
     objecttolerance="10"
     gridtolerance="10"
     guidetolerance="10"
     inkscape:pageopacity="0"
     inkscape:pageshadow="2"
     inkscape:window-width="1940"
     inkscape:window-height="965"
     id="namedview5258"
     showgrid="false"
     fit-margin-top="0"
     fit-margin-left="0"
     fit-margin-right="0"
     fit-margin-bottom="0"
     inkscape:zoom="2.7075311"
     inkscape:cx="-9.5751046"
     inkscape:cy="88.909345"
     inkscape:window-x="1121"
     inkscape:window-y="236"
     inkscape:window-maximized="0"
     inkscape:current-layer="svg5256"
     inkscape:document-rotation="0" />
  <circle
     style="fill:#00ffc0;fill-opacity:1;fill-rule:evenodd;stroke:#1e0b14;stroke-width:3.7;stroke-miterlimit:4;stroke-dasharray:none;stroke-opacity:1"
     id="path5841"
     cx="59.196369"
     cy="59.196369"
     r="57.346371" />
  <path
     style="fill:#000000;stroke-width:0.102533;filter:url(#filter5853)"
     d="m 54.944085,110.5267 c -6.27423,-4.30016 -12.31714,-10.51648 -14.43574,-14.849973 -0.22558,-0.4614 -0.4397,-0.84205 -0.47582,-0.8459 -0.12725,-0.014 -0.16454,0.77132 -0.0759,1.5955 0.35654,3.313987 3.23263,9.897053 5.7835,13.237843 0.19704,0.25806 0.34002,0.48741 0.31776,0.50968 -0.0548,0.0548 -2.29771,-0.51005 -3.7688,-0.94896 -2.94338,-0.87819 -5.91685,-2.1657 -8.93427,-3.86852 l -1.10407,-0.62304 -0.82405,-1.51559 c -2.80746,-5.163336 -5.55042,-11.941554 -6.61251,-16.340363 -0.57482,-2.380655 -0.95439,-5.382469 -0.80586,-6.37296 0.0935,-0.622864 -0.0707,-0.56224 -0.46116,0.170404 -0.66976,1.256581 -1.09806,2.961389 -1.35227,5.382469 -0.14197,1.352182 -0.15267,6.594378 -0.0176,8.587127 0.045,0.6626 0.0548,1.20475 0.0218,1.20475 -0.033,0 -0.38485,-0.44986 -0.78196,-0.99969 -3.644139,-5.045577 -5.466279,-10.092686 -5.639969,-15.62205 -0.20928,-6.66193 1.58318,-12.499611 5.389099,-17.551204 2.00346,-2.65919 4.47232,-5.053241 9.75523,-9.459635 2.55836,-2.133898 5.00437,-4.522305 5.98026,-5.83944 0.84374,-1.13877 1.63851,-2.707551 1.92199,-3.793713 0.27368,-1.048671 0.37072,-2.801392 0.20267,-3.660704 -0.50664,-2.590632 -2.68684,-5.433888 -5.73441,-7.478344 -1.34267,-0.900743 -2.01614,-1.240084 -3.34082,-1.683352 -2.41158,-0.806957 -4.84107,-0.469655 -7.2742,1.009922 -2.34365,1.425169 -4.15402,3.642194 -4.63265,5.673269 -0.410469,1.741783 0.18408,4.550913 1.32707,6.270207 0.90767,1.365341 2.2031,2.357467 3.79427,2.905919 1.71867,0.592412 3.38299,0.604565 5.17709,0.03786 1.79415,-0.566765 3.28733,-2.026087 3.81279,-3.726342 0.22438,-0.726008 0.27047,-2.205529 0.0928,-2.976517 -0.49373,-2.141581 -2.50973,-3.484041 -5.06923,-3.375616 -0.77002,0.03269 -1.03654,0.09233 -1.60983,0.360797 -0.84298,0.394727 -1.5453,1.07679 -1.91009,1.855055 -0.23314,0.497369 -0.27379,0.72105 -0.27379,1.506872 0,0.842186 0.0278,0.972053 0.31773,1.486715 0.37628,0.667843 1.10931,1.264627 1.83546,1.4943 0.28197,0.08912 0.58188,0.187488 0.66646,0.218456 0.28418,0.104067 -0.85752,0.338531 -1.67783,0.34458 -1.30338,0.0098 -2.16328,-0.528072 -2.77498,-1.735204 -1.06201,-2.095792 -0.7851,-5.058843 0.6403,-6.851388 1.61151,-2.026577 5.31134,-2.777827 8.24786,-1.67472 0.9928,0.37295 1.52943,0.724221 2.34178,1.532896 0.62333,0.620503 0.87507,0.970097 1.25989,1.749522 0.6892,1.395904 0.92592,2.606318 0.84216,4.306363 -0.29707,6.029387 -3.63432,9.225506 -9.63501,9.227531 -2.74349,9.22e-4 -5.07794,-0.634834 -6.98919,-1.903456 -1.305969,-0.866855 -2.704619,-2.672796 -3.442259,-4.444696 -0.33396,-0.802235 -0.80904,-2.530832 -0.80904,-2.943788 0,-0.13382 -0.0461,-0.243181 -0.10253,-0.243181 -0.0649,0 -0.10253,-0.751907 -0.10253,-2.050659 0,-1.298752 0.0376,-2.050659 0.10253,-2.050659 0.0564,0 0.10253,-0.13354 0.10253,-0.296653 0,-0.490887 0.56987,-2.568882 0.94839,-3.458213 1.71499,-4.029434 5.624139,-6.634412 10.842869,-7.225441 1.48011,-0.167624 3.9838,-0.05406 6.0238,0.273213 l 0.43575,0.06984 8.3e-4,-0.44887 c 10e-4,-1.220863 0.47637,-2.888109 1.1485,-4.037508 0.5761,-0.98517 1.95967,-2.334447 2.98754,-2.913519 1.54206,-0.868768 3.71774,-1.444124 5.46081,-1.444124 h 0.85554 l -0.0743,-0.333237 c -0.0409,-0.183269 -0.0719,-0.771546 -0.069,-1.307287 0.006,-1.027048 0.1559,-1.645204 0.63543,-2.614589 0.81886,-1.655303 2.51478,-2.9236733 4.55488,-3.4065573 0.41317,-0.09778 0.76658,-0.213357 0.78538,-0.256842 0.044,-0.101971 3.68008,-0.104067 3.72535,-0.0028 0.0189,0.04233 0.38023,0.163071 0.80317,0.268395 1.60549,0.399797 3.15977,1.303166 4.48821,2.6085963 0.69616,0.684088 2.09966,2.383253 2.37508,2.875397 0.0759,0.135636 0.27189,-0.0098 1.10667,-0.81957 1.87731,-1.82167 3.88022,-3.07508 5.93371,-3.7132823 2.17645,-0.676433 4.8467,-0.754588 7.11553,-0.208273 0.85431,0.205703 2.37988,0.9430123 2.97345,1.4370713 2.42783,2.020793 3.06362,5.480264 1.57101,8.548289 -0.93254,1.916811 -2.85585,3.383984 -4.90332,3.740423 -2.2146,0.38555 -4.52152,-0.65224 -5.3117,-2.389483 -0.27921,-0.613854 -0.29019,-1.600797 -0.0264,-2.376255 0.24436,-0.718451 1.34403,-1.838418 2.30814,-2.350762 l 0.66119,-0.351368 -0.55866,0.56006 c -0.6548,0.656459 -1.10409,1.516538 -1.25626,2.404891 -0.14065,0.821135 0.0668,1.421691 0.66883,1.937093 0.60725,0.519775 1.25753,0.704874 2.28671,0.650857 1.46308,-0.07683 2.61741,-0.832115 3.28736,-2.151038 0.37779,-0.743762 0.47238,-1.319915 0.34628,-2.109299 -0.34711,-2.172759 -2.13384,-3.450935 -4.81499,-3.444496 -1.70206,0.0042 -3.11368,0.489966 -4.52109,1.556167 -3.00299,2.274926 -5.32842,7.295774 -5.59612,12.082535 -0.0556,0.993704 0.0731,2.550919 0.23269,2.815849 0.0216,0.03604 1.32029,-0.415931 2.88572,-1.004432 3.27264,-1.23032 6.88002,-2.475935 8.25655,-2.850939 0.89653,-0.244242 3.01762,-0.521325 5.91954,-0.773306 0.70492,-0.06118 3.0119,-0.153739 5.12663,-0.205619 3.99309,-0.09806 5.19295,-0.189653 6.66463,-0.509172 2.2962,-0.498543 3.31034,-1.268147 3.31034,-2.512142 0,-1.669607 -1.99041,-3.291609 -4.96109,-4.042831 -1.9103,-0.483079 -3.94242,-0.06845 -4.30217,0.877708 -0.20406,0.536719 0.54182,1.326564 1.85162,1.960812 l 0.76899,0.372364 -0.41014,0.12488 c -0.99683,0.303595 -2.2477,0.09066 -3.04531,-0.518336 -0.90611,-0.691869 -1.59433,-2.186057 -1.46747,-3.185978 0.13145,-1.03582 0.77722,-1.716947 2.018,-2.128436 0.95746,-0.317536 3.68084,-0.309015 5.20928,0.01634 2.93659,0.625001 5.18199,2.043409 6.53936,4.130889 1.85425,2.851609 1.36212,5.235351 -1.35082,6.543072 -1.43304,0.690765 -3.30217,1.093105 -5.56754,1.198415 l -1.35569,0.063 0.20808,0.266285 c 0.50357,0.644431 1.32639,1.95725 1.56524,2.497349 0.14317,0.32371 0.30318,0.588584 0.35559,0.588584 0.0524,0 0.28355,-0.06649 0.51367,-0.147621 0.23011,-0.08116 0.94361,-0.265419 1.58557,-0.409394 3.18106,-0.71345 6.40868,-0.447654 8.782085,0.723215 0.79539,0.392394 1.12734,0.635421 1.85825,1.360522 0.72725,0.721454 0.96645,1.042078 1.30884,1.754327 1.81052,3.766334 0.86807,8.742454 -2.10454,11.111837 l -0.62693,0.499701 0.57965,0.485161 c 2.09802,1.755975 3.63501,4.447126 4.32705,7.576279 0.27468,1.242025 0.26979,3.035506 -0.0112,4.148783 -0.74768,2.961137 -3.28479,5.740123 -6.02241,6.596585 -0.684935,0.214279 -0.981645,0.255697 -1.521495,0.212366 -1.71594,-0.137731 -3.80272,-1.889125 -4.4724,-3.753553 -0.40834,-1.136842 -0.17765,-2.949669 0.49973,-3.927128 0.62927,-0.908034 1.71086,-1.367269 3.2178,-1.366249 0.53573,4.05e-4 1.15717,0.03897 1.38096,0.08577 l 0.40691,0.08507 -0.7145,0.279471 c -1.2396,0.484867 -2.20204,1.214619 -2.68195,2.033519 -0.22683,0.387073 -0.2567,0.534652 -0.21076,1.041324 0.0678,0.747492 0.36077,1.323505 0.91416,1.797183 1.09682,0.938821 2.54129,0.871506 4.025505,-0.1876 2.28886,-1.633302 3.0856,-4.992379 1.77514,-7.484099 -0.44654,-0.849073 -1.75914,-2.134052 -2.799025,-2.740167 -1.03352,-0.6024 -2.4353,-1.15623 -3.45067,-1.363302 -1.33569,-0.272417 -3.48893,-0.184819 -5.09546,0.207295 -0.78701,0.192084 -1.99006,0.750189 -2.3898,1.108653 -0.27217,0.244047 -0.27914,0.280226 -0.33091,1.718693 -0.17282,4.802839 -1.68544,8.487247 -4.72813,11.516733 -1.22818,1.222846 -2.33089,2.03127 -3.76009,2.756636 -3.43335,1.742523 -7.10216,1.996586 -9.76888,0.676475 -3.08442,-1.526889 -5.18193,-5.332182 -4.9392,-8.960673 0.23732,-3.547403 2.60954,-5.547747 6.83607,-5.764401 1.0897,-0.05588 2.62874,0.0697 2.89851,0.236378 0.0601,0.03716 -0.39453,0.194542 -1.01017,0.349846 -2.73533,0.690011 -4.2934,1.721333 -5.03299,3.331433 -0.2404,0.523351 -0.28533,0.774536 -0.3227,1.803706 -0.0521,1.436554 0.13228,2.41147 0.6534,3.453017 0.82009,1.639253 2.63037,2.717831 4.557,2.715079 3.47663,-0.0056 7.85106,-3.614969 9.32864,-7.698463 0.95287,-2.633404 0.76242,-5.088205 -0.61045,-7.867917 -0.70958,-1.436763 -1.33169,-2.292387 -2.41469,-3.321138 -3.62552,-3.443882 -9.73295,-4.324649 -15.76928,-2.27413 -3.75296,1.27488 -7.23882,3.467698 -10.71166,6.738284 -7.85296,7.395622 -12.82102,18.580347 -11.76754,26.492559 0.66316,4.980702 2.94242,10.241099 6.17067,14.241506 2.3325,2.890416 5.48713,5.398756 8.95948,7.123946 4.13,2.051927 8.28509,3.103263 13.66237,3.456923 8.23963,0.5419 15.07478,-1.344006 20.09287,-5.543893 2.16805,-1.81456 4.0557,-4.297096 4.98239,-6.552592 0.39625,-0.964426 0.47455,-1.810663 0.24326,-2.629451 -0.18636,-0.659741 -0.75251,-1.505168 -1.23326,-1.841589 -0.37655,-0.26352 -0.53517,-0.309952 -1.02788,-0.30097 -0.69353,0.01257 -1.45472,0.320903 -1.94893,0.789259 -0.23418,0.22192 -0.3113,0.260278 -0.23851,0.118594 0.15167,-0.295172 1.05294,-1.120135 1.44552,-1.323156 0.96124,-0.497075 2.08901,-0.251226 2.98991,0.651765 1.08115,1.083663 1.45628,2.390489 1.23496,4.302159 -0.29438,2.542538 -1.27065,4.287441 -4.13797,7.395791 -4.35684,4.723033 -7.82094,7.469523 -12.27768,9.734253 -6.23069,3.1662 -13.58904,4.80236 -22.86478,5.08412 l -2.10192,0.0638 z m 34.0622,-65.313479 c 1.993,-0.475033 1.86224,-0.395118 1.48522,-0.907769 -0.45895,-0.624093 -0.79078,-1.517879 -0.93575,-2.520495 -0.23477,-1.623804 0.17022,-2.788597 1.40017,-4.027032 0.89788,-0.904068 1.96448,-1.480248 2.74021,-1.480248 1.11284,0 2.81675,0.663722 3.70012,1.441289 0.26841,0.236266 0.47007,0.447515 0.44814,0.469446 -0.0219,0.02193 -0.26617,-0.06272 -0.54275,-0.188242 -0.7722,-0.350293 -2.14203,-0.332525 -2.93254,0.03799 -0.71177,0.333628 -1.39205,0.993733 -1.72828,1.677011 -0.20284,0.412216 -0.25096,0.667242 -0.25096,1.330252 0,0.712975 0.0436,0.91242 0.33372,1.524919 0.18355,0.387575 0.49802,0.92847 0.6988,1.201991 l 0.36506,0.497313 1.762,0.0012 c 0.96909,6.14e-4 1.93788,0.04386 2.15288,0.09596 0.3698,0.08968 0.42511,0.06859 1.02533,-0.390858 1.346135,-1.030428 2.373875,-2.602324 2.699735,-4.129241 0.28622,-1.341133 0.068,-3.112502 -0.52807,-4.286752 -0.85005,-1.674566 -2.721405,-2.54399 -5.228405,-2.429112 -2.36141,0.108257 -5.46412,1.463443 -6.32751,2.763802 -0.84611,1.274335 -2.52172,2.953916 -4.14713,4.156941 -0.9079,0.671977 -0.89794,0.755608 0.30321,2.546142 0.52436,0.781645 1.13571,1.779959 1.35857,2.218464 0.26673,0.524859 0.45773,0.787359 0.55897,0.768236 0.0846,-0.01593 0.79976,-0.183032 1.58926,-0.371204 z m -7.83077,-8.387622 c 1.63982,-0.56833 3.34879,-2.140729 4.21724,-3.880235 0.35594,-0.71292 0.42143,-1.107326 0.28106,-1.692432 -0.42194,-1.758867 -3.4851,-2.859306 -5.04081,-1.810914 -1.01373,0.683166 -1.1787,2.054151 -0.38584,3.206525 0.34663,0.503823 0.33704,0.511408 -0.37795,0.299084 -1.54334,-0.458313 -2.19673,-1.540425 -1.88963,-3.129502 0.049,-0.253769 0.0696,-0.481194 0.0455,-0.505387 -0.10686,-0.107699 -8.21843,3.557349 -11.0177,4.978034 -1.15914,0.588277 -2.28261,1.213934 -2.4966,1.390317 -0.63385,0.52247 -0.33153,0.548997 1.9118,0.16768 1.76525,-0.300062 2.18113,-0.335207 3.92271,-0.331575 2.46726,0.0056 2.8686,0.07557 7.89502,1.384311 0.90182,0.234813 2.13028,0.203034 2.93516,-0.07585 z m -33.79619,-0.03674 c 0.47659,-0.526619 2.6382,-1.745862 5.12534,-2.890903 l 1.74305,-0.802473 -0.0263,-0.895337 c -0.0145,-0.492438 -0.0719,-2.00269 -0.12781,-3.35613 -0.0559,-1.353425 -0.10072,-2.945255 -0.0996,-3.537373 l 10e-4,-1.076595 1.29806,-2.306984 1.29809,-2.306984 10e-4,-1.076594 c 0.003,-1.591005 -0.38524,-2.698722 -1.43141,-4.09045 -0.96865,-1.288569 -2.98944,-2.576733 -4.6067,-2.936539 -1.5809,-0.351717 -3.06582,-0.108816 -4.0369,0.660258 -0.9717,0.769605 -1.47205,2.62114 -1.13412,4.196863 0.10128,0.472282 0.13927,0.517778 0.56798,0.681533 0.72801,0.278018 2.18437,1.292033 2.92449,2.036201 0.37334,0.375394 0.72427,0.682524 0.77987,0.682524 0.19365,0 1.03421,-0.713786 1.2481,-1.05986 0.43852,-0.709554 0.20035,-1.635314 -0.60877,-2.366309 -0.40918,-0.369682 -1.3389,-0.87708 -1.61098,-0.879203 -0.0705,-5.03e-4 -0.12823,-0.05336 -0.12823,-0.117198 0,-0.145092 1.81223,-0.05881 2.38669,0.113705 0.45039,0.135217 1.04539,0.625965 1.25845,1.037971 0.44725,0.864885 0.39722,2.142866 -0.12725,3.251561 -0.25918,0.547866 -0.97084,1.383724 -1.25326,1.471992 -0.11007,0.03436 -0.008,0.327328 0.42518,1.218837 1.19448,2.458768 1.53926,4.313879 1.16453,6.265514 -0.39141,2.038436 -1.40207,3.641734 -2.92086,4.633594 -0.895,0.584478 -1.56292,0.853892 -2.48265,1.001359 -0.41678,0.06677 -0.76972,0.130328 -0.78429,0.140944 -0.0145,0.01118 0.10533,0.339146 0.26649,0.72992 0.16114,0.390774 0.35481,0.951742 0.43038,1.246607 0.0756,0.294865 0.16767,0.536118 0.20466,0.536118 0.037,0 0.15135,-0.09289 0.25415,-0.206513 z m -0.45012,-4.716847 c 0.59088,-0.164132 1.26892,-0.839225 1.67835,-1.671074 1.33501,-2.712355 0.61099,-5.953942 -1.896,-8.488657 -1.43942,-1.455356 -2.63205,-2.039875 -4.16204,-2.039875 -1.34654,0 -2.47177,0.488024 -3.40818,1.478138 -1.29434,1.368568 -1.66702,3.473732 -0.92169,5.206282 0.18396,0.427665 0.30077,0.5369 0.96224,0.899947 0.41408,0.227256 0.77297,0.413179 0.79755,0.413179 0.0246,0 0.0767,-0.170474 0.1158,-0.37883 0.17305,-0.92252 1.0971,-2.152952 2.10029,-2.796699 0.26607,-0.170739 0.79266,-0.386653 1.17019,-0.479824 1.24974,-0.308401 2.92964,0.106441 3.58493,0.885126 0.42108,0.500428 0.57725,1.30047 0.38066,1.949972 l -0.0775,0.256325 -0.074,-0.269609 c -0.0407,-0.148306 -0.23456,-0.425137 -0.43081,-0.615209 -0.33435,-0.323808 -0.40002,-0.345278 -1.04294,-0.341045 -0.93008,0.0056 -1.67285,0.378844 -2.48491,1.246942 -1.24017,1.32574 -1.19175,2.582586 0.14001,3.63528 1.25087,0.98876 2.54948,1.392594 3.56819,1.109631 z"
     id="path5839" />
</svg>
