<?xml version="1.0"?>
<svg xmlns="http://www.w3.org/2000/svg" viewBox="0 0 255.129 255.129">
  <defs>
    <filter style="color-interpolation-filters:sRGB" id="a">
      <feFlood flood-opacity=".804" flood-color="#483107" result="flood"/>
      <feComposite in="flood" in2="SourceGraphic" operator="in" result="composite1"/>
      <feGaussianBlur in="composite1" stdDeviation="2" result="blur"/>
      <feOffset dy="2.3" result="offset"/>
      <feComposite in="SourceGraphic" in2="offset" result="composite2"/>
    </filter>
  </defs>
  <g transform="translate(20.374 -2.182)">
    <circle style="fill:#a0a0a0;fill-opacity:1;fill-rule:evenodd;stroke:#3b3509;stroke-width:6.45911;stroke-miterlimit:4;stroke-dasharray:none;stroke-opacity:1" cx="107.19" cy="129.747" r="124.335"/>
    <path style="fill:#000;stroke-width:.264583;filter:url(#a)" d="M106.115 247.494c-.099-.509-1.793-14.97-3.766-32.137-1.972-17.167-3.633-31.259-3.69-31.316-.08-.081-4.782 3.618-7.556 5.946-.36.302-.633-.197-2.225-4.08a854.35 854.35 0 0 0-2.287-5.538l-.472-1.113-5.203 2.526c-2.861 1.39-5.291 2.426-5.4 2.303-.108-.123-.53-2.157-.937-4.521-.518-3.005-.828-4.23-1.031-4.07-.746.588-34.58 28.03-35.733 28.982-.72.595-1.211.92-1.09.72.122-.199 6.46-9.902 14.086-21.563l13.864-21.202-4.043-.203c-2.224-.111-4.949-.29-6.055-.397l-2.012-.194 2.458-5.556 2.457-5.556-5.605-1.886c-3.51-1.18-5.578-2.004-5.532-2.204.04-.176 1.57-2.104 3.4-4.285 1.829-2.18 3.275-4.015 3.213-4.077-.062-.062-14.689-1.902-32.504-4.09-17.815-2.186-32.51-4.023-32.655-4.081-.146-.058-.086-.114.132-.124 1.323-.064 62.97-7.214 63.552-7.371.708-.191.69-.222-2.476-4.111-1.753-2.156-3.146-3.952-3.094-3.991.052-.04 2.505-1.06 5.452-2.27 2.947-1.208 5.358-2.282 5.358-2.386 0-.104-1.123-2.499-2.495-5.321l-2.494-5.133.973-.17c.535-.092 2.844-.38 5.13-.64 2.288-.258 4.293-.553 4.457-.654.188-.116-4.265-6.415-12.05-17.044-6.792-9.273-12.31-16.897-12.261-16.943.047-.045 8.061 5.441 17.809 12.192C70.457 86.094 73.54 88.13 73.684 87.745c.095-.256.26-2.8.367-5.655.107-2.854.28-5.328.386-5.499.133-.216 1.82.41 5.587 2.076 2.968 1.312 5.475 2.3 5.571 2.196.096-.103.963-2.51 1.928-5.348.965-2.837 1.809-5.313 1.876-5.5.076-.214 1.671.953 4.248 3.108 2.27 1.898 4.236 3.45 4.37 3.45.134 0 .24-.148.237-.33-.013-.765 7.742-63.872 7.901-64.296.096-.255 1.83 13.973 3.854 31.618 2.024 17.645 3.718 32.13 3.766 32.188.048.058 1.86-1.332 4.026-3.09 3.727-3.026 3.952-3.166 4.2-2.62.143.318 1.18 2.8 2.304 5.516l2.042 4.94 4.676-2.254c2.572-1.239 4.944-2.38 5.272-2.534.328-.155.639-.233.69-.173.052.06.477 2.61.945 5.666.467 3.056.93 5.746 1.029 5.978.143.336 3.431-1.725 16.156-10.129 8.787-5.803 16.014-10.513 16.06-10.468.045.045-4.793 6.916-10.752 15.268-5.958 8.352-10.834 15.283-10.834 15.404 0 .12.506.22 1.125.223 1.431.005 9.01.518 9.109.616.04.04-.996 2.493-2.302 5.449-1.306 2.957-2.375 5.47-2.375 5.584 0 .115 2.41 1.008 5.357 1.984s5.465 1.872 5.596 1.992c.133.123-1.29 2.031-3.254 4.365-1.92 2.28-3.448 4.19-3.396 4.241.053.053 14.673 1.885 32.49 4.073 17.817 2.189 32.514 4.027 32.66 4.086.145.06.09.117-.122.129-.715.038-62.576 7.165-63.434 7.308l-.85.141 3.165 3.883c1.74 2.136 3.165 3.95 3.165 4.034 0 .083-2.441 1.149-5.424 2.369-2.983 1.22-5.424 2.254-5.424 2.3 0 .045 1.131 2.425 2.514 5.29 1.383 2.865 2.477 5.246 2.43 5.293-.045.046-2.874.573-6.284 1.171-3.41.598-6.247 1.133-6.304 1.189-.076.075 18.434 31.274 21.103 35.57.4.643.396.65-.108.24-1.174-.953-28.601-23.628-29.03-24-.255-.221-.511-.354-.569-.294-.057.06-.363 2.072-.68 4.472-.315 2.4-.624 4.413-.685 4.474-.061.061-2.571-.98-5.578-2.315s-5.535-2.359-5.618-2.276c-.083.083-.99 2.647-2.017 5.698l-1.865 5.547-4.273-3.569c-4.168-3.48-4.277-3.55-4.417-2.85-.08.394-1.875 14.886-3.991 32.203-4.489 36.742-3.963 32.773-4.188 31.617zm8.766-70.1c15.077-2.797 28.04-12.636 34.704-26.34 6.519-13.404 6.57-28.723.14-42.069-11.61-24.097-40.43-34.138-64.562-22.495-14.734 7.11-24.985 21.517-26.875 37.77-.485 4.172-.177 11.483.646 15.324 4.35 20.302 20.38 35.26 40.914 38.177 3.867.55 11.033.374 15.033-.368zm-11.197-4.417c-12.796-.889-24.102-6.968-31.915-17.16-7.498-9.783-10.41-23.278-7.62-35.323 2.023-8.737 5.898-15.53 12.451-21.828 14.128-13.577 35.698-15.78 52.484-5.359 10.147 6.3 17.388 16.971 19.615 28.907.75 4.022.694 11.934-.112 15.935-3.983 19.76-20.586 33.966-40.67 34.8-1.6.066-3.505.079-4.233.028z"/>
  </g>
</svg>
