<?xml version="1.0" encoding="UTF-8" standalone="no"?>
<svg
   xmlns:dc="http://purl.org/dc/elements/1.1/"
   xmlns:cc="http://creativecommons.org/ns#"
   xmlns:rdf="http://www.w3.org/1999/02/22-rdf-syntax-ns#"
   xmlns:svg="http://www.w3.org/2000/svg"
   xmlns="http://www.w3.org/2000/svg"
   xmlns:sodipodi="http://sodipodi.sourceforge.net/DTD/sodipodi-0.dtd"
   xmlns:inkscape="http://www.inkscape.org/namespaces/inkscape"
   width="100%"
   height="100%"
   viewBox="0 0 241.22498 241.22498"
   version="1.1"
   id="svg8"
   inkscape:version="1.0.1 (0767f8302a, 2020-10-17)"
   sodipodi:docname="Selesnya Conclave.svg">
  <metadata
     id="metadata4030">
    <rdf:RDF>
      <cc:Work
         rdf:about="">
        <dc:format>image/svg+xml</dc:format>
        <dc:type
           rdf:resource="http://purl.org/dc/dcmitype/StillImage" />
        <dc:title></dc:title>
      </cc:Work>
    </rdf:RDF>
  </metadata>
  <sodipodi:namedview
     pagecolor="#ffffff"
     bordercolor="#666666"
     borderopacity="1"
     objecttolerance="10"
     gridtolerance="10"
     guidetolerance="10"
     inkscape:pageopacity="0"
     inkscape:pageshadow="2"
     inkscape:window-width="1606"
     inkscape:window-height="880"
     id="namedview4028"
     showgrid="false"
     inkscape:zoom="0.7072849"
     inkscape:cx="71.239476"
     inkscape:cy="53.432779"
     inkscape:window-x="1142"
     inkscape:window-y="302"
     inkscape:window-maximized="0"
     inkscape:current-layer="layer1" />
  <defs
     id="defs2">
    <filter
       style="color-interpolation-filters:sRGB;"
       inkscape:label="Drop Shadow"
       id="filter203004">
      <feFlood
         flood-opacity="0.803922"
         flood-color="rgb(42,29,4)"
         result="flood"
         id="feFlood202994" />
      <feComposite
         in="flood"
         in2="SourceGraphic"
         operator="in"
         result="composite1"
         id="feComposite202996" />
      <feGaussianBlur
         in="composite1"
         stdDeviation="2.6"
         result="blur"
         id="feGaussianBlur202998" />
      <feOffset
         dx="0"
         dy="2.3"
         result="offset"
         id="feOffset203000" />
      <feComposite
         in="SourceGraphic"
         in2="offset"
         operator="over"
         result="composite2"
         id="feComposite203002" />
    </filter>
    <filter
       style="color-interpolation-filters:sRGB;"
       inkscape:label="Drop Shadow"
       id="filter4619">
      <feFlood
         flood-opacity="0.803922"
         flood-color="rgb(42,29,4)"
         result="flood"
         id="feFlood4609" />
      <feComposite
         in="flood"
         in2="SourceGraphic"
         operator="in"
         result="composite1"
         id="feComposite4611" />
      <feGaussianBlur
         in="composite1"
         stdDeviation="2"
         result="blur"
         id="feGaussianBlur4613" />
      <feOffset
         dx="0"
         dy="2.3"
         result="offset"
         id="feOffset4615" />
      <feComposite
         in="SourceGraphic"
         in2="offset"
         operator="over"
         result="composite2"
         id="feComposite4617" />
    </filter>
  </defs>
  <g
     inkscape:label="Layer 1"
     inkscape:groupmode="layer"
     id="layer1"
     transform="translate(18.317758,-34.078306)">
    <circle
       style="fill:#9dff85;fill-opacity:1;fill-rule:evenodd;stroke:#4b0909;stroke-width:3.465;stroke-miterlimit:4;stroke-dasharray:none;stroke-opacity:1"
       id="path1050"
       cx="102.29473"
       cy="154.6908"
       r="118.87999" />
    <path
       style="fill:#000000;stroke-width:0.257234;filter:url(#filter4619)"
       d="m 97.354533,266.81283 c -0.592271,-1.73312 -1.363256,-3.64309 -1.713281,-4.24437 -1.125736,-1.93381 -2.263476,-1.41987 -5.499907,2.48438 -1.203825,1.45223 -2.536041,2.84819 -2.96048,3.10214 -0.703767,0.42108 -0.918895,0.43107 -2.443723,0.1135 -2.867144,-0.59714 -6.370179,-1.45189 -6.631645,-1.61813 -0.161078,-0.10243 -0.163415,-0.75455 -0.0072,-1.83109 0.323279,-2.21869 0.06115,-5.01005 -0.598396,-6.37252 -0.526382,-1.08738 -1.549876,-1.85898 -2.465838,-1.85898 -0.912101,0 -2.402893,1.3312 -4.308014,3.84684 -1.061618,1.40183 -2.043787,2.61898 -2.182587,2.70476 -0.23962,0.14809 -3.788993,-1.2277 -4.189084,-1.62375 -0.104064,-0.10301 1.500613,-2.20889 3.565948,-4.67976 4.335369,-5.18661 7.427184,-9.22154 8.022121,-10.46914 0.347627,-0.72898 0.357696,-0.90591 0.06198,-1.08868 -0.664605,-0.41075 -1.898738,0.3641 -6.573395,4.12702 -5.287198,4.256 -8.643959,6.34674 -11.759062,7.32408 l -1.469676,0.4611 -1.845585,-1.22722 -1.845595,-1.22724 3.184338,-1.66546 c 7.42359,-3.88265 13.092493,-8.4745 13.092493,-10.60502 0,-0.49335 -0.991415,-0.31276 -4.723641,0.86042 -7.410711,2.32946 -10.837953,2.96711 -16.972877,3.15779 l -4.590421,0.14269 -2.676456,-2.66735 c -1.472055,-1.46704 -2.67658,-2.72729 -2.676714,-2.80057 -1.44e-4,-0.0733 2.51754,-0.0955 5.594849,-0.0496 7.977317,0.11925 12.597347,-0.50445 18.597764,-2.51066 6.134645,-2.0511 10.251437,-4.60775 14.924395,-9.2685 5.715971,-5.70103 9.207414,-12.02421 11.430059,-20.70039 2.485965,-9.70411 2.469647,-18.47332 -0.04931,-26.5033 -4.100124,-13.07045 -15.89559,-21.5875 -31.892412,-23.02829 -8.606619,-0.77517 -18.50555,1.50588 -32.853786,7.57063 -2.531314,1.06995 -4.647036,1.94536 -4.701592,1.94536 -0.05454,0 -0.06706,-1.63251 -0.02785,-3.6278 l 0.07138,-3.62777 8.932461,-4.53942 c 4.912855,-2.49668 8.929812,-4.5973 8.926576,-4.66803 -0.0034,-0.0707 -3.85992,-2.88428 -8.570396,-6.2523 l -8.564519,-6.12368 0.666877,-3.31028 c 0.36678,-1.82065 0.746246,-3.38874 0.843251,-3.48463 0.09701,-0.096 5.248135,2.98636 11.44694,6.84946 l 11.270561,7.02382 9.260445,0.30951 c 5.093248,0.17022 12.559481,0.39394 16.591636,0.49714 l 7.331181,0.18764 -13.504814,-9.47668 -13.504814,-9.47666 -13.213735,-0.96375 c -7.267558,-0.53007 -13.25682,-1.00685 -13.309486,-1.05951 -0.05267,-0.0527 0.502407,-1.58094 1.233485,-3.39617 l 1.329239,-3.30042 10.501148,0.18079 c 8.163708,0.14054 10.501144,0.11126 10.501144,-0.13157 0,-0.17178 -2.085523,-4.4093 -4.634505,-9.4167 -2.872795,-5.64356 -4.559535,-9.23061 -4.43729,-9.4365 0.65505,-1.10324 4.080449,-4.731733 4.279229,-4.532954 0.12835,0.128361 3.213905,5.287904 6.856759,11.465654 l 6.623398,11.23228 14.347268,8.46343 c 7.890991,4.65488 14.372286,8.43388 14.402883,8.39779 0.03058,-0.0361 -3.159063,-6.60583 -7.088112,-14.59939 L 69.61441,107.26305 58.410206,99.674633 c -6.162318,-4.173632 -11.20757,-7.646306 -11.211678,-7.717044 -0.01421,-0.244737 5.195767,-4.501348 5.427275,-4.434151 0.127835,0.03706 4.163563,2.315682 8.968298,5.063525 8.005124,4.57816 8.745131,4.949074 8.846559,4.434161 0.06084,-0.309061 0.354308,-4.613369 0.652075,-9.56514 0.297778,-4.951761 0.59921,-9.371056 0.669866,-9.820646 0.124808,-0.79417 0.217887,-0.847231 3.271795,-1.86494 1.728837,-0.576138 3.229976,-1.047523 3.335882,-1.047523 0.105897,0 0.192541,5.945708 0.192541,13.212678 v 13.212677 l 8.553053,14.07021 8.553053,14.07022 0.164043,-2.0096 c 0.09019,-1.10528 0.425695,-8.60766 0.745484,-16.67197 L 97.159892,95.944723 91.09929,84.626407 c -3.33334,-6.225078 -6.026639,-11.352773 -5.985108,-11.394891 0.144287,-0.146304 5.669849,-1.592436 6.090366,-1.593949 0.280049,-6.7e-4 2.14575,2.824665 5.518942,8.358608 2.802733,4.59807 5.15988,8.360132 5.23811,8.360132 0.0782,0 2.43688,-3.762062 5.24147,-8.360132 3.44418,-5.646654 5.23857,-8.358217 5.52853,-8.354264 0.42662,0.0062 5.96748,1.454172 6.09557,1.593353 0.0369,0.04005 -2.65546,5.166065 -5.98292,11.391143 l -6.04995,11.318316 0.0433,2.057881 c 0.0723,3.431896 1.28887,31.064186 1.37137,31.146696 0.0423,0.0423 3.92299,-6.24817 8.62373,-13.97884 l 8.5468,-14.05577 V 87.918783 c 0,-7.257756 0.0867,-13.195908 0.19254,-13.195908 0.10591,0 1.60167,0.469594 3.32391,1.043518 l 3.13136,1.04354 0.13963,0.950038 c 0.0768,0.522521 0.38611,5.059356 0.68738,10.081865 0.30128,5.0225 0.58946,9.272151 0.64043,9.443648 0.0561,0.189029 3.53778,-1.658449 8.841,-4.691386 4.8116,-2.751766 8.85294,-5.033556 8.98077,-5.07066 0.23173,-0.06723 5.44185,4.189836 5.42683,4.434151 -0.004,0.07073 -5.05116,3.536545 -11.21513,7.701807 l -11.20721,7.573184 -4.5002,9.14707 c -7.299,14.83585 -9.83975,20.10662 -9.6428,20.00385 0.10203,-0.0532 6.60985,-3.8826 14.46194,-8.50979 l 14.27652,-8.41307 6.68809,-11.42595 c 3.67846,-6.28427 6.74687,-11.430654 6.81869,-11.436409 0.12549,-0.0103 3.39579,3.740899 4.04181,4.635869 0.26539,0.36765 -0.41372,1.87037 -4.39541,9.72605 -2.59011,5.11016 -4.64579,9.35471 -4.56817,9.43234 0.0776,0.0776 4.84217,0.0602 10.58788,-0.0387 l 10.44676,-0.17985 1.32924,3.30042 c 0.73108,1.81523 1.28614,3.34351 1.23348,3.39617 -0.0527,0.0527 -6.04192,0.52758 -13.30948,1.05536 l -13.21373,0.95961 -13.50481,9.47803 -13.50482,9.47804 7.33118,-0.18486 c 4.03215,-0.10162 11.49839,-0.32488 16.59163,-0.49602 l 9.26044,-0.31116 11.38277,-7.10439 c 10.34415,-6.45616 11.39478,-7.05341 11.51435,-6.54567 0.0724,0.30729 0.40233,1.91008 0.73324,3.56176 l 0.60165,3.00305 -8.57091,6.12877 c -4.71399,3.37084 -8.57178,6.18666 -8.57285,6.2574 -0.001,0.0707 4.01778,2.17267 8.93078,4.67094 l 8.93273,4.54232 0.0713,3.62488 c 0.0393,1.99368 0.0185,3.62488 -0.0461,3.62488 -0.0647,0 -2.18036,-0.87556 -4.7016,-1.94568 -14.20615,-6.02966 -24.23451,-8.34014 -32.87797,-7.57487 -15.69456,1.38955 -27.43725,9.75691 -31.7721,22.63951 -3.69142,10.97038 -2.15102,25.82423 3.89473,37.55625 5.37764,10.43551 14.11412,17.36447 25.60839,20.31017 4.80258,1.23077 6.57903,1.41207 13.9067,1.41927 3.85517,0.004 7.0095,0.0628 7.00963,0.13111 1.4e-4,0.0684 -1.18418,1.31269 -2.63181,2.76527 l -2.63207,2.64104 -3.60587,-0.005 c -5.76535,-0.007 -10.6744,-0.88212 -18.05181,-3.21605 -3.6487,-1.15433 -4.71805,-1.36098 -4.71805,-0.91175 0,2.16038 5.83876,6.90623 13.1464,10.68563 l 3.15085,1.62958 -1.88224,1.21763 -1.88226,1.21762 -1.44323,-0.45252 c -3.13852,-0.9841 -6.27972,-2.95489 -12.23073,-7.67355 -4.37801,-3.4714 -5.66986,-4.27244 -6.13693,-3.80537 -0.60863,0.60864 1.81223,4.06162 8.12942,11.59531 2.07259,2.47171 3.68392,4.57151 3.58072,4.66621 -0.42497,0.38997 -3.94667,1.78457 -4.16527,1.64946 -0.13013,-0.0804 -1.16203,-1.34501 -2.29311,-2.81018 -1.97427,-2.55744 -3.33132,-3.75516 -4.25468,-3.75516 -0.9522,0 -2.00264,0.82431 -2.5089,1.96878 -0.61718,1.39524 -0.85222,4.24982 -0.53168,6.45715 l 0.23369,1.6092 -0.92225,0.23843 c -0.50724,0.13113 -1.3891,0.35966 -1.95966,0.50785 -0.57057,0.14818 -2.10061,0.4875 -3.40011,0.75404 l -2.36273,0.48461 -0.86309,-0.58647 c -0.4747,-0.32257 -1.7616,-1.70362 -2.8598,-3.06899 -3.12334,-3.88323 -4.37198,-4.34796 -5.59395,-2.08202 -0.37566,0.69659 -1.11423,2.57761 -1.64128,4.18006 l -0.95828,2.91355 h -3.5373 -3.537311 z M 85.644785,262.1282 c 1.262311,-1.33844 2.779109,-3.75803 4.630809,-7.38701 1.891933,-3.70785 2.002266,-4.15912 0.95672,-3.91333 -2.298191,0.54026 -6.068633,3.41363 -6.967731,5.30995 -0.574522,1.21175 -0.968487,4.55986 -0.703037,5.97482 0.224909,1.19886 0.962053,1.20436 2.083239,0.0155 z m 34.744045,-0.0511 c 0.27669,-1.4749 -0.29669,-5.37304 -0.94451,-6.42123 -1.11367,-1.80196 -4.789,-4.39656 -6.86306,-4.84501 -0.82349,-0.17804 -0.83314,-0.16948 -0.57472,0.51022 0.14455,0.38022 0.9734,2.08502 1.84186,3.78846 3.44609,6.7593 6.05758,9.54134 6.54043,6.96756 z m -16.61001,-3.81735 c 0.52649,-1.13183 1.16413,-2.71519 1.41697,-3.51857 0.45538,-1.44694 0.45414,-1.47602 -0.13056,-3.08682 -0.66033,-1.8191 -2.15515,-4.96377 -2.72224,-5.72672 -0.36739,-0.49428 -0.37505,-0.49428 -0.75824,0 -0.58928,0.76013 -2.057257,3.89174 -2.734057,5.83257 -0.601839,1.72583 -0.602303,1.73677 -0.13074,3.08681 0.26028,0.74518 1.05379,2.56658 1.763347,4.04758 l 1.29011,2.69272 0.52408,-0.63485 c 0.28824,-0.34916 0.95484,-1.56089 1.48133,-2.69272 z m -20.226653,-9.42918 c 1.995791,-1.15392 3.831276,-2.32429 4.078865,-2.60085 0.626718,-0.70006 0.61073,-2.24649 -0.02316,-2.24649 -1.419303,0 -5.865962,3.02643 -7.246236,4.93183 -0.701152,0.96793 -1.014599,2.01351 -0.603606,2.01351 0.09101,0 1.798433,-0.94411 3.794214,-2.098 z m 40.799093,1.62212 c 0,-1.30344 -3.15561,-4.27473 -6.0853,-5.72985 -1.93288,-0.96002 -2.56928,-0.91688 -2.44156,0.16549 0.0497,0.42181 0.18804,0.94987 0.30726,1.17348 0.11922,0.22361 1.64119,1.22888 3.38217,2.23393 1.74097,1.00506 3.39692,2.00492 3.67988,2.22192 0.69767,0.53504 1.15755,0.50923 1.15755,-0.065 z M -1.8199615,163.33327 c -6.3652706,-3.73764 -11.6003705,-6.88569 -11.6335645,-6.99566 -0.03322,-0.10998 5.3725706,-3.38323 12.0128088,-7.27391 6.6402382,-3.89067 12.0779192,-7.16616 12.0837302,-7.27885 0.0061,-0.11271 -4.0999732,-4.85168 -9.123958,-10.53107 -5.0239849,-5.67938 -9.0464915,-10.40297 -8.9389049,-10.49685 0.1075917,-0.0939 6.0412754,-1.41076 13.1859728,-2.92639 7.1446911,-1.51563 13.2450301,-2.83488 13.5563051,-2.93167 0.540915,-0.16819 0.304819,-0.75573 -5.334964,-13.27616 -3.245509,-7.205101 -5.8693886,-13.131722 -5.8308415,-13.170267 0.038545,-0.0385 6.4792815,0.504638 14.3127345,1.207078 7.833467,0.70245 14.28646,1.233372 14.339985,1.179847 0.05353,-0.05353 -0.584254,-6.335061 -1.417295,-13.958975 -0.833034,-7.623914 -1.483923,-13.899058 -1.446417,-13.944789 0.06309,-0.0769 24.354068,10.256636 25.41271,10.810733 0.399257,0.208971 0.07742,0.476841 -2.057881,1.712766 -16.504683,9.553064 -29.476517,23.519288 -37.901735,40.807197 -4.926199,10.10817 -7.84881,20.25194 -9.301321,32.28294 -0.3638544,3.01375 -0.4567634,15.16596 -0.1460264,19.09966 0.1089654,1.37943 0.1089654,2.50175 0,2.49407 -0.108965,-0.007 -5.4060674,-3.07206 -11.7713381,-6.8097 z m 195.8161915,4.18701 c 0.30269,-4.10913 0.21029,-15.71448 -0.14899,-18.71381 -2.50613,-20.92173 -10.07077,-38.36576 -23.25822,-53.633411 -6.76809,-7.835696 -15.07321,-14.624785 -24.47218,-20.005 -1.75081,-1.002215 -1.96217,-1.196021 -1.5434,-1.415329 1.04838,-0.549041 25.36027,-10.895143 25.4187,-10.817126 0.0343,0.04571 -0.61976,6.317755 -1.45335,13.93785 -0.83359,7.620084 -1.4687,13.901621 -1.41136,13.958975 0.0573,0.05734 6.51346,-0.470458 14.34693,-1.172908 7.83345,-0.70244 14.27287,-1.246941 14.3098,-1.210012 0.037,0.03696 -2.58863,5.95799 -5.8346,13.157901 -3.24596,7.19989 -5.87227,13.1202 -5.83623,13.15625 0.036,0.036 6.13806,1.36069 13.56007,2.94367 7.42199,1.58299 13.58071,2.95329 13.68604,3.04511 0.10532,0.0918 -3.91158,4.79202 -8.92645,10.44489 -5.01487,5.65288 -9.11955,10.39371 -9.12153,10.53519 -0.002,0.14148 5.42937,3.44051 12.06966,7.33118 6.64028,3.89068 12.0768,7.14604 12.08115,7.23415 0.007,0.15183 -23.26915,13.85909 -23.53448,13.85909 -0.0692,0 -0.0384,-1.18649 0.0685,-2.63666 z M 60.396341,73.243809 c 0.07217,-0.247589 1.313756,-6.411565 2.759167,-13.697739 1.445401,-7.286169 2.657132,-13.285467 2.692754,-13.331764 0.03562,-0.04628 2.940054,2.377096 6.45431,5.38533 3.514257,3.008235 8.394693,7.184375 10.845428,9.280322 2.450724,2.095941 4.380574,3.810808 4.288546,3.810808 -0.09204,0 -2.097168,0.414 -4.455863,0.919997 -6.619363,1.420023 -14.769391,4.247396 -20.424313,7.085528 -2.272926,1.140746 -2.337652,1.157157 -2.160029,0.547518 z m 81.061029,-0.502332 c -5.78935,-2.98108 -13.94425,-5.771751 -21.32078,-7.296106 -1.96436,-0.405938 -3.60216,-0.770727 -3.63955,-0.810652 -0.0374,-0.03994 4.79406,-4.21811 10.73654,-9.284873 5.9425,-5.066771 10.83201,-9.176092 10.86558,-9.131827 0.0336,0.04426 1.24365,6.041882 2.68905,13.328051 1.4454,7.286174 2.68703,13.45015 2.75916,13.697739 0.17857,0.612892 -0.0141,0.566584 -2.09,-0.502332 z M 88.115059,64.51266 c 0.05209,-0.12765 2.918321,-5.146227 6.369355,-11.152392 3.451034,-6.006166 6.518546,-11.353493 6.816706,-11.882946 0.29816,-0.52946 0.6,-0.959265 0.67074,-0.955128 0.13461,0.0078 13.90363,23.992648 13.81368,24.062563 -0.0284,0.02203 -1.20918,-0.139757 -2.62398,-0.359611 -4.97446,-0.773033 -21.54291,-0.516951 -24.660648,0.381158 -0.264328,0.07618 -0.437956,0.03408 -0.385853,-0.09369 z"
       id="path4607" />
  </g>
</svg>
