<svg xmlns="http://www.w3.org/2000/svg" viewBox="0 0 310.307 310.307"><defs><filter style="color-interpolation-filters:sRGB" id="a"><feFlood flood-opacity=".804" flood-color="#2A1D04" result="flood"/><feComposite in="flood" in2="SourceGraphic" operator="in" result="composite1"/><feGaussianBlur in="composite1" stdDeviation="2" result="blur"/><feOffset dy="2.3" result="offset"/><feComposite in="SourceGraphic" in2="offset" result="composite2"/></filter></defs><g transform="translate(63.753 24.736)"><circle style="fill:#405ebd;fill-rule:evenodd;stroke:#091e0e;stroke-width:9.765;stroke-miterlimit:4;stroke-dasharray:none;stroke-opacity:1;fill-opacity:1" cx="91.4" cy="130.417" r="150.271"/><path style="fill:#000;stroke-width:.352777;filter:url(#a)" d="M89.87 262.672a8353.729 8353.729 0 0 0-10.973-19.032c-5.179-8.963-9.416-16.373-9.416-16.467 0-.094.516-.022 1.147.16 1.581.457 10.014 1.641 13.753 1.932l3.082.24 1.73 3.01 1.728 3.012 1.627-2.78c.895-1.53 1.628-2.876 1.628-2.993 0-.116 2.148-.402 4.773-.634 4.677-.414 11.563-1.478 13.836-2.138.63-.183 1.146-.283 1.146-.222 0 .062-1.322 2.392-2.937 5.18a11077.81 11077.81 0 0 0-10.456 18.12c-8.472 14.707-8.846 15.346-9 15.346-.06 0-.81-1.23-1.667-2.734zm-7.689-37.734c-3.263-.264-10.547-1.571-14.64-2.628-15.129-3.906-29.878-12.136-40.97-22.861-15.618-15.101-24.316-31.925-27.836-53.838-1.227-7.642-1.051-20.704.395-29.254 1.726-10.21 6.65-23.83 11.633-32.181 7.58-12.7 19.724-24.565 33.142-32.378 6.718-3.912 16.387-8.036 23.46-10.006 7.763-2.163 19.33-3.203 28.696-2.58 24.038 1.6 44.498 10.812 60.987 27.462 7.475 7.548 12.857 15.066 17.382 24.283 5.378 10.952 8.28 21.415 9.346 33.69 1.777 20.478-3.773 41.899-15.352 59.25-8.774 13.147-21.643 24.52-35.707 31.555-1.407.703-2.558 1.417-2.558 1.586 0 .17-.278.393-.617.497-.34.104-2.999 1.002-5.91 1.995-12.246 4.18-21.288 5.706-33.158 5.597-3.688-.034-7.42-.119-8.293-.19zm8.384-20.1c-.927-.928-.965-.935-1.668-.299-1.085.982-.883 1.247.95 1.247h1.667zm20.368-1.524c4.382-1.122 5.82-1.62 5.821-2.017 0-.15.225-1.55.5-3.11.433-2.46 1.538-9.886 2.16-14.522l.2-1.484-1.871-.936c-1.03-.515-2.72-1.57-3.757-2.346-1.037-.775-2.005-1.273-2.15-1.107-.144.165-1.745 2.263-3.556 4.662-1.812 2.398-5.332 6.724-7.823 9.613l-4.529 5.253 1.153 1.068c.633.587 2.708 2.255 4.61 3.706 2.897 2.211 3.611 2.604 4.409 2.426.524-.117 2.698-.66 4.833-1.206zM70.858 194.9c3.22-2.341 6.31-4.627 6.864-5.079l1.009-.822-.598-1.749c-.33-.962-.678-2.622-.774-3.689-.096-1.067-.23-2.12-.295-2.34-.08-.262-1.802.116-5.056 1.112-2.714.831-7.767 2.186-11.228 3.012-3.46.826-6.357 1.555-6.437 1.62-.234.193.678 3.923 1.832 7.492l1.07 3.31 2.855 1.343c3.372 1.585 2.1 2.083 10.758-4.21zm-25.366-5.283c0-.87-.26-1.075-1.093-.857-.66.172-.666.22-.1.843.757.837 1.193.842 1.193.014zm98.364-4.39.82-.885-3.114.166c-1.712.092-3.271.213-3.465.27-.21.06-.306 1.201-.237 2.794l.116 2.692 2.53-2.077c1.391-1.142 2.898-2.474 3.35-2.96zm-54.663-4.753c5.598-4.97 13.678-13.14 12.995-13.14-.095 0-.786.56-1.535 1.244-2.253 2.06-6.764 4.927-11.063 7.033-2.232 1.094-4.17 2.1-4.307 2.238-.269.268.708 5.007 1.032 5.007.108 0 1.403-1.072 2.878-2.382zm55.615-5.572c1.75-.269 4.663-.83 6.47-1.245l3.287-.757 1.624-2.51c3.106-4.802 7.837-14.723 7.837-16.436 0-.477-8.258-8.903-13.835-14.116l-1.663-1.555-2.746 1.276c-4.426 2.055-8.417 2.417-12.183 1.103-.728-.254-1.323-.406-1.323-.338 0 .067.464 2.084 1.032 4.482.568 2.398 1.361 6.344 1.762 8.77.809 4.897 2.145 17.378 2.145 20.04 0 .943.079 1.793.176 1.89.249.25 3.683-.03 7.417-.604zm-24.003-7.414c.141-2.63.193-4.847.116-4.924-.077-.077-1.047 1.626-2.155 3.784-1.108 2.158-1.974 3.952-1.925 3.988 1.372.986 2.992 1.936 3.303 1.936.272 0 .489-1.57.661-4.784zm-76.99 2.794c1.19-.197 1.36-.363 1.709-1.672.708-2.66 2.81-6.162 4.78-7.963 2.288-2.09 4.833-3.344 8.496-4.185l2.744-.63-2.47-1.304c-8.253-4.36-21.184-17.151-31.396-31.06l-1.692-2.304-1.235.84c-1.823 1.238-8.316 7.107-9.227 8.339-.771 1.043-.78 1.155-.383 5.358 1.059 11.248 4.382 21.92 9.768 31.368l1.96 3.44 7.813-.005c4.296-.004 8.407-.102 9.133-.222zm17.023-1.206c15.403-1.573 28.499-5.892 34.657-11.428 4.682-4.21 6.504-10.111 4.718-15.282-.633-1.831-.632-1.85.033-1.248 1.106 1 4.01 5.094 4.969 7.004 2.323 4.627 2.632 9.442.856 13.322-1.198 2.616-.695 2.283 1.385-.919 2.088-3.211 4.178-7.634 4.877-10.315.764-2.936.7-7.136-.149-9.547-.825-2.35-2.845-5.096-4.685-6.371-.738-.512-1.288-.984-1.222-1.05.065-.065 1.27.2 2.679.591 2.91.807 6.581 2.397 8.211 3.558l1.105.787-.257-1.027c-.51-2.03-2.652-6.18-4.286-8.305-1.975-2.565-5.075-4.693-7.695-5.279-1.019-.228-3.053-.354-4.521-.28l-2.67.135 1.241-.843c3.965-2.694 9.543-4.428 13.522-4.204 6.278.355 11.148 4.485 15.204 12.893l1.75 3.628 1.828-.231c1.995-.253 6.63-1.641 7.946-2.381.808-.454.74-.535-2.998-3.542-8.693-6.994-19.074-13.161-25.915-15.397-6.828-2.231-12.844-2.032-16.893.56-1.837 1.178-4.044 3.635-5.053 5.627l-.893 1.764.174-2.117c.322-3.93 1.227-7.748 2.436-10.272 2.767-5.782 8.63-8.903 16.035-8.538l2.291.113.443-1.351c.633-1.932.927-5.766.645-8.402-.346-3.23-.546-3.431-2.193-2.202-12.864 9.603-21.862 18.888-25.495 26.309-2.55 5.208-3.101 9.23-1.828 13.32.707 2.27 2.97 5.613 4.464 6.592 1.425.934.787.909-1.82-.07-6.298-2.368-10.416-5.553-12.33-9.541-1.392-2.897-1.615-7.58-.561-11.749.854-3.379 3.156-8.411 5.515-12.058 1.486-2.297 1.636-2.711 1.435-3.967-.37-2.311-2.207-6.259-4.048-8.699-1.787-2.367-3.805-4.472-4.034-4.208-.392.452-3.487 12.171-4.243 16.063-1.464 7.542-1.733 10.452-1.527 16.535.215 6.363.692 8.594 2.62 12.276 2.28 4.35 6.092 6.98 11.017 7.602l1.957.247-2.645.808c-14.668 4.48-23.403-2.178-25.492-19.43l-.417-3.445-1.245-.345c-1.342-.373-7.771-.488-7.771-.139 0 .414 4.03 7.09 6.796 11.254 13.823 20.821 27.44 27.544 37.25 18.391l1.184-1.105-1.41 2.822c-2.678 5.361-5.57 8.566-9.601 10.641-1.77.91-2.267.998-5.644.996-2.038 0-4.448-.14-5.357-.308l-1.652-.306-2.768 2.78c-2.599 2.609-5.072 6.473-5.912 9.238-.231.76-.168.803.93.628.647-.103 2.923-.365 5.057-.583zm107.418-41.871c-.005-4.16-.918-11.377-1.44-11.377-.176 0-.32.164-.32.365 0 .2-1.181 2.263-2.624 4.584l-2.624 4.22 2.359 1.653a672.85 672.85 0 0 1 3.24 2.284c.486.346 1.002.635 1.147.641.146.006.264-1.06.262-2.37zm-13.242-9.525c2.889-4.605 7.349-15.012 7.37-17.198.011-1.289-3.471-8.333-6.286-12.712-3.886-6.046-10.122-13.149-15.194-17.305l-1.64-1.344-1.819 1.005c-3.894 2.153-12.228 7.128-15.823 9.447-3.614 2.331-3.76 2.474-3.433 3.336.189.495.5 2.004.69 3.354.68 4.791-.684 9.234-3.925 12.78-.962 1.052-1.625 1.987-1.474 2.076.151.089.83.277 1.51.417 4.335.896 13.362 4.388 20.203 7.816 3.713 1.862 14.33 7.935 16.31 9.33.775.547 1.596 1.002 1.824 1.01.228.009.987-.896 1.687-2.012zm-136.668-2.274c1.154-.815 2.1-1.618 2.1-1.785 0-.391-2.577-4.112-2.86-4.13-.118-.007-.49 1.297-.826 2.897-.337 1.601-.695 3.268-.795 3.704-.1.437-.078.794.05.794.127 0 1.176-.666 2.33-1.48zm32.568-12.543c.293-5.975 1.03-12.672 2.182-19.807.482-2.988.805-5.503.719-5.59-.455-.455-7.747-1.2-12.324-1.258l-5.236-.068-1.89 2.026c-1.039 1.113-2.867 3.31-4.062 4.88L28.129 85.9l2.39 5.465c1.313 3.007 3.357 7.458 4.54 9.893l2.153 4.427 4.405.045c3.93.04 4.633.146 6.521.974 1.164.511 2.212.947 2.328.969.116.022.318-2.143.448-4.81zm31.089-9.514c2.902-3.852 8.954-10.539 14.447-15.963l5.169-5.105-3.039-2.918c-1.67-1.604-4.893-4.314-7.16-6.02-4-3.01-10.595-7.307-10.84-7.062-.378.378-6.343 15.006-7.194 17.64l-.422 1.308 2.495 2.354c1.87 1.763 2.827 3.024 3.815 5.024 1.31 2.652 1.32 2.7 1.295 6.921-.014 2.356-.207 4.684-.433 5.221-.663 1.58-.01 1.09 1.867-1.4zm-26.14-25.41c.234-.771 1.624-7.06 1.624-7.35 0-.116-1.06.37-2.357 1.083-3.134 1.723-7.874 4.775-7.874 5.07 0 .13 1.786.57 3.969.975 2.183.407 4.077.761 4.21.789.132.027.325-.228.428-.568zm56.681-5.292c2.224-1.892 4.477-3.78 5.008-4.196.531-.416.965-.845.965-.954 0-.226-5.489-2.02-8.643-2.825-4.67-1.193-15.503-2.579-15.261-1.953.05.132 2.175 2.15 4.722 4.486 2.546 2.335 5.551 5.289 6.677 6.564 1.126 1.274 2.147 2.317 2.268 2.317.122 0 2.04-1.548 4.264-3.44zm71.59 41.61c0-.91-3.327-9.592-5.15-13.44-1.048-2.211-1.906-4.118-1.906-4.238 0-.12 2.144-3.933 4.763-8.472 2.62-4.54 4.762-8.308 4.762-8.374 0-.065-4.705-.119-10.457-.119H165.69l-4.977-5.066c-2.737-2.786-5.93-5.876-7.093-6.866l-2.117-1.801 30.427-.013c16.735-.007 30.425.107 30.423.252-.004.146-.372.9-.822 1.676a14080.18 14080.18 0 0 0-11.696 20.285c-15.3 26.61-15.7 27.278-15.7 26.175zM-5.989 96.682c-3.593-6.28-6.484-11.292-17.776-30.812-3.042-5.26-5.532-9.662-5.532-9.782 0-.12 13.455-.222 29.898-.226l29.898-.008-1.764 1.46c-.97.802-4.185 3.897-7.144 6.878l-5.38 5.42H5.766c-9.142 0-10.418.067-10.24.53.111.292 2.268 4.086 4.791 8.433l4.589 7.903-1.886 4.003c-1.832 3.888-4.14 9.706-4.634 11.675-.133.534-.344.968-.469.964-.124-.004-1.882-2.9-3.906-6.438z"/></g></svg>