<svg xmlns="http://www.w3.org/2000/svg" viewBox="0 0 286.237 286.237"><defs><filter style="color-interpolation-filters:sRGB" id="a"><feFlood flood-opacity=".804" flood-color="#2A1D04" result="flood"/><feComposite in="flood" in2="SourceGraphic" operator="in" result="composite1"/><feGaussianBlur in="composite1" stdDeviation="2" result="blur"/><feOffset dy="2.3" result="offset"/><feComposite in="SourceGraphic" in2="offset" result="composite2"/></filter></defs><g transform="translate(41.919 9.71)"><circle style="fill:#e100fc;fill-opacity:1;fill-rule:evenodd;stroke:#000;stroke-width:5.765;stroke-miterlimit:4;stroke-dasharray:none;stroke-opacity:1" cx="101.2" cy="133.408" r="140.236"/><path style="fill:#000;stroke-width:.264583;filter:url(#a)" d="M93.653 262.98c-8.678-.997-16.939-4.562-24.067-10.387-1.09-.89-3.458-2.988-5.261-4.662-4.682-4.344-4.974-4.55-12.886-9.066-14.576-8.32-22.619-13.822-28.263-19.332-1.49-1.454-1.503-1.46-1.881-.882-1.344 2.05-1.473 4.187-.54 8.907.98 4.954.822 9.353-.473 13.091l-.334.965-1.003-1.92c-1.641-3.143-2.798-4.741-5.048-6.98-1.477-1.468-2.671-2.383-3.887-2.977-1.353-.662-2.32-1.449-4.233-3.444-11.104-11.583-18.975-27.142-22.841-45.146-1.041-4.847-2.162-12.291-2.424-16.096-.098-1.42-.28-2.58-.404-2.58s-.225-4.584-.225-10.187c0-6.614.092-10.186.264-10.186.146 0 .265-.472.265-1.048 0-.577.236-2.887.525-5.135 2.59-20.17 9.793-38.217 21.927-54.936 6.62-9.121 16.965-19.519 26.628-26.765C49.077 39.528 72.98 30.419 94.566 29.417c24.698-1.147 52.033 8.185 74.795 25.535 9.224 7.03 18.825 16.715 25.28 25.498 9.38 12.763 15.98 26.618 19.613 41.167 2.786 11.159 3.99 22.289 3.66 33.842-.544 19.072-4.05 34.85-10.887 49.002-4.29 8.88-8.756 15.417-14.914 21.835-1.91 1.99-2.88 2.78-4.233 3.441-1.216.594-2.41 1.51-3.886 2.978-2.25 2.238-3.407 3.836-5.049 6.978l-1.003 1.921-.334-.965c-1.294-3.738-1.453-8.137-.473-13.09.933-4.716.804-6.859-.535-8.902-.372-.568-.404-.551-2.173 1.157-5.514 5.324-13.66 10.894-27.274 18.65-8.299 4.728-8.707 5.01-13.2 9.136-6.712 6.163-9.989 8.573-15.018 11.045-7.706 3.788-16.67 5.325-25.282 4.335zm-30.88-69.62c.22-.326.897-1.104 1.504-1.728l1.103-1.133-.281-2.313c-.868-7.133-.831-15.796.09-21.521.625-3.882 2.355-10.629 3.457-13.484.124-.32-.48-.858-2.429-2.163-13.079-8.758-22.409-21.83-26.665-37.36-2.007-7.322-2.805-15.185-2.281-22.477.178-2.482.477-5.377.664-6.432.188-1.055.292-1.918.232-1.918-.254 0-1.815 3.822-2.864 7.012-4.56 13.872-5.613 33.218-2.743 50.403C35.266 156.45 42.2 171.972 52 183.77c3.523 4.24 9.452 10.186 10.158 10.186.117 0 .393-.268.614-.595zm77.784-3.726c14.335-14.27 22.934-33.02 25.744-56.135.572-4.706.788-16.172.402-21.299-.748-9.934-2.56-18.696-5.337-25.813-1.455-3.728-1.842-4.19-1.404-1.673.188 1.074.485 3.985.661 6.467.975 13.732-2.736 28.73-9.946 40.201-6.234 9.917-15.285 18.31-24.687 22.892l-2.974 1.45.14 1.455c.656 6.813 4.33 20.274 6.787 24.864 1.193 2.228 7.01 10.59 7.368 10.59.128 0 1.588-1.35 3.246-3zm-12.979-44.127c6.51-4.006 12.874-10.304 17.48-17.3 1.861-2.827 4.814-8.779 6.116-12.33 1.137-3.1 2.345-7.85 2.987-11.747.745-4.525.67-14.443-.143-19.006-3.048-17.092-11.914-31.012-25.44-39.94-9.08-5.994-18.778-8.91-29.633-8.91s-20.552 2.916-29.633 8.91c-13.51 8.917-22.4 22.875-25.439 39.94-.52 2.926-.604 4.293-.604 9.878 0 5.539.085 6.964.59 9.79 2.414 13.54 8.198 24.702 17.418 33.611 3.27 3.16 9.193 7.664 10.078 7.664.119 0 .911-1.4 1.76-3.11 2.882-5.802 7.115-12.522 10.876-17.263 2.887-3.64 4.106-6.489 4.106-9.595 0-1.176.063-1.303.769-1.549 2.101-.732 1.608-5.469-.778-7.476-1.077-.906-1.785-1.063-3.972-.88l-1.807.152-.544-.923c-1.14-1.93-3.888-2.163-5.492-.463-1.473 1.56-1.383 4.119.206 5.81l.527.561-.695.456c-.798.523-.742 1.285.191 2.595.297.417.494.805.437.862-.293.293-5.632-2.678-6.66-3.705-1.934-1.935-5.083-9.73-6.272-15.526-.7-3.41-.613-5.848.28-7.874 1.464-3.318 5.826-8.155 13.459-14.92 8.076-7.16 13.834-10.772 20.009-12.553 1.535-.443 2.107-.78 3.35-1.972 1.158-1.112 2.58-1.992 6.287-3.891 5.678-2.909 8.684-4.682 10.42-6.146l1.273-1.073-.424 1.02c-.232.563-1.078 2.123-1.88 3.47-1.79 3.008-2.749 5.035-2.752 5.82-.002.49.15.601.857.628 3.782.145 6.873-.68 11.893-3.171l3.625-1.8-.846 1.031c-2.943 3.581-7.446 10.513-8.759 13.48-.637 1.441-.638 1.452-.135 2.246.278.439.905 1.013 1.395 1.277.847.456 1.027.458 3.77.045 1.585-.239 5.084-.848 7.777-1.354 5.05-.95 10.712-1.586 12.567-1.413.843.079.95.142.53.31-.292.116-1.094.432-1.784.701-3.435 1.343-7.575 5.19-10.873 10.104l-2.074 3.09.883 1.667c.486.918 1.667 2.456 2.625 3.42 2 2.01 4.814 3.537 8.372 4.544 2.514.71 2.943.98 1.56.98-1.516 0-4.85.76-7.046 1.606-4.18 1.61-8.783 5.12-11.255 8.584-2.09 2.928-2.043 2.675-2.264 12.432-.17 7.51-.31 9.545-.993 14.552-.929 6.794-1.36 11.593-1.36 15.115v2.519l1.52-.861c.837-.474 2.441-1.427 3.564-2.119zM39.147 37.918c-.004-1.214-2.464-10.185-3.615-13.187-.09-.235 1.43.811 3.38 2.326a576.85 576.85 0 0 0 6.121 4.687l2.576 1.934-2.973 1.767c-1.635.972-3.447 2.09-4.027 2.484-1.314.894-1.46.893-1.462-.01zm118.134.011c-.58-.394-2.384-1.507-4.01-2.474l-2.957-1.757 3.613-2.752a859.556 859.556 0 0 0 6.102-4.692c1.37-1.067 2.417-1.75 2.328-1.518-1.06 2.76-3.248 10.622-3.513 12.617-.094.711-.247 1.293-.34 1.293-.093 0-.643-.323-1.223-.717zm-94.22-12.005c.791-3.897 1.083-12.416.615-17.97l-.211-2.513 1.727 2.38c3.795 5.23 8.12 10.95 9.67 12.79.9 1.068 1.597 1.97 1.549 2.006-.048.035-.921.28-1.94.542-1.555.402-9.956 3.041-11.206 3.52-.313.121-.352-.023-.204-.755zm68.031-.4a137.25 137.25 0 0 0-6.482-2.014c-1.674-.46-3.082-.865-3.13-.898-.048-.033.65-.933 1.553-2.001 1.589-1.88 5.904-7.588 9.591-12.686l1.797-2.484-.21 2.91c-.43 5.996-.162 13.733.609 17.529.096.473.07.85-.057.84-.127-.012-1.78-.55-3.671-1.196zm-40.601-6.79C92.63 15.088 94.9 9.27 96.953 2.16c.8-2.769 1.53-5.514 1.624-6.102.215-1.34.517-1.37.725-.07.088.55.815 3.286 1.616 6.08 2.04 7.12 4.323 12.99 6.481 16.666l.815 1.387-3.245-.196a121.438 121.438 0 0 0-6.024-.197c-1.528 0-4.238.089-6.023.197l-3.246.196z"/></g></svg>