<?xml version="1.0"?>
<svg xmlns="http://www.w3.org/2000/svg" viewBox="0 0 339.053 339.053">
  <defs>
    <filter style="color-interpolation-filters:sRGB" id="a">
      <feFlood flood-opacity=".804" flood-color="#483107" result="flood"/>
      <feComposite in="flood" in2="SourceGraphic" operator="in" result="composite1"/>
      <feGaussianBlur in="composite1" stdDeviation="2" result="blur"/>
      <feOffset dy="2.3" result="offset"/>
      <feComposite in="SourceGraphic" in2="offset" result="composite2"/>
    </filter>
  </defs>
  <g transform="translate(75.858 77.72)">
    <circle style="fill:#c04243;fill-rule:evenodd;stroke:#000;stroke-width:7.865;stroke-miterlimit:4;stroke-dasharray:none;stroke-opacity:1;fill-opacity:1" cx="93.669" cy="91.807" r="165.594"/>
    <g style="filter:url(#a)">
      <path style="fill:#000;stroke-width:.264583" d="M-52.945 71.955c-.73-.647-.97-1.643-.397-1.643.202 0 1.603 1.96 1.603 2.243 0 .3-.434.083-1.206-.6zM-49.348 73.847c0 1.823-2.061-1.324-1.656-1.73.244-.243.48-.157 1.047.382.403.383 1.09.996 1.526 1.363.975.819-.917-1.782-.917-.015zM-54.24 76.043c-1.14-1.944-.838-2.303.73-.867 1.077.987 1.312 2.015.46 2.015-.332 0-.76-.414-1.19-1.148zM-38.801 85.88c-.315-.379-.286-.42.235-.34.326.05.597.208.603.35.016.445-.465.44-.838-.01zM-50.688 86.7c-.518-.839-.55-1.053-.265-1.743l.326-.786 1.091 1.002c.6.552 1.382 1.205 1.737 1.452.355.247.593.499.529.558-.064.06-.726.19-1.472.291-1.343.18-1.36.174-1.946-.774zM-35.883 93.085a9.858 9.858 0 0 1-1.304-.765c-.622-.444-.626-.469-.152-.992.58-.642 1.082-.69 1.3-.123.087.227.279.339.426.248.277-.172.373.014.645 1.256.174.796.078.836-.915.376zM-48.03 96.502c-.196-.238-.28-.51-.184-.606.248-.248.776.34.65.722-.074.219-.217.183-.465-.116zM-45.553 98.086c-.28-.205-.442-.44-.359-.524.084-.083.38.017.661.222.28.205.441.44.358.523-.083.084-.38-.016-.66-.221zM78.725 126.953c-.263-.746-.307-1.703-.168-3.638.103-1.444.267-2.626.363-2.626.097 0 .404.422.681.938.485.9.487 1.01.064 2.712-.242.976-.473 2.19-.512 2.7l-.072.926zM80.17 140.996c-.453-1.619-1.222-5.31-1.126-5.406.12-.12 1.099 3.439 1.378 5.009.192 1.08.017 1.357-.252.397zM86.764 155.892c.483 0-.391-1.174-.376-1.654l.028-.873.305.926c.168.51.454 1.186.634 1.504.396.697.41.877.07.877-.141 0-1.144-.78-.661-.78zM88.271 159.5c-.944-2.101-1.04-2.52-.47-2.046.378.314 1.616 3.658 1.425 3.85-.055.054-.485-.757-.955-1.803zM90.274 164.287c-.774-1.193-1.027-1.794-.753-1.794.291 0 1.447 2.095 1.26 2.283-.064.063-.292-.157-.507-.489zM91.933 168.073c-.483-.678-.494-.763-.097-.705.249.037.537.384.64.77.24.9.136.888-.543-.065z" transform="scale(1.1821) rotate(17.749 108.182 82.58)"/>
      <path style="fill:#000;stroke-width:.264583" d="M93.85 185.578c-3.142-2.216-7.872-4.8-8.196-4.475-.11.11-.054.432.123.717.233.373.24.517.023.517-.401 0-5.897-3.625-8.56-5.646-3.755-2.85-4.54-3.726-6.016-6.72-1.24-2.514-2.222-3.774-2.94-3.774-.153 0-.535-.241-.85-.536-.763-.718-1.572-.458-1.134.364.558 1.047-.519-.048-1.768-1.798-.63-.88-1.509-1.871-1.955-2.2-.446-.33-1.243-1.282-1.77-2.117-1.12-1.773-5.856-6.483-8.207-8.16-1.034-.739-2.103-1.256-2.92-1.414-.708-.137-3.224-1.03-5.59-1.984-2.367-.953-4.505-1.734-4.751-1.734-.756 0-8.832-2.087-10.658-2.754-.946-.345-2.403-.753-3.238-.907-1.713-.314-4.131-1.483-10.806-5.225-5.644-3.163-6.419-3.55-7.123-3.55-.663 0-1.894-.603-2.35-1.152-.179-.216-.825-.47-1.435-.565-2.02-.312-2.71-.656-4.032-2.013-1.85-1.897-4.142-3.48-6.886-4.754a681.03 681.03 0 0 1-2.988-1.394c-.344-.164-1.153-.968-1.797-1.789-.645-.82-1.673-1.892-2.285-2.382-2.06-1.647-5.743-5.03-5.743-5.275 0-.141.28-.134.679.017 1.436.546 1.24.125-1.098-2.36-2.765-2.94-10.371-8.9-12.025-9.423-1.4-.443-2.406-1.453-1.447-1.453.456 0 .507-.36.145-1.034-.341-.639-2.786-2.458-4.405-3.278-1.535-.778-1.957-1.51-1.957-3.397v-1.333l-1.059.178c-.987.167-1.058.137-1.058-.447 0-1.393 1.68-2.397 2.551-1.525.192.191.526.132 1.095-.194.907-.52 1.407-.304.908.393-1.016 1.421-.887 2.44.307 2.43.337-.001.95.446 1.526 1.116.844.981 1.016 1.075 1.396.759.374-.31.52-.28 1.04.208.718.675 1.302.723 1.78.146.295-.355.255-.6-.253-1.559-.332-.625-1.17-1.775-1.863-2.555-.693-.78-1.574-1.918-1.96-2.53-.384-.613-.938-1.242-1.232-1.399-.624-.334-.713-1.06-.13-1.06.221 0 1.485.423 2.808.94 1.323.517 2.473.872 2.556.79.083-.083-.211-.536-.653-1.007-.442-.47-.877-1.064-.966-1.319-.09-.254-.401-.463-.693-.463-.292 0-.921-.432-1.398-.96-1.088-1.206-4.63-3.582-5.2-3.489-.614.101-1.09-.266-1.09-.839 0-.463-1.138-1.59-1.606-1.59-.116 0-.249.317-.295.705-.078.66-.182.583-1.58-1.165-1.429-1.783-2.71-4.11-2.422-4.398.25-.25 1.394.435 1.55.929.117.367.416.489 1.2.489.672 0 1.546.283 2.45.793.774.437 1.678.794 2.01.794.33 0 .955.298 1.387.662.44.37 1.122.661 1.547.661.419 0 1.057.135 1.418.3.362.164.86.221 1.107.126.417-.16.414-.212-.044-.718-.272-.3-1.546-1.115-2.83-1.81-2.25-1.217-2.307-1.27-1.527-1.427.445-.089.81-.274.81-.41 0-.138-.762-.919-1.694-1.737-1.612-1.415-2.54-2.763-2.54-3.69 0-.769.411-.442 1.215.966.675 1.183.908 1.389 1.575 1.389.618 0 .8-.13.87-.616.132-.931-3.769-4.648-6.242-5.947-1.053-.554-1.915-1.123-1.915-1.266 0-.158.518-.19 1.33-.083 1.06.14 1.431.084 1.833-.28.474-.43.593-.43 2.032-.011.841.244 2.1.733 2.797 1.087.698.353 1.268.535 1.268.403 0-.33-3.595-2.17-7.311-3.742-1.702-.72-3.343-1.537-3.646-1.815 0 0-4.81-4.879 4.587-.894.274.115.328.032.198-.306-.225-.586-.818-.874 5.296 2.57 2.13 1.2 2.751 1.392 2.338.724-.099-.16-1.577-1.41-3.286-2.777-3.219-2.577-4.004-3.32-3.515-3.32.154 0 .356.123.448.271.275.445 3.24 1.846 3.906 1.846.34 0 1.028.306 1.53.68 1.265.944 2.563 1.464 3.9 1.56.977.07 1.367.302 2.778 1.65.902.863 2.712 2.167 4.022 2.9 2.183 1.219 7.572 3.794 7.941 3.794.086 0 2.145.788 4.574 1.752a273.54 273.54 0 0 0 9.265 3.434c4.582 1.59 4.934 1.76 6.461 3.142 1.708 1.545 2.68 2.012 1.392.668-1.08-1.128-.44-1.029 2.67.414 1.431.664 3.617 1.502 4.858 1.862 1.24.36 3.268.997 4.507 1.418 2.767.939 3.836 1.089 3.842.539.005-.524.725-.42 3.703.529 1.554.495 3.437.852 5.423 1.027 1.674.147 3.877.528 4.895.847 1.757.55 2.166.57 7.938.415 3.347-.09 7.143-.288 8.435-.44 2.949-.345 3.339-.236 3.339.938 0 1.156.649 1.518 2.847 1.59 1.646.053 2.657.508 4.429 1.993.29.244 1.005.528 1.587.63.582.103 1.307.417 1.61.7.415.385 1.104.554 2.778.68 1.566.117 2.414.312 2.858.656.347.269.834.49 1.083.49.604 0 4.004 2.424 4.503 3.211.217.344.396.803.396 1.021 0 .219.75.794 1.666 1.278 1.343.71 1.635.976 1.508 1.377-.12.376.103.66.914 1.173 1.159.731 1.293 1.147.675 2.09-.346.528-.35.765-.032 1.822.263.873.285 1.296.079 1.502-.207.206-.086.685.429 1.7.685 1.353.902 2.818.552 3.728-.127.333-.244.358-.535.116-.614-.51-.676-.112-.242 1.561.818 3.158.619 4.315-1.604 9.302-.223.5-.47 1.691-.55 2.646-.21 2.51.391 12.124.872 13.944.225.852.513 2.174.64 2.937.137.82.567 1.875 1.054 2.583.515.749.967 1.888 1.21 3.048.648 3.112 2.785 8.708 4.544 11.9.824 1.495.97 2.034 1.117 4.13.155 2.22.257 2.56 1.295 4.307a47.927 47.927 0 0 0 2.47 3.67c1.412 1.868 2.663 4.505 3.29 6.943.668 2.594 2.292 7.498 3.044 9.194.668 1.504.69 1.654.254 1.654-.264 0-1.787-.923-3.386-2.05z" transform="scale(1.1821) rotate(17.749 108.182 82.58)"/>
      <g>
        <path style="fill:#000;stroke-width:.264583" d="M220.306 54.234c.393-.392.774-.653.848-.58.242.243-.667 1.294-1.12 1.294-.345 0-.286-.156.272-.714zM237.705 69.897c-.182-.219-.494-.397-.694-.397-.2 0-.365-.106-.365-.234 0-.29 3.453-3.545 3.602-3.396.06.06-.072.617-.292 1.24-.22.624-.4 1.41-.4 1.747 0 .337-.264.798-.587 1.025-.729.51-.852.511-1.264.015zM227.36 96.787c.49-.686 1.644-1.623 2-1.623.469 0-.002.875-.844 1.569-1.285 1.059-1.89 1.087-1.155.054zM222.359 104.755c0-.22 1.605-1.65 3.042-2.71l.53-.39-.53.621c-.794.93-3.042 2.763-3.042 2.48z" transform="scale(1.1821) rotate(-16.759 69.568 198.98)"/>
        <path style="fill:#000;stroke-width:.264583" d="M104.508 192.068c.098-.546.355-1.409.572-1.918.216-.51.84-2.236 1.386-3.837.546-1.6 1.674-4.398 2.508-6.217.833-1.82 1.785-4.022 2.115-4.895 1.024-2.712 3.015-9.431 3.976-13.418.506-2.096 1.115-4.34 1.354-4.986.274-.741.512-2.592.645-5.012.158-2.88.381-4.415.894-6.155.376-1.276.684-2.54.684-2.808 0-.27.357-.939.794-1.488.864-1.087.96-1.881.509-4.233-.14-.728-.288-2.514-.331-3.969-.043-1.455-.222-2.911-.399-3.235-.258-.475-.242-.776.08-1.55.221-.528.313-1.096.205-1.262-.108-.167-.262-1.672-.342-3.346-.112-2.345-.257-3.213-.636-3.787-.34-.514-.477-1.159-.444-2.088.04-1.128-.013-1.294-.325-1.034-.305.253-.405.136-.552-.647-.098-.525-.107-1.28-.02-1.677.158-.718-.425-2.286-.735-1.976-.266.265-.41-.919-.571-4.715-.09-2.089-.318-4.083-.54-4.712l-.384-1.09.92-.92c1.08-1.08 1.206-2.183.39-3.415-.943-1.423-.72-2.696.883-5.061 1.92-2.832 4.015-4.286 7.98-5.54 1.801-.569 3.065-1.122 3.315-1.452.351-.461.878-.565 3.969-.78 3.73-.26 5.807-.725 11.37-2.547l3.042-.997 5.953-.023 5.953-.023 4.366-1.096a513.105 513.105 0 0 0 10.054-2.676c3.129-.869 7.237-1.953 9.128-2.409 5.122-1.234 8.835-2.793 11.168-4.688.613-.497 1.563-1.092 2.111-1.321.548-.23 1.506-.766 2.127-1.194 1.251-.86 1.309-.795.734.835-.765 2.169-.4 2.689.946 1.343.615-.614.775-1.009.778-1.918.005-1.503.17-1.705 1.583-1.937 1.351-.223 2.524-.756 2.754-1.253.125-.267.188-.268.311-.006.437.937 2.368-.222 3.822-2.296.59-.84 1.336-1.648 1.657-1.794.321-.145 1.18-.53 1.907-.854.728-.324 2.106-1.115 3.062-1.758.957-.643 1.826-1.17 1.932-1.17.106 0-.498.578-1.342 1.283-3.49 2.915-3.875 3.48-2.372 3.48.613 0 1.262-.295 2.128-.97 1.098-.855 1.226-1.059 1.08-1.72-.199-.906.547-1.375 1.063-.669.281.384.38.346.896-.354.72-.972 1.178-1.04.83-.123-.2.524-.17.661.147.661.314 0 .34.111.126.512-.68 1.272-.137 1.022 1.443-.664 1.751-1.87 1.81-1.969 1.742-2.892-.022-.291.14-.768.359-1.058.394-.521.399-.52.407.067.01.724.453.751 1.323.082.653-.501.654-.501 1.408.287.606.635.829.728 1.133.476.208-.173.378-.702.378-1.175 0-.914.608-1.705.92-1.2.096.155.286.214.421.13.453-.28.253.714-.3 1.492-.435.61-.467.768-.155.768.216 0 .437-.134.492-.298.055-.164.868-.575 1.808-.913l1.709-.615-1.588 1.458c-1.786 1.641-1.746 1.664.662.372 1.028-.55 2.465-1.68 3.572-2.804 1.018-1.036 2.268-2.087 2.778-2.335.509-.25 1.58-1.152 2.381-2.008 4.565-4.02 3.307.192 3.307.192-1.091 1.113-1.984 2.225-1.984 2.47 0 .247-.19.606-.423.798-.356.296-.462.28-.674-.1-.513-.916-1.069-.334-1.392 1.46l-.178.983 1.504-.791c.827-.435 1.568-.726 1.648-.647.29.29-2.25 2.582-3.66 3.3-.969.494-1.753 1.156-2.344 1.98-.54.752-1.345 1.46-2.05 1.802-.64.31-1.162.642-1.162.738 0 .303-1.867 2.631-2.11 2.631-.128 0-.283-.208-.344-.463-.098-.413-.13-.405-.298.066-.628 1.77-.937 2.052-2.653 2.422-.907.196-1.131.403-1.767 1.638-.4.777-.945 1.66-1.21 1.961-.914 1.04 2.194-.85 3.824-2.325 1.269-1.149 4.87-3.299 5.524-3.299.103 0-.599.774-1.559 1.72s-1.905 1.72-2.1 1.72c-.545 0-1.143 1.078-.737 1.329.39.241.105.787-.413.787-.515 0-1.114 1.126-.676 1.272.176.059.434.41.575.779l.256.672.633-.595c.349-.328.768-.513.93-.412.17.105.753-.335 1.366-1.03 1.066-1.212 1.672-1.57 1.383-.818-.083.218-.046.397.084.397.3 0 2.672-2.469 3.622-3.77.79-1.083 1.123-1.19 1.903-.61.487.361.392.494-1.845 2.579-1.297 1.209-2.785 2.455-3.307 2.77-.522.314-1.22.937-1.55 1.384-.33.447-.978 1.01-1.441 1.249l-.842.435.627.508c.345.28.66.813.7 1.185.04.373.134.74.21.816.355.355-.446 1.127-1.17 1.127-.597 0-.872.185-1.19.798-.38.734-.377.813.034.97.646.248 2.207-.677 5.488-3.25 2.901-2.275 3.938-2.738 2.268-1.011-.672.694-.77.893-.379.766.304-.1.032.27-.637.867-.67.597-1.088 1.167-.982 1.338.108.175-.283.632-.95 1.108-.625.446-1.733 1.373-2.465 2.06a50.808 50.808 0 0 1-3.04 2.572 42.404 42.404 0 0 0-3.3 2.91c-1.433 1.43-1.531 1.596-.991 1.673.33.046.53.195.447.33-.53.858 1.862-.693 3.035-1.967.762-.829 1.179-.903.946-.168-.298.939.328.566 1.7-1.012.738-.848 2.026-2.038 2.863-2.646.837-.607 1.76-1.466 2.051-1.91.291-.442 1.184-1.301 1.985-1.909.8-.607 1.99-1.581 2.645-2.164.846-.752.996-.831.52-.273-2.116 2.476-5.005 5.349-5.81 5.776-.51.271-1.477.909-2.149 1.417-1.184.896-1.217.958-1.09 2.088.117 1.035.025 1.301-.829 2.397-.528.678-.96 1.34-.96 1.472 0 .588-2.63 3.223-3.823 3.832-1.223.623-1.277.691-.81 1.033.644.47.94.46 1.68-.058 1.318-.923.75-.057-1.4 2.138-1.244 1.27-2.262 2.467-2.262 2.66 0 .195-.793 1.046-1.763 1.892-3.937 3.437-6.23 5.936-5.822 6.345.072.072.469-.073.881-.323.453-.273.247.007-.517.707-3.203 2.929-4.156 3.877-4.156 4.136 0 .153.898-.32 1.996-1.05 1.098-.732 2.055-1.27 2.127-1.199.072.073-.405.707-1.06 1.41-.654.703-1.15 1.319-1.102 1.367.049.05.55-.18 1.114-.507.886-.515.972-.529.63-.1-.22.274-.993.896-1.72 1.384-2.317 1.552-3.362 2.435-4.147 3.502-.88 1.198-4.145 3.375-7.037 4.693-1.855.845-1.963.866-1.559.301 1.4-1.954.93-2.092-1.133-.33-2.086 1.78-3.39 2.61-5.307 3.372-3.23 1.286-6.77 3.08-7.4 3.75-.595.635-1.813.972-1.464.407.341-.552-.495-.233-1.343.512-1.388 1.218-2.94 2.032-6.62 3.472-1.877.735-3.855 1.625-4.394 1.979-.539.353-1.789.878-2.778 1.165-.989.287-2.988.935-4.444 1.44-2.916 1.012-7.547 1.786-10.787 1.804-2.5.014-3.292.477-3.418 2-.08.951-.12.986-1.375 1.195-1.283.214-3.005 1.2-3.974 2.277-.317.353-.823.56-1.367.56-1.351 0-1.58.184-2.51 2.016-.858 1.69-1.601 2.48-3.407 3.625-.612.388-.987.88-1.146 1.503-.13.509-.345 1.039-.48 1.177-.133.138-.243.632-.243 1.098 0 .465-.357 1.525-.794 2.355-.885 1.682-.985 2.249-.397 2.249.535 0 .5.354-.087.885-.538.487-.885.339-.65-.276.11-.284.009-.37-.348-.303-.305.059-.531.355-.576.755-.165 1.467-.394 1.948-1.487 3.129-.686.74-1.377 1.87-1.728 2.821-.48 1.308-.994 1.993-2.911 3.885-1.28 1.264-2.88 3.032-3.554 3.929-.786 1.046-1.227 1.456-1.229 1.142 0-.282-.45.215-1.058 1.175-.58.916-1.056 1.723-1.056 1.795 0 .072.252-.004.56-.168l.558-.299-.493.837c-.27.46-.867 1.07-1.325 1.353-.458.284-1.011.788-1.23 1.12-.617.944-3.123 3.62-3.388 3.62-.131 0-.238-.476-.238-1.059 0-.582-.068-1.058-.15-1.058-.083 0-.575.325-1.095.721l-.945.72.176-.654c.097-.36-.238.134-.744 1.098-.506.964-1.097 1.82-1.312 1.903-.216.083-.813.808-1.327 1.612-.517.808-1.417 1.765-2.013 2.142-.592.374-1.185.962-1.315 1.306-.285.749-.859 1.162-1.005.724-.142-.425-.589-.395-.589.04 0 .362-1.076 1.5-1.418 1.5-.106 0-.113-.446-.016-.992z" transform="scale(1.1821) rotate(-16.759 69.568 198.98)"/>
      </g>
    </g>
  </g>
</svg>
