<?xml version="1.0" encoding="UTF-8" standalone="no"?>
<svg
   xmlns:dc="http://purl.org/dc/elements/1.1/"
   xmlns:cc="http://creativecommons.org/ns#"
   xmlns:rdf="http://www.w3.org/1999/02/22-rdf-syntax-ns#"
   xmlns:svg="http://www.w3.org/2000/svg"
   xmlns="http://www.w3.org/2000/svg"
   xmlns:sodipodi="http://sodipodi.sourceforge.net/DTD/sodipodi-0.dtd"
   xmlns:inkscape="http://www.inkscape.org/namespaces/inkscape"
   width="100%"
   height="100%"
   viewBox="0 0 211.8223 211.82229"
   version="1.1"
   id="svg1522"
   inkscape:version="1.0.1 (0767f8302a, 2020-10-17)"
   sodipodi:docname="Boros Legion.svg">
  <defs
     id="defs1516">
    <filter
       style="color-interpolation-filters:sRGB"
       inkscape:label="Drop Shadow"
       id="filter2113">
      <feFlood
         flood-opacity="0.803922"
         flood-color="rgb(42,29,4)"
         result="flood"
         id="feFlood2103" />
      <feComposite
         in="flood"
         in2="SourceGraphic"
         operator="in"
         result="composite1"
         id="feComposite2105" />
      <feGaussianBlur
         in="composite1"
         stdDeviation="2"
         result="blur"
         id="feGaussianBlur2107" />
      <feOffset
         dx="0"
         dy="2.3"
         result="offset"
         id="feOffset2109" />
      <feComposite
         in="SourceGraphic"
         in2="offset"
         operator="over"
         result="composite2"
         id="feComposite2111" />
    </filter>
  </defs>
  <sodipodi:namedview
     id="base"
     pagecolor="#ffffff"
     bordercolor="#666666"
     borderopacity="1.0"
     inkscape:pageopacity="0.0"
     inkscape:pageshadow="2"
     inkscape:zoom="2.8"
     inkscape:cx="103.73438"
     inkscape:cy="129.60822"
     inkscape:document-units="mm"
     inkscape:current-layer="layer1"
     inkscape:document-rotation="0"
     showgrid="false"
     inkscape:window-width="1647"
     inkscape:window-height="1212"
     inkscape:window-x="896"
     inkscape:window-y="95"
     inkscape:window-maximized="0"
     fit-margin-top="0"
     fit-margin-left="0"
     fit-margin-right="0"
     fit-margin-bottom="0" />
  <metadata
     id="metadata1519">
    <rdf:RDF>
      <cc:Work
         rdf:about="">
        <dc:format>image/svg+xml</dc:format>
        <dc:type
           rdf:resource="http://purl.org/dc/dcmitype/StillImage" />
        <dc:title></dc:title>
      </cc:Work>
    </rdf:RDF>
  </metadata>
  <g
     inkscape:label="Layer 1"
     inkscape:groupmode="layer"
     id="layer1"
     transform="translate(1.7056339,-8.8786099)">
    <circle
       style="fill:#ff8182;fill-opacity:1;fill-rule:evenodd;stroke:#2b1f07;stroke-width:3.565;stroke-miterlimit:4;stroke-dasharray:none;stroke-opacity:1"
       id="path2101"
       cx="104.20551"
       cy="114.78976"
       r="104.12865" />
    <path
       style="fill:#000000;stroke-width:0.216834;filter:url(#filter2113)"
       d="m 135.9187,206.1246 c -0.0595,-0.25708 -2.01053,-10.06734 -4.33569,-21.80056 l -4.22757,-21.33313 5.03031,-5.22912 c 2.76667,-2.87603 5.3028,-5.52564 5.63585,-5.88805 0.52517,-0.57147 1.03831,-2.255 3.86625,-12.68484 1.7934,-6.61424 3.31711,-12.20888 3.38603,-12.43252 0.11704,-0.37982 -9.74467,4.4969 -24.32016,12.02657 l -4.12496,2.13094 -14.08916,-6.49145 -14.089168,-6.49144 -7.101344,-0.005 -7.101335,-0.005 v -1.51785 -1.51784 H 86.15683 97.865908 V 116.971 109.05654 H 78.784443 59.702986 v 13.21836 13.21836 l 10.299653,13.45178 c 5.664808,7.39848 10.299653,13.59198 10.299653,13.76335 0,0.17135 -1.223416,6.09931 -2.718703,13.17323 -1.495287,7.07393 -3.552307,16.81331 -4.57115,21.64305 -1.018852,4.82975 -1.883475,8.81239 -1.921403,8.85031 -0.140337,0.14034 -5.084776,-1.98917 -7.942078,-3.42055 -4.623264,-2.31605 -10.019782,-5.87522 -12.701745,-8.3772 l -0.907625,-0.84672 3.78707,-10.7221 3.787071,-10.72211 -1.600122,-1.63748 c -9.524195,-9.74575 -15.934254,-22.9596 -17.885996,-36.86988 l -0.37996,-2.70795 -15.552286,-4.86233 c -8.553761,-2.67429 -15.5068836,-4.90775 -15.4513766,-4.96326 0.055482,-0.0555 7.1975236,-2.07201 15.8711496,-4.48112 9.815153,-2.72617 15.827919,-4.49658 15.923002,-4.68838 0.08402,-0.1695 0.481074,-1.69348 0.882342,-3.38665 L 39.650063,105.61079 25.725189,93.953666 C 18.066498,87.542238 11.831876,82.264961 11.870468,82.226369 c 0.0386,-0.0386 8.197936,1.157197 18.13188,2.657312 9.933945,1.500106 18.119112,2.644986 18.189264,2.544175 0.07015,-0.100811 0.461176,-0.666485 0.868951,-1.257057 0.407767,-0.590564 1.200665,-1.659203 1.761988,-2.374762 L 51.84314,82.495029 42.025774,65.148244 c -5.39955,-9.540728 -9.787912,-17.377879 -9.75191,-17.415885 0.03598,-0.03801 7.786514,4.478331 17.223354,10.036314 9.436849,5.557979 17.38109,10.207108 17.65388,10.331398 0.419077,0.190951 0.728991,0.08244 1.999005,-0.699939 0.826671,-0.509249 1.526175,-0.938406 1.554457,-0.953674 0.02827,-0.01524 -1.155623,-9.583296 -2.630881,-21.262287 -1.475266,-11.678992 -2.656713,-21.263393 -2.625439,-21.298668 0.03942,-0.04449 23.884551,32.595646 25.478953,34.876618 0.153178,0.219139 3.094745,-0.294254 3.17805,-0.554668 0.03778,-0.118114 2.124443,-9.96954 4.637008,-21.892054 2.512569,-11.922512 4.589979,-21.698977 4.616489,-21.725475 0.0265,-0.0265 2.24091,9.718501 4.92092,21.655555 2.68002,11.937051 4.97041,21.82678 5.08976,21.977172 0.11935,0.150392 0.80733,0.338249 1.52885,0.417461 l 1.31183,0.144019 12.89084,-17.543044 c 7.08996,-9.648676 12.91905,-17.475009 12.95352,-17.391853 0.0571,0.137908 -5.48879,41.019779 -5.68317,41.893327 -0.062,0.278486 0.39621,0.667543 1.74703,1.483478 1.00707,0.608298 1.95875,1.056985 2.11484,0.997085 0.29084,-0.111604 33.63721,-19.668781 34.6007,-20.292824 0.29354,-0.190118 0.47756,-0.248095 0.40893,-0.128836 -1.9979,3.472028 -19.27668,34.142724 -19.36453,34.373012 -0.0777,0.203679 0.46406,1.116516 1.41558,2.385186 0.8478,1.130374 1.61267,2.182351 1.69969,2.337718 0.12587,0.224683 3.78802,-0.231706 17.8977,-2.230465 9.7567,-1.382119 17.77138,-2.481022 17.8104,-2.441996 0.039,0.03901 -5.36319,4.65303 -12.00493,10.25335 -6.64174,5.600319 -12.71924,10.733541 -13.50555,11.407161 l -1.42966,1.22477 0.90528,3.65401 0.90529,3.65402 15.64966,4.5382 c 8.60732,2.49602 15.57447,4.60657 15.48256,4.69012 -0.0919,0.0836 -6.968,2.18004 -15.2802,4.65886 l -15.1131,4.50694 -0.14196,1.21101 c -1.71352,14.61683 -7.82902,27.64943 -18.16505,38.71106 l -2.24027,2.39754 4.20099,10.29965 4.201,10.29966 -0.52399,0.43366 c -6.73589,5.57485 -12.58468,9.00115 -20.47549,11.99483 l -1.13939,0.43227 z M 108.70764,101.14771 V 79.143876 l -8.58319,-0.05909 c -4.720763,-0.03254 -8.623789,-0.01844 -8.673396,0.03122 -0.04958,0.04966 -0.09019,6.270141 -0.09019,13.82322 V 106.6721 h 4.878778 4.878788 v 8.23972 8.23972 h 3.7946 3.79461 z m 19.51513,3.24763 V 85.639135 h -8.1313 -8.13131 v 18.756205 18.7562 h 8.13131 8.1313 z m 17.34679,2.27676 V 90.192665 h -7.26397 -7.26396 v 16.479435 16.47944 h 7.26396 7.26397 z m -57.244303,-0.27104 c -4.1e-5,-0.0894 -8.2e-5,-4.79746 -8.2e-5,-10.462272 V 85.639135 h -8.890228 -8.89022 v 10.518886 10.518899 l 8.89031,-0.0566 c 4.88967,-0.0311 8.890269,-0.1298 8.89022,-0.21925 z"
       id="path2099" />
  </g>
</svg>
