<?xml version="1.0"?>
<svg xmlns="http://www.w3.org/2000/svg" viewBox="0 0 241.225 241.225">
  <defs>
    <filter style="color-interpolation-filters:sRGB" id="a">
      <feFlood flood-opacity=".804" flood-color="#2A1D04" result="flood"/>
      <feComposite in="flood" in2="SourceGraphic" operator="in" result="composite1"/>
      <feGaussianBlur in="composite1" stdDeviation="2" result="blur"/>
      <feOffset dy="2.3" result="offset"/>
      <feComposite in="SourceGraphic" in2="offset" result="composite2"/>
    </filter>
  </defs>
  <g transform="translate(18.318 -34.078)">
    <circle style="fill:#9dff85;fill-opacity:1;fill-rule:evenodd;stroke:#4b0909;stroke-width:3.465;stroke-miterlimit:4;stroke-dasharray:none;stroke-opacity:1" cx="102.295" cy="154.691" r="118.88"/>
    <path style="fill:#000;stroke-width:.257234;filter:url(#a)" d="M97.355 266.813c-.593-1.733-1.364-3.643-1.714-4.245-1.125-1.933-2.263-1.42-5.5 2.485-1.203 1.452-2.536 2.848-2.96 3.102-.704.421-.919.431-2.444.113-2.867-.597-6.37-1.451-6.632-1.618-.16-.102-.163-.754-.007-1.83.324-2.22.061-5.01-.598-6.373-.526-1.088-1.55-1.86-2.466-1.86-.912 0-2.403 1.332-4.308 3.848-1.062 1.401-2.044 2.619-2.183 2.704-.24.148-3.789-1.227-4.189-1.623-.104-.103 1.501-2.21 3.566-4.68 4.336-5.187 7.428-9.222 8.022-10.47.348-.728.358-.905.062-1.088-.664-.41-1.898.364-6.573 4.127-5.287 4.256-8.644 6.347-11.759 7.324l-1.47.461-1.845-1.227-1.846-1.227 3.184-1.666c7.424-3.882 13.093-8.474 13.093-10.605 0-.493-.991-.312-4.724.86-7.41 2.33-10.838 2.968-16.973 3.159l-4.59.142-2.676-2.667c-1.473-1.467-2.677-2.727-2.677-2.8 0-.074 2.517-.096 5.595-.05 7.977.119 12.597-.505 18.597-2.511 6.135-2.051 10.252-4.608 14.925-9.268 5.716-5.702 9.207-12.025 11.43-20.7 2.486-9.705 2.47-18.474-.05-26.504-4.1-13.07-15.895-21.588-31.892-23.028-8.606-.776-18.505 1.505-32.854 7.57-2.53 1.07-4.647 1.946-4.701 1.946-.055 0-.067-1.633-.028-3.628l.071-3.628 8.933-4.54c4.913-2.496 8.93-4.597 8.926-4.668-.003-.07-3.86-2.884-8.57-6.252l-8.565-6.123.667-3.31c.367-1.821.747-3.39.844-3.485.097-.096 5.248 2.986 11.447 6.85l11.27 7.023 9.26.31c5.094.17 12.56.393 16.592.497l7.331.187-13.504-9.477-13.505-9.476-13.214-.964c-7.268-.53-13.257-1.007-13.31-1.06-.052-.052.503-1.58 1.234-3.396l1.33-3.3 10.5.18c8.164.141 10.502.112 10.502-.13 0-.173-2.086-4.41-4.635-9.417-2.873-5.644-4.56-9.231-4.437-9.437.655-1.103 4.08-4.732 4.279-4.533.128.128 3.214 5.288 6.857 11.466l6.623 11.232 14.347 8.463c7.891 4.655 14.373 8.434 14.403 8.398.03-.036-3.159-6.606-7.088-14.6l-7.144-14.533-11.204-7.588C52.248 95.5 47.203 92.028 47.2 91.958c-.015-.245 5.195-4.502 5.427-4.435.128.037 4.163 2.316 8.968 5.064 8.005 4.578 8.745 4.949 8.847 4.434.06-.309.354-4.613.652-9.565.298-4.952.599-9.371.67-9.82.124-.795.217-.848 3.271-1.866 1.73-.576 3.23-1.047 3.336-1.047.106 0 .193 5.946.193 13.213v13.212l8.553 14.07 8.553 14.07.164-2.009c.09-1.105.426-8.608.745-16.672l.582-14.662-6.06-11.319c-3.334-6.225-6.027-11.352-5.986-11.394.144-.147 5.67-1.593 6.09-1.594.28-.001 2.146 2.824 5.52 8.358 2.802 4.598 5.16 8.36 5.238 8.36.078 0 2.436-3.762 5.241-8.36 3.444-5.646 5.239-8.358 5.529-8.354.426.006 5.967 1.454 6.095 1.593.037.04-2.655 5.166-5.983 11.391l-6.05 11.319.044 2.058c.072 3.432 1.288 31.064 1.371 31.146.042.043 3.923-6.248 8.624-13.979l8.546-14.055V87.919c0-7.258.087-13.196.193-13.196.106 0 1.602.47 3.324 1.043l3.131 1.044.14.95c.077.522.386 5.06.687 10.082.302 5.022.59 9.272.64 9.443.057.19 3.539-1.658 8.842-4.69 4.811-2.753 8.853-5.034 8.98-5.072.232-.067 5.442 4.19 5.427 4.435-.004.07-5.05 3.536-11.215 7.701l-11.207 7.574-4.5 9.147c-7.3 14.836-9.84 20.106-9.643 20.004.102-.054 6.61-3.883 14.462-8.51l14.276-8.413 6.689-11.426c3.678-6.285 6.746-11.431 6.818-11.437.126-.01 3.396 3.741 4.042 4.636.265.368-.414 1.87-4.395 9.726-2.59 5.11-4.646 9.355-4.569 9.433.078.077 4.843.06 10.588-.04l10.447-.179 1.33 3.3c.73 1.816 1.286 3.344 1.233 3.397-.053.052-6.042.527-13.31 1.055l-13.213.96-13.505 9.478-13.505 9.478 7.331-.185c4.032-.102 11.499-.325 16.592-.496l9.26-.311 11.383-7.105c10.344-6.456 11.395-7.053 11.514-6.545.073.307.403 1.91.734 3.561l.601 3.003-8.57 6.13c-4.715 3.37-8.572 6.186-8.573 6.256-.001.071 4.017 2.173 8.93 4.671l8.933 4.543.071 3.625c.04 1.993.019 3.625-.046 3.625-.064 0-2.18-.876-4.701-1.946-14.207-6.03-24.235-8.34-32.878-7.575-15.695 1.39-27.438 9.757-31.772 22.64-3.692 10.97-2.151 25.824 3.894 37.556 5.378 10.435 14.114 17.364 25.609 20.31 4.802 1.23 6.579 1.412 13.906 1.42 3.856.003 7.01.062 7.01.13 0 .069-1.184 1.313-2.632 2.766l-2.632 2.64-3.606-.004c-5.765-.007-10.674-.883-18.052-3.216-3.648-1.155-4.718-1.361-4.718-.912 0 2.16 5.84 6.906 13.147 10.685l3.15 1.63-1.882 1.218-1.882 1.217-1.443-.452c-3.139-.984-6.28-2.955-12.23-7.674-4.379-3.471-5.67-4.272-6.138-3.805-.608.608 1.812 4.061 8.13 11.595 2.072 2.472 3.684 4.572 3.58 4.666-.425.39-3.946 1.785-4.165 1.65-.13-.08-1.162-1.345-2.293-2.81-1.974-2.558-3.331-3.756-4.255-3.756-.952 0-2.002.825-2.509 1.97-.617 1.394-.852 4.249-.531 6.456l.233 1.61-.922.238-1.96.508c-.57.148-2.1.487-3.4.754l-2.362.485-.863-.587c-.475-.323-1.762-1.704-2.86-3.069-3.124-3.883-4.372-4.348-5.594-2.082-.376.697-1.114 2.578-1.641 4.18l-.959 2.914h-7.074zm-11.71-4.685c1.262-1.338 2.779-3.758 4.63-7.387 1.893-3.708 2.003-4.159.957-3.913-2.298.54-6.068 3.413-6.967 5.31-.575 1.212-.969 4.56-.703 5.975.224 1.198.962 1.204 2.083.015zm34.744-.05c.277-1.476-.297-5.374-.945-6.422-1.113-1.802-4.789-4.397-6.863-4.845-.823-.178-.833-.17-.574.51.144.38.973 2.085 1.841 3.789 3.446 6.759 6.058 9.54 6.54 6.967zm-16.61-3.818c.526-1.132 1.164-2.715 1.417-3.519.455-1.447.454-1.476-.13-3.087-.661-1.819-2.156-4.963-2.723-5.726-.367-.495-.375-.495-.758 0-.59.76-2.058 3.891-2.734 5.832-.602 1.726-.603 1.737-.131 3.087.26.745 1.054 2.567 1.763 4.048l1.29 2.692.524-.635c.289-.349.955-1.56 1.482-2.692zm-20.227-9.43c1.996-1.153 3.831-2.324 4.079-2.6.627-.7.61-2.247-.023-2.247-1.42 0-5.866 3.027-7.246 4.932-.702.968-1.015 2.014-.604 2.014.091 0 1.798-.945 3.794-2.098zm40.8 1.623c0-1.304-3.156-4.275-6.086-5.73-1.933-.96-2.57-.917-2.442.165.05.422.188.95.308 1.174.119.223 1.64 1.229 3.382 2.234 1.74 1.005 3.397 2.005 3.68 2.222.697.535 1.157.509 1.157-.065zM-1.82 163.333c-6.365-3.737-11.6-6.885-11.634-6.995-.033-.11 5.373-3.384 12.013-7.274 6.64-3.891 12.078-7.166 12.084-7.28.006-.112-4.1-4.85-9.124-10.53-5.024-5.68-9.046-10.403-8.939-10.497.108-.094 6.041-1.41 13.186-2.926 7.145-1.516 13.245-2.835 13.556-2.932.541-.168.305-.756-5.335-13.276-3.245-7.205-5.869-13.132-5.83-13.17.038-.04 6.479.504 14.312 1.207 7.834.702 14.287 1.233 14.34 1.18.054-.054-.584-6.336-1.417-13.96-.833-7.624-1.484-13.899-1.446-13.944.063-.077 24.354 10.256 25.412 10.81.4.21.078.477-2.058 1.713-16.504 9.553-29.476 23.52-37.901 40.807-4.926 10.108-7.85 20.252-9.302 32.283-.363 3.014-.456 15.166-.146 19.1.11 1.38.11 2.502 0 2.494-.109-.007-5.406-3.072-11.771-6.81zm195.816 4.187c.303-4.109.21-15.714-.149-18.714-2.506-20.921-10.07-38.365-23.258-53.633-6.768-7.836-15.073-14.625-24.472-20.005-1.751-1.002-1.962-1.196-1.544-1.415 1.049-.55 25.36-10.895 25.42-10.817.033.045-.62 6.317-1.454 13.937-.834 7.62-1.469 13.902-1.412 13.96.058.057 6.514-.471 14.347-1.173 7.834-.703 14.273-1.247 14.31-1.21.037.036-2.588 5.957-5.834 13.157-3.246 7.2-5.873 13.12-5.837 13.157.036.036 6.138 1.36 13.56 2.943 7.422 1.583 13.581 2.954 13.686 3.045.106.092-3.911 4.792-8.926 10.445-5.015 5.653-9.12 10.394-9.122 10.536-.002.141 5.43 3.44 12.07 7.33 6.64 3.891 12.077 7.147 12.081 7.235.007.152-23.269 13.859-23.534 13.859-.07 0-.039-1.187.068-2.637zm-133.6-94.276c.073-.248 1.314-6.412 2.76-13.698 1.445-7.286 2.657-13.285 2.692-13.332.036-.046 2.94 2.377 6.455 5.386l10.845 9.28c2.45 2.096 4.38 3.81 4.289 3.81-.092 0-2.098.415-4.456.92-6.62 1.42-14.77 4.248-20.425 7.086-2.273 1.141-2.337 1.157-2.16.548zm81.061-.503c-5.789-2.98-13.944-5.771-21.32-7.296-1.965-.406-3.603-.77-3.64-.81-.037-.04 4.794-4.218 10.737-9.285 5.942-5.067 10.832-9.176 10.865-9.132.034.044 1.244 6.042 2.69 13.328 1.445 7.286 2.686 13.45 2.758 13.698.179.613-.014.566-2.09-.503zm-53.342-8.228c.052-.128 2.918-5.147 6.37-11.153a5702.782 5702.782 0 0 0 6.816-11.883c.298-.53.6-.959.67-.955.135.008 13.904 23.993 13.815 24.063-.029.022-1.21-.14-2.624-.36-4.975-.773-21.543-.517-24.661.381-.264.076-.438.034-.386-.093z"/>
  </g>
</svg>
