<svg xmlns="http://www.w3.org/2000/svg" viewBox="0 0 291.444 291.444"><defs><filter style="color-interpolation-filters:sRGB" id="a"><feFlood flood-opacity=".804" flood-color="#2A1D04" result="flood"/><feComposite in="flood" in2="SourceGraphic" operator="in" result="composite1"/><feGaussianBlur in="composite1" stdDeviation="2" result="blur"/><feOffset dy="2.3" result="offset"/><feComposite in="SourceGraphic" in2="offset" result="composite2"/></filter></defs><g transform="translate(37.087 6.224)"><circle style="fill:#ff822b;fill-opacity:1;fill-rule:evenodd;stroke:#191a1e;stroke-width:4.865;stroke-miterlimit:4;stroke-dasharray:none;stroke-opacity:1" cx="108.635" cy="139.498" r="143.289"/><path style="fill:#000;stroke-width:.0535909;filter:url(#a)" d="M103.34 270.293c0-.022-.023-.185-.051-.361-.245-1.54-.395-5.121-.564-13.452-.133-6.537-.21-8.461-.342-8.543-.225-.14-.799-.665-.969-.888-.381-.502-.384-.526-.214-1.833.144-1.106.147-1.514.016-1.74-.142-.242-.504-.404-1.148-.514l-.548-.094.033-.643c.019-.354.178-2.018.354-3.698.467-4.456.59-5.784.764-8.253.093-1.32.093-4.689 0-5.252-.088-.523-.204-.942-.298-1.07-.246-.337-1.562.38-3.919 2.138-3.542 2.642-4.391 3.23-5.306 3.68-.432.211-.67.288-1.215.393-1.257.241-2.169.557-3.433 1.19-1.677.84-2.815 1.6-6.204 4.145-3.062 2.3-4.207 3.071-5.473 3.686-1.116.542-1.945.763-2.861.763h-.569l.662-.656c.909-.9 1.254-1.452 1.109-1.772-.092-.201-.31-.27-.76-.237-.588.041-.884.192-3.335 1.692-1.969 1.206-3.014 1.795-3.488 1.968-.574.21-.81.174-1.604-.24-.947-.495-1.2-.454-2.057.336-.63.58-1.044.872-2.792 1.967-1.948 1.22-2.406 1.57-2.535 1.936-.044.125.142.345.41.486.25.132.687.15 1.696.071.64-.05.626-.056.984.483.242.365.34.382.686.122.7-.525 1.524-.867 2.322-.965.421-.052.684-.047 1.54.03.568.05 1.088.104 1.156.117.102.02-.023.14-.777.735-1.695 1.34-7.59 5.905-14.316 11.088-2.606 2.008-2.768 2.123-3.055 2.178-.534.101-1.192.124-2.054.071-.73-.045-.88-.07-1.152-.194-.379-.173-.588-.361-.72-.646-.186-.401-.106-.74.218-.925.3-.172 1.15-.994 1.426-1.382.46-.645.622-1.187.415-1.394-.234-.233-1.146.078-2.242.763a4.523 4.523 0 0 1-.803.391 18.68 18.68 0 0 0-1.125.445c-1.153.493-1.627.675-2.048.787-.5.133-1.166.229-1.43.207l-.21-.018.665-.588c.365-.324 1.991-1.795 3.612-3.27 6.78-6.165 8.775-7.911 10.153-8.885 1.612-1.138 2.613-1.918 5.657-4.404 4.452-3.637 5.617-4.541 7.207-5.597.98-.65 1.456-.916 2.707-1.508 1.258-.595 2.852-1.415 3.67-1.887 1.6-.923 2.37-1.479 3.437-2.485 1.216-1.146 1.57-1.41 2.57-1.922.92-.47 1.547-.984 2.324-1.903.636-.752.996-1.254 2.393-3.332 2.005-2.982 2.825-4.026 3.802-4.84.768-.639 1.656-1.1 2.121-1.1.329 0 .557.16 1.417.992.637.616.921.852 1.206 1 .502.262.774.305.986.154.22-.156.935-.483 1.903-.868 2.353-.937 2.875-1.407 2.386-2.146-.574-.866-8.479-9.727-10.61-11.893l-.563-.572-.329-.034c-.18-.019-.76-.056-1.286-.083-1.454-.074-1.869-.238-2.7-1.07-.823-.826-1.51-1.878-2.667-4.084-.348-.663-.722-1.328-.833-1.48-.277-.376-1.112-1.156-1.768-1.65-.3-.227-1.149-.81-1.886-1.297-2.151-1.421-2.952-2.07-3.23-2.615-.15-.294-.233-.776-.172-.991.074-.257.196-.363.68-.594.469-.223.61-.366.706-.716.133-.478.185-.4-1.45-2.142l-3.872-4.126c-5.567-5.93-9.311-10.008-10.261-11.174l-.31-.38-.065-.548c-.218-1.85-.61-3.498-1.167-4.911-.439-1.11-.949-2.052-1.94-3.581-.64-.99-1.078-1.732-1.078-1.829 0-.074.129-.048.684.133 1.047.344 2.48 1.245 3.736 2.351 1.293 1.139 2.36 2.27 4.547 4.815.865 1.007 1.613 1.865 1.662 1.905.117.097.115.054-.018-.529a4.549 4.549 0 0 1-.106-.813c-.001-.306.018-.381.135-.52.162-.193.57-.355 1.026-.407.32-.037.342-.031.626.157.849.563 3.003 2.663 8.817 8.592 3.591 3.662 4.5 4.477 5.377 4.83 1.7.683 3.26 1.875 6.606 5.043 2.01 1.904 2.657 2.438 3.155 2.604.45.15 1.427-.039 1.767-.343.056-.05.23-.264.387-.475.283-.381.607-.65.957-.797.178-.075.186-.072.366.113.428.441.751 1.328 1.353 3.716.561 2.23.798 2.911 1.072 3.091.07.045.26.096.426.113.279.029.316.019.51-.137.266-.214.323-.212.323.011 0 .183-.145.441-.435.773-.642.734-.49 1.218.86 2.745 1.011 1.143 1.853 2.03 5.309 5.592 1.983 2.045 2.443 2.492 2.474 2.412.02-.055.31-3.218.643-7.03.333-3.811.619-6.949.634-6.973.04-.06 1.412-.164 2.184-.164.699 0 .69-.003.876.312.073.122.21.226.44.334.4.187.732.254 1.516.307l.584.039.164 1.619c.09.89.175 1.63.188 1.643.013.013.528-.072 1.143-.188.615-.117 1.127-.203 1.137-.193.01.01.141 2.416.29 5.346.15 2.93.282 5.336.294 5.348.026.027.913-.46 2.883-1.58 4.316-2.453 6.352-3.804 6.518-4.324.03-.093.08-.421.11-.73.044-.43.094-.642.215-.9.282-.602.955-1.163 2.07-1.724 1.539-.775 2.4-.961 3.103-.672.415.171.595.167.89-.02.132-.084.336-.17.452-.192.917-.171 2.924-1.249 5.508-2.958 2.937-1.942 5.466-3.804 12.172-8.963 4.32-3.322 5.377-4.103 5.734-4.24.117-.044.151-.027.266.123.072.095.218.377.324.628.28.66.482.8.902.623.094-.04.461-.265.815-.501 2.615-1.744 16.563-10.079 16.677-9.965.03.03-.332.475-.906 1.11-.633.701-1.534 1.542-3.607 3.369-1.854 1.634-3.164 2.923-3.504 3.45-.309.478-.358.821-.145 1.019.24.222.534.269 1.495.236.617-.02 1.154-.078 1.853-.198.541-.093 1-.152 1.018-.133.142.147-4.155 3.453-10.201 7.847-8.795 6.393-16.906 11.951-19.588 13.424-1.006.553-1.588.99-2.135 1.607-.652.735-.963 1.52-1.166 2.945-.196 1.376-.316 1.721-.736 2.108a2.519 2.519 0 0 1-1.823.649c-.627-.028-.98-.208-1.696-.867-.576-.531-.801-.679-1.032-.679-.14 0-.162.015-1.013.665-.727.556-2.885 1.981-7.066 4.668-5.872 3.774-7.355 4.793-7.248 4.984.173.309 3.1 3.2 7.92 7.822l3.729 3.577c.608.583 1.123 1.06 1.145 1.06.022 0 .241-.19.487-.422.695-.658 1.49-1.132 1.9-1.132.328 0 1.06.626 2.975 2.542 3.758 3.762 7.902 8.457 8.71 9.87.198.347.211.555.055.908-.166.375-.45.695-.89 1l-.39.271 3.68 4.294c7.777 9.072 12.065 14.116 12.065 14.19 0 .028-.139.115-.308.195-.283.132-.362.144-.952.14-.554-.002-.705-.023-1.098-.152-.683-.225-1.416-.589-2.535-1.259-1.137-.68-1.498-.861-1.714-.862-.332-.001-.771.348-.997.791-.246.484-.615 1.786-.78 2.753-.028.171-.056.2-.218.23-.451.085-.929-.226-1.167-.76-.076-.17-.226-.656-.333-1.082-.107-.426-.254-.9-.327-1.055-.222-.47-.685-.8-1.362-.972a2.684 2.684 0 0 1-.623-.242c-.121-.076-.832-.714-1.58-1.416-17.866-16.788-26.016-24.293-26.377-24.293-.153 0-.725.323-.865.489-.422.499-.55 1.08-.619 2.81-.054 1.367-.098 1.779-.246 2.275-.19.644-.553 1.148-1.024 1.424-.223.13-.288.142-.773.134-.988-.016-1.654-.269-2.248-.854l-.362-.356-.03 1.018c-.017.56-.055 2.128-.086 3.484-.165 7.195-.485 12.396-.837 13.62-.064.226-.109.288-.235.332-.234.082-.467-.006-1.052-.397-.565-.378-.73-.445-.85-.346-.136.114-.15.413-.084 1.746.237 4.72-.095 8.345-1.027 11.224-.354 1.095-1.11 2.778-1.114 2.479zm5.386-85.152a42.41 42.41 0 0 1-13.657-2.825c-.997-.387-1.3-.45-3.68-.756-2.478-.318-3.517-.527-4.66-.935-1.505-.537-2.537-1.329-3.082-2.365-.104-.198-.189-.383-.189-.412 0-.028.103-.091.228-.14.556-.217.947-.663.95-1.084 0-.092-.086-.342-.193-.556-.173-.344-.35-.544-1.55-1.745-.888-.89-1.453-1.413-1.64-1.52-.568-.324-1.04-.273-1.518.164l-.285.26-.394-.42c-1.275-1.354-3.605-5.324-5.26-8.959-2.533-5.564-4.214-11.325-4.832-16.56-.349-2.96-.39-6.892-.106-10.315.396-4.8 1.383-8.13 3.4-11.469.8-1.325 1.589-2.448 3.732-5.308.766-1.023 1.523-2.102 1.872-2.669 1.282-2.085 2.014-3.127 2.99-4.259.805-.932 1.621-1.526 3.812-2.77 1.648-.935 1.712-.978 2.197-1.456.448-.442.894-.723 2.794-1.762.792-.433 1.579-.88 1.748-.991l.308-.203v.233c0 .43.405.727.832.609.418-.116.722-.574.722-1.088v-.218l1.112-.003c.964-.003 1.223-.023 1.94-.15 1.542-.271 2.983-.658 5.34-1.432 1.718-.565 1.67-.56 2.809-.263 1.45.378 2.596.345 4.768-.138.339-.076.63-.161.649-.191.02-.034.353.015.912.134 1.387.297 2.04.372 2.969.338.676-.024.923-.058 1.554-.215 1.283-.32 1.123-.332 2.816.222 2.578.846 4.032 1.23 5.603 1.483.533.086 1.837.189 1.997.158.048-.009.261-.029.473-.044.308-.02.38-.012.358.045-.05.134.087.693.222.897.148.224.477.418.707.418.182 0 .47-.167.552-.32.033-.063.077-.208.097-.323l.037-.21.321.205c.177.112.937.54 1.688.953 1.84 1.008 2.314 1.307 2.787 1.762.468.45.777.655 2.197 1.454 1.367.77 1.946 1.13 2.582 1.61 1.185.892 2.398 2.45 4.233 5.435.358.583 1.148 1.699 2.117 2.993 2.15 2.868 3.014 4.125 3.85 5.6 1.236 2.18 2.091 4.583 2.572 7.226.63 3.47.836 8.922.48 12.737-.557 5.959-2.404 12.362-5.378 18.647-1.578 3.334-3.687 6.845-4.859 8.088l-.379.401-.212-.212c-.445-.445-.935-.53-1.495-.263-.269.129-.552.385-1.718 1.552-1.172 1.173-1.425 1.454-1.568 1.74-.274.548-.21.99.191 1.313.18.146.664.406.754.406.1 0 .04.172-.208.595-.534.914-1.313 1.549-2.56 2.086-1.13.487-2.551.794-5.208 1.125-2.226.277-2.557.347-3.68.778a42.348 42.348 0 0 1-13.723 2.791c-.538.02-.978.057-.978.082 0 .043-.37.045-1.26.01zm-10.681-16.065c.457-.157.922-.419 1.464-.823.553-.413.86-.688 2.384-2.132a56.896 56.896 0 0 1 1.689-1.551c1.206-1.006 2.163-1.49 3.081-1.559.221-.016.525-.063.675-.104.258-.07 1.005-.453 1.316-.672.232-.165.792-.413 1.016-.45.115-.02.208-.061.208-.092 0-.084.41-.004.73.142.15.069.537.28.858.47.773.457.959.525 1.655.608 1.483.176 2.298.704 4.884 3.168 2.278 2.17 3.079 2.75 4.14 3 1.442.34 3.372-.633 5.392-2.72.84-.867 1.437-1.619 2.249-2.834.786-1.177 1.115-1.744 1.749-3.01 1.771-3.542 2.801-7.139 3.244-11.326.115-1.095.134-4.12.03-4.957-.215-1.735-.55-3.102-1.238-5.055-.268-.76-.502-1.473-.52-1.583l-.031-.199.298-.094c.362-.114.753-.472.947-.866.105-.214.131-.352.131-.68 0-.377-.012-.425-.148-.567-.086-.09-.277-.194-.456-.25-1.592-.492-2.796-2.28-3.539-5.256-.21-.845-.458-2.156-.734-3.884-.078-.485-.159-.913-.18-.95-.02-.037-.145-.136-.277-.22-.514-.326-1.33-1.072-3.554-3.252-2.841-2.784-3.675-3.541-4.726-4.291-.794-.567-1.596-.935-2.04-.935-.799 0-2.09 1.126-4.398 3.836-2.338 2.745-2.791 3.265-3.275 3.756-.295.299-.654.611-.797.694-.143.083-.268.17-.277.193-.036.084-.207.04-.455-.117-.361-.23-1.236-1.134-2.244-2.319-2.316-2.724-2.864-3.346-3.66-4.159-1.591-1.625-2.18-1.947-3.063-1.678-1.103.336-2.613 1.545-5.566 4.456-3.035 2.992-3.709 3.611-4.273 3.932-.252.142-.247.125-.522 1.83-.488 3.017-.872 4.449-1.58 5.895-.683 1.396-1.49 2.206-2.541 2.55-.439.143-.569.258-.647.57-.173.685.362 1.55 1.125 1.821.146.052.265.107.265.123 0 .08-.252.86-.642 1.983-.684 1.97-1.035 3.49-1.178 5.091-.12 1.348-.06 3.766.135 5.413.756 6.378 3.512 12.68 7.204 16.47 2.195 2.253 4.116 3.125 5.692 2.584zm11.584-10.795c-.295-.163-.762-.485-2.135-1.474a18.66 18.66 0 0 0-1.286-.858c-.9-.504-2.305-.842-3.957-.95-.768-.05-.968-.081-1.208-.188-.894-.395-2.197-1.713-3.242-3.277-.781-1.17-1.44-2.66-1.662-3.763-.133-.658-.155-1.294-.092-2.653.17-3.644.757-6.17 1.845-7.95.396-.648.874-1.29 1.795-2.41.955-1.162 1.059-1.317 1.238-1.847.755-2.23 2.472-3.647 5.04-4.162.44-.088 1.647-.216 2.042-.217.047 0 .16-.117.253-.26.341-.526.82-.862 1.35-.947.133-.021.257-.064.277-.094.046-.073.646.045.908.178.244.125.631.508.828.82l.15.235.7.03c3.25.138 5.51 1.66 6.459 4.35.187.53.294.69 1.232 1.824 2.02 2.443 2.668 3.709 3.167 6.187.416 2.069.616 5.427.398 6.681-.33 1.9-1.71 4.324-3.436 6.037-.595.59-1.03.931-1.455 1.14-.26.127-.382.147-1.155.189-1.353.073-2.67.333-3.551.7-.435.18-1.286.736-2.7 1.762-.486.353-1.01.708-1.165.79-.154.081-.281.178-.281.215 0 .095-.046.084-.357-.088zm49.848-7.527c-.302-.462-.431-1.245-.385-2.338.036-.845.092-1.336.411-3.62.269-1.922.359-2.76.432-4.015.072-1.228.047-1.538-.353-4.318-.527-3.664-.641-5.014-.6-7.067.021-1.063.053-1.518.14-2.016.146-.828.386-1.636.445-1.495.023.056.163.692.312 1.414.531 2.576.751 3.118 1.362 3.351.41.157.448.126.643-.51.53-1.736 1.256-3.142 2.81-5.44 2.215-3.274 2.475-3.692 3.06-4.917.2-.42.451-1.005.557-1.3.2-.554.476-1.478.45-1.504-.008-.008-.342.14-.742.328-.897.424-1.552.641-2.352.782-.746.13-2.412.204-2.412.106 0-.118.828-.902 1.217-1.153 1.177-.759 2.845-1.113 4.098-.87l.358.07.057-.33c.032-.182.058-.398.058-.48 0-.135.013-.145.147-.111a7.053 7.053 0 0 0 1.583.188c.98 0 1.782-.227 2.695-.764.579-.34 1.546-1.273 2.042-1.969 1.671-2.344 2.869-6.038 3.423-10.557.054-.44.1-1.331.116-2.278.038-2.166-.052-2.928-.431-3.67-.153-.299-.209-.36-.389-.42a1.175 1.175 0 0 0-.939.122c-.396.262-.612.778-1.041 2.495-.56 2.24-.914 2.997-1.768 3.796-.787.735-1.662 1.046-4.554 1.621a86.846 86.846 0 0 0-2.534.535c-2.46.605-4.22 1.691-5.14 3.171-.106.17-.204.309-.218.309-.038 0 .036-.75.149-1.501.56-3.729 2.315-6.447 5.921-9.17.295-.222 1.2-.87 2.01-1.439 2.648-1.858 3.492-2.531 4.586-3.653 1.399-1.436 2.256-2.94 2.729-4.786.204-.797.323-1.73.394-3.085.058-1.104.103-1.261.557-1.98.494-.78.646-1.174.813-2.093.136-.75.192-1.52.196-2.68.003-.882-.017-1.222-.106-1.725-.522-2.974-2.29-7.487-3.791-9.682-.129-.188-.234-.395-.234-.462 0-.066.082-.298.182-.516.246-.536.322-.936.281-1.495-.037-.516-.229-1.358-.433-1.9-.076-.202-.132-.374-.123-.382.008-.008.181.29.385.663a17.62 17.62 0 0 0 1.558 2.357c.196.244.973 1.076 1.727 1.849 1.243 1.275 2.278 2.408 2.923 3.201.812.998 2.211 4.052 2.959 6.458.696 2.242.916 3.595 1.044 6.43.079 1.751.246 2.722 1.027 5.95 1.024 4.236 1.378 6.274 1.552 8.94.09 1.393.035 4.065-.107 5.103-.279 2.05-.698 3.503-1.457 5.044-.997 2.028-2.414 3.619-4.634 5.2a64.12 64.12 0 0 1-2.068 1.347 67.176 67.176 0 0 0-2.01 1.303c-1.82 1.294-2.594 2.586-2.529 4.22.023.568.107.785.384.991.495.369 1.594-.126 2.823-1.271 1.54-1.435 3.046-3.641 3.767-5.519l.182-.471.034.605c.08 1.411.1 3.667.042 4.807-.214 4.252-.926 6.567-2.485 8.08-.534.518-.958.808-2.185 1.493-1.108.617-1.588.94-2.09 1.405-.665.616-1.275 1.551-1.635 2.507-.222.59-.161.861.238 1.055.722.349 2.374-.085 3.718-.977.998-.662 1.698-1.348 2.305-2.26.151-.228.284-.404.295-.393.012.011-.044.246-.122.52-.776 2.703-2.184 4.567-4.717 6.246-.877.581-1.596.985-3.511 1.973-2.923 1.507-3.936 2.075-5.144 2.882-3.314 2.217-5.747 5.119-7.43 8.859-.223.497-.414.913-.423.923-.009.01-.056-.043-.105-.117zm-98.232-3.722c-.882-.463-1.633-1.035-2.416-1.843-.786-.81-1.245-1.393-2.771-3.527-1.672-2.337-2.51-3.12-3.79-3.538-.28-.092-1.344-.333-2.365-.536-2.542-.505-3.373-.732-4.649-1.266-5.083-2.13-8.238-7.364-9.734-16.151-.142-.832-.453-3.07-.431-3.094.007-.007.091.198.188.456.384 1.02 1.145 2.336 1.882 3.255.797.995 1.983 2.091 2.944 2.721.912.598 2.153 1.092 2.791 1.111.708.022.715.02.85-.22.271-.483.034-1.248-.749-2.422-.528-.792-.939-1.312-2.355-2.985a55.132 55.132 0 0 1-1.431-1.755c-.756-.999-1.099-1.268-3.768-2.96-1.99-1.26-2.96-1.995-3.967-3.001-.34-.34-.77-.804-.954-1.032a12.01 12.01 0 0 1-2.387-5.079c-.248-1.218-.276-1.548-.273-3.269.003-1.86.01-1.918.59-5.714.947-6.198 2.23-13.338 2.974-16.553.388-1.678.416-1.756 1.884-5.332.56-1.365 1.286-2.847 1.704-3.482.412-.623.794-1.007 1.661-1.663 1.42-1.075 2.13-1.754 2.869-2.74.698-.934 1.245-1.938 1.804-3.315.173-.428.303-.705.288-.617l-.091.51c-.036.19-.065.697-.065 1.125 0 .899.071 1.26.395 2.02.117.274.213.542.213.597 0 .055-.185.326-.41.603-1.402 1.72-2.064 3.204-2.73 6.117-.306 1.335-.372 1.525-.748 2.155-.64 1.072-.796 1.865-.758 3.835.02 1.074.046 1.408.14 1.837.232 1.06.59 2.098 1.424 4.126.345.837.399 1.162.34 2.049-.136 2.062-.12 2.448.118 2.92.147.29.326.427 1.36 1.044 2.49 1.485 3.656 2.453 5.5 4.562.877 1.004 1.677 1.788 1.825 1.789.156.002.225-.271.246-.964.092-3.099.133-4.034.206-4.662.319-2.745 1.153-4.707 2.544-5.984.255-.234 1.024-.78 1.055-.75.01.01-.029.293-.086.63-.17.997-.235 1.887-.202 2.728.08 2.036.6 3.572 2.017 5.975 1.09 1.847 1.495 2.572 1.858 3.323.853 1.76 1.33 3.381 1.61 5.472.137 1.012.136 4.072 0 5.406-.054.531-.116.983-.137 1.005-.02.022-.16-.135-.308-.348-.937-1.347-2.057-2.394-3.376-3.157-1.061-.614-2.07-.986-4.28-1.578-1.96-.525-2.66-.735-3.378-1.012-2.284-.883-3.989-2.293-5.078-4.202-.354-.62-.604-1.208-.95-2.23-.312-.923-.36-1.034-.528-1.219-.134-.147-.382-.196-.527-.104-.191.121-.548 1.226-.69 2.137-.121.774-.122 2.562-.002 3.554a26.078 26.078 0 0 0 2.478 8.392c.748 1.518 1.471 2.548 2.465 3.505.919.886 1.713 1.38 3.182 1.98.368.15.73.318.804.371.12.087.198.093.75.054.636-.044 1.686.012 2.202.117 1.216.25 2.187.755 2.964 1.543l.369.374-.209.063c-.114.034-.455.076-.757.092-1.08.057-1.773-.185-3.55-1.24-.734-.434-1.468-.779-1.53-.717-.015.015.055.28.155.587.897 2.737 2.865 5.72 5.551 8.41 1.534 1.536 2.899 2.594 4.16 3.224.741.37 1.583.58 1.881.466.402-.153.486-.334 1.143-2.455.124-.4.243-.697.268-.67.06.06.4 1.463.506 2.078.162.948.21 1.794.144 2.5-.082.864-.187 1.325-.666 2.922-.451 1.503-.623 2.23-.787 3.319-.33 2.189-.115 4.673.622 7.178.267.906.611 1.757 1.069 2.642.217.42.39.763.383.762-.006 0-.228-.116-.493-.255zm9.66-38.54c-.36-.141-1.086-.637-1.516-1.036l-.368-.342.381-.853c.963-2.158 1.505-3.803 1.789-5.422.276-1.577.146-4.482-.257-5.775-.291-.932-.61-1.325-1.613-1.987-1.097-.725-1.36-1.075-2.072-2.755-1.128-2.664-2.52-4.578-4.316-5.931-.905-.682-1.707-1.123-3.99-2.193-1.77-.828-2.686-1.438-3.602-2.396-1.795-1.878-2.803-4.936-3.203-9.71-.208-2.495-.235-5.685-.06-7.343.26-2.484.616-4.108 1.887-8.628 1.589-5.65 1.891-7.32 1.921-10.61.017-1.799.055-2.171.299-2.929.157-.487.523-1.22.92-1.842.883-1.383 1.06-1.74 1.766-3.563.486-1.257.869-2.088 1.125-2.446.11-.154.348-.36.632-.547.62-.41 1.447-1.224 3.3-3.25.861-.944 1.77-1.909 2.017-2.145.662-.63.73-.798.948-2.347.114-.812.49-1.319 1.295-1.747.353-.188.435-.216.402-.134-.163.407-.47 1.434-.573 1.924-.186.874-.177 1.967.023 2.813.23.974.226.988-.448 1.695-.618.65-.91 1.102-1.26 1.96-.308.753-.408.931-.882 1.57a3.991 3.991 0 0 0-.733 1.655c-.067.35-.074.588-.037 1.213.025.427.046 1.054.046 1.393.001.758-.027.822-.66 1.453-.868.865-.987 1.204-.963 2.742a22.78 22.78 0 0 1-.06 1.935c-.14 1.646.071 3.09.678 4.642.075.192.371.843.66 1.447.847 1.782.814 1.652.86 3.323.043 1.524.102 1.927.395 2.705.5 1.324 1.474 2.364 2.857 3.052.595.295 1.292.544 1.347.48.024-.026.07-.289.103-.583.428-3.824 3.015-9.816 7.45-17.257 1.619-2.715 2.745-4.491 5.777-9.11l1.354-2.063c.068-.104.105-.14.084-.08l-.278.72c-.676 1.74-1.203 4.3-1.441 6.996-.122 1.382-.124 4.075-.003 5.253.22 2.156.599 3.627 1.234 4.795.424.781 1.126 1.443 1.727 1.629.105.032.114.003.175-.596.52-5.042 2.344-10.526 5.219-15.683 1.936-3.473 3.771-6.108 7.788-11.18 1.669-2.108 2.104-2.682 2.59-3.423.744-1.134.919-1.833.564-2.255-.166-.197-.425-.24-.87-.145-.28.06-.345.06-.367.002-.073-.19.196-.723 1.71-3.397 3.228-5.704 4.451-8.425 4.976-11.067l.063-.321.177.777c.47 2.064 1.221 4.063 2.46 6.538.56 1.122.928 1.8 2.574 4.743 1.119 2.002 1.445 2.724 1.764 3.913.364 1.354.792 2.486 1.495 3.951 1.275 2.66 3.218 5.674 5.242 8.133.303.368.675.879.826 1.134.53.894 1.306 2.647 3.01 6.797 1.28 3.12 1.637 3.97 2.015 4.796.8 1.75 1.09 3.516 1.3 7.959.049 1.017.106 1.868.128 1.891.058.062.56-.332.846-.665 1.148-1.336 2.75-5.037 3.584-8.273.193-.75.207-.854.205-1.555-.002-.735-.008-.773-.307-1.929-.417-1.61-.487-2.123-.45-3.296.033-1.048.132-1.711.369-2.465.217-.691.702-1.673 1.177-2.385l.394-.59.038.778c.251 5.08 1.958 9.27 5.425 13.319 1.085 1.268 2.269 2.46 4.483 4.513 1.132 1.05 1.548 1.53 2.07 2.386.576.945.95 1.89 1.52 3.834.427 1.46.594 1.88.871 2.186.202.223.255.252.505.276.23.022.332 0 .577-.12.608-.296.736-.778.486-1.815-.197-.82-.189-.932.107-1.406.456-.732.54-1.148.362-1.79-.12-.433-.054-.638.382-1.174a6.9 6.9 0 0 0 .854-1.281c.813-1.61 1.384-4.26 1.392-6.468.004-.998 0-1.04-.221-2.09-.828-3.936-2.636-9.166-3.791-10.967-.335-.522-.53-.722-.885-.903-.54-.277-.75-.62-.638-1.043.074-.278.157-.37.59-.649.553-.356.699-.792.507-1.512-.172-.645-.708-1.543-1.277-2.137l-.315-.33.312-.117c.46-.173.996-.14 1.311.082.525.369.768.888 1.197 2.553.398 1.546.471 1.706 1.062 2.34 3.163 3.393 5.417 6.462 6.894 9.387.621 1.23.911 1.916 1.29 3.055.585 1.756.784 2.918.854 4.983.067 1.962.197 2.773.974 6.056 1.152 4.873 1.515 6.683 1.838 9.164.685 5.259.502 10.525-.483 13.95-.843 2.93-2.245 4.832-4.872 6.61-.354.239-1.222.79-1.93 1.226-2.056 1.267-2.974 1.908-3.992 2.79-.69.598-1.87 1.814-2.364 2.434-.783.986-1.232 1.666-2.19 3.317-.16.276-.475.651-1.04 1.237-.925.96-1.38 1.567-1.748 2.333-.563 1.168-.91 2.842-.911 4.394-.001.324-.037.927-.08 1.34-.113 1.058-.105 1.704.025 2.127.197.635.552 1.035 1.315 1.476.423.246.59.403.545.517-.016.042-.208.21-.426.37-.372.276-.575.54-.575.749 0 .12.236.33.642.57.732.436.929.704.901 1.227l-.016.306-.218.016c-.292.021-1.13-.166-1.54-.345-.922-.402-1.674-1.065-2.94-2.592-.428-.516-.933-1.083-1.123-1.26-.755-.705-1.934-1.507-3.71-2.522-.614-.352-1.237-.746-1.385-.877l-.269-.238.032-.298c.018-.164.057-1.263.086-2.442.06-2.382.13-3.656.238-4.324.04-.245.064-.455.053-.466-.03-.033-.373.242-1.06.85-1.97 1.744-3.107 2.474-4.688 3.009-.714.241-2.11.537-2.184.462-.034-.034.16-.57.327-.898.254-.503.537-.875.978-1.289 1.053-.987 2.412-1.5 5.39-2.038l1.277-.23.128-.252c.142-.28.184-.302 1.578-.827 1.283-.483 1.972-.92 2.519-1.595.852-1.052 1.292-2.591 1.39-4.857.082-1.94-.055-2.737-.8-4.64-1.022-2.608-1.2-3.328-1.34-5.44-.089-1.347-.311-2.167-.91-3.35-.66-1.304-1.244-2.087-2.672-3.578-1.209-1.262-1.679-1.896-2.27-3.062-.411-.814-.64-1.05-1.02-1.05-.349 0-.66.39-.72.903-.038.317.062.978.192 1.272.055.123.26.4.457.614.197.214.43.513.516.663.23.4.456 1.152.556 1.854.13.914.232 1.415.408 1.991.333 1.093.227 1.391-1.021 2.883-.787.94-1.033 1.388-1.064 1.942-.02.34-.033.375-.17.446-.248.128-.554.176-2.063.32-2.92.278-4.497.655-6.109 1.462-.324.162-.71.372-.857.465a29.32 29.32 0 0 1-.337.212c-.048.029-.121-.073-.25-.352-.22-.478-.298-.77-.592-2.215-.268-1.32-.383-1.653-.687-1.98-.172-.185-1.292-.94-1.395-.94-.01 0-.036.404-.056.897-.069 1.689-.308 2.533-1.022 3.604-.52.781-1.383 1.59-2.414 2.264-.543.355-1.949 1.06-2.686 1.346-.605.236-1.728.624-1.802.624-.08 0-.016-1.274.087-1.742.375-1.712 1.39-3.003 3.364-4.276.251-.162.925-.566 1.497-.897 1.558-.902 2.538-1.552 2.783-1.847.07-.085.066-.104-.045-.177l-.123-.082.24-.149c.131-.082.726-.428 1.322-.77 1.113-.64 1.88-1.128 2.303-1.466 1.64-1.311 2.615-2.784 3.109-4.687.285-1.102.346-1.684.342-3.253-.013-4.089-.958-7.736-2.91-11.228-.539-.961-1.54-2.457-2.59-3.863-1.485-1.992-1.553-2.111-1.834-3.237-.571-2.287-1.397-3.903-2.647-5.183a41.77 41.77 0 0 0-1.173-1.133c-.534-.495-.764-.75-.926-1.028-.887-1.52-3.193-3.403-5.546-4.532a11.474 11.474 0 0 0-2.036-.747c-.412-.113-.64-.345-1.117-1.136-.523-.868-.786-1.201-1.111-1.41-.255-.164-.33-.185-.638-.183-.441.002-.894.184-.83.332.083.19.602 1.933.746 2.506.092.364.192.637.262.714.063.068.419.315.791.55 1.243.78 1.433.989 1.712 1.89.441 1.418.917 2.37 1.97 3.941.972 1.447 1.098 1.69 1.126 2.16.053.892-.377 2.013-1.617 4.216-.338.6-.629 1.168-.647 1.262-.045.242.078.604.392 1.156.264.464.489 1.026.488 1.218 0 .072-.127.143-.496.28-.676.253-1.684.755-2.177 1.084-.666.445-1.105.82-2.123 1.812-1.977 1.93-2.658 2.441-5.091 3.834-2.583 1.48-3.677 2.25-4.978 3.51-2.356 2.28-3.706 4.98-4.218 8.438-.163 1.108-.24 2.959-.168 4.06.126 1.925.578 2.903 2.008 4.35.376.38.684.695.684.699 0 .015-.501-.033-1.126-.108-2.14-.257-4.185-.924-5.459-1.78-1.135-.764-1.872-1.73-2.237-2.935-.128-.423-.145-.57-.148-1.256-.004-.921.008-.963.874-3.071.998-2.428 1.273-3.51 1.074-4.224-.07-.257-.263-.535-.435-.632-.132-.074-.153-.068-.374.104-4.196 3.259-7.36 8.287-8.752 13.905-1.206 4.874-.88 9.452.862 12.073.837 1.26 2.143 2.044 3.408 2.048.17 0 .308.02.308.042 0 .06.783.337 1.85.657 1.942.582 2.847.911 3.606 1.313.901.477 1.682 1.125 2.196 1.82.258.35.572.932.526.977-.047.048-1.982-.248-2.532-.388-1.256-.319-2.193-.984-4.735-3.362-.715-.67-.833-.76-.847-.656-.018.138.106 1.103.634 4.93.397 2.878.588 4.46.588 4.858 0 .246-.007.256-.522.745-.945.896-2.819 2.326-4.703 3.588-1.915 1.285-3.748 2.464-3.824 2.462a1.6 1.6 0 0 1-.341-.101z"/></g></svg>