<?xml version="1.0" encoding="UTF-8" standalone="no"?>
<svg
   xmlns:dc="http://purl.org/dc/elements/1.1/"
   xmlns:cc="http://creativecommons.org/ns#"
   xmlns:rdf="http://www.w3.org/1999/02/22-rdf-syntax-ns#"
   xmlns:svg="http://www.w3.org/2000/svg"
   xmlns="http://www.w3.org/2000/svg"
   xmlns:sodipodi="http://sodipodi.sourceforge.net/DTD/sodipodi-0.dtd"
   xmlns:inkscape="http://www.inkscape.org/namespaces/inkscape"
   width="100%"
   height="100%"
   viewBox="0 0 255.12947 255.12947"
   version="1.1"
   id="svg2149"
   inkscape:version="1.0.1 (0767f8302a, 2020-10-17)"
   sodipodi:docname="Orzhov Syndicate.svg">
  <defs
     id="defs2143" />
  <sodipodi:namedview
     id="base"
     pagecolor="#ffffff"
     bordercolor="#666666"
     borderopacity="1.0"
     inkscape:pageopacity="0.0"
     inkscape:pageshadow="2"
     inkscape:zoom="2.8"
     inkscape:cx="102.27419"
     inkscape:cy="105.61809"
     inkscape:document-units="mm"
     inkscape:current-layer="layer1"
     inkscape:document-rotation="0"
     showgrid="false"
     fit-margin-top="0"
     fit-margin-left="0"
     fit-margin-right="0"
     fit-margin-bottom="0"
     inkscape:window-width="1647"
     inkscape:window-height="1212"
     inkscape:window-x="896"
     inkscape:window-y="95"
     inkscape:window-maximized="0" />
  <metadata
     id="metadata2146">
    <rdf:RDF>
      <cc:Work
         rdf:about="">
        <dc:format>image/svg+xml</dc:format>
        <dc:type
           rdf:resource="http://purl.org/dc/dcmitype/StillImage" />
        <dc:title></dc:title>
      </cc:Work>
    </rdf:RDF>
  </metadata>
  <g
     inkscape:label="Layer 1"
     inkscape:groupmode="layer"
     id="layer1"
     transform="translate(20.374498,-2.1822875)">
    <circle
       style="fill:#a0a0a0;fill-opacity:1;fill-rule:evenodd;stroke:#3b3509;stroke-width:6.45911;stroke-miterlimit:4;stroke-dasharray:none;stroke-opacity:1"
       id="path891"
       cx="107.19024"
       cy="129.74702"
       r="124.33518" />
    <path
       style="fill:#000000;stroke-width:0.264583"
       d="m 106.11532,247.49444 c -0.0989,-0.50932 -1.79356,-14.97134 -3.76589,-32.13781 -1.97234,-17.16647 -3.632969,-31.25867 -3.690309,-31.316 -0.0808,-0.0809 -4.78171,3.6184 -7.55631,5.94632 -0.36028,0.30228 -0.63235,-0.1967 -2.22507,-4.08084 -0.99802,-2.43387 -2.02712,-4.92574 -2.28687,-5.53748 l -0.47228,-1.11228 -5.20246,2.52581 c -2.86135,1.38919 -5.29124,2.42549 -5.39976,2.30289 -0.10853,-0.1226 -0.53055,-2.15722 -0.93785,-4.52138 -0.51767,-3.00487 -0.82795,-4.2295 -1.03101,-4.06928 -0.74526,0.58801 -34.57904,28.02979 -35.73249,28.98177 -0.72092,0.595 -1.21131,0.91908 -1.08977,0.72019 0.12155,-0.1989 6.46007,-9.90249 14.08561,-21.56355 l 13.8646,-21.20191 -4.04359,-0.20262 c -2.22398,-0.11145 -4.94875,-0.29004 -6.05505,-0.39688 l -2.01146,-0.19425 2.45718,-5.55625 2.45718,-5.55625 -5.6051,-1.8852 c -3.50912,-1.18024 -5.57763,-2.00467 -5.53165,-2.20471 0.0404,-0.17574 1.57021,-2.10368 3.39958,-4.28432 1.82937,-2.18065 3.2754,-4.01554 3.2134,-4.07754 -0.062,-0.062 -14.68869,-1.90214 -32.50375,-4.08919 -17.8150501,-2.18705 -32.51007,-4.02383 -32.65559,-4.08175 -0.14552,-0.0579 -0.086,-0.11389 0.13229,-0.12438 1.32268,-0.0636 62.96996,-7.21323 63.55178,-7.37051 0.70795,-0.19139 0.6896,-0.22185 -2.47538,-4.11153 -1.75374,-2.15529 -3.14626,-3.95101 -3.09449,-3.99048 0.0518,-0.0395 2.50515,-1.06079 5.45194,-2.26961 2.9468,-1.20882 5.35782,-2.28282 5.35782,-2.38666 0,-0.10384 -1.12245,-2.49831 -2.49432,-5.32104 l -2.49432,-5.132244 0.97296,-0.169661 c 0.53513,-0.09331 2.84408,-0.381397 5.131,-0.640186 2.28692,-0.258789 4.29219,-0.553437 4.45616,-0.654775 0.18796,-0.116165 -4.26484,-6.41437 -12.05011,-17.044128 -6.79153,-9.272932 -12.30914,-16.896996 -12.26137,-16.942364 0.0478,-0.04537 8.06185,5.440903 17.80904,12.191712 14.66718,10.158341 17.75184,12.193979 17.89432,11.808839 0.0947,-0.25595 0.2597,-2.800501 0.36671,-5.654564 0.10702,-2.854061 0.28071,-5.328576 0.38599,-5.498923 0.13364,-0.216223 1.8205,0.410361 5.58773,2.07555 2.96797,1.311902 5.47474,2.300314 5.5706,2.196471 0.0959,-0.103841 0.96353,-2.510523 1.92816,-5.34818 0.96462,-2.837656 1.80871,-5.313156 1.87574,-5.501111 0.0761,-0.213397 1.67141,0.954112 4.24797,3.108855 2.26935,1.897824 4.23572,3.45059 4.36971,3.45059 0.13399,0 0.24102,-0.148828 0.23786,-0.330729 -0.0133,-0.764535 7.741549,-63.871468 7.900889,-64.295382 0.0961,-0.255559 1.83024,13.972411 3.85373,31.617709 2.0235,17.645299 3.71812,32.129956 3.76584,32.188127 0.0477,0.05817 1.85928,-1.332724 4.0257,-3.090878 3.72794,-3.025402 3.95294,-3.165719 4.20012,-2.619309 0.14364,0.317534 1.18039,2.799824 2.30388,5.5162 l 2.04272,4.938861 4.6757,-2.252811 c 2.57164,-1.239046 4.94411,-2.379546 5.27215,-2.534446 0.32803,-0.154898 0.63879,-0.232527 0.69057,-0.172509 0.0518,0.06002 0.47657,2.609438 0.94399,5.665375 0.46742,3.055938 0.93057,5.746179 1.02922,5.978314 0.14286,0.33615 3.43149,-1.725602 16.15611,-10.128811 8.78721,-5.80298 16.01392,-10.513698 16.05936,-10.468264 0.0454,0.04544 -4.79262,6.915902 -10.75123,15.267702 -5.95861,8.351801 -10.83383,15.283609 -10.83383,15.404013 0,0.120407 0.50601,0.220763 1.12448,0.223015 1.43146,0.0052 9.01054,0.517737 9.10878,0.615971 0.0406,0.04061 -0.99511,2.492781 -2.30159,5.449281 -1.30648,2.9565 -2.37542,5.46939 -2.37542,5.58419 0,0.1148 2.41101,1.0074 5.35781,1.98355 2.9468,0.97615 5.46462,1.87272 5.59517,1.99237 0.13357,0.12242 -1.28897,2.03093 -3.25323,4.36461 -1.91981,2.28088 -3.44798,4.18965 -3.39592,4.24171 0.0521,0.0521 14.67242,1.88492 32.48969,4.07302 17.81726,2.18809 32.51408,4.02669 32.6596,4.08576 0.14552,0.0591 0.0909,0.11682 -0.12146,0.12831 -0.71549,0.0387 -62.57618,7.16563 -63.4347,7.30826 l -0.84992,0.14119 3.16502,3.88302 c 1.74076,2.13566 3.16502,3.9509 3.16502,4.03386 0,0.083 -2.44078,1.14892 -5.42396,2.36879 -2.98317,1.21986 -5.42395,2.25479 -5.42395,2.29984 0,0.0451 1.1316,2.42574 2.51467,5.29042 1.38307,2.86468 2.4768,5.2464 2.43049,5.2927 -0.0463,0.0463 -2.87454,0.57357 -6.28499,1.17171 -3.41044,0.59814 -6.24711,1.13294 -6.30371,1.18843 -0.0764,0.0749 18.43331,31.27456 21.10236,35.56975 0.39964,0.64313 0.39665,0.64979 -0.10775,0.24036 -1.174,-0.95293 -28.60126,-23.62764 -29.02926,-23.99912 -0.25555,-0.2218 -0.5118,-0.35439 -0.56943,-0.29465 -0.0576,0.0597 -0.36328,2.07195 -0.67922,4.47158 -0.31594,2.39963 -0.62456,4.41308 -0.68581,4.47434 -0.0613,0.0613 -2.57139,-0.98065 -5.57808,-2.31532 -3.0067,-1.33468 -5.53475,-2.35867 -5.61789,-2.27553 -0.0831,0.0831 -0.9907,2.64718 -2.0168,5.69786 l -1.86563,5.54669 -4.2731,-3.56856 c -4.16774,-3.48059 -4.27664,-3.55087 -4.41699,-2.85071 -0.0791,0.39482 -1.8749,14.88629 -3.99058,32.20327 -4.48888,36.74187 -3.96327,32.77341 -4.1877,31.61771 z m 8.76582,-70.1013 c 15.07652,-2.79657 28.03944,-12.63498 34.70422,-26.33933 6.51851,-13.40358 6.56923,-28.72318 0.1393,-42.06875 -11.61,-24.096962 -40.42945,-34.138321 -64.561379,-22.494659 -14.73412,7.109215 -24.98541,21.516179 -26.87528,37.770019 -0.48507,4.17176 -0.17665,11.48221 0.64646,15.32345 4.35033,20.30175 20.38005,35.25937 40.91319,38.17686 3.867799,0.54956 11.033639,0.37435 15.033489,-0.36759 z m -11.19703,-4.41611 c -12.796479,-0.88892 -24.102539,-6.96816 -31.915159,-17.16072 -7.49789,-9.78196 -10.40949,-23.27777 -7.62038,-35.32188 2.0235,-8.73792 5.89798,-15.5301 12.45151,-21.82812 14.12828,-13.577467 35.698399,-15.780013 52.484029,-5.359199 10.14686,6.299351 17.38828,16.971329 19.61478,28.907119 0.75015,4.02137 0.69452,11.93384 -0.11202,15.93526 -3.98276,19.75926 -20.58606,33.96585 -40.66943,34.79874 -1.60073,0.0664 -3.50573,0.0794 -4.23333,0.0288 z"
       id="path3370" />
  </g>
</svg>
