<?xml version="1.0"?>
<svg xmlns="http://www.w3.org/2000/svg" viewBox="0 0 286.66 286.66">
  <defs>
    <filter id="a" color-interpolation-filters="sRGB">
      <feFlood flood-color="#483107" flood-opacity=".804" result="flood"/>
      <feComposite in="flood" in2="SourceGraphic" operator="in" result="composite1"/>
      <feGaussianBlur in="composite1" result="blur" stdDeviation="2"/>
      <feOffset dy="2.3" result="offset"/>
      <feComposite in="SourceGraphic" in2="offset" result="composite2"/>
    </filter>
  </defs>
  <g transform="translate(43.049 28.441)">
    <circle cx="100.28" cy="114.89" r="139.95" fill="#5cbf46" fill-rule="evenodd" stroke="#131318" stroke-width="6.765"/>
    <path d="M137.33 220.75c-.68-.295-.984-.316-1.262-.085-.28.233-.477.202-.844-.13-.264-.239-.61-.434-.77-.434-.578 0-4.298-1.858-4.298-2.147 0-.162-.229-.236-.51-.162-.342.09-.466.021-.377-.21.073-.189-.086-.412-.353-.497-.266-.085-.602-.415-.747-.734-.247-.55-1.013-1.05-.875-.574.115.398-.596 1.434-.868 1.265-.17-.105-.154-.295.046-.536.244-.294.223-.373-.098-.373-.224 0-.625.286-.892.637-.39.51-.603.59-1.084.404-.33-.129-.714-.534-.854-.902-.152-.402-.461-.669-.774-.669-.286 0-.594-.119-.683-.264-.09-.146-.409-.265-.708-.265-.435 0-.52.13-.422.645.068.354.024.8-.097.992-.167.263-.222.237-.225-.11-.002-.25-.292-.645-.645-.877-.353-.23-.764-.77-.913-1.196-.258-.743-.827-1.084-.827-.496 0 .154-.124.203-.275.11-.152-.094-.214-.369-.139-.611.197-.634-.137-.972-1.002-1.013-.577-.028-.859.144-1.191.729-.444.78-.935.981-1.23.504-.288-.467-.66-.282-.665.331-.004.534-.061.507-.556-.265-.302-.472-.714-.86-.914-.86-.254 0-.324-.221-.232-.727.073-.4.04-.862-.073-1.025-.297-.43-1.925-.746-1.925-.373 0 .199-.32.238-.964.117-.691-.13-.912-.096-.779.12.117.188-.018.301-.358.301-.3 0-.545.127-.545.282 0 .166-.228.21-.551.108-.37-.117-1.087.11-2.17.687l-1.617.862-1.281-.455c-1.271-.451-2.318-.382-2.318.154 0 .179-.137.166-.38-.036-.253-.21-.541-.233-.86-.07-.264.136-1.105.317-1.87.403-1.11.125-1.388.08-1.388-.228 0-.65-.627-.427-1.352.481-.94 1.177-1.183 2.003-.651 2.207.437.168.576.632.19.632-.125 0-.553-.302-.951-.671-.571-.53-.66-.75-.419-1.04.24-.289.197-.427-.197-.638-.707-.379-2.166-.14-3.026.496l-.728.539-.334-.534c-.432-.693-1.631-.695-2.322-.004-.291.291-.53.648-.53.794s-.118.265-.264.265c-.145 0-.264-.164-.264-.365s-.187-.519-.414-.708c-.279-.23-.39-.696-.342-1.421.063-.944.008-1.067-.446-.987-.285.05-.731.318-.991.595-.948 1.01-1.715.402-.787-.623.436-.483.435-.525-.018-.857-.46-.336-.46-.37.003-.93.265-.318 1.553-1.388 2.862-2.377 3.263-2.464 4.428-3.585 4.317-4.157-.05-.26-.269-.477-.485-.48a1.678 1.678 0 0 1-.726-.216c-.21-.132-.62.077-1.109.566-.602.602-1.014.775-1.849.775-.59 0-1.074-.118-1.074-.261 0-.144-.179-.113-.397.068-.324.27-.397.253-.397-.093 0-.328-.177-.387-.793-.264-.618.124-.794.065-.794-.265 0-.233-.3-.62-.666-.86-.43-.282-.584-.542-.434-.734.366-.467.625-1.818.381-1.992-.12-.086-.424-.478-.673-.871-.555-.872-.138-1.275.615-.594.455.412.512.416.512.038 0-.678-.563-1.73-1.02-1.905-.241-.092-.558.026-.741.276-.176.241-.448.36-.605.262-.45-.278-1.335.114-1.364.604-.028.462-.111.302-.622-1.19-.109-.317-.394-.57-.635-.56a2.53 2.53 0 0 1-.9-.179c-.648-.274-.603.405.086 1.28.676.86.56.866-1.054.048-1.341-.68-1.611-.65-1.611.18 0 .275-.12.427-.265.337-.145-.09-.265-.513-.265-.941 0-.469-.139-.779-.349-.779-.192 0-.82-.387-1.394-.86-.574-.472-1.28-.993-1.569-1.156-.32-.18-.492-.513-.442-.854.055-.377-.16-.71-.662-1.027-1.368-.862-4.808-3.503-5.002-3.84-.106-.183.095-.08.446.23.35.31.936.711 1.3.893s1.289.809 2.057 1.393c1.514 1.153 1.993 1.16 1.245.018-.323-.493-.376-.755-.168-.824.168-.056.305-.364.305-.685 0-.677-2.157-3.077-2.766-3.077-.566 0-.513.256.218 1.044a9.87 9.87 0 0 1 1.086 1.47l.459.793-.623-.692c-.343-.381-1.129-1.022-1.748-1.425-.618-.402-1.124-.782-1.124-.844 0-.062.12-.038.267.052.281.174.813-.918.612-1.258-.212-.36-.879-.206-.879.205 0 .354-.078.351-.651-.024-.358-.235-.728-.669-.822-.965-.094-.296-.661-1.06-1.26-1.696-.78-.828-1.3-1.158-1.825-1.158-.838 0-1.002.617-.273 1.025.254.142.372.347.264.455-.109.109-.468-.057-.799-.367-.402-.378-.796-.514-1.19-.411-.485.127-.588.044-.588-.473 0-.547.125-.626.992-.626.706 0 .993-.115.993-.397 0-.496-2.626-1.852-3.587-1.852-.393 0-1.159-.185-1.701-.412-.543-.227-1.049-.351-1.124-.276-.25.25-2.026-1.23-5.23-4.36-1.746-1.706-3.437-3.179-3.757-3.273-.32-.095-.655-.405-.745-.688-.175-.551-.657-.713-.657-.22 0 .163-.41-.016-.909-.397-.866-.66-2.002-.933-2.002-.48 0 .117.427.623.948 1.125 1.608 1.546 1.655 1.927.144 1.168-1.382-.694-1.668-1.076-1.446-1.927.178-.68-.65-.908-1.3-.359-.3.254-.462.284-.462.086 0-.457-.557-.369-.935.147-.267.366-.407.39-.723.128-.216-.179-.56-.26-.765-.182-.216.083-1.15-.525-2.216-1.442-1.014-.872-1.995-1.589-2.18-1.594-.186-.005-.84-.471-1.456-1.037s-1.535-1.258-2.044-1.538c-.51-.28-1.505-1.276-2.212-2.213-.707-.937-1.513-1.811-1.79-1.944-.31-.148-.45-.411-.364-.683.08-.255-.098-.657-.421-.95-.309-.279-.78-.935-1.047-1.459-.867-1.7-2.578-2.337-2.295-.855l.123.645-.627-.59c-.345-.324-.628-.729-.628-.899 0-.44-.886-1.186-1.41-1.186-.243 0-.442-.178-.442-.396 0-.219-.127-.397-.282-.397-.157 0-.212-.223-.123-.502.14-.441.031-.496-.891-.449-1.002.051-1.045.022-.912-.64.113-.564-.037-.826-.811-1.416-.522-.399-.95-.616-.95-.483s-.297.184-.66.115c-.773-.148-2.25-1.725-2.25-2.402 0-.53-.486-1.102-.936-1.102-.166 0-.454.327-.64.727l-.337.728-.238-.63c-.156-.413-.136-.752.06-.988.234-.282.022-.616-.988-1.556-1.07-.995-1.416-1.173-2.057-1.06-.748.133-.757.122-.305-.378.48-.53.371-1.077-.214-1.077-.34 0-1.489 1.816-1.489 2.351 0 .163.239.295.53.295.347 0 .529.177.529.514 0 .727-.503.947-.906.396-.47-.644-1.124-.322-1.34.66-.097.446-.324.811-.504.811s-.673.362-1.097.805c-.756.789-3.357 2.422-2.825 1.774.25-.304.421-1.253.351-1.94-.016-.16-.566-.286-1.244-.286-.984 0-1.358.144-1.974.76-.7.7-.866.746-2.082.585-1.178-.156-1.412-.1-2.147.519-.454.381-1.074.694-1.38.694-.304 0-.741.157-.971.35-.23.192-1.192.682-2.138 1.088-.945.406-1.869.927-2.051 1.157s-.85.616-1.485.857l-1.152.437.125-1.217c.069-.67.29-1.48.492-1.803.202-.322.367-.769.367-.992s.417-.847.926-1.387c.713-.756.926-1.206.926-1.957 0-.622.144-1.03.397-1.127.22-.085.398-.479.398-.888 0-.405.358-1.272.793-1.927.436-.654.98-1.756 1.211-2.447.23-.691.51-1.257.622-1.257.205 0 .95-2.028 1.35-3.673.213-.88.049-1.569-.586-2.454-.252-.351-.206-.67.231-1.588.3-.631.727-1.684.947-2.339.729-2.171 1.116-3.04 1.45-3.254.613-.392.313-2.038-.372-2.038-.398 0-1.398-1.918-1.408-2.702-.003-.25-.363-.82-.8-1.266-.576-.59-.793-1.066-.793-1.74 0-.51-.354-1.685-.786-2.61-.433-.925-.865-2.174-.961-2.775-.205-1.279-1.502-3.362-2.239-3.596-.576-.183-1.24-1.186-.786-1.186.45 0 .315-.768-.424-2.414-.695-1.55-1.145-1.97-1.165-1.091-.005.254-.523-.847-1.15-2.448-.627-1.6-1.634-3.997-2.238-5.326-.605-1.33-1.103-2.758-1.108-3.175-.006-.418-.18-1.057-.388-1.42-.237-.416-.383-1.45-.39-2.779-.007-1.164-.181-2.673-.388-3.353-.533-1.756-.114-3.129.955-3.129.738 0 .75.023.75 1.567 0 1.31.117 1.712.713 2.448.393.484.75.93.794.99.044.06.158.032.253-.063.096-.096-.015-.622-.246-1.169-.231-.547-.473-1.559-.538-2.248-.065-.689-.31-1.522-.545-1.852-.236-.33-.607-.845-.826-1.145-.349-.477-.35-.61-.015-1.058.373-.499.402-.493 1.081.23.86.913 1.22.82 1.636-.43.395-1.187.278-1.533-.721-2.123-.962-.568-1.508-2.131-1.134-3.251.343-1.032.822-1.052 1.994-.085 1.063.877 1.247 1.664.718 3.056-.422 1.11.147 3.546.83 3.546.363 0 .564.237.676.799.182.912.585 1.274.882.794.143-.233.254-.243.383-.034.22.356 1.208.392 1.208.044a.527.527 0 0 0-.236-.395c-.129-.08-.295-.533-.368-1.008-.074-.474-.33-1.386-.571-2.027-.524-1.394-.394-1.878.505-1.878.492 0 .67.14.67.526 0 .512 1.745 1.856 2.41 1.856.5 0 .128-2.34-.675-4.234-.4-.946-.816-2.22-.923-2.83s-.318-1.266-.468-1.455c-.39-.493-.636-2.642-.277-2.42.186.115.217-.04.09-.463a88.627 88.627 0 0 1-.576-2.092c-.212-.8-.494-1.65-.628-1.89-.19-.337-.145-.41.203-.327.246.059.617-.004.825-.14.324-.211.327-.459.024-1.724-.195-.813-.274-1.56-.174-1.66.1-.098.65.349 1.225.995.604.678 1.05 1.006 1.057.777.01-.353.043-.353.292 0 .211.299.314.315.415.066.235-.577.593-.36 1.124.68.283.555.721 1.18.973 1.388.252.209.716.915 1.03 1.57 1.03 2.143 1.584 2.923 2.187 3.079.326.084.536.246.466.36-.07.113.032.338.227.5.264.219.57.185 1.206-.131.814-.407.88-.4 1.475.16.7.658 1.183.52 1.21-.345l.018-.58.287.595c.355.737.648.759.868.065.137-.434.378-.523 1.316-.487.856.032 1.112.136 1.008.408-.077.2.065.59.315.867.487.538.35 1.066-.274 1.066-.526 0-.479.445.082.775.384.227.4.315.094.516-.456.299-.194 1.09.36 1.09.223 0 .406.11.406.244 0 .341 1.317 1.873 1.61 1.873.133 0 .242-.239.242-.53s.09-.526.198-.522c.11.004.91.599 1.781 1.323.87.724 1.677 1.316 1.793 1.316s.323.298.461.661c.305.801.794.872.794.115v-.547l.768.547c.423.3.981.547 1.241.547s1.117.685 1.905 1.521c1.356 1.44 1.426 1.479 1.298.733-.125-.731-.108-.752.237-.28.204.28.372.607.372.727 0 .38 1.423-.11 2.203-.757.411-.342.841-.621.956-.621.115 0 .415.542.668 1.205.326.852.588 1.178.896 1.114.338-.07.42-.346.363-1.224-.047-.725.025-1.074.198-.967.15.092.273.31.275.483.001.173.425.726.942 1.228.517.503 1.137 1.247 1.377 1.654.543.919.966.964.744.079-.2-.797.119-.852.77-.133.658.727 1.191.24 1.191-1.09 0-.564.127-1.026.281-1.026.155 0 .25.208.21.463-.083.55.478 1.654.841 1.654.14 0 .256-.165.256-.366 0-.637 1.145-.756 1.553-.162.495.72.828.662.828-.143 0-.589.064-.636.529-.388.4.215.53.201.53-.054 0-.185.302-.011.671.388.437.47.943.725 1.443.725.67 0 .794-.12.942-.91.094-.5.092-1.035-.004-1.19-.25-.406.267-.347.614.07.492.593 1.933.19 3.26-.911.895-.743 1.483-1.028 2.124-1.028.62 0 1.095-.218 1.585-.728 1.577-1.639 2.2-2.052 1.895-1.257-.204.532.532.52.976-.015.188-.227.738-.578 1.223-.78.484-.203.88-.493.88-.646 0-.153.236-.278.525-.278.343 0 .583-.237.696-.687.13-.514.231-.597.407-.33.185.278.348.212.76-.306.287-.364.647-.81.798-.992.151-.182.544-.331.873-.331.443 0 .684-.24.933-.926.184-.51.51-.926.726-.926s.69-.298 1.053-.662.888-.661 1.163-.661c.568 0 1.046-.579.601-.727-.192-.064-.14-.362.152-.874.508-.894.853-1.027.65-.251-.096.368-.008.529.29.529.235 0 .428-.103.428-.23 0-.126.489-.553 1.087-.948.96-.635 1.068-.81.932-1.49-.127-.64-.066-.772.356-.772.841 0 1.712-.515 2.264-1.338.286-.427.683-.777.881-.778.199 0 .77-.446 1.268-.99.688-.75.96-.904 1.127-.634.301.488 1.345-.072 1.345-.721 0-.373.164-.45.768-.362.505.075.942-.054 1.28-.376a7.245 7.245 0 0 1 2.064-1.388c.933-.409 1.3-1.02.901-1.5-.299-.36-.258-.392.318-.247.44.11.777.028 1.005-.248.189-.227.478-.415.642-.417.553-.007 3.075-2.826 3.107-3.472.022-.448.065-.494.152-.163.162.62 1.017.587 1.67-.066.29-.29.588-.529.66-.529.531 0 6.512-3.632 7.145-4.338.436-.488 1.186-1.016 1.665-1.175 1.395-.461 10.635-6.596 12.16-8.072.763-.74 1.388-1.469 1.388-1.62 0-.15-.602-1.166-1.338-2.257-.735-1.092-1.638-2.566-2.006-3.277-.368-.71-1.177-1.841-1.8-2.513-1.073-1.16-3.587-5.567-3.587-6.288 0-.187-.25-.473-.555-.636-.405-.217-.522-.477-.43-.96.07-.364-.006-1.016-.17-1.448-.266-.705-.228-.839.363-1.293.896-.688 1.231-.646 1.64.207.191.398.66.874 1.04 1.056.38.183 1.124.958 1.652 1.723s2.153 2.502 3.61 3.862c1.459 1.359 2.842 2.847 3.076 3.307.234.46.632 1.034.885 1.276s1.04 1.178 1.747 2.079c1.12 1.426 1.322 1.578 1.557 1.173.148-.255.865-1.167 1.592-2.027.728-.86 1.561-1.902 1.852-2.317s.92-.944 1.396-1.175c.857-.415.87-.412 1.137.289.308.81-.043 1.966-.883 2.907-.283.317-.438.699-.346.849.198.32-1.018 2.804-1.803 3.683-.465.52-.488.645-.155.855.214.136.645.249.957.251.398.003.675.276.93.915.2.5.741 1.185 1.203 1.521s1.822 1.423 3.022 2.416c2.486 2.055 3.134 2.436 4.606 2.71.577.108 1.185.388 1.352.624.167.235.839.695 1.493 1.022.654.327 1.338.773 1.52.993.182.22.542.331.8.25.3-.096.814.151 1.417.68.803.706.971.766 1.113.397.091-.239.093-.508.003-.597-.09-.09.07-.328.357-.529.464-.325.748-.246 2.606.723 1.147.599 2.49 1.185 2.983 1.303.494.119 1.107.301 1.361.406.33.136.463.067.463-.238 0-.363.215-.321 1.37.264.753.382 1.853.75 2.443.817.591.068 1.195.218 1.343.333s.596.287.996.383c.611.145.728.088.728-.36 0-.295.131-.535.293-.535.167 0 .22-.199.123-.463-.096-.264.09-.157.435.251.653.773 2.396 1.266 2.706.765.267-.432 1.205-.348 1.205.108 0 .513.905.513 1.418 0 .547-.547 2.276-.497 3.653.104.631.276 2.009 1.355 3.062 2.399 1.054 1.044 2.036 1.823 2.183 1.732.147-.09.411-.076.587.033.639.394 1.533.34 1.533-.093 0-.379.045-.38.463-.014.254.224.715.484 1.023.577.308.094.773.406 1.033.693.26.287.64.523.845.523.314 0 2.003 1.126 3.187 2.126.184.155.452.21.596.12.143-.088.263.114.265.45.007 1.198.301 1.824.785 1.67.253-.08.61.036.793.258.429.516.8.516.8 0 0-.278.288-.141.925.439.53.481.926 1.095.926 1.432 0 .399.15.578.463.553.306-.025.495.187.556.623.088.619 1.336 1.934 3.25 3.423.789.615.843.622 1.179.163.308-.423.334-.356.208.547-.08.565-.246 1.352-.37 1.75-.135.429-.126.784.022.875.336.208.314 1.357-.038 2.015-.587 1.097.071.796 1.492-.682 1.331-1.386 1.722-2.243.944-2.07-.176.039-.297-.313-.297-.864 0-1.134 1.313-3.555 2.445-4.507.446-.376 1.218-1.36 1.714-2.187 1.204-2.005 2.175-3 2.75-2.818.315.1.91-.327 1.933-1.387.812-.843 1.545-1.741 1.627-1.996.082-.254.317-.463.522-.463.79 0 2.095-1.082 2.618-2.17.358-.746.744-1.165 1.12-1.219.317-.045.766-.372 1-.728.542-.829.887-.816 1.214.043.146.384.406.63.589.555.18-.074.535-.218.79-.32.708-.284.552.215-.33 1.061-.912.873-1.024 1.455-.282 1.455.395 0 .502.167.463.728-.05.738-.022.748 1.202.401.314-.089.54.083.715.545.374.983 1.257 1.394 1.847.861.254-.23.66-.418.904-.418.243 0 .442-.181.442-.403 0-.63 1.246-1.095 1.878-.7.44.275.607.224 1.135-.346.812-.875.971-.842.89.182-.086 1.093.707 1.362 1.15.389.309-.678 1.243-1.239 2.062-1.239.927 0 1.78 1.557 1.087 1.985-.146.09-.265.335-.265.545 0 .6 1.165.45 1.806-.232.656-.698.735-1.307.224-1.731-.836-.694.71-3.742 1.898-3.742.211 0 .79.417 1.284.926.874.9 1.403 1.164 1.403.698 0-.336 2.096-1.732 2.298-1.53.095.094.02.455-.165.801-.188.351-.256.885-.154 1.206.288.907-.539 2.397-1.33 2.397-.501 0-.65.14-.65.609 0 .334.123.73.272.88.29.29-.743 2.412-1.467 3.014-.525.436-.227.824.494.643.669-.168 1.744.614 1.564 1.138-.14.41.514.436.914.036.384-.383.904-.054.81.513-.075.459.348.523 1.184.18.287-.118.463-.071.463.123 0 .172.348.661.773 1.086.425.425.848 1.118.94 1.54.288 1.306 1.311 1.897 4.042 2.33.804.128 1.127.452.65.652-.345.146-1.378 1.97-1.378 2.435 0 .265.22.432.566.432.542 0 .825.247 1.697 1.482.357.505.32.735-.405 2.513-.86 2.111-.944 2.527-.536 2.663.17.057.123.892-.129 2.324-.29 1.651-.314 2.284-.092 2.421.203.125.244.675.126 1.68-.157 1.334-.126 1.485.29 1.415.342-.057.491.126.555.682.116 1.018.881 1.822 1.506 1.582.398-.153.446-.096.274.324-.459 1.12-.633 2.345-.395 2.789.418.781.279 1.55-.455 2.512-.54.708-.63.993-.39 1.233.241.24.419.237.769-.014.81-.58 1.147-.664 1.452-.36.221.223.191.385-.118.631-.81.646-.974 1.296-.598 2.362.248.702.308 1.685.198 3.24l-.157 2.233 1.207-.046c.664-.026 1.272.018 1.351.097.266.265-.611 3.023-1.067 3.356-.716.524-.186.723 1.177.444l1.257-.257-.014 1.04c-.01.782.103 1.07.457 1.163.613.16.596.317-.188 1.688-.362.634-.66 1.371-.662 1.64-.003.269-.17.804-.372 1.19-.204.387-.511 1.239-.684 1.894-.173.654-.748 2.083-1.278 3.175s-.937 2.204-.903 2.472c.08.636-1.978 2.723-2.92 2.96-.75.187-.89.611-.769 2.333.036.512-.203 1.045-.745 1.662-.44.5-.798 1.075-.798 1.277 0 .727-1.32 1.961-2.186 2.046-.835.081-.842.093-.766 1.405.083 1.434.59 2.381 2.393 4.464.598.691 1.088 1.342 1.088 1.447s-.357.325-.794.49c-.969.366-1.088 1.271-.198 1.5.698.178 1.861 1.945 2.332 3.541.294.999.277 1.183-.149 1.654-.264.291-.64.53-.835.53-.21 0-.36.298-.365.727-.005.4-.183.96-.397 1.242-.555.734-.481 1.125.248 1.308.628.158 2.274 2.308 2.274 2.971 0 .186.317.493.704.683 1.384.68 1.539 2.065.23 2.065-1.01 0-.877 1.018.279 2.13 1.04 1 1.383 1.536 1.702 2.648.191.666.152.73-.41.67-.342-.036-.777-.191-.968-.344-.507-.408-2.642-1.4-3.013-1.4-.399 0-.64.606-.64 1.609 0 .425-.113.772-.251.772s-.994-.618-1.901-1.374c-.969-.805-1.694-1.243-1.756-1.058-.166.497-.748.371-1.6-.346-.433-.364-1.007-.662-1.277-.662s-1.384-.596-2.476-1.322c-1.091-.727-2.23-1.322-2.533-1.323-.63 0-3.896-1.99-5.716-3.483-.681-.558-1.436-1.015-1.678-1.015-.554 0-1.745.92-2.168 1.676l-.322.573-.009-.613c-.005-.337-.128-.836-.274-1.108-.178-.332-.178-.55 0-.66.146-.09.265-.433.265-.763 0-.883-.802-3.16-1.235-3.509-.256-.205-.318-.537-.193-1.033.169-.672.133-.717-.451-.56-.349.093-1.074.17-1.61.173-.756.003-1.253.242-2.2 1.062-1.373 1.188-1.837 1.297-2.248.529-.212-.396-.554-.53-1.36-.53-.907 0-1.33.213-2.687 1.346-2.538 2.121-6.2 3.8-10.017 4.592-.386.08-1.253.682-1.928 1.337-.675.656-1.341 1.192-1.481 1.192-.407 0-.293 1.06.13 1.223.28.107.055.435-.809 1.182-.657.57-1.303 1.035-1.435 1.035-.264 0-.06-.732.35-1.264.426-.549.045-.647-1.138-.292-1.218.365-1.505.746-1.103 1.464.32.572-.423 2.171-1.237 2.663-.466.28-.545.25-.618-.244-.147-1.003-.736-.823-2.011.617a53.416 53.416 0 0 1-2.769 2.842c-1.146 1.08-1.453 1.517-1.242 1.772.382.46-3.519 3.819-4.435 3.819-.38 0-.95.344-1.415.852-.81.888-.964 1.264-.514 1.264.608 0 .198.51-.63.784-.491.162-1.105.528-1.363.814-.452.498-.448.538.1 1.013.748.649.72 1.126-.114 1.907-.56.526-.659.809-.542 1.568.135.887.038 1.022-2.276 3.175a748.667 748.667 0 0 0-5.213 4.91 267.413 267.413 0 0 1-5.11 4.729c-2.03 1.813-2.315 2.176-2.315 2.946 0 .482.123.953.272 1.046.337.207-3.538 2.244-4.27 2.244-.371 0-.683.347-1.043 1.162-.283.64-.693 1.23-.912 1.315-.544.209-.497.763.133 1.564.627.798.656.986.153.986-.207 0-.453.35-.547.78-.158.717-.224.756-.82.484-.561-.255-.749-.2-1.394.42-.456.436-.91.651-1.165.553-.23-.089-.697-.01-1.036.177-.338.185-.858.308-1.154.273-.299-.036-.82.236-1.173.611-.394.42-.808.62-1.093.53-.29-.092-.612.074-.877.453l-.42.6v-.721c0-.396-.037-.72-.082-.72s-.581.24-1.19.535c-1.289.622-1.437 1.285-.458 2.054.357.282.792.824.966 1.205.372.816 1.257 1.187 1.587.666.16-.252.229-.143.232.362.003.499.228.86.731 1.172.4.247 1.145.826 1.654 1.286.51.46 1.462 1.155 2.117 1.543.655.389 1.522.97 1.927 1.291.592.47.83.527 1.215.286.42-.263.465-.221.357.34-.203 1.062 2.218 3.726 2.531 2.785.063-.186.463.007 1.01.487.885.778 2.632 2.667 2.446 2.646-.052-.006-.497-.185-.99-.4zm-33.27-42.784c1.481-2.242 3.949-6.635 6.087-10.836 1.978-3.886 4.633-8.827 5.9-10.98 4.937-8.392 6.622-11.431 7.89-14.234 3.302-7.292 10.382-21.13 12.929-25.268 1.246-2.026 6.558-12.015 8.29-15.592 1.622-3.347 1.829-5.302.737-6.962-4.357-6.621-13.604-17.016-29.367-33.008-3.801-3.856-8.796-9.01-11.1-11.452-2.305-2.442-4.282-4.407-4.395-4.366-.113.041-3.458 3.534-7.434 7.762-3.975 4.228-9.729 10.34-12.785 13.581a925.66 925.66 0 0 0-10.154 10.966c-2.528 2.79-5.99 6.561-7.693 8.38-6.666 7.122-7.42 8.115-7.42 9.758 0 .995 2.93 7.338 7.566 16.38a4309.286 4309.286 0 0 1 7.846 15.402c2.322 4.584 4.738 9.168 5.37 10.186.63 1.019 2.988 5.603 5.24 10.186 2.924 5.956 5.203 10.146 7.986 14.684 2.142 3.493 5.266 8.731 6.944 11.642 3.357 5.824 4.456 7.54 4.827 7.54.135 0 1.366-1.696 2.736-3.77zm-48.186.53c.18-.49-.058-.993-.468-.993-.54 0-.743.502-.381.938.392.472.688.491.849.054zm-1.437-1.324c.09-.772-.172-.93-.688-.413-.243.242-.455.181-.93-.265-.339-.318-.868-.579-1.176-.579a.773.773 0 0 1-.729-.529c-.161-.509-1.687-1.852-2.104-1.852-.319 0 .115 1.403.603 1.953.244.273.92.808 1.501 1.188 2.378 1.553 3.386 1.695 3.523.497zm167.48-20.393c.047-.389.191-.707.322-.707.358 0 .803-.968.64-1.392-.117-.308-.351-.32-1.342-.068-1.818.462-2.13 1.21-.983 2.358.836.835 1.249.777 1.363-.19zM-22.513 89.59c-.636-1.7-1.179-2.294-1.658-1.814-.242.241-.238.418.018.769.183.25.712 1.034 1.176 1.74 1.022 1.557 1.205 1.284.465-.695zm3.44-4.69c0-.423-1.06-1.367-1.405-1.252-.46.153-.556 1.02-.142 1.282.493.312 1.547.292 1.547-.03zm138.91 132.29c0-.146.12-.265.265-.265s.264.119.264.265a.265.265 0 0 1-.529 0zm-40.867-5.01c-.27-.437.293-.541.81-.15.485.368.483.38-.078.389-.319.005-.648-.103-.732-.238zm44.58-4.185c.005-.109.18-.496.388-.86l.378-.661.009.86c.006.592-.114.86-.388.86-.218 0-.392-.09-.387-.199zm15.197-12.223c.23-.444.598-.808.819-.808s.901-.253 1.514-.564l1.114-.564-.504.564c-.277.31-.65.564-.827.564s-.479.187-.668.415c-.189.228-.686.591-1.105.808l-.76.393zm-117.87-35.607c-.184-.222-.268-.47-.186-.552.082-.081.282.1.444.404.347.647.218.721-.258.148zM-.637 73.61a.729.729 0 0 1-.176-.45c0-.165.123-.15.313.04.172.172.251.375.176.45-.075.075-.216.057-.313-.04zm162.86-16.345c.1-.11.066-.505-.074-.875-.224-.59-.206-.632.149-.338.49.408.524.966.074 1.225-.182.105-.249.1-.149-.012zm-39.472-11.789c-.238-.154-.27-.258-.082-.26a.616.616 0 0 1 .479.26c.203.329.111.329-.397 0zm-29.083-25.29c.013-.308.076-.37.16-.16.076.191.067.42-.02.508-.089.087-.151-.069-.14-.348z" filter="url(#a)"/>
  </g>
</svg>
