<?xml version="1.0" encoding="UTF-8" standalone="no"?>
<svg
   xmlns:dc="http://purl.org/dc/elements/1.1/"
   xmlns:cc="http://creativecommons.org/ns#"
   xmlns:rdf="http://www.w3.org/1999/02/22-rdf-syntax-ns#"
   xmlns:svg="http://www.w3.org/2000/svg"
   xmlns="http://www.w3.org/2000/svg"
   xmlns:sodipodi="http://sodipodi.sourceforge.net/DTD/sodipodi-0.dtd"
   xmlns:inkscape="http://www.inkscape.org/namespaces/inkscape"
   width="100%"
   height="100%"
   viewBox="0 0 286.23682 286.23682"
   version="1.1"
   id="svg5879"
   inkscape:version="1.0.1 (0767f8302a, 2020-10-17)"
   sodipodi:docname="The Izzet League.svg">
  <defs
     id="defs5873">
    <filter
       style="color-interpolation-filters:sRGB"
       inkscape:label="Drop Shadow"
       id="filter6470">
      <feFlood
         flood-opacity="0.803922"
         flood-color="rgb(42,29,4)"
         result="flood"
         id="feFlood6460" />
      <feComposite
         in="flood"
         in2="SourceGraphic"
         operator="in"
         result="composite1"
         id="feComposite6462" />
      <feGaussianBlur
         in="composite1"
         stdDeviation="2"
         result="blur"
         id="feGaussianBlur6464" />
      <feOffset
         dx="0"
         dy="2.3"
         result="offset"
         id="feOffset6466" />
      <feComposite
         in="SourceGraphic"
         in2="offset"
         operator="over"
         result="composite2"
         id="feComposite6468" />
    </filter>
  </defs>
  <sodipodi:namedview
     id="base"
     pagecolor="#ffffff"
     bordercolor="#666666"
     borderopacity="1.0"
     inkscape:pageopacity="0.0"
     inkscape:pageshadow="2"
     inkscape:zoom="1.4"
     inkscape:cx="350.15481"
     inkscape:cy="314.53161"
     inkscape:document-units="mm"
     inkscape:current-layer="layer1"
     inkscape:document-rotation="0"
     showgrid="false"
     inkscape:window-width="1647"
     inkscape:window-height="1212"
     inkscape:window-x="896"
     inkscape:window-y="95"
     inkscape:window-maximized="0"
     fit-margin-top="0"
     fit-margin-left="0"
     fit-margin-right="0"
     fit-margin-bottom="0" />
  <metadata
     id="metadata5876">
    <rdf:RDF>
      <cc:Work
         rdf:about="">
        <dc:format>image/svg+xml</dc:format>
        <dc:type
           rdf:resource="http://purl.org/dc/dcmitype/StillImage" />
        <dc:title></dc:title>
      </cc:Work>
    </rdf:RDF>
  </metadata>
  <g
     inkscape:label="Layer 1"
     inkscape:groupmode="layer"
     id="layer1"
     transform="translate(41.91874,9.7108538)">
    <circle
       style="fill:#e100fc;fill-opacity:1;fill-rule:evenodd;stroke:#000000;stroke-width:5.765;stroke-miterlimit:4;stroke-dasharray:none;stroke-opacity:1"
       id="path6458"
       cx="101.19968"
       cy="133.40756"
       r="140.23592" />
    <path
       style="fill:#000000;stroke-width:0.264583;filter:url(#filter6470)"
       d="m 93.653473,262.98041 c -8.67863,-0.99719 -16.93903,-4.56221 -24.06791,-10.3872 -1.08995,-0.89059 -3.45724,-2.98847 -5.26066,-4.66196 -4.6819,-4.34459 -4.97359,-4.54982 -12.88602,-9.06633 -14.57604,-8.32017 -22.6188,-13.82145 -28.26306,-19.332 -1.48908,-1.45381 -1.50264,-1.46017 -1.88126,-0.88233 -1.34338,2.05025 -1.47271,4.18769 -0.53897,8.90774 0.98001,4.95396 0.82098,9.35231 -0.47331,13.09077 l -0.33408,0.96498 -1.00329,-1.9207 c -1.6413,-3.14211 -2.7978,-4.74083 -5.04831,-6.97866 -1.47672,-1.46839 -2.67077,-2.38329 -3.88627,-2.97771 -1.3536295,-0.66198 -2.3210695,-1.44899 -4.2333395,-3.44387 -11.1037,-11.58334 -18.9754205,-27.1418 -22.8412505,-45.14576 -1.04089,-4.84765 -2.16196,-12.29151 -2.42424,-16.09686 -0.0978,-1.41883 -0.27929,-2.57969 -0.40333,-2.57969 -0.12404,0 -0.22553,-4.58391 -0.22553,-10.18646 0,-6.61458 0.0928,-10.18646 0.26458,-10.18646 0.14552,0 0.26458,-0.47169 0.26458,-1.04821 0,-0.57652 0.23612,-2.88718 0.52472,-5.1348 2.58984,-20.17036 9.7930505,-38.216691 21.9276405,-54.935741 6.62007,-9.12113 16.9647295,-19.51916 26.6278495,-26.76522 19.58503,-14.68617 43.48786,-23.79457 65.07417,-24.79715 24.697857,-1.14708 52.033217,8.18515 74.794947,25.53485 9.22379,7.03065 18.82521,16.71494 25.28019,25.49836 9.37968,12.7631 15.98057,26.618211 19.61315,41.167491 2.78595,11.15838 3.98967,22.28823 3.66007,33.84188 -0.54407,19.07208 -4.04979,34.85001 -10.88762,49.00114 -4.2907,8.87977 -8.75582,15.41713 -14.91364,21.83502 -1.91028,1.99096 -2.88111,2.7802 -4.23333,3.44148 -1.21551,0.59442 -2.40956,1.50932 -3.88628,2.97771 -2.25051,2.23783 -3.40701,3.83655 -5.04831,6.97866 l -1.00328,1.9207 -0.33409,-0.96498 c -1.29429,-3.73846 -1.45331,-8.13681 -0.47331,-13.09077 0.93289,-4.71577 0.80413,-6.85792 -0.53508,-8.90181 -0.372,-0.56774 -0.40355,-0.55093 -2.17274,1.15727 -5.51406,5.32396 -13.65935,10.89379 -27.27348,18.64988 -8.29932,4.7282 -8.70785,5.01095 -13.20076,9.13648 -6.71182,6.16302 -9.98815,8.5726 -15.01774,11.04481 -7.70606,3.78779 -16.66985,5.32496 -25.281407,4.33545 z m -30.88101,-69.61947 c 0.22037,-0.32743 0.89721,-1.10537 1.50408,-1.72877 l 1.10341,-1.13346 -0.28123,-2.31299 c -0.86726,-7.13277 -0.83085,-15.7958 0.0905,-21.52118 0.6246,-3.8815 2.35454,-10.62844 3.45724,-13.48353 0.12369,-0.32024 -0.48057,-0.85833 -2.42925,-2.16324 -13.0789,-8.7581 -22.40888,-21.83003 -26.66504,-37.35951 -2.0067,-7.32189 -2.80485,-15.185161 -2.28154,-22.477471 0.17813,-2.4822 0.4773,-5.37629 0.66483,-6.43131 0.18752,-1.05503 0.29177,-1.91823 0.23166,-1.91823 -0.2541,0 -1.81515,3.82203 -2.86373,7.01146 -4.56086,13.872691 -5.61387,33.218191 -2.74354,50.403121 2.70662,16.20475 9.63946,31.72569 19.44112,43.52396 3.52284,4.24045 9.45198,10.18646 10.15755,10.18646 0.11732,0 0.39361,-0.26789 0.61398,-0.59531 z m 77.784357,-3.72726 c 14.33555,-14.26921 22.93462,-33.0194 25.74411,-56.13473 0.57199,-4.70614 0.78852,-16.17164 0.40224,-21.29895 -0.74843,-9.93419 -2.56001,-18.695961 -5.33716,-25.813311 -1.45462,-3.72795 -1.84195,-4.18954 -1.40362,-1.67276 0.18715,1.07457 0.48448,3.98466 0.66072,6.46686 0.97503,13.731991 -2.73581,28.730191 -9.94661,40.201501 -6.2336,9.91674 -15.28475,18.31004 -24.68612,22.8919 l -2.97473,1.44977 0.14015,1.4552 c 0.65615,6.81267 4.33079,20.27343 6.78758,24.86391 1.19235,2.22791 7.01004,10.59026 7.36765,10.59026 0.12771,0 1.58832,-1.34984 3.24579,-2.99965 z m -12.97839,-44.12622 c 6.50955,-4.00625 12.87307,-10.30462 17.47913,-17.30017 1.8614,-2.82704 4.81404,-8.77931 6.11629,-12.32991 1.13731,-3.1009 2.34478,-7.85011 2.98669,-11.74717 0.7454,-4.525421 0.671,-14.443011 -0.14258,-19.005851 -3.04778,-17.09285 -11.91368,-31.01249 -25.43949,-39.94047 -9.08081,-5.99396 -18.77825,-8.90962 -29.633327,-8.90962 -10.85509,0 -20.55253,2.91566 -29.63334,8.90962 -13.51,8.91755 -22.40007,22.87558 -25.43864,39.94047 -0.52089,2.92535 -0.6046,4.29287 -0.6046,9.87772 0,5.538561 0.0859,6.963811 0.58974,9.789741 2.41439,13.54081 8.19859,24.70205 17.41869,33.61119 3.27014,3.15986 9.19278,7.66365 10.07795,7.66365 0.11906,0 0.91112,-1.39898 1.76014,-3.10885 2.88154,-5.80325 7.1147,-12.5231 10.87547,-17.26406 2.88727,-3.63979 4.10667,-6.48866 4.10667,-9.59436 0,-1.1763 0.0629,-1.30301 0.76876,-1.54908 2.10099,-0.73241 1.6084,-5.46884 -0.77755,-7.47648 -1.07695,-0.90619 -1.78529,-1.06304 -3.97266,-0.87966 l -1.80689,0.15148 -0.54414,-0.92225 c -1.13935,-1.93105 -3.88731,-2.16296 -5.49171,-0.46347 -1.4734,1.56072 -1.3827,4.11876 0.206,5.80985 l 0.5274,0.56138 -0.69563,0.4558 c -0.79777,0.52271 -0.7416,1.28493 0.19121,2.59494 0.29724,0.41744 0.49389,0.80553 0.437,0.86242 -0.29273,0.29272 -5.63214,-2.67853 -6.65941,-3.70581 -1.93446,-1.93445 -5.08393,-9.72957 -6.27267,-15.525171 -0.69965,-3.41109 -0.61279,-5.8481 0.28066,-7.87438 1.46318,-3.3184 5.82578,-8.15508 13.45804,-14.92049 8.07612,-7.15886 13.83481,-10.77163 20.00888,-12.55277 1.53566,-0.44301 2.10797,-0.77985 3.349807,-1.97156 1.15897,-1.11217 2.58117,-1.99234 6.28777,-3.89135 5.67756,-2.9088 8.68393,-4.68202 10.42025,-6.1461 l 1.27241,-1.0729 -0.42328,1.02112 c -0.23281,0.56162 -1.07878,2.12251 -1.87995,3.46864 -1.79038,3.00822 -2.74914,5.03568 -2.75255,5.82072 -0.002,0.48909 0.15085,0.60117 0.85731,0.62814 3.7817,0.14438 6.87249,-0.67985 11.8931,-3.17156 l 3.62488,-1.79901 -0.84675,1.03059 c -2.94223,3.58102 -7.44594,10.5129 -8.75824,13.48024 -0.6372,1.44083 -0.63785,1.45168 -0.13532,2.24538 0.27774,0.43865 0.90533,1.01316 1.39464,1.27667 0.84717,0.45623 1.02727,0.45839 3.77092,0.0453 1.58469,-0.23857 5.08391,-0.84782 7.77604,-1.35388 5.05004,-0.94929 10.71251,-1.58591 12.56771,-1.41294 0.84288,0.0786 0.95061,0.14163 0.52917,0.30975 -0.29104,0.11609 -1.09377,0.43173 -1.78384,0.70142 -3.43461,1.34229 -7.57418,5.18912 -10.873,10.10407 l -2.0735,3.08934 0.88288,1.66765 c 0.48558,0.9172 1.66697,2.45585 2.62532,3.41922 2.00022,2.01069 4.81356,3.53768 8.37177,4.54393 2.51438,0.71105 2.94323,0.98054 1.56039,0.98054 -1.51602,0 -4.85012,0.75961 -7.0467,1.60546 -4.1799,1.60956 -8.78305,5.120601 -11.25495,8.584651 -2.08918,2.92773 -2.04319,2.67517 -2.26409,12.43176 -0.17004,7.51046 -0.30891,9.5451 -0.9932,14.55208 -0.92855,6.79418 -1.36046,11.59282 -1.36046,15.11508 v 2.51855 l 1.52136,-0.86107 c 0.83674,-0.4736 2.44055,-1.42679 3.56402,-2.11822 z M 39.146893,37.918229 c -0.004,-1.21438 -2.46356,-10.18569 -3.61531,-13.18711 -0.0903,-0.23534 1.43087,0.81124 3.38041,2.32574 1.94953,1.5145 4.70397,3.62388 6.12097,4.6875 l 2.57636,1.93386 -2.97324,1.7671 c -1.63528,0.9719 -3.44736,2.08961 -4.02684,2.4838 -1.31419,0.89397 -1.45935,0.89289 -1.46235,-0.0109 z m 118.134137,0.0109 c -0.57948,-0.39419 -2.38412,-1.50748 -4.0103,-2.47398 l -2.9567,-1.75727 3.61261,-2.75155 c 1.98693,-1.51334 4.73305,-3.62485 6.10248,-4.69222 1.36942,-1.06738 2.41686,-1.75043 2.32762,-1.51789 -1.05908,2.75993 -3.24784,10.62214 -3.5125,12.61717 -0.0943,0.71084 -0.24753,1.29244 -0.34052,1.29244 -0.093,0 -0.6432,-0.32251 -1.22269,-0.7167 z M 63.061413,25.924089 c 0.7909,-3.8974 1.08237,-12.41628 0.61483,-17.9699286 l -0.2116,-2.513542 1.72766,2.381251 c 3.79441,5.2298496 8.11909,10.9498996 9.66931,12.7891296 0.89989,1.06767 1.5969,1.97019 1.54891,2.00561 -0.048,0.0354 -0.9207,0.27964 -1.93934,0.5427 -1.55503,0.40158 -9.95662,3.04103 -11.20633,3.52059 -0.31303,0.12013 -0.3519,-0.0243 -0.20344,-0.75581 z m 68.030597,-0.39998 c -1.89177,-0.64621 -4.8088,-1.55236 -6.48229,-2.01367 -1.67349,-0.4613 -3.08198,-0.86562 -3.12997,-0.89848 -0.048,-0.0329 0.65091,-0.93329 1.55311,-2.00096 1.58865,-1.88 5.90443,-7.58835 9.59129,-12.6860926 l 1.79672,-2.484288 -0.20922,2.910417 c -0.43103,5.9958636 -0.16251,13.7329236 0.60833,17.5286436 0.096,0.47295 0.0705,0.85078 -0.0569,0.83963 -0.12733,-0.0111 -1.77932,-0.54898 -3.67109,-1.1952 z m -40.601227,-6.79018 c 2.14085,-3.64587 4.40917,-9.4635126 6.46236,-16.5741956 0.79934,-2.768335 1.53023,-5.514121 1.6242,-6.101746 0.21434,-1.340408 0.51662,-1.36938 0.72449,-0.06944 0.0879,0.549436 0.815017,3.285418 1.615907,6.079961 2.04048,7.119807 4.3237,12.9902406 6.48175,16.6654106 l 0.81447,1.38706 -3.24535,-0.19643 c -1.78494,-0.10804 -4.49551,-0.19643 -6.023467,-0.19643 -1.52797,0 -4.23854,0.0884 -6.02348,0.19643 l -3.24535,0.19643 z"
       id="path6456" />
  </g>
</svg>
