<svg xmlns="http://www.w3.org/2000/svg" viewBox="0 0 265.714 265.714"><defs><filter style="color-interpolation-filters:sRGB" id="a"><feFlood flood-opacity=".804" flood-color="#483107" result="flood"/><feComposite in="flood" in2="SourceGraphic" operator="in" result="composite1"/><feGaussianBlur in="composite1" stdDeviation="2" result="blur"/><feOffset dy="2.3" result="offset"/><feComposite in="SourceGraphic" in2="offset" result="composite2"/></filter></defs><g transform="translate(24.551 9.652)"><circle style="fill:#317f18;fill-opacity:1;fill-rule:evenodd;stroke:#1d0f10;stroke-width:7.265;stroke-miterlimit:4;stroke-dasharray:none;stroke-opacity:1" cx="108.306" cy="123.206" r="129.225"/><path style="fill:#000;stroke-width:.264583;filter:url(#a)" d="M77.625 226.052c4.524-6.053 5.042-16.805 1.415-29.404-1.714-5.957-3.525-9.56-7.471-14.862-2.26-3.035-6.337-7.352-8.58-9.084-2.946-2.274-5.512-3.22-6.38-2.351-.414.413-.462.394-.731-.304-1.197-3.106-3.334-17.315-3.964-26.361-.667-9.587.723-19.76 3.722-27.234 1.91-4.763 5.117-9.44 8.508-12.41 3.126-2.74 7.748-5.878 11.607-7.885 5.983-3.11 8.678-5.31 11.378-9.286 1.916-2.82 4.821-9.17 5.393-11.787.101-.463.526-1.075.977-1.408.438-.325 1.012-.942 1.274-1.373l.476-.783.17 1.236c.26 1.901.2 7.506-.11 10.368-.424 3.899-1.411 7.945-3.28 13.453-1.97 5.8-2.35 7.67-2.223 10.94l.093 2.386h-.944c-3.676-.001-8.691 3.676-11.792 8.645-2.803 4.49-4.881 11.912-5.155 18.406l-.065 1.52 1.272.842c1.568 1.038 4.339 4.339 7.24 8.623l2.197 3.245-1.14-.599c-1.716-.902-4.244-.845-5.718.13-1.5.993-2.455 2.902-2.484 4.965-.05 3.51 3.41 8.222 7.463 10.165 3.114 1.492 4.407 1.637 10.184 1.143.735-.063.868.071 1.774 1.784 3.046 5.757 4.886 15.788 4.222 23.009-.84 9.122-3.975 18.124-8.589 24.66-2.691 3.813-6.61 7.512-10.636 10.037l-.794.498zm61.34-.724c-2.835-1.929-6.775-5.864-8.942-8.933-5.893-8.343-9.4-21.172-8.535-31.215.536-6.227 2.135-12.452 4.215-16.408.9-1.714 1.032-1.847 1.767-1.784 5.777.494 7.07.35 10.185-1.143 4.062-1.947 7.512-6.654 7.462-10.181-.03-2.06-.898-3.82-2.409-4.884-.98-.69-1.36-.793-2.892-.793-1.319 0-2.05.15-2.902.598l-1.139.599 2.197-3.245c2.902-4.284 5.672-7.585 7.24-8.623l1.272-.842-.064-1.52c-.275-6.494-2.353-13.915-5.156-18.406-3.1-4.969-8.116-8.646-11.792-8.646h-.944l.093-2.385c.127-3.27-.253-5.14-2.222-10.94-1.87-5.508-2.856-9.554-3.28-13.453-.486-4.47-.228-12.803.344-11.13.11.323.65.978 1.197 1.455.828.72 1.163 1.353 1.98 3.736.54 1.578 1.589 4.078 2.33 5.556 3.403 6.782 6.437 9.73 13.911 13.517 1.928.977 4.25 2.324 5.16 2.993.91.669 2.547 1.87 3.638 2.668 6.972 5.101 11.548 12.83 13.63 23.015 1.722 8.43 1.787 16.065.242 28.36-.93 7.404-2.6 16.598-3.108 17.106-.046.045-.441-.053-.88-.218-1.845-.697-4.947 1.167-9.516 5.717-4.596 4.578-8.636 10.222-10.599 14.805-2.1 4.902-3.82 12.06-4.322 17.98-.602 7.099.747 13.508 3.642 17.304.36.473.605.86.543.86-.061 0-1.117-.684-2.346-1.52zm-95.298-4.83c.107-1.237.186-4.452.175-7.144-.023-5.527-.56-9.06-1.999-13.166-2.402-6.85-5.45-11.296-14.918-21.759-8.902-9.838-12.789-15.6-20.39-30.225-3.973-7.648-5.448-10.186-6.84-11.774-1.008-1.149-1.08-1.182-2.31-1.064a5.548 5.548 0 0 0-2.339.83c-1.332.882-3.223 3.414-3.848 5.153-.314.872-.59 1.266-.826 1.176-.267-.103-.353-.9-.353-3.282 0-1.731.096-3.147.214-3.147s.367-.594.553-1.32c.463-1.804 2.05-5.017 4.086-8.267 5.052-8.068 6.14-10.143 8.845-16.871 5.646-14.046 12.385-35.35 13.828-43.716.284-1.646.265-1.846-.25-2.68-1.453-2.351-4.362-4.233-6.563-4.245-1.34-.008-1.376-.028-1.226-.68.513-2.226 2.092-3.655 6.442-5.828 3.67-1.833 6.272-3.689 10.054-7.172 11.786-10.853 14.784-13.2 23.019-18.012 7.768-4.54 12.627-6.895 17.703-8.579 1.6-.53 3.088-.896 3.307-.812 1.002.384 3.332 5.446 3.332 7.24 0 1.06-.177 1.75-2.19 8.548-.668 2.256-1.284 4.429-1.37 4.829-.136.64-.276.727-1.173.727-1.463 0-5.168.685-7.174 1.326-2.645.845-7.816 3.516-10.366 5.354-8.187 5.9-16.558 15.717-22.704 26.627-1.236 2.194-1.424 2.73-1.62 4.63-.12 1.181-.524 3.279-.896 4.661-4.656 17.318-5.413 22.046-5.426 33.867l-.007 6.747-1.197 2.767c-.658 1.522-1.304 3.24-1.433 3.818-.556 2.472.519 7.125 3.2 13.86.71 1.785 1.837 4.761 2.504 6.614 1.546 4.298 4.466 10.35 7.113 14.745 1.14 1.892 4.71 7.369 7.933 12.171 7.624 11.358 9.48 14.823 10.728 20.03.981 4.092.574 10.381-1.074 16.614-.88 3.325-2.658 7.276-3.93 8.732l-.81.926.196-2.249zm130.232 1.017c-3.89-5.332-6.303-17.48-4.87-24.51.541-2.66 2.116-6.577 3.995-9.934.827-1.479 4.026-6.439 7.107-11.023 3.082-4.584 6.535-9.882 7.674-11.774 2.649-4.4 5.568-10.453 7.112-14.745.666-1.853 1.793-4.83 2.504-6.615 1.885-4.735 2.881-8.038 3.201-10.615.337-2.71.304-2.877-1.35-6.827l-1.29-3.084-.004-6.838c-.004-9.993-.695-15.435-3.198-25.181l-2.243-8.735c-.498-1.942-.906-4.134-.906-4.872 0-1.137-.226-1.746-1.475-3.983-6.121-10.96-14.568-20.896-22.818-26.841-2.54-1.83-7.724-4.51-10.33-5.34-2.167-.69-5.595-1.34-7.073-1.34-1.045 0-1.172-.07-1.32-.727-.438-1.946-.784-3.165-2.01-7.078-1.752-5.596-1.837-6.58-.794-9.183.927-2.316 2.006-4.134 2.585-4.356.939-.36 8.718 2.663 13.867 5.39 12.06 6.386 16.972 9.909 28.303 20.295 5.608 5.14 8.075 6.982 11.913 8.893 4.343 2.163 5.93 3.597 6.442 5.826.15.651.114.671-1.225.679-2.2.012-5.11 1.894-6.56 4.24-.663 1.073-.634 1.335.821 7.412 2.473 10.324 7.458 25.579 12.61 38.583 2.52 6.364 3.646 8.591 7.517 14.878 5.337 8.668 6.06 10.493 6.06 15.306 0 1.65-.094 3.056-.208 3.127-.114.07-.47-.548-.792-1.373-1.239-3.177-3.754-5.578-6.077-5.802-1.26-.12-1.321-.092-2.334 1.062-1.379 1.572-2.824 4.06-6.86 11.811-7.624 14.643-11.369 20.209-20.135 29.924-9.796 10.857-12.736 15.128-15.15 22.013-1.802 5.14-2.553 12.621-1.917 19.099.17 1.73.254 3.199.187 3.266-.066.066-.498-.396-.96-1.028zM101.853 137.7c.455-3.843-1.53-8.068-6.764-14.4-2.334-2.824-2.38-2.906-2.569-4.63-.522-4.752.947-13.027 4.958-27.938 2.475-9.197 2.708-10.4 2.523-12.977-.279-3.866-2.478-10.715-3.442-10.715-.582 0-3.38 2.15-5.778 4.438-4.713 4.501-8.384 10.101-10.011 15.273-.503 1.599-.524 1.598-1.306-.051-.4-.845-2.138-4.037-3.86-7.093-5.474-9.715-5.946-10.577-5.946-10.877 0-.162.37-.757.82-1.323 1.606-2.016 1.846-2.923 3.285-12.406 1.104-7.276 1.967-11.679 4.36-22.225.99-4.365 1.886-8.473 1.991-9.128.158-.984.53-1.563 2.133-3.334l1.942-2.144 4.84-.18c6.198-.23 10.156-.62 11.028-1.085.38-.203 1.211-.852 1.848-1.443 1.325-1.23 1.763-1.33 1.983-.456.243.972 1.07 1.864 3.234 3.493 2.305 1.735 2.07 1.758 4.87-.485 1.08-.867 1.916-1.793 2.249-2.493.29-.613.663-1.119.826-1.124.164-.005.819.474 1.455 1.065.637.591 1.469 1.24 1.848 1.443.872.465 4.83.854 11.029 1.085l4.84.18 1.933 2.144c1.782 1.976 1.959 2.277 2.26 3.863.179.946 1.08 5.054 2.003 9.128 2.298 10.148 3.084 14.192 4.345 22.358 1.45 9.379 1.446 9.368 3.633 12.387.553.764.568.732-3.887 8.532-1.782 3.12-3.94 7.014-4.796 8.654-1.071 2.054-1.6 2.837-1.697 2.514-1.144-3.802-3.788-8.697-6.54-12.111-2.856-3.541-8.517-8.6-9.625-8.6-.99 0-3.187 6.935-3.437 10.849-.164 2.58.15 4.13 2.834 14.023 3.364 12.392 4.565 18.76 4.596 24.363l.021 3.858-1.13 1.434c-.621.788-1.955 2.445-2.964 3.682-3.594 4.406-5.116 7.783-5.147 11.418-.012 1.445-.117 2.234-.284 2.138-2.055-1.174-3.699-3.815-3.993-6.412-.214-1.894.44-5.38 1.625-8.652 1.015-2.805 1.115-4.06.49-6.183-1.104-3.758-3.485-6.861-5.265-6.861-1.825 0-4.318 3.315-5.284 7.025-.594 2.279-.515 3.071.644 6.452 1.223 3.569 1.72 6.397 1.472 8.382-.235 1.885-1.521 4.395-2.735 5.339-1.634 1.27-1.632 1.27-1.458-.194zm-42.22-40.38c-.416-1.498-.36-6.336.101-8.747.662-3.46 2.33-8.177 3.773-10.673l.68-1.179.718 2.899c.855 3.453 2.07 6.684 3.164 8.408.917 1.447.932 1.501.396 1.501-1.923 0-5.73 3.442-7.447 6.732l-1.096 2.102zm97.8-1c-1.68-3.265-4.812-6.245-7.03-6.689-.462-.092-.84-.208-.84-.258 0-.05.358-.654.795-1.345 1.09-1.72 2.31-4.953 3.156-8.376.81-3.273.804-3.273 2.244-.11 2.41 5.288 3.43 9.818 3.285 14.603-.131 4.32-.351 4.618-1.61 2.174z"/></g></svg>