<?xml version="1.0" encoding="UTF-8" standalone="no"?>
<svg
   xmlns:dc="http://purl.org/dc/elements/1.1/"
   xmlns:cc="http://creativecommons.org/ns#"
   xmlns:rdf="http://www.w3.org/1999/02/22-rdf-syntax-ns#"
   xmlns:svg="http://www.w3.org/2000/svg"
   xmlns="http://www.w3.org/2000/svg"
   xmlns:sodipodi="http://sodipodi.sourceforge.net/DTD/sodipodi-0.dtd"
   xmlns:inkscape="http://www.inkscape.org/namespaces/inkscape"
   width="100%"
   height="100%"
   viewBox="0 0 298.07422 298.07422"
   version="1.1"
   id="svg18812"
   inkscape:version="1.0.1 (0767f8302a, 2020-10-17)"
   sodipodi:docname="The Naya Shard.svg">
  <defs
     id="defs18806">
    <filter
       style="color-interpolation-filters:sRGB;"
       inkscape:label="Drop Shadow"
       id="filter19402">
      <feFlood
         flood-opacity="0.803922"
         flood-color="rgb(42,29,4)"
         result="flood"
         id="feFlood19392" />
      <feComposite
         in="flood"
         in2="SourceGraphic"
         operator="in"
         result="composite1"
         id="feComposite19394" />
      <feGaussianBlur
         in="composite1"
         stdDeviation="2"
         result="blur"
         id="feGaussianBlur19396" />
      <feOffset
         dx="0"
         dy="2.3"
         result="offset"
         id="feOffset19398" />
      <feComposite
         in="SourceGraphic"
         in2="offset"
         operator="over"
         result="composite2"
         id="feComposite19400" />
    </filter>
  </defs>
  <sodipodi:namedview
     id="base"
     pagecolor="#ffffff"
     bordercolor="#666666"
     borderopacity="1.0"
     inkscape:pageopacity="0.0"
     inkscape:pageshadow="2"
     inkscape:zoom="0.49497475"
     inkscape:cx="159.91447"
     inkscape:cy="462.1075"
     inkscape:document-units="mm"
     inkscape:current-layer="layer1"
     inkscape:document-rotation="0"
     showgrid="false"
     fit-margin-top="0"
     fit-margin-left="0"
     fit-margin-right="0"
     fit-margin-bottom="0"
     inkscape:window-width="1647"
     inkscape:window-height="1212"
     inkscape:window-x="896"
     inkscape:window-y="95"
     inkscape:window-maximized="0" />
  <metadata
     id="metadata18809">
    <rdf:RDF>
      <cc:Work
         rdf:about="">
        <dc:format>image/svg+xml</dc:format>
        <dc:type
           rdf:resource="http://purl.org/dc/dcmitype/StillImage" />
        <dc:title></dc:title>
      </cc:Work>
    </rdf:RDF>
  </metadata>
  <g
     inkscape:label="Layer 1"
     inkscape:groupmode="layer"
     id="layer1"
     transform="translate(36.627294,4.8800554)">
    <circle
       style="fill:#ffc080;fill-rule:evenodd;stroke:#060a1a;stroke-width:4.865;stroke-miterlimit:4;stroke-dasharray:none;stroke-opacity:1;fill-opacity:1"
       id="path19390"
       cx="112.40982"
       cy="144.15706"
       r="146.60461" />
    <path
       style="fill:#000000;stroke-width:0.352777;filter:url(#filter19402)"
       d="m 127.83151,282.73851 c 0.82999,-3.9955 -2.96379,-7.76631 -10.80516,-10.73981 -1.96242,-0.74419 -3.59381,-1.39707 -3.62527,-1.45086 -0.0314,-0.0538 0.0847,-1.09609 0.25813,-2.31619 0.37523,-2.63972 0.0427,-2.64652 5.7182,0.11752 9.19054,4.47591 12.56104,9.75162 9.13394,14.29695 l -0.91186,1.20938 z m -24.68187,-15.26233 c -9.993132,-3.19833 -13.071742,-4.35597 -17.638902,-6.63268 -6.23636,-3.10877 -9.62745,-5.83639 -10.22265,-8.22259 -0.707,-2.83445 2.97188,-5.91314 10.97293,-9.18279 3.58733,-1.46597 20.280922,-7.10787 20.470442,-6.91837 0.16068,0.1607 0.81293,4.87105 0.8209,5.92844 0.007,0.88704 -0.26387,1.01785 -6.4312,3.10927 -3.541002,1.20079 -7.913512,2.89444 -9.716692,3.76362 -3.39204,1.63507 -6.0701,3.85419 -6.0701,5.02992 0,1.09476 1.36932,2.48576 3.51168,3.56724 2.05425,1.03698 3.26305,1.41626 14.656362,4.59849 3.85093,1.07558 6.52354,2.00564 6.79098,2.36323 0.24254,0.32427 0.44273,0.99581 0.44484,1.49227 0.004,0.49649 0.10229,1.49805 0.22254,2.22565 0.12028,0.72761 0.0788,1.30636 -0.0921,1.28614 -0.17089,-0.0201 -3.64448,-1.10376 -7.71906,-2.40784 z m 8.71617,-6.37484 c -0.9991,-7.93523 -10.64075,-83.55436 -13.111722,-102.83471 l -1.35636,-10.58333 7.464112,-7.49758 7.4641,-7.49758 7.45173,7.49758 7.4517,7.49758 -0.83032,6.1736 c -0.45667,3.39548 -2.0203,15.53985 -3.47482,26.9875 -2.69918,21.24369 -7.86718,61.87345 -9.64759,75.84723 l -0.98885,7.7611 z m 5.79789,-24.25346 c 0.24948,-1.89177 0.46104,-3.67771 0.47009,-3.96875 0.009,-0.2926 1.21949,-1.16004 2.70732,-1.94029 3.21675,-1.68691 5.68515,-3.77196 6.35042,-5.36417 0.42042,-1.0061 0.41167,-1.33924 -0.0651,-2.48033 -0.73292,-1.75416 -1.59414,-2.62033 -4.36761,-4.39277 -1.27767,-0.81656 -2.37693,-1.52025 -2.44276,-1.56374 -0.14441,-0.0954 1.01984,-9.42581 1.19973,-9.61504 0.22656,-0.23834 7.62687,2.83493 12.6783,5.26507 7.93226,3.81612 12.61618,7.34494 13.89996,10.47219 1.90159,4.63216 -4.909,8.91582 -23.92291,15.0468 -3.3783,1.08937 -6.32658,1.98062 -6.55171,1.98062 -0.30758,0 -0.2966,-0.85514 0.0443,-3.43959 z m -16.63073,-26.74204 c -1.358212,-0.44249 -6.358812,-2.02092 -11.112502,-3.50764 -10.74833,-3.36161 -14.37203,-4.68664 -18.95917,-6.93266 -5.63102,-2.75715 -7.73644,-5.26074 -6.63702,-7.89207 1.0046,-2.40441 8.24357,-8.06339 16.24759,-12.70146 3.79936,-2.20157 17.54926,-9.01814 17.76193,-8.80552 0.12089,0.12092 1.776202,12.64441 1.683592,12.73757 -0.0235,0.0236 -2.424002,1.27175 -5.334422,2.77347 -6.14034,3.16839 -10.18376,5.74934 -10.34084,6.60075 -0.22013,1.193 3.86747,3.22775 13.01427,6.47829 2.60419,0.92544 4.779462,1.7144 4.833892,1.75319 0.11967,0.0853 1.47989,10.17857 1.38136,10.25022 -0.0381,0.0279 -1.18049,-0.31168 -2.53868,-0.75414 z m 23.45971,-28.50703 c 0,-0.29552 2.4602,-15.4972 2.67716,-16.54233 0.13517,-0.65117 0.91905,-1.51977 2.37823,-2.63531 3.25281,-2.48676 9.23195,-8.40975 11.31626,-11.2101 2.5006,-3.35958 3.54086,-5.24351 4.45108,-8.06093 2.60535,-8.06445 -2.05102,-14.88723 -13.238,-19.39703 -3.60852,-1.45473 -3.46221,-1.607 0.55787,-0.58055 10.29703,2.62909 16.88539,6.84017 19.80181,12.6568 0.96944,1.93347 1.15197,2.71986 1.27286,5.48394 0.17037,3.89535 -0.42312,6.5501 -2.38376,10.66326 -2.83954,5.95691 -7.35388,11.68855 -15.23474,19.34284 -4.74281,4.60648 -11.59877,10.68258 -11.59877,10.27941 z M 71.752408,122.73373 c -0.77611,-0.19725 -14.26986,-3.4384 -29.98611,-7.20254 -15.71625,-3.76413 -28.73375,-6.89555 -28.92779,-6.95865 -0.19402,-0.0631 2.10786,-0.70657 5.11529,-1.43002 11.32322,-2.72373 51.00191,-12.250134 54.3723,-13.054204 l 1.9848,-0.4735 7.45207,7.458164 7.45207,7.45815 -7.32327,7.31703 c -4.88884,4.88468 -7.55682,7.30493 -8.02577,7.28059 -0.38634,-0.0201 -1.33749,-0.1978 -2.11359,-0.39502 z m 32.893392,-6.89171 -7.317002,-7.32322 7.499592,-7.49353 7.49964,-7.493534 7.40209,7.408424 7.40209,7.40841 -7.40203,7.40833 c -4.07112,4.07458 -7.48425,7.40833 -7.58471,7.40833 -0.10049,0 -3.47533,-3.29543 -7.49967,-7.32321 z m 41.77755,-3.37799 -7.46691,-7.47302 7.36664,-7.360374 c 4.05164,-4.04823 7.5148,-7.30118 7.69585,-7.22887 0.18106,0.0723 5.51336,3.38485 11.84955,7.36114 8.69289,5.455264 11.4146,7.325224 11.08964,7.619204 -0.23691,0.21434 -4.71696,3.06319 -9.95571,6.33079 -5.23875,3.26763 -10.33209,6.45481 -11.31856,7.08266 l -1.79353,1.14147 z M 81.965798,87.379196 c -5.8823,-3.99669 -9.40337,-6.92719 -14.62312,-12.17041 -5.21796,-5.24145 -7.89599,-8.74916 -10.5972,-13.88012 -3.45125,-6.55574 -4.67574,-11.37973 -4.67574,-18.4204 0,-5.24303 0.43166,-7.93094 2.04583,-12.73953 1.77541,-5.28886 6.00943,-12.43274 9.69889,-16.36463 1.66714,-1.77668 1.71862,-1.80642 0.61063,-0.35277 -5.04693,6.62135 -8.57703,13.81313 -9.98382,20.3396 -0.82163,3.81193 -0.82677,10.09232 -0.0108,13.66507 2.58471,11.32152 11.1965,21.76682 25.12446,30.47349 3.07486,1.92212 11.10305,6.0774 11.74194,6.0774 0.21326,0 0.38772,0.13123 0.38772,0.2916 0,0.28604 -5.42305,5.70563 -5.70931,5.70563 -0.0802,0 -1.88439,-1.18123 -4.00926,-2.62493 z m 53.974342,-0.17962 -2.84004,-2.7939 4.95673,-2.47621 c 16.67904,-8.33239 28.1118,-19.96416 31.78678,-32.34012 1.25423,-4.22379 1.54876,-10.28883 0.71466,-14.71555 -1.33482,-7.08406 -4.52762,-13.87895 -9.98312,-21.24607 l -1.56747,-2.11666 1.61052,1.76387 c 5.73878,6.28544 10.2064,15.06831 11.70469,23.00997 0.70643,3.74454 0.51178,11.68699 -0.37397,15.26032 -3.11618,12.57125 -13.13418,24.93377 -28.98695,35.77087 -2.16263,1.47841 -3.98825,2.68562 -4.05694,2.68269 -0.0687,-0.004 -1.40284,-1.26257 -2.96489,-2.79921 z m -31.26195,-10.51283 -7.284592,-7.32012 6.973332,-18.16806 c 3.83532,-9.99244 7.19672,-18.70144 7.46977,-19.35332 l 0.49647,-1.18525 7.14838,18.64775 c 3.9316,10.25626 7.24574,19.02058 7.3647,19.47624 0.1869,0.71575 -0.76245,1.80825 -6.97442,8.02572 -3.95488,3.95845 -7.35234,7.19719 -7.54991,7.19719 -0.19751,0 -3.6372,-3.29406 -7.64373,-7.32015 z"
       id="path16929"
       sodipodi:nodetypes="sssssscsssssscsssssscsssssscccccssscsssssssssssssssssssssssssscsssssssssssssssscscccsssscccccsssccsssssscccssssssscssssccscsssscsssscsscsscsssss" />
  </g>
</svg>
