<svg xmlns="http://www.w3.org/2000/svg" viewBox="0 0 263.551 263.551"><defs><filter style="color-interpolation-filters:sRGB" id="a"><feFlood flood-opacity=".804" flood-color="#483107" result="flood"/><feComposite in="flood" in2="SourceGraphic" operator="in" result="composite1"/><feGaussianBlur in="composite1" stdDeviation="2" result="blur"/><feOffset dy="2.3" result="offset"/><feComposite in="SourceGraphic" in2="offset" result="composite2"/></filter></defs><g transform="translate(7.28 -8.216)"><circle style="fill:#700080;fill-opacity:1;fill-rule:evenodd;stroke:#0b101c;stroke-width:9.665;stroke-miterlimit:4;stroke-dasharray:none;stroke-opacity:1" cx="124.497" cy="139.991" r="126.943"/><path style="fill:#000;stroke-width:.264583;filter:url(#a)" d="M167.967 225.23c-4.86-.715-8.804-2.823-12.838-6.866-4.693-4.701-8.873-12.6-11.944-22.572-1.005-3.26-1-3.257-3.343-2.074-2.066 1.043-4.602 3.798-6.244 6.783-1.447 2.63-3.726 5.197-5.974 6.73-4.793 3.265-11.4 5.327-16.902 5.273l-2.28-.022 2.117-.484c7.037-1.61 13.302-4.542 16.84-7.88 2.18-2.057 3.188-3.598 3.926-6.011 1.919-6.267 4.85-10.323 8.938-12.369 1.664-.832 1.962-.9 3.133-.707 2.1.344 9.275.263 12.274-.14 7.105-.954 15.155-3.559 21.39-6.922 1.214-.655 2.134-1.072 2.045-.928-.392.635-5.27 4.51-7.598 6.035-5.456 3.576-12.973 6.565-18.483 7.35-2.764.393-2.646.317-2.646 1.69 0 .685.183 2.718.406 4.518 1.868 15.093 8.032 24.336 17.586 26.371 4.22.9 10.819.004 15.963-2.165 1.169-.493 2.164-.858 2.21-.811.26.259-5.469 3.07-7.97 3.913-3.936 1.325-7.45 1.752-10.606 1.288zm-55.02-20.442c5.226-2.788 7.049-4.46 9.088-8.338 2.36-4.486 4.522-6.73 10.22-10.604 4.665-3.173 4.864-3.238 2.492-.814-2.504 2.558-4.858 5.532-7 8.842-.847 1.31-1.846 2.85-2.22 3.422-1.156 1.769-4.08 4.453-6.306 5.791-2.172 1.305-5.638 2.62-7.747 2.938-1.102.167-1.005.085 1.473-1.237zm-18.793-.31c-2.617-.592-5.752-1.93-8.781-3.749-1.573-.944-3.039-1.904-3.257-2.134-.218-.229.109-.104.728.279 2.993 1.85 6.716 3.013 10.396 3.247 4.884.31 9.83-1.124 14.289-4.142 1.244-.843 1.733-1.011 3.206-1.105 1.209-.077 2.157-.328 3.116-.826l1.38-.715-.873 1.122c-2.569 3.308-6.536 6.28-10.08 7.551-1.615.58-2.449.7-5.229.76-2.083.045-3.895-.062-4.895-.288zm-13.13-6.702c-.33-.42-.32-.429.1-.1.44.346.58.563.363.563-.055 0-.264-.208-.463-.463zm14.056-1.283c-11.856-1.433-19.894-6.768-24.676-16.378-1.852-3.72-3.363-8.345-5.836-17.86-3.061-11.774-5.308-17.458-9.2-23.277-1.978-2.958-6.125-7.196-9.116-9.319-8.473-6.01-20.847-9.488-36.371-10.22l-4.097-.192 2.38-.58c5.88-1.43 14.675-2.043 20.243-1.41 5.62.637 11.344 2.248 15.625 4.396 5.471 2.746 11.506 8.15 15.043 13.47 3.692 5.553 5.902 10.874 8.248 19.857.722 2.765 1.79 6.428 2.372 8.14 4.806 14.138 12.214 22.868 21.729 25.611 2.752.794 7.52.97 10.8.398 8.346-1.453 18.073-6.896 27.28-15.266 1.253-1.138 2.364-1.983 2.47-1.878.106.106.153.062.104-.098-.048-.16 1.48-1.886 3.398-3.836 5.171-5.26 10.721-11.875 15.633-18.635l2.789-3.836c.838-1.15-4.698 9.557-6.433 12.442-6.93 11.523-14.965 21.325-22.884 27.919-5.855 4.875-13.803 8.86-20.034 10.045-2.201.419-7.74.715-9.467.506zm35.858-12.025c5.768-6.176 11.725-13.708 16.415-20.757 15.772-23.703 19.535-45.907 10.848-64.006-1.455-3.032-3.952-6.804-5.891-8.898l-1.46-1.576h-2.552c-3.21 0-8.443-.605-12.587-1.455-4.949-1.015-4.952-1.059-.079-1.06 5.241-.002 7.235-.297 11.579-1.716 3.631-1.186 6.717-2.691 9.782-4.772 4.115-2.793 12.178-5.436 18.52-6.07 11.212-1.12 21.146 3.639 27.05 12.956 1.896 2.994 1.79 3.092-.69.637-5.177-5.125-10.05-6.147-14.982-3.141-5.418 3.3-11.044 12.655-15.337 25.497-1.547 4.626-2.813 9.293-3.452 12.726-3.525 18.915-11.808 35.865-24.565 50.27-3.716 4.198-8.934 9.08-13.002 12.168-1.16.88-1.149.858.403-.803zM110.276 184c.758-3.628.907-10.05.299-12.93-.455-2.152-1.238-3.998-2.16-5.096l-.675-.801.615-.261c.339-.144 2.146-.808 4.015-1.475l3.4-1.214 3.943 1.914c2.168 1.053 3.942 2.073 3.942 2.268 0 .722-1.1 5.329-1.884 7.888-.446 1.456-1.22 3.428-1.72 4.384-.821 1.571-1.104 1.856-2.951 2.967-2.225 1.339-4.411 2.36-5.975 2.792-.993.274-.997.271-.85-.436zm35.472-3.128c-.873-.052-1.971-.16-2.44-.239l-.855-.143 2.88-3.433c5.374-6.404 10.634-13.869 11.835-16.795.355-.866.593-1.138.883-1.012 3.676 1.603 7.81 2.393 10.955 2.092 4.907-.47 10.156-2.67 14.814-6.21 7.588-5.766 14.07-8.249 23.567-9.026 3.963-.325 9.312.06 11.621.836.89.299 2.63 1.07 3.866 1.712 8.134 4.228 11.032 10.93 8.446 19.533-.536 1.782-2.227 5.71-2.458 5.71-.063 0 .066-.566.288-1.257.653-2.036.578-7.126-.143-9.677-2.763-9.77-10.495-12.311-20.982-6.895-2.855 1.475-5.82 3.458-9.757 6.526-9.614 7.49-19.948 12.827-30.372 15.684-3.245.89-9.306 2.049-12.226 2.339-2.126.211-8.083.364-9.922.255zm-90.76-5.12c-5.921-1.338-12.518-4.842-19.455-10.334-3.235-2.561-10.566-9.83-13.73-13.614l-2.212-2.646 3.944 3.874c4.195 4.12 5.065 4.904 7.78 7.01 5.554 4.305 11.627 7.462 17.066 8.872 2.045.53 3.018.616 6.88.613 3.37-.003 4.88-.112 6.02-.438l1.523-.435.15.703c.205.948 1.577 5.623 1.808 6.156.146.337-.027.461-.822.593-1.969.325-6.793.135-8.951-.353zm19.677-4.824c-1.131-1.966-1.88-4.145-1.762-5.127.074-.618.342-.797 2.201-1.474 2.87-1.044 8.703-3.888 10.93-5.328 1-.648 2.621-1.858 3.601-2.689s1.82-1.47 1.869-1.421c.048.05.655.864 1.35 1.81 1.556 2.116 3.625 4.34 4.922 5.29l.975.713-4.944 2.33c-8.712 4.104-15.42 6.952-17.386 7.382-.761.167-.847.094-1.756-1.486zm52.43-6.292c-.218-.135-2.871-1.434-5.895-2.886l-5.499-2.64-1.73.651c-3.186 1.2-7.735 2.475-9.454 2.65-1.614.166-1.767.131-2.918-.66-2.418-1.664-7.746-7.408-13.518-14.573-2.482-3.08-4.99-5.62-8.611-8.714-1.091-.933-2.02-1.785-2.065-1.895-.044-.109.104-1.174.33-2.367.515-2.71.524-7.034.02-9.121-.21-.873-.387-1.675-.392-1.783-.005-.107.854-.626 1.909-1.153 3.41-1.703 5.49-3.592 5.49-4.988 0-.33-.35-.41-1.78-.41h-1.78l2.11-2.147c2.999-3.05 8.81-8.205 12.049-10.686 5.846-4.48 11.323-7.646 15.462-8.94 1.945-.608 2.32-.643 4.63-.43 8.816.814 17.929 3.108 24.417 6.146 5.1 2.388 10.007 6.114 12.508 9.498.865 1.17 1.18 1.887 1.394 3.175 1.268 7.624.026 16.856-3.339 24.815-2.942 6.96-7.096 12.939-13.145 18.917-3.327 3.29-8.583 7.631-9.355 7.73-.242.03-.62-.055-.838-.19zm-12.544-38.79c2.487-1.18 4.96-7.81 4.478-12.01-.352-3.062-2.314-5.65-4.843-6.385-1.955-.568-6.386-.433-8.92.27-2.133.593-4.753 1.873-6.389 3.12l-.886.677v5.229h-2.514c-1.382 0-2.511.089-2.509.198.005.21 7.45 4.471 10.238 5.86 3.554 1.77 8.23 3.412 9.826 3.451.342.008 1.025-.176 1.519-.41zm49.887 24.032c3.545-7.37 6.034-16.9 6.89-26.384l.32-3.548 1.735-1.276c.954-.701 2.091-1.536 2.528-1.854.436-.319 2.46-1.694 4.498-3.058 17.137-11.465 32.76-16.146 44.823-13.427 5.384 1.213 10.5 4.136 13.533 7.733l1.123 1.332-1.297-.995c-1.898-1.456-5.228-2.962-7.647-3.459-3.026-.621-8.116-.38-11.468.543-11.363 3.13-24.495 12.386-39.391 27.765-4.377 4.518-10.391 11.336-14.019 15.89-1.398 1.756-2.672 3.338-2.831 3.516-.159.178.382-1.072 1.203-2.778zm-145.45-1.448-.504-.595.595.504c.56.474.716.687.504.687-.05 0-.318-.268-.595-.596zm62.128-2.461c-1.947-.524-4.331-1.753-6.456-3.328-.992-.736-1.805-1.366-1.805-1.4 0-.035.738.303 1.64.75 1.469.728 1.931.82 4.422.888 2.41.065 2.862.15 3.38.636.328.308.534.66.458.784-.075.122.018.17.207.104.19-.065.88.352 1.535.928l1.19 1.047-1.587-.016c-.873-.01-2.216-.186-2.984-.393zm-26.199-37.19c1.353-1.18 4.127-3.398 6.164-4.927 13.695-10.281 26.9-16.364 40.746-18.768 2.002-.348 4.192-.462 8.996-.469 5.47-.008 6.772.072 9.393.574 11.548 2.21 20.935 7.355 30.426 16.676l3.573 3.509-2.913-1.92c-8.942-5.896-19.502-9.657-31.483-11.214-4.701-.61-13.796-.612-18.877 0-5.794.695-11.464 1.918-17.503 3.775-8.604 2.646-20.418 8.234-28.518 13.49-1.206.781-2.253 1.421-2.328 1.421-.075 0 .971-.966 2.324-2.146z"/></g></svg>