<?xml version="1.0"?>
<svg xmlns="http://www.w3.org/2000/svg" viewBox="0 0 298.074 298.074">
  <defs>
    <filter style="color-interpolation-filters:sRGB" id="a">
      <feFlood flood-opacity=".804" flood-color="#2A1D04" result="flood"/>
      <feComposite in="flood" in2="SourceGraphic" operator="in" result="composite1"/>
      <feGaussianBlur in="composite1" stdDeviation="2" result="blur"/>
      <feOffset dy="2.3" result="offset"/>
      <feComposite in="SourceGraphic" in2="offset" result="composite2"/>
    </filter>
  </defs>
  <g transform="translate(36.627 4.88)">
    <circle style="fill:#ffc080;fill-rule:evenodd;stroke:#060a1a;stroke-width:4.865;stroke-miterlimit:4;stroke-dasharray:none;stroke-opacity:1;fill-opacity:1" cx="112.41" cy="144.157" r="146.605"/>
    <path style="fill:#000;stroke-width:.352777;filter:url(#a)" d="M127.832 282.739c.83-3.996-2.964-7.767-10.806-10.74-1.962-.744-3.593-1.397-3.625-1.451-.031-.054.085-1.096.258-2.316.375-2.64.043-2.647 5.718.117 9.19 4.476 12.561 9.752 9.134 14.297l-.912 1.21zm-24.682-15.263c-9.993-3.198-13.072-4.356-17.64-6.632-6.236-3.11-9.627-5.837-10.222-8.223-.707-2.835 2.972-5.913 10.973-9.183 3.587-1.466 20.28-7.108 20.47-6.918.161.16.813 4.87.821 5.928.007.887-.264 1.018-6.43 3.11-3.542 1.2-7.914 2.894-9.718 3.763-3.392 1.635-6.07 3.854-6.07 5.03 0 1.095 1.37 2.486 3.512 3.567 2.054 1.037 3.263 1.417 14.656 4.599 3.851 1.075 6.524 2.005 6.791 2.363.243.324.443.996.445 1.492.004.497.103 1.498.223 2.226.12.727.079 1.306-.092 1.286-.171-.02-3.645-1.104-7.72-2.408zm8.716-6.375c-1-7.935-10.64-83.554-13.112-102.834l-1.356-10.584 7.464-7.497 7.464-7.498 7.452 7.498 7.451 7.497-.83 6.174c-.457 3.395-2.02 15.54-3.475 26.987-2.699 21.244-7.867 61.874-9.647 75.848l-.99 7.76zm5.798-24.253c.25-1.892.46-3.678.47-3.969.009-.292 1.22-1.16 2.707-1.94 3.217-1.687 5.685-3.772 6.35-5.364.42-1.006.412-1.34-.065-2.48-.732-1.755-1.594-2.621-4.367-4.393-1.278-.817-2.377-1.52-2.443-1.564-.144-.096 1.02-9.426 1.2-9.615.226-.239 7.627 2.835 12.678 5.265 7.932 3.816 12.616 7.345 13.9 10.472 1.902 4.632-4.909 8.916-23.923 15.047-3.378 1.09-6.326 1.98-6.552 1.98-.307 0-.296-.855.045-3.44zm-16.631-26.742c-1.358-.443-6.359-2.021-11.113-3.508-10.748-3.361-14.372-4.686-18.959-6.932-5.63-2.758-7.736-5.261-6.637-7.893 1.005-2.404 8.244-8.063 16.248-12.701 3.8-2.202 17.55-9.018 17.762-8.806.12.121 1.776 12.645 1.683 12.738-.023.024-2.424 1.272-5.334 2.774-6.14 3.168-10.184 5.749-10.34 6.6-.221 1.193 3.867 3.228 13.013 6.479 2.605.925 4.78 1.714 4.834 1.753.12.085 1.48 10.178 1.382 10.25-.038.028-1.18-.312-2.539-.754zm23.46-28.507c0-.296 2.46-15.497 2.677-16.543.135-.65.919-1.52 2.378-2.635 3.253-2.487 9.232-8.41 11.316-11.21 2.5-3.36 3.541-5.243 4.451-8.06 2.606-8.065-2.05-14.888-13.238-19.398-3.608-1.455-3.462-1.607.558-.58 10.297 2.629 16.886 6.84 19.802 12.656.97 1.934 1.152 2.72 1.273 5.484.17 3.896-.423 6.55-2.384 10.664-2.84 5.956-7.354 11.688-15.235 19.342-4.742 4.607-11.598 10.683-11.598 10.28zm-52.74-58.865c-.777-.198-14.27-3.439-29.987-7.203-15.716-3.764-28.733-6.895-28.927-6.958-.195-.064 2.107-.707 5.115-1.43 11.323-2.724 51.002-12.25 54.372-13.055l1.985-.473 7.452 7.458 7.452 7.458-7.323 7.317c-4.89 4.885-7.557 7.305-8.026 7.28-.386-.02-1.337-.197-2.114-.394zm32.893-6.892-7.317-7.323 7.5-7.494 7.499-7.493 7.402 7.408 7.402 7.409-7.402 7.408c-4.07 4.074-7.484 7.408-7.585 7.408-.1 0-3.475-3.295-7.5-7.323zm41.777-3.378-7.467-7.473 7.367-7.36c4.052-4.049 7.515-7.302 7.696-7.23.181.073 5.513 3.386 11.85 7.362 8.692 5.455 11.414 7.325 11.09 7.62-.238.213-4.718 3.062-9.957 6.33a3058.115 3058.115 0 0 0-11.318 7.083l-1.794 1.141zM81.966 87.379c-5.883-3.996-9.404-6.927-14.623-12.17-5.218-5.242-7.896-8.75-10.598-13.88-3.45-6.556-4.675-11.38-4.675-18.42 0-5.244.431-7.932 2.046-12.74 1.775-5.29 6.009-12.433 9.698-16.365 1.668-1.777 1.72-1.806.611-.353-5.047 6.622-8.577 13.813-9.984 20.34-.821 3.812-.827 10.092-.01 13.665 2.584 11.322 11.196 21.767 25.124 30.473 3.075 1.923 11.103 6.078 11.742 6.078.213 0 .388.131.388.291 0 .287-5.423 5.706-5.71 5.706-.08 0-1.884-1.181-4.009-2.625zm53.974-.18-2.84-2.793 4.957-2.477c16.679-8.332 28.112-19.964 31.787-32.34 1.254-4.223 1.548-10.288.714-14.715-1.335-7.084-4.527-13.88-9.983-21.246l-1.567-2.117 1.61 1.764c5.739 6.285 10.207 15.068 11.705 23.01.706 3.744.512 11.687-.374 15.26-3.116 12.571-13.134 24.934-28.987 35.771-2.163 1.479-3.988 2.686-4.057 2.683-.069-.004-1.403-1.263-2.965-2.8zm-31.262-10.512-7.284-7.32 6.973-18.168c3.835-9.993 7.197-18.702 7.47-19.354l.496-1.185 7.149 18.648c3.931 10.256 7.245 19.02 7.364 19.476.187.716-.762 1.808-6.974 8.026-3.955 3.958-7.353 7.197-7.55 7.197-.198 0-3.637-3.294-7.644-7.32z"/>
  </g>
</svg>
