<?xml version="1.0" encoding="UTF-8" standalone="no"?>
<svg
   xmlns:dc="http://purl.org/dc/elements/1.1/"
   xmlns:cc="http://creativecommons.org/ns#"
   xmlns:rdf="http://www.w3.org/1999/02/22-rdf-syntax-ns#"
   xmlns:svg="http://www.w3.org/2000/svg"
   xmlns="http://www.w3.org/2000/svg"
   xmlns:sodipodi="http://sodipodi.sourceforge.net/DTD/sodipodi-0.dtd"
   xmlns:inkscape="http://www.inkscape.org/namespaces/inkscape"
   viewBox="0 0 311.78531 311.78531"
   version="1.1"
   id="svg3403"
   inkscape:version="1.0.1 (0767f8302a, 2020-10-17)"
   sodipodi:docname="House Dimir.svg">
  <defs
     id="defs3397">
    <filter
       style="color-interpolation-filters:sRGB"
       inkscape:label="Drop Shadow"
       id="filter7799">
      <feFlood
         flood-opacity="0.803922"
         flood-color="rgb(42,29,4)"
         result="flood"
         id="feFlood7789" />
      <feComposite
         in="flood"
         in2="SourceGraphic"
         operator="in"
         result="composite1"
         id="feComposite7791" />
      <feGaussianBlur
         in="composite1"
         stdDeviation="2"
         result="blur"
         id="feGaussianBlur7793" />
      <feOffset
         dx="0"
         dy="2.3"
         result="offset"
         id="feOffset7795" />
      <feComposite
         in="SourceGraphic"
         in2="offset"
         operator="over"
         result="composite2"
         id="feComposite7797" />
    </filter>
  </defs>
  <sodipodi:namedview
     id="base"
     pagecolor="#ffffff"
     bordercolor="#666666"
     borderopacity="1.0"
     inkscape:pageopacity="0.0"
     inkscape:pageshadow="2"
     inkscape:zoom="1.979899"
     inkscape:cx="226.36901"
     inkscape:cy="168.5536"
     inkscape:document-units="mm"
     inkscape:current-layer="layer1"
     inkscape:document-rotation="0"
     showgrid="false"
     inkscape:window-width="1647"
     inkscape:window-height="1212"
     inkscape:window-x="896"
     inkscape:window-y="95"
     inkscape:window-maximized="0"
     fit-margin-top="0"
     fit-margin-left="0"
     fit-margin-right="0"
     fit-margin-bottom="0" />
  <metadata
     id="metadata3400">
    <rdf:RDF>
      <cc:Work
         rdf:about="">
        <dc:format>image/svg+xml</dc:format>
        <dc:type
           rdf:resource="http://purl.org/dc/dcmitype/StillImage" />
        <dc:title></dc:title>
      </cc:Work>
    </rdf:RDF>
  </metadata>
  <g
     inkscape:label="Layer 1"
     inkscape:groupmode="layer"
     id="layer1"
     transform="translate(47.911644,23.807473)">
    <circle
       style="fill:#002080;fill-opacity:1;fill-rule:evenodd;stroke:#071719;stroke-width:8.765;stroke-miterlimit:4;stroke-dasharray:none;stroke-opacity:1"
       id="path7162"
       cx="107.981"
       cy="132.08517"
       r="151.51015" />
    <path
       style="fill:#000000;stroke-width:0.264583;filter:url(#filter7799)"
       d="m 85.843677,272.3331 c -7.01442,-7.79964 -21.37806,-37.08376 -35.46727,-72.30953 -8.12383,-20.31113 -15.34622,-41.35154 -14.73827,-42.93582 0.0789,-0.20569 2.273,-1.99139 4.87571,-3.96823 7.27529,-5.52581 10.6522,-9.18175 13.26237,-14.35824 1.38291,-2.74258 2.34261,-5.69365 2.89191,-8.89262 l 0.43854,-2.55387 1.36015,4.14137 c 0.74808,2.27775 1.80981,5.27247 2.3594,6.65491 1.39317,3.50445 4.57507,9.71748 6.47793,12.6489 0.87914,1.35434 1.59843,2.49952 1.59843,2.54485 0,0.0453 -0.4957,0.1489 -1.10157,0.23016 -2.02484,0.27159 -3.593,2.04263 -4.38207,4.94901 -0.37951,1.39787 -0.46577,2.78461 -0.46079,7.40833 0.003,3.1287 0.15642,7.17683 0.34011,8.99584 2.68288,26.56716 4.24139,36.44283 8.40472,53.25714 3.56348,14.39176 9.70589,32.54894 14.51042,42.89335 0.66936,1.44116 1.17029,2.66701 1.11319,2.72411 -0.0571,0.0571 -0.72441,-0.58625 -1.48291,-1.42966 z m 39.481453,1.24464 c 0.0858,-0.21828 0.77076,-1.75688 1.52211,-3.4191 5.3493,-11.83446 10.89923,-28.43984 14.56769,-43.58651 3.98076,-16.43614 6.18698,-30.87861 8.07711,-52.8746 0.57128,-6.64819 0.41502,-13.55582 -0.36079,-15.94925 -0.89064,-2.7477 -2.12331,-3.99556 -4.34381,-4.39737 l -0.9766,-0.17672 1.59298,-2.43833 c 1.90824,-2.92089 5.88886,-10.92654 7.26407,-14.60916 0.54342,-1.45521 1.43326,-4.07458 1.97743,-5.82083 0.95528,-3.06554 0.99505,-3.13852 1.15354,-2.11667 0.3716,2.39581 1.45415,6.47968 2.2321,8.42049 2.44044,6.0883 6.24738,10.46364 14.4321,16.58689 4.51661,3.37902 4.76852,3.65323 4.53991,4.94189 -0.92815,5.23181 -6.83214,22.16486 -14.09656,40.4299 -11.72213,29.47314 -24.0604,55.76136 -32.03872,68.2625 -2.04756,3.20829 -6.08226,8.11967 -5.54256,6.74687 z M 17.058034,180.2582 c -4.48908,-12.6419 -9.76083,-35.90802 -11.76809,-51.93671 -0.76954,-6.14513 -1.24857,-13.62934 -1.02683,-16.04311 l 0.14913,-1.62332 1.61965,-0.18105 c 8.20815,-0.91758 20.520513,-4.97049 29.533183,-9.72158 7.44741,-3.92594 13.91697,-8.71941 17.2733,-12.79825 0.75406,-0.91638 1.40941,-1.62776 1.45633,-1.58084 0.0469,0.0469 -0.10654,1.67609 -0.34103,3.62038 -0.52171,4.32584 -0.7959,14.60205 -0.47398,17.76455 0.20922,2.05533 0.18916,2.30246 -0.17396,2.14311 -0.22575,-0.0991 -1.56334,-0.23532 -2.97244,-0.30278 -2.20194,-0.10541 -2.89907,-0.026 -4.96065,0.5654 -7.32462,2.10105 -14.26829,7.85888 -19.35695,16.05117 -6.75443,10.87404 -9.982253,26.53638 -9.007933,43.7091 0.183793,3.23946 0.552403,7.5568 0.819133,9.5941 0.26672,2.03729 0.45221,3.73943 0.41219,3.78253 -0.04,0.0431 -0.5715,-1.32611 -1.181053,-3.0427 z m 177.535946,1.70135 c 1.2314,-6.61228 1.6087,-22.82998 0.6908,-29.69327 -2.35587,-17.61511 -8.95507,-30.58021 -19.35824,-38.03209 -2.24673,-1.60935 -6.52218,-3.69962 -8.86354,-4.33339 -1.98127,-0.5363 -6.45788,-0.65188 -7.27604,-0.18786 -0.52432,0.29737 -0.52927,0.22222 -0.54028,-8.20661 -0.009,-6.53824 -0.11738,-9.29584 -0.47038,-11.91689 -0.2526,-1.8756 -0.41412,-3.45533 -0.35892,-3.51052 0.0552,-0.0552 0.42903,0.37395 0.83076,0.95364 0.40173,0.57969 1.75887,2.0435 3.01587,3.2529 9.60805,9.24422 27.7429,17.56697 43.4088,19.92189 1.3718,0.20621 2.59036,0.52649 2.70792,0.71172 0.47807,0.75327 0.1077,8.89222 -0.71967,15.81492 -1.82272,15.25097 -6.63209,37.21195 -11.13925,50.8651 -1.68783,5.1128 -2.34458,6.59825 -1.92783,4.36046 z M 101.50847,154.38362 C 91.176467,152.51075 81.973747,145.24666 75.561187,133.90236 66.591567,118.03443 64.667517,95.9778 70.641057,77.4998 c 3.87649,-11.9912 10.33484,-21.24034 18.87623,-27.03304 4.75529,-3.22499 9.82932,-4.92208 15.409103,-5.15379 5.48287,-0.2277 9.58975,0.63944 14.37932,3.03607 12.99722,6.50363 22.36365,21.71303 25.29759,41.0787 0.69611,4.59477 0.8436,14.77228 0.27797,19.18229 -2.84138,22.1534 -14.01115,39.21606 -29.14744,44.5249 -4.40916,1.54645 -9.91606,2.02984 -14.22536,1.24869 z m 10.21587,-27.55111 c 4.80121,-0.84727 10.69032,-3.29337 15.38658,-6.39095 3.18875,-2.10325 7.34291,-6.3148 8.44262,-8.55927 0.47289,-0.96515 0.92549,-2.24458 1.00578,-2.84318 0.69428,-5.17629 -7.65683,-13.04802 -18.13627,-17.09518 -4.5097,-1.74165 -7.60631,-2.35419 -11.94963,-2.36375 -5.57552,-0.0123 -9.485013,1.00488 -15.742713,4.09589 -4.40381,2.17527 -7.91575,4.62331 -10.8315,7.55021 -3.43757,3.45073 -4.61274,5.92018 -3.98809,8.38033 1.21288,4.77681 9.75423,11.81044 18.52375,15.25394 6.319213,2.48133 11.229473,3.04138 17.289473,1.97196 z m -8.48874,-11.08237 c -3.09675,-1.1375 -5.153153,-3.64129 -5.776963,-7.03382 -0.69168,-3.76164 1.24904,-7.49459 4.913733,-9.45149 1.16851,-0.62397 1.61631,-0.70609 3.83646,-0.70359 2.08295,0.002 2.72368,0.10668 3.74018,0.60902 1.97827,0.97761 3.30413,2.29359 4.25236,4.22064 0.78312,1.59151 0.86983,1.99754 0.85937,4.0238 -0.01,1.94573 -0.117,2.46498 -0.78285,3.80017 -0.95946,1.92398 -2.8666,3.67482 -4.78449,4.3924 -1.70514,0.63798 -4.72238,0.70687 -6.2578,0.14287 z M -12.853666,86.12045 c 0,-0.50933 0.10372,-0.92605 0.23049,-0.92605 0.12678,0 0.31104,-0.62507 0.40948,-1.38906 0.31303,-2.4294 1.47994,-7.2846 2.58173,-10.74182 4.24454,-13.31858 11.97758,-27.74084 22.64911,-42.24099 4.386573,-5.96032 12.121303,-15.216307 12.712153,-15.212346 0.0982,6.62e-4 0.70223,1.026613 1.34236,2.279899 8.01177,15.685987 20.22414,26.405507 32.52709,28.550967 2.7096,0.47251 6.90878,0.48627 9.50227,0.0311 1.05503,-0.18515 1.91823,-0.30467 1.91823,-0.2656 0,0.0391 -0.83944,1.16915 -1.86542,2.51127 -4.49852,5.88469 -8.29064,13.3822 -10.95521,21.65988 -0.5387,1.67349 -1.03626,3.21866 -1.10569,3.43371 -0.0709,0.21952 -0.62921,-0.66743 -1.27313,-2.02247 -4.19121,-8.81975 -12.55382,-15.7457 -22.06194,-18.27181 -2.19631,-0.58352 -3.1201,-0.68071 -6.52715,-0.68675 -2.76837,-0.005 -4.54696,0.12538 -5.88045,0.43076 -12.312453,2.81963 -22.459573,12.35428 -31.690383,29.77755 -1.16417,2.19738 -2.20597,3.99805 -2.31511,4.0015 -0.10914,0.003 -0.19843,-0.41045 -0.19843,-0.91978 z M 222.62582,82.05853 c -4.48413,-8.33115 -8.50083,-13.84501 -13.82092,-18.97244 -7.50502,-7.23324 -14.63225,-10.43544 -23.2265,-10.43544 -7.97559,0 -15.52271,3.35893 -21.97733,9.78125 -3.09179,3.07633 -5.03025,5.76207 -6.70985,9.29653 l -1.10899,2.33371 -0.98799,-3.11555 c -2.74164,-8.64554 -6.48143,-16.10878 -11.2078,-22.36664 -1.85788,-2.45989 -1.93057,-2.60584 -1.22182,-2.45305 7.37961,1.59079 15.4836,0.0168 22.47871,-4.36602 7.98991,-5.00608 15.74393,-13.88088 20.47592,-23.435579 0.80036,-1.616072 1.52784,-2.947894 1.61661,-2.959605 0.26418,-0.03485 5.17453,5.583281 8.36645,9.572414 15.68707,19.60504 26.71764,41.30168 29.57919,58.18095 0.23822,1.40518 0.39362,2.792 0.34533,3.08183 -0.0568,0.34121 -0.9737,-1.11895 -2.60101,-4.14236 z M 79.823477,37.5694 c 0.53635,-2.33059 0.77603,-6.31492 0.64164,-10.66601 -0.1612,-5.219101 -0.46591,-7.050351 -1.92755,-11.584139 -1.01016,-3.133394 -1.04036,-3.285795 -0.57301,-2.892112 0.1819,0.153229 1.78355,1.229368 3.5592,2.39142 3.52857,2.309215 7.30862,5.797558 9.45777,8.727931 1.30721,1.78238 4.73612,7.4107 4.59302,7.53914 -0.0447,0.0402 -1.09337,0.33315 -2.3303,0.65109 -3.31856,0.85301 -7.23298,2.46002 -10.06532,4.13215 -1.37631,0.81254 -2.72858,1.67639 -3.00503,1.91967 -0.47973,0.42217 -0.4957,0.41218 -0.35042,-0.21914 z m 52.288773,-0.22625 c -2.48797,-1.95 -8.79835,-4.82379 -12.54196,-5.7117 -1.01864,-0.2416 -2.00095,-0.48896 -2.1829,-0.54968 -0.36199,-0.12081 1.39828,-3.29035 3.74406,-6.74153 2.14171,-3.150944 6.39808,-7.231389 10.08051,-9.66386 1.74625,-1.153505 3.25782,-2.215781 3.35905,-2.360612 0.10123,-0.144832 0.25941,-0.187971 0.35151,-0.09587 0.0921,0.09211 -0.24901,1.457876 -0.75804,3.035045 -1.3561,4.201711 -1.79399,6.840172 -1.94697,11.731122 -0.0987,3.15654 -0.0208,5.24089 0.2815,7.52593 0.22992,1.73816 0.37999,3.19835 0.33349,3.24485 -0.0465,0.0465 -0.37062,-0.13966 -0.72025,-0.4137 z"
       id="path7160" />
  </g>
</svg>
