<?xml version="1.0" encoding="UTF-8" standalone="no"?>
<svg
   xmlns:dc="http://purl.org/dc/elements/1.1/"
   xmlns:cc="http://creativecommons.org/ns#"
   xmlns:rdf="http://www.w3.org/1999/02/22-rdf-syntax-ns#"
   xmlns:svg="http://www.w3.org/2000/svg"
   xmlns="http://www.w3.org/2000/svg"
   xmlns:sodipodi="http://sodipodi.sourceforge.net/DTD/sodipodi-0.dtd"
   xmlns:inkscape="http://www.inkscape.org/namespaces/inkscape"
   viewBox="0 0 100 100"
   version="1.1"
   id="svg4"
   sodipodi:docname="White.svg"
   inkscape:version="1.0.1 (0767f8302a, 2020-10-17)">
  <metadata
     id="metadata10">
    <rdf:RDF>
      <cc:Work
         rdf:about="">
        <dc:format>image/svg+xml</dc:format>
        <dc:type
           rdf:resource="http://purl.org/dc/dcmitype/StillImage" />
      </cc:Work>
    </rdf:RDF>
  </metadata>
  <defs
     id="defs8">
    <filter
       style="color-interpolation-filters:sRGB;"
       inkscape:label="Drop Shadow"
       id="filter855">
      <feFlood
         flood-opacity="0.803922"
         flood-color="rgb(42,29,4)"
         result="flood"
         id="feFlood845" />
      <feComposite
         in="flood"
         in2="SourceGraphic"
         operator="in"
         result="composite1"
         id="feComposite847" />
      <feGaussianBlur
         in="composite1"
         stdDeviation="2"
         result="blur"
         id="feGaussianBlur849" />
      <feOffset
         dx="0"
         dy="2.3"
         result="offset"
         id="feOffset851" />
      <feComposite
         in="SourceGraphic"
         in2="offset"
         operator="over"
         result="composite2"
         id="feComposite853" />
    </filter>
  </defs>
  <sodipodi:namedview
     pagecolor="#ffffff"
     bordercolor="#666666"
     borderopacity="1"
     objecttolerance="10"
     gridtolerance="10"
     guidetolerance="10"
     inkscape:pageopacity="0"
     inkscape:pageshadow="2"
     inkscape:window-width="1552"
     inkscape:window-height="1080"
     id="namedview6"
     showgrid="false"
     inkscape:zoom="4"
     inkscape:cx="-0.27321813"
     inkscape:cy="70.048502"
     inkscape:window-x="1542"
     inkscape:window-y="278"
     inkscape:window-maximized="0"
     inkscape:current-layer="svg4" />
  <circle
     style="fill:#fcfcc1;fill-rule:evenodd;fill-opacity:1;stroke:#0a113a;stroke-opacity:0.77288759;stroke-width:1.6;stroke-miterlimit:4;stroke-dasharray:none"
     id="path839"
     cx="50.069565"
     cy="50.16346"
     r="49.552567" />
  <g
     id="g843"
     style="filter:url(#filter855)">
    <path
       style="fill:#000000;stroke-width:0.78125"
       d="m 45.255163,93.459586 c 3.235003,-5.654195 3.102249,-7.577578 -0.816436,-11.828844 -2.682137,-2.909781 -3.133038,-3.849356 -2.709793,-5.64661 0.279252,-1.185804 0.58456,-2.665635 0.678461,-3.288515 0.250422,-1.661132 -3.311844,-2.684203 -5.883958,-1.689852 -1.945719,0.752194 -2.148437,1.198371 -2.148437,4.728661 0,3.054363 -0.327084,4.073152 -1.51114,4.70684 -2.018497,1.080265 -9.419564,0.963828 -15.67636,-0.246625 l -5.078125,-0.98243 4.843486,-1.805823 c 6.166688,-2.299156 7.607488,-3.882083 7.635008,-8.388162 0.01816,-2.972991 0.416997,-3.874874 2.560568,-5.790106 2.989842,-2.671355 3.043126,-3.00159 0.91986,-5.700886 -2.182313,-2.774361 -4.108801,-2.590479 -7.081131,0.675891 -2.725421,2.995036 -3.48534,3.200055 -6.600418,1.78073 C 12.143622,58.961819 2.6149488,45.294774 4.1748687,45.336883 c 0.496791,0.01341 2.3095063,0.890515 4.0282563,1.949122 4.508985,2.77716 7.008523,2.554424 9.172505,-0.817368 2.029607,-3.162416 4.523077,-4.095851 7.417872,-2.776895 2.699681,1.230057 4.425248,-0.457633 4.425248,-4.328113 0,-3.944928 -2.606979,-6.047535 -6.651073,-5.36429 -2.851222,0.481711 -2.951426,0.417517 -3.725746,-2.386836 -0.589876,-2.136358 -0.481073,-4.728568 0.420599,-10.020619 1.604404,-9.416489 2.125975,-10.154729 3.340412,-4.728054 0.580683,2.594765 1.76089,5.227275 2.81694,6.283325 1.688375,1.688375 2.001763,1.741822 4.409767,0.752072 3.383349,-1.390643 5.68156,-0.492298 7.762223,3.034162 1.918344,3.25135 3.202983,3.436529 5.803015,0.836498 2.768078,-2.768078 2.557676,-6.061967 -0.542183,-8.487971 l -2.459797,-1.925079 1.797287,-2.90807 C 43.915006,11.657961 51.117746,5.7662101 55.705591,3.3933417 l 2.189965,-1.132667 -2.775903,4.0354533 c -1.526747,2.2194993 -2.775903,4.828986 -2.775903,5.79886 0,0.969872 1.450178,3.584752 3.222617,5.810842 2.850224,3.579732 3.175263,4.400497 2.812816,7.102743 -0.481781,3.591944 0.672438,4.939343 4.231178,4.939343 2.960866,0 3.874603,-1.406635 3.292568,-5.068682 -0.373365,-2.349131 -0.170388,-3.006814 1.14528,-3.710938 2.096709,-1.122124 10.083293,-1.011465 16.936166,0.234662 l 5.46875,0.994437 -4.6875,1.381553 c -7.573098,2.232028 -8.213353,2.856864 -7.665684,7.481065 0.450176,3.80104 0.365189,4.022702 -2.637505,6.879097 -2.660251,2.530635 -2.992131,3.199227 -2.327465,4.688801 0.426363,0.955516 1.637934,1.953833 2.692379,2.218481 1.53649,0.385635 2.448147,-0.09841 4.591236,-2.437719 2.239258,-2.444279 3.018414,-2.835232 4.791805,-2.404346 2.948156,0.716326 5.699148,3.724368 9.776226,10.689718 l 3.495735,5.972169 -3.808344,-1.975836 c -2.094586,-1.08671 -5.114883,-2.016373 -6.711781,-2.065919 -2.474704,-0.07678 -3.139664,0.285802 -4.503149,2.455414 -1.496758,2.381687 -1.860219,2.53608 -5.647926,2.399135 -4.499371,-0.162676 -6.498652,0.947492 -6.498652,3.608594 0,2.748712 3.276952,5.235036 7.156635,5.429961 l 3.39024,0.170335 0.270078,3.470113 c 0.307985,3.957199 -1.471208,17.131152 -2.406208,17.709012 -0.341024,0.210765 -1.115478,-2.545648 -1.820648,-5.031562 -0.70517,-2.485906 -1.932646,-5.196764 -2.727724,-6.02412 -1.311679,-1.364932 -1.733089,-1.409404 -4.549021,-0.480063 -3.868611,1.276757 -5.165804,0.794329 -7.218379,-2.684527 -1.694799,-2.872471 -2.891928,-3.301305 -5.427583,-1.944263 -2.314551,1.23871 -2.063927,6.315426 0.428487,8.679574 2.465958,2.339055 2.4465,3.10275 -0.15792,6.19793 C 55.23843,89.171148 44.38903,97.65625 43.343622,97.65625 c -0.26925,0 0.590944,-1.8885 1.911541,-4.196664 z M 56.20417,69.081859 c 5.56618,-1.652977 11.014366,-7.044991 12.922213,-12.78898 2.616678,-7.878081 0.341947,-16.050097 -5.972026,-21.454624 -4.063822,-3.47848 -8.034051,-4.614428 -14.792974,-4.232515 -6.673885,0.377108 -11.749675,3.326923 -15.128444,8.791955 -4.787102,7.742955 -3.238762,19.779976 3.280628,25.504076 5.610325,4.925931 12.356534,6.358073 19.690603,4.180088 z"
       id="path835"
       sodipodi:nodetypes="sssssssscsssssssssssssssssssscsscsssssssscsssssssscsssssscssssssssssssssssss" />
    <circle
       style="fill:#020000;fill-rule:evenodd;fill-opacity:1"
       id="path837"
       cx="50.215729"
       cy="50.147499"
       r="18.12343" />
  </g>
</svg>
