<?xml version="1.0"?>
<svg xmlns="http://www.w3.org/2000/svg" viewBox="0 0 100 100">
  <defs>
    <filter style="color-interpolation-filters:sRGB" id="a">
      <feFlood flood-opacity=".804" flood-color="#2A1D04" result="flood"/>
      <feComposite in="flood" in2="SourceGraphic" operator="in" result="composite1"/>
      <feGaussianBlur in="composite1" stdDeviation="2" result="blur"/>
      <feOffset dy="2.3" result="offset"/>
      <feComposite in="SourceGraphic" in2="offset" result="composite2"/>
    </filter>
  </defs>
  <circle style="fill:#fcfcc1;fill-rule:evenodd;fill-opacity:1;stroke:#0a113a;stroke-opacity:.77288759;stroke-width:1.6;stroke-miterlimit:4;stroke-dasharray:none" cx="50.07" cy="50.163" r="49.553"/>
  <g style="filter:url(#a)">
    <path style="fill:#000;stroke-width:.78125" d="M45.255 93.46c3.235-5.655 3.102-7.578-.816-11.83-2.682-2.909-3.133-3.849-2.71-5.646.28-1.186.584-2.666.678-3.288.25-1.662-3.311-2.685-5.884-1.69-1.945.752-2.148 1.198-2.148 4.728 0 3.055-.327 4.074-1.511 4.707-2.019 1.08-9.42.964-15.676-.246l-5.079-.983 4.844-1.806c6.167-2.299 7.607-3.882 7.635-8.388.018-2.973.417-3.875 2.56-5.79 2.99-2.671 3.044-3.001.92-5.7-2.182-2.775-4.109-2.591-7.08.675-2.726 2.995-3.486 3.2-6.601 1.78-2.243-1.021-11.772-14.688-10.212-14.646.497.013 2.31.89 4.028 1.949 4.51 2.777 7.009 2.554 9.173-.817 2.03-3.163 4.523-4.096 7.418-2.777 2.7 1.23 4.425-.458 4.425-4.328 0-3.945-2.607-6.048-6.651-5.365-2.852.482-2.952.418-3.726-2.386-.59-2.137-.481-4.73.42-10.021 1.605-9.417 2.127-10.155 3.34-4.728.582 2.595 1.762 5.227 2.818 6.283 1.688 1.689 2.002 1.742 4.41.752 3.383-1.39 5.681-.492 7.762 3.034 1.918 3.252 3.203 3.437 5.803.837 2.768-2.768 2.558-6.062-.542-8.488l-2.46-1.925 1.797-2.908c1.725-2.791 8.928-8.683 13.516-11.056l2.19-1.132-2.776 4.035c-1.527 2.22-2.776 4.83-2.776 5.799 0 .97 1.45 3.585 3.222 5.81 2.85 3.58 3.176 4.401 2.813 7.104-.482 3.592.673 4.939 4.231 4.939 2.961 0 3.875-1.407 3.293-5.069-.373-2.349-.17-3.007 1.145-3.71 2.097-1.123 10.084-1.012 16.936.234l5.47.994-4.688 1.382c-7.573 2.232-8.214 2.857-7.666 7.481.45 3.801.365 4.023-2.638 6.88-2.66 2.53-2.992 3.198-2.327 4.688.426.955 1.638 1.954 2.692 2.218 1.537.386 2.448-.098 4.592-2.437 2.239-2.445 3.018-2.836 4.791-2.405 2.949.717 5.7 3.725 9.777 10.69l3.495 5.972-3.808-1.976c-2.095-1.086-5.115-2.016-6.712-2.066-2.474-.076-3.14.286-4.503 2.456-1.497 2.382-1.86 2.536-5.648 2.399-4.5-.163-6.499.948-6.499 3.609 0 2.748 3.277 5.235 7.157 5.43l3.39.17.27 3.47c.308 3.957-1.47 17.131-2.406 17.709-.34.21-1.115-2.546-1.82-5.032-.706-2.485-1.933-5.196-2.728-6.024-1.312-1.365-1.733-1.41-4.55-.48-3.868 1.277-5.165.795-7.218-2.684-1.694-2.873-2.891-3.302-5.427-1.945-2.315 1.24-2.064 6.316.428 8.68 2.466 2.34 2.447 3.103-.158 6.198-2.012 2.391-12.861 10.876-13.906 10.876-.27 0 .59-1.888 1.911-4.196zm10.95-24.378c5.565-1.653 11.014-7.045 12.921-12.79 2.617-7.877.342-16.05-5.972-21.454-4.063-3.478-8.034-4.614-14.793-4.232-6.674.377-11.75 3.327-15.128 8.792-4.787 7.743-3.239 19.78 3.28 25.504 5.61 4.926 12.357 6.358 19.691 4.18z"/>
    <circle style="fill:#020000;fill-rule:evenodd;fill-opacity:1" cx="50.216" cy="50.147" r="18.123"/>
  </g>
</svg>
