<svg viewBox="0 0 14 14" xmlns="http://www.w3.org/2000/svg">
<path d="M7 1C3.13406 1 0 3.68644 0 6.99978C0 7.41433 0.049 7.81917 0.142722 8.21C0.834556 9.40039 1.31328 8.64906 3.5 7.5555C5.72717 6.44172 3.5 9.11106 2.72222 10.6666C2.48306 11.1449 2.61256 11.5498 2.94 11.8815C4.08567 12.5831 5.48489 12.9999 7 12.9999C10.8659 12.9999 14 10.3139 14 6.99978C14 3.68644 10.8659 1 7 1ZM8.10794 10.5072C7.95433 11.0306 7.15128 11.2554 6.314 11.0092C5.47672 10.7634 4.92256 10.1404 5.07617 9.61661C5.22978 9.09317 6.03283 8.86839 6.87011 9.11494C7.70739 9.36033 8.26156 9.98333 8.10794 10.5072Z" fill="#D99E82"/>
<path d="M3.88883 5.22201C4.53317 5.22201 5.0555 4.69967 5.0555 4.05534C5.0555 3.41101 4.53317 2.88867 3.88883 2.88867C3.2445 2.88867 2.72217 3.41101 2.72217 4.05534C2.72217 4.69967 3.2445 5.22201 3.88883 5.22201Z" fill="#5C913B"/>
<path d="M7.77775 4.44417C8.42208 4.44417 8.94442 3.92184 8.94442 3.27751C8.94442 2.63317 8.42208 2.11084 7.77775 2.11084C7.13342 2.11084 6.61108 2.63317 6.61108 3.27751C6.61108 3.92184 7.13342 4.44417 7.77775 4.44417Z" fill="#226699"/>
<path d="M11.2778 6.77767C11.9221 6.77767 12.4444 6.25533 12.4444 5.611C12.4444 4.96667 11.9221 4.44434 11.2778 4.44434C10.6334 4.44434 10.1111 4.96667 10.1111 5.611C10.1111 6.25533 10.6334 6.77767 11.2778 6.77767Z" fill="#DD2E44"/>
<path d="M10.8888 10.2777C11.5332 10.2777 12.0555 9.75533 12.0555 9.111C12.0555 8.46667 11.5332 7.94434 10.8888 7.94434C10.2445 7.94434 9.72217 8.46667 9.72217 9.111C9.72217 9.75533 10.2445 10.2777 10.8888 10.2777Z" fill="#FFCC4D"/>
</svg>
