<svg viewBox="0 0 14 14" xmlns="http://www.w3.org/2000/svg">
<path d="M12.9057 13.9998L12.8889 13.6109C12.8889 12.0553 11.739 10.8887 9.79454 10.8887H5.12785C3.18339 10.8887 2 12.0553 2 13.6109L2.01672 13.9998H12.9057Z" fill="#F2760F"/>
<path d="M3.94434 11.0046V13.9998H5.11101V10.8887C4.68206 10.8887 4.29356 10.9287 3.94434 11.0046ZM9.7777 10.8887V13.9998H10.9444V11.0046C10.5951 10.9287 10.2066 10.8887 9.7777 10.8887Z" fill="#FFF75F"/>
<path d="M5.5 10.5H9.38891V12.0556H5.5V10.5Z" fill="#292F33"/>
<path d="M5.88867 10.5H8.9998C8.9998 10.5 8.60391 13.2222 7.44424 13.2222C6.28456 13.2222 5.88867 10.5 5.88867 10.5Z" fill="#292F33"/>
<path d="M5.74892 11.6815C6.42754 12.1746 6.85687 12.4449 7.44449 12.4449C8.0321 12.4449 8.46144 12.1743 9.13966 11.6815V9.4458H5.74854V11.6815H5.74892Z" fill="#D4AB88"/>
<path d="M5.74551 10.1003C6.2184 10.6346 6.80484 10.7793 7.44263 10.7793C8.08002 10.7793 8.66608 10.6342 9.13936 10.1003V8.74268H5.74512V10.1003H5.74551Z" fill="#CC9B7A"/>
<path d="M8.8107 1.61382C8.0792 1.37738 6.35836 1.44154 5.92824 2.00116C4.80979 2.02255 3.49768 3.03327 3.3254 4.36717C3.15506 5.68707 3.53462 6.29996 3.66957 7.2928C3.8224 8.41747 4.45474 8.77719 4.96029 8.92769C5.68752 9.88825 6.46064 9.84742 7.75836 9.84742C10.2932 9.84742 11.5003 8.15147 11.6068 5.27095C11.6718 3.52833 10.6494 2.20883 8.8107 1.61382Z" fill="#963B22"/>
<path d="M10.26 5.39413C10.0146 5.05463 9.70079 4.78124 9.01245 4.6844C9.27068 4.80263 9.51801 5.21135 9.55029 5.4373C9.58257 5.66324 9.61485 5.84602 9.41068 5.62008C8.59206 4.71513 7.70073 5.07135 6.81717 4.51874C6.2 4.13257 6.01216 3.70557 6.01216 3.70557C6.01216 3.70557 5.93672 4.27568 5.00105 4.85629C4.72999 5.02468 4.40604 5.39957 4.22676 5.95336C4.09765 6.35119 4.13771 6.70625 4.13771 7.31292C4.13771 9.08354 5.59683 10.5718 7.39661 10.5718C9.1964 10.5718 10.6555 9.07032 10.6555 7.31292C10.6551 6.21119 10.54 5.78108 10.26 5.39413Z" fill="#D4AB88"/>
<path d="M7.75828 8.21792H7.03417C6.93422 8.21792 6.85295 8.13703 6.85295 8.03669C6.85295 7.93636 6.93384 7.85547 7.03417 7.85547H7.75828C7.85823 7.85547 7.93951 7.93636 7.93951 8.03669C7.93951 8.13703 7.85862 8.21792 7.75828 8.21792ZM7.44445 9.51525C6.37344 9.51525 6.04444 9.24109 5.99 9.18548C5.89005 9.08592 5.89005 8.92453 5.99 8.82497C6.08644 8.72853 6.24044 8.72581 6.34078 8.81603C6.36061 8.83042 6.62117 9.00542 7.44445 9.00542C8.3004 9.00542 8.54734 8.81681 8.54968 8.81486C8.64923 8.7157 8.80557 8.72036 8.90512 8.8207C9.00468 8.92025 8.99924 9.08631 8.89968 9.18548C8.84446 9.24109 8.51545 9.51525 7.44445 9.51525Z" fill="#C1694F"/>
<path d="M5.94824 6.95043C5.74835 6.95043 5.58618 6.78826 5.58618 6.58837V6.22632C5.58618 6.02643 5.74835 5.86426 5.94824 5.86426C6.14813 5.86426 6.3103 6.02643 6.3103 6.22632V6.58837C6.3103 6.78826 6.14813 6.95043 5.94824 6.95043ZM8.84509 6.95043C8.6452 6.95043 8.48303 6.78826 8.48303 6.58837V6.22632C8.48303 6.02643 8.6452 5.86426 8.84509 5.86426C9.04498 5.86426 9.20714 6.02643 9.20714 6.22632V6.58837C9.20714 6.78826 9.04498 6.95043 8.84509 6.95043Z" fill="#662113"/>
<path d="M7.83345 13.5868L7.44455 13.9994L7.05566 13.6105V12.4438H7.83345V13.5868Z" fill="#292F33"/>
<path d="M4.72217 10.8889C4.72217 11.2778 5.11106 12.0556 5.88884 12.8333C6.50407 13.4482 7.4444 14 7.4444 14C7.4444 12.8088 7.05551 12.4445 6.66662 12.0556C6.27773 11.6667 5.49995 11.2778 5.49995 10.5C5.49995 10.1111 4.72217 10.8889 4.72217 10.8889ZM10.1666 10.8889C10.1666 11.2778 9.77775 12.0556 8.99997 12.8333C8.38552 13.4482 7.4444 14 7.4444 14C7.4444 12.8088 7.83329 12.4445 8.22218 12.0556C8.61108 11.6667 9.38886 11.2778 9.38886 10.5C9.38886 10.1111 10.1666 10.8889 10.1666 10.8889Z" fill="#55ACEE"/>
<path d="M12.111 4.2778C10.9444 3.50002 11.719 2.65651 10.9444 1.55556C10.216 0.519947 8.99992 0 7.44358 0C5.4999 0 4.67312 0.519947 3.94434 1.55556C3.16967 2.65651 3.94434 3.50002 2.77767 4.2778C2.05394 4.76002 5.11101 5.1773 7.44436 5.1773C9.7777 5.1773 12.8348 4.76002 12.111 4.2778Z" fill="#FFF75F"/>
<path d="M6.66654 4.47269V0.034668C6.53043 0.0471125 6.40093 0.0634459 6.27765 0.0828904V4.08108C5.46487 4.06163 4.28497 3.92708 3.30147 3.74935C3.2338 3.86485 3.14202 3.9788 3.01758 4.09041C4.14925 4.31052 5.5827 4.47269 6.4721 4.47269H6.66654ZM11.6657 3.86874C10.5562 3.98696 9.395 4.0698 8.61099 4.08224V0.114002C8.48538 0.0883349 8.35433 0.0704459 8.2221 0.0537236V4.47269H8.41655C9.20133 4.47269 10.6706 4.37119 12.029 4.21719C11.8726 4.10247 11.7536 3.98658 11.6657 3.86874Z" fill="#FFAC33"/>
</svg>
