<svg viewBox="0 0 14 14" xmlns="http://www.w3.org/2000/svg">
<path d="M1.05778 2.1084H2.43056V3.15023H1.736C1.04144 3.15023 1.04144 3.49751 1.04144 3.84479V6.71751C1.04144 7.24601 1.54272 7.31718 1.54272 7.31718H2.43056V8.35901H1.05778C0.473667 8.35901 0 7.88573 0 7.30162V3.16579C0 2.58206 0.473278 2.1084 1.05778 2.1084Z" fill="#FFAC33"/>
<path d="M2.08325 2.1084H7.9862V9.31684C7.9862 9.74462 7.6362 10.0946 7.20842 10.0946H2.86103C2.43325 10.0946 2.08325 9.74462 2.08325 9.31684V2.1084Z" fill="#FFAC33"/>
<path d="M3.29853 9.05279C3.49025 9.05279 3.64581 8.89762 3.64581 8.70551V4.88623C3.64581 4.69451 3.49064 4.53895 3.29853 4.53895C3.10681 4.53895 2.95125 4.69412 2.95125 4.88623V8.70551C2.95125 8.89762 3.10681 9.05279 3.29853 9.05279ZM5.03453 9.05279C5.22625 9.05279 5.38181 8.89762 5.38181 8.70551V4.88623C5.38181 4.69451 5.22664 4.53895 5.03453 4.53895C4.84281 4.53895 4.68725 4.69412 4.68725 4.88623V8.70551C4.68764 8.89762 4.84281 9.05279 5.03453 9.05279ZM2.08325 3.31823V2.1084H7.9862V4.0054C7.87264 4.04701 7.75131 4.07345 7.62336 4.07345C7.18081 4.07345 6.80242 3.80084 6.64492 3.41468C6.55236 3.49479 6.43297 3.54456 6.30153 3.54456C6.12264 3.54456 5.96514 3.45512 5.86947 3.31901C5.68164 3.61301 5.35459 3.80901 4.9797 3.80901C4.63592 3.80901 4.33297 3.64218 4.14009 3.38784C4.04364 3.63401 3.80564 3.80901 3.52564 3.80901C3.27481 3.80901 3.05936 3.66745 2.94697 3.46173C2.84197 3.51307 2.72531 3.54456 2.60009 3.54456C2.25709 3.54456 2.08325 3.31823 2.08325 3.31823Z" fill="#F4900C"/>
<path d="M3.12509 0.37207H7.63892C8.33347 0.37207 8.68075 0.719348 8.68075 1.4139V2.48724C8.68075 3.07135 8.20709 3.54463 7.62336 3.54463C7.18081 3.54463 6.80242 3.27201 6.64492 2.88624C6.55236 2.96596 6.43297 3.01613 6.30153 3.01613C6.12264 3.01613 5.96514 2.92668 5.86947 2.79057C5.68164 3.08418 5.35459 3.28018 4.9797 3.28018C4.63592 3.28018 4.33297 3.11335 4.14009 2.85901C4.04364 3.10518 3.80564 3.28018 3.52564 3.28018C3.28453 3.28018 3.07842 3.14796 2.96292 2.95468C2.8692 3.04374 2.74359 3.09935 2.60397 3.09935C2.3162 3.09935 2.08325 2.86601 2.08325 2.57863V1.4139C2.08325 0.719348 2.43053 0.37207 3.12509 0.37207Z" fill="#E1E8ED"/>
<path d="M11.8591 2.51656C11.7596 2.51656 11.66 2.47845 11.5842 2.40262C11.4321 2.25056 11.4321 2.00439 11.5842 1.85234L12.9655 0.471782C13.1176 0.320115 13.3633 0.320115 13.5154 0.471782C13.6674 0.623449 13.6674 0.870004 13.5154 1.02206L12.1341 2.40262C12.0582 2.47884 11.9587 2.51656 11.8591 2.51656ZM10.2398 1.85662C10.1974 1.85662 10.1538 1.84923 10.1114 1.83445C9.90883 1.76367 9.80189 1.542 9.87267 1.339L10.2499 0.260615C10.3211 0.0580042 10.5423 -0.0489402 10.7453 0.0218375C10.9479 0.0926153 11.0549 0.314282 10.9841 0.517282L10.6069 1.59567C10.5509 1.75628 10.4004 1.85662 10.2398 1.85662ZM12.6287 4.10206C12.4685 4.10206 12.3184 4.00211 12.262 3.84267C12.1904 3.64006 12.297 3.418 12.4992 3.34645L13.4691 3.00384C13.6721 2.93189 13.8938 3.03884 13.9653 3.24106C14.0369 3.44367 13.9303 3.66573 13.7281 3.73728L12.7582 4.07989C12.7151 4.09506 12.6715 4.10206 12.6287 4.10206Z" fill="#FA743E"/>
<path d="M12.9421 5.99707H11.5693V7.0389H12.2639C12.9584 7.0389 12.9584 7.38618 12.9584 7.73346V10.6062C12.9584 11.1347 12.4572 11.2058 12.4572 11.2058H11.5693V12.2477H12.9421C13.5262 12.2477 13.9999 11.7744 13.9999 11.1903V7.05446C13.9999 6.47074 13.5266 5.99707 12.9421 5.99707Z" fill="#FFAC33"/>
<path d="M11.9166 5.99707H6.01367V13.2055C6.01367 13.6333 6.36367 13.9833 6.79145 13.9833H11.1388C11.5666 13.9833 11.9166 13.6333 11.9166 13.2055V5.99707Z" fill="#FFCC4D"/>
<path d="M7.22911 12.9416C7.03739 12.9416 6.88184 12.7864 6.88184 12.5943V8.77501C6.88184 8.58329 7.03739 8.42773 7.22911 8.42773C7.42084 8.42773 7.57639 8.5829 7.57639 8.77501V12.5943C7.57639 12.7864 7.42084 12.9416 7.22911 12.9416ZM10.7015 12.9416C10.5098 12.9416 10.3542 12.7864 10.3542 12.5943V8.77501C10.3542 8.58329 10.5094 8.42773 10.7015 8.42773C10.8932 8.42773 11.0488 8.5829 11.0488 8.77501V12.5943C11.0488 12.7864 10.8932 12.9416 10.7015 12.9416ZM8.9655 12.9416C8.77378 12.9416 8.61822 12.7864 8.61822 12.5943V8.77501C8.61822 8.58329 8.77339 8.42773 8.9655 8.42773C9.15761 8.42773 9.31278 8.5829 9.31278 8.77501V12.5943C9.31239 12.7864 9.15723 12.9416 8.9655 12.9416Z" fill="#F4900C"/>
<path d="M11.9166 7.2069V5.99707H6.01367V7.89407C6.12723 7.93568 6.24856 7.96213 6.37651 7.96213C6.81906 7.96213 7.19745 7.68951 7.35495 7.30335C7.44751 7.38346 7.56689 7.43324 7.69834 7.43324C7.87723 7.43324 8.03473 7.34379 8.13039 7.20768C8.31823 7.50168 8.64528 7.69768 9.02017 7.69768C9.36395 7.69768 9.66689 7.53085 9.85978 7.27651C9.95623 7.52268 10.1942 7.69768 10.4742 7.69768C10.7251 7.69768 10.9405 7.55613 11.0529 7.3504C11.1579 7.40174 11.2746 7.43324 11.3998 7.43324C11.7428 7.43324 11.9166 7.2069 11.9166 7.2069Z" fill="#FFAC33"/>
<path d="M10.875 4.26123H6.36117C5.66661 4.26123 5.31934 4.60851 5.31934 5.30306V6.3764C5.31934 6.96051 5.793 7.43379 6.37672 7.43379C6.81928 7.43379 7.19767 7.16118 7.35517 6.7754C7.44772 6.85512 7.56711 6.90529 7.69856 6.90529C7.87745 6.90529 8.03495 6.81584 8.13061 6.67973C8.31845 6.97334 8.6455 7.16934 9.02039 7.16934C9.36417 7.16934 9.66711 7.00251 9.86 6.74818C9.95645 6.99434 10.1944 7.16934 10.4744 7.16934C10.7156 7.16934 10.9217 7.03712 11.0372 6.84384C11.1305 6.9329 11.2565 6.98851 11.3957 6.98851C11.6835 6.98851 11.9164 6.75517 11.9164 6.46779V5.30306C11.9168 4.60851 11.5696 4.26123 10.875 4.26123Z" fill="#EEEEEE"/>
</svg>
