<svg viewBox="0 0 14 14" xmlns="http://www.w3.org/2000/svg">
<path d="M12.2237 9.30922C11.9911 6.73556 10.7078 5.44444 10.7078 5.44444L8.37446 2.33333H5.26335L2.93001 5.44444C2.93001 5.44444 2.37818 6.00172 1.93174 7.10694C1.15824 7.36361 0.59668 8.08461 0.59668 8.94444C0.59668 9.50756 0.839735 10.0108 1.2224 10.3658C1.07618 10.6388 0.985569 10.9461 0.985569 11.2778C0.985569 12.0392 1.42735 12.6918 2.06474 13.0107C2.56368 13.7581 3.23024 14 3.70779 14H9.93001C10.4663 14 11.2417 13.6971 11.7492 12.7128C12.5002 12.4441 13.0411 11.7328 13.0411 10.8889C13.0411 10.2363 12.7168 9.66233 12.2237 9.30922ZM6.8189 2.33333C7.03279 2.33333 7.23035 2.27189 7.40224 2.17156C7.57451 2.27189 7.77207 2.33333 7.98557 2.33333C8.62996 2.33333 9.54112 1.42178 9.54112 0.777778C9.54112 0.777778 9.54112 0 8.76335 0C8.4569 0 8.37446 0.388889 7.98557 0.388889C7.59668 0.388889 7.59668 0 6.8189 0C6.04112 0 6.04112 0.388889 5.65224 0.388889C5.26335 0.388889 5.18129 0 4.87446 0C4.09668 0 4.09668 0.777778 4.09668 0.777778C4.09668 1.42178 5.00824 2.33333 5.65224 2.33333C5.86574 2.33333 6.06329 2.27189 6.23557 2.17156C6.40785 2.27189 6.6054 2.33333 6.8189 2.33333Z" fill="#FDD888"/>
<path d="M9.15226 2.33322C9.15226 2.54789 8.97843 2.72211 8.76337 2.72211H4.87448C4.65982 2.72211 4.4856 2.54789 4.4856 2.33322C4.4856 2.11856 4.65982 1.94434 4.87448 1.94434H8.76337C8.97843 1.94434 9.15226 2.11856 9.15226 2.33322Z" fill="#BF6952"/>
<path d="M9.11366 9.54417C9.11366 7.80311 5.77661 7.91667 5.77661 6.86628C5.77661 6.35761 6.28255 6.10911 6.86977 6.10911C7.85677 6.10911 8.03255 6.71928 8.47939 6.71928C8.79555 6.71928 8.948 6.52755 8.948 6.3125C8.948 5.81317 8.16089 5.43517 7.40605 5.3045V4.82228C7.40605 4.52167 7.15327 4.27783 6.84061 4.27783C6.52755 4.27783 6.27439 4.52167 6.27439 4.82228V5.32122C5.4515 5.50128 4.74333 6.05039 4.74333 6.94522C4.74333 8.61705 8.07961 8.54939 8.07961 9.72383C8.07961 10.131 7.6215 10.5378 6.86977 10.5378C5.74161 10.5378 5.36594 9.80316 4.90783 9.80316C4.68461 9.80316 4.48511 9.98361 4.48511 10.2558C4.48511 10.6887 5.23877 11.209 6.27516 11.3541L6.27477 11.3579V11.9016C6.27477 12.2018 6.52833 12.4461 6.841 12.4461C7.15366 12.4461 7.40683 12.2018 7.40683 11.9016V11.3579C7.40683 11.3513 7.40372 11.3463 7.40333 11.3404C8.33589 11.1732 9.11366 10.5891 9.11366 9.54417Z" fill="#67757F"/>
</svg>
