<svg viewBox="0 0 14 14" xmlns="http://www.w3.org/2000/svg">
<path d="M5.44442 7.05566C4.15564 7.05566 3.11108 8.10061 3.11108 9.389C3.11108 10.6774 4.15564 11.7223 5.44442 11.7223C6.73319 11.7223 7.77775 10.6774 7.77775 9.389C7.77775 8.10061 6.73281 7.05566 5.44442 7.05566ZM5.44442 10.9446C4.58536 10.9446 3.88886 10.2481 3.88886 9.389C3.88886 8.52994 4.58536 7.83344 5.44442 7.83344C6.30347 7.83344 6.99997 8.52994 6.99997 9.389C6.99997 10.2481 6.30347 10.9446 5.44442 10.9446Z" fill="#3B88C3"/>
<path d="M0.693389 5.12007V5.12785C0.304111 5.2134 0 5.86518 0 6.66668C0 7.46818 0.304111 8.11996 0.693389 8.20512V8.21329L11.8549 11.3135V2.0249L0.693389 5.12007Z" fill="#55ACEE"/>
<path d="M12.0555 11.3333C13.1294 11.3333 14 9.244 14 6.66667C14 4.08934 13.1294 2 12.0555 2C10.9816 2 10.1111 4.08934 10.1111 6.66667C10.1111 9.244 10.9816 11.3333 12.0555 11.3333Z" fill="#226699"/>
</svg>
