<svg viewBox="0 0 14 14" xmlns="http://www.w3.org/2000/svg">
<path d="M1.52946 12.7622C1.64429 12.8278 1.77565 12.8687 1.91762 12.8687C2.35219 12.8687 2.70418 12.5164 2.70418 12.0822C2.70418 11.648 2.35219 11.2956 1.91762 11.2956C1.48305 11.2956 1.13107 11.648 1.13107 12.0822C1.13107 12.2242 1.17157 12.3555 1.23725 12.4704L0 13.7076L0.344511 10.9024L3.88401 8.14941L5.8504 10.1158L3.09746 13.6553L0.291812 13.9998L1.52946 12.7622Z" fill="#99AAB5"/>
<path d="M8.74379 1.97829C8.29113 2.43095 8.29113 3.16441 8.74379 3.61707L10.3826 5.25626C10.8352 5.70852 11.5695 5.70852 12.0214 5.25626L13.6602 3.61707C14.1124 3.16441 14.1124 2.43095 13.6602 1.97829L12.0214 0.339497C11.5691 -0.113166 10.8352 -0.113166 10.3826 0.339497L8.74379 1.97829Z" fill="#66757F"/>
<path d="M3.63125 7.09115L10.3964 0.325195L13.6736 3.60316L6.90882 10.3687C6.45655 10.821 5.7227 10.821 5.26964 10.3687L3.63125 8.72954C3.17858 8.27688 3.17858 7.54342 3.63125 7.09115Z" fill="#31373D"/>
<path d="M6.76074 3.9612L7.59646 3.12549L10.874 6.40306L10.0383 7.23878L6.76074 3.9612Z" fill="#66757F"/>
</svg>
